<?xml version="1.0" encoding="utf-8"?>
<!-- Generator: Adobe Illustrator 22.1.0, SVG Export Plug-In . SVG Version: 6.00 Build 0)  -->
<svg version="1.1" id="Layer_1" xmlns="http://www.w3.org/2000/svg" xmlns:xlink="http://www.w3.org/1999/xlink" x="0px" y="0px"
	 viewBox="0 0 104.8 125.7" style="enable-background:new 0 0 104.8 125.7;" xml:space="preserve">
<style type="text/css">
	.st0{fill:#0F0F0F;}
</style>
<path class="st0" d="M21.3,125.6h6.9v-1.7h-4.9v-3.8h4.6v-1.7h-4.6v-3.3h4.9v-1.7h-6.9V125.6z M45.9,119.8c-0.4-0.3-1.1-0.7-2-1
	c-0.8-0.3-1.3-0.6-1.6-0.8s-0.5-0.4-0.7-0.6c-0.1-0.2-0.2-0.5-0.2-0.8c0-0.5,0.2-0.8,0.5-1.1s0.8-0.4,1.5-0.4c0.8,0,1.8,0.2,2.9,0.7
	l0.6-1.6c-1.1-0.5-2.3-0.8-3.5-0.8c-1.2,0-2.2,0.3-2.9,0.9c-0.7,0.6-1.1,1.4-1.1,2.4c0,0.8,0.2,1.5,0.7,2.1s1.2,1.1,2.3,1.5
	c1.1,0.4,1.8,0.8,2.1,1.1s0.5,0.7,0.5,1.2c0,0.5-0.2,0.9-0.6,1.2s-1,0.4-1.7,0.4c-0.5,0-1.1-0.1-1.7-0.2s-1.2-0.4-1.8-0.6v1.9
	c0.9,0.4,2,0.6,3.4,0.6s2.4-0.3,3.2-0.9c0.8-0.6,1.2-1.5,1.2-2.5c0-0.5-0.1-1-0.3-1.4S46.3,120.1,45.9,119.8z M36.6,119.8
	c-0.4-0.3-1.1-0.7-2-1c-0.8-0.3-1.3-0.6-1.6-0.8s-0.5-0.4-0.7-0.6c-0.1-0.2-0.2-0.5-0.2-0.8c0-0.5,0.2-0.8,0.5-1.1s0.8-0.4,1.5-0.4
	c0.8,0,1.8,0.2,2.9,0.7l0.6-1.6c-1.1-0.5-2.3-0.8-3.5-0.8c-1.2,0-2.2,0.3-2.9,0.9c-0.7,0.6-1.1,1.4-1.1,2.4c0,0.8,0.2,1.5,0.7,2.1
	s1.2,1.1,2.3,1.5c1.1,0.4,1.8,0.8,2.1,1.1s0.5,0.7,0.5,1.2c0,0.5-0.2,0.9-0.6,1.2s-1,0.4-1.7,0.4c-0.5,0-1.1-0.1-1.7-0.2
	s-1.2-0.4-1.8-0.6v1.9c0.9,0.4,2,0.6,3.4,0.6s2.4-0.3,3.2-0.9c0.8-0.6,1.2-1.5,1.2-2.5c0-0.5-0.1-1-0.3-1.4S37,120.1,36.6,119.8z
	 M3.5,113.4H0v12.1h2V121h1.3c1.5,0,2.7-0.3,3.5-1s1.2-1.6,1.2-2.9c0-1.2-0.4-2.1-1.1-2.7S5,113.4,3.5,113.4z M5.3,118.8
	c-0.5,0.4-1.2,0.5-2.2,0.5H2v-4.3h1.4c0.9,0,1.6,0.2,2,0.5s0.6,0.9,0.6,1.6C6,117.9,5.8,118.5,5.3,118.8z M18.5,117
	c0-1.2-0.4-2.1-1.1-2.7s-1.9-0.9-3.5-0.9h-3.4v12.1h2v-4.8h2l2.9,4.8h2.3l-3.4-5.4C17.7,119.6,18.5,118.5,18.5,117z M13.8,119.1
	h-1.4v-4h1.3c0.9,0,1.6,0.1,2,0.4c0.4,0.3,0.7,0.8,0.7,1.5c0,0.7-0.2,1.2-0.6,1.5S14.7,119.1,13.8,119.1z M101.4,120.2
	c1.6-0.6,2.4-1.7,2.4-3.2c0-1.2-0.4-2.1-1.1-2.7s-1.9-0.9-3.5-0.9h-3.4v12.1h2v-4.8h2l2.9,4.8h2.3L101.4,120.2z M99.1,119.1h-1.4v-4
	H99c0.9,0,1.6,0.1,2,0.4c0.4,0.3,0.7,0.8,0.7,1.5c0,0.7-0.2,1.2-0.6,1.5C100.7,118.9,100,119.1,99.1,119.1z M53.9,125.6h6.9v-1.7
	h-4.9v-3.8h4.6v-1.7h-4.6v-3.3h4.9v-1.7h-6.9V125.6z M86.3,125.6h6.9v-1.7h-4.9v-3.8h4.6v-1.7h-4.6v-3.3h4.9v-1.7h-6.9V125.6z
	 M75.3,115.1h3.6v10.4h2v-10.4h3.6v-1.7h-9.1V115.1z M71.6,119.8c0,0.4,0,1.1,0,1.9c0,0.8,0.1,1.3,0.1,1.4h0l-5.9-9.6h-2.4v12.1h1.8
	v-6.3c0-0.9,0-1.8-0.1-2.8l0-0.5h0.1l6,9.7h2.4v-12.1h-1.8V119.8z M94.8,48.9c-10-5.8-19.9-11.9-30.1-17.5c-4.3-2.4-7.3-4.8-5.8-9
	c0.2-4.2,0.1-7.2-0.3-10.2C58.2,9,57.8,5.9,56.4,3c-0.8-1.6-1.9-3-3.8-3c-2-0.1-3.4,1.1-4.4,2.8c-1.1,1.8-1.6,3.8-2,5.8
	c-1.1,5.5-1.2,11-1,16.6c0.1,1.8-0.6,2.7-2.1,3.6C32,35.1,21.1,41.6,10.1,48c-3.5,2-3.4,2-1.3,5.5c0.6,0.9,1.2,1.2,2.2,0.9
	c2.9-0.8,5.9-1.4,8.8-2.2c1.3-0.4,1.9-0.1,2.1,1.3c0,0.3,0.1,0.6,0.2,0.8c0.2,0.7,0.6,1,1.4,1c0.7,0,1.2-0.3,1.4-1
	c0.2-0.7,0.5-1.4,0.6-2.1c0.1-1.2,0.7-1.6,1.8-1.9c2-0.4,4-1,6-1.5c1-0.2,2.1-0.8,3-0.6c1.3,0.3,0.7,1.9,1.2,2.8c0,0,0,0.1,0,0.2
	c0.2,0.6,0.6,1,1.3,1c0.7,0,1.3-0.1,1.5-0.8c0.3-0.9,0.7-1.9,0.7-2.8c0-1.4,0.7-1.9,1.9-2.1c0.4-0.1,0.9-0.2,1.3-0.3
	c1.5-0.6,2,0.1,2.1,1.6c0.6,8.8,1.6,17.5,2.7,26.2c0.2,1.7,0,3.1-1.4,4.3c-1.2,0.9-2.1,2.1-3.2,3.1c-1.6,1.6-3.1,3.2-4.7,4.8
	c-1,1-0.3,2.1,0.1,3c0.5,1,1.3,0.2,1.9-0.1c2.5-1.1,5-2.3,7.4-3.5c1.9-0.9,3.8-1,5.7,0c2.4,1.2,4.8,2.3,7.3,3.5
	c2,0.9,2.6,0.6,2.8-1.6c0-0.8-0.5-1.2-1-1.7c-2.8-2.9-5.6-5.7-8.4-8.6c-0.7-0.7-1-1.5-0.8-2.5c1.2-8.5,2-17,3-25.5
	c0.3-3.1,0.4-3,3.4-2.4c1.6,0.3,2.5,0.9,2.5,2.6c0,0.7,0.3,1.4,0.6,2.1c0.2,0.7,0.8,0.8,1.5,0.8c0.7,0,1.1-0.4,1.2-1
	c0.1-0.5,0.3-1,0.4-1.5c0.1-1.2,0.7-1.4,1.8-1.1c2.3,0.6,4.6,1.3,7,1.7c1.8,0.3,3.1,0.9,3.2,3c0.1,0.9,0.3,1.8,1.6,1.9
	c1.3,0,1.5-0.9,1.7-1.8c0.2-1.2,0.8-1.4,2-1.1c1.9,0.6,3.9,1,5.8,1.5c3.8,0.9,2.8,1.3,5-2.1C96.4,50.4,96.2,49.7,94.8,48.9z
	 M77.4,60.2c-1.2,0-1.1,0.9-1.1,1.7c0,6.4,0,12.8,0,19.2c0,0.8-0.1,1.7,1.1,1.7c1.2,0,1.1-0.9,1.1-1.7c0-3.2,0-6.4,0-9.6
	s0-6.4,0-9.6C78.5,61.1,78.6,60.2,77.4,60.2z M25.9,82.8c1.2,0,1.2-0.8,1.2-1.6c0-3.2,0-6.4,0-9.6c0-3.2,0-6.4,0-9.6
	c0-0.8,0.1-1.7-1.1-1.7c-1.2,0-1.2,0.8-1.2,1.6c0,6.4,0,12.8,0,19.2C24.8,81.9,24.6,82.7,25.9,82.8z M69.3,74c0-2.7,0-5.4,0-8
	c0-2.7,0-5.4,0-8c0-0.8-0.1-1.5-1.2-1.5C67,56.5,67,57.2,67,58c0,5.4,0,10.7,0,16.1c0,0.8,0.1,1.5,1.2,1.5
	C69.2,75.5,69.3,74.8,69.3,74z M35.2,75.5c1.1,0,1.1-0.7,1.1-1.5c0-2.7,0-5.4,0-8c0-2.7,0-5.4,0-8c0-0.8-0.1-1.5-1.2-1.5
	c-1.1,0-1.1,0.7-1.1,1.5c0,5.4,0,10.7,0,16.1C34,74.9,34.1,75.6,35.2,75.5z"/>
</svg>
