<?xml version="1.0" encoding="iso-8859-1"?>
<!-- Generator: Adobe Illustrator 19.0.0, SVG Export Plug-In . SVG Version: 6.00 Build 0)  -->
<svg version="1.1" id="Layer_1" xmlns="http://www.w3.org/2000/svg" xmlns:xlink="http://www.w3.org/1999/xlink" x="0px" y="0px"
	 viewBox="0 0 511.999 511.999" style="enable-background:new 0 0 511.999 511.999;" xml:space="preserve">
<g>
	<g>
		<path d="M189.104,246.774h-48.473l-7.121-35.919h40.477c8.663,0,15.71-7.047,15.71-15.71v-86.476c0-8.663-7.047-15.71-15.71-15.71
			H33.535c-8.663,0-15.71,7.047-15.71,15.71v86.476c0,8.663,7.047,15.71,15.71,15.71h40.477l-7.121,35.919H7.602
			c-4.199,0-7.602,3.404-7.602,7.602v231.941c0,4.198,3.402,7.602,7.602,7.602h181.503c4.199,0,7.602-3.404,7.602-7.602V254.376
			C196.706,250.177,193.304,246.774,189.104,246.774z M33.028,108.668c0-0.26,0.246-0.507,0.507-0.507h140.452
			c0.26,0,0.507,0.246,0.507,0.507v59.852c-51,0.139-119.483,0.254-141.466,0.117V108.668z M33.535,195.651
			c-0.26,0-0.507-0.246-0.507-0.507v-11.307c4.272,0.027,10.114,0.045,17.057,0.055c4.671,0.007,9.996,0.01,15.956,0.01
			c10.654,0,23.333-0.01,37.9-0.031c28.678-0.042,57.306-0.112,70.553-0.148v11.422c0,0.26-0.246,0.507-0.507,0.507h-49.733H83.268
			H33.535z M125.132,246.773H82.389l7.121-35.919h28.501L125.132,246.773z M15.203,478.714V261.977h57.929h61.257h47.113v216.737
			H15.203z"/>
	</g>
</g>
<g>
	<g>
		<path d="M504.398,69.518h-87.833V51.561c0-4.198-3.402-7.602-7.602-7.602h-6.907v-11.76c0-8.663-7.047-15.71-15.71-15.71h-35.58
			c-8.663,0-15.71,7.047-15.71,15.71v11.76h-7.096c-4.199,0-7.602,3.403-7.602,7.602v17.957h-87.833
			c-4.199,0-7.602,3.404-7.602,7.602v51.407v357.789c0,4.198,3.402,7.602,7.602,7.602h33.345c4.199,0,7.602-3.403,7.602-7.602
			V136.128h189.978v350.187c0,4.198,3.402,7.602,7.602,7.602h33.345c4.199,0,7.602-3.403,7.602-7.602V128.527V77.12
			C512,72.922,508.597,69.518,504.398,69.518z M350.26,32.199c0-0.26,0.246-0.507,0.507-0.507h35.58c0.26,0,0.507,0.246,0.507,0.507
			v11.76H350.26V32.199z M335.563,59.163h65.799v10.355h-65.799V59.163z M258.27,478.714h-18.141V136.128h18.141V478.714z
			 M265.871,120.925h-25.743V84.721h87.833h81.003h87.833v36.204h-25.743H265.871z M496.797,478.714h-18.141V136.128h18.141V478.714
			z"/>
	</g>
</g>
<g>
	<g>
		<path d="M352.555,89c-7.623,0-13.824,6.201-13.824,13.824c0,7.622,6.201,13.823,13.824,13.823s13.824-6.201,13.824-13.823
			C366.379,95.2,360.178,89,352.555,89z M352.555,104.203c-0.761,0-1.379-0.619-1.379-1.379c-0.001-0.761,0.618-1.38,1.379-1.38
			c0.761,0,1.379,0.619,1.379,1.38C353.934,103.583,353.316,104.203,352.555,104.203z"/>
	</g>
</g>
<g>
	<g>
		<path d="M384.37,89c-7.623,0-13.824,6.201-13.824,13.824c0.001,7.622,6.202,13.823,13.824,13.823
			c7.622,0,13.823-6.201,13.823-13.823C398.193,95.2,391.992,89,384.37,89z M384.37,104.203c-0.761,0-1.38-0.619-1.38-1.379
			c0-0.761,0.619-1.38,1.38-1.38s1.379,0.619,1.379,1.38C385.75,103.583,385.131,104.203,384.37,104.203z"/>
	</g>
</g>
<g>
	<g>
		<path d="M163.656,388.168v-92.951c0-8.663-7.047-15.71-15.71-15.71H48.76c-8.662,0-15.71,7.047-15.71,15.71v92.404
			c-8.775,2.506-15.224,10.581-15.224,20.149c0,11.563,9.407,20.969,20.968,20.969h117.482c11.562,0,20.968-9.407,20.968-20.969
			C177.244,398.808,171.582,391.163,163.656,388.168z M48.253,295.217c0-0.26,0.246-0.507,0.507-0.507h99.187
			c0.261,0,0.508,0.246,0.508,0.507v35.446H48.253V295.217z M48.253,345.866h100.2v7.768h-100.2V345.866z M48.253,368.837h100.2
			v17.965h-100.2V368.837z M156.277,413.537H38.793c-3.179,0-5.765-2.587-5.765-5.766c0-3.179,2.587-5.766,5.765-5.766h1.858
			h115.404h0.221c3.18,0,5.765,2.587,5.765,5.766C162.042,410.95,159.455,413.537,156.277,413.537z"/>
	</g>
</g>
<g>
	<g>
		<path d="M368.557,154.739c-19.806,0-35.918,16.112-35.918,35.918v15.453c0,19.806,16.113,35.918,35.918,35.918
			c19.805,0,35.918-16.112,35.918-35.918v-15.453C404.475,170.851,388.363,154.739,368.557,154.739z M389.272,206.112
			c0,11.422-9.292,20.715-20.715,20.715s-20.715-9.292-20.715-20.715v-15.454c0-11.422,9.292-20.715,20.715-20.715
			s20.715,9.292,20.715,20.715V206.112z"/>
	</g>
</g>
<g>
	<g>
		<path d="M398.408,246.774h-29.851h-29.851c-18.958,0-34.383,15.424-34.383,34.383v103.167c0,4.198,3.402,7.602,7.602,7.602h20.715
			v95.983c0,4.198,3.402,7.602,7.602,7.602h28.316h28.316c4.199,0,7.602-3.403,7.602-7.602v-95.983h20.715
			c4.199,0,7.602-3.404,7.602-7.602V281.156C432.79,262.197,417.366,246.774,398.408,246.774z M332.64,282.691v9.294v57.079v27.657
			h-13.113v-95.564c0-10.575,8.603-19.179,19.179-19.179h0.536C335.091,267.836,332.64,274.98,332.64,282.691z M368.557,261.977
			c2.967,0,5.784,0.638,8.338,1.767l-8.338,8.314l-8.338-8.314C362.773,262.615,365.59,261.977,368.557,261.977z M360.955,480.305
			h-13.113v-95.982v-5.943c3.877,2.748,8.316,4.747,13.113,5.785V480.305z M389.271,384.324v95.982h-13.113v-96.14
			c4.796-1.038,9.236-3.038,13.113-5.785V384.324z M389.271,291.985v57.079c0,11.422-9.292,20.715-20.714,20.715
			c-11.423,0-20.715-9.292-20.715-20.715v-57.079v-9.294c0-2.892,0.6-5.644,1.674-8.147l13.672,13.631
			c1.484,1.479,3.426,2.219,5.368,2.219s3.884-0.739,5.368-2.219l13.672-13.632c1.075,2.502,1.675,5.255,1.675,8.148V291.985z
			 M417.587,376.722h-13.113v-27.658v-57.079v-9.294c0-7.711-2.451-14.856-6.602-20.714h0.536c10.576,0,19.179,8.604,19.179,19.179
			V376.722z"/>
	</g>
</g>
<g>
</g>
<g>
</g>
<g>
</g>
<g>
</g>
<g>
</g>
<g>
</g>
<g>
</g>
<g>
</g>
<g>
</g>
<g>
</g>
<g>
</g>
<g>
</g>
<g>
</g>
<g>
</g>
<g>
</g>
</svg>
