<?xml version="1.0" encoding="UTF-8"?>
<svg width="102px" height="102px" viewBox="0 0 102 102" version="1.1" xmlns="http://www.w3.org/2000/svg" xmlns:xlink="http://www.w3.org/1999/xlink">
    <!-- Generator: Sketch 51.2 (57519) - http://www.bohemiancoding.com/sketch -->
    <title>HongKong</title>
    <desc>Created with Sketch.</desc>
    <defs></defs>
    <g id="Page-1" stroke="none" stroke-width="1" fill="none" fill-rule="evenodd">
        <g id="HongKong" transform="translate(1.000000, 1.000000)">
            <g id="hong-kong" fill-rule="nonzero">
                <circle id="Oval" fill="#FF4B55" cx="50" cy="50" r="50"></circle>
                <g id="Group" transform="translate(25.195312, 25.000000)" fill="#F5F5F5">
                    <path d="M17.4023437,28.0273438 C14.7851562,28.046875 11.8554687,27.2265625 9.296875,24.3945312 C9.12109375,24.1992188 9.140625,23.8867188 9.35546875,23.7304688 C9.55078125,23.5742188 9.84375,23.59375 10.0195313,23.7890625 C13.9257813,28.0859375 18.7890625,27.34375 21.6796875,26.2890625 C20.6054688,26.328125 19.2578125,26.25 18.3984375,25.6835938 C14.7851562,23.3007812 16.4257812,20.78125 14.0234375,17.7148437 C11.640625,14.6679687 9.4921875,14.7460938 6.11328125,15.2734375 C2.7734375,15.78125 1.69921875,13.3203125 1.3671875,11.953125 C1.30859375,11.71875 0.9765625,11.6992187 0.87890625,11.9335937 C-3.30078125,23.203125 9.2578125,37.1484375 22.1289062,27.1289062 C20.8398437,27.578125 19.1992188,28.0078125 17.4023437,28.0273438 Z M8.0078125,24.1992188 C7.9296875,24.3945312 7.65625,24.3945312 7.578125,24.1796875 L7.08984375,22.5976562 L5.4296875,22.5390625 C5.21484375,22.5390625 5.13671875,22.2460938 5.3125,22.1289062 L6.66015625,21.1914062 L6.2109375,19.609375 C6.15234375,19.3945312 6.38671875,19.2382812 6.5625,19.375 L7.890625,20.3710938 L9.2578125,19.453125 C9.43359375,19.3359375 9.66796875,19.5117188 9.58984375,19.7070313 L9.04296875,21.2695313 L10.3515625,22.2851562 C10.5273438,22.421875 10.4296875,22.6953125 10.2148438,22.6757812 L8.5546875,22.6367188 L8.0078125,24.1992188 Z" id="Shape"></path>
                    <path d="M26.6601563,20.546875 C28.7304688,18.9648438 31.5820312,17.8710938 35.3320312,18.59375 C35.5859375,18.6523438 35.7617188,18.90625 35.703125,19.1601562 C35.6445312,19.4140625 35.390625,19.5703125 35.15625,19.5117188 C29.453125,18.4179688 26.015625,21.9335938 24.3164062,24.5117188 C25.1367187,23.828125 26.2695312,23.0859375 27.3046875,23.0273438 C31.6210938,22.7539063 31.8359375,25.7617188 35.5859375,26.7773438 C39.3164062,27.7734375 40.9960937,26.4257813 43.3984375,23.984375 C45.78125,21.5625 48.1054688,22.890625 49.1796875,23.7890625 C49.375,23.9453125 49.6484375,23.75 49.5898438,23.515625 C46.171875,11.9921875 27.7734375,8.359375 23.4765625,24.1015625 C24.1796875,22.96875 25.2148438,21.640625 26.6601563,20.546875 Z M36.4648438,17.96875 C36.40625,17.7734375 36.640625,17.5976562 36.8164062,17.7148438 L38.1445313,18.6914062 L39.5117188,17.7539062 C39.6875,17.6367188 39.921875,17.8125 39.84375,18.0078125 L39.3164063,19.5703125 L40.6445313,20.5664062 C40.8203125,20.703125 40.7226562,20.9765625 40.5078125,20.9765625 L38.8476563,20.9765625 L38.3007813,22.5390625 C38.2226563,22.734375 37.9492188,22.734375 37.8710938,22.5390625 L37.3632813,20.9570312 L35.703125,20.9179688 C35.4882812,20.9179688 35.4101563,20.6445312 35.5859375,20.5078125 L36.9335938,19.5507812 L36.4648438,17.96875 Z" id="Shape"></path>
                    <path d="M19.7460937,21.6210938 C18.7304687,19.21875 18.3789062,16.1914062 20.0195312,12.734375 C20.1367187,12.5 20.4296875,12.4023438 20.6640625,12.5195312 C20.8984375,12.6367188 20.9765625,12.9101562 20.859375,13.1445312 C18.3789062,18.3984375 20.9179687,22.5976562 22.9882812,24.8828125 C22.5390625,23.90625 22.0898437,22.6367187 22.3046875,21.6210938 C23.125,17.3632812 26.09375,17.9296875 28.0078125,14.53125 C29.9023437,11.171875 29.0234375,9.21875 27.265625,6.26953125 C25.5273438,3.359375 27.3828125,1.4453125 28.515625,0.625 C28.7109375,0.46875 28.59375,0.15625 28.359375,0.15625 C16.3476562,0.5859375 8.22265625,17.5 22.4023437,25.5859375 C21.4648437,24.6289062 20.4296875,23.28125 19.7460937,21.6210938 Z M19.7070312,11.484375 C19.4921875,11.484375 19.3945312,11.2304688 19.5507812,11.09375 L20.8398437,10.0390625 L20.2734375,8.49609375 C20.1953125,8.30078125 20.4296875,8.10546875 20.6054687,8.22265625 L21.9921875,9.12109375 L23.28125,8.0859375 C23.4570312,7.94921875 23.6914062,8.10546875 23.6328125,8.3203125 L23.203125,9.921875 L24.5898437,10.8398437 C24.765625,10.9570312 24.6875,11.2304687 24.4726562,11.25 L22.8125,11.3476562 L22.3632812,12.9492187 C22.3046875,13.1640625 22.0117187,13.1640625 21.9335937,12.96875 L21.328125,11.4257812 L19.7070312,11.484375 Z" id="Shape"></path>
                    <path d="M29.1015625,27.0898438 C31.25,28.5546875 33.1835938,30.9179688 33.671875,34.7070313 C33.7109375,34.9609375 33.515625,35.2148438 33.2421875,35.234375 C32.9882812,35.2539063 32.7734375,35.078125 32.734375,34.8242188 C31.9726562,29.0625 27.5585937,26.8945313 24.5898438,26.09375 C25.4882813,26.6601563 26.5625,27.5 26.9335938,28.4570313 C28.5351562,32.4804688 25.7617188,33.6132813 25.9765625,37.5 C26.1914063,41.3476563 28.0078125,42.5195313 31.0742188,44.0429688 C34.1210938,45.546875 33.5742188,48.1640625 33.0859375,49.4726563 C32.9882813,49.7070313 33.2617188,49.921875 33.4765625,49.765625 C43.3398438,42.890625 41.015625,24.2773438 24.7070313,25.15625 C26.015625,25.4882813 27.6171875,26.0742188 29.1015625,27.0898438 Z M34.6289063,35.5859375 C34.8046875,35.46875 35.0390625,35.625 34.9609375,35.8398438 L34.453125,37.421875 L35.78125,38.4179688 C35.9570312,38.5546875 35.859375,38.828125 35.6445312,38.828125 L33.984375,38.828125 L33.4570313,40.390625 C33.3789063,40.5859375 33.1054688,40.5859375 33.0273438,40.390625 L32.5195312,38.8085938 L30.859375,38.7890625 C30.6445312,38.7890625 30.5664063,38.515625 30.7226563,38.3789062 L32.0703125,37.4023438 L31.5820312,35.8203125 C31.5234375,35.625 31.7578125,35.4492188 31.9335938,35.5664062 L33.28125,36.5429687 L34.6289063,35.5859375 Z" id="Shape"></path>
                    <path d="M23.6914063,31.7578125 C22.9492188,34.2578125 21.2890625,36.8164062 17.8320313,38.4375 C17.5976563,38.5546875 17.3046875,38.4375 17.2070313,38.1835937 C17.109375,37.9492187 17.2070313,37.6757812 17.4414063,37.578125 C22.6953125,35.0976562 23.4179688,30.234375 23.28125,27.1679687 C23.0078125,28.203125 22.5390625,29.4726562 21.7382813,30.1367187 C18.3984375,32.890625 16.4648438,30.5859375 12.8320313,31.9726562 C9.21875,33.359375 8.671875,35.4296875 8.1640625,38.8085937 C7.65625,42.1484375 5,42.4609375 3.59375,42.3632812 C3.33984375,42.34375 3.22265625,42.6757812 3.41796875,42.8125 C12.96875,50.1171875 29.9804688,42.2460937 24.1992188,26.9726562 C24.2773438,28.3398438 24.21875,30.0390625 23.6914063,31.7578125 Z M17.2851562,39.609375 C17.4609375,39.7460937 17.3632812,40.0195312 17.1484375,40.0195312 L15.4882813,40.0195312 L14.9414062,41.5820312 C14.8632812,41.7773438 14.5898437,41.7773438 14.5117188,41.5820312 L14.0039063,40 L12.34375,39.9609375 C12.1289063,39.9609375 12.0507813,39.6875 12.2265625,39.5507812 L13.5742188,38.59375 L13.0859375,37.0117187 C13.0273438,36.8164062 13.2617188,36.640625 13.4375,36.7578125 L14.765625,37.734375 L16.1328125,36.796875 C16.3085938,36.6796875 16.5429688,36.8554687 16.4648438,37.0507812 L15.9375,38.6132812 L17.2851562,39.609375 Z" id="Shape"></path>
                </g>
            </g>
            <g id="Group-7-Copy" stroke="#FFFFFF" stroke-width="2">
                <circle id="Oval-2-Copy" cx="50" cy="50" r="50"></circle>
            </g>
        </g>
    </g>
</svg>