<?xml version="1.0" encoding="iso-8859-1"?>
<!-- Generator: Adobe Illustrator 19.0.0, SVG Export Plug-In . SVG Version: 6.00 Build 0)  -->
<svg version="1.1" id="Capa_1" xmlns="http://www.w3.org/2000/svg" xmlns:xlink="http://www.w3.org/1999/xlink" x="0px" y="0px"
	 viewBox="0 0 512 512" style="enable-background:new 0 0 512 512;" xml:space="preserve">
<g>
	<g>
		<path d="M511.647,490.388L416.681,142.39c-0.164-0.6-0.385-1.171-0.647-1.715V90.719c0-18.898-15.374-34.272-34.272-34.272h-83.47
			c-18.897-0.001-34.271,15.374-34.271,34.272v51.735c0,0.344,0.018,0.683,0.051,1.018c-3.212,2.617-6.03,5.777-8.304,9.427
			l-55.533,89.13c-2.921,4.688-1.488,10.856,3.199,13.776c4.688,2.921,10.855,1.487,13.776-3.199l55.533-89.132
			c3.309-5.311,9.021-8.482,15.278-8.482h0.133c0.14,0,0.282-0.003,0.421-0.009c0.183,0.006,0.368,0.009,0.558,0.009l77.261,0.027
			v36.172c-13.231,0.054-36.739-0.035-53.82-0.101l-9.009-0.034c-0.012,0-0.024,0-0.036,0c-3.452,0-6.662,1.781-8.488,4.712
			l-144.43,231.816c-10.54,16.917-25.321,30.973-42.747,40.647c-17.426,9.675-37.173,14.788-57.106,14.788h-30.76v-36.003h30.76
			c28.382,0,54.286-14.381,69.295-38.471l52.491-84.251c2.921-4.688,1.488-10.856-3.199-13.776
			c-4.688-2.922-10.855-1.488-13.776,3.199l-52.491,84.251c-11.332,18.188-30.891,29.046-52.318,29.046H10.001
			C4.478,427.016,0,431.493,0,437.016v56.005c0,5.523,4.478,10.001,10.001,10.001h40.76c23.32,0,46.425-5.982,66.814-17.302
			c20.389-11.32,37.683-27.765,50.014-47.558l125.941-202.138v141.074c0,5.523,4.478,10.001,10.001,10.001
			s10.001-4.477,10.001-10.001v-166c22.542,0.086,42.46,0.149,53.927,0.09l74.469,271.832H428.54
			c-5.522,0-10.001,4.477-10.001,10.001s4.478,10.001,10.001,10.001h26.497h23.655h23.307c3.117,0,6.056-1.454,7.948-3.931
			C511.84,496.613,512.468,493.395,511.647,490.388z M412.487,202.997H386.21c0.123-0.627,0.188-1.275,0.188-1.938v-46.035h12.998
			L412.487,202.997z M330.027,132.453h-46.004V90.719c0-7.869,6.401-14.27,14.27-14.27h31.734V132.453z M350.029,132.453V76.449
			h31.734c7.87-0.001,14.27,6.401,14.27,14.27v41.734H350.029z M391.434,222.999h26.512l9.825,36.003h-26.474L391.434,222.999z
			 M406.775,279.003h26.453l9.825,36.003h-26.415L406.775,279.003z M422.119,335.008h26.393l9.825,36.003h-26.355L422.119,335.008z
			 M437.461,391.013h26.334l9.825,36.003h-26.296L437.461,391.013z M478.692,483.02h-16.025l-9.863-36.003h26.274l9.825,36.003
			H478.692z"/>
	</g>
</g>
<g>
	<g>
		<path d="M193.556,275.932c-1.86-1.86-4.44-2.92-7.071-2.92c-2.63,0-5.21,1.06-7.071,2.92c-1.859,1.87-2.93,4.44-2.93,7.081
			c0,2.63,1.07,5.2,2.93,7.071c1.86,1.86,4.44,2.93,7.071,2.93c2.63,0,5.21-1.07,7.071-2.93c1.87-1.87,2.93-4.44,2.93-7.071
			C196.486,280.373,195.426,277.802,193.556,275.932z"/>
	</g>
</g>
<g>
	<g>
		<path d="M310.605,408.193c-1.86-1.86-4.44-2.93-7.071-2.93c-2.64,0-5.21,1.07-7.081,2.93c-1.86,1.86-2.92,4.44-2.92,7.071
			c0,2.63,1.06,5.21,2.92,7.071c1.87,1.87,4.44,2.93,7.081,2.93c2.63,0.001,5.21-1.059,7.071-2.93c1.859-1.86,2.93-4.44,2.93-7.071
			C313.536,412.633,312.466,410.053,310.605,408.193z"/>
	</g>
</g>
<g>
	<g>
		<path d="M340.365,483.02h-26.833v-28.916c0-5.523-4.478-10.001-10.001-10.001s-10.001,4.477-10.001,10.001v28.916h-26.667
			c-5.522,0-10.001,4.477-10.001,10.001s4.478,10.001,10.001,10.001h73.502c5.522,0,10.001-4.477,10.001-10.001
			S345.887,483.02,340.365,483.02z"/>
	</g>
</g>
<g>
	<g>
		<path d="M185.863,105.989h-13.216c-5.522,0-10.001,4.477-10.001,10.001c0,5.523,4.478,10.001,10.001,10.001h13.216
			c5.522,0,10.001-4.477,10.001-10.001C195.864,110.467,191.386,105.989,185.863,105.989z"/>
	</g>
</g>
<g>
	<g>
		<path d="M130.977,105.989H10.001C4.478,105.989,0,110.467,0,115.99c0,5.523,4.478,10.001,10.001,10.001h120.976
			c5.522,0,10.001-4.477,10.001-10.001C140.978,110.467,136.499,105.989,130.977,105.989z"/>
	</g>
</g>
<g>
	<g>
		<path d="M130.977,149.414H43.038c-5.522,0-10.001,4.477-10.001,10.001c0,5.523,4.478,10.001,10.001,10.001h87.939
			c5.522,0,10.001-4.477,10.001-10.001C140.978,153.891,136.499,149.414,130.977,149.414z"/>
	</g>
</g>
<g>
	<g>
		<path d="M151.723,8.978c-10.619,0-20.485,4.784-27.068,13.126c-3.422,4.335-2.681,10.624,1.654,14.046
			c4.336,3.422,10.624,2.681,14.046-1.654c2.767-3.505,6.91-5.515,11.368-5.515c7.984,0,14.48,6.496,14.48,14.479
			c0,7.98-6.495,14.472-14.48,14.472H85.142c-5.522,0-10.001,4.477-10.001,10.001c0,5.523,4.477,10,10.001,10h66.581
			c19.014,0,34.482-15.465,34.482-34.474C186.205,24.447,170.737,8.978,151.723,8.978z"/>
	</g>
</g>
<g>
	<g>
		<path d="M34.27,57.931h-0.132c-5.522,0-10.001,4.477-10.001,10.001s4.477,10.001,10.001,10.001h0.132
			c5.522,0,10.001-4.477,10.001-10.001C44.271,62.409,39.792,57.931,34.27,57.931z"/>
	</g>
</g>
<g>
</g>
<g>
</g>
<g>
</g>
<g>
</g>
<g>
</g>
<g>
</g>
<g>
</g>
<g>
</g>
<g>
</g>
<g>
</g>
<g>
</g>
<g>
</g>
<g>
</g>
<g>
</g>
<g>
</g>
</svg>
