<?xml version="1.0" encoding="utf-8"?>
<!-- Generator: Adobe Illustrator 22.1.0, SVG Export Plug-In . SVG Version: 6.00 Build 0)  -->
<svg version="1.1" id="Layer_1" xmlns="http://www.w3.org/2000/svg" xmlns:xlink="http://www.w3.org/1999/xlink" x="0px" y="0px"
	 viewBox="0 0 706 234" style="enable-background:new 0 0 706 234;" xml:space="preserve">
<style type="text/css">
	.st0{fill:url(#SVGID_1_);}
	.st1{fill:url(#SVGID_2_);}
	.st2{fill:#E72429;}
	.st3{fill:#020202;}
	.st4{stroke:#000000;stroke-width:2;stroke-miterlimit:10;}
</style>
<g>
	
		<linearGradient id="SVGID_1_" gradientUnits="userSpaceOnUse" x1="1988.0238" y1="-2750.311" x2="1988.0238" y2="-2911.427" gradientTransform="matrix(0.4418 -0.8971 0.8971 0.4418 2249.3486 3167.2075)">
		<stop  offset="0" style="stop-color:#EB4831"/>
		<stop  offset="0.1949" style="stop-color:#E74630"/>
		<stop  offset="0.397" style="stop-color:#DA402D"/>
		<stop  offset="0.6022" style="stop-color:#C63629"/>
		<stop  offset="0.8083" style="stop-color:#A92922"/>
		<stop  offset="1" style="stop-color:#87191B"/>
	</linearGradient>
	<path class="st0" d="M648.9,135.5c-16.6,33.8-57.5,47.7-91.3,31l0,0l0,0c-21.5-10.6-30.3-36.6-19.7-58.1c10.2-20.8,35-29.8,56-20.7
		c-33.4-15.1-72.9-1.1-89.2,32c-16.6,33.7-2.8,74.5,30.9,91.2c0,0,0.1,0,0.1,0.1l0,0c46.1,22.7,101.8,3.7,124.5-42.3
		c22.7-46,3.7-101.7-42.3-124.4C651.6,60.9,665.5,101.8,648.9,135.5z"/>
	<linearGradient id="SVGID_2_" gradientUnits="userSpaceOnUse" x1="484.0737" y1="122.8385" x2="661.0054" y2="122.8385">
		<stop  offset="0" style="stop-color:#EB4831"/>
		<stop  offset="0.1949" style="stop-color:#E74630"/>
		<stop  offset="0.397" style="stop-color:#DA402D"/>
		<stop  offset="0.6022" style="stop-color:#C63629"/>
		<stop  offset="0.8083" style="stop-color:#A92922"/>
		<stop  offset="1" style="stop-color:#87191B"/>
	</linearGradient>
	<path class="st1" d="M493.4,86.6c-22.7,46-3.7,101.7,42.3,124.4c-33.7-16.6-47.6-57.5-31-91.2c16.6-33.8,57.5-47.7,91.3-31l0,0l0,0
		c21.5,10.6,30.3,36.6,19.7,58.1c-10.2,20.8-35,29.8-56,20.7c33.4,15.1,72.9,1.1,89.2-32c16.6-33.7,2.8-74.5-30.9-91.2
		c0,0-0.1,0-0.1-0.1l0,0C571.8,21.6,516.1,40.5,493.4,86.6z"/>
</g>
<g id="_x33_kYuqm_1_">
	<g>
		<path d="M679.8,36.5c-4.7,2.2-4.2,6.7-2.6,12.1c3.7,12.9,6.8,25.9,10.3,38.9c0.5,1.9,0,2.6-1.8,3c-4.6,1-3.4,1.4-5.8-2.4
			c-1.2-2-2.5-3.9-3.6-5.9c-0.6-1.2-1.3-1.5-2.5-0.8c-0.9,0.6-1.8,1.2-2.8,0.1c-1-1.1-0.5-2.1,0.2-2.8c1.6-1.8,1.1-3.3-0.1-5.1
			c-1.6-2.3-2.9-4.7-4.3-7.1c-0.6-1.1-1.2-1.5-2.3-0.6c-0.5,0.4-1,0.6-1.5,0.9c-0.6,0.3-1.2,0.3-1.8-0.2c-0.6-0.5-1-1.1-0.6-1.9
			c0.4-0.8,0.7-1.6,1.3-2.2c1.3-1.4,1.1-2.6,0-4.2c-2-3-1.9-3.1-4.8-0.8c-7.7,6.2-15.3,12.5-23.3,18.4c-0.9,0.7-1.3,1.6-1.3,2.7
			c0,4.6-0.1,9.2-0.2,13.9c0,0.8,0.1,1.6-0.6,2.2c-1.9,1.7-2.7,1.4-3.6-0.9c-1-2.9-2.1-5.8-3.1-8.8c-0.8-2.4-2.4-3.9-4.7-4.7
			c-3-1-6-2.1-9-3.2c-0.7-0.3-2-0.2-1.6-1.5c0.4-1.1,0.7-2.5,2.4-2.5c2.6,0,5.2-0.1,7.7-0.1c1.7,0,3.5-0.2,5.1,0
			c2.2,0.3,3.5-0.8,4.7-2.3c6.2-8,12.6-16,19.2-23.6c1.1-1.3,1.3-2.2-0.5-3c-0.5-0.2-0.9-0.5-1.4-0.8c-1.1-0.8-2.1-1-3.3,0.2
			c-0.8,0.8-1.9,1.2-2.9,1.7c-0.8,0.4-1.4,0-1.9-0.5c-0.5-0.6-0.6-1.2-0.2-1.8c0-0.1,0.1-0.1,0.1-0.2c0.3-1.2,2.1-2,1.3-3.2
			c-0.6-0.9-1.9-1.4-2.9-2c-2-1.2-4.1-2.4-6.1-3.7c-1.1-0.7-1.9-0.9-3,0.1c-0.6,0.6-1.5,0.9-2.2,1.3c-0.7,0.4-1.4,0.2-2-0.4
			c-0.6-0.6-0.7-1.2-0.3-2c0.2-0.3,0.3-0.6,0.5-0.8c0.9-1.2,0.7-2-0.7-2.7c-3.1-1.7-6-3.7-9-5.4c-1.1-0.6-1.4-1.3-1.1-2.6
			c1.1-4.5,1-4.6,5.5-3.4c14.2,3.7,28.4,7.3,42.6,11.1c1.9,0.5,3.2,0.3,4.7-1.2c4.4-4.7,9-9.1,14.3-12.7c2-1.3,4.1-2.5,6.4-3.1
			c2.2-0.5,4.3-0.4,5.9,1.3c1.5,1.6,1.3,3.7,0.6,5.6c-1.2,3.5-3.4,6.4-5.6,9.3C685.7,30.6,683.4,33.2,679.8,36.5z"/>
		<path d="M613.6,50.6c-2.6,2.6-5.2,5.2-7.8,7.8c-0.7,0.7-1.3,1.4-2.3,0.4c-1-1-0.2-1.6,0.4-2.3c5.2-5.2,10.4-10.5,15.7-15.7
			c0.7-0.7,1.3-1.4,2.3-0.4c1,1,0.2,1.6-0.4,2.3C618.8,45.4,616.2,48,613.6,50.6z"/>
		<path d="M655.7,92.7c-2.6,2.6-5.2,5.2-7.8,7.8c-0.6,0.6-1.3,1.4-2.3,0.4c-1-1-0.2-1.6,0.4-2.3c5.2-5.2,10.4-10.5,15.7-15.7
			c0.6-0.6,1.3-1.4,2.3-0.4c1,1,0.2,1.6-0.4,2.3C660.9,87.4,658.3,90.1,655.7,92.7z"/>
		<path d="M625.7,53.7c-2.2,2.2-4.4,4.4-6.6,6.6c-0.6,0.6-1.2,1.2-2.1,0.3c-0.9-0.9-0.4-1.5,0.3-2.1c4.4-4.4,8.8-8.8,13.2-13.2
			c0.6-0.6,1.2-1.2,2.1-0.3c0.9,0.9,0.4,1.5-0.3,2.2C630.1,49.3,627.9,51.5,625.7,53.7z"/>
		<path d="M652.6,80.6c-2.2,2.2-4.4,4.4-6.6,6.6c-0.6,0.6-1.2,1.2-2.1,0.3c-0.9-0.9-0.4-1.5,0.3-2.1c4.4-4.4,8.8-8.8,13.2-13.2
			c0.6-0.6,1.2-1.2,2.1-0.3c0.9,0.9,0.4,1.5-0.3,2.1C657,76.2,654.8,78.4,652.6,80.6z"/>
	</g>
</g>
<path class="st2" d="M29.9,130.6l-7.6-23.8h-5.1v23.8H8V72.5h14.7c10.6,0,14.9,5.1,14.9,17.1c0,7.2-1.5,12.3-6.8,15.2l8.7,25.8H29.9
	z M22.8,80.8h-5.6v17.8h5.6c4.9,0,5.6-4.1,5.6-8.9C28.4,84.9,27.7,80.8,22.8,80.8z"/>
<path class="st2" d="M52.4,111.6c0,4.9,0.2,8.6,1.3,10.2c0.7,1,1.8,1.7,3.3,1.7c1.5,0,2.4-0.7,3.3-1.7c0.7-0.8,1.1-2.5,1.1-3.8h8.6
	c-0.2,3.6-1.1,7.2-3.6,9.9c-2.2,2.4-5.5,3.4-9.3,3.4c-4,0-6.7-0.9-9.3-3.5c-3.7-3.7-4-10.9-4-18.7s0.3-15,4-18.7
	c2.6-2.6,5.7-3.4,9.2-3.4c3.6,0,6.7,0.7,9.2,3.4c4.2,4.4,3.8,13.1,3.9,21.2H52.4z M60.2,96.4c-0.7-1-1.7-1.7-3.3-1.7
	c-1.6,0-2.5,0.7-3.3,1.7c-1,1.2-1.3,4.5-1.3,8.9h9.1C61.4,100.9,61.2,97.6,60.2,96.4z"/>
<path class="st2" d="M93.7,130.6v-3.3c-0.5,0.8-2,2.2-2.9,2.7c-1.2,0.7-2.8,1.2-4.3,1.2c-3.2,0-5.6-0.9-7.6-3.3
	c-2.9-3.5-3-9.5-3-18.9s0.2-15.3,3-18.8c2-2.4,4.2-3.3,7.6-3.3c1.6,0,3.1,0.4,4.3,1.1c0.9,0.5,1.9,1.4,2.5,2.3V72.5h8.6v58.1H93.7z
	 M93.4,99.9c0-1.9-0.5-3.2-1.4-4.1c-0.7-0.7-1.9-1.1-2.9-1.1c-1.3,0-2.5,0.7-3.3,1.8c-1.1,2-1.2,6.3-1.2,12.6s0.1,10.8,1.2,12.7
	c0.7,1.1,2,1.7,3.3,1.7c1.1,0,2.2-0.3,2.9-1.1c0.9-0.9,1.4-2.2,1.4-4.1V99.9z"/>
<path class="st2" d="M135.1,127.6c-2.6,2.4-5.7,3.7-10,3.7c-5.5,0-8.8-2.1-11.3-4.9c-4.3-4.9-4.2-13.3-4.2-24.7
	c0-11.4-0.1-20,4.2-24.9c2.4-2.8,5.7-4.9,11.3-4.9c4.4,0,7.5,1.3,10.1,3.8c2.9,2.7,4.5,7.1,4.7,12.2h-9.1c-0.1-2.1-0.4-4.2-1.4-5.6
	c-0.8-1.3-2-2.1-4.2-2.1s-3.5,0.9-4.3,2.2c-1.7,2.8-2,8.6-2,19.3c0,10.6,0.3,16.5,2,19.3c0.8,1.3,2.1,2.2,4.3,2.2s3.5-0.8,4.3-2.1
	c1-1.5,1.3-3.6,1.4-5.7h9.1C139.8,120.4,138.1,124.9,135.1,127.6z"/>
<path class="st2" d="M163.1,130.6V127c-0.7,1.1-1.6,2.2-2.6,2.9c-1.3,0.9-2.7,1.5-4.9,1.5c-3.6,0-5.9-1.1-8.1-3.6
	c-1.7-2-2.6-5.3-2.6-9.6c0-3.9,1.4-7.3,4-9.6c2.1-1.9,4.9-2.9,9.9-2.9h3.8v-6c0-3.2-1.5-5-4.2-5c-1.3,0-2.2,0.5-2.9,1.2
	c-0.9,1-1.3,2.2-1.3,4h-8.6c0-3.4,1-6.6,3.7-9.3c2-2,5.5-3.5,9.1-3.5c3.6,0,6.9,0.9,9.1,3.2c2.3,2.3,3.8,5.5,3.8,10.1v30.4H163.1z
	 M162.6,111.6h-2.9c-1.9,0-3.3,0.2-4.5,1.3c-1.1,1-1.7,3.1-1.7,4.8c0,3.8,1.6,6,4.5,6c2.6,0,4.6-2.2,4.6-5.7V111.6z"/>
<path class="st2" d="M195.4,95.4c-4.1,0-7.2,2.8-7.2,7.4v27.8h-8.6v-43h8.3v4.6c0.9-1.3,2.3-2.5,3.8-3.4c1.9-1.1,4.2-1.8,6.7-1.8
	v8.4H195.4z"/>
<path class="st2" d="M227,127.9c-2,2.4-4.2,3.3-7.6,3.3c-1.6,0-3.1-0.4-4.3-1.1c-0.9-0.5-1.9-1.4-2.5-2.3v17.9h-8.6V87.6h8.3v3.2
	c0.5-0.8,2-2.2,2.9-2.7c1.2-0.7,2.8-1.1,4.3-1.1c3.2,0,5.6,0.9,7.6,3.3c2.9,3.5,3,9.5,3,18.8S229.9,124.4,227,127.9z M220.2,96.4
	c-0.7-1.1-2-1.8-3.3-1.8c-1.1,0-2.2,0.4-2.9,1.1c-0.9,0.9-1.4,2.2-1.4,4.1v18.5c0,1.9,0.5,3.2,1.4,4.1c0.7,0.7,1.9,1.1,2.9,1.1
	c1.3,0,2.5-0.6,3.3-1.7c1.1-2,1.2-6.4,1.2-12.7S221.3,98.4,220.2,96.4z"/>
<path class="st2" d="M244.6,111.6c0,4.9,0.2,8.6,1.3,10.2c0.7,1,1.8,1.7,3.3,1.7c1.5,0,2.4-0.7,3.3-1.7c0.7-0.8,1.1-2.5,1.1-3.8h8.6
	c-0.2,3.6-1.1,7.2-3.6,9.9c-2.2,2.4-5.5,3.4-9.3,3.4c-4,0-6.7-0.9-9.3-3.5c-3.7-3.7-4-10.9-4-18.7s0.3-15,4-18.7
	c2.6-2.6,5.7-3.4,9.2-3.4c3.6,0,6.7,0.7,9.2,3.4c4.2,4.4,3.8,13.1,3.9,21.2H244.6z M252.4,96.4c-0.7-1-1.7-1.7-3.3-1.7
	c-1.6,0-2.5,0.7-3.3,1.7c-1,1.2-1.3,4.5-1.3,8.9h9.1C253.6,100.9,253.4,97.6,252.4,96.4z"/>
<path class="st2" d="M275.4,128c-2.7-2.1-4.3-5.4-4.3-10.4V94.2h-4.4v-6.6h4.4v-11h8.7v11h6v6.6h-6v22.8c0,4,2,5.8,6.1,5.8v7.8
	C281.8,130.6,278.3,130.3,275.4,128z"/>
<path class="st3" d="M318.7,130.6l-2.4-11.5h-13.5l-2.3,11.5H291l14.3-58.1h8.9l14.1,58.1H318.7z M309.7,86.6l-5,24.3h10L309.7,86.6
	z"/>
<path class="st3" d="M353.7,127.8c-2.6,2.6-5.7,3.5-9.4,3.5c-3.7,0-7.3-1.2-9.5-3.5c-2.5-2.6-3.8-5.6-3.8-9.7h8.6
	c0,1.7,0.5,3.1,1.5,4.1c0.8,0.9,2.1,1.3,3.3,1.3c1.4,0,2.4-0.3,3.3-1.2c0.8-0.7,1.2-2,1.2-3.4c0-1.2-0.2-2.2-0.9-3.2
	c-0.7-1-1.8-1.8-3.3-2.4l-5.7-2.5c-2.9-1.3-5.1-3-6.3-5c-1-1.6-1.4-3.5-1.4-5.9c0-4.2,1.5-6.9,3.8-9.2c2.4-2.4,5.7-3.6,9.3-3.6
	c3.6,0,6.9,1.1,9.1,3.3c2.3,2.2,3.7,5.2,3.7,9.5h-8.5c0-1.9-0.4-3-1.2-3.9c-0.8-0.9-1.9-1.3-3-1.3c-1.3,0-2.4,0.5-3.2,1.2
	c-0.8,0.8-1.2,2-1.2,3.3c0,1.1,0.2,1.8,0.7,2.5c0.6,0.9,1.7,1.8,3.2,2.4l5.7,2.4c2.9,1.3,4.9,2.7,6.3,4.7c1.1,1.6,1.8,4.1,1.8,7
	C357.5,122.5,355.9,125.6,353.7,127.8z"/>
<path class="st3" d="M384.7,127.8c-2.6,2.6-5.7,3.5-9.4,3.5s-7.3-1.2-9.5-3.5c-2.5-2.6-3.8-5.6-3.8-9.7h8.6c0,1.7,0.5,3.1,1.5,4.1
	c0.8,0.9,2.1,1.3,3.3,1.3c1.4,0,2.4-0.3,3.3-1.2c0.8-0.7,1.2-2,1.2-3.4c0-1.2-0.2-2.2-0.9-3.2c-0.7-1-1.8-1.8-3.3-2.4l-5.7-2.5
	c-2.9-1.3-5.1-3-6.3-5c-1-1.6-1.4-3.5-1.4-5.9c0-4.2,1.5-6.9,3.8-9.2c2.4-2.4,5.7-3.6,9.3-3.6c3.6,0,6.9,1.1,9.1,3.3
	c2.3,2.2,3.7,5.2,3.7,9.5h-8.5c0-1.9-0.4-3-1.2-3.9c-0.8-0.9-1.9-1.3-3-1.3c-1.3,0-2.4,0.5-3.2,1.2c-0.8,0.8-1.2,2-1.2,3.3
	c0,1.1,0.2,1.8,0.7,2.5c0.6,0.9,1.7,1.8,3.2,2.4l5.7,2.4c2.9,1.3,4.9,2.7,6.3,4.7c1.1,1.6,1.8,4.1,1.8,7
	C388.6,122.5,386.9,125.6,384.7,127.8z"/>
<path class="st3" d="M394.7,82.2v-9.5h9.5v9.5H394.7z M395.2,130.6V88.8h8.7v41.9H395.2z"/>
<path class="st3" d="M433,127.8c-2.6,2.6-5.7,3.5-9.4,3.5s-7.3-1.2-9.5-3.5c-2.5-2.6-3.8-5.6-3.8-9.7h8.6c0,1.7,0.5,3.1,1.5,4.1
	c0.8,0.9,2.1,1.3,3.3,1.3c1.4,0,2.4-0.3,3.3-1.2c0.8-0.7,1.2-2,1.2-3.4c0-1.2-0.2-2.2-0.9-3.2c-0.7-1-1.8-1.8-3.3-2.4l-5.7-2.5
	c-2.9-1.3-5.1-3-6.3-5c-1-1.6-1.4-3.5-1.4-5.9c0-4.2,1.5-6.9,3.8-9.2c2.4-2.4,5.7-3.6,9.3-3.6c3.6,0,6.9,1.1,9.1,3.3
	c2.3,2.2,3.7,5.2,3.7,9.5h-8.5c0-1.9-0.4-3-1.2-3.9c-0.8-0.9-1.9-1.3-3-1.3c-1.3,0-2.4,0.5-3.2,1.2c-0.8,0.8-1.2,2-1.2,3.3
	c0,1.1,0.2,1.8,0.7,2.5c0.6,0.9,1.7,1.8,3.2,2.4l5.7,2.4c2.9,1.3,4.9,2.7,6.3,4.7c1.1,1.6,1.8,4.1,1.8,7
	C436.8,122.5,435.2,125.6,433,127.8z"/>
<path class="st3" d="M449.5,128c-2.7-2.1-4.3-5.4-4.3-10.4V94.2h-4.4v-6.6h4.4v-11h8.7v11h6v6.6h-6v22.8c0,4,2,5.8,6.1,5.8v7.8
	C455.8,130.6,452.4,130.3,449.5,128z"/>
<g>
	<path class="st4" d="M107.7,164.6c0.3-0.8,0.6-1.3,1.1-1.6c0.4-0.3,0.9-0.6,1.3-0.9c0.2,0.4,0.4,1,0.5,1.9c0.2,0.9,0.3,1.9,0.5,2.9
		c0.2,1.1,0.3,2.1,0.4,3.2c0.1,1.1,0.2,2,0.4,2.7c0.1,0.4,0.2,0.9,0.2,1.5c0.1,0.5,0.1,1.1,0.2,1.7c0.3-0.1,0.6-0.4,1-0.7
		c0.4-0.4,0.9-0.7,1.4-1.1c0.5-0.4,1.1-0.7,1.8-0.9c0.6-0.3,1.4-0.4,2.2-0.3c0,0,0.1,0.1,0.3,0.2c0.1,0.1,0.2,0.1,0.3,0.2
		c0.1,0.1,0.1,0.2,0.1,0.3c0,0.1-0.2,0.2-0.5,0.2c-0.5,0.1-1.2,0.4-1.9,0.9c-0.8,0.5-1.5,1.1-2.1,1.8c-0.7,0.7-1.2,1.3-1.7,2
		s-0.7,1.3-0.7,1.7c0-0.2,0.1-0.3,0.1-0.5c0.1-0.3,0.1-0.2,0.1,0.1c0,1.7,0,3.5,0.1,5.4c0.1,1.9,0.1,4.3,0,7.2
		c-0.1,2.3-0.3,4.1-0.5,5.4c-0.2,1.3-0.4,2.3-0.7,3c-0.3,0.7-0.6,1.3-1,1.7c-0.4,0.4-0.8,0.9-1.3,1.5c-0.4,0.4-0.9,0.7-1.6,1.1
		c-0.7,0.4-1.6,0.5-2.8,0.5c-2.3,0-3.8-1.7-4.7-5.1c-0.1-1.4-0.1-2.7,0-3.9c0.1-1.2,0.4-2.3,0.7-3.2c0.3-1,0.7-1.9,1-2.7
		c0.4-0.8,0.7-1.6,1-2.3c0.4-0.7,0.8-1.4,1.2-2.1c0.4-0.7,0.9-1.5,1.5-2.2s1.2-1.6,1.9-2.6c0.7-0.9,1.5-2,2.5-3.1
		c-0.1-0.6-0.2-1.2-0.2-1.8c-0.1-0.5-0.1-1-0.2-1.5c0-0.5-0.1-0.9-0.1-1.1c-0.1-0.8-0.3-1.7-0.4-2.6c-0.2-1-0.3-1.9-0.5-2.8
		c-0.2-0.9-0.3-1.7-0.5-2.5C108,165.5,107.9,164.9,107.7,164.6z M102.4,194.7c-0.3,2-0.3,3.7,0,5.1c0.3,1.5,0.9,2.5,1.8,3.1
		c0.4,0.2,0.8,0.3,1.4,0.4c0.6,0.1,1.1,0,1.5-0.1c1.2-0.5,2-1.6,2.5-3.1c0.5-1.6,0.9-3.3,1-5.4c0.2-2,0.2-4.1,0.2-6.4
		c-0.1-2.2-0.1-4.3-0.1-6.3c0-0.4-0.1-0.7-0.1-0.6c0,0-0.2,0.1-0.4,0.4c-0.8,0.9-1.7,1.9-2.5,3c-0.8,1.1-1.6,2.2-2.3,3.4
		c-0.7,1.2-1.3,2.3-1.8,3.4C103,192.8,102.6,193.8,102.4,194.7z M108.5,154.4c0.4,0,0.6,0.2,0.7,0.7c0,0.5,0,0.9-0.2,1.2
		c-0.4,0.4-0.7,0.6-0.8,0.9c-0.1,0.2-0.4,0.4-0.8,0.4c-0.2,0-0.4-0.1-0.6,0c-0.2,0-0.3-0.3-0.4-0.9c0.1-0.4,0.4-0.7,0.7-1.2
		C107.4,155,107.8,154.7,108.5,154.4z"/>
	<path class="st4" d="M124.1,180.3c0.3,0.2,0.8-0.2,1.5-1.1c0.7-1,1.4-2.2,2.1-3.8s1.2-3.2,1.7-4.9c0.4-1.7,0.6-3.2,0.4-4.5
		c0-0.3,0.1-0.4,0.3-0.5c0.2-0.1,0.5-0.1,0.8-0.1c0.3,0,0.6,0,0.9,0.1c0.3,0,0.5,0.1,0.6,0.1c-0.1,1-0.2,2.2-0.4,3.7
		c-0.2,1.5-0.3,3-0.3,4.4c0,1.5,0,2.8,0.2,4c0.2,1.2,0.5,2,1.1,2.3c0.5,0.3,1.1,0.3,1.7-0.1c0.6-0.4,1.3-0.8,1.9-1.3
		c0.6-0.5,1.1-1,1.6-1.4c0.5-0.4,0.8-0.6,0.9-0.4c-0.2,0.8-0.6,1.5-1.1,2.2c-0.6,0.7-1.2,1.3-2,1.8c-0.7,0.5-1.5,0.8-2.3,1
		c-0.8,0.2-1.6,0.2-2.2-0.1c-0.3,0-0.5-0.3-0.6-0.8c-0.2-0.5-0.3-1-0.4-1.6c-0.1-0.6-0.2-1.3-0.3-2c-0.1-0.7-0.1-1.4-0.2-1.9
		c-0.4,0.7-0.8,1.5-1.2,2.4c-0.4,0.9-0.9,1.7-1.3,2.5c-0.4,0.8-0.9,1.5-1.3,2.1c-0.4,0.6-0.7,0.9-1,1c-0.9,0.4-1.6,0.4-2.1,0.2
		c-0.5-0.2-0.8-0.5-1-0.8c-0.3-0.1-0.5-0.6-0.6-1.4c-0.1-0.8-0.2-1.8-0.3-3c-0.1-1.2-0.1-2.6-0.1-4.1c0-1.5,0-3.1,0-4.6
		c0-1.6,0-3.1-0.1-4.7c0-1.5-0.1-2.9-0.2-4.2c0.3,0,0.6,0,0.9,0.1c0.3,0,0.5,0.1,0.8,0.2c0.3,0.1,0.5,0.2,0.7,0.4
		c0.2,1,0.3,2.8,0.1,5.4c-0.2,2.6-0.3,5.7-0.4,9.3c0,0.1,0,0.4,0,0.8c0,0.4,0.1,0.8,0.1,1.2c0.1,0.4,0.2,0.9,0.3,1.3
		C123.6,179.9,123.8,180.2,124.1,180.3z"/>
	<path class="st4" d="M148.6,162.2c1.1,0.2,2,0.4,2.8,0.7c0.7,0.3,1.3,0.7,1.7,1c0.4,0.4,0.8,0.8,1,1.2c0.2,0.4,0.5,0.8,0.7,1.1
		c0,0.2-0.3,0.2-0.6-0.1c-0.4-0.2-0.7-0.4-1.1-0.7c-1-0.6-2.2-1-3.5-1.1c-1.4-0.1-2.7-0.1-3.8,0.2c-1.2,0.3-2.1,0.8-2.8,1.5
		c-0.7,0.7-0.9,1.6-0.5,2.6c0.4,1,1,1.9,1.9,2.7c0.9,0.8,1.9,1.4,3,2c1.1,0.6,2.2,1.1,3.3,1.6c1.1,0.5,2,1,2.7,1.5
		c0.9-0.5,1.6-0.9,2.3-1.2c0.6-0.3,1.2-0.6,1.7-0.9c0.5-0.3,1-0.6,1.5-0.8c0.5-0.2,1.1-0.5,1.8-0.8c0.1,0,0.2-0.1,0.2-0.1
		c0.1,0,0.1,0.1,0,0.2c-0.1,0.1-0.2,0.3-0.5,0.5c-0.3,0.2-0.7,0.6-1.4,1c-0.3,0.2-0.9,0.6-1.7,1.1c-0.8,0.5-1.8,1.1-2.7,1.7
		c0.5,0.5,1,1,1.3,1.5c0.3,0.5,0.5,1,0.6,1.6c0.1,0.6,0,1.1-0.3,1.7c-0.9,1.4-1.9,2.5-3,3.3c-1.1,0.8-2.1,1.4-3.1,1.7
		c-0.6,0.2-1.3,0.2-2.1,0.1c-0.8-0.2-1.4-0.5-1.8-1.1c-0.5-0.7-0.6-1.4-0.4-2.2c0.2-0.7,0.7-1.4,1.2-2.1c0.6-0.7,1.2-1.3,2-2
		c0.8-0.6,1.4-1.2,2-1.7c-0.4-0.4-1.2-1-2.3-1.6c-1.2-0.6-2.3-1.4-3.6-2.1c-1.2-0.8-2.3-1.6-3.3-2.5c-1-0.9-1.5-1.8-1.6-2.7
		c-0.2-1-0.1-1.9,0.4-2.8c0.4-0.9,1-1.7,1.9-2.4c0.8-0.7,1.8-1.2,2.9-1.5C146.3,162.1,147.4,162.1,148.6,162.2z M148,185.1
		c0.5,0.2,1,0.2,1.7,0c0.6-0.2,1.2-0.5,1.8-1c0.6-0.4,1-0.9,1.5-1.4c0.4-0.5,0.7-1,0.8-1.4c0.1-0.4,0-0.7-0.4-1.2
		c-0.4-0.4-0.8-0.8-1.2-1c-0.5,0.4-1,0.8-1.7,1.4c-0.6,0.6-1.2,1.1-1.6,1.7c-0.5,0.6-0.8,1.1-1,1.7
		C147.7,184.5,147.7,184.8,148,185.1z"/>
	<path class="st4" d="M170.9,163.4c1.9-0.1,3.8-0.3,5.6-0.4c1.8-0.2,3.8-0.3,5.8-0.5c0.4,0,0.7,0.3,0.9,0.7c0.1,0.4,0,0.7-0.5,0.8
		c-1.6,0.2-3.5,0.4-5.7,0.7c-2.1,0.3-4.2,0.7-6.1,1.2c0.1,1.4,0.1,2.8,0.1,4.2c0,1.4,0,2.9,0.1,4.3c0.1,1.4,0.2,2.8,0.4,4.1
		c0.2,1.3,0.5,2.5,1,3.6c0.6,0.8,1.2,1.2,1.9,1.3c0.6,0.1,1.2,0.1,1.8-0.1c0.6-0.2,1.1-0.5,1.5-0.9c0.5-0.4,0.9-0.8,1.2-1.2
		c0.3-0.3,0.6-0.3,0.8,0c0.2,0.3,0,0.8-0.6,1.4c-0.3,0.3-0.6,0.6-1,1s-0.9,0.7-1.4,0.9c-0.6,0.2-1.2,0.4-1.9,0.5
		c-0.7,0.1-1.4,0-2.2-0.2c-1-0.3-1.8-1.1-2.3-2.5c-0.5-1.4-0.9-3-1.1-4.8c-0.2-1.8-0.4-3.8-0.5-5.8c-0.1-2-0.2-3.8-0.3-5.4
		c-2,0.2-3.4,0.3-4.3,0.5c-0.9,0.1-1.6,0.2-2,0.3c-0.4,0-0.7,0-0.8-0.1c-0.1-0.1-0.4-0.3-0.7-0.6c0-0.2,0.1-0.4,0-0.6
		c0-0.2,0-0.4,0-0.5c0-0.1,0.1-0.3,0.3-0.4c0.2-0.1,0.5-0.2,0.9-0.3c0.7-0.2,1.6-0.3,2.9-0.3c1.3,0,2.5-0.1,3.7-0.3
		c0-1.4-0.1-2.5-0.1-3.3c0-0.8-0.1-1.5-0.1-2.1c0-0.6-0.1-1.2-0.1-1.8c0-0.6,0-1.3,0-2.3c0-0.2,0.1-0.4,0.4-0.5
		c0.2-0.1,0.5-0.2,0.8-0.2c0.3,0,0.6,0,0.9,0.1c0.3,0.1,0.4,0.3,0.5,0.5c0.1,0.4,0.2,1,0.3,1.8c0,0.8,0.1,1.6,0.1,2.5
		c0,0.9,0,1.7,0,2.6C171,162,170.9,162.7,170.9,163.4z"/>
	<path class="st4" d="M206.9,163.4c1.9-0.1,3.8-0.3,5.6-0.4c1.8-0.2,3.8-0.3,5.8-0.5c0.4,0,0.7,0.3,0.9,0.7c0.1,0.4,0,0.7-0.5,0.8
		c-1.6,0.2-3.5,0.4-5.7,0.7c-2.1,0.3-4.2,0.7-6.1,1.2c0.1,1.4,0.1,2.8,0.1,4.2c0,1.4,0,2.9,0.1,4.3c0.1,1.4,0.2,2.8,0.4,4.1
		c0.2,1.3,0.5,2.5,1,3.6c0.6,0.8,1.2,1.2,1.9,1.3c0.6,0.1,1.2,0.1,1.8-0.1c0.6-0.2,1.1-0.5,1.5-0.9c0.5-0.4,0.9-0.8,1.2-1.2
		c0.3-0.3,0.6-0.3,0.8,0c0.2,0.3,0,0.8-0.6,1.4c-0.3,0.3-0.6,0.6-1,1s-0.9,0.7-1.4,0.9c-0.6,0.2-1.2,0.4-1.9,0.5
		c-0.7,0.1-1.4,0-2.2-0.2c-1-0.3-1.8-1.1-2.3-2.5c-0.5-1.4-0.9-3-1.1-4.8c-0.2-1.8-0.4-3.8-0.5-5.8c-0.1-2-0.2-3.8-0.3-5.4
		c-2,0.2-3.4,0.3-4.3,0.5c-0.9,0.1-1.6,0.2-2,0.3c-0.4,0-0.7,0-0.8-0.1c-0.1-0.1-0.4-0.3-0.7-0.6c0-0.2,0.1-0.4,0-0.6
		c0-0.2,0-0.4,0-0.5c0-0.1,0.1-0.3,0.3-0.4c0.2-0.1,0.5-0.2,0.9-0.3c0.7-0.2,1.6-0.3,2.9-0.3c1.3,0,2.5-0.1,3.7-0.3
		c0-1.4-0.1-2.5-0.1-3.3c0-0.8-0.1-1.5-0.1-2.1c0-0.6-0.1-1.2-0.1-1.8c0-0.6,0-1.3,0-2.3c0-0.2,0.1-0.4,0.4-0.5
		c0.2-0.1,0.5-0.2,0.8-0.2c0.3,0,0.6,0,0.9,0.1c0.3,0.1,0.4,0.3,0.5,0.5c0.1,0.4,0.2,1,0.3,1.8c0,0.8,0.1,1.6,0.1,2.5
		c0,0.9,0,1.7,0,2.6C207,162,207,162.7,206.9,163.4z"/>
	<path class="st4" d="M232.5,163.6c0,0.3-0.1,0.8-0.3,1.7c-0.2,0.8-0.3,1.8-0.5,3c-0.2,1.1-0.3,2.3-0.5,3.6
		c-0.1,1.2-0.2,2.4-0.2,3.5c0,1.1,0,2.1,0.2,2.8c0.2,0.8,0.4,1.3,0.8,1.4c1,0.5,2.1,0.3,3.1-0.5c1.1-0.8,2.3-2.1,3.7-3.8
		c0.1,0,0.1,0.2,0,0.5c-0.1,0.4-0.3,0.7-0.5,1.2c-0.2,0.4-0.5,0.8-0.7,1.3c-0.2,0.4-0.4,0.7-0.6,0.8c-0.4,0.4-0.9,0.9-1.5,1.5
		c-0.7,0.6-1.4,1-2.1,1.3c-0.8,0.3-1.5,0.5-2.2,0.4c-0.7,0-1.3-0.4-1.7-1.2c-0.2-0.5-0.4-1.2-0.4-2c0-0.8,0-1.6,0-2.4
		c0-0.8,0.1-1.5,0.2-2.2c0.1-0.7,0.2-1.2,0.2-1.5c-0.9,1.7-2,3.4-3.2,4.9s-2.4,2.8-3.5,3.7c-1.2,0.9-2.2,1.4-3.2,1.4
		c-1,0.1-1.7-0.5-2.3-1.7c-0.3-1.2-0.3-2.5,0-3.9c0.3-1.4,0.8-2.7,1.4-3.9c0.9-1.6,1.9-3.1,2.9-4.4c1-1.3,2.1-2.5,3.3-3.4
		c1.2-0.9,2.4-1.6,3.6-2C229.8,163.5,231.1,163.4,232.5,163.6z M220,180.6c0.4,0.1,1.2-0.2,2.1-1c1-0.8,2-1.8,3.1-3.2
		c1.1-1.4,2-2.9,2.9-4.7c0.9-1.8,1.4-3.7,1.7-5.7c-0.2,0-0.4,0-0.8,0s-0.7,0.1-1.2,0.4c-1.7,1.1-3.1,2.4-4.3,3.9
		c-1.2,1.5-2.1,2.9-2.8,4.3c-0.7,1.4-1.1,2.7-1.2,3.8S219.5,180.2,220,180.6z"/>
	<path class="st4" d="M245.6,170.2c1,0.2,1.9,0.4,2.8,0.5c0.8,0.1,1.6,0.3,2.5,0.4c0.8,0.1,1.7,0.2,2.7,0.3c1,0.1,2.2,0.2,3.6,0.3
		c0.4,0.4,0.7,0.8,0.8,1.1c0.1,0.3,0.3,0.7,0.5,1.4c-1.4-0.3-2.7-0.5-3.9-0.6c-1.2-0.1-2.3-0.2-3.4-0.3c-1.1-0.1-2.3-0.2-3.5-0.2
		s-2.5-0.2-4-0.3c0,2.3,0,4.3,0.1,6c0.1,1.8,0.1,3.3,0,4.8c-0.3,0-0.5,0-0.6-0.1c-0.2-0.1-0.3-0.3-0.4-0.5c-0.1-0.2-0.3-0.4-0.4-0.6
		c-0.2-0.2-0.4-0.3-0.6-0.4c0.1-6.1,0.1-11.8-0.1-16.9c-0.2-5.2-0.2-10.1-0.1-14.8c0-0.9,0-1.9,0-3c0-1.1,0-2.2,0-3.3
		c0-1.1,0-2.1-0.1-2.9c0-0.9-0.1-1.5-0.3-1.8c0.3-0.4,0.6-0.6,0.9-0.7c0.3-0.1,0.8-0.2,1.6-0.2c0.1,5.4,0.1,10.8,0,16.1
		c-0.1,5.3-0.1,10.3,0,15.1c0.8-0.6,1.6-1.3,2.4-2.1c0.8-0.8,1.6-1.7,2.4-2.5s1.4-1.5,1.9-2.1c0.5-0.6,0.9-0.9,1-1
		c0.4,0.4,0.8,0.7,1.2,0.9c0.4,0.2,0.6,0.3,0.6,0.3c-1.1,1.2-2.3,2.6-3.5,4C248.5,168.3,247.2,169.4,245.6,170.2z"/>
	<path class="st4" d="M267.3,164.4c0.1,0,0.5-0.2,1.1-0.4c0.6-0.2,1.1-0.2,1.5-0.1c1.3,0,2.3,0.3,3,1c0.7,0.7,0.7,2.1,0.2,4.1
		c-0.8,2.3-2,4.2-3.4,5.7s-3.1,3-5,4.3c0.4,1.2,1.1,1.8,2,1.9c0.9,0.1,1.8,0,2.8-0.4c1-0.4,1.9-1,2.9-1.7c0.9-0.7,1.7-1.3,2.3-1.9
		c0.9-0.8,1.7-1.5,2.2-2c0.6-0.6,1.1-1.2,1.8-2c0.1-0.1,0.2-0.1,0.2,0c0,0.1,0,0.3,0,0.5c0,0.2-0.1,0.5-0.2,0.9
		c-0.1,0.3-0.3,0.6-0.4,0.8c-0.1,0.2-0.3,0.5-0.6,0.8c-0.2,0.3-0.6,0.6-1,1c-0.4,0.4-0.9,0.9-1.5,1.6c-0.7,0.6-1.3,1.2-1.9,1.8
		c-0.6,0.6-1.3,1.1-2,1.6c-0.7,0.4-1.4,0.8-2.3,0.9c-0.8,0.2-1.8,0.2-2.8,0c-0.9-0.3-1.6-0.6-2.1-1c-0.5-0.4-0.9-0.7-1.2-1.1
		c-0.3-0.4-0.5-0.7-0.6-1c-0.1-0.3-0.2-0.6-0.3-0.8c-0.2-0.9-0.3-2.1-0.3-3.6c0-1.5,0.5-3.5,1.3-5.9c0.6-1.2,1.2-2.3,1.9-3.2
		S266.5,164.9,267.3,164.4z M264.4,176.2c0.6-0.3,1.3-0.7,2-1.3c0.8-0.6,1.5-1.2,2.2-1.9c0.7-0.7,1.3-1.5,1.8-2.4
		c0.5-0.9,0.8-1.8,0.8-2.8c0.1-0.7,0.1-1.1-0.1-1.4c-0.1-0.1-0.2-0.2-0.3-0.2c-0.8-0.4-1.5-0.2-2.3,0.3c-0.8,0.6-1.4,1.4-2.1,2.5
		c-0.6,1.1-1.1,2.3-1.6,3.6C264.6,173.8,264.4,175,264.4,176.2z"/>
	<path class="st4" d="M295.7,163.2c0.8,0,1.8,0.2,2.8,0.4c1,0.2,2,0.5,3,0.8c1,0.3,1.9,0.7,2.7,1.1c0.8,0.4,1.5,0.9,2,1.4
		c0.5,0.5,0.8,1.2,0.9,2.2c0.1,1,0,2.1-0.2,3.3c-0.2,1.2-0.6,2.4-1,3.7c-0.5,1.3-1,2.4-1.6,3.4c-0.6,1-1.2,1.9-1.9,2.5s-1.3,1-1.9,1
		c-1,0-1.8-0.2-2.5-0.7c-0.7-0.5-1.2-1-1.6-1.7s-0.7-1.4-0.9-2.1s-0.3-1.4-0.4-1.9c-0.1-2.4-0.2-4.4-0.1-6.3
		c0.1-1.8,0.2-3.3,0.5-4.5c-0.1-0.2-0.3-0.4-0.4-0.6c-0.1-0.2-0.3-0.3-0.4-0.5c-0.1-0.2-0.3-0.3-0.5-0.4c0.2-0.1,0.4-0.2,0.5-0.4
		C295.3,163.8,295.6,163.5,295.7,163.2z M298.1,179.1c0.1,0.2,0.3,0.4,0.5,0.6c0.2,0.2,0.5,0.4,0.8,0.5c0.3,0.1,0.7,0.1,1,0
		c0.4-0.1,0.7-0.3,1.1-0.7c1.1-1.1,1.9-2.3,2.4-3.4c0.5-1.2,0.9-2.3,1-3.3c0.2-1,0.1-2-0.1-2.8c-0.2-0.8-0.5-1.4-1-1.7
		c-0.4-0.2-0.7-0.4-0.9-0.6c-0.2-0.2-0.6-0.3-0.9-0.4c-0.4-0.1-0.9-0.3-1.4-0.4c-0.6-0.2-1.3-0.4-2.3-0.6c-0.4,1.4-0.8,2.8-0.9,4.3
		c-0.2,1.4-0.3,2.7-0.2,3.9c0,1.2,0.1,2.2,0.3,3.1C297.8,178.2,297.9,178.8,298.1,179.1z"/>
	<path class="st4" d="M332.3,147.6c-0.5,0-0.8,0-1,0c-0.2,0-0.3,0-0.4,0c-0.1,0-0.1-0.1-0.1-0.1c0,0,0-0.1-0.1-0.2
		c-0.1,0-0.2-0.2-0.4-0.6c-0.2-0.4-0.4-0.9-0.6-1.4c-0.3-0.5-0.6-0.9-1-1.4c-0.4-0.4-0.9-0.6-1.5-0.6c-1.2-0.3-2.3-0.1-3.1,0.5
		c-0.8,0.6-1.5,1.6-2,2.8c-0.5,1.2-0.9,2.6-1.1,4.2c-0.2,1.6-0.4,3.2-0.5,4.8c-0.1,1.6-0.2,3.2-0.2,4.7c0,1.5,0,2.7-0.1,3.6
		c0.8,0,1.5-0.1,2.1-0.1c0.6,0,1.1,0,1.5-0.1c0.5,0,0.9,0,1.3-0.1c0.4,0,0.8,0,1.3,0c0.2,0,0.4,0.2,0.7,0.4c0.2,0.2,0.4,0.5,0.6,0.7
		c0.2,0.3,0.3,0.5,0.3,0.7c0.1,0.2,0.1,0.3,0,0.3c-0.8,0.1-1.5,0.2-2.1,0.3c-0.6,0-1.2,0.1-1.8,0.1c-0.6,0-1.2,0.1-1.8,0.1
		c-0.6,0-1.3,0.1-2,0.1c0,2.3,0.1,4.3,0.3,6.1c0.1,1.8,0.3,3.5,0.4,5.1c0.1,1.6,0.2,3.2,0.3,4.8c0.1,1.6,0.2,3.2,0.2,4.9
		c-0.1,0.4-0.3,0.5-0.7,0.5c-0.4,0-0.8-0.1-1.2-0.1c-0.1,0-0.2,0-0.3-0.1c0,0-0.1-0.2-0.1-0.6c0-0.4,0-1-0.1-1.8
		c0-0.8-0.1-2-0.1-3.6c-0.1-1.6-0.2-3.6-0.3-6c-0.1-2.4-0.3-5.5-0.6-9.1c-1,0.1-1.8,0.2-2.5,0.2c-0.6,0-1.2,0.1-1.6,0.1
		s-0.9,0-1.4,0c-0.4,0-1,0-1.7,0.1c-0.3,0-0.5-0.1-0.5-0.2c0-0.2,0.1-0.4,0.2-0.6c0.1-0.2,0.2-0.5,0.4-0.7c0.2-0.2,0.3-0.4,0.3-0.5
		c0.3-0.1,1-0.2,2.3-0.3c1.3-0.1,2.7-0.3,4.3-0.5c-0.2-4.3-0.2-7.8,0.1-10.7c0.3-2.9,0.7-5.2,1.3-7c0.6-1.8,1.2-3.1,1.9-4
		c0.7-0.9,1.4-1.4,2-1.7c1.6-0.6,2.9-0.7,4.2-0.1c1.2,0.6,2.2,1.3,3,2.2c0.8,0.9,1.4,1.9,1.7,2.8
		C332.6,146.8,332.6,147.4,332.3,147.6z"/>
	<path class="st4" d="M353.7,147.6c-0.5,0-0.8,0-1,0c-0.2,0-0.3,0-0.4,0c-0.1,0-0.1-0.1-0.1-0.1c0,0,0-0.1-0.1-0.2
		c-0.1,0-0.2-0.2-0.4-0.6c-0.2-0.4-0.4-0.9-0.6-1.4c-0.3-0.5-0.6-0.9-1-1.4c-0.4-0.4-0.9-0.6-1.5-0.6c-1.2-0.3-2.3-0.1-3.1,0.5
		c-0.8,0.6-1.5,1.6-2,2.8c-0.5,1.2-0.9,2.6-1.1,4.2c-0.2,1.6-0.4,3.2-0.5,4.8c-0.1,1.6-0.2,3.2-0.2,4.7c0,1.5,0,2.7-0.1,3.6
		c0.8,0,1.5-0.1,2.1-0.1c0.6,0,1.1,0,1.5-0.1c0.5,0,0.9,0,1.3-0.1c0.4,0,0.8,0,1.3,0c0.2,0,0.4,0.2,0.7,0.4c0.2,0.2,0.4,0.5,0.6,0.7
		c0.2,0.3,0.3,0.5,0.3,0.7c0.1,0.2,0.1,0.3,0,0.3c-0.8,0.1-1.5,0.2-2.1,0.3c-0.6,0-1.2,0.1-1.8,0.1c-0.6,0-1.2,0.1-1.8,0.1
		c-0.6,0-1.3,0.1-2,0.1c0,2.3,0.1,4.3,0.3,6.1c0.1,1.8,0.3,3.5,0.4,5.1c0.1,1.6,0.2,3.2,0.3,4.8c0.1,1.6,0.2,3.2,0.2,4.9
		c-0.1,0.4-0.3,0.5-0.7,0.5c-0.4,0-0.8-0.1-1.2-0.1c-0.1,0-0.2,0-0.3-0.1c0,0-0.1-0.2-0.1-0.6c0-0.4,0-1-0.1-1.8
		c0-0.8-0.1-2-0.1-3.6c-0.1-1.6-0.2-3.6-0.3-6c-0.1-2.4-0.3-5.5-0.6-9.1c-1,0.1-1.8,0.2-2.5,0.2c-0.6,0-1.2,0.1-1.6,0.1
		s-0.9,0-1.4,0c-0.4,0-1,0-1.7,0.1c-0.3,0-0.5-0.1-0.5-0.2c0-0.2,0.1-0.4,0.2-0.6c0.1-0.2,0.2-0.5,0.4-0.7c0.2-0.2,0.3-0.4,0.3-0.5
		c0.3-0.1,1-0.2,2.3-0.3c1.3-0.1,2.7-0.3,4.3-0.5c-0.2-4.3-0.2-7.8,0.1-10.7c0.3-2.9,0.7-5.2,1.3-7c0.6-1.8,1.2-3.1,1.9-4
		c0.7-0.9,1.4-1.4,2-1.7c1.6-0.6,2.9-0.7,4.2-0.1c1.2,0.6,2.2,1.3,3,2.2c0.8,0.9,1.4,1.9,1.7,2.8C354,146.8,354,147.4,353.7,147.6z"
		/>
	<path class="st4" d="M352.4,181.7c0.1-0.6,0.4-1,0.9-1.4c0.4-0.4,0.9-0.6,1.4-0.6c0.5,0,0.9,0.1,1.2,0.3c0.4,0.3,0.5,0.7,0.4,1.4
		c0,0.4-0.2,0.7-0.6,0.9c-0.3,0.3-0.7,0.4-1.1,0.5c-0.4,0.1-0.8,0-1.3-0.1C352.9,182.6,352.6,182.2,352.4,181.7z"/>
</g>
</svg>
