<?xml version="1.0" encoding="utf-8"?>
<!-- Generator: Adobe Illustrator 22.1.0, SVG Export Plug-In . SVG Version: 6.00 Build 0)  -->
<svg version="1.1" id="Layer_1" xmlns="http://www.w3.org/2000/svg" xmlns:xlink="http://www.w3.org/1999/xlink" x="0px" y="0px"
	 viewBox="0 0 400 400" style="enable-background:new 0 0 400 400;" xml:space="preserve">
<style type="text/css">
	.st0{stroke:#000000;stroke-width:5;stroke-miterlimit:10;}
</style>
<path class="st0" d="M389.1,30.3h-40.5V11.4c0-2.1-1.7-3.9-3.9-3.9c-2.1,0-3.9,1.7-3.9,3.9v18.9H59.6V11.4c0-2.1-1.7-3.9-3.9-3.9
	c-2.1,0-3.9,1.7-3.9,3.9v18.9h-39c-2.1,0-3.9,1.7-3.9,3.9v129c0,2.1,1.7,3.9,3.9,3.9h376.3c2.1,0,3.9-1.7,3.9-3.9v-129
	C393,32,391.3,30.3,389.1,30.3z M385.2,159.3H16.7V38h368.5V159.3z M66.2,121.9c0.8,0.8,1.7,1.2,2.7,1.2c1,0,1.9-0.4,2.7-1.2
	c1.6-1.6,1.6-4,0-5.5l-11-11h31.7c2.1,0,3.9-1.7,3.9-3.9c0-2.1-1.7-3.9-3.9-3.9H59.8l11.9-11.9c1.6-1.6,1.6-4,0-5.5s-4-1.6-5.5,0
	l-18,18.1c-1.6,1.6-1.6,4,0,5.5L66.2,121.9z M132.1,92.8h143.5c2.1,0,3.9-1.7,3.9-3.9c0-2.1-1.7-3.9-3.9-3.9H132.1
	c-2.1,0-3.9,1.7-3.9,3.9C128.2,91.1,130,92.8,132.1,92.8z M132.1,117.6h215.3c2.1,0,3.9-1.7,3.9-3.9c0-2.1-1.7-3.9-3.9-3.9H132.1
	c-2.1,0-3.9,1.7-3.9,3.9C128.2,115.8,130,117.6,132.1,117.6z M388.7,301.3h-6.9v-68.2c0-17.9-14.5-32.5-32.5-32.5h-28.4
	c-17.9,0-32.5,14.5-32.5,32.5v68.2h-7c-2.1,0-3.9,1.7-3.9,3.9v11.3h-19.9v-11.3c0-2.1-1.7-3.9-3.9-3.9h-6.9v-68.2
	c0-17.9-14.5-32.5-32.5-32.5H186c-17.9,0-32.5,14.5-32.5,32.5v68.2h-6.9c-2.1,0-3.9,1.7-3.9,3.9v11.3h-19.9v-11.3
	c0-2.1-1.7-3.9-3.9-3.9h-6.9v-68.2c0-17.9-14.5-32.5-32.5-32.5H51.2c-17.9,0-32.5,14.5-32.5,32.5v68.2h-6.9c-2.1,0-3.9,1.7-3.9,3.9
	v17.7c0,8.1,6.7,14.8,14.8,14.8h38.8v46.8H10.9c-2.1,0-3.9,1.7-3.9,3.9c0,2.1,1.7,3.9,3.9,3.9h377.6c2.1,0,3.9-1.7,3.9-3.9
	c0-2.1-1.7-3.9-3.9-3.9H339v-46.8h38.8c8.1,0,14.8-6.7,14.8-14.8v-17.7C392.6,303.1,390.9,301.3,388.7,301.3z M296.1,233.2
	c0-13.7,11.1-24.7,24.7-24.7h28.5c13.7,0,24.7,11.1,24.7,24.7v68.2h-78V233.2z M161.3,233.2c0-13.7,11.1-24.7,24.7-24.7h28.5
	c13.7,0,24.7,11.1,24.7,24.7v68.2h-78V233.2z M150.5,309.1h99.4v9.1c-0.5,0.7-0.7,1.5-0.7,2.2s0.3,1.6,0.7,2.2v0.2
	c0,3.9-3.2,7.1-7.1,7.1h-85.2c-3.9,0-7.1-3.2-7.1-7.1L150.5,309.1L150.5,309.1z M26.5,233.2c0-13.7,11.1-24.7,24.7-24.7h28.5
	c13.7,0,24.7,11.1,24.7,24.7v68.2h-78V233.2z M22.9,330c-3.9,0-7.1-3.2-7.1-7.1v-13.8h99.4v13.8c0,3.9-3.2,7.1-7.1,7.1H22.9z
	 M196.4,384.6H69.4v-46.8h38.8c7.7,0,14.1-5.9,14.7-13.4h20c0.7,7.6,7.1,13.4,14.7,13.4h38.8V384.6z M331.2,384.6H204.2v-46.8H243
	c7.7,0,14.1-5.9,14.7-13.4h20c0.7,7.6,7.1,13.4,14.7,13.4h38.8L331.2,384.6L331.2,384.6z M384.9,322.9c0,3.9-3.2,7.1-7.1,7.1h-85.2
	c-3.9,0-7.1-3.2-7.1-7.1v-13.8h99.4L384.9,322.9L384.9,322.9z"/>
</svg>
