<?xml version="1.0" encoding="iso-8859-1"?>
<!-- Generator: Adobe Illustrator 19.0.0, SVG Export Plug-In . SVG Version: 6.00 Build 0)  -->
<svg version="1.1" id="Capa_1" xmlns="http://www.w3.org/2000/svg" xmlns:xlink="http://www.w3.org/1999/xlink" x="0px" y="0px"
	 viewBox="0 0 512 512" style="enable-background:new 0 0 512 512;" xml:space="preserve">
<g>
	<g>
		<path d="M479.49,201.535c-0.934-54.922-23.08-106.074-62.359-144.034c-39.268-37.95-91.17-58.358-146.084-57.473
			C216.972,0.901,166.274,22.62,128.29,61.185c-37.675,38.253-58.58,88.774-58.962,142.414l-36.42,120.119
			c-0.918,3.03-0.348,6.316,1.538,8.859c1.886,2.543,4.866,4.042,8.032,4.042h48.388v40.094c0,44.85,36.488,81.337,81.337,81.337
			h40.844c10.476,0,18.999,8.522,18.999,18.998V502c0,5.523,4.477,10,10,10s10-4.477,10-10v-24.952
			c0-21.503-17.495-38.998-38.999-38.998h-40.844c-33.821,0-61.337-27.516-61.337-61.337v-50.094c0-5.523-4.477-10-10-10H55.959
			L88.893,208c0.285-0.94,0.43-1.918,0.43-2.901c0-100.43,81.666-183.454,182.047-185.075c19.13-0.305,37.643,2.317,55.107,7.453
			v155.729h-28V93.5c0-5.523-4.477-10-10-10s-10,4.477-10,10v90.423c-22.525,3.902-39.715,23.573-39.715,47.196v64.175
			c0,26.419,21.494,47.913,47.913,47.913h12.087v1.943c0,13.747-11.184,24.93-24.93,24.93h-76.355c-5.523,0-10,4.477-10,10
			s4.477,10,10,10h76.355c24.774,0,44.93-20.156,44.93-44.93v-1.943h12.087c26.419,0,47.913-21.494,47.913-47.913v-64.175
			c0-20.948-13.518-38.786-32.285-45.281V34.649c65.3,27.727,111.736,91.912,113.016,167.225
			c0.772,45.452-15.104,98.373-40.445,134.822c-11.644,16.748-17.799,36.408-17.799,56.856V502c0,5.523,4.477,10,10,10
			s10-4.477,10-10V393.553c0-16.347,4.917-32.059,14.22-45.439C463.473,307.834,480.342,251.669,479.49,201.535z M358.763,231.119
			v64.175c0,15.391-12.521,27.913-27.913,27.913h-44.175c-15.391,0-27.913-12.521-27.913-27.913v-64.175
			c0-15.391,12.521-27.912,27.913-27.912h1.802h42.373C346.241,203.207,358.763,215.728,358.763,231.119z"/>
	</g>
</g>
<g>
	<g>
		<path d="M166.929,373.01c-1.86-1.86-4.44-2.93-7.07-2.93s-5.21,1.07-7.07,2.93c-1.86,1.86-2.93,4.44-2.93,7.07
			s1.07,5.21,2.93,7.07c1.86,1.86,4.44,2.93,7.07,2.93s5.21-1.07,7.07-2.93c1.86-1.86,2.93-4.44,2.93-7.07
			S168.789,374.87,166.929,373.01z"/>
	</g>
</g>
<g>
	<g>
		<path d="M295.549,47.93c-1.86-1.86-4.44-2.93-7.07-2.93s-5.21,1.07-7.07,2.93s-2.93,4.44-2.93,7.07s1.07,5.21,2.93,7.07
			s4.44,2.93,7.07,2.93s5.21-1.07,7.07-2.93c1.86-1.86,2.93-4.44,2.93-7.07S297.409,49.79,295.549,47.93z"/>
	</g>
</g>
<g>
	<g>
		<path d="M146.929,188.93c-1.86-1.86-4.44-2.93-7.07-2.93s-5.21,1.07-7.07,2.93c-1.86,1.86-2.93,4.44-2.93,7.07
			s1.07,5.21,2.93,7.07c1.86,1.86,4.44,2.93,7.07,2.93s5.21-1.07,7.07-2.93c1.86-1.86,2.93-4.44,2.93-7.07
			S148.789,190.79,146.929,188.93z"/>
	</g>
</g>
<g>
</g>
<g>
</g>
<g>
</g>
<g>
</g>
<g>
</g>
<g>
</g>
<g>
</g>
<g>
</g>
<g>
</g>
<g>
</g>
<g>
</g>
<g>
</g>
<g>
</g>
<g>
</g>
<g>
</g>
</svg>
