<?xml version="1.0" encoding="utf-8"?>
<!-- Generator: Adobe Illustrator 22.1.0, SVG Export Plug-In . SVG Version: 6.00 Build 0)  -->
<svg version="1.1" id="Capa_1" xmlns="http://www.w3.org/2000/svg" xmlns:xlink="http://www.w3.org/1999/xlink" x="0px" y="0px"
	 viewBox="0 0 463 463" style="enable-background:new 0 0 463 463;" xml:space="preserve">
<g>
	<path d="M442.1,243.4c-1.5-3.4-4.9-5.6-8.7-5.6h-40.6c-4.3-12.5-15.2-39.9-36-67.5c-36.6-48.9-86.5-74.8-144.3-75.1
		c-8.3-1.4-71-11-102.8,15.5c-12.2,10.2-18.5,24.2-18.5,41.5c0,26.4,35.8,82,54.6,109.3H77c-3.2,0-8.9-3.4-14-6.3
		c-7.6-4.5-16.3-9.5-25.6-9.5c-23.6,0-24.7,31.7-25.3,48.7c-0.2,5.7-2,10.2-3.8,14.9c-2,5.2-4.1,10.5-4.1,17.1
		c0,7.5,4.2,14.3,11.5,18.8c7.1,4.3,17.1,6.5,29.7,6.5c5.2,0,9.5-4.2,9.5-9.5c0-5.2-4.2-9.5-9.5-9.5c-1.7,0-3.3-0.1-4.8-0.1
		c5-10.1,12.4-17.3,16.1-20.5h15.5l3.5,31.2c0.5,4.8,4.6,8.4,9.4,8.4h134.6c7.1,0,13.5-2.8,18.7-8.1c8.5-8.7,12.5-23.5,14.3-36.3
		c22.7,27.8,39.1,41.3,40.2,42.2c1.7,1.4,3.8,2.1,6,2.1c0.5,0,1.1,0,1.6-0.1c2.7-0.5,5.1-2.1,6.5-4.5l0,0c4.5,3,9.8,4.6,15.4,4.6
		h119.1c4.2,0,8-2.8,9.1-6.9C451,342.8,464.5,294,442.1,243.4z M53.3,293.2c-2,0-3.9,0.6-5.5,1.8c-0.7,0.5-15.6,11.4-24.5,29.9
		c0.3-2.6,1.4-5.3,2.7-8.6c2.1-5.4,4.8-12.2,5.1-21.1c1.1-29.6,5.8-30.5,6.4-30.5c4.2,0,10.5,3.7,16,6.9c4.8,2.8,9.8,5.7,14.9,7.4
		l1.6,14.2L53.3,293.2L53.3,293.2z M224.7,330.5c-1.6,1.6-3.1,2.4-5.1,2.4H93.4l-5.8-52.3h76.5c3.6,0,6.8-2,8.4-5.2s1.3-7-0.8-9.9
		c-23.8-32.7-61.5-92.4-61.5-113.2c0-11.6,3.8-20.4,11.6-27c19.9-16.6,62-14.9,82.4-12.1c5.2,19.3,4.2,39.5,2,54.7
		c-1.2-2.4-2-3.9-2.1-4.2c-2.4-4.6-8.1-6.4-12.8-4c-4.6,2.4-6.4,8.1-4,12.8c0.1,0.3,13.5,26,21.5,48.9c-2,1.7-3.3,2.7-3.5,3
		c-3.4,3-4.2,7.9-1.9,11.8c10.8,18.6,21.6,34.8,31.7,48.6C235.3,298.6,232.7,322.3,224.7,330.5z M224,233.6
		c12.7-9.8,43.6-30.9,75.2-32.3c5.2-0.2,9.3-4.7,9-9.9c-0.2-5.2-4.6-9.3-9.9-9c-28.8,1.3-56.1,15.7-73.5,27.3
		c-1.7-4.5-3.4-8.9-5.2-13.2c2.9-9.9,12.2-45.7,4.6-81.9c47,3.3,86.3,25.7,117.2,66.6c20.4,27.1,30.8,54.5,34.2,64.6
		c-11.3,13.3-47.2,17.6-71.1,14.9c-4.2-5.9-8.9-12.3-13.9-19.1c-3.1-4.2-9-5.1-13.2-2c-4.2,3.1-5.1,9-2,13.2
		c17,23.2,30.1,41.7,36,50.2l-14.7,24.5C283,314.4,254.1,283.7,224,233.6z M328.1,294c-2-2.9-5.3-7.6-9.6-13.7c0.2,0,0.4,0,0.6,0
		c5.1,0,10.6-0.2,16.2-0.7c-0.6,1.4-1.4,2.7-2.3,4.2C331.3,286.6,329.5,289.7,328.1,294z M322.3,332.8c-2.1,0-4-0.7-5.6-2l6.5-10.8
		h38c2.5,1.4,7.5,6.3,13.1,12.7H322.3z M362.2,301.1h-16.4c0.7-3,2-5.1,3.5-7.6c2.4-4,5.3-8.9,6.2-17.2c13.1-3.2,25.2-8.5,33.2-16.9
		c12.7,32.4,13.1,60.3,12.4,73.4h-2.5C374.8,301.2,365.3,301.1,362.2,301.1z M433.7,332.8h-13.6c0.8-14.8,0-43-12.2-76.1h19.2
		C439.4,288.6,436.1,319.5,433.7,332.8z"/>
</g>
</svg>
