<?xml version="1.0" encoding="iso-8859-1"?>
<!-- Generator: Adobe Illustrator 19.0.0, SVG Export Plug-In . SVG Version: 6.00 Build 0)  -->
<svg version="1.1" id="Capa_1" xmlns="http://www.w3.org/2000/svg" xmlns:xlink="http://www.w3.org/1999/xlink" x="0px" y="0px"
	 viewBox="0 0 512 512" style="enable-background:new 0 0 512 512;" xml:space="preserve">
<g>
	<g>
		<path d="M486.4,136.533c-14.114,0-25.6,11.486-25.6,25.6v110.933h-17.067v-51.2c0-47.053-38.281-85.333-85.333-85.333H196.267
			c-4.71,0-8.533,3.814-8.533,8.533v41.879c-0.041-2.517-0.265-5.061-0.691-7.618c-4.634-27.836-31.036-46.763-58.923-42.095
			c-27.844,4.642-46.729,31.078-42.086,58.923c2.253,13.491,9.617,25.301,20.745,33.246c8.721,6.221,18.927,9.481,29.431,9.523
			H93.867c-14.114,0-25.6,11.486-25.6,25.6c0,3.004,0.614,5.854,1.57,8.533H51.2V93.867c0-14.114-11.486-25.6-25.6-25.6
			S0,79.753,0,93.867V435.2c0,4.719,3.823,8.533,8.533,8.533h34.133c4.71,0,8.533-3.814,8.533-8.533v-59.733h409.6V435.2
			c0,4.719,3.823,8.533,8.533,8.533h34.133c4.71,0,8.533-3.814,8.533-8.533V162.133C512,148.019,500.514,136.533,486.4,136.533z
			 M204.8,153.6h153.6c37.641,0,68.267,30.626,68.267,68.267v51.2H204.8V153.6z M187.733,187.605v57.985
			c-4.54-4.096-10.487-6.656-17.067-6.656h-34.039c2.765-0.009,5.547-0.23,8.329-0.691
			C170.019,234.064,187.813,212.225,187.733,187.605z M116.702,215.518c-7.415-5.299-12.331-13.167-13.833-22.161
			c-3.098-18.577,9.489-36.198,28.058-39.287c18.543-3.089,36.19,9.498,39.287,28.058c1.502,8.994-0.597,18.031-5.897,25.446
			c-5.299,7.424-13.167,12.331-22.161,13.833C133.163,222.899,124.117,220.817,116.702,215.518z M93.867,256h76.8
			c4.702,0,8.533,3.823,8.533,8.533s-3.831,8.533-8.533,8.533h-76.8c-4.702,0-8.533-3.823-8.533-8.533S89.165,256,93.867,256z
			 M51.2,290.133h42.667h76.8h25.6H435.2h25.6v34.133H51.2V290.133z M494.933,426.667h-17.067v-59.733
			c0-4.719-3.823-8.533-8.533-8.533H42.667c-4.71,0-8.533,3.814-8.533,8.533v59.733H17.067v-332.8c0-4.71,3.831-8.533,8.533-8.533
			c4.702,0,8.533,3.823,8.533,8.533V281.6v51.2c0,4.719,3.823,8.533,8.533,8.533h426.667c4.71,0,8.533-3.814,8.533-8.533v-51.2
			V162.133c0-4.71,3.831-8.533,8.533-8.533s8.533,3.823,8.533,8.533V426.667z"/>
	</g>
</g>
<g>
</g>
<g>
</g>
<g>
</g>
<g>
</g>
<g>
</g>
<g>
</g>
<g>
</g>
<g>
</g>
<g>
</g>
<g>
</g>
<g>
</g>
<g>
</g>
<g>
</g>
<g>
</g>
<g>
</g>
</svg>
