<?xml version="1.0" encoding="iso-8859-1"?>
<!-- Generator: Adobe Illustrator 19.0.0, SVG Export Plug-In . SVG Version: 6.00 Build 0)  -->
<svg version="1.1" id="Capa_1" xmlns="http://www.w3.org/2000/svg" xmlns:xlink="http://www.w3.org/1999/xlink" x="0px" y="0px"
	 viewBox="0 0 512 512" style="enable-background:new 0 0 512 512;" xml:space="preserve">
<g>
	<g>
		<g>
			<path d="M426.667,320H21.333c-2.833,0-5.542,1.125-7.542,3.125C12.375,324.531,0,337.635,0,362.656
				c0,25.042,12.375,38.146,13.792,39.552c2,2,4.708,3.125,7.542,3.125h405.333c2.833,0,5.542-1.125,7.542-3.125
				c1.417-1.406,13.792-14.51,13.792-39.552c0-25.021-12.375-38.125-13.792-39.531C432.208,321.125,429.5,320,426.667,320z
				 M26.677,384c-2.26-3.771-5.344-10.844-5.344-21.344c0-10.51,3.104-17.594,5.323-21.323h73.046
				C97.678,347.172,96,353.923,96,362.656c0,8.744,1.68,15.5,3.704,21.344H26.677z M122.797,384
				c-2.271-3.685-5.464-10.538-5.464-21.344c0-10.827,3.211-17.688,5.445-21.323h275.59c-2.023,5.839-3.702,12.59-3.702,21.323
				c0,8.744,1.68,15.5,3.704,21.344H122.797z M421.391,383.87c-2.268-3.719-5.391-10.521-5.391-21.214
				c0-10.728,3.148-17.543,5.382-21.21c2.255,3.794,5.285,10.816,5.285,21.21C426.667,373.057,423.646,380.073,421.391,383.87z"/>
			<path d="M469.333,170.667H320c-11.76,0-21.333-9.573-21.333-21.333c0-11.76,9.573-21.333,21.333-21.333h138.667
				c5.896,0,10.667-4.771,10.667-10.667c0-5.896-4.771-10.667-10.667-10.667H320c-23.531,0-42.667,19.135-42.667,42.667
				S296.469,192,320,192h149.333c11.76,0,21.333,9.573,21.333,21.333c0,11.76-9.573,21.333-21.333,21.333H448
				c-23.531,0-42.667,19.135-42.667,42.667V288c0,5.896,4.771,10.667,10.667,10.667c5.896,0,10.667-4.771,10.667-10.667v-10.667
				c0-11.76,9.573-21.333,21.333-21.333h21.333C492.865,256,512,236.865,512,213.333S492.865,170.667,469.333,170.667z"/>
		</g>
	</g>
</g>
<g>
</g>
<g>
</g>
<g>
</g>
<g>
</g>
<g>
</g>
<g>
</g>
<g>
</g>
<g>
</g>
<g>
</g>
<g>
</g>
<g>
</g>
<g>
</g>
<g>
</g>
<g>
</g>
<g>
</g>
</svg>
