<svg width="19" height="16" xmlns="http://www.w3.org/2000/svg"><path d="M9.16 15.44l.658-1.155h.536c.36 0 .653-.285.653-.636a.639.639 0 0 0-.477-.613l.554-.972h.494c.36 0 .652-.285.652-.636a.638.638 0 0 0-.44-.601l.49-.863c1.267-.064 2.43-.18 3.394-.341.765-.128 1.37-.28 1.802-.45.218-.087.884-.35.884-.891 0-.54-.666-.804-.884-.89-.431-.171-1.037-.323-1.802-.45-.965-.162-2.127-.278-3.393-.342l-.492-.863a.638.638 0 0 0 .441-.601.645.645 0 0 0-.652-.636h-.494l-.554-.972a.639.639 0 0 0 .477-.613.645.645 0 0 0-.653-.636h-.536l-.659-1.155a.41.41 0 0 0-.356-.205H7.1a.411.411 0 0 0-.332.168.39.39 0 0 0-.053.36l1.829 5.115c-1.635.047-3.143.178-4.344.38-.218.036-.423.074-.615.114L2.068 4.393a.222.222 0 0 0-.194-.11H.95a.224.224 0 0 0-.18.09.212.212 0 0 0-.03.196l1.114 3.113c-.185.143-.34.34-.34.6 0 .26.155.457.34.6L.74 11.995a.214.214 0 0 0 .028.196c.042.057.11.09.181.09h.925c.08 0 .154-.042.193-.11l1.518-2.663c.192.04.397.078.615.115 1.2.2 2.709.331 4.344.379l-1.829 5.114a.388.388 0 0 0 .053.361.41.41 0 0 0 .332.167h1.702a.41.41 0 0 0 .356-.204z"/></svg>