<svg xmlns="http://www.w3.org/2000/svg" width="432.243" height="432.243"><path d="M396.132 225.557l-29.051-16.144v-13.14c0-8.836-7.164-16-16-16-7.342 0-13.515 4.952-15.396 11.693l-24.446-13.585v-12.108c0-8.836-7.164-16-16-16-7.021 0-12.968 4.526-15.125 10.813l-21.689-12.053c-1.607-31.051-4.521-59.535-8.582-83.175-3.221-18.753-7.029-33.617-11.318-44.179C236.346 16.317 229.72 0 216.123 0c-13.598 0-20.224 16.317-22.402 21.679-4.289 10.562-8.097 25.426-11.318 44.179-4.06 23.64-6.975 52.124-8.582 83.175l-21.69 12.053c-2.157-6.287-8.106-10.813-15.124-10.813-8.837 0-16 7.164-16 16v12.108l-24.448 13.585c-1.882-6.742-8.055-11.693-15.396-11.693-8.837 0-16 7.164-16 16v13.14L36.11 225.557a10.003 10.003 0 0 0-5.143 8.741v41.718a10 10 0 0 0 13.291 9.442l128.616-44.829c1.189 40.082 4.47 77.047 9.528 106.496a367.486 367.486 0 0 0 2.895 15.059l-66.969 37.215a5.43 5.43 0 0 0-2.794 4.749v22.661c0 1.761.852 3.41 2.286 4.431a5.442 5.442 0 0 0 4.935.701l78.279-27.284c3.598 4.531 8.53 8.329 15.088 8.329s11.49-3.798 15.087-8.329l78.279 27.284a5.425 5.425 0 0 0 4.934-.701 5.435 5.435 0 0 0 2.285-4.431v-22.662a5.427 5.427 0 0 0-2.793-4.748l-66.969-37.215c1.01-4.7 1.977-9.715 2.895-15.059 5.059-29.447 8.339-66.414 9.527-106.496l128.617 44.829a9.991 9.991 0 0 0 9.081-1.291 9.995 9.995 0 0 0 4.209-8.151v-41.718a9.994 9.994 0 0 0-5.142-8.741z"/></svg>