<svg width="185" height="163" xmlns="http://www.w3.org/2000/svg" xmlns:xlink="http://www.w3.org/1999/xlink"><defs><path id="a" d="M0 162.94h185V0H0z"/></defs><g fill="none" fill-rule="evenodd"><path d="M181.917 29.789v-.854a6.166 6.166 0 0 0-4.009-5.774l-17.85-6.693a6.167 6.167 0 0 0-5.38.512L105.45 47.07a6.167 6.167 0 0 1-7.067-.447l-8.52-6.812a6.167 6.167 0 0 0-7.273-.309l-.768.512a6.165 6.165 0 0 0-1.97 8.123l9.987 17.97a6.167 6.167 0 0 0 7.749 2.703l80.52-33.325a6.165 6.165 0 0 0 3.809-5.696" fill="#B3B3B3"/><path fill="#36717A" d="M3.083 33.91L9.25 58.572h12.333V33.91z"/><mask id="b" fill="#fff"><use xlink:href="#a"/></mask><path fill="#B3B3B3" mask="url(#b)" d="M21.583 33.91H46.25V15.414H21.583zm0 61.655H46.25V58.572H21.583z"/><path fill="#36717A" mask="url(#b)" d="M46.25 33.91v24.662h12.333L64.75 33.91z"/><path fill="#6CBBC7" mask="url(#b)" d="M21.583 58.572H46.25V33.91H21.583z"/><path fill="gray" mask="url(#b)" d="M3.083 144.889h178.834V95.565H3.083z"/><path fill="#FFA900" mask="url(#b)" d="M15.417 126.392h70.916v-18.496H15.417zm83.25 0h70.916v-18.496H98.667z"/><path fill="#FDB62F" mask="url(#b)" d="M15.417 144.889h70.916v-18.497H15.417zm83.25 0h70.916v-18.497H98.667z"/><path fill="gray" mask="url(#b)" d="M123.333 49.324l15.417-9.248 6.167 24.662-9.25 3.082z"/><path d="M160.065 16.468a6.167 6.167 0 0 0-5.38.512l-5.859 3.579 5.34 13.351 24.667-9.248.617-.617a6.144 6.144 0 0 0-1.542-.87l-17.843-6.707z" fill="#6CBBC7" mask="url(#b)"/><path d="M178.833 141.806h-6.166v-33.91a3.083 3.083 0 0 0-3.084-3.083H98.667a3.083 3.083 0 0 0-3.084 3.083v33.91h-6.166v-33.91a3.083 3.083 0 0 0-3.084-3.083H15.417a3.083 3.083 0 0 0-3.084 3.083v33.91H6.167V98.648h172.666v43.158zm-77.083 0h64.75v-12.33h-64.75v12.33zm0-18.496h64.75v-12.331h-64.75v12.33zM18.5 141.806h64.75v-12.33H18.5v12.33zm0-18.496h64.75v-12.331H18.5v12.33zm6.167-30.828h18.5V61.655h-18.5v30.827zM7.033 36.992H18.5V55.49h-6.842L7.033 36.993zm17.634-6.165h18.5v-12.33h-18.5v12.33zM56.175 55.49h-6.842V36.993H60.8l-4.625 18.496zm-31.508 0h18.5V36.993h-18.5v18.496zm157.25 36.993H49.333V61.655h9.25a3.083 3.083 0 0 0 2.991-2.337l6.167-24.662a3.083 3.083 0 0 0-2.991-3.829H49.333V15.414a3.083 3.083 0 0 0-3.083-3.083H37V0h-6.167v12.33h-9.25a3.083 3.083 0 0 0-3.083 3.084v15.413H3.083a3.083 3.083 0 0 0-2.99 3.83l6.166 24.661a3.083 3.083 0 0 0 2.991 2.337h9.25v30.827H3.083A3.083 3.083 0 0 0 0 95.565v49.324a3.083 3.083 0 0 0 3.083 3.083h178.834a3.083 3.083 0 0 0 3.083-3.083V95.565a3.083 3.083 0 0 0-3.083-3.083z" fill="#000" mask="url(#b)"/><path d="M178.833 29.789a3.083 3.083 0 0 1-1.905 2.848l-33.405 13.82-1.782-7.127a3.083 3.083 0 0 0-4.576-1.896l-15.416 9.248a3.082 3.082 0 0 0-.978 4.353l2.525 3.792L96.4 65.952a3.084 3.084 0 0 1-3.875-1.35l-9.984-17.97a3.101 3.101 0 0 1 .977-4.056l.774-.515a3.065 3.065 0 0 1 3.635.16l8.523 6.813a9.288 9.288 0 0 0 10.6.67l39.498-24.133 4.862 9.72a3.084 3.084 0 0 0 3.842 1.508l23.433-8.79c.096.3.145.612.145.926l.003.854zm-41.908 34.363l-6.417-9.621-2.814-4.224 9.073-5.447 1.64 6.56 2.825 11.295-4.307 1.437zm19.255-44.324a3.085 3.085 0 0 1 2.926-.268l11.455 4.91-14.877 5.58-3.7-7.417 4.196-2.805zm22.817.447l-17.844-6.69a9.19 9.19 0 0 0-8.075.765l-49.244 30.088a3.084 3.084 0 0 1-3.533-.222l-8.516-6.81a9.217 9.217 0 0 0-10.906-.48l-.774.514a9.303 9.303 0 0 0-2.954 12.186l9.984 17.972a9.25 9.25 0 0 0 11.627 4.051l28.022-11.594 6.317 9.473a3.082 3.082 0 0 0 3.54 1.215l9.25-3.083a3.083 3.083 0 0 0 2.013-3.668l-2.87-11.487 34.25-14.18A9.214 9.214 0 0 0 185 29.789v-.854a9.283 9.283 0 0 0-6.003-8.66z" fill="#000" mask="url(#b)"/><path d="M109.444 107.481v3.362h-20.17v-3.362a8.404 8.404 0 0 1 8.404-8.402h3.361a8.404 8.404 0 0 1 8.405 8.402" fill="#EDEDED" mask="url(#b)"/><path d="M106.082 110.842v5.042a5.042 5.042 0 0 1-5.042 5.042H90.955v-3.362a6.723 6.723 0 0 1 6.723-6.722h8.404z" fill="#FFCBA8" mask="url(#b)"/><path d="M101.04 120.926v30.25c0 5.568-4.515 10.082-10.085 10.082v-40.332h10.085zm-36.979 31.93a1.681 1.681 0 1 0-3.363.002 1.681 1.681 0 0 0 3.363-.002zm0-8.403a1.681 1.681 0 1 0-3.363.002 1.681 1.681 0 0 0 3.363-.002zm0-8.402a1.681 1.681 0 1 0-3.363 0 1.681 1.681 0 0 0 3.363 0zm0-8.404a1.681 1.681 0 1 0-3.363.002 1.681 1.681 0 0 0 3.363-.002zm6.723-3.36v-8.403l-8.404 3.36-8.404-3.36v8.402l8.404-3.36 8.404 3.36zm11.766 36.971H33.806v-30.25c-.004-8.95 7.01-16.33 15.95-16.788.287-.016.572-.016.858-.016h23.532c9.283 0 16.808 7.523 16.808 16.805v30.25H82.55z" fill="#F5F5F5" mask="url(#b)"/><path d="M80.87 87.315a3.37 3.37 0 0 1 3.361 3.361 3.386 3.386 0 0 1-3.362 3.361h-3.361v-6.722h3.361m-23.531-.84a2.522 2.522 0 0 0-5.043 0 2.522 2.522 0 0 0 5.043 0zm15.127 0a2.522 2.522 0 0 0-5.042 0 2.522 2.522 0 0 0 5.042 0zm5.043 7.562v3.294c0 7.424-6.021 13.444-13.447 13.444H60.7c-7.427 0-13.447-6.02-13.447-13.444V82.273c8.349-.013 15.114-6.777 15.127-15.125 0 8.354 6.772 15.125 15.128 15.125v11.764z" fill="#FFCBA8" mask="url(#b)"/><path d="M77.508 73.804v8.47c-8.356 0-15.128-6.771-15.128-15.126-.013 8.348-6.779 15.112-15.127 15.125v-8.47c0-5.569 4.514-10.083 10.085-10.083h10.085c5.57 0 10.085 4.514 10.085 10.084" fill="#F7B546" mask="url(#b)"/><path fill="#00448F" mask="url(#b)" d="M70.784 115.884v8.403l-8.404-3.361-8.404 3.36v-8.402l8.404 3.361z"/><path d="M69.944 83.954a2.521 2.521 0 1 1 0 5.042 2.521 2.521 0 0 1 0-5.042" fill="#454545" mask="url(#b)"/><path d="M62.38 125.967a1.68 1.68 0 1 1 0 3.361 1.68 1.68 0 0 1 0-3.361m0 8.403a1.68 1.68 0 1 1 0 3.36 1.68 1.68 0 0 1 0-3.36m0 8.402a1.68 1.68 0 1 1 0 3.361 1.68 1.68 0 0 1 0-3.36m0 8.402a1.68 1.68 0 1 1 0 3.36 1.68 1.68 0 0 1 0-3.36" fill="#14335D" mask="url(#b)"/><path d="M54.816 83.954a2.521 2.521 0 1 1 0 5.042 2.521 2.521 0 0 1 0-5.042" fill="#454545" mask="url(#b)"/><path d="M47.252 87.315v6.722h-3.361a3.386 3.386 0 0 1-3.362-3.36 3.371 3.371 0 0 1 3.362-3.362h3.361z" fill="#FFCBA8" mask="url(#b)"/><path fill="#EBB691" mask="url(#b)" d="M64.042 89.279l-1.683 10.084-3.316-.554 1.683-10.084z"/><path fill="#D3D3D3" mask="url(#b)" d="M40.53 161.258h3.36v-38.652h-3.36zm40.34 0h3.36v-38.652h-3.36z"/><path d="M111.125 110.842h-3.362v-3.36a6.723 6.723 0 0 0-6.723-6.723h-3.362a6.723 6.723 0 0 0-6.723 6.722v3.361h-3.362v-3.36c.005-5.567 4.518-10.079 10.085-10.084h3.362c5.567.005 10.08 4.517 10.085 10.083v3.361z" fill="#EDEDED" mask="url(#b)"/><path fill="#EDEDED" mask="url(#b)" d="M97.678 99.079h3.362v-5.042h-3.362z"/><path d="M62.38 106.145h-.015a8.719 8.719 0 0 1-6.219-2.588l2.383-2.37a5.373 5.373 0 0 0 3.836 1.597 5.428 5.428 0 0 0 3.866-1.6l2.377 2.376a8.763 8.763 0 0 1-6.228 2.585" fill="#EBB691" mask="url(#b)"/><path fill="#D3D3D3" mask="url(#b)" d="M85.912 112.523h26.894v-3.361H85.912z"/><path d="M69.944 83.954a2.521 2.521 0 1 1 0 5.042 2.521 2.521 0 0 1 0-5.042m-15.128 0a2.521 2.521 0 1 1 0 5.042 2.521 2.521 0 0 1 0-5.042" fill="#000" mask="url(#b)"/><path d="M43.89 92.356a1.638 1.638 0 0 1-1.196-.514 1.6 1.6 0 0 1-.484-1.166c0-.928.753-1.68 1.68-1.68h1.682v3.36H43.89zm13.448-26.955h10.085a8.413 8.413 0 0 1 8.404 8.402v6.674A13.46 13.46 0 0 1 64.06 67.149a1.681 1.681 0 0 0-3.362 0 13.29 13.29 0 0 1-3.95 9.511 13.247 13.247 0 0 1-7.816 3.816v-6.672a8.414 8.414 0 0 1 8.405-8.403zm23.531 23.594c.928 0 1.681.753 1.681 1.681a1.64 1.64 0 0 1-.514 1.197 1.6 1.6 0 0 1-1.166.483h-1.682v-3.36h1.681zm-16.808 20.1h-3.362c-6.494-.007-11.759-5.27-11.766-11.765V83.871a16.597 16.597 0 0 0 10.195-4.843 16.65 16.65 0 0 0 3.252-4.552 16.826 16.826 0 0 0 13.447 9.35V97.33c-.007 6.494-5.271 11.758-11.766 11.765zm-3.362 3.36h3.362c8.35-.01 15.117-6.775 15.127-15.125v-1.613h1.681a5.068 5.068 0 0 0 5.043-5.041 5.042 5.042 0 0 0-5.043-5.042h-1.68v-11.83c-.007-6.494-5.272-11.757-11.766-11.764H57.338c-6.495.007-11.76 5.27-11.766 11.764v11.83H43.89a5.042 5.042 0 0 0-5.043 5.042 5.068 5.068 0 0 0 5.043 5.042h1.68v1.613c.01 8.349 6.778 15.115 15.128 15.125z" fill="#000" mask="url(#b)"/><path fill="#000" mask="url(#b)" d="M64.042 89.279l-1.683 10.084-3.316-.554 1.683-10.084zm40.359 26.605a3.36 3.36 0 0 1-3.361 3.361h-8.404v-1.68a5.042 5.042 0 0 1 5.042-5.042h6.724v3.36zm-5.042 35.291a8.419 8.419 0 0 1-6.724 8.234v-36.803h6.724v28.57zm-10.085 8.403H84.23v-36.972h-3.36v36.972H43.891v-36.972h-3.362v36.972h-5.043v-28.57c-.003-8.06 6.317-14.706 14.368-15.111a9.4 9.4 0 0 1 .76-.013h1.68v8.403a1.683 1.683 0 0 0 2.307 1.56l7.779-3.112 7.779 3.112a1.681 1.681 0 0 0 2.306-1.56v-8.403h1.681c8.35.01 15.118 6.776 15.128 15.125v28.569zm-33.617-41.212l4.3 1.72-4.3 1.718v-3.438zm13.447 0v3.438l-4.3-1.719 4.3-1.72zm-6.724-.931l-3.878-1.551h7.756l-3.878 1.55zm28.574-9.954a6.723 6.723 0 0 1 6.724-6.722h3.362a6.723 6.723 0 0 1 6.723 6.722v1.68H90.955v-1.68zm20.17 0c-.004-5.566-4.517-10.078-10.084-10.083v-3.36h-3.362v3.36c-5.567.005-10.08 4.517-10.085 10.083v1.68h-1.681v3.362h5.086a8.317 8.317 0 0 0-1.724 5.041v2.857a18.474 18.474 0 0 0-15.128-7.89H50.614c-.318 0-.635 0-.943.02-9.83.501-17.545 8.617-17.546 18.458v30.25c0 .927.753 1.68 1.68 1.68h57.15c6.494-.006 11.759-5.27 11.766-11.764v-28.804a6.725 6.725 0 0 0 5.043-6.484v-3.36h5.042v-3.362h-1.681v-1.684z"/><path d="M62.38 102.784a5.375 5.375 0 0 1-3.836-1.596l-2.383 2.37a8.724 8.724 0 0 0 6.22 2.587 8.774 8.774 0 0 0 6.235-2.584l-2.377-2.376a5.426 5.426 0 0 1-3.859 1.6" fill="#000" mask="url(#b)"/></g></svg>