<svg width="151" height="151" xmlns="http://www.w3.org/2000/svg"><g fill="none"><path d="M30.573 83.995c0 15.787 6.302 30.1 16.523 40.569 1.748.187 3.524.285 5.322.285h33.169l17.227 17.227h5.973v-18.283c22.424-4.703 39.264-24.59 39.264-48.412 0-27.32-22.148-49.468-49.468-49.468h-9.928c-32.078 0-58.082 26.004-58.082 58.082z" fill="#72D8FF"/><path d="M36.528 24.077h-8.496c0-7.685 2.83-11.786 8.494-12.301v-6.98c-6.456 3.02-9.688 9.646-9.688 19.888V40.03c0 .937.76 1.697 1.697 1.697h7.993c.937 0 1.697-.76 1.697-1.697V25.774c0-.937-.76-1.697-1.697-1.697z" fill="#62CD4D"/><path d="M56.989 40.031V24.684c0-10.242 3.232-16.868 9.688-19.887V2.95c-11.768.661-17.651 7.907-17.651 21.733V40.03c0 .937.76 1.697 1.697 1.697h15.956-7.993c-.937 0-1.697-.76-1.697-1.697z" fill="#FFF"/><path d="M68.376 40.031V25.774c0-.937-.76-1.697-1.697-1.697h-8.496c0-7.685 2.831-11.785 8.495-12.3v-6.98c-6.457 3.019-9.689 9.645-9.689 19.887V40.03c0 .937.76 1.697 1.697 1.697h7.993c.938 0 1.697-.76 1.697-1.697z" fill="#62CD4D"/><path d="M36.528 44.678H20.572a4.651 4.651 0 0 1-4.646-4.646V24.684C15.926 5.237 27.038.53 36.36.006a2.95 2.95 0 0 1 3.115 2.945v8.825a2.95 2.95 0 0 1-2.682 2.937c-1.521.138-4.825.439-5.633 6.415h5.367a4.651 4.651 0 0 1 4.646 4.646V40.03a4.651 4.651 0 0 1-4.646 4.647zm-14.704-5.899h13.452V27.026h-7.244a2.95 2.95 0 0 1-2.95-2.95c0-9.968 4.546-13.518 8.495-14.72V6.255c-5.718 1.07-11.753 4.86-11.753 18.429v14.095zm44.856 5.899H50.722a4.651 4.651 0 0 1-4.646-4.646V24.684C46.077 5.237 57.189.53 66.512.006a2.95 2.95 0 0 1 3.115 2.945v8.825a2.95 2.95 0 0 1-2.682 2.937c-1.521.138-4.825.439-5.633 6.415h5.367a4.651 4.651 0 0 1 4.646 4.646V40.03a4.652 4.652 0 0 1-4.646 4.647zm-14.705-5.899h13.452V27.026h-7.244a2.95 2.95 0 0 1-2.95-2.95c0-9.968 4.546-13.518 8.495-14.72V6.255c-5.718 1.07-11.753 4.86-11.753 18.429v14.095zm30.013-9.916a2.972 2.972 0 0 1-2.085-.865 2.972 2.972 0 0 1-.864-2.085c0-.775.316-1.536.864-2.085a2.972 2.972 0 0 1 2.085-.864c.776 0 1.537.316 2.085.864.549.549.865 1.31.865 2.085 0 .776-.316 1.537-.865 2.085a2.972 2.972 0 0 1-2.085.865z" fill="#000"/><path d="M108.787 150.999a2.95 2.95 0 0 1-2.086-.864l-22.336-22.337H52.417C23.514 127.798 0 104.284 0 75.381c0-8.906 2.275-17.705 6.58-25.443a2.949 2.949 0 1 1 5.155 2.867 46.543 46.543 0 0 0-5.837 22.576c0 25.65 20.869 46.52 46.52 46.52h33.169c.782 0 1.532.31 2.085.863l18.165 18.165v-17.136c0-1.395.978-2.6 2.344-2.886 21.394-4.487 36.92-23.633 36.92-45.526 0-25.65-20.868-46.519-46.518-46.519h-3.717a2.95 2.95 0 1 1 0-5.898h3.717C127.486 22.964 151 46.478 151 75.38c0 12.104-4.224 23.912-11.893 33.248-7.051 8.583-16.7 14.736-27.371 17.501v21.92a2.949 2.949 0 0 1-2.949 2.949z" fill="#000"/><path d="M111.794 58.245H39.206a2.95 2.95 0 1 1 0-5.899h72.588a2.95 2.95 0 1 1 0 5.899zm0 15.729H39.206a2.95 2.95 0 1 1 0-5.899h72.588a2.95 2.95 0 1 1 0 5.899zm0 15.729H39.206a2.95 2.95 0 0 1 0-5.899h72.588a2.95 2.95 0 1 1 0 5.899zm0 15.729H73.103a2.95 2.95 0 0 1 0-5.898h38.691a2.95 2.95 0 0 1 0 5.898zm-55.284 0h-.048a2.95 2.95 0 0 1 0-5.899h.047a2.95 2.95 0 0 1 0 5.899z" fill="#000"/></g></svg>