<svg width="186" height="187" xmlns="http://www.w3.org/2000/svg" xmlns:xlink="http://www.w3.org/1999/xlink"><defs><path id="a" d="M.239.002h36.593v36.594H.239z"/><path id="c" d="M.058.405h36.595V37H.058z"/></defs><g fill="none" fill-rule="evenodd"><path d="M94 19.793c-40.35 0-73.176 32.616-73.176 72.707 0 40.09 32.827 72.707 73.176 72.707 40.35 0 73.176-32.616 73.176-72.707 0-40.09-32.827-72.707-73.176-72.707M94 170c-43.01 0-78-34.766-78-77.5S50.99 15 94 15s78 34.766 78 77.5S137.01 170 94 170" fill="#000"/><path d="M110 18c0 8.837-7.163 16-16 16s-16-7.163-16-16S85.163 2 94 2s16 7.163 16 16" fill="#FF7676"/><g transform="translate(76)"><mask id="b" fill="#fff"><use xlink:href="#a"/></mask><path d="M18.535 4.882c-7.398 0-13.417 6.019-13.417 13.417s6.019 13.418 13.417 13.418c7.399 0 13.418-6.02 13.418-13.418S25.933 4.882 18.535 4.882m0 31.714C8.447 36.596.24 28.388.24 18.299S8.447.002 18.535.002c10.09 0 18.297 8.208 18.297 18.297s-8.208 18.297-18.297 18.297" fill="#000" mask="url(#b)"/></g><path d="M52.135 29.51c6.346 6.15 6.504 16.28.355 22.625-6.15 6.346-16.28 6.504-22.625.355-6.346-6.15-6.504-16.279-.355-22.625 6.15-6.345 16.28-6.505 22.625-.355" fill="#FF7676"/><path d="M40.002 26.806a13.16 13.16 0 0 0-9.481 4.008 13.113 13.113 0 0 0-3.72 9.393 13.113 13.113 0 0 0 4.013 9.272 13.097 13.097 0 0 0 9.393 3.72 13.112 13.112 0 0 0 9.272-4.013 13.114 13.114 0 0 0 3.72-9.393 13.113 13.113 0 0 0-4.013-9.272 13.153 13.153 0 0 0-9.184-3.715M39.992 58c-4.7 0-9.135-1.795-12.519-5.074a17.88 17.88 0 0 1-5.47-12.644 17.883 17.883 0 0 1 5.071-12.81 17.884 17.884 0 0 1 12.644-5.47c4.815-.07 9.356 1.726 12.809 5.072a17.882 17.882 0 0 1 5.47 12.644 17.882 17.882 0 0 1-5.07 12.809A17.881 17.881 0 0 1 39.992 58" fill="#000"/><path d="M17.498 78.008c8.832-.277 16.217 6.658 16.494 15.49.277 8.832-6.658 16.217-15.49 16.494-8.832.277-16.217-6.658-16.494-15.49-.277-8.832 6.658-16.217 15.49-16.494" fill="#FF7676"/><path d="M18.006 80.8c-.14 0-.28.002-.42.007-7.275.228-13.007 6.332-12.78 13.607a13.112 13.112 0 0 0 4.158 9.208 13.143 13.143 0 0 0 9.45 3.572c7.275-.229 13.007-6.333 12.78-13.608-.225-7.134-6.1-12.786-13.188-12.786m-.02 31.2a17.87 17.87 0 0 1-12.308-4.88A17.881 17.881 0 0 1 .009 94.566c-.311-9.92 7.506-18.244 17.426-18.556l.076 2.4-.076-2.4c9.917-.31 18.244 7.506 18.556 17.426.311 9.92-7.506 18.245-17.427 18.556-.193.007-.386.009-.578.009" fill="#000"/><path d="M28.167 135.231c5.947-6.535 16.067-7.012 22.602-1.064 6.535 5.947 7.012 16.066 1.064 22.602-5.947 6.535-16.067 7.012-22.602 1.064-6.535-5.947-7.012-16.066-1.064-22.602" fill="#FF7676"/><path d="M40.02 132.794a13.116 13.116 0 0 0-9.78 4.318 13.123 13.123 0 0 0-3.424 9.51 13.12 13.12 0 0 0 4.302 9.145c5.384 4.901 13.751 4.507 18.65-.878 4.9-5.386 4.507-13.755-.878-18.656a13.106 13.106 0 0 0-8.87-3.44M39.995 164a17.93 17.93 0 0 1-12.11-4.681 17.89 17.89 0 0 1-5.866-12.472 17.891 17.891 0 0 1 4.669-12.967c6.682-7.345 18.09-7.882 25.433-1.198 7.342 6.683 7.88 18.095 1.198 25.439-3.547 3.898-8.427 5.879-13.324 5.879" fill="#000"/><path d="M77.032 170.003c-.554-8.819 6.146-16.417 14.965-16.97 8.819-.555 16.417 6.145 16.971 14.963.554 8.82-6.146 16.418-14.965 16.972-8.819.554-16.417-6.146-16.97-14.965" fill="#FF7676"/><g transform="translate(75 150)"><mask id="d" fill="#fff"><use xlink:href="#c"/></mask><path d="M18.365 5.285A13.33 13.33 0 0 0 8.292 9.829a13.328 13.328 0 0 0-3.327 9.714 13.331 13.331 0 0 0 4.517 9.223 13.322 13.322 0 0 0 9.715 3.328c7.384-.464 13.014-6.849 12.55-14.233-.446-7.098-6.365-12.576-13.382-12.576M18.33 37a18.163 18.163 0 0 1-12.076-4.574 18.178 18.178 0 0 1-6.16-12.577A18.178 18.178 0 0 1 4.632 6.601 18.178 18.178 0 0 1 17.208.441c10.07-.632 18.776 7.044 19.409 17.114.632 10.069-7.045 18.775-17.114 19.408-.392.025-.783.037-1.172.037" fill="#000" mask="url(#d)"/></g><path d="M136.608 159.165c-6.719-5.74-7.513-15.838-1.773-22.557 5.74-6.719 15.839-7.513 22.557-1.773 6.719 5.74 7.513 15.839 1.773 22.557-5.74 6.72-15.839 7.513-22.557 1.773" fill="#FF7676"/><path d="M147.021 132.793c-.35 0-.703.014-1.056.042a13.12 13.12 0 0 0-9.006 4.587 13.119 13.119 0 0 0-3.124 9.613 13.118 13.118 0 0 0 4.588 9.006c5.536 4.73 13.888 4.073 18.618-1.463a13.12 13.12 0 0 0 3.124-9.613 13.12 13.12 0 0 0-4.587-9.006 13.107 13.107 0 0 0-8.557-3.166M146.987 164a17.93 17.93 0 0 1-11.684-4.308c-7.55-6.45-8.445-17.839-1.995-25.389 6.45-7.55 17.84-8.444 25.389-1.995 7.55 6.45 8.444 17.839 1.995 25.389-3.557 4.163-8.616 6.303-13.705 6.303" fill="#000"/><path d="M170.504 108.928c-8.797.83-16.602-5.628-17.432-14.424-.83-8.797 5.628-16.602 14.425-17.432 8.796-.83 16.6 5.627 17.431 14.424.83 8.797-5.628 16.602-14.424 17.432" fill="#FF7676"/><path d="M168.024 79.8c-.42 0-.841.02-1.264.06-7.246.683-12.585 7.135-11.901 14.381.684 7.246 7.138 12.588 14.382 11.9 7.245-.684 12.584-7.135 11.9-14.381a13.111 13.111 0 0 0-4.726-8.929 13.102 13.102 0 0 0-8.391-3.031m-.038 31.2c-9.168 0-17.027-7-17.906-16.308-.932-9.881 6.348-18.678 16.229-19.611 4.786-.45 9.462.988 13.166 4.052a17.882 17.882 0 0 1 6.444 12.176c.933 9.88-6.346 18.678-16.228 19.61a17.81 17.81 0 0 1-1.705.081" fill="#000"/><path d="M158.485 50.005c-5.526 6.896-15.595 8.006-22.49 2.48-6.896-5.526-8.006-15.595-2.48-22.49 5.526-6.896 15.595-8.006 22.49-2.48 6.896 5.526 8.006 15.595 2.48 22.49" fill="#FF7676"/><path d="M146.03 26.8c-.488 0-.979.027-1.472.081a13.117 13.117 0 0 0-8.855 4.865 13.11 13.11 0 0 0-2.82 9.7 13.11 13.11 0 0 0 4.866 8.853 13.116 13.116 0 0 0 9.703 2.82 13.118 13.118 0 0 0 8.855-4.865 13.113 13.113 0 0 0 2.82-9.7 13.11 13.11 0 0 0-4.866-8.853 13.107 13.107 0 0 0-8.23-2.901m-.06 31.2a17.87 17.87 0 0 1-11.224-3.956 17.877 17.877 0 0 1-6.636-12.072 17.877 17.877 0 0 1 3.846-13.227 17.888 17.888 0 0 1 12.075-6.634c4.78-.527 9.479.839 13.231 3.845 7.746 6.206 8.998 17.555 2.79 25.3a17.886 17.886 0 0 1-12.075 6.633c-.672.074-1.342.111-2.008.111" fill="#000"/><path fill="#FFEE17" d="M84.684 60.176L115.24 53 97.393 78.249 122 75.591 80.628 133l7.571-35.88L69 98.448z"/><path d="M88.309 94.232a2.396 2.396 0 0 1 2.347 2.885l-5.127 24.729 31.036-43.833-18.939 2.082a2.396 2.396 0 0 1-2.23-3.752l13.995-20.152-22.784 5.446-13.554 33.664 15.087-1.063c.056-.004.113-.006.169-.006M80.849 135a2.399 2.399 0 0 1-2.346-2.886l6.815-32.87-15.753 1.11a2.399 2.399 0 0 1-2.392-3.288l15.45-38.37c.29-.72.91-1.255 1.665-1.436l30.099-7.194a2.397 2.397 0 0 1 2.526 3.7l-14.574 20.986 19.002-2.089a2.398 2.398 0 0 1 2.218 3.77l-40.752 57.555A2.398 2.398 0 0 1 80.85 135" fill="#000"/></g></svg>