<svg xmlns="http://www.w3.org/2000/svg" viewBox="0 0 511.999 511.999"><path d="M447.509 372.903c-7.743 0-15.502-1.414-22.957-4.25l-75.697-28.802c-7.305-2.779-10.973-10.954-8.193-18.258 2.779-7.303 10.957-10.971 18.258-8.193l75.697 28.802c9.033 3.437 18.863 3.151 27.679-.807 8.816-3.957 15.565-11.11 19.002-20.143 3.436-9.033 3.15-18.862-.807-27.679-3.957-8.818-11.11-15.565-20.141-19.002l-392-149.15-34.186 64.411 222.471 84.647c7.305 2.779 10.973 10.954 8.193 18.258-2.779 7.305-10.953 10.974-18.258 8.193L9.118 210.584a14.148 14.148 0 0 1-8.213-8.246 14.158 14.158 0 0 1 .746-11.615l47.557-89.606a14.148 14.148 0 0 1 17.532-6.592L470.414 248.12c16.097 6.125 28.847 18.151 35.898 33.866 7.051 15.713 7.562 33.234 1.436 49.33-6.125 16.097-18.151 28.847-33.866 35.898-8.435 3.789-17.394 5.688-26.373 5.689z" fill="#507c5c"/><path fill="#cff09e" d="M126.978 85.136L77.506 66.312 14.15 197.359l96.261 36.627z"/><path d="M110.411 248.137c-1.7 0-3.403-.306-5.032-.925L9.118 210.584A14.149 14.149 0 0 1 1.411 191.2L64.767 60.154c3.194-6.609 10.912-9.676 17.772-7.067l49.472 18.824a14.148 14.148 0 0 1 9.031 14.791l-16.567 148.85a14.15 14.15 0 0 1-14.064 12.585zm-76.802-58.515l64.759 24.641 13.333-119.799L84.6 84.152l-50.991 105.47z" fill="#507c5c"/><path fill="#cff09e" d="M248.443 59.092l-62.446-23.761 62.874 184.556 128.892 49.042z"/><path d="M377.76 283.081a14.11 14.11 0 0 1-5.029-.926l-128.892-49.042a14.156 14.156 0 0 1-8.363-8.663L172.602 39.895a14.151 14.151 0 1 1 18.427-17.789l62.447 23.76a14.143 14.143 0 0 1 7.015 5.802l129.32 209.838a14.153 14.153 0 0 1-12.051 21.575zm-117.64-74.055l83.739 31.862-104.94-170.28L209.1 59.262l51.02 149.764zm125.301 281.792H28.99c-7.816 0-14.151-6.335-14.151-14.151s6.335-14.151 14.151-14.151h356.431c7.816 0 14.151 6.335 14.151 14.151s-6.335 14.151-14.151 14.151zm97.566 0h-31.485c-7.816 0-14.151-6.335-14.151-14.151s6.335-14.151 14.151-14.151h31.485c7.816 0 14.151 6.335 14.151 14.151s-6.336 14.151-14.151 14.151z" fill="#507c5c"/></svg>