<svg width="101" height="86" xmlns="http://www.w3.org/2000/svg"><g fill="none" fill-rule="evenodd"><path d="M20.024 70.268C-.677 44.72 12.537 15.21 23.108 10.366 33.678 5.52 44.69 21.818 52.618 25.34c7.928 3.524 22.463-10.57 29.51-10.57 7.048 0 8.37 4.844 4.846 14.094-3.524 9.25 5.285 25.546 5.285 34.356 0 4.271-2.135 7.863-5.36 11.65-14.46 16.98-54.021 11.259-66.875-4.603z" fill="#FFF"/><g transform="translate(17.684 .251)" fill-rule="nonzero"><path d="M27.039 58.427v22.747c0 1.159 1.885 2.107 4.214 2.107 2.317 0 4.214-.948 4.214-2.107v-17.88l-8.428-4.867z" fill="#A4C2F7"/><path fill="#7FACFA" d="M58.945 55.021v19.022l-6.318 3.642L9.909 53.022.693 38.187l6.318-3.642v-.011l9.094-4.12.034-.01.089-.045 10.815 6.23 8.428 4.874z"/><g fill="#E3E7F2"><path d="M52.627 58.663v19.022L9.909 53.022.693 38.187l9.216-4.186 17.867 10.316.588.333z"/><path d="M16.105 30.414L9.91 34.001.693 38.187l6.318-3.642v-.011z"/></g><path fill="#7FACFA" d="M58.945 55.021v.011l-6.318 3.631L28.364 44.65l-.588-.333L9.909 34l6.196-3.587.034-.01.089-.045 10.815 6.23 8.428 4.874z"/><path d="M35.471 29.981v13.136h-.011c0 1.155-1.899 2.11-4.209 2.11a6.993 6.993 0 0 1-2.887-.577l-.588-.333a1.587 1.587 0 0 1-.744-1.11h.01v-18.1l8.429 4.874z" fill="#A4C2F7"/><path fill="#7FACFA" d="M63.898 40.974l-6.319 3.654-9.205 4.186L5.989 24.35V5.32l6.319-3.642 14.735 8.506 8.428 4.852L54.692 26.14z"/><path fill="#E3E7F2" d="M57.58 44.628l-9.206 4.186L5.989 24.35V5.32l42.385 24.473z"/><path fill="#7FACFA" d="M54.692 26.14l-6.318 3.652L5.989 5.32l6.319-3.642 14.735 8.506 8.428 4.852z"/><path d="M35.471 15.857c0 1.166-1.899 2.11-4.22 2.11a6.52 6.52 0 0 1-3.253-.767 1.69 1.69 0 0 1-.955-1.343h-.011V3.22h8.428v12.637h.011z" fill="#A4C2F7"/><ellipse fill="#E3E7F2" cx="31.247" cy="3.217" rx="4.214" ry="2.106"/><path fill="#FFF" d="M7.602 5.324v19.023H5.38V5.324z"/><g fill="#428DFF"><path d="M6.492 15.318a1.115 1.115 0 0 0 .788-1.899l-.166-.133a.843.843 0 0 0-.2-.1.702.702 0 0 0-.2-.067 1.614 1.614 0 0 0-.222-.022c-.294.004-.576.12-.789.322a1.095 1.095 0 0 0 .366 1.81c.134.057.278.087.423.09z"/><path d="M.098 38.334c.002.013.01.025.013.038.019.131.062.258.126.374l.014.019.004.012L9.47 53.608a1.1 1.1 0 0 0 .388.376l16.575 9.57v17.62c0 1.834 2.29 3.218 5.325 3.218s5.324-1.384 5.324-3.218V69.701l15.5 8.949.005.002a1.1 1.1 0 0 0 .158.065.522.522 0 0 0 .256.064c.045.008.09.014.136.017.195 0 .386-.05.555-.148L60.01 75a.897.897 0 0 0 .099-.086c.063-.044.121-.096.173-.153.085-.108.155-.227.207-.355.028-.082.045-.168.052-.254a1.02 1.02 0 0 0 .022-.11V55.017c0-.025-.008-.047-.01-.07a1.101 1.101 0 0 0-.122-.443c-.007-.014-.006-.03-.014-.043-.006-.011-.018-.017-.024-.028a1.106 1.106 0 0 0-.32-.328c-.023-.016-.041-.036-.066-.05l-8.8-5.08 7.34-3.34c.011-.004.018-.015.028-.02.022-.012.046-.016.067-.028l6.321-3.65c.008-.004.011-.012.019-.016l.007-.004c.024-.015.037-.04.06-.056a1.11 1.11 0 0 0 .258-.243c.012-.016.015-.036.026-.053.069-.102.12-.215.15-.334.004-.018 0-.036.004-.053.026-.122.03-.247.014-.37-.004-.028-.02-.053-.027-.08a1.079 1.079 0 0 0-.104-.309c-.005-.008-.014-.013-.019-.021l-.004-.01-9.207-14.832c-.023-.037-.066-.056-.093-.09a1.098 1.098 0 0 0-.245-.238c-.02-.013-.03-.037-.05-.049L37.077 14.394V3.217c0-1.833-2.29-3.217-5.324-3.217-3.036 0-5.325 1.384-5.325 3.217v5.039L13.371.718a1.06 1.06 0 0 0-.115-.039 1.09 1.09 0 0 0-.244-.082 1.527 1.527 0 0 0-.425.006 1.09 1.09 0 0 0-.161.054 1.046 1.046 0 0 0-.168.057L5.937 4.362c-.02.012-.031.032-.05.044-.06.044-.116.092-.166.147-.055.05-.104.106-.147.166-.013.02-.033.03-.044.05a1.052 1.052 0 0 0-.044.13 1.09 1.09 0 0 0-.073.216 1.055 1.055 0 0 0-.014.21H5.38v4.44a1.11 1.11 0 1 0 2.221 0V7.249l40.476 23.367 8.4 13.522-7.543 3.432L7.602 23.705V18.65a1.11 1.11 0 1 0-2.22 0v5.698h.017c-.007.394.199.761.538.962l8.462 4.885-7.341 3.331c-.024.011-.039.032-.062.045-.01.005-.022.004-.031.01L.644 37.23a1.01 1.01 0 0 0-.16.14.737.737 0 0 0-.292.398c-.02.033-.039.066-.056.101-.002.005 0 .011-.001.017a1.11 1.11 0 0 0-.037.448zm48.776-9.823l-16.411-9.475c2.135-.159 3.786-1.017 4.37-2.218l16.145 9.324-4.104 2.37zM34.856 15.86c-.076.25-1.114.996-3.099.996a5.454 5.454 0 0 1-2.674-.604c-.316-.195-.416-.353-.43-.398 0-.008-.004-.014-.004-.021V5.858a8.06 8.06 0 0 0 3.104.577 8.06 8.06 0 0 0 3.103-.577V15.86zM31.753 2.22c2.005 0 3.036.75 3.102.997-.066.248-1.097.997-3.102.997-2.02 0-3.053-.76-3.104-.991.051-.242 1.084-1.002 3.104-1.002zm-5.325 13.332L8.713 5.324l4.098-2.365 13.617 7.861v4.732zm23.995 14.63l4.399-2.54 8.036 12.946-4.394 2.537-8.041-12.943zm7.92 43.217l-4.097 2.365V59.307l4.097-2.365v16.457zm-5.207-16.016L33.645 46.13c1.742-.379 3.005-1.267 3.337-2.408a1.11 1.11 0 0 0 .08-.351l20.172 11.646-4.098 2.366zm-23.9-13.799l-.296-.17a.857.857 0 0 1-.286-.293v-4.604L34.86 42.1v.993l-.004.016c-.057.243-1.098 1.005-3.104 1.005a5.636 5.636 0 0 1-2.517-.53zm-2.803-1.618l-13.799-7.967 4.097-2.365 9.702 5.601v4.73zm8.428 39.202c-.06.244-1.102 1.003-3.104 1.003-2.014 0-3.05-.762-3.103-.997V64.836l6.207 3.583v12.75zm17.164-5.404L11.21 52.2l-8.4-13.522 7.543-3.432 17.482 10.093c.031.02.054.045.087.065.056.035.125.06.184.092l23.92 13.81v16.458z"/></g></g><path d="M.286 58.68c0-.234.118-.352.352-.352h1.464v-1.544c0-.234.128-.352.384-.352h1.792c.235 0 .352.118.352.352v1.544h1.464c.096 0 .18.03.248.092.07.062.104.148.104.26v1.624c0 .08-.032.164-.096.252a.301.301 0 0 1-.256.132H4.63v1.552a.37.37 0 0 1-.088.248c-.058.07-.146.104-.264.104H2.486a.433.433 0 0 1-.252-.096.301.301 0 0 1-.132-.256v-1.552H.638c-.234 0-.352-.128-.352-.384V58.68zm86.239-8.34c0-.235.117-.353.352-.353h1.464v-1.544c0-.234.128-.352.384-.352h1.792c.234 0 .352.118.352.352v1.544h1.464c.096 0 .178.031.248.092a.33.33 0 0 1 .104.26v1.624c0 .08-.032.164-.096.252a.301.301 0 0 1-.256.132h-1.464V53.9c0 .096-.03.18-.088.248-.059.07-.147.104-.264.104h-1.792a.433.433 0 0 1-.252-.096.301.301 0 0 1-.132-.256v-1.552h-1.464c-.235 0-.352-.128-.352-.384V50.34zM1.366 46.941c0-.143.072-.215.216-.215h.894v-.943c0-.144.078-.215.235-.215h1.095c.143 0 .215.071.215.215v.943h.894c.059 0 .11.019.152.056.042.038.063.09.063.16v.991c0 .05-.02.1-.058.154a.184.184 0 0 1-.157.081h-.894v.948c0 .06-.018.11-.054.152-.036.042-.09.063-.161.063H2.71a.27.27 0 0 1-.154-.058.184.184 0 0 1-.08-.157v-.948h-.895c-.144 0-.216-.078-.216-.235v-.992zm91.319-7.08c0-.143.071-.215.215-.215h.894v-.943c0-.144.079-.215.235-.215h1.095c.143 0 .215.071.215.215v.943h.895c.058 0 .109.019.151.056a.2.2 0 0 1 .064.16v.991c0 .05-.02.1-.059.154a.184.184 0 0 1-.156.081h-.895v.948c0 .06-.018.11-.054.152-.036.042-.09.063-.161.063h-1.095c-.049 0-.1-.02-.154-.058a.184.184 0 0 1-.08-.157v-.948H92.9c-.144 0-.215-.078-.215-.235v-.992zm3.764 19.143c0-.144.071-.215.215-.215h.894v-.944c0-.143.078-.215.235-.215h1.095c.143 0 .215.072.215.215v.944h.894c.06 0 .11.019.152.056a.2.2 0 0 1 .064.159v.992c0 .05-.02.1-.06.154a.184.184 0 0 1-.156.08h-.894v.95a.223.223 0 0 1-.054.15c-.036.043-.09.064-.161.064h-1.095c-.049 0-.1-.02-.154-.058a.184.184 0 0 1-.08-.157v-.948h-.895c-.144 0-.215-.078-.215-.235v-.992zm-26.403-48.93c0-.143.071-.215.215-.215h.894v-.943c0-.144.079-.215.235-.215h1.095c.143 0 .215.071.215.215v.943h.895c.058 0 .109.019.151.056.042.038.064.09.064.16v.992c0 .048-.02.1-.059.154a.184.184 0 0 1-.156.08H72.7v.949a.226.226 0 0 1-.054.151c-.036.042-.09.064-.161.064H71.39c-.049 0-.1-.02-.154-.059a.184.184 0 0 1-.08-.156v-.95h-.895c-.144 0-.215-.078-.215-.234v-.993zM13.92 6.31c0-.143.072-.215.215-.215h.895v-.943c0-.144.078-.215.235-.215h1.095c.143 0 .215.071.215.215v.943h.894c.059 0 .11.019.152.056.042.038.063.09.063.16v.992c0 .049-.02.1-.058.154a.184.184 0 0 1-.157.08h-.894v.949a.226.226 0 0 1-.054.151c-.036.043-.09.064-.161.064h-1.095c-.05 0-.1-.02-.154-.059a.184.184 0 0 1-.081-.156v-.949h-.895c-.143 0-.215-.078-.215-.234V6.31z" fill="#7FACFA"/><circle stroke="#7FACFA" cx="61.5" cy="4.751" r="1.5"/><circle stroke="#7FACFA" cx="94.185" cy="71.504" r="1.5"/></g></svg>