<svg width="24" height="24" xmlns="http://www.w3.org/2000/svg" xmlns:xlink="http://www.w3.org/1999/xlink"><defs><path id="a" d="M0 0h24v24H0z"/></defs><g fill="none" fill-rule="evenodd"><mask id="b" fill="#fff"><use xlink:href="#a"/></mask><path d="M22.492 22.492a.275.275 0 0 1-.296.068l-5.08-1.746a.712.712 0 0 0-.565.044 10.331 10.331 0 0 1-4.799 1.191c-5.603.01-10.239-4.542-10.328-10.145a10.235 10.235 0 0 1 3.02-7.46 10.234 10.234 0 0 1 7.46-3.02c5.603.09 10.154 4.722 10.145 10.329a10.332 10.332 0 0 1-1.191 4.798.712.712 0 0 0-.044.564l1.746 5.081a.275.275 0 0 1-.068.296m1.414-.758l-1.648-4.795a11.772 11.772 0 0 0 1.214-5.184 11.666 11.666 0 0 0-3.37-8.237A11.656 11.656 0 0 0 11.926.002a11.69 11.69 0 0 0-8.489 3.436 11.69 11.69 0 0 0-3.435 8.488 11.656 11.656 0 0 0 3.516 8.176 11.665 11.665 0 0 0 8.218 3.37h.019a11.773 11.773 0 0 0 5.184-1.214l4.795 1.648a1.698 1.698 0 0 0 1.764-.408 1.698 1.698 0 0 0 .408-1.764" fill="#000" mask="url(#b)"/><path d="M11.5 17c-.261 0-.512.23-.5.5.013.27.22.5.5.5.261 0 .512-.23.5-.5a.508.508 0 0 0-.5-.5m0-11C9.57 6 8 7.59 8 9.546c0 .394.315.713.703.713a.708.708 0 0 0 .704-.713c0-1.169.939-2.12 2.093-2.12s2.093.951 2.093 2.12c0 1.17-.939 2.121-2.093 2.121a.708.708 0 0 0-.703.713v2.907c0 .394.315.713.703.713.388 0 .703-.32.703-.713v-2.266C13.797 12.69 15 11.258 15 9.546 15 7.591 13.43 6 11.5 6" fill="#000"/></g></svg>