<svg width="12" height="28" xmlns="http://www.w3.org/2000/svg"><path d="M11.455 5.526H9.818v-1.64a.546.546 0 0 0-.545-.547h-1.21L7.62 1.565a.546.546 0 0 0-.529-.414h-.545V.547a.546.546 0 1 0-1.091 0v.604h-.546c-.25 0-.468.17-.529.414L3.938 3.34h-1.21a.546.546 0 0 0-.546.546v1.641H.546A.546.546 0 0 0 0 6.073v21.38c0 .302.244.547.546.547h10.909a.546.546 0 0 0 .545-.547V6.073a.546.546 0 0 0-.545-.547zm-6.12-3.281h1.33l.273 1.094H5.062l.273-1.094zM3.273 4.432h5.454v1.094H3.273V4.432zm7.636 22.474H1.091V6.62h9.818v20.286z"/><path d="M4.91 24.688a.546.546 0 0 0-.546.547v.031a.546.546 0 1 0 1.09 0v-.031a.546.546 0 0 0-.545-.547zm0-16.975H2.726a.546.546 0 0 0-.545.547v17.006a.546.546 0 1 0 1.09 0V8.807h1.092v14.809a.546.546 0 1 0 1.09 0V8.26a.546.546 0 0 0-.545-.547zm2.181.001a.546.546 0 0 0-.545.546v17.006a.546.546 0 1 0 1.09 0V8.807h1.091v14.809a.546.546 0 1 0 1.091 0V8.26a.546.546 0 0 0-.545-.546H7.09zm2.182 16.974a.546.546 0 0 0-.546.547v.031a.546.546 0 1 0 1.091 0v-.03a.546.546 0 0 0-.545-.548z"/></svg>