<svg width="68" height="68" xmlns="http://www.w3.org/2000/svg"><g transform="translate(1 1)" fill="none" fill-rule="evenodd"><circle stroke="#000" cx="33" cy="33" r="33"/><g fill-rule="nonzero"><path fill="#DE2F55" d="M29.962 15.617l1.342 7.4h6.034l1.341-7.4z"/><path fill="#E1C6BE" d="M38.009 19.317l-.67 3.7h-6.035l-.671-3.7h-10.01v32.066h27.396V19.317z"/><g transform="translate(24.358 18.083)" fill="#65CECC"><ellipse cx="9.962" cy="1.233" rx="1.245" ry="1.233"/><path d="M0 7.4h19.925v13.567H0z"/></g><g transform="translate(30.585 27.95)" fill="#E9CD4B"><ellipse cx="3.736" cy="2.467" rx="2.491" ry="2.467"/><path d="M2.43 4.933h2.612c1.342 0 2.43 1.078 2.43 2.407v3.76H0V7.34c0-1.33 1.088-2.407 2.43-2.407z"/></g><path fill="#00BA54" d="M50.51 39.05l-4.982 6.167-1.868-1.85-1.867 1.85 3.735 3.7 6.85-8.017z"/><path d="M34.32 21.167a1.859 1.859 0 0 1-1.867-1.85c0-1.022.836-1.85 1.868-1.85a1.86 1.86 0 0 1 1.868 1.85 1.861 1.861 0 0 1-1.868 1.85zm0-2.467a.62.62 0 0 0-.622.617c0 .34.279.616.623.616a.62.62 0 0 0 .622-.616.62.62 0 0 0-.622-.617zm9.963 6.167H24.36a.62.62 0 0 0-.623.616V39.05c0 .34.279.617.623.617h19.924a.62.62 0 0 0 .623-.617V25.483a.62.62 0 0 0-.623-.616zm-9.962 7.4a1.859 1.859 0 0 1-1.868-1.85c0-1.022.836-1.85 1.868-1.85a1.86 1.86 0 0 1 1.868 1.85 1.861 1.861 0 0 1-1.868 1.85zM33.015 33.5h2.612a1.8 1.8 0 0 1 1.807 1.79v3.143h-6.226V35.29a1.8 1.8 0 0 1 1.807-1.79zm10.645 4.933h-4.98V35.29a3.02 3.02 0 0 0-2.039-2.838 3.063 3.063 0 0 0-.245-4.354A3.134 3.134 0 0 0 32 28.34a3.061 3.061 0 0 0 0 4.11 3.02 3.02 0 0 0-2.038 2.839v3.143h-4.98V26.1H43.66v12.333zM23.736 40.9h9.34v1.233h-9.34zm10.584 0h3.737v1.233H34.32V40.9zm-10.584 3.7h14.943v1.233H23.736zm15.566-3.7h2.49v1.233h-2.49z" fill="#000"/><path d="M52.818 40.464l-1.868-1.85a.627.627 0 0 0-.927.05l-1.381 1.711V19.317a.62.62 0 0 0-.623-.617h-9.266l.54-2.974a.617.617 0 0 0-.614-.726h-8.717a.62.62 0 0 0-.613.726l.54 2.974h-9.266a.62.62 0 0 0-.623.617v32.066c0 .34.279.617.623.617h27.396a.62.62 0 0 0 .623-.617v-5.156l4.21-4.929a.612.612 0 0 0-.034-.834zm-14.883-24.23L36.817 22.4h-4.993l-1.117-6.167h7.228zm9.461 34.533h-26.15V19.933h8.866l.578 3.193a.62.62 0 0 0 .613.507h6.035a.62.62 0 0 0 .613-.507l.579-3.193h8.866v21.984l-1.92 2.377-1.375-1.363a.627.627 0 0 0-.88 0l-1.869 1.85a.612.612 0 0 0 0 .872l3.736 3.7c.117.115.275.18.44.18h.026a.625.625 0 0 0 .45-.218l1.392-1.63v3.082zm-1.906-2.76l-2.817-2.79.987-.978 1.428 1.414a.624.624 0 0 0 .926-.05l4.547-5.63.971.962-6.042 7.072z" fill="#000"/><path fill="#000" d="M23.736 48.3h5.604v1.233h-5.604zm6.849 0h9.962v1.233h-9.962V48.3z"/></g></g></svg>