<svg width="20" height="22" xmlns="http://www.w3.org/2000/svg"><path d="M18.672 21.057h-3.321v-2.784h3.7v2.409a.381.381 0 0 1-.379.375zM.95 20.682v-2.41h3.574v2.785H1.328a.377.377 0 0 1-.378-.375zm.378-17.588h4.28v1.1c0 .26.212.471.474.471a.473.473 0 0 0 .475-.471v-1.1h7.052v1.1c0 .26.213.471.475.471a.473.473 0 0 0 .475-.471v-1.1h4.113c.209 0 .378.168.378.375v2.735H.95V3.47c0-.207.169-.375.378-.375zM15.35 9.968h3.7V7.147h-3.7v2.821zm0 3.557h3.7v-2.614h-3.7v2.614zm0 3.805h3.7v-2.862h-3.7v2.862zm-5.085 0H14.4v-2.862h-4.135v2.862zm0 3.727H14.4v-2.784h-4.135v2.784zm-4.792 0h3.842v-2.784H5.474v2.784zm0-3.727h3.842v-2.862H5.474v2.862zm-4.524 0h3.574v-2.862H.95v2.862zm0-7.362h3.574V7.147H.95v2.821zm4.524 0h3.842V7.147H5.474v2.821zm4.792 0H14.4V7.147h-4.135v2.821zm0 3.557H14.4v-2.614h-4.135v2.614zm-4.792 0h3.842v-2.614H5.474v2.614zm-4.524 0h3.574v-2.614H.95v2.614zM18.672 2.151h-4.113V.47a.473.473 0 0 0-.475-.47.473.473 0 0 0-.475.471v1.68H6.557V.47A.473.473 0 0 0 6.082 0a.473.473 0 0 0-.475.471v1.68h-4.28A1.324 1.324 0 0 0 0 3.469v17.213C0 21.409.596 22 1.328 22h17.344c.732 0 1.328-.591 1.328-1.318V3.469c0-.727-.596-1.318-1.328-1.318z" fill="#A8A8A8" fill-rule="evenodd"/></svg>