<svg width="53" height="72" xmlns="http://www.w3.org/2000/svg"><path d="M51.886 59.295l-4.441-7.674c-1.56-2.865-5.222-3.847-8.122-2.177-3.792 2.185-7.075 1.865-9.678-.024a30.401 30.401 0 0 1-12.403-21.43c-.34-3.199 1.025-6.189 4.819-8.374 2.754-1.586 3.733-5.24 2.171-8.105l-4.441-7.674C18.229.972 14.569-.009 11.67 1.661l-5.364 3.09c-4.35 2.504-6.328 7.602-4.913 12.386 5.92 19.081 16.259 36.777 29.749 51.403 3.761 3.884 8.964 4.333 13.178 2.064l5.364-3.09c2.816-1.815 3.794-5.468 2.202-8.22zM17.678 4.86l4.44 7.675c.923 1.592.487 3.678-.994 4.627l-7.96-13.756c.839-.387 1.586-.431 2.387-.217a4.72 4.72 0 0 1 2.127 1.671zm25.53 63.487c-3.334 1.92-7.573 1.274-10.257-1.525C19.628 52.487 9.488 34.966 3.705 16.288c-1.203-3.748.356-7.735 3.804-9.624l4.495-2.589 8.044 13.9a10.673 10.673 0 0 0-5.307 10.201 32.481 32.481 0 0 0 13.407 23.168 10.728 10.728 0 0 0 11.51.513l8.044 13.902-4.494 2.589zm5.54-3.288l-7.961-13.755c1.678-.774 3.592-.139 4.514 1.453l4.441 7.675c1.036 1.624.516 3.564-.994 4.627z"/></svg>