<svg xmlns="http://www.w3.org/2000/svg" viewBox="0 0 100 60"><path d="M100 60V1.7c0-1-.8-1.7-1.7-1.7H1.7C.8 0 0 .8 0 1.7V60h100z" fill="#41479b"/><path fill="#ff4b55" d="M0 15.5h100V50H0z"/><path fill="#f5f5f5" d="M72.8 45.8v-2.4H72v-1.7h-.8v-1.6h-.8v-1.6h-2.5v-4.9l.8-.8v-2.5h-.8v-1.6h-.8v-2.4h-.8v-1.7h-.8V23h-.8v-.8H63v.8h-.8v1.6h-.8v1.7h-.8v2.4h-.8v1.6h-4.9v-2.4h-.8v-2.4h-.8V23h-.9v-1.6h-.8v-1.6h-.8v-.9h-.4v-.8h-.8v.8h-.4v.9h-.8v1.6h-.8V23h-.9v2.5h-.8v2.4h-.8v2.4h-4.9v-1.6h-.8v-2.4h-.8v-1.7h-.8V23H37v-.8h-1.7v.8h-.8v1.6h-.8v1.7h-.8v2.4h-.8v1.6h-.8v2.5l.8.8v4.9h-2.5v1.6h-.8v1.6H28v1.7h-.8v2.4h-.8v2.5h47.2v-2.5z"/></svg>