<svg width="72" height="70" xmlns="http://www.w3.org/2000/svg"><g fill="none"><path d="M24.103 13.908c-.224.22-.395.486-.537.777l-.016-.016L1.097 64.374l.022.022c-.416.793.28 2.406 1.708 3.81 1.425 1.401 3.067 2.086 3.874 1.677l.02.02L57.3 47.838l-.015-.018c.296-.138.564-.305.79-.527 3.127-3.073-1.943-13.038-11.324-22.257-9.381-9.22-19.522-14.202-22.65-11.13" fill="#DD2E44"/><path d="M26.96 22L1.664 61.893l-.567 1.236.022.02c-.418.785.281 2.378 1.715 3.767.466.452.948.794 1.425 1.084L35 31.727 26.96 22z" fill="#EA596E"/><path d="M45.765 24.238c9.212 9.218 14.327 19.042 11.42 21.946-2.906 2.908-12.73-2.205-21.949-11.419-9.214-9.217-14.327-19.044-11.421-21.95 2.908-2.907 12.731 2.208 21.95 11.423" fill="#A0041E"/><path d="M37.038 25.566c-.39.316-.9.481-1.439.422-1.702-.184-3.131-.777-4.135-1.713-1.06-.991-1.584-2.32-1.44-3.654.25-2.34 2.595-4.487 6.593-4.055 1.555.167 2.249-.332 2.27-.571.028-.238-.543-.876-2.096-1.044-1.703-.185-3.133-.777-4.137-1.714-1.06-.99-1.586-2.321-1.44-3.654.254-2.341 2.597-4.486 6.591-4.054 1.133.123 1.73-.112 1.982-.263.204-.124.285-.242.292-.31.022-.236-.54-.874-2.1-1.043a1.963 1.963 0 0 1 .422-3.901c3.994.43 5.83 3.026 5.576 5.367-.253 2.34-2.596 4.485-6.594 4.053-1.133-.123-1.725.112-1.98.263-.202.124-.284.243-.292.308-.025.24.543.877 2.1 1.044 3.994.432 5.829 3.029 5.576 5.37-.253 2.34-2.598 4.486-6.592 4.053-1.133-.122-1.729.111-1.984.263-.202.123-.28.243-.288.31-.026.237.541.875 2.098 1.042a1.962 1.962 0 0 1 1.737 2.163 1.957 1.957 0 0 1-.72 1.318" fill="#AA8DD8"/><path d="M61.357 44.339c3.988-1.1 6.738.638 7.393 2.92.655 2.281-.764 5.168-4.747 6.263-1.557.427-2.024 1.154-1.96 1.387.068.233.858.617 2.41.186 3.986-1.095 6.737.644 7.392 2.924.66 2.283-.762 5.166-4.75 6.265-1.554.426-2.023 1.156-1.954 1.387.066.231.855.612 2.409.188 1.073-.297 2.19.316 2.494 1.365.299 1.051-.326 2.142-1.403 2.439-3.981 1.096-6.736-.639-7.395-2.923-.655-2.28.766-5.164 4.756-6.262 1.554-.429 2.023-1.154 1.954-1.387-.067-.232-.853-.617-2.407-.19-3.988 1.099-6.738-.636-7.395-2.92-.657-2.283.764-5.166 4.753-6.265 1.55-.425 2.02-1.156 1.953-1.385-.069-.235-.853-.619-2.41-.19-1.074.296-2.188-.316-2.491-1.368-.304-1.049.323-2.14 1.398-2.434" fill="#77B255"/><path d="M46.002 38a2.03 2.03 0 0 1-1.564-.726 1.898 1.898 0 0 1 .312-2.724c.436-.34 10.836-8.252 25.534-6.216 1.094.152 1.852 1.132 1.696 2.192-.156 1.058-1.16 1.801-2.264 1.643-12.986-1.787-22.374 5.335-22.466 5.407a2.03 2.03 0 0 1-1.248.424" fill="#AA8DD8"/><path d="M11.175 31a1.89 1.89 0 0 1-.55-.084c-1.01-.319-1.582-1.437-1.279-2.497C11.51 20.86 13.47 8.796 11.061 5.65c-.271-.356-.676-.707-1.608-.633-1.793.142-1.62 4.11-1.62 4.15.081 1.104-.71 2.066-1.76 2.148-1.067.068-1.97-.745-2.046-1.85-.199-2.763.622-8.085 5.138-8.443 2.016-.16 3.69.575 4.874 2.118 4.527 5.913-.069 23.055-1.037 26.433-.248.868-1.006 1.427-1.827 1.427" fill="#77B255"/><path d="M54 18a3.001 3.001 0 0 1-6 0 3.001 3.001 0 0 1 6 0" fill="#5C913B"/><path d="M8 35c0 2.208-1.792 4-4 4s-4-1.792-4-4a4 4 0 0 1 8 0" fill="#9266CC"/><path d="M66.938 37.097a2.978 2.978 0 0 1-5.954 0 2.978 2.978 0 0 1 5.954 0M49.077 60.91a2.978 2.978 0 0 1-5.953 0 2.978 2.978 0 0 1 5.953 0" fill="#5C913B"/><path d="M59.953 7.032a3.992 3.992 0 1 1-7.984 0 3.99 3.99 0 0 1 3.992-3.989 3.99 3.99 0 0 1 3.992 3.99m7.984 8.975a2.994 2.994 0 0 1-5.988 0 2.994 2.994 0 0 1 5.988 0m-5.987 7.978a2.994 2.994 0 0 1-5.99 0 2.994 2.994 0 0 1 5.99 0m-43.915 21.94a2.994 2.994 0 0 1-5.988 0 2.994 2.994 0 0 1 5.988 0" fill="#FFCC4D"/></g></svg>