<svg width="187" height="188" xmlns="http://www.w3.org/2000/svg" xmlns:xlink="http://www.w3.org/1999/xlink"><defs><path id="a" d="M0 .297h186.802v141.529H0z"/><path id="c" d="M.146.37h28.732V99H.146z"/></defs><g fill="none" fill-rule="evenodd"><path d="M103.95 91.554c0-.318-4.117-51.834-4.117-58.194 0-5.088 1.584-6.36 6.334-6.36 9.5 0 12.666 22.26 19 54.06l9.5 63.6c.95 3.816 3.166 10.494 6.333 12.72L179 186h-53.834s-9.5-3.18-15.833-9.54c-6.334-6.36-9.5-12.72-9.5-19.08v-57.24s0-6.36 4.117-8.586zM80.516 90.6c6.65.954 6.65 9.54 6.65 9.54v57.24c0 6.36-3.166 12.72-9.5 19.08-6.333 6.36-15.833 9.54-15.833 9.54H8l38-28.62c3.166-1.908 5.7-8.586 6.333-12.72l9.5-63.6c6.334-31.8 9.5-54.06 19-54.06 4.75 0 6.334 1.272 6.334 6.36 0 6.36-3.8 55.332-4.117 57.558l-2.534-.318z" fill="#FFD0A1"/><mask id="b" fill="#fff"><use xlink:href="#a"/></mask><path d="M93.401 13.02c-.95 0-1.583-.637-1.583-1.591V1.888c0-.955.633-1.59 1.583-1.59s1.583.635 1.583 1.59v9.54c0 .955-.633 1.591-1.583 1.591M55.408 29.557c-.634 0-.95-.317-1.267-.954l-7.915-13.675c-.317-.636-.317-1.59.633-2.226.633-.318 1.583-.318 2.216.636l7.915 13.675c.317.637.317 1.59-.633 2.227-.316.317-.633.317-.95.317m75.988 0c-.317 0-.633 0-.95-.317-.633-.318-.95-1.272-.633-2.227l7.915-13.675c.316-.636 1.266-.954 2.216-.636.633.317.95 1.272.633 2.226l-7.915 13.675c-.316.636-.633.954-1.266.954M45.909 68.04c-.316 0-.633 0-.633-.318L13.298 49.276c-.634-.318-.95-1.272-.634-2.226.317-.636 1.267-.954 2.217-.636L46.859 64.86c.633.318.95 1.272.633 2.226-.633.954-.95.954-1.583.954m94.984 0c-.633 0-.95-.318-1.266-.954-.316-.636-.316-1.59.633-2.226l31.978-18.446c.634-.318 1.584-.318 2.217.636.316.636.316 1.59-.634 2.226l-31.978 18.446c-.317.318-.633.318-.95.318M39.577 95.71H1.583C.633 95.71 0 95.074 0 94.12c0-.955.633-1.59 1.583-1.59h37.994c.95 0 1.583.635 1.583 1.59 0 .954-.633 1.59-1.583 1.59m145.642 0h-37.994c-.95 0-1.583-.636-1.583-1.59 0-.955.634-1.59 1.583-1.59h37.994c.95 0 1.583.635 1.583 1.59 0 .954-.633 1.59-1.583 1.59M13.931 141.826c-.633 0-.95-.318-1.266-.955-.317-.636-.317-1.59.633-2.226l22.48-13.04c.633-.317 1.583-.317 2.216.637.316.636.316 1.59-.633 2.226l-22.48 13.04c-.317.318-.633.318-.95.318m158.94 0c-.316 0-.633 0-.95-.318l-22.48-13.04c-.633-.318-.95-1.272-.633-2.226.317-.637 1.267-.954 2.216-.637l22.48 13.04c.634.318.95 1.272.634 2.226 0 .637-.633.955-1.267.955" fill="#111" mask="url(#b)"/><path d="M7.856 188a1.85 1.85 0 0 1-1.485-.744 1.864 1.864 0 0 1 .371-2.604l37.967-28.56c5.06-4.009 5.606-11.277 5.61-11.35.003-.044.008-.087.014-.13 8.402-60.7 15.082-91.043 18.316-103.727a33.456 33.456 0 0 1 6.717-13.116 7.66 7.66 0 0 1 7.006-2.69c4.007.575 6.908 4.195 6.606 8.242l-3.547 47.594a1.857 1.857 0 0 1-1.988 1.717 1.859 1.859 0 0 1-1.712-1.994l3.548-47.594a4.03 4.03 0 0 0-3.431-4.281 3.979 3.979 0 0 0-3.64 1.396 29.712 29.712 0 0 0-5.966 11.647c-3.213 12.605-9.853 42.779-18.227 103.26-.075.923-.905 9.13-7.029 13.963a1.191 1.191 0 0 1-.034.026L8.968 187.628a1.841 1.841 0 0 1-1.112.372" fill="#111"/><g transform="translate(60 88)"><mask id="d" fill="#fff"><use xlink:href="#c"/></mask><path d="M1.982 99c-.772 0-1.49-.496-1.744-1.277a1.858 1.858 0 0 1 1.173-2.339c10.035-3.321 17.086-8.81 20.957-16.316 2.888-5.6 2.84-10.312 2.84-10.36l-.001-.039V11.835c-.788-6.06-4.192-7.5-4.977-7.754-5.287.156-6.615 7.153-6.728 7.813l-3.42 41.209a1.84 1.84 0 0 1-1.983 1.692 1.848 1.848 0 0 1-1.676-2.002l3.426-41.28a1.7 1.7 0 0 1 .015-.123C10.434 7.57 13.374.37 20.407.37h.07c.118.001.236.014.352.037.28.058 6.852 1.513 8.034 11.08.01.076.015.153.015.23v56.936c.007.48.007 5.693-3.153 11.929-2.96 5.841-9.382 13.762-23.171 18.325-.19.063-.383.093-.572.093" fill="#111" mask="url(#d)"/></g><path d="M178.144 188c-.388 0-.778-.12-1.112-.372l-37.984-28.573-.034-.026c-6.122-4.833-6.954-13.038-7.03-13.962-8.372-60.482-15.013-90.655-18.226-103.261a29.72 29.72 0 0 0-5.966-11.647 3.977 3.977 0 0 0-3.64-1.396 4.03 4.03 0 0 0-3.431 4.28l3.548 47.595a1.859 1.859 0 0 1-1.712 1.994 1.857 1.857 0 0 1-1.988-1.717l-3.547-47.594c-.302-4.048 2.6-7.668 6.606-8.242a7.664 7.664 0 0 1 7.006 2.69 33.465 33.465 0 0 1 6.717 13.115c3.235 12.685 9.914 43.029 18.316 103.728.006.043.01.086.013.13.005.07.586 7.368 5.612 11.35l37.966 28.56c.82.616.986 1.782.37 2.604a1.85 1.85 0 0 1-1.484.744" fill="#111"/><path d="M124.147 188c-.19 0-.385-.03-.577-.093-13.917-4.58-20.4-12.53-23.387-18.394-3.192-6.264-3.19-11.5-3.182-11.975v-57.15c0-.076.004-.153.014-.23 1.193-9.603 7.827-11.063 8.109-11.12.118-.025.237-.037.356-.038h.07c7.1 0 10.066 7.227 10.642 11.061.006.04.011.082.014.123l3.458 41.435a1.858 1.858 0 0 1-1.69 2.01 1.853 1.853 0 0 1-2.001-1.698l-3.453-41.366c-.123-.73-1.436-7.691-6.796-7.841-.746.238-4.218 1.665-5.018 7.783v57.048l-.001.046c0 .041-.049 4.771 2.866 10.392 3.908 7.533 11.024 13.044 21.153 16.378a1.862 1.862 0 0 1-.577 3.629" fill="#111"/></g></svg>