<svg width="171" height="207" xmlns="http://www.w3.org/2000/svg" xmlns:xlink="http://www.w3.org/1999/xlink"><defs><path id="a" d="M0 .374h170.596V207H0z"/></defs><g fill="none" fill-rule="evenodd"><path d="M100.4 151l33.966 5.696c8.487 1.424 15.554 7.336 18.492 15.472L164 203H5l11.142-30.832c2.942-8.136 10.005-14.048 18.492-15.472L68.6 151h31.8z" fill="#ECECEC"/><path d="M147.266 203H164l-11.037-30.832c-2.914-8.136-9.91-14.048-18.317-15.472L101 151l30.157 17.02a15.933 15.933 0 0 1 7.245 8.784L147.266 203z" fill="#B6C1CE"/><path fill="#F9E0A6" d="M70 152l16 20 16-20v-12H70z"/><path d="M145 81V65c0-33.136-26.64-60-59.5-60S26 31.864 26 65v16h119z" fill="#D3A06C"/><path d="M84.937 5c-1.33 0-2.63.116-3.937.2 30.775 2.068 43.312 28.012 43.312 59.8v16H144V65c0-33.136-26.444-60-59.063-60" fill="#B27946"/><path fill="#B6C1CE" d="M109 187l12-32v-.668L101 151l-16 20z"/><path fill="#B6C1CE" d="M50 155l12 32 24-16-16-20-20 3.332z"/><path d="M46 80H26c-4.42 0-8 3.58-8 8v16c0 4.42 3.58 8 8 8h20V80z" fill="#8C95A4"/><path d="M42 73v32c0 24.3 19.476 44 43.5 44s43.5-19.7 43.5-44V73c-15.193 0-29.762-6.104-40.506-16.972L85.5 53l-2.994 3.028C71.762 66.896 57.194 73 42 73" fill="#F9E0A6"/><path d="M125 80h20c4.42 0 8 3.58 8 8v16c0 4.42-3.58 8-8 8h-20V80z" fill="#8C95A4"/><path d="M121 103.358c0 22.765-17.576 41.436-40 43.444 1.32.119 2.648.198 4 .198 24.3 0 44-19.54 44-43.642v-31.74c-2.696 0-5.36-.25-8-.618v32.358z" fill="#EABD8C"/><path d="M90 132h-8c-4.42 0-8-3.58-8-8s3.58-8 8-8h8c4.42 0 8 3.58 8 8s-3.58 8-8 8" fill="#8C95A4"/><mask id="b" fill="#fff"><use xlink:href="#a"/></mask><path d="M20.58 173.757a19.936 19.936 0 0 1 15.434-12.807l10.645-1.772 12.786 34.038L85.3 176.014l25.851 17.202 12.786-34.038 10.645 1.772a19.936 19.936 0 0 1 15.433 12.807l9.216 25.295h-19.076l-3.229-12.886-7.718 1.928 2.747 10.958h-93.31l2.743-10.955-7.719-1.927-3.224 12.882H11.369l9.211-25.295zm72.681-50.202a3.981 3.981 0 0 1-3.98 3.973h-7.962a3.981 3.981 0 0 1-3.98-3.973 3.981 3.981 0 0 1 3.98-3.974h7.962a3.981 3.981 0 0 1 3.98 3.974zm-47.769-19.868V75.744c14.972-.945 28.913-7.216 39.605-17.893l.203-.202.203.202c10.696 10.681 24.633 16.952 39.604 17.898v27.938c0 5.65-1.206 11.023-3.347 15.894h-21.274c-1.647-4.613-6.026-7.947-11.21-7.947h-7.96c-6.585 0-11.943 5.348-11.943 11.92 0 6.573 5.358 11.921 11.942 11.921h7.962c5.183 0 9.562-3.334 11.21-7.947h16.58c-7.273 9.628-18.79 15.894-31.771 15.894-21.946 0-39.804-17.825-39.804-39.735zm-7.961-35.762v7.947h-7.962V63.95c0-30.676 25-55.63 55.731-55.63 30.732 0 55.73 24.954 55.73 55.63v11.92h-7.96v-7.946h-3.982c-14.342 0-27.821-5.576-37.956-15.696L85.3 46.41l-5.832 5.818c-10.135 10.12-23.614 15.696-37.957 15.696h-3.98zM25.588 107.66a3.981 3.981 0 0 1-3.98-3.973V87.792a3.98 3.98 0 0 1 3.98-3.973h11.943v19.868c0 1.343.091 2.658.203 3.973H25.588zm123.404-3.973a3.981 3.981 0 0 1-3.98 3.973V95.74h-7.962v11.92h-4.184c.112-1.315.203-2.63.203-3.973V83.819h11.942a3.981 3.981 0 0 1 3.981 3.973v15.895zM133.07 119.58h-2.786a47.83 47.83 0 0 0 1.214-3.974h5.553a3.981 3.981 0 0 1-3.98 3.974zm-32.351 35.734l15.214 2.532-8.718 23.202-16.397-10.912 9.9-14.822zM76.22 150.48a47.84 47.84 0 0 0 9.08.89c3.105 0 6.134-.322 9.08-.89l-9.08 13.593-9.08-13.593zm3.559 19.657l-16.397 10.912-8.718-23.202 15.214-2.532 9.9 14.822zm77.72.902c-3.431-9.417-11.708-16.284-21.607-17.929l-32.328-5.38c9.72-4.03 17.802-11.194 23.04-20.202h6.465c6.584 0 11.942-5.348 11.942-11.92 6.584 0 11.943-5.349 11.943-11.921V87.792c0-5.173-3.34-9.544-7.962-11.19v-12.65C148.992 28.896 120.418.373 85.3.373c-35.119 0-63.692 28.523-63.692 63.578v12.652c-4.622 1.645-7.962 6.016-7.962 11.19v15.894c0 6.572 5.358 11.92 11.942 11.92h13.515c3.774 14.552 14.228 26.44 27.933 32.123l-32.328 5.38a27.902 27.902 0 0 0-21.607 17.929L0 207h170.596l-13.097-35.96z" fill="#000" mask="url(#b)"/><path d="M61 84a4 4 0 1 1 0 8 4 4 0 0 1 0-8m48 0a4 4 0 1 1 0 8 4 4 0 0 1 0-8" fill="#000"/></g></svg>