<svg xmlns="http://www.w3.org/2000/svg" viewBox="0 0 512.001 512.001"><circle cx="162.59" cy="99.811" r="89.7" fill="#deaf73"/><path d="M381.296 378.476l-13.3-3.112H156.153l-13.301 3.112c-33.865 7.924-57.815 38.125-57.815 72.905v53.052h354.074v-53.052c0-34.78-23.95-64.981-57.815-72.905z" fill="#ff80bd"/><path d="M262.074 440.332c46.234 0 86.273-26.419 105.921-64.968l-28.015-6.555c-18.553-4.341-31.675-20.887-31.675-39.942v-46.834h-92.464v46.834c0 19.055-13.121 35.6-31.675 39.942l-28.015 6.555c19.65 38.549 59.688 64.968 105.923 64.968z" fill="#fad7a5"/><path d="M308.306 328.868v-46.834h-92.463v46.834c0 1.422-.082 2.827-.225 4.217 13.419 6.681 28.537 10.458 44.546 10.458 17.483 0 33.912-4.492 48.215-12.369a40.123 40.123 0 0 1-.073-2.306z" fill="#f0c891"/><path d="M260.163 320.992c-55.288 0-100.107-44.82-100.107-100.107v-81.842c0-55.288 44.82-100.107 100.107-100.107 55.288 0 100.107 44.82 100.107 100.107v81.842c0 55.288-44.819 100.107-100.107 100.107z" fill="#ffe1b3"/><path d="M276.804 40.338c26.419 18.022 43.768 48.356 43.768 82.749v81.842c0 55.288-44.819 100.107-100.107 100.107-5.673 0-11.226-.496-16.641-1.403 16.05 10.949 35.444 17.358 56.339 17.358 55.288 0 100.107-44.819 100.107-100.107v-81.842c0-49.615-36.103-90.775-83.466-98.704z" fill="#fad7a5"/><g fill="#cd905a"><path d="M138.15 131.291h21.902v38.719H138.15z"/><path d="M156.055 71.37a118.057 118.057 0 0 0-15.449 38.493 117.937 117.937 0 0 0-1.748 36.793c12.18-3.006 21.685-7.309 28.27-10.848 2.599-1.397 15.445-8.426 28.844-21.407l.001-.001-39.918-43.03z"/></g><path d="M387.722 128.02c-8.525-31.58-22.68-61.65-45.705-83.922-7.463-7.219-35.509-34.348-77.018-36.492 0 0-43.314-2.238-80.715 29.588-5.642 4.801-10.786 10.112-15.476 15.839s-8.926 11.871-12.754 18.337c34.812 49.807 87.037 81.481 145.431 81.481 14.38 0 44.426-4.386 58.784-13.808l27.453-11.023z" fill="#d59f63"/><path d="M342.017 44.098c-7.463-7.219-35.509-34.348-77.018-36.492 0 0-10.501-.533-25.615 2.71 31.226 7.507 52.11 27.703 58.395 33.783 23.025 22.272 37.18 52.342 45.705 83.922l-27.452 11.022c-9.115 5.982-24.552 9.931-38.291 12.019a159.915 159.915 0 0 0 23.745 1.789c14.38 0 44.426-4.386 58.784-13.808l27.452-11.022c-8.525-31.581-22.68-61.651-45.705-83.923z" fill="#cd905a"/><path d="M381.467 237.427H360.27v-90.771h21.197c10.081 0 18.254 8.173 18.254 18.254v54.263c0 10.081-8.172 18.254-18.254 18.254z" fill="#53515e"/><path fill="#474756" d="M360.27 146.661h16.848v90.77H360.27z"/><path d="M138.858 146.656h21.197v90.771h-21.197c-10.081 0-18.254-8.173-18.254-18.254V164.91c0-10.081 8.173-18.254 18.254-18.254z" fill="#53515e"/><path fill="#474756" d="M144.42 146.661h15.637v90.77H144.42z"/><path d="M108.018 414.864H94.572a73.947 73.947 0 0 0-9.535 36.362v53.207h66.547v-46.004c-.001-24.06-19.505-43.565-43.566-43.565zm308.112 0h13.446a73.947 73.947 0 0 1 9.535 36.362v53.207h-66.547v-46.004c0-24.06 19.505-43.565 43.566-43.565z" fill="#ff5ca6"/><path d="M383.016 371.103l-41.315-9.667c-15.209-3.559-25.83-16.953-25.83-32.572v-15.871a108.507 108.507 0 0 0 29.49-26.354h.597c22.939 0 41.601-18.662 41.601-41.602 0-.26-.013-.517-.039-.77 11.324-2.733 19.765-12.945 19.765-25.097v-54.263c0-14.238-11.584-25.821-25.822-25.821h-13.63v-.046a7.568 7.568 0 0 0-7.568-7.568 7.52 7.52 0 0 0-3.992 1.147c-.054.034-.105.057-.16.093-12.33 8.092-40.129 12.567-54.631 12.567-36.12 0-70.89-12.898-100.363-36.458l-35.595-38.37c3.428-5.327 7.099-10.295 10.961-14.799a7.567 7.567 0 0 0-.817-10.671 7.567 7.567 0 0 0-10.672.817c-5.56 6.483-10.753 13.778-15.435 21.683-7.852 12.609-13.359 26.349-16.366 40.844a125.095 125.095 0 0 0-2.413 32.062c-10.294 3.399-17.746 13.103-17.746 24.521v.402a81.982 81.982 0 0 1-32.575-65.503c0-45.286 36.844-82.13 82.13-82.13a82.365 82.365 0 0 1 28.32 5.027 128.56 128.56 0 0 0-5.573 3.952 7.569 7.569 0 0 0 9.109 12.088c33.201-25.017 69.806-23.599 70.159-23.58 25.663 1.325 49.935 12.89 72.146 34.373 19.704 19.06 34.393 46.129 43.66 80.454a7.57 7.57 0 0 0 7.302 5.597 7.568 7.568 0 0 0 7.312-9.542c-9.99-37.001-26.054-66.402-47.75-87.389C322.36 14.558 294.809 1.568 265.387.048c-1.381-.07-28.1-1.213-58.207 13.308a97.346 97.346 0 0 0-44.589-10.815c-53.633 0-97.266 43.633-97.266 97.265 0 34.549 18.171 66.2 47.711 83.698v35.666c0 14.238 11.583 25.821 25.821 25.821h16.353c6.937 30.21 26.621 55.605 53.062 70.21v13.662c0 15.62-10.621 29.014-25.83 32.572l-41.315 9.667c-37.48 8.77-63.658 41.779-63.658 80.272v53.058A7.568 7.568 0 0 0 85.037 512h354.07a7.568 7.568 0 0 0 7.568-7.568v-53.059c-.001-38.491-26.178-71.5-63.659-80.27zM259.413 264.73c-13.859 0-26.889-5.397-36.688-15.197a7.5 7.5 0 0 1 0-10.606 7.5 7.5 0 0 1 10.607 0c6.966 6.967 16.229 10.803 26.081 10.803s19.115-3.836 26.081-10.803a7.5 7.5 0 0 1 10.607 10.606c-9.799 9.8-22.829 15.197-36.688 15.197zm96.843 4.688a106.83 106.83 0 0 0 8.854-24.426h7.316l-.002.046c0 10.942-6.675 20.355-16.168 24.38zm25.207-115.196c5.893 0 10.686 4.794 10.686 10.686v54.263c0 5.892-4.794 10.686-10.686 10.686h-13.63v-75.634h13.63v-.001zM148.015 111.4a109.813 109.813 0 0 1 8.945-26.069c8.456 10.852 17.677 20.632 27.515 29.284-9.261 7.881-17.426 12.642-20.931 14.525a110.538 110.538 0 0 1-4.914 2.471 7.517 7.517 0 0 0-3.236 1.476 113.265 113.265 0 0 1-9.632 3.702c-.236-8.52.518-17.027 2.253-25.389zm4.472 118.456h-13.63c-5.892 0-10.685-4.794-10.685-10.686v-54.263c0-5.892 4.794-10.686 10.685-10.686h13.63v75.635zm15.135-8.974v-76.814c1.036-.52 2.067-1.048 3.086-1.596 4.232-2.274 14.458-8.234 25.691-18.162 31.101 23.36 67.373 36.106 105.084 36.106 12.722 0 34.782-2.977 51.215-9.268v69.734c0 18.672-5.564 36.066-15.113 50.622h-67.07c-4.18 0-7.568 3.388-7.568 7.568s3.388 7.568 7.568 7.568h54.686c-16.727 16.547-39.71 26.781-65.042 26.781-51.025-.001-92.537-41.513-92.537-92.539zm263.917 275.984H92.604v-45.49c0-31.426 21.372-58.376 51.971-65.535l7.678-1.797a126.577 126.577 0 0 0 22.637 28.942 7.541 7.541 0 0 0 5.221 2.091 7.569 7.569 0 0 0 5.224-13.045 111.555 111.555 0 0 1-17.62-21.606l18.176-4.253c22.089-5.169 37.517-24.623 37.517-47.309v-6.771c11.474 4.18 23.852 6.463 36.753 6.463 14.348 0 28.045-2.828 40.574-7.944v8.252c0 22.687 15.428 42.141 37.517 47.309l18.173 4.252c-20.267 32.505-55.585 52.334-94.354 52.334-18.283 0-36.405-4.531-52.41-13.102a7.568 7.568 0 0 0-7.146 13.342c18.195 9.745 38.788 14.896 59.556 14.896 45.772 0 87.308-24.321 109.814-63.852l7.682 1.798c30.6 7.16 51.971 34.108 51.971 65.535v45.49h.001z"/><circle cx="220.46" cy="178.101" r="7.5"/><circle cx="295.91" cy="178.101" r="7.5"/><path d="M151.583 512.001a7.568 7.568 0 0 1-7.568-7.568v-24.714a7.568 7.568 0 0 1 15.136 0v24.714a7.568 7.568 0 0 1-7.568 7.568zm220.982 0a7.568 7.568 0 0 1-7.568-7.568v-24.714a7.568 7.568 0 0 1 15.136 0v24.714a7.569 7.569 0 0 1-7.568 7.568z"/></svg>