<svg width="37" height="33" xmlns="http://www.w3.org/2000/svg"><path d="M16.987 7.8a.705.705 0 0 0-.525-.665L9.734 5.364h-.001l-2.534-.668a.706.706 0 0 0-.78.311 20.451 20.451 0 0 0-2.308 5.289c-.827 3.03-.686 5.63.405 7.519a5.392 5.392 0 0 0 2.704 2.35L4.626 29.68l-3.74-.985a.706.706 0 0 0-.36 1.363l4.412 1.162 4.422 1.164a.706.706 0 0 0 .36-1.362l-3.73-.982 2.594-9.513c.254.035.509.053.761.053 3.146 0 5.745-2.64 6.95-7.064.496-1.816.735-3.793.692-5.715zm-2.053 5.346c-1.029 3.773-3.118 6.025-5.589 6.025-.36 0-.726-.048-1.09-.144a4.034 4.034 0 0 1-2.517-1.917c-.663-1.148-.887-2.662-.667-4.446.942.153 1.831.212 2.674.212 1.388 0 2.652-.156 3.827-.301 1.326-.164 2.502-.31 3.548-.178a17.45 17.45 0 0 1-.186.749zm.444-2.136c-1.251-.17-2.583-.006-3.98.166-1.785.221-3.787.468-6.08.101.047-.2.098-.405.154-.611a18.984 18.984 0 0 1 1.88-4.472l1.122.295c-.204.39-.391.793-.537 1.12a.704.704 0 1 0 1.289.573c.228-.51.451-.965.65-1.324l5.705 1.503a19.152 19.152 0 0 1-.203 2.65zm15.808 20.21l-4.387 1.155 4.387-1.155zm-4.332 1.155l-.09.024.09-.024zm9.246-3.178a.706.706 0 0 0-.862-.502l-3.74.985-2.594-9.514a5.391 5.391 0 0 0 2.703-2.351c1.092-1.889 1.232-4.489.406-7.52a20.454 20.454 0 0 0-2.308-5.288.706.706 0 0 0-.78-.311l-9.263 2.44a.705.705 0 0 0-.525.665 20.405 20.405 0 0 0 .691 5.715c1.206 4.423 3.804 7.064 6.95 7.064h.001c.252 0 .507-.018.76-.053l2.594 9.513-3.73.982a.704.704 0 1 0 .36 1.362l4.422-1.164 4.413-1.162a.705.705 0 0 0 .502-.861zM20.543 8.36l8.228-2.166a18.98 18.98 0 0 1 1.88 4.472c.121.442.219.872.294 1.29a9.484 9.484 0 0 0-1.312-.032 19.872 19.872 0 0 0-.282-1.47.706.706 0 0 0-1.376.312c.107.47.19.903.248 1.275-.32.036-.642.077-.969.119-1.831.233-3.894.495-6.288.069a19.059 19.059 0 0 1-.423-3.869zm6.236 10.811c-2.344 0-4.344-2.027-5.421-5.455.786.108 1.535.151 2.248.151 1.392 0 2.654-.16 3.827-.31 1.383-.176 2.602-.331 3.686-.161.082 1.468-.163 2.727-.734 3.714a4.034 4.034 0 0 1-2.517 1.917c-.363.096-.73.144-1.089.144zM18.062 0a.705.705 0 0 0-.706.705v1.837a.705.705 0 0 0 1.411 0V.705A.705.705 0 0 0 18.062 0zm-2.284 3.455l-.935-1.591a.706.706 0 0 0-1.217.713l.935 1.591a.705.705 0 0 0 1.217-.713zm6.469-1.842a.706.706 0 0 0-.966.25l-.935 1.592a.704.704 0 0 0 .608 1.061.706.706 0 0 0 .61-.348l.934-1.591a.704.704 0 0 0-.251-.964z"/><path d="M28.826 8.506l-.001-.004a.706.706 0 0 0-1.35.413l.005.015a.706.706 0 0 0 1.346-.424z"/><ellipse cx="7.761" cy="9.722" rx="1" ry="1"/></svg>