<svg width="316" height="253" xmlns="http://www.w3.org/2000/svg"><path d="M107.768 44.398v-2.185h-2.185v-1.56h2.185V38.47h1.56v2.184h2.184v1.559h-2.185v2.185h-1.559zM34.771 65.914V63.73h-2.186v-1.558h2.186v-2.185h1.558v2.185h2.184v1.558H36.33v2.185h-1.558zM22.36 92.746V90.56h-2.186v-1.559h2.186v-2.184h1.558v2.184h2.184v1.56H23.92v2.184h-1.558zm122.8-86.262V4.299h-2.185V2.74h2.185V.556h1.559V2.74h2.184V4.3h-2.184v2.184h-1.559zm89.149 28.715v-2.185h-2.185v-1.559h2.185V29.27h1.559v2.185h2.185v1.559h-2.185v2.185h-1.559zm65.779 80.55v-2.185h-2.186v-1.559h2.186v-2.184h1.559v2.184h2.184v1.56h-2.184v2.185h-1.56zm-8.828 81.764v-2.186h-2.185v-1.56h2.185v-2.184h1.559v2.185h2.185v1.559h-2.185v2.186h-1.56zM273.269 63.999v-2.185h-2.184v-1.558h2.184V58.07h1.559v2.185h2.184v1.558h-2.184V64h-1.56zM11.714 178.63h2.184v-2.183h1.56v2.184h2.184v1.559h-2.185v2.184h-1.559v-2.184h-2.184v-1.56zM72.12 95.895a4.94 4.94 0 0 0-4.935-4.934v-1.559a4.94 4.94 0 0 0 4.935-4.934h1.559a4.94 4.94 0 0 0 4.933 4.934v1.56a4.94 4.94 0 0 0-4.933 4.933h-1.56zm-66.9 54.927a4.94 4.94 0 0 0-4.935-4.934v-1.56a4.94 4.94 0 0 0 4.935-4.933h1.56a4.939 4.939 0 0 0 4.933 4.934v1.559a4.94 4.94 0 0 0-4.933 4.934H5.22zM188.796 14.947a4.94 4.94 0 0 0-4.936-4.934V8.454a4.94 4.94 0 0 0 4.936-4.934h1.558a4.94 4.94 0 0 0 4.934 4.934v1.56a4.94 4.94 0 0 0-4.934 4.933h-1.558zM76.21 32.762a4.94 4.94 0 0 0-4.935-4.934V26.27a4.941 4.941 0 0 0 4.935-4.935h1.559a4.94 4.94 0 0 0 4.934 4.935v1.558a4.94 4.94 0 0 0-4.934 4.934h-1.56zm174.796 59.199a4.94 4.94 0 0 0-4.934-4.934v-1.559a4.94 4.94 0 0 0 4.934-4.934h1.559a4.94 4.94 0 0 0 4.933 4.934v1.56a4.94 4.94 0 0 0-4.933 4.933h-1.56zm52.825 78.95v-1.56a4.94 4.94 0 0 0 4.934-4.933h1.559a4.94 4.94 0 0 0 4.934 4.934v1.558a4.94 4.94 0 0 0-4.934 4.934h-1.559a4.94 4.94 0 0 0-4.934-4.934zm-272.57 81.577V126.243c0-.43.349-.78.78-.78h2.728v-12.781a.78.78 0 0 1 .775-.779c.382-5.311 4.63-9.56 9.942-9.943v-5.95a.779.779 0 1 1 1.559 0v5.95c5.311.384 9.56 4.632 9.941 9.943a.78.78 0 0 1 .776.779v12.782h2.728c.43 0 .78.349.78.78v20.504c.052.3.052.92 0 1.858.054.305.054 9.423 0 27.353.052.3.052 1.331 0 3.092.052.3.052 24.779 0 73.437h8.93c-.723-4.153-3.383-69.5-1.01-90.172 1.256-10.93 4.087-23.896 10.068-36.463 6.154-12.735 15.09-24.578 28.51-33.755V72.043a.78.78 0 0 1 1.558 0v180.445h10.116V113.565h-2.388a.78.78 0 0 1-.78-.78V88.929c0-.43.35-.78.78-.78h2.388v-1.533a.78.78 0 0 1 .78-.78h2.922V53.528a.77.77 0 0 1 .578-.738v-7.128c0-5.335 4.137-9.71 9.37-10.111v-7.935a.78.78 0 0 1 1.56 0v7.935c5.232.4 9.37 4.776 9.37 10.11v7.13c.33.09.578.379.578.737v32.307h2.923c.43 0 .78.349.78.78v1.534h2.387a.78.78 0 0 1 .779.78v23.857a.78.78 0 0 1-.78.779h-2.387v138.923h3.885c4.202-10.718 6.303-116.794 6.345-117.977-.617-6.69-1.054-12.257-1.182-15.71-.494-13.33-.22-57.888-.075-77.199.042-5.431.073-8.865.075-9.044-.03-.066-.056-2.193-.075-6.381a.78.78 0 1 1 1.559 0v1.839l10.642-4.962V20.99a.78.78 0 1 1 1.559 0v2.144c3.475 2.028 19.337 11.283 23.655 13.711v-.896a.78.78 0 1 1 1.56 0v6.058a222.914 222.914 0 0 1-.136 6.811c-1.223 35.627-10.375 95.774-10.802 98.565 1.145 13.117 2.33 28.236 3.274 40.696h3.691c.431 0 .78.35.78.78v4.095h5.604c.43 0 .78.348.78.78v2.729h6.24a.78.78 0 0 1 .78.78v55.244h1.426V86.744l-6.017-11.78a.78.78 0 0 1 .693-1.135h9.057l2.403-5.245a.78.78 0 0 1 .709-.455h2.488v-2.864a.78.78 0 0 1 .78-.78h6.32a.78.78 0 0 1 .779.78v2.864h2.488a.78.78 0 0 1 .709.455l2.403 5.245h9.055a.782.782 0 0 1 .702 1.12l-6.024 12.438v165.1h4.542V119.26c0-.43.348-.78.78-.78h4.091v-5.215c0-.43.35-.78.78-.78h2.972v-2.055c0-.43.348-.779.78-.779h21.969c.43 0 .78.35.78.78v2.055h2.922a.78.78 0 0 1 .78.78v5.214h4.092c.43 0 .779.35.779.78v133.229H31.262z" fill="#FFF" fill-rule="evenodd"/></svg>