<svg width="68" height="68" xmlns="http://www.w3.org/2000/svg"><g transform="translate(1 1)" fill="none" fill-rule="evenodd"><circle stroke="#000" cx="33" cy="33" r="33"/><g fill-rule="nonzero"><path d="M49.784 21.84h-9.405l-.809-3.22a2.6 2.6 0 0 0-2.528-1.963h-7.084a2.6 2.6 0 0 0-2.528 1.963l-.81 3.22h-9.404a2.598 2.598 0 0 0-2.605 2.59v23.322a2.598 2.598 0 0 0 2.605 2.591h32.568a2.598 2.598 0 0 0 2.605-2.591V24.43a2.598 2.598 0 0 0-2.605-2.592zm-20.478 0l.652-2.592h7.084l.652 2.591h-8.388z" fill="#694646"/><path d="M49.784 21.84H17.216a2.598 2.598 0 0 0-2.605 2.59v3.555l2.614 7.802a5.202 5.202 0 0 0 4.944 3.543H44.83a5.202 5.202 0 0 0 4.944-3.543l2.614-7.802v-3.554a2.598 2.598 0 0 0-2.605-2.592z" fill="#643C3E"/><path d="M15.017 23.052l4.062 12.12a3.255 3.255 0 0 0 3.09 2.215H44.83a3.255 3.255 0 0 0 3.09-2.215l4.062-12.12a2.6 2.6 0 0 0-2.2-1.213H17.217a2.6 2.6 0 0 0-2.199 1.213z" fill="#735050"/><path d="M34.803 41.274h-2.606a.65.65 0 0 1-.651-.648v-5.183a.65.65 0 0 1 .651-.647h2.606c.36 0 .651.29.651.647v5.183a.65.65 0 0 1-.651.648z" fill="#FFB95A"/><path d="M35.454 38.683h-3.908v-3.24a.65.65 0 0 1 .651-.647h2.606c.36 0 .651.29.651.647v3.24z" fill="#FFD26E"/><path d="M49.784 21.232h-8.928l-.693-2.76a3.209 3.209 0 0 0-3.12-2.422h-7.085a3.209 3.209 0 0 0-3.12 2.423l-.694 2.76h-8.928A3.208 3.208 0 0 0 14 24.43v23.32c0 1.765 1.443 3.2 3.216 3.2h32.568A3.212 3.212 0 0 0 53 47.75V24.43c0-1.764-1.443-3.199-3.216-3.199zm-21.762-2.465a1.99 1.99 0 0 1 1.936-1.503h7.084a1.99 1.99 0 0 1 1.936 1.503l.62 2.465H38.17l-.536-2.131a.61.61 0 0 0-.593-.46h-7.084a.61.61 0 0 0-.593.46l-.535 2.131h-1.427l.62-2.465zm8.89 2.465h-6.824l.346-1.377h6.132l.346 1.377zm-19.696 1.215h32.568c.61 0 1.156.273 1.522.704L47.341 34.98a2.642 2.642 0 0 1-2.51 1.8h-8.766v-1.337a1.26 1.26 0 0 0-1.262-1.255h-2.606a1.26 1.26 0 0 0-1.262 1.255v1.337H22.17c-1.14 0-2.15-.724-2.51-1.8l-3.965-11.83c.366-.43.912-.703 1.522-.703zm17.627 15.628h-2.686v-2.632a.04.04 0 0 1 .04-.04h2.606a.04.04 0 0 1 .04.04v2.632zm-2.686 1.215h2.686v1.336a.04.04 0 0 1-.04.04h-2.606a.04.04 0 0 1-.04-.04V39.29zm17.627 10.446H17.216c-1.1 0-1.995-.89-1.995-1.984v-22.17l3.279 9.782a3.86 3.86 0 0 0 3.669 2.63h8.766v2.632a1.26 1.26 0 0 0 1.262 1.255h2.606a1.26 1.26 0 0 0 1.262-1.255v-2.632h8.766a3.86 3.86 0 0 0 3.67-2.63l3.278-9.782v22.17a1.992 1.992 0 0 1-1.995 1.984z" fill="#000"/></g></g></svg>