<svg width="67" height="67" xmlns="http://www.w3.org/2000/svg"><g fill="none"><path d="M33.5 1C51.012 1 66 15.988 66 33.5S51.012 66 33.5 66 1 51.012 1 33.5 15.988 1 33.5 1z" fill="#ED5151"/><path fill="#E3F2FF" d="M49 28.333v10.334H38.667V49H28.333V38.667H18V28.333h10.333V18h10.334v10.333z"/><path d="M16 13a1 1 0 1 0 0-2 1 1 0 0 0 0 2z" fill="#000"/><path d="M33.5 0C15.444 0 0 15.415 0 33.5 0 51.56 15.417 67 33.5 67 51.556 67 67 51.585 67 33.5 67 15.44 51.583 0 33.5 0zm0 64.383C16.76 64.383 2.617 50.24 2.617 33.5S16.76 2.617 33.5 2.617 64.383 16.76 64.383 33.5 50.24 64.383 33.5 64.383z" fill="#000"/><path d="M33 5c-4.215 0-8.674.973-12.234 2.669a1.315 1.315 0 0 0 1.131 2.373C25.116 8.51 29.163 7.63 33 7.63c13.752 0 25.37 11.618 25.37 25.37S46.752 58.37 33 58.37 7.63 46.753 7.63 33c0-6.282 2.304-12.473 6.322-16.987a1.314 1.314 0 1 0-1.964-1.748C7.548 19.254 5 26.082 5 33c0 15.213 12.765 28 28 28 15.213 0 28-12.765 28-28C61 17.787 48.235 5 33 5z" fill="#000"/><path d="M38.23 16H27.77c-.723 0-1.308.586-1.308 1.308v9.154h-9.154c-.722 0-1.308.585-1.308 1.307v10.462c0 .722.586 1.307 1.308 1.307h9.154v9.154c0 .722.585 1.308 1.307 1.308h10.462c.722 0 1.307-.586 1.307-1.308v-9.154h9.154c.722 0 1.308-.585 1.308-1.307V27.769c0-.722-.586-1.307-1.308-1.307h-9.154v-9.154c0-.722-.585-1.308-1.307-1.308zm9.155 13.077v7.846H38.23c-.722 0-1.308.586-1.308 1.308v9.154h-7.846V38.23c0-.722-.586-1.308-1.308-1.308h-9.154v-7.846h9.154c.722 0 1.308-.586 1.308-1.308v-9.154h7.846v9.154c0 .722.586 1.308 1.308 1.308h9.154z" fill="#000"/></g></svg>