<svg width="68" height="68" xmlns="http://www.w3.org/2000/svg"><g transform="translate(1 1)" fill="none" fill-rule="evenodd"><circle stroke="#000" cx="33" cy="33" r="33"/><g fill="#000"><path d="M27.926 28.818c.09 2.229.55 4.445 1.35 6.01a7.348 7.348 0 0 1-4.557-6.01h3.207zm1.35-7.645c-.8 1.564-1.26 3.78-1.35 6.009h-3.207a7.348 7.348 0 0 1 4.557-6.01zm5.146 7.645c-.166 4.01-1.485 6.546-2.422 6.546s-2.256-2.535-2.422-6.546h4.844zM32 20.636c.937 0 2.256 2.535 2.422 6.546h-4.844c.166-4.01 1.485-6.546 2.422-6.546zm4.074 8.182h3.207a7.348 7.348 0 0 1-4.557 6.01c.8-1.565 1.26-3.781 1.35-6.01zm3.207-1.636h-3.207c-.09-2.229-.55-4.445-1.35-6.01a7.348 7.348 0 0 1 4.557 6.01zM32 37c4.963 0 9-4.037 9-9s-4.037-9-9-9-9 4.037-9 9 4.037 9 9 9zm-4.167 7h8.334c.46 0 .833-.447.833-1 0-.553-.373-1-.833-1h-8.334c-.46 0-.833.447-.833 1 0 .553.373 1 .833 1m21.744-2.772l-5.244 4.894-1.91-1.783a.876.876 0 0 0-1.179 0 .741.741 0 0 0 0 1.1l2.5 2.333a.862.862 0 0 0 .59.228.862.862 0 0 0 .589-.228l5.833-5.444a.741.741 0 0 0 0-1.1.876.876 0 0 0-1.179 0"/><path d="M46 51.375c-4.06 0-7.364-3.28-7.364-7.312 0-4.033 3.304-7.313 7.364-7.313 4.06 0 7.364 3.28 7.364 7.313 0 4.032-3.303 7.312-7.364 7.312m-9-7.312c0 .845.127 1.66.349 2.437H22.273c-.902 0-1.637-.73-1.637-1.625V17.25c0-.896.735-1.625 1.637-1.625h19.636c.902 0 1.636.73 1.636 1.625v18.221a9.025 9.025 0 0 0-4.482 2.904H24.727a.815.815 0 0 0-.818.813c0 .449.366.812.818.812h13.267A8.823 8.823 0 0 0 37 44.063m9-8.938c-.276 0-.548.017-.818.041V17.25c0-1.792-1.468-3.25-3.273-3.25H22.273C20.468 14 19 15.458 19 17.25v27.625c0 1.792 1.468 3.25 3.273 3.25h15.72A9.01 9.01 0 0 0 46 53c4.963 0 9-4.01 9-8.937 0-4.929-4.037-8.938-9-8.938"/></g></g></svg>