<svg width="136" height="136" xmlns="http://www.w3.org/2000/svg"><g fill="none" fill-rule="evenodd"><circle fill="#FFF" cx="68" cy="68" r="68"/><path d="M83.652 74.161a.736.736 0 0 0-.738.734v10.347c0 .406.33.734.738.734a.736.736 0 0 0 .737-.734V74.895a.736.736 0 0 0-.737-.734zm14.873 27.314c0 6.097-4.985 11.057-11.112 11.057H79.89c-6.127 0-11.112-4.96-11.112-11.057V77.94c0-6.096 4.985-11.056 11.112-11.056h7.523c6.127 0 11.112 4.96 11.112 11.056v23.536zM67.303 78.984l-11.895 5.78a.732.732 0 0 0-.339.981.737.737 0 0 0 .987.338l11.247-5.466v6.148l-14.462 7.03-22.11-45.043L59.37 34.836a.974.974 0 0 1 1.3.445L75.8 66.107c-4.935 1.695-8.496 6.352-8.496 11.832v1.045zM50.13 95.11a.978.978 0 0 1-1.3-.444L27.573 51.362a.955.955 0 0 1-.044-.737.962.962 0 0 1 .49-.556l1.386-.673 22.11 45.042-1.386.673zm37.283-29.696h-3.024v-42.68a.736.736 0 0 0-.737-.734.736.736 0 0 0-.738.734v42.681H79.89c-.91 0-1.794.102-2.649.285L61.993 34.636a2.455 2.455 0 0 0-3.272-1.119L27.373 48.75a2.424 2.424 0 0 0-1.238 1.398 2.408 2.408 0 0 0 .113 1.859L47.504 95.31a2.45 2.45 0 0 0 3.274 1.119l16.525-8.03v13.075c0 6.907 5.646 12.525 12.587 12.525h7.523c6.94 0 12.587-5.618 12.587-12.525V77.94c0-6.906-5.646-12.524-12.587-12.524zM65.739 76.59l-11.58 5.627a.732.732 0 0 0-.34.982.737.737 0 0 0 .986.337l11.582-5.627a.733.733 0 0 0 .34-.982.738.738 0 0 0-.988-.337zM43.425 47l1.024-.497a.732.732 0 0 0 .34-.982.738.738 0 0 0-.988-.337l-1.024.497a.732.732 0 0 0 .325 1.394.73.73 0 0 0 .323-.075zm-2.695-.323l-6.486 3.151a.733.733 0 0 0 .325 1.394.74.74 0 0 0 .323-.075l6.485-3.151a.732.732 0 0 0 .339-.982.738.738 0 0 0-.986-.337zm25.902 20.195a12.925 12.925 0 0 0-3.057-.48c-.33-1.627-.9-3.334-1.672-5.025l4.383-2.13a11.233 11.233 0 0 1 .346 7.635zm-2.924 4.783c.142-.671.22-1.41.21-2.23a14.638 14.638 0 0 0-.11-1.546 11.49 11.49 0 0 1 2.309.37 11.319 11.319 0 0 1-2.41 3.406zm-2.953 2.078c-1.352.657-3.536-.234-5.714-2.457a11.408 11.408 0 0 1 3.142-2.268 11.426 11.426 0 0 1 4.143-1.117c.068.531.112 1.053.117 1.55.025 2.195-.59 3.758-1.688 4.292zm-7.929.755c.345-.75.758-1.46 1.249-2.11 1.059 1.063 2.151 1.879 3.215 2.395a11.462 11.462 0 0 1-4.464-.285zm-1.4-.472a11.315 11.315 0 0 1-5.561-4.854l4.38-2.13c.849 1.614 1.812 3.045 2.83 4.249a12.77 12.77 0 0 0-1.649 2.735zm-6.585-13.704c1.021.266 2.06.404 3.096.416.325 1.583.881 3.271 1.664 4.984l-4.384 2.13a11.237 11.237 0 0 1-.376-7.53zm2.96-4.894c-.238 1.112-.274 2.414-.104 3.84a11.418 11.418 0 0 1-2.35-.334c.581-1.3 1.41-2.491 2.455-3.506zm2.947-2.07c.292-.143.623-.212.983-.212 1.287 0 2.958.891 4.633 2.57a11.383 11.383 0 0 1-3.278 2.403 11.42 11.42 0 0 1-3.92 1.093c-.384-3.003.25-5.208 1.582-5.855zm4.985-1.151c.932 0 1.853.12 2.749.341a11.35 11.35 0 0 1-1.178 2.043c-1.022-1.004-2.07-1.774-3.095-2.27a11.348 11.348 0 0 1 1.524-.114zm-4.807 12.871c-.71-1.554-1.204-3.042-1.504-4.409a12.85 12.85 0 0 0 7.932-3.864c.901 1.078 1.78 2.38 2.577 3.896l-9.005 4.377zm9.652-3.056c.68 1.495 1.19 2.997 1.5 4.43a12.92 12.92 0 0 0-4.543 1.248 12.837 12.837 0 0 0-3.473 2.487 22.37 22.37 0 0 1-2.488-3.79l9.004-4.375zm5.07-4.098l-4.394 2.135c-.876-1.668-1.872-3.143-2.928-4.37.629-.824 1.15-1.73 1.567-2.695a11.333 11.333 0 0 1 5.755 4.93zM50.1 52.028c-6.38 3.1-9.034 10.787-5.919 17.134a12.773 12.773 0 0 0 7.384 6.494c1.373.469 2.787.702 4.197.702a12.88 12.88 0 0 0 5.64-1.306 12.75 12.75 0 0 0 6.527-7.347 12.671 12.671 0 0 0-.607-9.787c-3.116-6.349-10.841-8.99-17.222-5.89z" fill="#000"/></g></svg>