<svg width="31" height="23" xmlns="http://www.w3.org/2000/svg"><path d="M26.454.047H3.684A3.688 3.688 0 0 0 0 3.732v15.562a3.688 3.688 0 0 0 3.685 3.684h22.763a3.688 3.688 0 0 0 3.685-3.684V3.738A3.684 3.684 0 0 0 26.454.047zm2.002 19.247a2.004 2.004 0 0 1-2.002 2.001H3.684a2.004 2.004 0 0 1-2-2.001V3.738c0-1.104.897-2.002 2-2.002h22.764c1.104 0 2.002.898 2.002 2.002v15.556h.006z"/><path d="M19.004 11.32l7.37-6.61a.846.846 0 0 0 .062-1.19.846.846 0 0 0-1.191-.063L15.082 12.58l-1.983-1.77c-.006-.007-.012-.013-.012-.02a1.247 1.247 0 0 0-.137-.118L4.882 3.45a.84.84 0 0 0-1.191.069.84.84 0 0 0 .069 1.19l7.456 6.665-7.425 6.952a.845.845 0 0 0 1.153 1.235l7.538-7.052 2.045 1.827a.841.841 0 0 0 1.122-.006l2.102-1.883 7.494 7.12c.162.156.374.23.58.23a.84.84 0 0 0 .58-1.452l-7.401-7.027z"/></svg>