<svg width="140" height="200" xmlns="http://www.w3.org/2000/svg" xmlns:xlink="http://www.w3.org/1999/xlink"><defs><path id="a" d="M0 0h139.731v200H0z"/></defs><g fill="none" fill-rule="evenodd"><path d="M90.09 5.94L93 24h-9.742l-2.91-18.06C80.085 4.241 78.664 2.994 77 3h9.742c1.663-.006 3.084 1.241 3.349 2.94m45.886 186.367a3.306 3.306 0 0 1-3.292 3.693h-9.577a3.308 3.308 0 0 0 3.292-3.693L107.91 31.85A9.994 9.994 0 0 0 98 23h9.578a9.994 9.994 0 0 1 9.91 8.85l18.49 160.457z" fill="#D84315"/><path d="M126.977 191.325a3.258 3.258 0 0 1-.825 2.575 3.365 3.365 0 0 1-2.504 1.1h-7.096c-1.711 0-3.147-1.271-3.329-2.946l-1.647-13.97c-.182-1.675-1.619-2.946-3.33-2.947H31.44c-1.711 0-3.147 1.272-3.329 2.947l-1.648 13.97c-.182 1.675-1.618 2.945-3.329 2.946H6.353a3.364 3.364 0 0 1-2.505-1.1 3.257 3.257 0 0 1-.825-2.574L21.721 31.668c.587-5.013 4.895-8.797 10.02-8.806h14.561l2.893-17.081C49.458 4.174 50.87 2.994 52.524 3h24.952c1.653-.006 3.065 1.174 3.329 2.78l2.892 17.082h14.561c5.126.008 9.433 3.793 10.021 8.806l18.698 159.657z" fill="#FF5722"/><path d="M104.25 130h-67.5a4.051 4.051 0 0 1-3.345-2.223 3.893 3.893 0 0 1 .288-3.947l33.75-52.123A3.564 3.564 0 0 1 70.5 70c1.256 0 2.418.65 3.057 1.707l33.75 52.123a3.892 3.892 0 0 1 .288 3.947A4.053 4.053 0 0 1 104.25 130" fill="#FFEB3A"/><mask id="b" fill="#fff"><use xlink:href="#a"/></mask><path d="M25.315 32.57c.39-3.365 3.25-5.904 6.65-5.904h14.477a3.342 3.342 0 0 0 3.3-2.784l2.882-17.216H87.11l2.88 17.216a3.342 3.342 0 0 0 3.301 2.784h14.478c3.4 0 6.26 2.539 6.648 5.904l18.623 160.763h-16.687l-1.627-14.092c-.385-3.367-3.246-5.91-6.649-5.908H31.656c-3.4-.002-6.262 2.54-6.648 5.905l-1.628 14.095H6.694L25.314 32.57zM6.694 200H23.38c3.401 0 6.262-2.54 6.65-5.905L31.656 180h76.42l1.628 14.095c.388 3.366 3.25 5.905 6.65 5.905h16.686a6.704 6.704 0 0 0 4.995-2.232 6.65 6.65 0 0 0 1.652-5.2l-18.62-160.763c-.779-6.728-6.498-11.806-13.298-11.805H96.127L93.712 5.571A6.662 6.662 0 0 0 87.11 0H52.623c-3.275-.01-6.072 2.35-6.6 5.57L43.606 20H31.965c-6.8 0-12.52 5.077-13.299 11.805L.044 192.57a6.652 6.652 0 0 0 1.654 5.2A6.705 6.705 0 0 0 6.694 200z" fill="#000" mask="url(#b)"/><path d="M35.794 125.242l33.03-52.383h.04c.092.001.31.003.312 0l33.03 52.383a.87.87 0 0 1 .017.869c-.016.032-.107.189-.194.189l-66.253-.19a.872.872 0 0 1 .018-.868M35.97 133h66.06a6.832 6.832 0 0 0 6.035-3.66 7.586 7.586 0 0 0-.228-7.684l-33.03-52.383A6.798 6.798 0 0 0 69 66a6.799 6.799 0 0 0-5.807 3.273l-33.03 52.383a7.585 7.585 0 0 0-.228 7.685A6.832 6.832 0 0 0 35.97 133m11.474-75h24.112C73.458 58 75 56.209 75 54s-1.542-4-3.444-4H47.444C45.542 50 44 51.79 44 54s1.542 4 3.444 4m29.284 85H47.273c-1.808 0-3.273 1.79-3.273 4 0 2.209 1.465 4 3.273 4h29.455c1.807 0 3.272-1.79 3.272-4 0-2.209-1.465-4-3.272-4m6.522-85h6.5c1.795 0 3.25-1.791 3.25-4 0-2.208-1.456-4-3.25-4h-6.5C81.455 50 80 51.79 80 54c0 2.209 1.455 4 3.25 4" fill="#000"/><path d="M70.5 107a3.5 3.5 0 0 0 3.5-3.5v-14a3.5 3.5 0 1 0-7 0v14a3.5 3.5 0 0 0 3.5 3.5m-3.222 12.52c.077.254.183.497.316.72l.42.6.525.478c.195.151.407.273.63.361.198.115.41.196.63.24.231.047.466.073.7.081a3.136 3.136 0 0 0 1.33-.32c.428-.195.82-.479 1.155-.84l.42-.6c.132-.223.238-.465.315-.72.1-.227.172-.47.21-.72A6.27 6.27 0 0 0 74 118a4.489 4.489 0 0 0-.28-1.521 4.758 4.758 0 0 0-.735-1.318 3.605 3.605 0 0 0-1.156-.843 2.977 2.977 0 0 0-2.03-.238c-.22.043-.432.124-.63.238a2.58 2.58 0 0 0-.63.362l-.524.48a4.222 4.222 0 0 0-.736 1.319A4.47 4.47 0 0 0 67 118c.006.268.03.534.07.799.037.25.108.493.208.72m25.442 25.953a3.2 3.2 0 0 0-.317-.718 42.839 42.839 0 0 0-.419-.601c-.846-.928-2.033-1.33-3.185-1.08-.22.042-.432.122-.63.238-.224.088-.434.21-.63.361-.176.16-.35.321-.524.481l-.42.6a3.267 3.267 0 0 0-.317.72c-.1.227-.17.47-.208.72a4.626 4.626 0 0 0 0 1.602c.037.251.108.494.208.721.077.256.184.499.316.722l.421.6.524.48a2.7 2.7 0 0 0 .63.362c.199.114.41.196.63.24.231.044.466.07.7.08.927-.016 1.814-.43 2.485-1.16.14-.203.28-.402.42-.601.132-.224.239-.466.315-.722.1-.228.172-.47.211-.721a4.626 4.626 0 0 0 0-1.602 2.9 2.9 0 0 0-.21-.722M63.5 21h14c1.933 0 3.5-1.791 3.5-4s-1.567-4-3.5-4h-14c-1.933 0-3.5 1.791-3.5 4s1.567 4 3.5 4" fill="#000"/></g></svg>