<svg width="189" height="196" xmlns="http://www.w3.org/2000/svg" xmlns:xlink="http://www.w3.org/1999/xlink"><defs><path id="a" d="M0 196h189V0H0z"/></defs><g fill="none" fill-rule="evenodd"><path d="M87.35 3c-4.028 0-7.73 2.69-8.816 6.753L42.312 144.67c-1.302 4.852 1.591 9.856 6.453 11.158l70.533 18.863c4.819 1.296 9.875-1.591 11.171-6.443l36.219-134.919c1.302-4.852-1.591-9.856-6.447-11.156L89.705 3.31A9.124 9.124 0 0 0 87.35 3" fill="#F5F9EC"/><path d="M153 83.666L106.354 37H71.141l-28.83 107.638c-1.3 4.857 1.59 9.866 6.445 11.17l70.437 18.882c4.813 1.297 9.862-1.593 11.157-6.45L153 83.666z" fill="#E4E8DB"/><path d="M63 68.421L150.972 92l15.717-58.67c1.299-4.853-1.588-9.858-6.433-11.158L89.865 3.31A9.08 9.08 0 0 0 87.518 3c-4.02 0-7.714 2.69-8.798 6.754L63 68.421z" fill="#DCC69F"/><path fill="#CDB994" d="M63 68.36L150.8 92l2.2-8.252L106.48 37H71.363z"/><path d="M54.504 158L95 4.89l-5.82-1.58A8.889 8.889 0 0 0 86.855 3c-3.984 0-7.646 2.7-8.72 6.78L42.308 145.221c-1.288 4.87 1.573 9.894 6.382 11.202L54.504 158z" fill="#EA672C"/><path d="M6.03 164A3.042 3.042 0 0 1 3 160.952V39.048A3.041 3.041 0 0 1 6.03 36h90.882c5.01 0 9.088 4.102 9.088 9.143v109.714c0 5.04-4.078 9.143-9.088 9.143H6.029z" fill="#125D9D"/><path d="M83.837 95.104H69.27c.256-2.409.438-4.912.438-7.604 0-2.689-.176-5.196-.429-7.604h14.558c.636 2.445 1.08 4.964 1.08 7.604 0 2.64-.444 5.158-1.08 7.604zm-20.696 21.41c1.965-3.875 3.93-9.01 5.199-15.326h13.173a30.359 30.359 0 0 1-18.372 15.326zm-9.526 1.314c-2.181-3.355-5.019-8.906-6.74-16.64h15.25c-1.718 7.728-4.553 13.28-6.74 16.64-.301.01-.58.089-.885.089-.304 0-.584-.08-.885-.089zm-26.128-16.64H40.66c1.272 6.317 3.24 11.457 5.202 15.326a30.364 30.364 0 0 1-18.375-15.326zm-2.324-21.292h14.56c-.255 2.408-.431 4.915-.431 7.604 0 2.692.182 5.195.44 7.604H25.164c-.636-2.446-1.08-4.964-1.08-7.604 0-2.64.444-5.159 1.08-7.604zm20.708-21.413c-1.999 3.923-3.967 9.024-5.226 15.33H27.487a30.367 30.367 0 0 1 18.384-15.33zm.997 15.33c1.689-7.623 4.475-13.162 6.747-16.642.301-.009.58-.088.885-.088.307 0 .59.082.894.092 2.282 3.5 5.059 9.042 6.74 16.638H46.869zM63.625 87.5c0 2.716-.204 5.21-.484 7.604H45.86c-.28-2.394-.484-4.888-.484-7.604 0-2.717.2-5.21.478-7.604h17.294c.277 2.394.478 4.887.478 7.604zm17.888-13.688H68.358c-1.26-6.305-3.224-11.4-5.229-15.33a30.367 30.367 0 0 1 18.384 15.33zM54.5 51C34.343 51 18 67.342 18 87.5c0 20.157 16.343 36.5 36.5 36.5S91 107.657 91 87.5C91 67.342 74.66 51 54.5 51z" fill="#E7BE29"/><mask id="b" fill="#fff"><use xlink:href="#a"/></mask><path fill="#FFF" mask="url(#b)" d="M24 148h61v-6H24z"/><path fill="#010101" mask="url(#b)" d="M133 99.537L129.859 111 124 109.464 127.14 98zm-6 24.048L115.912 165 110 163.415 121.088 122z"/><path d="M163.718 32.567L127.575 167.43a6.079 6.079 0 0 1-5.859 4.504c-.528 0-1.06-.07-1.579-.21l-21.17-5.672c5.834-.89 10.318-5.88 10.318-11.959V105.97l3.109.834 3.144-11.728-5.864-1.572-.389 1.451v-48.24l6.196 1.66 7.18 23.47 5.027 1.348-.477-21.674c3.3.886 6.672 1.788 8.879 2.38l3.904 6.88 3.352.898-.577-9.582 5.29-8.01-3.35-.898-6.822 4.01c-2.21-.592-5.58-1.494-8.882-2.38l11.25-18.533-5.027-1.347-17.956 16.736c-3.53-.947-7.383-1.98-9.471-2.538-2.04-3.818-6.023-6.45-10.659-6.45H75.69l5.926-22.114a6.085 6.085 0 0 1 5.859-4.504c.528 0 1.06.07 1.578.21l70.373 18.854a6.021 6.021 0 0 1 3.686 2.829 6.039 6.039 0 0 1 .607 4.607zM6.071 38.756h91.071a6.077 6.077 0 0 1 6.072 6.07v109.266a6.077 6.077 0 0 1-6.072 6.07H6.072V38.756zM160.995 19.27L90.622.416A12.153 12.153 0 0 0 87.47 0c-5.36 0-10.266 3.578-11.72 9.002l-6.348 23.684H6.072A6.071 6.071 0 0 0 0 38.756v121.406a6.07 6.07 0 0 0 6.071 6.07h70.125l42.372 11.352c1.054.283 2.11.416 3.151.416 5.361 0 10.267-3.578 11.721-9.002l36.143-134.862c1.736-6.474-2.11-13.13-8.588-14.866z" fill="#010101" mask="url(#b)"/><path fill="#010101" mask="url(#b)" d="M131 83.445L129.515 89 124 87.555 125.485 82zm12 3L141.515 92 136 90.555 137.485 85zm-23-6L118.515 86 113 84.555 114.485 79z"/><path d="M153 84l23.006 61 9.994-6.63v-25.395C186 101.398 179.274 84 153 84" fill="#27467A" mask="url(#b)"/><path d="M176 112.975V145h-30l6.737-61C171.261 84 176 101.398 176 112.975" fill="#2F5E88" mask="url(#b)"/><path d="M120 112.975v25.394l9.994 6.631H153V84c-26.274 0-33 17.398-33 28.975" fill="#367596" mask="url(#b)"/><path d="M153.5 100c-3.59 0-6.5 2.912-6.5 6.505v11.99a6.502 6.502 0 0 0 6.5 6.505c3.59 0 6.5-2.912 6.5-6.505v-11.99a6.502 6.502 0 0 0-6.5-6.505" fill="#27467A" mask="url(#b)"/><path d="M176.006 138L153 193c26.274 0 33-17.6 33-29.311V138h-9.994z" fill="#111449" mask="url(#b)"/><path d="M120 138v25.689c0 11.71 6.725 29.311 32.996 29.311C171.314 193 176 175.4 176 163.689V138h-56z" fill="#27467A" mask="url(#b)"/><path d="M184.003 164.181c0 3.088-.59 10.965-6.05 17.412-5.272 6.223-13.499 9.378-24.453 9.378-10.954 0-19.18-3.155-24.452-9.378-5.461-6.446-6.05-14.324-6.05-17.412V112.82c0-3.088.59-10.965 6.05-17.413 5.271-6.222 13.498-9.378 24.452-9.378 10.954 0 19.181 3.156 24.453 9.378 5.46 6.448 6.05 14.325 6.05 17.413v51.361zM153.5 81c-26.203 0-35.5 17.14-35.5 31.82v51.36c0 14.68 9.297 31.82 35.5 31.82s35.5-17.14 35.5-31.82v-51.36C189 98.14 179.703 81 153.5 81z" fill="#000" mask="url(#b)"/><path d="M149.565 118.579v-11.946c0-2.186 1.765-3.965 3.935-3.965s3.935 1.779 3.935 3.965v11.946c0 2.186-1.765 3.965-3.935 3.965s-3.935-1.779-3.935-3.965zm6.433 17.387v-8.75a9.003 9.003 0 0 0 6.433-8.637v-11.946a9.002 9.002 0 0 0-6.433-8.637v-4.48A2.507 2.507 0 0 0 153.5 91a2.507 2.507 0 0 0-2.498 2.517v4.479a9.002 9.002 0 0 0-6.433 8.637v11.946a9.003 9.003 0 0 0 6.433 8.637v8.75h-20.504a2.508 2.508 0 0 0-2.498 2.517 2.508 2.508 0 0 0 2.498 2.517h46.004a2.507 2.507 0 0 0 2.498-2.517 2.508 2.508 0 0 0-2.498-2.517h-20.504z" fill="#000" mask="url(#b)"/></g></svg>