<svg width="33" height="34" xmlns="http://www.w3.org/2000/svg"><path d="M18.951 20.518l5.26-7.27a.562.562 0 0 0-.785-.785l-7.272 5.26a1.998 1.998 0 0 0-.238 3.035c.378.378.88.586 1.414.586a2.01 2.01 0 0 0 1.621-.826z"/><path d="M30.07 10.989c-.006-.012-.006-.024-.013-.036-.006-.011-.017-.018-.024-.028a15.27 15.27 0 0 0-2.003-2.701l1.206-1.206.794.794 2.383-2.383-2.383-2.383-2.383 2.383.795.794-1.206 1.206a15.252 15.252 0 0 0-2.701-2.003c-.01-.007-.017-.018-.028-.024-.012-.007-.024-.006-.036-.013a15.06 15.06 0 0 0-5.77-1.912v-.669h.843A1.405 1.405 0 0 0 19.543 0h-5.055a1.405 1.405 0 0 0 0 2.808h.842v.65c-.607.064-1.212.163-1.81.3a.561.561 0 1 0 .25 1.095 14.275 14.275 0 0 1 1.607-.272l.556-.043c.188-.014.357-.024.52-.032v1.11a.561.561 0 1 0 1.123 0V4.51c2.113.097 4.103.665 5.873 1.598l-.554.96a.562.562 0 0 0 .973.561l.552-.957a14.151 14.151 0 0 1 4.366 4.366l-.957.552a.562.562 0 0 0 .564.973l.958-.554a13.94 13.94 0 0 1 1.6 5.964h-1.109a.561.561 0 1 0 0 1.124h1.11a13.94 13.94 0 0 1-1.6 5.964l-.96-.554a.56.56 0 1 0-.561.973l.956.552a14.151 14.151 0 0 1-4.365 4.366l-.552-.957a.56.56 0 1 0-.973.562l.554.959c-1.77.933-3.76 1.5-5.873 1.598v-1.106a.561.561 0 1 0-1.123 0v1.11a14.174 14.174 0 0 1-2.683-.346.56.56 0 1 0-.251 1.094c1.121.259 2.266.389 3.403.389l.081-.002.01.002c.005 0 .009-.003.013-.003 2.7-.018 5.233-.747 7.425-2.007.017-.008.036-.011.053-.022.01-.006.017-.017.028-.024a15.276 15.276 0 0 0 5.49-5.483c.01-.015.023-.027.033-.044.007-.012.006-.024.012-.036a15.058 15.058 0 0 0 2.02-7.546c0-2.747-.737-5.323-2.02-7.547z"/><path d="M11.96 7.302H9.152a1.124 1.124 0 0 0 0 2.247h2.808a1.124 1.124 0 0 0 0-2.247zm0 3.932H6.343a1.124 1.124 0 0 0 0 2.246h5.617a1.124 1.124 0 0 0 0-2.246zm0 3.931H3.535a1.124 1.124 0 0 0 0 2.247h8.425a1.124 1.124 0 0 0 0-2.247zm0 3.932H1.288a1.124 1.124 0 0 0 0 2.247H11.96a1.124 1.124 0 0 0 0-2.247zm0 3.932H4.658a1.124 1.124 0 0 0 0 2.247h7.302a1.124 1.124 0 0 0 0-2.247zm0 3.931H8.028a1.124 1.124 0 0 0 0 2.248h3.932a1.124 1.124 0 0 0 0-2.247z"/></svg>