<svg width="137" height="141" xmlns="http://www.w3.org/2000/svg"><g fill="none" fill-rule="evenodd"><g fill="#000" fill-rule="nonzero"><path d="M74.398 69.269c-1.43 0-1.832.82-1.832 1.83v25.255c0 1.011.82 1.831 1.832 1.831h25.317c1.01 0 1.831-.82 1.831-1.831 0-14.936-12.15-27.085-27.148-27.085z"/><path d="M110.882 73.073a1.791 1.791 0 0 0 2.533.11l4.047-3.707a1.795 1.795 0 0 0 .11-2.532l-8.915-9.729a1.796 1.796 0 0 0-2.532-.11l-4.047 3.707a1.785 1.785 0 0 0-.58 1.244c-.02.479.147.936.47 1.288l1.294 1.412-2.27 2.139C95.06 61.51 87.6 57.78 79.349 56.445v-3.548c4.736-2.465 7.98-7.418 7.98-13.116 0-8.15-6.63-14.781-14.78-14.781-8.151 0-14.782 6.63-14.782 14.78 0 5.7 3.244 10.652 7.98 13.117v3.547c-8.252 1.337-15.711 5.067-21.644 10.45l-2.27-2.138 1.294-1.412c.324-.353.49-.81.47-1.289a1.783 1.783 0 0 0-.58-1.243l-4.047-3.708a1.787 1.787 0 0 0-1.21-.471 1.8 1.8 0 0 0-1.322.581l-8.915 9.73a1.795 1.795 0 0 0 .11 2.532l4.047 3.708a1.789 1.789 0 0 0 2.532-.111l1.556-1.699 2.354 2.219a42.134 42.134 0 0 0-7.945 24.673c0 23.364 19.008 42.372 42.371 42.372 23.364 0 42.371-19.008 42.371-42.371 0-9.198-2.946-17.72-7.945-24.674l2.354-2.218 1.555 1.698zM63.893 39.781c0-4.772 3.882-8.654 8.654-8.654s8.654 3.882 8.654 8.654c0 2.015-.694 3.87-1.853 5.342v-1.948a2.47 2.47 0 0 0-2.47-2.469h-8.662a2.47 2.47 0 0 0-2.47 2.47v1.947a8.61 8.61 0 0 1-1.853-5.342zm8.654 93.75c-19.445 0-35.264-15.82-35.264-35.264 0-19.445 15.82-35.264 35.264-35.264 19.445 0 35.264 15.819 35.264 35.264 0 19.444-15.82 35.264-35.264 35.264z"/></g><path d="M133 55.948c0-.144.072-.215.215-.215h.895v-.944c0-.143.078-.215.234-.215h1.095c.144 0 .215.072.215.215v.944h.895a.22.22 0 0 1 .151.056.2.2 0 0 1 .064.159v.992c0 .05-.02.1-.059.154a.184.184 0 0 1-.156.08h-.895v.95a.227.227 0 0 1-.053.15c-.036.043-.09.064-.162.064h-1.095c-.049 0-.1-.02-.154-.058a.184.184 0 0 1-.08-.157v-.948h-.895c-.143 0-.215-.078-.215-.235v-.992zm-98.16-37.94c0-.235.117-.352.352-.352h1.464v-1.544c0-.235.128-.352.384-.352h1.792c.235 0 .352.117.352.352v1.544h1.464c.096 0 .179.03.248.092.07.061.104.148.104.26v1.624c0 .08-.032.164-.096.252a.301.301 0 0 1-.256.132h-1.464v1.552c0 .096-.03.179-.088.248-.059.07-.147.104-.264.104H37.04a.433.433 0 0 1-.252-.096.301.301 0 0 1-.132-.256v-1.552h-1.464c-.235 0-.352-.128-.352-.384v-1.624zM.528 55.948c0-.144.072-.215.215-.215h.894v-.944c0-.143.079-.215.235-.215h1.095c.143 0 .215.072.215.215v.944h.895c.058 0 .109.019.151.056.043.037.064.09.064.159v.992c0 .05-.02.1-.059.154a.184.184 0 0 1-.156.08h-.895v.95a.223.223 0 0 1-.054.15c-.035.043-.09.064-.16.064H1.871c-.049 0-.1-.02-.154-.058a.184.184 0 0 1-.08-.157v-.948H.742c-.143 0-.215-.078-.215-.235v-.992zM11 24.492c0-.144.072-.215.215-.215h.895v-.944c0-.143.078-.215.234-.215h1.095c.144 0 .215.072.215.215v.944h.895c.059 0 .109.018.151.056.043.037.064.09.064.159v.992c0 .049-.02.1-.059.154a.184.184 0 0 1-.156.08h-.895v.949c0 .059-.018.11-.053.151-.036.043-.09.064-.162.064h-1.095c-.049 0-.1-.02-.154-.059a.184.184 0 0 1-.08-.156v-.948h-.895c-.143 0-.215-.079-.215-.235v-.992zM73.118 1.993c0-.143.072-.215.215-.215h.895V.835c0-.143.078-.215.234-.215h1.095c.144 0 .215.072.215.215v.943h.895c.059 0 .11.02.151.057.043.037.064.09.064.158v.993c0 .049-.02.1-.059.154a.184.184 0 0 1-.156.08h-.895v.949a.23.23 0 0 1-.053.151c-.036.043-.09.064-.162.064h-1.095c-.049 0-.1-.02-.154-.059a.184.184 0 0 1-.08-.156V3.22h-.895c-.143 0-.215-.078-.215-.234v-.993z" fill="#FFF"/><circle stroke="#FFF" cx="29.366" cy="40.5" r="1.5"/></g></svg>