<?xml version="1.0" encoding="UTF-8"?>
<svg width="135px" height="39px" viewBox="0 0 135 39" version="1.1" xmlns="http://www.w3.org/2000/svg" xmlns:xlink="http://www.w3.org/1999/xlink">
    <!-- Generator: Sketch 51.2 (57519) - http://www.bohemiancoding.com/sketch -->
    <title>Facebook</title>
    <desc>Created with Sketch.</desc>
    <defs></defs>
    <g id="Facebook" stroke="none" stroke-width="1" fill="none" fill-rule="evenodd">
        <g transform="translate(0.225790, 0.500000)">
            <g id="Group-4" transform="translate(43.000000, 21.000000)">
                <g id="noun_923382_cc">
                    <g id="Group">
                        <polygon id="Path-2" fill="#2D5399" fill-rule="nonzero" points="0.272341599 5.24328658 2.57869012 7.81874683 2.57869012 9.62135313 2.57869012 12.5001262 6.03837977 10.7140708 9.58683931 12.5001262 9.58683931 11.7502995 9.12777693 8.35830827 10.4401785 6.58126203 11.8112209 4.93240826 8.6861725 4.38899632 7.4619119 3.37218376 6.04178125 0.447417382 4.39316582 3.37218376 3.82150843 4.14967786 1.67878256 4.62909053 0.479345348 4.93240826"></polygon>
                        <path d="M11.4326964,5.14434375 C11.4110804,5.13472096 11.3781866,5.12406187 11.3314639,5.11680777 L8.63940376,4.70258365 C8.11887526,4.6220483 7.52745713,4.15364047 7.29276953,3.63623043 L6.07569681,0.955469066 C6.05475215,0.909131629 6.03501584,0.878190657 6.01984439,0.85864899 C6.00494146,0.878190657 5.98574218,0.909279672 5.96533457,0.955617109 L4.7753825,3.65162689 C4.54593106,4.17229388 3.95934632,4.64780777 3.43975764,4.73411679 L0.751591072,5.18194665 C0.70513689,5.18964489 0.672243032,5.20074811 0.65076133,5.21066698 C0.663113309,5.23242929 0.684057969,5.26263005 0.718025911,5.29875253 L2.67527754,7.37875568 C3.05348977,7.78084028 3.28240417,8.54296528 3.19661162,9.11396686 L2.75194037,12.0717165 C2.74428751,12.1226433 2.74361621,12.1605423 2.74549586,12.1860057 C2.76805165,12.1797879 2.80067698,12.1670562 2.84216352,12.1429252 L5.24126693,10.7331124 C5.70500318,10.4608614 6.43309864,10.4564201 6.89898307,10.7230455 L9.31204958,12.1032497 C9.35380464,12.1270846 9.38642997,12.1392241 9.40912002,12.1452939 C9.41073115,12.1196824 9.40992559,12.0817835 9.40160143,12.0308567 L8.92712432,9.07873264 C8.83529004,8.50935953 9.05628306,7.74456976 9.4303332,7.33759975 L11.367043,5.23272538 C11.4000711,5.19630682 11.4207472,5.16610606 11.4326964,5.14434375 Z" id="Shape"></path>
                        <path d="M11.8131911,5.73192614 C12.0462675,5.47877273 12.1343425,5.18194665 12.0548602,4.91739394 C11.9753779,4.65284122 11.7437783,4.47237689 11.4195389,4.42233838 L8.72747874,4.00811427 C8.40954955,3.95896402 8.00488797,3.63859912 7.86163187,3.32252746 L6.64455915,0.641618056 C6.49875209,0.320068813 6.27104605,0.136051452 6.0194416,0.136051452 C6.01836752,0.136051452 6.01715917,0.136051452 6.01621935,0.136051452 C5.7632723,0.137679924 5.53623756,0.324658144 5.39338423,0.649020202 L4.20343217,3.34502999 C4.06339832,3.66287816 3.66236178,3.98798043 3.34496962,4.04053567 L0.656803058,4.48851357 C0.333234912,4.54225316 0.103514955,4.72538226 0.0267178675,4.99082323 C-0.0502134801,5.25641225 0.0408152349,5.55249811 0.276442661,5.80343087 L2.23382855,7.88358207 C2.46489112,8.12918529 2.62157329,8.65059249 2.56907738,8.99908554 L2.12440613,11.9568352 C2.0709704,12.3127304 2.15797129,12.6098526 2.36298729,12.7724037 C2.46341425,12.8520508 2.58236918,12.8917263 2.71166218,12.8917263 C2.84686264,12.8917263 2.99307248,12.8483497 3.14089345,12.7615966 L5.54013111,11.3517838 C5.82342107,11.1853835 6.32139379,11.1824227 6.60602635,11.3452699 L9.01936138,12.7256222 C9.31016993,12.8917263 9.59359414,12.8923185 9.7974018,12.7269545 C10.0009409,12.5618867 10.0848538,12.2632841 10.0276588,11.9079811 L9.55304743,8.95585701 C9.49706074,8.60810417 9.64837249,8.0850685 9.87661558,7.83665246 L11.8131911,5.73192614 Z M9.43006468,7.3374517 C9.05601453,7.74442172 8.83502152,8.50921149 8.9268558,9.0785846 L9.4013329,12.0307086 C9.40965706,12.0816354 9.41046263,12.1195344 9.4088515,12.1451458 C9.38629571,12.1390761 9.35353612,12.1269366 9.31178106,12.1031016 L6.89871455,10.7228974 C6.43283012,10.4562721 5.7046004,10.4605653 5.2409984,10.7329643 L2.841895,12.1427771 C2.80040846,12.1670562 2.76791739,12.1797879 2.74522734,12.1858576 C2.74334769,12.1603943 2.74401899,12.1226433 2.75167185,12.0715685 L3.19634309,9.11381881 C3.28213564,8.54281723 3.05322125,7.78069223 2.67500902,7.37860764 L0.71775739,5.29860448 C0.683789447,5.26248201 0.662844787,5.23228125 0.650492808,5.21051894 C0.671974511,5.20060006 0.704868368,5.18949684 0.75132255,5.18179861 L3.43948912,4.73396875 C3.9590778,4.64765972 4.5457968,4.17214583 4.77511398,3.65147885 L5.96506604,0.955469066 C5.98547366,0.909131629 6.00467293,0.878042614 6.01957586,0.858500947 C6.03474732,0.877894571 6.05448363,0.908835543 6.07542829,0.955321023 L7.29250101,3.63608239 C7.52718861,4.15364047 8.11847247,4.6220483 8.63913524,4.70243561 L11.3311954,5.11665972 C11.3779181,5.12391383 11.4108119,5.13457292 11.4324279,5.14419571 C11.4203444,5.16610606 11.3998026,5.19630682 11.3665059,5.23242929 L9.43006468,7.3374517 Z" id="Shape" fill="#2D5399" fill-rule="nonzero"></path>
                    </g>
                </g>
                <g id="noun_923382_cc" transform="translate(14.000000, 0.000000)">
                    <g id="Group">
                        <polygon id="Path-2" fill="#2D5399" fill-rule="nonzero" points="0.272341599 5.24328658 2.57869012 7.81874683 2.57869012 9.62135313 2.57869012 12.5001262 6.03837977 10.7140708 9.58683931 12.5001262 9.58683931 11.7502995 9.12777693 8.35830827 10.4401785 6.58126203 11.8112209 4.93240826 8.6861725 4.38899632 7.4619119 3.37218376 6.04178125 0.447417382 4.39316582 3.37218376 3.82150843 4.14967786 1.67878256 4.62909053 0.479345348 4.93240826"></polygon>
                        <path d="M11.4326964,5.14434375 C11.4110804,5.13472096 11.3781866,5.12406187 11.3314639,5.11680777 L8.63940376,4.70258365 C8.11887526,4.6220483 7.52745713,4.15364047 7.29276953,3.63623043 L6.07569681,0.955469066 C6.05475215,0.909131629 6.03501584,0.878190657 6.01984439,0.85864899 C6.00494146,0.878190657 5.98574218,0.909279672 5.96533457,0.955617109 L4.7753825,3.65162689 C4.54593106,4.17229388 3.95934632,4.64780777 3.43975764,4.73411679 L0.751591072,5.18194665 C0.70513689,5.18964489 0.672243032,5.20074811 0.65076133,5.21066698 C0.663113309,5.23242929 0.684057969,5.26263005 0.718025911,5.29875253 L2.67527754,7.37875568 C3.05348977,7.78084028 3.28240417,8.54296528 3.19661162,9.11396686 L2.75194037,12.0717165 C2.74428751,12.1226433 2.74361621,12.1605423 2.74549586,12.1860057 C2.76805165,12.1797879 2.80067698,12.1670562 2.84216352,12.1429252 L5.24126693,10.7331124 C5.70500318,10.4608614 6.43309864,10.4564201 6.89898307,10.7230455 L9.31204958,12.1032497 C9.35380464,12.1270846 9.38642997,12.1392241 9.40912002,12.1452939 C9.41073115,12.1196824 9.40992559,12.0817835 9.40160143,12.0308567 L8.92712432,9.07873264 C8.83529004,8.50935953 9.05628306,7.74456976 9.4303332,7.33759975 L11.367043,5.23272538 C11.4000711,5.19630682 11.4207472,5.16610606 11.4326964,5.14434375 Z" id="Shape"></path>
                        <path d="M11.8131911,5.73192614 C12.0462675,5.47877273 12.1343425,5.18194665 12.0548602,4.91739394 C11.9753779,4.65284122 11.7437783,4.47237689 11.4195389,4.42233838 L8.72747874,4.00811427 C8.40954955,3.95896402 8.00488797,3.63859912 7.86163187,3.32252746 L6.64455915,0.641618056 C6.49875209,0.320068813 6.27104605,0.136051452 6.0194416,0.136051452 C6.01836752,0.136051452 6.01715917,0.136051452 6.01621935,0.136051452 C5.7632723,0.137679924 5.53623756,0.324658144 5.39338423,0.649020202 L4.20343217,3.34502999 C4.06339832,3.66287816 3.66236178,3.98798043 3.34496962,4.04053567 L0.656803058,4.48851357 C0.333234912,4.54225316 0.103514955,4.72538226 0.0267178675,4.99082323 C-0.0502134801,5.25641225 0.0408152349,5.55249811 0.276442661,5.80343087 L2.23382855,7.88358207 C2.46489112,8.12918529 2.62157329,8.65059249 2.56907738,8.99908554 L2.12440613,11.9568352 C2.0709704,12.3127304 2.15797129,12.6098526 2.36298729,12.7724037 C2.46341425,12.8520508 2.58236918,12.8917263 2.71166218,12.8917263 C2.84686264,12.8917263 2.99307248,12.8483497 3.14089345,12.7615966 L5.54013111,11.3517838 C5.82342107,11.1853835 6.32139379,11.1824227 6.60602635,11.3452699 L9.01936138,12.7256222 C9.31016993,12.8917263 9.59359414,12.8923185 9.7974018,12.7269545 C10.0009409,12.5618867 10.0848538,12.2632841 10.0276588,11.9079811 L9.55304743,8.95585701 C9.49706074,8.60810417 9.64837249,8.0850685 9.87661558,7.83665246 L11.8131911,5.73192614 Z M9.43006468,7.3374517 C9.05601453,7.74442172 8.83502152,8.50921149 8.9268558,9.0785846 L9.4013329,12.0307086 C9.40965706,12.0816354 9.41046263,12.1195344 9.4088515,12.1451458 C9.38629571,12.1390761 9.35353612,12.1269366 9.31178106,12.1031016 L6.89871455,10.7228974 C6.43283012,10.4562721 5.7046004,10.4605653 5.2409984,10.7329643 L2.841895,12.1427771 C2.80040846,12.1670562 2.76791739,12.1797879 2.74522734,12.1858576 C2.74334769,12.1603943 2.74401899,12.1226433 2.75167185,12.0715685 L3.19634309,9.11381881 C3.28213564,8.54281723 3.05322125,7.78069223 2.67500902,7.37860764 L0.71775739,5.29860448 C0.683789447,5.26248201 0.662844787,5.23228125 0.650492808,5.21051894 C0.671974511,5.20060006 0.704868368,5.18949684 0.75132255,5.18179861 L3.43948912,4.73396875 C3.9590778,4.64765972 4.5457968,4.17214583 4.77511398,3.65147885 L5.96506604,0.955469066 C5.98547366,0.909131629 6.00467293,0.878042614 6.01957586,0.858500947 C6.03474732,0.877894571 6.05448363,0.908835543 6.07542829,0.955321023 L7.29250101,3.63608239 C7.52718861,4.15364047 8.11847247,4.6220483 8.63913524,4.70243561 L11.3311954,5.11665972 C11.3779181,5.12391383 11.4108119,5.13457292 11.4324279,5.14419571 C11.4203444,5.16610606 11.3998026,5.19630682 11.3665059,5.23242929 L9.43006468,7.3374517 Z" id="Shape" fill="#2D5399" fill-rule="nonzero"></path>
                    </g>
                </g>
                <g id="noun_923382_cc" transform="translate(27.000000, 0.000000)">
                    <g id="Group">
                        <polygon id="Path-2" fill="#2D5399" fill-rule="nonzero" points="0.272341599 5.24328658 2.57869012 7.81874683 2.57869012 9.62135313 2.57869012 12.5001262 6.03837977 10.7140708 9.58683931 12.5001262 9.58683931 11.7502995 9.12777693 8.35830827 10.4401785 6.58126203 11.8112209 4.93240826 8.6861725 4.38899632 7.4619119 3.37218376 6.04178125 0.447417382 4.39316582 3.37218376 3.82150843 4.14967786 1.67878256 4.62909053 0.479345348 4.93240826"></polygon>
                        <path d="M11.4326964,5.14434375 C11.4110804,5.13472096 11.3781866,5.12406187 11.3314639,5.11680777 L8.63940376,4.70258365 C8.11887526,4.6220483 7.52745713,4.15364047 7.29276953,3.63623043 L6.07569681,0.955469066 C6.05475215,0.909131629 6.03501584,0.878190657 6.01984439,0.85864899 C6.00494146,0.878190657 5.98574218,0.909279672 5.96533457,0.955617109 L4.7753825,3.65162689 C4.54593106,4.17229388 3.95934632,4.64780777 3.43975764,4.73411679 L0.751591072,5.18194665 C0.70513689,5.18964489 0.672243032,5.20074811 0.65076133,5.21066698 C0.663113309,5.23242929 0.684057969,5.26263005 0.718025911,5.29875253 L2.67527754,7.37875568 C3.05348977,7.78084028 3.28240417,8.54296528 3.19661162,9.11396686 L2.75194037,12.0717165 C2.74428751,12.1226433 2.74361621,12.1605423 2.74549586,12.1860057 C2.76805165,12.1797879 2.80067698,12.1670562 2.84216352,12.1429252 L5.24126693,10.7331124 C5.70500318,10.4608614 6.43309864,10.4564201 6.89898307,10.7230455 L9.31204958,12.1032497 C9.35380464,12.1270846 9.38642997,12.1392241 9.40912002,12.1452939 C9.41073115,12.1196824 9.40992559,12.0817835 9.40160143,12.0308567 L8.92712432,9.07873264 C8.83529004,8.50935953 9.05628306,7.74456976 9.4303332,7.33759975 L11.367043,5.23272538 C11.4000711,5.19630682 11.4207472,5.16610606 11.4326964,5.14434375 Z" id="Shape"></path>
                        <path d="M11.8131911,5.73192614 C12.0462675,5.47877273 12.1343425,5.18194665 12.0548602,4.91739394 C11.9753779,4.65284122 11.7437783,4.47237689 11.4195389,4.42233838 L8.72747874,4.00811427 C8.40954955,3.95896402 8.00488797,3.63859912 7.86163187,3.32252746 L6.64455915,0.641618056 C6.49875209,0.320068813 6.27104605,0.136051452 6.0194416,0.136051452 C6.01836752,0.136051452 6.01715917,0.136051452 6.01621935,0.136051452 C5.7632723,0.137679924 5.53623756,0.324658144 5.39338423,0.649020202 L4.20343217,3.34502999 C4.06339832,3.66287816 3.66236178,3.98798043 3.34496962,4.04053567 L0.656803058,4.48851357 C0.333234912,4.54225316 0.103514955,4.72538226 0.0267178675,4.99082323 C-0.0502134801,5.25641225 0.0408152349,5.55249811 0.276442661,5.80343087 L2.23382855,7.88358207 C2.46489112,8.12918529 2.62157329,8.65059249 2.56907738,8.99908554 L2.12440613,11.9568352 C2.0709704,12.3127304 2.15797129,12.6098526 2.36298729,12.7724037 C2.46341425,12.8520508 2.58236918,12.8917263 2.71166218,12.8917263 C2.84686264,12.8917263 2.99307248,12.8483497 3.14089345,12.7615966 L5.54013111,11.3517838 C5.82342107,11.1853835 6.32139379,11.1824227 6.60602635,11.3452699 L9.01936138,12.7256222 C9.31016993,12.8917263 9.59359414,12.8923185 9.7974018,12.7269545 C10.0009409,12.5618867 10.0848538,12.2632841 10.0276588,11.9079811 L9.55304743,8.95585701 C9.49706074,8.60810417 9.64837249,8.0850685 9.87661558,7.83665246 L11.8131911,5.73192614 Z M9.43006468,7.3374517 C9.05601453,7.74442172 8.83502152,8.50921149 8.9268558,9.0785846 L9.4013329,12.0307086 C9.40965706,12.0816354 9.41046263,12.1195344 9.4088515,12.1451458 C9.38629571,12.1390761 9.35353612,12.1269366 9.31178106,12.1031016 L6.89871455,10.7228974 C6.43283012,10.4562721 5.7046004,10.4605653 5.2409984,10.7329643 L2.841895,12.1427771 C2.80040846,12.1670562 2.76791739,12.1797879 2.74522734,12.1858576 C2.74334769,12.1603943 2.74401899,12.1226433 2.75167185,12.0715685 L3.19634309,9.11381881 C3.28213564,8.54281723 3.05322125,7.78069223 2.67500902,7.37860764 L0.71775739,5.29860448 C0.683789447,5.26248201 0.662844787,5.23228125 0.650492808,5.21051894 C0.671974511,5.20060006 0.704868368,5.18949684 0.75132255,5.18179861 L3.43948912,4.73396875 C3.9590778,4.64765972 4.5457968,4.17214583 4.77511398,3.65147885 L5.96506604,0.955469066 C5.98547366,0.909131629 6.00467293,0.878042614 6.01957586,0.858500947 C6.03474732,0.877894571 6.05448363,0.908835543 6.07542829,0.955321023 L7.29250101,3.63608239 C7.52718861,4.15364047 8.11847247,4.6220483 8.63913524,4.70243561 L11.3311954,5.11665972 C11.3779181,5.12391383 11.4108119,5.13457292 11.4324279,5.14419571 C11.4203444,5.16610606 11.3998026,5.19630682 11.3665059,5.23242929 L9.43006468,7.3374517 Z" id="Shape" fill="#2D5399" fill-rule="nonzero"></path>
                    </g>
                </g>
                <g id="noun_923382_cc" transform="translate(41.000000, 0.000000)">
                    <g id="Group">
                        <polygon id="Path-2" fill="#2D5399" fill-rule="nonzero" points="0.272341599 5.24328658 2.57869012 7.81874683 2.57869012 9.62135313 2.57869012 12.5001262 6.03837977 10.7140708 9.58683931 12.5001262 9.58683931 11.7502995 9.12777693 8.35830827 10.4401785 6.58126203 11.8112209 4.93240826 8.6861725 4.38899632 7.4619119 3.37218376 6.04178125 0.447417382 4.39316582 3.37218376 3.82150843 4.14967786 1.67878256 4.62909053 0.479345348 4.93240826"></polygon>
                        <path d="M11.4326964,5.14434375 C11.4110804,5.13472096 11.3781866,5.12406187 11.3314639,5.11680777 L8.63940376,4.70258365 C8.11887526,4.6220483 7.52745713,4.15364047 7.29276953,3.63623043 L6.07569681,0.955469066 C6.05475215,0.909131629 6.03501584,0.878190657 6.01984439,0.85864899 C6.00494146,0.878190657 5.98574218,0.909279672 5.96533457,0.955617109 L4.7753825,3.65162689 C4.54593106,4.17229388 3.95934632,4.64780777 3.43975764,4.73411679 L0.751591072,5.18194665 C0.70513689,5.18964489 0.672243032,5.20074811 0.65076133,5.21066698 C0.663113309,5.23242929 0.684057969,5.26263005 0.718025911,5.29875253 L2.67527754,7.37875568 C3.05348977,7.78084028 3.28240417,8.54296528 3.19661162,9.11396686 L2.75194037,12.0717165 C2.74428751,12.1226433 2.74361621,12.1605423 2.74549586,12.1860057 C2.76805165,12.1797879 2.80067698,12.1670562 2.84216352,12.1429252 L5.24126693,10.7331124 C5.70500318,10.4608614 6.43309864,10.4564201 6.89898307,10.7230455 L9.31204958,12.1032497 C9.35380464,12.1270846 9.38642997,12.1392241 9.40912002,12.1452939 C9.41073115,12.1196824 9.40992559,12.0817835 9.40160143,12.0308567 L8.92712432,9.07873264 C8.83529004,8.50935953 9.05628306,7.74456976 9.4303332,7.33759975 L11.367043,5.23272538 C11.4000711,5.19630682 11.4207472,5.16610606 11.4326964,5.14434375 Z" id="Shape"></path>
                        <path d="M11.8131911,5.73192614 C12.0462675,5.47877273 12.1343425,5.18194665 12.0548602,4.91739394 C11.9753779,4.65284122 11.7437783,4.47237689 11.4195389,4.42233838 L8.72747874,4.00811427 C8.40954955,3.95896402 8.00488797,3.63859912 7.86163187,3.32252746 L6.64455915,0.641618056 C6.49875209,0.320068813 6.27104605,0.136051452 6.0194416,0.136051452 C6.01836752,0.136051452 6.01715917,0.136051452 6.01621935,0.136051452 C5.7632723,0.137679924 5.53623756,0.324658144 5.39338423,0.649020202 L4.20343217,3.34502999 C4.06339832,3.66287816 3.66236178,3.98798043 3.34496962,4.04053567 L0.656803058,4.48851357 C0.333234912,4.54225316 0.103514955,4.72538226 0.0267178675,4.99082323 C-0.0502134801,5.25641225 0.0408152349,5.55249811 0.276442661,5.80343087 L2.23382855,7.88358207 C2.46489112,8.12918529 2.62157329,8.65059249 2.56907738,8.99908554 L2.12440613,11.9568352 C2.0709704,12.3127304 2.15797129,12.6098526 2.36298729,12.7724037 C2.46341425,12.8520508 2.58236918,12.8917263 2.71166218,12.8917263 C2.84686264,12.8917263 2.99307248,12.8483497 3.14089345,12.7615966 L5.54013111,11.3517838 C5.82342107,11.1853835 6.32139379,11.1824227 6.60602635,11.3452699 L9.01936138,12.7256222 C9.31016993,12.8917263 9.59359414,12.8923185 9.7974018,12.7269545 C10.0009409,12.5618867 10.0848538,12.2632841 10.0276588,11.9079811 L9.55304743,8.95585701 C9.49706074,8.60810417 9.64837249,8.0850685 9.87661558,7.83665246 L11.8131911,5.73192614 Z M9.43006468,7.3374517 C9.05601453,7.74442172 8.83502152,8.50921149 8.9268558,9.0785846 L9.4013329,12.0307086 C9.40965706,12.0816354 9.41046263,12.1195344 9.4088515,12.1451458 C9.38629571,12.1390761 9.35353612,12.1269366 9.31178106,12.1031016 L6.89871455,10.7228974 C6.43283012,10.4562721 5.7046004,10.4605653 5.2409984,10.7329643 L2.841895,12.1427771 C2.80040846,12.1670562 2.76791739,12.1797879 2.74522734,12.1858576 C2.74334769,12.1603943 2.74401899,12.1226433 2.75167185,12.0715685 L3.19634309,9.11381881 C3.28213564,8.54281723 3.05322125,7.78069223 2.67500902,7.37860764 L0.71775739,5.29860448 C0.683789447,5.26248201 0.662844787,5.23228125 0.650492808,5.21051894 C0.671974511,5.20060006 0.704868368,5.18949684 0.75132255,5.18179861 L3.43948912,4.73396875 C3.9590778,4.64765972 4.5457968,4.17214583 4.77511398,3.65147885 L5.96506604,0.955469066 C5.98547366,0.909131629 6.00467293,0.878042614 6.01957586,0.858500947 C6.03474732,0.877894571 6.05448363,0.908835543 6.07542829,0.955321023 L7.29250101,3.63608239 C7.52718861,4.15364047 8.11847247,4.6220483 8.63913524,4.70243561 L11.3311954,5.11665972 C11.3779181,5.12391383 11.4108119,5.13457292 11.4324279,5.14419571 C11.4203444,5.16610606 11.3998026,5.19630682 11.3665059,5.23242929 L9.43006468,7.3374517 Z" id="Shape" fill="#2D5399" fill-rule="nonzero"></path>
                    </g>
                </g>
                <g id="noun_923382_cc" transform="translate(55.000000, 0.000000)" fill="#2D5399" fill-rule="nonzero">
                    <g id="Group">
                        <polygon id="Path-2" points="0.272341599 5.24328658 2.67085722 7.81874683 2.67085722 9.62135313 2.67085722 12.5001262 6.26880419 10.7140708 6.2723416 0.447417382 4.55784363 3.37218376 3.96334147 4.14967786 1.73498724 4.62909053 0.487617703 4.93240826"></polygon>
                        <path d="M11.8131911,5.73192614 C12.0462675,5.47877273 12.1343425,5.18194665 12.0548602,4.91739394 C11.9753779,4.65284122 11.7437783,4.47237689 11.4195389,4.42233838 L8.72747874,4.00811427 C8.40954955,3.95896402 8.00488797,3.63859912 7.86163187,3.32252746 L6.64455915,0.641618056 C6.49875209,0.320068813 6.27104605,0.136051452 6.0194416,0.136051452 C6.01836752,0.136051452 6.01715917,0.136051452 6.01621935,0.136051452 C5.7632723,0.137679924 5.53623756,0.324658144 5.39338423,0.649020202 L4.20343217,3.34502999 C4.06339832,3.66287816 3.66236178,3.98798043 3.34496962,4.04053567 L0.656803058,4.48851357 C0.333234912,4.54225316 0.103514955,4.72538226 0.0267178675,4.99082323 C-0.0502134801,5.25641225 0.0408152349,5.55249811 0.276442661,5.80343087 L2.23382855,7.88358207 C2.46489112,8.12918529 2.62157329,8.65059249 2.56907738,8.99908554 L2.12440613,11.9568352 C2.0709704,12.3127304 2.15797129,12.6098526 2.36298729,12.7724037 C2.46341425,12.8520508 2.58236918,12.8917263 2.71166218,12.8917263 C2.84686264,12.8917263 2.99307248,12.8483497 3.14089345,12.7615966 L5.54013111,11.3517838 C5.82342107,11.1853835 6.32139379,11.1824227 6.60602635,11.3452699 L9.01936138,12.7256222 C9.31016993,12.8917263 9.59359414,12.8923185 9.7974018,12.7269545 C10.0009409,12.5618867 10.0848538,12.2632841 10.0276588,11.9079811 L9.55304743,8.95585701 C9.49706074,8.60810417 9.64837249,8.0850685 9.87661558,7.83665246 L11.8131911,5.73192614 Z M9.43006468,7.3374517 C9.05601453,7.74442172 8.83502152,8.50921149 8.9268558,9.0785846 L9.4013329,12.0307086 C9.40965706,12.0816354 9.41046263,12.1195344 9.4088515,12.1451458 C9.38629571,12.1390761 9.35353612,12.1269366 9.31178106,12.1031016 L6.89871455,10.7228974 C6.43283012,10.4562721 5.7046004,10.4605653 5.2409984,10.7329643 L2.841895,12.1427771 C2.80040846,12.1670562 2.76791739,12.1797879 2.74522734,12.1858576 C2.74334769,12.1603943 2.74401899,12.1226433 2.75167185,12.0715685 L3.19634309,9.11381881 C3.28213564,8.54281723 3.05322125,7.78069223 2.67500902,7.37860764 L0.71775739,5.29860448 C0.683789447,5.26248201 0.662844787,5.23228125 0.650492808,5.21051894 C0.671974511,5.20060006 0.704868368,5.18949684 0.75132255,5.18179861 L3.43948912,4.73396875 C3.9590778,4.64765972 4.5457968,4.17214583 4.77511398,3.65147885 L5.96506604,0.955469066 C5.98547366,0.909131629 6.00467293,0.878042614 6.01957586,0.858500947 C6.03474732,0.877894571 6.05448363,0.908835543 6.07542829,0.955321023 L7.29250101,3.63608239 C7.52718861,4.15364047 8.11847247,4.6220483 8.63913524,4.70243561 L11.3311954,5.11665972 C11.3779181,5.12391383 11.4108119,5.13457292 11.4324279,5.14419571 C11.4203444,5.16610606 11.3998026,5.19630682 11.3665059,5.23242929 L9.43006468,7.3374517 Z" id="Shape"></path>
                    </g>
                </g>
            </g>
            <g id="37-Reviews" transform="translate(44.000000, 2.000000)" fill="#333333" font-family="OpenSans-Bold, Open Sans" font-size="11" font-weight="bold">
                <text id="50-Reviews">
                    <tspan x="0" y="12">50 Reviews</tspan>
                </text>
            </g>
            <g id="4.7" transform="translate(114.000000, 19.000000)" fill="#2D5399" font-family="OpenSans-Bold, Open Sans" font-size="13" font-weight="bold">
                <text>
                    <tspan x="0" y="14">4.7</tspan>
                </text>
            </g>
            <g id="Group-2" fill-rule="nonzero">
                <circle id="Oval" fill="#2D5399" cx="19" cy="19" r="19"></circle>
                <g id="social" transform="translate(13.000000, 6.000000)" fill="#FFFFFF">
                    <path d="M13,8.09626136 L12.4903838,12.5090328 L8.5677224,12.5090328 C8.5677224,18.1074811 8.5677224,25 8.5677224,25 L2.76192814,25 C2.76192814,25 2.76192814,18.1749895 2.76192814,12.5090328 L0,12.5090328 L0,8.09626136 L2.76299206,8.09626136 L2.76299206,5.23998783 C2.76299206,3.19761914 3.84925117,0 8.62410999,0 L12.9276537,0.016163998 L12.9276537,4.3005743 C12.9276537,4.3005743 10.3114821,4.3005743 9.80399378,4.3005743 C9.29437761,4.3005743 8.56985023,4.52782109 8.56985023,5.50336591 L8.56985023,8.09721219 L13,8.09626136 Z" id="Shape"></path>
                </g>
            </g>
        </g>
    </g>
</svg>