<svg width="140" height="77" xmlns="http://www.w3.org/2000/svg" xmlns:xlink="http://www.w3.org/1999/xlink"><defs><path id="a" d="M0 0h205v95H0z"/></defs><g transform="translate(-31 -18)" fill="none" fill-rule="evenodd"><mask id="b" fill="#fff"><use xlink:href="#a"/></mask><g mask="url(#b)"><path d="M154.578 70.982l.553-.586-4.968-1.165.102 3.203c-2.226 2.125-5.11 3.411-8.265 3.411-3.192 0-6.11-1.316-8.348-3.488V69l-4.964 1.503a19.43 19.43 0 0 0-2.504.758c-3.84 1.459-8.1 4.561-9.21 11.182 0 0-4.441 12.76 0 14.093 4.444 1.335 37.38 7.976 52.026-1.698 0 0-1.249-18.757-7.453-21.3-1.831-.75-4.238-1.694-6.969-2.556z" fill="#E67FA9"/><path d="M156.976 49.09c-.455-7.684-4.677-14.935-9.575-16.593-4.896-1.657-11.855 1.358-11.855 1.358s-5.91 2.317-7.18 10c-1.269 7.684 1.025 15.368 2.85 17.816 1.823 2.451 2.05 2.34 1.937 5.792-.088 2.66.371 6.382.586 7.947 1.25.787 2.992 1.644 5.332 2.318 3.462.577 8.103.464 12.205-2.634V64.233s6.156-7.46 5.7-15.143" fill="#F5C294"/><path d="M141.036 78c-3.223 0-7.116-1.549-9.544-3.082a1.013 1.013 0 0 1-.306-1.452c.338-.481 1.025-.61 1.532-.29 2.08 1.314 5.572 2.73 8.318 2.73.573 0 1.151-.035 1.72-.103.605-.075 1.158.332 1.235.906.077.573-.35 1.098-.956 1.17-.66.08-1.333.121-1.999.121" fill="#000"/><path d="M145.145 78c-.493 0-.947-.313-1.097-.799a1.117 1.117 0 0 1 .77-1.395c1.722-.507 4.12-1.661 5.343-2.576a1.16 1.16 0 0 1 1.604.21 1.106 1.106 0 0 1-.215 1.572c-1.658 1.238-4.368 2.44-6.077 2.941-.11.032-.22.047-.328.047" fill="#000"/><path d="M140.333 67.608c-3.187 0-6.1-1.297-8.333-3.435v2.49c2.465 3.091 10.708 12.168 16.823 4.04.338-.45.102-5.247.024-6.703-2.256 2.242-5.24 3.608-8.514 3.608" fill="#DC9A70"/><path d="M142.001 32.174c-7.102 0-12.88 5.895-12.88 13.143v7.367c0 7.247 5.778 13.143 12.88 13.143 7.1 0 12.877-5.896 12.877-13.143v-7.367c0-7.248-5.776-13.143-12.877-13.143zm0 35.826C133.73 68 127 61.129 127 52.684v-7.367C127 36.87 133.73 30 142.001 30 150.271 30 157 36.87 157 45.317v7.367C157 61.129 150.272 68 142.001 68z" fill="#000"/><path d="M151 76c-.552 0-1-.495-1-1.106V63.105c0-.61.448-1.105 1-1.105.553 0 1 .494 1 1.105v11.79c0 .61-.447 1.105-1 1.105m-19 0c-.552 0-1-.495-1-1.106V63.105c0-.61.448-1.105 1-1.105s1 .494 1 1.105v11.79c0 .61-.448 1.105-1 1.105" fill="#000"/><path d="M167.966 96c-.514 0-.96-.399-1.023-.944-.637-5.453-2.128-18.225-4.987-20.243-2.617-1.846-11.151-4.687-11.237-4.715-.542-.18-.843-.785-.67-1.35.173-.566.755-.877 1.297-.697.363.12 8.906 2.964 11.768 4.984 3.028 2.138 4.494 9.912 5.878 21.762.069.588-.334 1.124-.9 1.195a1.003 1.003 0 0 1-.126.008m-27.083 5c-16.784 0-26.683-4.432-27.259-4.697a1.075 1.075 0 0 1-.616-1.107c1.433-11.867 2.95-19.65 6.088-21.79 2.954-2.014 12.137-5.212 12.527-5.346a1.067 1.067 0 0 1 1.36.665 1.077 1.077 0 0 1-.663 1.367c-.093.032-9.305 3.24-12.025 5.095-2.821 1.926-4.358 13.633-5.067 19.454 3.776 1.472 22.241 7.72 49.46 1.357a1.068 1.068 0 0 1 1.284.803 1.077 1.077 0 0 1-.8 1.291c-9.164 2.143-17.321 2.907-24.289 2.908" fill="#000"/><path d="M156.156 29.986c-2.015-1.89-8.431-6.345-15.31-5.956-.013-.019-.024-.03-.024-.03s-15.305.442-14.81 13.49l2.714 8.796s2.706-1.383 5.174-3.366c.939-1.55 2.64-4.565 3.124-6.824 0 0 2.463 8.128 17.892 13.964.773.44 1.24.682 1.24.682 1.702-9.658 0-17.88 0-17.88 4.087 1.851 3.281 8.633 1.548 20.758C155.97 65.744 168.322 72 168.322 72c-5.418-7.718-1.083-12.832 1.084-26.395.112-.702.175-1.372.197-2.015l.262.254c1.728-13.186-13.71-13.858-13.71-13.858" fill="#F3B350"/><path d="M155.825 31.335c.172 0 .344.04.502.125 4.76 2.538 4.26 6.02 3.265 12.957-.29 2.021-.619 4.312-.899 7.043-.715 6.986 3.314 12.415 6.522 15.56-.84-4.233.471-9.573 1.751-14.79 1.206-4.91 2.453-9.988 1.667-13.544-1.812-8.2-13.555-8.76-13.674-8.765-.266-.01-.52-.12-.708-.306-3.39-3.348-8.878-5.513-13.98-5.513-4.553 0-8.334 1.725-10.647 4.855-4.688 6.342-1.593 13.202-.394 15.369 6.153-2.482 6.593-9.107 6.596-9.176.027-.48.377-.88.852-.973.474-.097.953.141 1.164.572 3.476 7.109 13.93 12.288 17.313 13.815 2.558-9.032-.275-15.692-.304-15.76-.18-.411-.077-.89.255-1.193a1.07 1.07 0 0 1 .719-.276zM168.34 72c-.196 0-.392-.054-.568-.164-.51-.321-12.478-8.01-11.19-20.588l.06-.576a1.064 1.064 0 0 1-1.215.305c-.555-.223-12.519-5.09-18.06-12.913-.87 2.782-3.02 6.867-8.274 8.548a1.066 1.066 0 0 1-1.204-.41c-.067-.096-6.481-9.69.022-18.487 2.723-3.686 7.113-5.715 12.36-5.715 5.492 0 11.403 2.284 15.188 5.844 2.326.173 13.273 1.46 15.248 10.393.89 4.03-.415 9.348-1.678 14.49-1.682 6.853-3.422 13.938.072 17.488.375.382.403.982.064 1.397a1.064 1.064 0 0 1-.825.388z" fill="#000"/><path d="M131.43 72a.608.608 0 0 1-.463-.203l-.859-1.023c-.184-.22-.127-.525.128-.682.256-.158.611-.107.796.11l.86 1.024c.184.218.127.524-.13.68a.633.633 0 0 1-.331.094" fill="#2D2E2C"/><path d="M75.105 71c.487-3.7 1.225-8.656 2.33-15.287 4.115-24.648-15.603-30.37-15.603-30.37-11.269-1.98-17.38 4.842-20.093 14.744-1.727 6.302-.075 20.798 1.355 30.513" fill="#9B7650"/><path d="M75.056 72a1.06 1.06 0 0 1-1.058-1.194c.546-4.149 1.329-9.29 2.327-15.284 1.636-9.805-.344-17.672-5.883-23.387-3.922-4.044-8.35-5.538-8.867-5.702-9.453-1.635-15.762 3.058-18.744 13.954-1.274 4.652-.786 15.307 1.376 30.003a1.058 1.058 0 0 1-.9 1.198 1.062 1.062 0 0 1-1.21-.893c-1.559-10.594-3.053-24.549-1.323-30.863 3.281-11.987 10.63-17.334 21.239-15.469a.827.827 0 0 1 .113.026c.212.062 5.235 1.558 9.779 6.205 4.185 4.28 8.714 12.14 6.524 25.273-.994 5.97-1.775 11.088-2.317 15.212-.07.533-.528.921-1.056.921" fill="#000"/><path d="M77.686 72.391c-1.798-.727-4.16-1.64-6.841-2.474l.542-.567-4.876-1.127.101 3.1c-2.185 2.056-5.016 3.3-8.112 3.3-3.134 0-5.997-1.272-8.194-3.375V68l-4.873 1.453a19.39 19.39 0 0 0-2.457.734l-.014.004h.001c-3.756 1.408-7.936 4.411-9.025 10.818 0 0-4.36 12.348 0 13.638 4.36 1.292 36.686 7.72 51.062-1.642 0 0-1.227-18.152-7.314-20.614" fill="#FFD621"/><path d="M72.977 48.09c-.44-7.684-4.515-14.935-9.245-16.593-4.728-1.657-11.446 1.358-11.446 1.358s-5.707 2.317-6.933 10c-1.225 7.683.991 15.367 2.751 17.817 1.761 2.45 1.98 2.338 1.872 5.79-.086 2.662.358 6.383.565 7.947 1.207.787 2.89 1.644 5.148 2.318 3.342.58 7.825.464 11.785-2.632V63.233s5.943-7.46 5.503-15.144" fill="#F5C294"/><path d="M58.027 77c-3.218 0-7.104-1.539-9.529-3.064-.514-.324-.652-.98-.31-1.465.343-.486 1.037-.617 1.552-.294 2.075 1.306 5.553 2.71 8.287 2.71.57 0 1.147-.035 1.712-.103.613-.072 1.174.336 1.252.915.078.578-.356 1.107-.97 1.18-.658.08-1.329.121-1.994.121" fill="#000"/><path d="M62.157 77c-.498 0-.958-.318-1.108-.807a1.126 1.126 0 0 1 .776-1.408c1.714-.501 4.1-1.646 5.316-2.553a1.176 1.176 0 0 1 1.622.212c.388.497.29 1.207-.219 1.586-1.45 1.08-4.053 2.336-6.055 2.921-.11.032-.222.049-.332.049" fill="#000"/><path d="M58.333 65.607c-3.188 0-6.1-1.296-8.333-3.434v2.49c2.466 3.091 10.709 12.168 16.823 4.04.338-.45.103-5.247.024-6.703-2.256 2.242-5.24 3.607-8.514 3.607" fill="#DC9A70"/><path d="M59 32.148c-7.084 0-12.847 5.727-12.847 12.768v7.166c0 7.04 5.763 12.77 12.847 12.77s12.847-5.73 12.847-12.77v-7.166c0-7.04-5.763-12.768-12.847-12.768zM59 67c-8.27 0-15-6.692-15-14.918v-7.166C44 36.691 50.73 30 59 30c8.271 0 15 6.691 15 14.916v7.166C74 60.308 67.271 67 59 67z" fill="#000"/><path d="M68 75c-.552 0-1-.503-1-1.12V62.12c0-.618.448-1.12 1-1.12s1 .502 1 1.12v11.76c0 .617-.448 1.12-1 1.12m-19 0c-.552 0-1-.503-1-1.12V62.12c0-.618.448-1.12 1-1.12s1 .502 1 1.12v11.76c0 .617-.448 1.12-1 1.12" fill="#2D2E2C"/><path d="M58.65 43.991l1.373-5.663 2.675 5.401c3.294-.352 7.042-1.066 11.302-2.268C72.791 34.401 66.486 29 58.908 29 51.656 29 45.57 33.948 44 40.561c2.718 1.774 7.315 3.581 14.65 3.43" fill="#9B7650"/><path d="M56.665 45c-7.314 0-12.921-3.646-13.18-3.818a1.082 1.082 0 0 1-.31-1.494 1.065 1.065 0 0 1 1.482-.31c.062.04 6.096 3.945 13.432 3.412l1.035-5.9a1.067 1.067 0 1 1 2.062-.175l1.934 5.465c1.916-.218 6.787-.853 10.493-2.008a1.07 1.07 0 0 1 1.34.712 1.08 1.08 0 0 1-.707 1.349c-4.908 1.53-11.475 2.157-11.752 2.184a1.07 1.07 0 0 1-1.107-.712l-.859-2.426-.472 2.697c-.083.47-.462.829-.933.884a21.34 21.34 0 0 1-2.458.14m28.286 49c-.521 0-.972-.39-1.037-.924-.636-5.249-2.123-17.544-4.97-19.484-2.613-1.778-11.129-4.513-11.215-4.54a1.052 1.052 0 0 1-.68-1.32 1.047 1.047 0 0 1 1.316-.683c.362.116 8.892 2.856 11.754 4.803 3.028 2.064 4.492 9.554 5.873 20.97A1.05 1.05 0 0 1 84.952 94m-26.595 4c-16.46 0-26.17-4.295-26.735-4.551a1.056 1.056 0 0 1-.614-1.09c1.406-11.498 2.895-19.041 5.976-21.118 2.898-1.954 11.905-5.052 12.288-5.183a1.065 1.065 0 0 1 1.353.656 1.056 1.056 0 0 1-.66 1.345c-.09.032-9.12 3.137-11.785 4.934-2.76 1.86-4.265 13.18-4.96 18.82 3.728 1.433 21.818 7.466 48.474 1.308a1.058 1.058 0 1 1 .482 2.062C73.188 97.259 65.19 98 58.357 98" fill="#000"/><path d="M101.5 25C92.388 25 85 32.382 85 41.49v10.906c0 5.08 2.303 9.625 5.92 12.65V85l21.162-.213V65.045A16.447 16.447 0 0 0 118 52.395V41.49c0-9.108-7.387-16.49-16.5-16.49" fill="#F5C294"/><path d="M100.803 67.967c-3.75 0-7.176-1.426-9.803-3.777v2.74c2.901 3.4 12.599 13.384 19.791 4.444.398-.496.122-5.773.03-7.374-2.655 2.465-6.166 3.967-10.018 3.967" fill="#DC9A70"/><path d="M127.338 78.269c-2.373-.872-5.493-1.968-9.033-2.968l.716-.68-6.44-1.354.132 3.72A16.428 16.428 0 0 1 102 80.946c-4.14 0-7.92-1.528-10.821-4.05V73l-6.437 1.745a27.09 27.09 0 0 0-3.245.88l-.019.005c-4.959 1.69-10.48 5.291-11.918 12.982 0 0-5.758 14.817 0 16.365 5.758 1.55 48.454 9.263 67.441-1.972 0 0-1.62-21.783-9.662-24.736" fill="#4AD8FF"/><path d="M100.908 83c-3.523 0-7.785-1.967-10.446-3.915-.477-.348-.605-1.055-.288-1.579.317-.523.962-.663 1.438-.315 2.401 1.757 6.206 3.531 9.296 3.531.642 0 1.289-.045 1.924-.134.568-.08 1.087.362 1.16.986.072.624-.33 1.194-.898 1.275-.721.1-1.457.151-2.186.151m4.233-1c-.491 0-.945-.303-1.093-.772-.18-.572.162-1.175.767-1.347 1.03-.293 4.535-1.35 6.35-2.66.5-.361 1.218-.27 1.601.204a1.045 1.045 0 0 1-.216 1.517c-2.064 1.491-5.638 2.603-7.08 3.012-.108.03-.22.046-.329.046M101.5 28.156c-8.478 0-15.375 6.972-15.375 15.542v8.604c0 8.57 6.897 15.543 15.374 15.543 8.479 0 15.376-6.974 15.376-15.543v-8.604c0-8.57-6.897-15.542-15.376-15.542zm0 41.844C91.85 70 84 62.06 84 52.302v-8.604C84 33.94 91.85 26 101.5 26c9.649 0 17.5 7.94 17.5 17.698v8.604C119 62.06 111.149 70 101.5 70z" fill="#000"/><path d="M112 79c-.554 0-1-.46-1-1.03V65.03c0-.568.446-1.03 1-1.03.552 0 1 .462 1 1.03v12.94c0 .57-.448 1.03-1 1.03m-21 0c-.552 0-1-.473-1-1.06V65.06c0-.586.448-1.06 1-1.06s1 .474 1 1.06v12.88c0 .587-.448 1.06-1 1.06" fill="#000"/><path d="M135.946 105c-.52 0-.97-.392-1.042-.93-1.402-10.638-3.296-21.801-6.724-23.944-3.52-2.2-16.291-5.982-16.42-6.02a1.077 1.077 0 0 1-.718-1.33c.161-.569.742-.9 1.303-.733.537.158 13.175 3.903 16.936 6.253 3.934 2.46 5.928 11.969 7.71 25.487a1.07 1.07 0 0 1-1.045 1.217m-34.824 5c-22.112 0-35.282-5.304-35.465-5.38a1.065 1.065 0 0 1-.648-1.124c1.8-13.397 3.811-22.82 7.786-25.257 3.796-2.329 16.56-6.04 17.101-6.196a1.064 1.064 0 0 1 .59 2.044c-.129.037-13.027 3.786-16.58 5.966-3.37 2.066-5.271 12.604-6.676 22.886 4.505 1.607 28.67 9.193 64.489 1.66a1.064 1.064 0 0 1 .437 2.082c-11.632 2.446-22.07 3.318-31.034 3.319" fill="#000"/><path d="M111.684 22.482a11.079 11.079 0 0 0-3.306-2.014l-.002.001c-2.646-1.04-5.617-1.177-8.763-1.45-5.068-.442-14.948 7.215-14.948 7.215s-.578 2.168-1.4 4.96c-.824 2.791-1.781 9.546-.937 11.055.844 1.51 8.183-1.987 10.632-2.855 2.45-.87 1.712-.33 2.516 0 .805.33 1.765-.783 6.17-2.772 4.406-1.99 7.071-4.622 7.071-4.622s0 .356.444 2.484c.44 2.129 3.296 6.304 6.707 9.492 3.406 3.188 3.483-1.723 4.075-5.752v-.003c.046-.31.06-.634.052-.968.193-7.344-4.808-12.248-8.311-14.77" fill="#9B7650"/><path d="M110.155 32.56c.598 0 1.084.468 1.089 1.048.037 5.248 5.142 9.176 7.49 10.706 1.721-6.073 1.401-11.19-.953-15.227-3.4-5.826-9.927-7.4-9.993-7.414a1.146 1.146 0 0 1-.301-.12c-4.563-2.633-12.684-1.754-19.702 3.743l.295-.074a1.094 1.094 0 0 1 1.3.674 1.046 1.046 0 0 1-.584 1.314c-.315.14-7.554 3.516-5.142 15.33 2.995-1.05 11.196-4.324 14.639-9.679.316-.49.978-.643 1.487-.343.507.3.674.94.374 1.438a64.406 64.406 0 0 1-2.794 4.196c3.575-1.699 8.6-4.413 11.398-7.377a1.11 1.11 0 0 1 1.537-.064c.443.393.472 1.062.067 1.493-.115.123-.235.244-.356.366a.821.821 0 0 1 .15-.01zM119.373 47c-.178 0-.357-.043-.517-.127-.398-.21-9.73-5.212-9.788-13.249 0-.066.006-.132.018-.195-5.35 4.697-14.625 8.335-15.05 8.5-.48.186-1.028.02-1.312-.4a1.033 1.033 0 0 1-.164-.758c-4.547 2.708-9.086 4.073-9.393 4.163-.287.085-.597.05-.857-.095a1.058 1.058 0 0 1-.516-.67c-1.98-8.06.096-12.98 2.35-15.77a1.1 1.1 0 0 1-1.155-.492 1.032 1.032 0 0 1 .135-1.26c8.564-8.985 19.397-10.3 25.336-6.99 1.146.301 7.627 2.24 11.213 8.388 2.831 4.855 3.08 10.984.738 18.215a1.072 1.072 0 0 1-.63.663c-.13.05-.268.077-.408.077z" fill="#000"/></g></g></svg>