<svg width="141" height="120" xmlns="http://www.w3.org/2000/svg"><g fill="none" fill-rule="evenodd"><path d="M102.376 13.977c0-.234.117-.352.352-.352h1.464v-1.544c0-.234.128-.352.384-.352h1.792c.235 0 .352.118.352.352v1.544h1.464c.096 0 .179.031.248.092.07.062.104.148.104.26v1.624c0 .08-.032.164-.096.252a.301.301 0 0 1-.256.132h-1.464v1.552c0 .096-.03.18-.088.248-.059.07-.147.104-.264.104h-1.792a.433.433 0 0 1-.252-.096.301.301 0 0 1-.132-.256v-1.552h-1.464c-.235 0-.352-.128-.352-.384v-1.624zm34.36 9.443c0-.144.072-.216.215-.216h.895v-.943c0-.144.078-.215.234-.215h1.095c.144 0 .215.071.215.215v.943h.895c.059 0 .11.019.152.056a.2.2 0 0 1 .063.16v.991c0 .05-.02.1-.059.154a.184.184 0 0 1-.156.081h-.895v.948c0 .059-.017.11-.053.152-.036.042-.09.063-.162.063h-1.095c-.048 0-.1-.02-.154-.058a.184.184 0 0 1-.08-.157v-.948h-.895c-.143 0-.215-.078-.215-.235v-.992zm-3.764 22.337c0-.143.072-.215.215-.215h.895V44.6c0-.144.078-.215.234-.215h1.095c.144 0 .215.071.215.215v.943h.895c.059 0 .11.019.152.056a.2.2 0 0 1 .063.16v.992c0 .049-.02.1-.059.154a.184.184 0 0 1-.156.08h-.895v.949a.225.225 0 0 1-.053.151c-.036.043-.09.064-.162.064h-1.095c-.048 0-.1-.02-.154-.059a.184.184 0 0 1-.08-.156v-.949h-.895c-.143 0-.215-.078-.215-.234v-.993z" fill="#5DB746"/><circle stroke="#FFF" fill="#5DB746" cx="123.956" cy="27.309" r="1.5"/><path d="M34.812 17.817c0-.234.118-.352.352-.352h1.464v-1.544c0-.234.128-.352.384-.352h1.792c.235 0 .352.118.352.352v1.544h1.464c.096 0 .179.031.248.092.07.062.104.148.104.26v1.624c0 .08-.032.164-.096.252a.301.301 0 0 1-.256.132h-1.464v1.552c0 .096-.03.18-.088.248-.058.07-.146.104-.264.104h-1.792a.433.433 0 0 1-.252-.096.301.301 0 0 1-.132-.256v-1.552h-1.464c-.234 0-.352-.128-.352-.384v-1.624zM.5 55.757c0-.143.072-.215.215-.215h.895V54.6c0-.144.078-.215.234-.215H2.94c.144 0 .215.071.215.215v.943h.895a.22.22 0 0 1 .151.056c.043.038.064.09.064.16v.992c0 .049-.02.1-.059.154a.184.184 0 0 1-.156.08h-.895v.949a.23.23 0 0 1-.053.151c-.036.043-.09.064-.162.064H1.844c-.049 0-.1-.02-.154-.059a.184.184 0 0 1-.08-.156v-.949H.715c-.143 0-.215-.078-.215-.234v-.993zm10.472-31.456c0-.143.072-.215.215-.215h.895v-.943c0-.144.078-.216.234-.216h1.095c.144 0 .215.072.215.216v.943h.895c.059 0 .11.019.152.056.042.038.063.09.063.16v.991c0 .05-.02.1-.059.154a.184.184 0 0 1-.156.081h-.895v.948c0 .059-.017.11-.053.152-.036.042-.09.063-.162.063h-1.095c-.048 0-.1-.02-.154-.058a.184.184 0 0 1-.08-.157v-.948h-.895c-.143 0-.215-.078-.215-.235v-.992zM73.09 1.803c0-.144.072-.215.215-.215h.895V.644c0-.143.078-.215.234-.215h1.095c.144 0 .216.072.216.215v.944h.894c.059 0 .11.019.152.056.042.037.063.09.063.159v.992c0 .05-.02.1-.059.154a.184.184 0 0 1-.156.08h-.894v.95a.223.223 0 0 1-.054.15c-.036.043-.09.064-.162.064h-1.095c-.048 0-.1-.02-.154-.058a.184.184 0 0 1-.08-.157V3.03h-.895c-.143 0-.215-.078-.215-.235v-.992z" fill="#5DB746"/><circle stroke="#FFF" fill="#5DB746" cx="29.338" cy="40.309" r="1.5"/><circle fill="#E1E6E8" fill-rule="nonzero" cx="74.386" cy="70.614" r="48.614"/><g transform="translate(48 33)" fill-rule="nonzero"><circle fill="#DEAF73" cx="15.471" cy="11.614" r="10.216"/><path d="M40.378 43.351l-1.514-.354H14.738l-1.515.354a8.527 8.527 0 0 0-6.585 8.303V74.03h40.325V51.654c0-3.96-2.728-7.4-6.585-8.303z" fill="#86E56E"/><path d="M26.8 50.396c5.266 0 9.826-3.009 12.064-7.4l-3.19-.746a4.672 4.672 0 0 1-3.608-4.549v-5.333h-10.53V37.7a4.672 4.672 0 0 1-3.608 4.55l-3.19.746c2.237 4.39 6.797 7.399 12.063 7.399z" fill="#FAD7A5"/><path d="M32.066 37.701v-5.333h-10.53V37.7c0 .162-.01.322-.026.48a11.334 11.334 0 0 0 5.073 1.192c1.991 0 3.862-.512 5.491-1.409a4.732 4.732 0 0 1-.008-.263z" fill="#F0C891"/><path d="M26.583 36.805c-6.297 0-11.4-5.105-11.4-11.401v-9.321c0-6.296 5.104-11.4 11.4-11.4 6.297 0 11.4 5.104 11.4 11.4v9.32c0 6.297-5.103 11.402-11.4 11.402z" fill="#FFE1B3"/><path d="M28.478 4.842a11.388 11.388 0 0 1 4.985 9.424v9.32c0 6.297-5.104 11.401-11.4 11.401-.647 0-1.28-.056-1.896-.16a11.346 11.346 0 0 0 6.416 1.978c6.297 0 11.4-5.105 11.4-11.401v-9.321c0-5.65-4.11-10.338-9.505-11.241z" fill="#FAD7A5"/><g fill="#CD905A"><path d="M12.687 15.2h2.494v4.41h-2.494z"/><path d="M14.727 8.376a13.425 13.425 0 0 0-1.958 8.574 13.754 13.754 0 0 0 3.219-1.235 15.41 15.41 0 0 0 3.285-2.438l-4.546-4.901z"/></g><path d="M41.11 14.828c-.97-3.597-2.583-7.022-5.205-9.558-.85-.822-4.044-3.912-8.771-4.156 0 0-4.933-.255-9.192 3.37-1.286 1.093-2.344 2.419-3.215 3.892 3.964 5.672 9.912 9.28 16.562 9.28 1.638 0 5.06-.5 6.695-1.573l3.126-1.255z" fill="#D59F63"/><path d="M35.905 5.27c-.85-.822-4.044-3.912-8.771-4.156 0 0-1.196-.06-2.917.309 3.556.855 5.934 3.155 6.65 3.847 2.622 2.537 4.234 5.961 5.205 9.558l-3.126 1.255c-1.038.681-2.796 1.131-4.361 1.369.886.133 1.788.204 2.704.204 1.638 0 8.537-.073 10.172-1.146l-.35-1.682c-.972-3.597-2.584-7.022-5.206-9.558z" fill="#CD905A"/><path d="M40.398 27.288h-2.414V16.95h2.414c1.148 0 2.079.93 2.079 2.079v6.18c0 1.148-.93 2.079-2.079 2.079z" fill="#53515E"/><path fill="#474756" d="M37.984 16.95h1.918v10.338h-1.918z"/><path d="M12.768 16.95h2.414v10.338h-2.414a2.079 2.079 0 0 1-2.079-2.08V19.03c0-1.148.93-2.079 2.079-2.079z" fill="#53515E"/><path fill="#474756" d="M13.402 16.95h1.781v10.338h-1.781z"/><path d="M40.567 74.03h-27.78a2.005 2.005 0 0 1-2.004-2.005v-19.35a2.463 2.463 0 0 1 2.463-2.464h26.862a2.463 2.463 0 0 1 2.463 2.463v19.351a2.005 2.005 0 0 1-2.004 2.005z" fill="#E9EBF2"/><path d="M40.108 50.21h-2.704v1.906c0 9.705-7.867 17.572-17.572 17.572h-9.05v2.337c0 1.107.898 2.004 2.006 2.004h27.779a2.005 2.005 0 0 0 2.005-2.004v-19.35a2.464 2.464 0 0 0-2.464-2.464z" fill="#DFE2EA"/><circle fill="#FFF" cx="26.678" cy="62.121" r="2.698"/><path d="M51.714 75.14H1.12a1.11 1.11 0 0 1 0-2.22h50.595a1.11 1.11 0 0 1 0 2.22z" fill="#966D50"/><circle fill="#000" cx="22.062" cy="20.533" r="1.264"/><circle fill="#000" cx="30.655" cy="20.533" r="1.264"/><path d="M26.677 58.312a3.813 3.813 0 0 0-3.809 3.808c0 2.1 1.709 3.809 3.809 3.809s3.808-1.709 3.808-3.809-1.708-3.808-3.808-3.808zm0 5.396a1.59 1.59 0 0 1-1.588-1.588 1.59 1.59 0 0 1 1.588-1.588 1.59 1.59 0 0 1 1.588 1.588 1.59 1.59 0 0 1-1.588 1.588z" fill="#000"/><path d="M51.714 72.92h-3.64v-2.541a1.11 1.11 0 0 0-2.22 0v2.54h-2.305c.085-.283.132-.583.132-.894V52.674a3.577 3.577 0 0 0-3.573-3.573h-5.252a14.624 14.624 0 0 0 4.576-4.83l.695.162a7.387 7.387 0 0 1 5.727 7.223v13.493a1.11 1.11 0 0 0 2.22 0V51.656c0-4.5-3.06-8.359-7.442-9.384l-4.705-1.101a3.547 3.547 0 0 1-2.75-3.468V36.03a12.602 12.602 0 0 0 3.229-2.89 4.99 4.99 0 0 0 4.933-4.884 3.194 3.194 0 0 0 2.25-3.047v-6.18a3.192 3.192 0 0 0-2.431-3.094 1.102 1.102 0 0 0 1.025-1.397c-1.149-4.258-3.001-7.645-5.505-10.067-2.882-2.787-6.073-4.29-9.486-4.467-.166-.007-3.2-.136-6.637 1.487A11.352 11.352 0 0 0 15.471.289C9.226.29 4.146 5.37 4.146 11.615a11.3 11.3 0 0 0 5.433 9.674v3.92a3.193 3.193 0 0 0 3.19 3.19h1.668a12.556 12.556 0 0 0 5.989 7.89v1.414a3.548 3.548 0 0 1-2.75 3.468l-4.706 1.1a9.599 9.599 0 0 0-7.442 9.385V72.92h-4.41a1.11 1.11 0 0 0 0 2.22h50.597a1.11 1.11 0 0 0 0-2.22zM38.095 30.303c.261-.611.473-1.248.635-1.905h.38a2.763 2.763 0 0 1-1.015 1.905zm3.273-5.094a.97.97 0 0 1-.969.97h-1.304V18.06h1.304a.97.97 0 0 1 .969.968v6.18zM6.366 11.615c0-5.02 4.084-9.106 9.105-9.106.91 0 1.815.138 2.678.403-.31.225-.62.466-.927.727a1.11 1.11 0 1 0 1.44 1.69c3.849-3.276 8.373-3.109 8.415-3.106 2.861.148 5.572 1.441 8.057 3.845 2.212 2.14 3.862 5.184 4.906 9.05.094.35.347.612.66.738-.1-.01-.2-.015-.301-.015h-1.332a1.11 1.11 0 0 0-1.682-.69l-.01.004c-1.312.862-4.429 1.391-6.085 1.391-4.052 0-7.954-1.447-11.265-4.09l-3.906-4.211c.063-.097.127-.193.192-.287a1.11 1.11 0 0 0-1.827-1.262c-.24.348-.475.716-.698 1.091l-.001.001-.004.006-.01.017s0 .002-.002.003a14.495 14.495 0 0 0-2.178 8.254 3.194 3.194 0 0 0-1.978 2.52 9.083 9.083 0 0 1-3.247-6.973zm9.096 3.122c-.172.093-.347.18-.524.264-.15.034-.289.099-.41.187-.24.104-.483.202-.73.292a12.272 12.272 0 0 1 1.087-5.048 24.668 24.668 0 0 0 2.699 2.863 13.705 13.705 0 0 1-2.122 1.442zm-1.39 11.441h-1.304a.97.97 0 0 1-.969-.969v-4.247a1.106 1.106 0 0 0 0-.588v-1.345a.97.97 0 0 1 .97-.969h1.303v8.118zm2.22-.774v-8.597c.074-.038.148-.075.221-.114a16.275 16.275 0 0 0 2.82-1.969c3.548 2.617 7.671 4.042 11.957 4.042 1.383 0 3.723-.306 5.585-.951v7.59c0 2.029-.593 3.92-1.61 5.517h-7.502a1.11 1.11 0 0 0 0 2.22h5.595a10.246 10.246 0 0 1-6.774 2.554c-5.675 0-10.292-4.617-10.292-10.292zm1.89 17.928a5.759 5.759 0 0 0 4.464-5.63v-.425a12.46 12.46 0 0 0 8.311-.151v.577a5.76 5.76 0 0 0 4.464 5.63l1.729.404a12.359 12.359 0 0 1-7.707 5.269c-.094.02-.182.053-.264.094h-4.755a1.112 1.112 0 0 0-.264-.094 12.36 12.36 0 0 1-7.707-5.27l1.728-.404zM12.786 72.92a.896.896 0 0 1-.894-.895V58.106a1.11 1.11 0 0 0-2.22 0v13.919c0 .311.047.611.132.895H7.749V51.656a7.387 7.387 0 0 1 5.727-7.223l.694-.162a14.625 14.625 0 0 0 4.576 4.83h-5.5a3.577 3.577 0 0 0-3.574 3.573v1.276a1.11 1.11 0 0 0 2.22 0v-1.276c0-.746.608-1.353 1.354-1.353h26.862c.746 0 1.353.607 1.353 1.353v19.35a.896.896 0 0 1-.895.896H12.787z" fill="#000"/><path d="M26.624 29.972a5.075 5.075 0 0 1-3.613-1.496 1.1 1.1 0 1 1 1.556-1.557c.55.55 1.28.852 2.057.852a2.89 2.89 0 0 0 2.056-.852 1.1 1.1 0 1 1 1.556 1.557 5.075 5.075 0 0 1-3.612 1.496z" fill="#000"/></g></g></svg>