<svg width="142" height="102" xmlns="http://www.w3.org/2000/svg" xmlns:xlink="http://www.w3.org/1999/xlink"><defs><path id="a" d="M0 0h142v102H0z"/><path id="c" d="M0 .144h26.86V59H0z"/><path id="e" d="M.367.522h7.287v16.417H.367z"/></defs><g fill="none" fill-rule="evenodd"><mask id="b" fill="#fff"><use xlink:href="#a"/></mask><use fill="#FFF" xlink:href="#a"/><g mask="url(#b)"><path d="M98.091 99H88.91C86.202 99 84 96.756 84 93.998 84 91.242 86.202 89 88.909 89h9.182c2.707 0 4.909 2.242 4.909 4.998 0 2.758-2.202 5.002-4.909 5.002m2.005-13h-9.191C88.201 86 86 83.758 86 81c0-2.757 2.2-5 4.905-5h9.191C102.8 76 105 78.243 105 81c0 2.758-2.2 5-4.904 5" fill="#FAE162"/><path d="M39 108.833c0 1.746-1.375 3.167-3.063 3.167H23.062c-1.69 0-3.062-1.42-3.062-3.167V63.17c0-1.75 1.373-3.17 3.062-3.17h12.875C37.625 60 39 61.42 39 63.17v45.663z" fill="#00CDD6"/><path d="M129.13 74.965h-22.91c-1.534-1.752-3.754-2.882-6.252-2.882h-9.125c-4.614 0-8.365 3.773-8.365 8.409a8.39 8.39 0 0 0 2.39 5.865c-2.69 1.4-4.55 4.193-4.55 7.44 0 1.888.644 3.615 1.694 5.02-4.044.59-7.17 4.064-7.17 8.287 0 1.83.602 3.514 1.594 4.896h-11.11c-8.73 0-17.032-4.174-22.326-11.194V66.784a28.27 28.27 0 0 1 9.584-8.074c2.178-1.123 4.26-2.698 6.554-4.96 5.566-5.499 8.746-13.247 8.724-21.252l-.001-.603a4.881 4.881 0 0 1 1.923-3.886c1.23-.947 2.76-1.241 4.294-.824 2.043.555 3.526 2.635 3.523 4.97l.014 1.567c.07 7.91-.522 15.876-1.762 23.681-.357 2.234-.588 4.1-.725 5.873l-1.006 12.979c0 7.656-6.196 13.886-13.812 13.886-.965 0-1.747.788-1.747 1.756 0 .97.782 1.757 1.747 1.757 9.542 0 17.306-7.805 17.3-17.262l.875-11.222h50.644c2.686 0 4.871 2.198 4.871 4.899 0 2.7-2.185 4.896-4.87 4.896" fill="#FAE162"/><path d="M127.635 74.462h-22.913c-1.534-1.751-3.754-2.88-6.252-2.88h-9.127c-4.614 0-8.366 3.772-8.366 8.405 0 2.282.916 4.348 2.39 5.865-2.69 1.4-4.55 4.19-4.55 7.437 0 1.889.644 3.615 1.694 5.02-4.045.589-7.17 4.062-7.17 8.285a8.36 8.36 0 0 0 1.593 4.894h-11.11c-8.731 0-17.035-4.173-22.33-11.191V66.283a28.271 28.271 0 0 1 9.586-8.072c2.178-1.123 4.26-2.697 6.554-4.958 5.567-5.498 8.747-13.244 8.725-21.248v-.603a4.88 4.88 0 0 1 1.922-3.885c1.231-.947 2.761-1.24 4.295-.823 2.044.554 3.526 2.634 3.524 4.968l.013 1.567a142.998 142.998 0 0 1-1.762 23.676c-.356 2.233-.587 4.099-.725 5.871L72.62 75.751c0 7.655-6.196 13.884-13.814 13.884-.965 0-1.747.787-1.747 1.755 0 .97.782 1.757 1.747 1.757 9.544 0 17.308-7.804 17.303-17.258l.875-11.22h50.65c2.686 0 4.872 2.198 4.872 4.898 0 2.7-2.186 4.895-4.871 4.895zM98.47 84.882h-9.127c-2.686 0-4.872-2.194-4.872-4.895 0-2.7 2.186-4.894 4.872-4.894h9.127c2.685 0 4.87 2.195 4.87 4.894 0 2.7-2.185 4.896-4.87 4.896zM82.31 93.29c0-2.7 2.186-4.895 4.872-4.895h9.112c2.687 0 4.871 2.195 4.871 4.895 0 2.7-2.184 4.898-4.871 4.898h-9.112c-2.686 0-4.871-2.198-4.871-4.898zm-.604 18.2c-2.686 0-4.871-2.195-4.871-4.895 0-2.7 2.185-4.896 4.871-4.896h8.98c2.686 0 4.871 2.196 4.871 4.896 0 2.7-2.185 4.894-4.871 4.894h-8.98zm45.929-50.331H77.302c.128-1.139.282-2.332.5-3.699a146.568 146.568 0 0 0 1.805-24.263l-.014-1.548c.005-3.94-2.508-7.372-6.108-8.346-2.568-.697-5.245-.175-7.329 1.427a8.373 8.373 0 0 0-3.292 6.676l.002.609c.019 7.065-2.78 13.894-7.68 18.731-2.033 2.006-3.844 3.386-5.697 4.338a31.805 31.805 0 0 0-11.153 9.584A1.748 1.748 0 0 0 38 65.702v35.177c0 .37.117.733.335 1.032C44.263 110.108 53.793 115 63.824 115h27.009c4.612 0 8.364-3.773 8.364-8.406 0-1.887-.644-3.612-1.693-5.017 4.044-.59 7.17-4.062 7.17-8.288a8.39 8.39 0 0 0-2.389-5.864c2.688-1.4 4.549-4.191 4.549-7.438 0-.697-.11-1.365-.27-2.013h21.07c4.614 0 8.366-3.773 8.366-8.407 0-4.637-3.752-8.41-8.365-8.41z" fill="#111"/><g transform="translate(15 56)"><mask id="d" fill="#fff"><use xlink:href="#c"/></mask><path d="M23.316 52.33c0 1.74-1.43 3.156-3.187 3.156H6.73c-1.757 0-3.186-1.416-3.186-3.156V6.817c0-1.744 1.429-3.16 3.186-3.16h13.4c1.756 0 3.187 1.416 3.187 3.16V52.33zM20.129.144H6.73C3.02.144 0 3.14 0 6.817V52.33C0 56.008 3.02 59 6.73 59h13.4c3.711 0 6.731-2.992 6.731-6.67V6.817c0-3.678-3.02-6.673-6.731-6.673z" fill="#111" mask="url(#d)"/></g><path d="M27.5 98c-.828 0-1.5.791-1.5 1.764v5.472c0 .973.672 1.764 1.5 1.764s1.5-.791 1.5-1.764v-5.472c0-.973-.672-1.764-1.5-1.764" fill="#111"/><g transform="translate(103 13)"><mask id="f" fill="#fff"><use xlink:href="#e"/></mask><path d="M6.517.61c-.87-.304-1.798.2-2.082 1.12L.45 14.64c-.285.919.187 1.91 1.054 2.211.17.06.344.088.514.088.694 0 1.34-.469 1.567-1.208l3.986-12.91c.285-.918-.187-1.91-1.054-2.21" fill="#111" mask="url(#f)"/></g><path d="M126.823 46.467l-12.58-4.374c-.903-.318-1.862.206-2.157 1.158-.295.948.193 1.973 1.09 2.284l12.581 4.374c.178.062.357.091.533.091.718 0 1.387-.484 1.624-1.248.295-.949-.194-1.974-1.091-2.285M112.797 37c.272 0 .55-.063.81-.196l12.409-6.362a1.831 1.831 0 0 0 .79-2.443 1.781 1.781 0 0 0-2.412-.802l-12.41 6.362a1.83 1.83 0 0 0-.79 2.444 1.79 1.79 0 0 0 1.603.997M91.442 15.985a1.83 1.83 0 0 0-2.444-.79 1.782 1.782 0 0 0-.801 2.41l6.361 12.41c.32.626.961.985 1.624.985.276 0 .557-.062.82-.194a1.783 1.783 0 0 0 .802-2.412l-6.362-12.41z" fill="#111"/></g></g></svg>