<svg id="Layer_1" xmlns="http://www.w3.org/2000/svg" viewBox="0 0 141 120"><style>.st2,.st3{fill:#0084ff}.st3{stroke:#fff}.st20{fill:#ff991f}</style><g id="Page-1_2_"><g id="Home-Page--Copy-2_2_" transform="translate(-185 -1660)"><g id="Group-12_2_"><path id="_x2B_-copy-11_2_" class="st2" d="M287.4 1674c0-.2.1-.4.4-.4h1.5v-1.5c0-.2.1-.4.4-.4h1.8c.2 0 .4.1.4.4v1.5h1.5c.1 0 .2 0 .2.1.1.1.1.1.1.3v1.6c0 .1 0 .2-.1.3-.1.1-.1.1-.3.1h-1.5v1.6c0 .1 0 .2-.1.2-.1.1-.1.1-.3.1h-1.8c-.1 0-.2 0-.3-.1-.1-.1-.1-.1-.1-.3v-1.6h-1.5c-.2 0-.4-.1-.4-.4v-1.5z"/><path id="_x2B_-copy-12_2_" class="st2" d="M321.7 1683.4c0-.1.1-.2.2-.2h.9v-.9c0-.1.1-.2.2-.2h1.1c.1 0 .2.1.2.2v.9h.9c.1 0 .1 0 .2.1s.1.1.1.2v1s0 .1-.1.2c0 .1-.1.1-.2.1h-.9v.9c0 .1 0 .1-.1.2 0 0-.1.1-.2.1h-1.1s-.1 0-.2-.1c-.1 0-.1-.1-.1-.2v-.9h-.6c-.1 0-.2-.1-.2-.2v-1.2z"/><path id="_x2B_-copy-13_2_" class="st2" d="M318 1705.8c0-.1.1-.2.2-.2h.9v-.9c0-.1.1-.2.2-.2h1.1c.1 0 .2.1.2.2v.9h.9c.1 0 .1 0 .2.1 0 0 .1.1.1.2v1s0 .1-.1.2c0 .1-.1.1-.2.1h-.9v.9c0 .1 0 .1-.1.2 0 0-.1.1-.2.1h-1.1s-.1 0-.2-.1c-.1 0-.1-.1-.1-.2v-.9h-.9c-.1 0-.2-.1-.2-.2v-1.2z"/><circle id="Oval-7-Copy-6_2_" class="st3" cx="309" cy="1687.3" r="1.5"/><g id="Group-11_2_"><path id="_x2B_-copy-14_2_" class="st2" d="M219.8 1677.8c0-.2.1-.4.4-.4h1.5v-1.5c0-.2.1-.4.4-.4h1.8c.2 0 .4.1.4.4v1.5h1.5c.1 0 .2 0 .2.1.1.1.1.1.1.3v1.6c0 .1 0 .2-.1.3-.1.1-.1.1-.3.1h-1.5v1.6c0 .1 0 .2-.1.2-.1.1-.1.1-.3.1H222c-.1 0-.2 0-.3-.1-.1-.1-.1-.1-.1-.3v-1.6h-1.5c-.2 0-.4-.1-.4-.4v-1.5z"/><path id="_x2B_-copy-15_2_" class="st2" d="M185.5 1715.8c0-.1.1-.2.2-.2h.9v-.9c0-.1.1-.2.2-.2h1.1c.1 0 .2.1.2.2v.9h.9c.1 0 .1 0 .2.1 0 0 .1.1.1.2v1s0 .1-.1.2c0 .1-.1.1-.2.1h-.9v.9c0 .1 0 .1-.1.2 0 0-.1.1-.2.1h-1.1s-.1 0-.2-.1c-.1 0-.1-.1-.1-.2v-.9h-.9c-.1 0-.2-.1-.2-.2v-1.2z"/><path id="_x2B_-copy-16_2_" class="st2" d="M196 1684.3c0-.1.1-.2.2-.2h.9v-.9c0-.1.1-.2.2-.2h1.1c.1 0 .2.1.2.2v.9h.9c.1 0 .1 0 .2.1 0 0 .1.1.1.2v1s0 .1-.1.2c0 .1-.1.1-.2.1h-.9v.9c0 .1 0 .1-.1.2 0 0-.1.1-.2.1h-1.1s-.1 0-.2-.1c-.1 0-.1-.1-.1-.2v-.9h-.9c-.1 0-.2-.1-.2-.2v-1.2z"/><path id="_x2B_-copy-17_2_" class="st2" d="M258.1 1661.8c0-.1.1-.2.2-.2h.9v-.9c0-.1.1-.2.2-.2h1.1c.1 0 .2.1.2.2v.9h.9c.1 0 .1 0 .2.1s.1.1.1.2v1s0 .1-.1.2c0 .1-.1.1-.2.1h-.9v.9c0 .1 0 .1-.1.2 0 0-.1.1-.2.1h-1.1s-.1 0-.2-.1c-.1 0-.1-.1-.1-.2v-.9h-.9c-.1 0-.2-.1-.2-.2v-1.2z"/><circle id="Oval-7-Copy-5_2_" class="st3" cx="214.3" cy="1700.3" r="1.5"/></g></g></g></g><circle id="Oval_7_" cx="74.4" cy="70.6" r="48.6" fill="#e1e6e8"/><path d="M52.5 75.5L74 96.9c1 1 2.7 1 3.7 0s1-2.7 0-3.7l-1.4-1.4 1.3 1.3c1.1 1.1 2.8 1.1 3.8 0 1.1-1.1 1.1-2.8-.1-3.9l-2.8-2.7 2.6 2.5c1.2 1.2 3.2 1.1 4.4-.2 1.1-1.2 1.1-3.1-.1-4.2l-2.7-2.7 2.7 2.7c1.2 1.2 3 1.2 4.2 0 1.2-1.2 1.2-3 0-4.2L74.1 65h-5.3l-2.9-2.9-13.4 13.4z" fill="#ffd41d"/><path class="st20" d="M83 62.5L80.5 65h-6.8l-7.4 7.4c-1.1 1.1-1.1 2.9 0 4s2.9 1.1 4 0l4.7-4.7 5.8.1 8.8 8.7 5.9-5.4L83 62.5z"/><circle class="st20" cx="60.5" cy="83.4" r="3.1"/><circle class="st20" cx="65" cy="87.9" r="3.1"/><circle class="st20" cx="69.4" cy="92.4" r="3.1"/><path d="M58.1 52.1L42.4 67.9l7.7 7.7c.6.6 1.7.6 2.3 0l13.4-13.4c.6-.6.6-1.7 0-2.3l-7.7-7.8z" fill="#92e03f"/><path class="st2" d="M90.6 52.1l15.8 15.8-7.7 7.7c-.6.6-1.7.6-2.3 0L82.9 62.2c-.6-.6-.6-1.7 0-2.3l7.7-7.8z"/><path d="M107.3 66.9L95 54.6c-.5-.5-1.3-.5-1.8 0s-.5 1.3 0 1.8l11.4 11.4-6.7 6.7c-.2.2-.5.2-.7 0L84 61.4c-.2-.2-.2-.5 0-.7l4.5-4.5c.5-.5.5-1.3 0-1.8s-1.3-.5-1.8 0l-4.5 4.5c-.9.9-1.1 2.3-.7 3.4L80 63.8H69.4l-1.9-1.9c.1-.3.1-.5.1-.8 0-.8-.3-1.6-.9-2.2l-4.4-4.4c-.5-.5-1.3-.5-1.8 0s-.5 1.3 0 1.8l4.4 4.4c.1.1.2.3.2.4 0 .1 0 .2-.2.4l-.4.4-12.9 12.6c-.1.1-.3.1-.4.1-.1 0-.2 0-.4-.2l-6.7-6.7 11.6-11.6c.5-.5.5-1.3 0-1.8s-1.3-.5-1.8 0L41.5 66.9c-.5.5-.5 1.3 0 1.8l7.6 7.6c.6.6 1.4.9 2.2.9.4 0 .7-.1 1.1-.2l4.3 4.3c-.3.6-.5 1.3-.5 2.1 0 2.5 2 4.4 4.4 4.4 0 2.4 2 4.4 4.4 4.4 0 2.5 2 4.4 4.4 4.4.8 0 1.5-.2 2.1-.5l1.6 1.6c.7.7 1.7 1.2 2.8 1.2 1.1 0 2-.4 2.8-1.2.7-.7 1.1-1.6 1.2-2.6 1 0 1.9-.4 2.6-1.2.8-.8 1.2-1.8 1.2-2.9 1.1-.1 2.2-.6 2.9-1.4.8-.8 1.2-1.9 1.2-3 1.1 0 2.1-.5 2.9-1.2.8-.8 1.2-1.9 1.2-3 0-.7-.2-1.3-.5-1.9l4.3-3.9c.5.4 1.2.6 1.8.6.8 0 1.6-.3 2.2-.9l7.6-7.6c.5-.4.5-1.3 0-1.8zm-26.8-.6c.3 0 .7-.1.9-.4l1.7-1.7 10.7 10.7-4.1 3.7-7.9-7.8c-.3-.3-.7-.4-1.1-.4l-5.7-.1c-.4 0-.7.1-.9.4l-4.7 4.7c-.3.3-.7.5-1.1.5-.4 0-.8-.2-1.1-.5-.3-.3-.5-.7-.5-1.1s.2-.8.5-1.1l7-7h6.3v.1zM58.7 83.4c0-1 .8-1.8 1.8-1.8s1.8.8 1.8 1.8-.8 1.8-1.8 1.8c-1 .1-1.8-.7-1.8-1.8zm6.3 6.3c-1 0-1.8-.8-1.8-1.8s.8-1.8 1.8-1.8 1.8.8 1.8 1.8c0 .5-.2.9-.5 1.2l-.2.2c-.2.3-.6.4-1.1.4zm2.6 2.7c0-.5.2-.9.5-1.2l.2-.2c.3-.3.8-.5 1.2-.5 1 0 1.8.8 1.8 1.8 0 .5-.2 1-.5 1.3-.3.3-.8.5-1.3.5-1.1.1-1.9-.7-1.9-1.7zm21.2-8.7c-.3.3-.7.5-1.2.5s-.9-.2-1.2-.5L83.8 81c-.5-.5-1.3-.5-1.8 0s-.5 1.3 0 1.8l2.7 2.7c.7.7.7 1.7.1 2.4-.3.4-.8.6-1.2.6-.5 0-.9-.2-1.3-.5l-2.6-2.5c-.5-.5-1.3-.5-1.8.1-.5.5-.5 1.3.1 1.8l2.8 2.7c.3.3.4.6.4 1s-.1.7-.4 1c-.6.6-1.5.6-2 0l-1.3-1.3c-.5-.5-1.3-.5-1.8 0-.3.3-.4.6-.4.9 0 .3.1.7.4.9l1.4 1.4c.3.3.4.6.4 1s-.1.7-.4 1c-.3.3-.6.4-1 .4s-.7-.1-1-.4l-1.6-1.6c.3-.6.5-1.3.5-2.1 0-2.4-2-4.4-4.4-4.4 0-2.5-2-4.4-4.4-4.4 0-2.5-2-4.4-4.4-4.4-.8 0-1.5.2-2.1.5l-4.1-4.1L66.1 64l2 2c.2.2.6.4.9.4h1.7l-5.1 5.1c-.8.8-1.2 1.8-1.2 2.9 0 1.1.4 2.2 1.2 2.9.8.8 1.8 1.2 2.9 1.2s2.2-.4 2.9-1.2l4.4-4.4 4.8.1 8.4 8.3c.3.3.5.7.5 1.2-.2.5-.4.9-.7 1.2z"/><circle cx="98.1" cy="68.5" r="1.3"/><circle cx="50.5" cy="68.6" r="1.3"/><circle cx="58.1" cy="52.4" r="1.3"/><circle cx="90.6" cy="52.3" r="1.3"/></svg>