<svg id="Layer_1" xmlns="http://www.w3.org/2000/svg" viewBox="0 0 100 60"><style>.st1{fill:#f5f5f5}</style><path d="M100 60V1.7c0-1-.8-1.7-1.7-1.7H1.7C.8 0 0 .8 0 1.7V60h100z" fill="#ff4b55"/><path class="st1" d="M43.8 35.3c-2.2 0-4.6-.7-6.8-3-.1-.2-.1-.4 0-.6.2-.1.4-.1.5 0 3.3 3.6 7.3 3 9.7 2.1-.9 0-2 0-2.7-.5-3-2-1.6-4.1-3.6-6.6s-3.8-2.5-6.6-2c-2.8.4-3.7-1.6-4-2.8 0-.2-.3-.2-.4 0-3.5 9.4 7 21 17.7 12.6-.9.4-2.3.8-3.8.8zM36 32.1c-.1.2-.3.2-.4 0l-.4-1.3h-1.4c-.2 0-.2-.2-.1-.3l1.1-.8-.4-1.3c0-.2.1-.3.3-.2l1.1.8 1.1-.8c.1-.1.3 0 .3.2l-.5 1.3 1.1.8c.1.1.1.3-.1.3h-1.4l-.3 1.3zM51.5 29c1.7-1.3 4.1-2.2 7.2-1.6.2 0 .4.3.3.5 0 .2-.3.3-.5.3-4.8-.9-7.6 2-9 4.2.7-.6 1.6-1.2 2.5-1.2 3.6-.2 3.8 2.3 6.9 3.1 3.1.8 4.5-.3 6.5-2.3 2-2 3.9-.9 4.8-.2.2.1.4 0 .3-.2-2.8-9.6-18.2-12.6-21.7.5.7-1 1.5-2.2 2.7-3.1zm8.2-2.1c-.1-.2.1-.3.3-.2l1.1.8 1.1-.8c.1-.1.3 0 .3.2l-.4 1.3 1.1.8c.1.1.1.3-.1.3h-1.4l-.5 1.3c-.1.2-.3.2-.4 0l-.4-1.3H59c-.2 0-.2-.2-.1-.3l1.1-.8-.3-1.3z"/><path class="st1" d="M45.8 29.9c-.8-2-1.1-4.5.2-7.4.1-.2.3-.3.5-.2.2.1.3.3.2.5-2.1 4.4 0 7.9 1.8 9.8-.4-.8-.7-1.9-.6-2.7.7-3.5 3.1-3.1 4.7-5.9 1.6-2.8.8-4.4-.6-6.9-1.5-2.4.1-4 1-4.7.2-.1.1-.4-.1-.4-10 .4-16.8 14.4-5 21.2-.7-.8-1.5-1.9-2.1-3.3zm-.1-8.4c-.2 0-.3-.2-.1-.3l1.1-.9-.5-1.3c-.1-.2.1-.3.3-.2l1.2.7 1.1-.9c.1-.1.3 0 .3.2l-.4 1.3 1.1.8c.1.1.1.3-.1.3l-1.4.1-.3 1.4c0 .2-.3.2-.4 0l-.5-1.3-1.4.1zm7.9 13c1.8 1.2 3.4 3.2 3.8 6.3 0 .2-.1.4-.4.4-.2 0-.4-.1-.4-.3-.6-4.8-4.3-6.6-6.8-7.3.8.5 1.6 1.2 2 2 1.3 3.3-1 4.3-.8 7.5.2 3.2 1.7 4.2 4.2 5.4 2.5 1.2 2.1 3.4 1.7 4.5-.1.2.1.4.3.2 8.2-5.7 6.3-21.2-7.3-20.5 1.1.5 2.4.9 3.7 1.8zm4.6 7.1c.1-.1.3 0 .3.2l-.5 1.3 1.1.8c.1.1.1.3-.1.3h-1.4l-.4 1.3c-.1.2-.3.2-.4 0l-.4-1.3H55c-.2 0-.3-.2-.1-.3l1.1-.8-.4-1.3c-.1-.2.1-.3.3-.2l1.1.8 1.2-.8z"/><path class="st1" d="M49.1 38.4c-.6 2.1-2 4.2-4.9 5.6-.2.1-.4 0-.5-.2-.1-.2 0-.4.2-.5 4.4-2.1 5-6.1 4.9-8.7-.2.9-.6 1.9-1.3 2.5-2.8 2.3-4.4.4-7.4 1.5-3 1.2-3.5 2.9-3.9 5.7-.4 2.8-2.6 3-3.8 3-.2 0-.3.3-.1.4 7.9 6.1 22.1-.5 17.3-13.2 0 1-.1 2.4-.5 3.9zm-5.4 6.5c.1.1.1.3-.1.3h-1.4l-.5 1.3c-.1.2-.3.2-.4 0l-.3-1.3h-1.4c-.2 0-.2-.2-.1-.3l1.1-.8-.4-1.3c-.1-.2.1-.3.3-.2l1.1.8 1.1-.8c.1-.1.3 0 .3.2l-.4 1.3 1.1.8z"/></svg>