<svg width="89" height="89" xmlns="http://www.w3.org/2000/svg"><g fill="none" fill-rule="evenodd"><path fill="#FFF" d="M-426-836h1440v6760H-426z"/><g transform="translate(.66 .878)" fill-rule="nonzero"><ellipse fill="#D80027" cx="43.841" cy="43.885" rx="43.841" ry="43.885"/><path d="M48.367 33.2c-.997 4.148-2.767 3.357-3.636 6.975-5.117-1.232-8.269-6.383-7.038-11.507 1.23-5.122 6.376-8.277 11.494-7.045-1.738 7.235.071 7.866-.82 11.577zm-13.28 3.074c3.634 2.23 2.335 3.671 5.504 5.616-2.752 4.492-8.62 5.9-13.107 3.146-4.487-2.755-5.894-8.629-3.143-13.12 6.338 3.89 7.496 2.363 10.746 4.358zm-1.183 13.592c3.242-2.77 4.21-1.088 7.037-3.503 3.417 4.007 2.942 10.029-1.061 13.45a9.524 9.524 0 0 1-13.437-1.063c5.654-4.831 4.561-6.406 7.461-8.884zm12.549 5.327c-1.63-3.942.266-4.344-1.155-7.782 4.864-2.014 10.438.299 12.451 5.167 2.013 4.868-.298 10.448-5.162 12.463-2.842-6.875-4.676-6.322-6.134-9.848zm8.939-10.301c-4.25.334-4.046-1.596-7.75-1.305-.412-5.253 3.508-9.845 8.756-10.257 5.247-.412 9.835 3.513 10.246 8.765-7.411.582-7.452 2.5-11.252 2.797z" fill="#F0F0F0"/></g></g></svg>