<svg width="68" height="68" xmlns="http://www.w3.org/2000/svg"><g transform="translate(1 1)" fill="none" fill-rule="evenodd"><circle stroke="#000" cx="33" cy="33" r="33"/><g transform="translate(19 17)" fill-rule="nonzero"><path d="M20.61 26.126h6.49c.699 0 1.266-.56 1.266-1.25v-23c0-.691-.567-1.251-1.266-1.251H7.089c-.7 0-1.267.56-1.267 1.25v3.999l14.789 20.252z" fill="#C7DAFF"/><path d="M.635 7.124v23c0 .691.567 1.251 1.266 1.251h20.01c.7 0 1.267-.56 1.267-1.25V11.437l-5.636-5.563H1.902c-.7 0-1.267.56-1.267 1.25z" fill="#F4F8FF"/><ellipse fill="#FE7C7A" cx="11.907" cy="15.376" rx="4.939" ry="4.875"/><path d="M17.542 5.936v4.25c0 .69.567 1.25 1.266 1.25h4.306l-5.572-5.5z" fill="#C7DAFF"/><path d="M19.505 22.75H6.697a.63.63 0 0 0-.633.625.63.63 0 0 0 .633.625h12.808a.63.63 0 0 0 .633-.625.63.63 0 0 0-.633-.625zm-15.197 0a.626.626 0 0 0-.633.625.626.626 0 0 0 .633.625c.166 0 .33-.067.447-.184a.626.626 0 0 0 .186-.441.626.626 0 0 0-.633-.625zm15.197 4H6.697a.63.63 0 0 0-.633.625.63.63 0 0 0 .633.625h12.808a.63.63 0 0 0 .633-.625.629.629 0 0 0-.633-.625zm-15.197 0a.626.626 0 0 0-.633.625.626.626 0 0 0 .633.625.626.626 0 0 0 .633-.625.626.626 0 0 0-.633-.625zM9.59 16.001h1.683v1.661a.63.63 0 0 0 .633.625.63.63 0 0 0 .633-.625v-1.66h1.683a.63.63 0 0 0 .633-.626.63.63 0 0 0-.633-.625H12.54v-1.66a.63.63 0 0 0-.633-.626.63.63 0 0 0-.633.625v1.661H9.59a.63.63 0 0 0-.633.625.63.63 0 0 0 .633.625z" fill="#000"/><path d="M11.906 20.876c3.073 0 5.573-2.467 5.573-5.5s-2.5-5.5-5.573-5.5c-3.072 0-5.572 2.467-5.572 5.5s2.5 5.5 5.572 5.5zm0-9.75c2.375 0 4.306 1.907 4.306 4.25 0 2.344-1.931 4.25-4.306 4.25-2.374 0-4.306-1.906-4.306-4.25 0-2.343 1.932-4.25 4.306-4.25z" fill="#000"/><path d="M27.099 0H7.089c-1.048 0-1.9.841-1.9 1.875V5.25H1.901c-1.047 0-1.9.84-1.9 1.875v23C.002 31.16.855 32 1.902 32h20.01c1.048 0 1.9-.841 1.9-1.875V11.437a.621.621 0 0 0-.186-.442L17.99 5.432a.637.637 0 0 0-.448-.183H6.456V1.875a.63.63 0 0 1 .633-.625h20.01a.63.63 0 0 1 .633.625v23.001a.63.63 0 0 1-.633.625h-1.475a.63.63 0 0 0-.634.625.63.63 0 0 0 .634.625h1.475c1.047 0 1.9-.841 1.9-1.875v-23C28.998.84 28.145 0 27.098 0zM21.91 30.75H1.901a.63.63 0 0 1-.633-.625V7.124a.63.63 0 0 1 .633-.625H16.91v3.688c0 1.033.852 1.875 1.9 1.875h3.735v18.063a.63.63 0 0 1-.633.625zM18.175 7.383l3.474 3.429h-2.84a.63.63 0 0 1-.634-.625V7.383z" fill="#000"/></g></g></svg>