<svg id="0e5c8042-7c63-434a-a665-043eb87babc9" data-name="Layer 1" xmlns="http://www.w3.org/2000/svg" width="100" height="100" viewBox="0 0 100 100">
  <defs>
    <style>
      .\34 046b284-c825-4e70-9013-1b4b0e1d2863 {
        fill: red;
      }
    </style>
  </defs>
  <title>ic_eVisa</title>
  <g id="d2dfcd61-6053-4ae7-ad6e-a006bee74baa" data-name="94e631d3-8034-41e4-a46c-675967b43079">
    <g id="e9ddddb9-5388-4974-95f2-cedf7b671852" data-name="d2557464-85d9-4975-bf42-b90408a0b402">
      <g>
        <path class="4046b284-c825-4e70-9013-1b4b0e1d2863" d="M87.35,8.5H48.62a4.15,4.15,0,0,0-4.12,4.15V16.8H9.88A1.38,1.38,0,0,0,8.5,18.18h0V81.82A1.38,1.38,0,0,0,9.88,83.2H44.5v4.15a4.15,4.15,0,0,0,4.12,4.15H87.35a4.15,4.15,0,0,0,4.15-4.15h0V34.58A2.75,2.75,0,0,0,89.69,32a1.39,1.39,0,0,1-.86-1.77,1.36,1.36,0,0,1,.86-.86,2.78,2.78,0,0,0,1.81-2.63v-14A4.15,4.15,0,0,0,87.39,8.5ZM11.27,19.57H51.38a1.38,1.38,0,0,1,1.39,1.37h0v58.1a1.38,1.38,0,0,1-1.38,1.38H11.27ZM86,30.63a4.2,4.2,0,0,0,2.76,3.95V87.35a1.38,1.38,0,0,1-1.38,1.38H48.62a1.38,1.38,0,0,1-1.39-1.37h0V83.2h4.15a4.15,4.15,0,0,0,4.12-4.15V65l8.13-1.58.15,4-3.9,3.67a2.89,2.89,0,0,0-.83,3.54,3,3,0,0,0,3.36,1.66l1.8-.37.65,2.21a3.21,3.21,0,0,0,6.18,0l.63-2.1,1.87.41a3,3,0,0,0,2.6-5.16l-4-3.88.15-4L83.1,65.5a2.2,2.2,0,0,0,2.49-1,2.45,2.45,0,0,0-.26-2.94l-.18-.17-12-9.26.46-6a3.82,3.82,0,0,0-1.19-2.74l-2.13-2.12a3.25,3.25,0,0,0-4.54,0l-2.1,2.09a3.94,3.94,0,0,0-1.21,2.87l.45,5.93L55.5,57.77V21a4.15,4.15,0,0,0-4.12-4.15H47.23V12.65a1.38,1.38,0,0,1,1.38-1.38H87.35a1.38,1.38,0,0,1,1.38,1.38l.07,14A4.17,4.17,0,0,0,86,30.63ZM65.16,46.1a1.12,1.12,0,0,1,.38-.78l2.11-2.1a.47.47,0,0,1,.66,0l2.19,2.13a1.11,1.11,0,0,1,.36.65l-.51,6.71A1.36,1.36,0,0,0,71,54l11,8.48L71.25,60.39a1.39,1.39,0,0,0-1.13.27,1.45,1.45,0,0,0-.52,1l-.23,6.23a1.34,1.34,0,0,0,.41,1l4.53,4.38a.19.19,0,0,1,0,.27h0c-.07.16-.18.14-.22.13L71,73a1.4,1.4,0,0,0-1.63,1l-1,3.35a.48.48,0,0,1-.44.3.44.44,0,0,1-.43-.31l-1-3.45a1.37,1.37,0,0,0-1.61-1l-3,.63a.25.25,0,0,1-.31-.14c0-.1,0-.15.14-.27l4.44-4.17a1.4,1.4,0,0,0,.44-1.06l-.24-6.23a1.36,1.36,0,0,0-.52-1,1.38,1.38,0,0,0-1.12-.27L55.5,62.17v-.9l9.38-7.22a1.27,1.27,0,0,0,.39-.3,1.33,1.33,0,0,0,.37-1Z"/>
        <circle class="4046b284-c825-4e70-9013-1b4b0e1d2863" cx="59.68" cy="30.63" r="1.38"/>
        <circle class="4046b284-c825-4e70-9013-1b4b0e1d2863" cx="65.22" cy="30.63" r="1.38"/>
        <circle class="4046b284-c825-4e70-9013-1b4b0e1d2863" cx="70.75" cy="30.63" r="1.38"/>
        <circle class="4046b284-c825-4e70-9013-1b4b0e1d2863" cx="76.28" cy="30.63" r="1.38"/>
        <circle class="4046b284-c825-4e70-9013-1b4b0e1d2863" cx="81.82" cy="30.63" r="1.38"/>
        <path class="4046b284-c825-4e70-9013-1b4b0e1d2863" d="M32,27.87A15.22,15.22,0,1,0,47.23,43.1v0A15.21,15.21,0,0,0,32,27.87ZM44.38,41.7H40.27a26.37,26.37,0,0,0-.93-5.92,1.38,1.38,0,0,0-2.66.77h0a23,23,0,0,1,.82,5.15H33.4V34.78a1.39,1.39,0,0,0-2.77,0V41.7H26.5c.34-6.59,3-11.07,5.5-11.07A12.47,12.47,0,0,1,44.38,41.7ZM26.25,32.06a21.92,21.92,0,0,0-2.5,9.64h-4.1A12.46,12.46,0,0,1,26.25,32.06ZM19.65,44.5h4.11a25.74,25.74,0,0,0,.94,5.91,1.38,1.38,0,0,0,2.65-.76,23.68,23.68,0,0,1-.85-5.15h4.11v6.91a1.39,1.39,0,0,0,2.77.24,1,1,0,0,0,0-.24V44.5H37.5c-.32,6.55-3,11-5.48,11A12.46,12.46,0,0,1,19.65,44.5Zm18.13,9.64a21.92,21.92,0,0,0,2.5-9.64h4.11a12.47,12.47,0,0,1-6.61,9.61Z"/>
        <path class="4046b284-c825-4e70-9013-1b4b0e1d2863" d="M40.32,63.83h-18a1.39,1.39,0,0,0,0,2.77h18a1.39,1.39,0,0,0,0-2.77Z"/>
        <path class="4046b284-c825-4e70-9013-1b4b0e1d2863" d="M34.78,70.75H27.87a1.39,1.39,0,0,0-.24,2.77,1,1,0,0,0,.24,0h6.91A1.39,1.39,0,0,0,35,70.75,1,1,0,0,0,34.78,70.75Z"/>
      </g>
    </g>
  </g>
</svg>
