<svg id="b18d5610-08d3-4c2b-b154-abaf15fe384a" data-name="Layer 1" xmlns="http://www.w3.org/2000/svg" width="100" height="100" viewBox="0 0 100 100">
  <defs>
    <style>
      .\39 9bb6fb2-9417-4de7-b981-148b03116d17 {
        fill: red;
      }
    </style>
  </defs>
  <title>ic_Lounge</title>
  <g id="03aa41c3-8e78-480b-8715-748b0ea86ee7" data-name="61044018-0b5a-46c8-a69f-4cfb938c6690">
    <g id="2c4dd64d-1315-4b05-8e6b-9bbb742b87ea" data-name="3cddf6da-5942-442a-8a85-9d1796b224f2">
      <g>
        <g>
          <rect class="99bb6fb2-9417-4de7-b981-148b03116d17" x="13.49" y="74.23" width="2.79" height="2.79"/>
          <rect class="99bb6fb2-9417-4de7-b981-148b03116d17" x="8.84" y="74.23" width="2.79" height="2.79"/>
          <rect class="99bb6fb2-9417-4de7-b981-148b03116d17" x="18.15" y="74.23" width="2.79" height="2.79"/>
          <path class="99bb6fb2-9417-4de7-b981-148b03116d17" d="M57.51,17.29A7.51,7.51,0,1,0,50,24.83a7.51,7.51,0,0,0,7.52-7.54Zm-12.23,0A4.72,4.72,0,1,1,50,22h0A4.71,4.71,0,0,1,45.28,17.29Z"/>
          <path class="99bb6fb2-9417-4de7-b981-148b03116d17" d="M94.85,78.05H5.14V75.53H2.35V94.17h8.42V80.83H89.23V94.17h8.42V75.53h-2.8ZM8,91.38H5.14V80.83H8Zm86.87,0H92V80.83h2.83Z"/>
        </g>
        <path class="99bb6fb2-9417-4de7-b981-148b03116d17" d="M94.78,64.87V40.74l-3.55-3.56H70.44l-3.56,3.56V64.87l-1.46,1.48L64,64.87V40.74l-3.6-3.56H39.6L36,40.74V64.87l-1.46,1.48-1.46-1.48V40.74l-3.55-3.56H8.76L5.21,40.74V64.87L2.35,67.74V73.2h95.3V67.74ZM92,64.71H90.12V61.9H92Zm-4.68,0h-13V61.9h13ZM69.67,41.9,71.59,40H90.08L92,41.9V59.1H69.67Zm1.88,20v2.81H69.67V61.9ZM61.17,64.71h-1.9V61.9h1.89Zm-4.68,0h-13V61.9h13ZM38.83,41.9,40.75,40H59.24l1.92,1.92V59.1H38.83Zm1.89,20v2.81H38.83V61.9ZM30.35,64.71H28.44V61.9h1.91Zm-4.67,0h-13V61.9h13ZM8,41.9,9.92,40H28.4l2,1.92V59.1H8Zm1.88,20v2.81H8V61.9ZM64,70.41H36V68.9l1.38-1.39H62.62L64,68.9Zm-31,0H5V68.9l1.33-1.39H31.62L33,68.9Zm61.83,0h-28V68.9l1.39-1.39H93.45l1.4,1.39Z"/>
        <g>
          <path class="99bb6fb2-9417-4de7-b981-148b03116d17" d="M50,33.67l4.87-4.84H66.35v-23H33.6v23H45.12ZM36.35,8.62H63.6V26H53.72L50,29.73,46.28,26H36.35Z"/>
          <polygon class="99bb6fb2-9417-4de7-b981-148b03116d17" points="51.4 13.66 48.6 13.66 48.6 16.7 47.23 18.07 49.22 20.05 51.4 17.86 51.4 13.66"/>
        </g>
      </g>
    </g>
  </g>
</svg>
