<?xml version="1.0" encoding="utf-8"?>
<!-- Generator: Adobe Illustrator 22.1.0, SVG Export Plug-In . SVG Version: 6.00 Build 0)  -->
<svg version="1.1" id="Layer_1" xmlns="http://www.w3.org/2000/svg" xmlns:xlink="http://www.w3.org/1999/xlink" x="0px" y="0px"
	 viewBox="0 0 48 48" style="enable-background:new 0 0 48 48;" xml:space="preserve">
<path d="M43.5,28.3H32.6c-1.2,0-2.2,1-2.2,2.2V34l-1-0.2l-2.9-3.1v-0.8c3-1.7,5.1-5,5.1-8.7v0c1.1-0.2,1.9-1.2,1.9-2.3
	c0-1.2-0.8-2.1-1.9-2.3v-2.8c0.5-0.5,0.7-1,0.7-1.6c0-0.1,0-0.1,0-0.2c1.9-1.3,3-2.9,3-4.6c0-4.1-6-7.3-13.8-7.3S7.9,3.2,7.9,7.3
	c0,1.8,1.2,3.5,3.2,4.8c0,0,0,0,0,0c0,0.5,0.2,0.9,0.5,1.3v3.1c-1.1,0.2-2,1.2-2,2.4s0.9,2.2,2,2.4v0c0,3.7,2.1,7,5.1,8.7v0.8
	l-3.1,3.4L7,35.7c-2.7,0.6-4.7,3.1-4.7,5.9V48h41.2c1.2,0,2.2-1,2.2-2.2V30.4C45.7,29.2,44.7,28.3,43.5,28.3z M11.6,20
	c-0.5-0.2-0.8-0.6-0.8-1.1s0.3-0.9,0.8-1.1V20z M28.5,34.6l-1.8,3.1l-2.4-4.3l0-0.1l1.5-1.5L28.5,34.6z M32.4,18.8
	c0,0.5-0.3,0.9-0.7,1.1v-2.2C32.1,17.9,32.4,18.3,32.4,18.8z M11.5,10.9C10,9.9,9,8.7,9,7.3C9,4,14.8,1.2,21.6,1.2S34.2,4,34.2,7.3
	c0,1.3-0.9,2.5-2.3,3.5C30.4,9,26,8.1,21.7,8.1C17.4,8.1,12.9,9.1,11.5,10.9z M12.3,12.1c0-1.2,3.6-2.8,9.5-2.8
	c5.9,0,9.5,1.7,9.5,2.8S27.6,15,21.7,15C15.9,15,12.3,13.3,12.3,12.1z M12.8,21.2v-6.9c2,1.2,5.6,1.8,8.9,1.8c3.3,0,6.6-0.6,8.7-1.6
	v6.7c0,4.9-4,8.8-8.8,8.8S12.8,26.1,12.8,21.2z M17.4,31.7l1.3,1.3l0.1,0.5l-2.3,4.1l-1.8-3.1L17.4,31.7z M18.8,46.8H3.5v-5.3
	c0-2.3,1.5-4.2,3.7-4.7l6.5-1.5l2.8,4.8l2.6-4.7l0.5,2.6L18.8,46.8z M20,46.8l0.8-8.2h1.4l0.8,8.2H20z M20.1,34.1H23l-0.7,3.3h-1.5
	L20.1,34.1z M20,32.7l-2.1-2.2c1.1,0.5,2.4,0.7,3.7,0.7s2.6-0.3,3.7-0.7l-2.1,2.2H20z M24.2,46.8L23.4,38l0.6-2.8l2.7,4.9l2.9-5
	l0.8,0.1v10.6c0,0.3,0.1,0.7,0.2,1H24.2z M44.5,45.8c0,0.5-0.4,1-1,1H32.6c-0.5,0-1-0.4-1-1V30.4c0-0.5,0.4-1,1-1h10.9
	c0.5,0,1,0.4,1,1V45.8z M37.9,30.1c-3.1,0-5.7,2.5-5.7,5.7c0,3.1,2.5,5.7,5.7,5.7c3.1,0,5.7-2.5,5.7-5.7
	C43.6,32.6,41,30.1,37.9,30.1z M37.3,40.2c-0.8-0.1-1.4-0.4-2-0.8c0.6-0.4,1.3-0.7,2-0.8V40.2z M37.3,37.4c-1.1,0.1-2.1,0.5-2.9,1.2
	c-0.5-0.6-0.8-1.4-0.9-2.2h3.8V37.4z M37.3,35.1h-3.8c0.1-0.7,0.4-1.4,0.8-2c0.9,0.7,1.9,1.2,3.1,1.3V35.1z M37.3,33.3
	c-0.8-0.1-1.6-0.5-2.3-1c0.6-0.5,1.4-0.9,2.3-1V33.3z M38.5,31.3c0.9,0.1,1.6,0.5,2.3,1c-0.6,0.5-1.4,0.9-2.3,1V31.3z M38.5,40.2
	v-1.6c0.7,0.1,1.4,0.4,2,0.8C39.9,39.8,39.2,40.1,38.5,40.2z M41.4,38.6c-0.8-0.7-1.8-1.1-2.9-1.2v-1h3.8
	C42.2,37.2,41.9,37.9,41.4,38.6z M38.5,35.1v-0.6c1.1-0.1,2.2-0.6,3.1-1.3c0.4,0.6,0.7,1.2,0.8,2H38.5z M34,42.9h-0.8v2.6h0.5v-0.9
	h0.2c0.3,0,0.6-0.1,0.7-0.2c0.2-0.1,0.3-0.4,0.3-0.6c0-0.3-0.1-0.5-0.2-0.6C34.5,43,34.3,42.9,34,42.9z M34.2,44
	c-0.1,0.1-0.2,0.1-0.4,0.1h-0.2v-0.8h0.2c0.1,0,0.3,0,0.3,0.1s0.1,0.2,0.1,0.3C34.4,43.8,34.3,43.9,34.2,44z M36.5,42.9l-0.9,2.6
	h0.6l0.2-0.6h0.9l0.2,0.6h0.6l-0.9-2.6H36.5z M36.5,44.4c0.2-0.6,0.3-1,0.3-1.1c0,0,0,0.1,0,0.2c0,0.1,0.1,0.4,0.3,0.9H36.5z
	 M39.8,44c-0.2-0.1-0.3-0.1-0.3-0.2s-0.1-0.1-0.1-0.1c0,0,0-0.1,0-0.1c0-0.1,0-0.1,0.1-0.2c0.1,0,0.1-0.1,0.2-0.1c0.1,0,0.2,0,0.3,0
	c0.1,0,0.2,0.1,0.3,0.1l0.2-0.4c-0.1-0.1-0.3-0.1-0.4-0.1c-0.1,0-0.2,0-0.4,0c-0.3,0-0.5,0.1-0.6,0.2s-0.2,0.3-0.2,0.5
	c0,0.1,0,0.2,0.1,0.3c0,0.1,0.1,0.2,0.2,0.2c0.1,0.1,0.2,0.1,0.4,0.2c0.2,0.1,0.3,0.1,0.3,0.2c0.1,0,0.1,0.1,0.1,0.1
	c0,0,0,0.1,0,0.1c0,0.1,0,0.2-0.1,0.2S39.6,45,39.5,45c-0.1,0-0.2,0-0.3,0c-0.1,0-0.3-0.1-0.4-0.2v0.5c0.2,0.1,0.5,0.2,0.7,0.2
	c0.3,0,0.5-0.1,0.7-0.2c0.2-0.1,0.2-0.3,0.2-0.5c0-0.2,0-0.3-0.1-0.4C40.2,44.2,40,44.1,39.8,44z M42.2,44c-0.2-0.1-0.3-0.1-0.3-0.2
	s-0.1-0.1-0.1-0.1c0,0,0-0.1,0-0.1c0-0.1,0-0.1,0.1-0.2s0.1-0.1,0.2-0.1c0.1,0,0.2,0,0.3,0c0.1,0,0.2,0.1,0.3,0.1l0.2-0.4
	c-0.1-0.1-0.3-0.1-0.4-0.1c-0.1,0-0.2,0-0.4,0c-0.3,0-0.5,0.1-0.6,0.2s-0.2,0.3-0.2,0.5c0,0.1,0,0.2,0.1,0.3s0.1,0.2,0.2,0.2
	s0.2,0.1,0.4,0.2c0.2,0.1,0.3,0.1,0.3,0.2c0.1,0,0.1,0.1,0.1,0.1s0,0.1,0,0.1c0,0.1,0,0.2-0.1,0.2C42.2,45,42.1,45,42,45
	c-0.1,0-0.2,0-0.3,0c-0.1,0-0.3-0.1-0.4-0.2v0.5c0.2,0.1,0.5,0.2,0.7,0.2c0.3,0,0.5-0.1,0.7-0.2c0.2-0.1,0.2-0.3,0.2-0.5
	c0-0.2,0-0.3-0.1-0.4C42.6,44.2,42.5,44.1,42.2,44z M16.8,19.1c-0.3,0-0.6,0.3-0.6,0.6v1.6c0,0.3,0.3,0.6,0.6,0.6
	c0.3,0,0.6-0.3,0.6-0.6v-1.6C17.4,19.4,17.2,19.1,16.8,19.1z M23.9,26.8c0-0.3-0.3-0.6-0.6-0.6H20c-0.3,0-0.6,0.3-0.6,0.6
	c0,0.3,0.3,0.6,0.6,0.6h3.3C23.6,27.4,23.9,27.1,23.9,26.8z M26.4,22c0.3,0,0.6-0.3,0.6-0.6v-1.6c0-0.3-0.3-0.6-0.6-0.6
	c-0.3,0-0.6,0.3-0.6,0.6v1.6C25.8,21.7,26.1,22,26.4,22z"/>
</svg>
