<svg id="Layer_1" xmlns="http://www.w3.org/2000/svg" viewBox="0 0 100 60"><style>.st1{fill:#f5f5f5}.st2{fill:#00008c}</style><path d="M100 21.8H0V1.7C0 .8.8 0 1.7 0h96.5c1 0 1.7.8 1.7 1.7l.1 20.1z" fill="#fab446"/><path class="st1" d="M0 21.8h100v21.8H0z"/><circle class="st1" cx="50" cy="32.8" r="1.4"/><path class="st2" d="M51.6 32.7v-.2l1.6-.2 4.4-1.4-4.5.9-1.4.6c0-.1-.1-.2-.1-.2l1.4-.6 3.8-2.5-4.2 1.9-1.2 1c0-.1-.1-.1-.1-.2l1.2-1 3.1-3.4-3.4 3.1-1 1.2-.2-.2 1-1.2 2.1-4.1-2.7 3.8-.6 1.4c-.1 0-.1-.1-.2-.1l.6-1.4.9-4.5-1.4 4.4-.2 1.6h-.2l.2-1.6-.3-4.6-.3 4.6.2 1.6h-.2l-.3-1.6-1.6-4.5.9 4.5.6 1.4c-.1 0-.2.1-.2.1l-.6-1.4-2.5-3.8 2.1 4.1 1 1.2c-.1 0-.1.1-.2.2l-1-1.2-3.4-3.1 3.1 3.4 1.2 1c-.1.1-.1.1-.1.2l-1.2-1-4.1-2.1 3.8 2.5 1.4.6c0 .1-.1.1-.1.2l-1.4-.6-4.5-.9 4.3 1.5 1.6.2v.2l-1.6-.2-4.6.3 4.6.3 1.6-.2v.2l-1.6.2-4.4 1.4 4.5-.9 1.4-.6c0 .1.1.2.1.2l-1.4.6-3.8 2.5 4.1-2.1 1.2-1c0 .1.1.1.2.2l-1.2 1-3 3.4 3.4-3.1 1-1.2c.1.1.1.1.2.1l-1 1.2-2.1 4.1 2.5-3.8.6-1.4c.1 0 .1.1.2.1l-.6 1.4-1 5 1.5-4.3.2-1.6h.2l-.2 1.6.3 4.6.3-4.6-.2-1.6h.2l.2 1.6 1.4 4.4-.9-4.5-.6-1.4c.1 0 .2-.1.2-.1l.6 1.4 2.5 3.8-2.1-4.1-.9-1.3c.1 0 .1-.1.2-.1l1 1.2 3.4 3-3.1-3.4-1.2-1 .2-.2 1.2 1 4.1 2.1-3.8-2.5-1.4-.6c0-.1.1-.1.1-.2l1.4.6 4.5.9-4.4-1.4-1.6-.2c.1-.1.1-.2.1-.3l1.6.2 4.6-.3-4.6-.3-1.4.1z"/><path class="st2" d="M59.1 31.6c-.7-5-5.3-8.5-10.3-7.9-5 .7-8.5 5.3-7.9 10.3.7 5 5.3 8.5 10.3 7.9 5-.7 8.5-5.3 7.9-10.3zM58 33.4c-.2 0-.4.1-.5.4s.1.4.4.5l-.3 1.2c-.2-.1-.5 0-.5.2s0 .5.2.6c-.2.4-.4.7-.6 1.1-.2-.1-.5-.1-.6.1-.1.2-.1.4.1.6l-.9.9c-.1-.2-.4-.2-.6-.1-.2.1-.2.4-.1.6-.4.2-.7.4-1.1.6-.1-.2-.4-.3-.6-.2-.2.1-.3.3-.2.5l-1.2.3c0-.2-.2-.4-.5-.4-.2 0-.4.2-.4.5h-1.2c0-.2-.1-.4-.4-.5-.2 0-.4.1-.5.4l-1.2-.3c.1-.2 0-.5-.2-.5-.2-.1-.5 0-.6.2-.4-.2-.7-.4-1.1-.6.1-.2.1-.5-.1-.6-.2-.1-.5-.1-.6.1l-.9-.9c.2-.1.2-.4.1-.6s-.4-.2-.6-.1c-.2-.4-.4-.7-.6-1.1.2-.1.3-.4.2-.6-.1-.2-.3-.3-.5-.2l-.3-1.2c.2 0 .4-.2.4-.5 0-.2-.2-.4-.5-.4v-1.2c.2 0 .4-.1.5-.4 0-.2-.1-.5-.4-.5l.3-1.2c.2.1.5 0 .6-.2.1-.2 0-.5-.2-.6.2-.4.4-.7.6-1.1.2.1.5.1.6-.1s.1-.5-.1-.6l.9-.9c.1.2.4.2.6.1.2-.1.2-.4.1-.6.4-.2.7-.4 1.1-.6.1.2.4.3.6.2s.3-.3.2-.6l1.2-.3c0 .2.2.4.5.4.2 0 .4-.2.4-.5h1.2c0 .2.1.4.4.5.2 0 .5-.1.5-.4l1.2.3c-.1.2 0 .5.2.6s.5 0 .6-.2c.4.2.7.4 1.1.6-.1.2-.1.5.1.6.2.1.5.1.6-.1l.9.9c-.2.1-.2.4-.1.6.1.2.4.2.6.1.2.4.4.7.6 1.1-.2.1-.3.4-.2.6s.3.3.6.2l.3 1.2c-.2 0-.4.2-.4.5 0 .2.2.4.5.4-.2.4-.2.8-.2 1.2z"/><path fill="#73af00" d="M0 43.7h100V60H0z"/></svg>