<svg width="136" height="136" xmlns="http://www.w3.org/2000/svg"><g fill="none"><circle fill="#FFF" cx="68.09" cy="68.36" r="67.64"/><path d="M6.935 38.638h122.22C118.257 15.852 95.02.09 68.09.09S17.833 15.852 6.935 38.638z" fill="#F90"/><path d="M129.155 97.362H6.935C17.833 120.148 41.07 135.91 68 135.91s50.257-15.762 61.155-38.548z" fill="#6BA63D"/><path d="M68.09 91.327c-12.7 0-23.057-10.267-23.057-22.967S55.391 45.393 68 45.393c12.7 0 22.967 10.358 22.967 22.967.09 12.7-10.178 22.967-22.877 22.967zm0-43.322c-11.258 0-20.355 9.187-20.355 20.355 0 11.259 9.187 20.355 20.355 20.355 11.258 0 20.355-9.187 20.355-20.355 0-11.258-9.187-20.355-20.355-20.355z" fill="#004FB7"/><g fill="#004FB7"><path d="M46.024 67.55h44.132v1H46.024z"/><path d="M67.64 45.934h1v44.132h-1z"/><path d="M51.985 52.832l.707-.707L83.898 83.33l-.707.707z"/><path d="M51.984 83.4L83.19 52.196l.707.707-31.206 31.206z"/><path d="M59.494 47.662l.933-.358 15.809 41.203-.934.358z"/><path d="M47.063 75.591l41.202-15.817.359.934L47.42 76.525z"/><path d="M58.386 87.969l17.94-40.324.913.407-17.94 40.323z"/><path d="M47.425 59.426l.407-.913L88.147 76.47l-.407.914z"/></g></g></svg>