<?xml version="1.0" encoding="utf-8"?>
<!-- Generator: Adobe Illustrator 22.1.0, SVG Export Plug-In . SVG Version: 6.00 Build 0)  -->
<svg version="1.1" id="Capa_1" xmlns="http://www.w3.org/2000/svg" xmlns:xlink="http://www.w3.org/1999/xlink" x="0px" y="0px"
	 viewBox="0 0 512 608" style="enable-background:new 0 0 512 608;" xml:space="preserve">
<g>
	<g>
		<path d="M511.6,586.4l-95-348c-0.2-0.6-0.4-1.2-0.6-1.7v-50c0-18.9-15.4-34.3-34.3-34.3h-83.5c-18.9,0-34.3,15.4-34.3,34.3v51.7
			c0,0.3,0,0.7,0.1,1c-3.2,2.6-6,5.8-8.3,9.4L200.2,338c-2.9,4.7-1.5,10.9,3.2,13.8c4.7,2.9,10.9,1.5,13.8-3.2l55.5-89.1
			c3.3-5.3,9-8.5,15.3-8.5h0.1c0.1,0,0.3,0,0.4,0c0.2,0,0.4,0,0.6,0l77.3,0v36.2c-13.2,0.1-36.7,0-53.8-0.1l-9,0c0,0,0,0,0,0
			c-3.5,0-6.7,1.8-8.5,4.7L150.6,523.6c-10.5,16.9-25.3,31-42.7,40.6C90.4,573.9,70.7,579,50.8,579H20v-36h30.8
			c28.4,0,54.3-14.4,69.3-38.5l52.5-84.3c2.9-4.7,1.5-10.9-3.2-13.8c-4.7-2.9-10.9-1.5-13.8,3.2L103.1,494
			c-11.3,18.2-30.9,29-52.3,29H10c-5.5,0-10,4.5-10,10v56c0,5.5,4.5,10,10,10h40.8c23.3,0,46.4-6,66.8-17.3
			c20.4-11.3,37.7-27.8,50-47.6L293.5,332v141.1c0,5.5,4.5,10,10,10s10-4.5,10-10v-166c22.5,0.1,42.5,0.1,53.9,0.1L441.9,579h-13.4
			c-5.5,0-10,4.5-10,10s4.5,10,10,10H455h23.7H502c3.1,0,6.1-1.5,7.9-3.9C511.8,592.6,512.5,589.4,511.6,586.4z M412.5,299h-26.3
			c0.1-0.6,0.2-1.3,0.2-1.9v-46h13L412.5,299z M330,228.5h-46v-41.7c0-7.9,6.4-14.3,14.3-14.3H330V228.5z M350,228.5v-56h31.7
			c7.9,0,14.3,6.4,14.3,14.3v41.7H350z M391.4,319h26.5l9.8,36h-26.5L391.4,319z M406.8,375h26.5l9.8,36h-26.4L406.8,375z
			 M422.1,431h26.4l9.8,36H432L422.1,431z M437.5,487h26.3l9.8,36h-26.3L437.5,487z M478.7,579h-16l-9.9-36h26.3l9.8,36H478.7z"/>
	</g>
</g>
<g>
	<g>
		<path d="M193.6,371.9c-1.9-1.9-4.4-2.9-7.1-2.9c-2.6,0-5.2,1.1-7.1,2.9c-1.9,1.9-2.9,4.4-2.9,7.1c0,2.6,1.1,5.2,2.9,7.1
			c1.9,1.9,4.4,2.9,7.1,2.9c2.6,0,5.2-1.1,7.1-2.9c1.9-1.9,2.9-4.4,2.9-7.1C196.5,376.4,195.4,373.8,193.6,371.9z"/>
	</g>
</g>
<g>
	<g>
		<path d="M310.6,504.2c-1.9-1.9-4.4-2.9-7.1-2.9c-2.6,0-5.2,1.1-7.1,2.9c-1.9,1.9-2.9,4.4-2.9,7.1c0,2.6,1.1,5.2,2.9,7.1
			c1.9,1.9,4.4,2.9,7.1,2.9c2.6,0,5.2-1.1,7.1-2.9c1.9-1.9,2.9-4.4,2.9-7.1C313.5,508.6,312.5,506.1,310.6,504.2z"/>
	</g>
</g>
<g>
	<g>
		<path d="M340.4,579h-26.8v-28.9c0-5.5-4.5-10-10-10s-10,4.5-10,10V579h-26.7c-5.5,0-10,4.5-10,10c0,5.5,4.5,10,10,10h73.5
			c5.5,0,10-4.5,10-10C350.4,583.5,345.9,579,340.4,579z"/>
	</g>
</g>
<g>
	<g>
		<path d="M185.9,202h-13.2c-5.5,0-10,4.5-10,10c0,5.5,4.5,10,10,10h13.2c5.5,0,10-4.5,10-10C195.9,206.5,191.4,202,185.9,202z"/>
	</g>
</g>
<g>
	<g>
		<path d="M131,202H10c-5.5,0-10,4.5-10,10c0,5.5,4.5,10,10,10h121c5.5,0,10-4.5,10-10C141,206.5,136.5,202,131,202z"/>
	</g>
</g>
<g>
	<g>
		<path d="M131,245.4H43c-5.5,0-10,4.5-10,10c0,5.5,4.5,10,10,10H131c5.5,0,10-4.5,10-10C141,249.9,136.5,245.4,131,245.4z"/>
	</g>
</g>
<g>
	<g>
		<path d="M151.7,105c-10.6,0-20.5,4.8-27.1,13.1c-3.4,4.3-2.7,10.6,1.7,14c4.3,3.4,10.6,2.7,14-1.7c2.8-3.5,6.9-5.5,11.4-5.5
			c8,0,14.5,6.5,14.5,14.5c0,8-6.5,14.5-14.5,14.5H85.1c-5.5,0-10,4.5-10,10c0,5.5,4.5,10,10,10h66.6c19,0,34.5-15.5,34.5-34.5
			C186.2,120.4,170.7,105,151.7,105z"/>
	</g>
</g>
<g>
	<g>
		<path d="M34.3,153.9h-0.1c-5.5,0-10,4.5-10,10c0,5.5,4.5,10,10,10h0.1c5.5,0,10-4.5,10-10C44.3,158.4,39.8,153.9,34.3,153.9z"/>
	</g>
</g>
<g>
	<path d="M48.9,67.7V28.3c0-0.8,0.4-1.4,1.2-1.8c0.8-0.4,1.7-0.6,2.8-0.6c1.1,0,2,0.2,2.8,0.6c0.8,0.4,1.2,1,1.2,1.8v16.6L69.9,27
		c0.6-0.8,1.3-1.2,2.2-1.2c1,0,2,0.4,3,1.3c1,0.9,1.5,1.8,1.5,2.8c0,0.6-0.2,1.1-0.5,1.5L65.3,45l13.2,20.1c0.3,0.4,0.4,0.9,0.4,1.4
		c0,1-0.5,1.9-1.5,2.7c-1,0.8-2.1,1.2-3.2,1.2c-1.2,0-2.1-0.5-2.7-1.5L60.1,51.7l-3.3,4.1v11.9c0,0.8-0.4,1.4-1.2,1.8
		s-1.7,0.7-2.8,0.7c-1.1,0-2-0.2-2.8-0.7C49.3,69.1,48.9,68.5,48.9,67.7z"/>
	<path d="M81.4,31.5c0-1,0.4-1.8,1.3-2.4c0.9-0.7,1.9-1,3.2-1c1.1,0,2.1,0.3,2.9,1c0.8,0.7,1.2,1.5,1.2,2.4c0,0.9-0.4,1.7-1.2,2.4
		c-0.8,0.7-1.8,1-2.9,1c-1.3,0-2.3-0.3-3.2-1C81.8,33.2,81.4,32.4,81.4,31.5z M82.1,67.7V43.8c0-0.7,0.4-1.3,1-1.8
		c0.7-0.4,1.6-0.7,2.7-0.7s2,0.2,2.7,0.7c0.7,0.4,1.1,1,1.1,1.8v23.9c0,0.6-0.4,1.2-1.1,1.7c-0.8,0.5-1.6,0.8-2.7,0.8
		c-1.1,0-1.9-0.3-2.7-0.8C82.5,68.9,82.1,68.4,82.1,67.7z"/>
	<path d="M94.7,58.3v-5c0-3.4,1.1-6.2,3.2-8.7c2.1-2.4,4.7-3.6,7.6-3.6c1.8,0,3.3,0.4,4.7,1.3c1.4,0.9,2.4,2,3.1,3.3V27.1
		c0-0.7,0.4-1.3,1.1-1.8c0.7-0.4,1.7-0.7,2.8-0.7c1.1,0,2.1,0.2,2.8,0.7c0.7,0.4,1.1,1,1.1,1.8v40.7c0,0.6-0.4,1.2-1.1,1.7
		c-0.7,0.5-1.7,0.8-2.8,0.8c-0.9,0-1.8-0.3-2.5-0.8c-0.7-0.5-1.1-1.1-1.1-1.7v-1.8c-0.6,1.3-1.8,2.4-3.3,3.4c-1.6,1-3.3,1.4-5.1,1.4
		c-2.8,0-5.3-1.3-7.4-3.8C95.8,64.5,94.7,61.6,94.7,58.3z M102.5,58.3c0,1.4,0.5,2.7,1.6,3.8c1.1,1.1,2.3,1.7,3.7,1.7
		c1.4,0,2.7-0.6,3.8-1.7c1.1-1.1,1.7-2,1.7-2.8v-6c0-1.6-0.6-2.9-1.7-3.9c-1.1-1-2.4-1.5-3.8-1.5c-1.5,0-2.7,0.6-3.8,1.7
		c-1.1,1.1-1.6,2.4-1.6,3.8V58.3z"/>
	<path d="M125.4,65.5c0-0.7,0.3-1.5,0.8-2.3c0.5-0.8,1.1-1.2,1.8-1.2c0.4,0,1,0.2,1.7,0.6c0.7,0.4,1.6,0.8,2.7,1.2
		c1.1,0.4,2.4,0.6,3.9,0.6c3,0,4.5-0.8,4.5-2.5c0-0.9-0.5-1.7-1.5-2.2c-1-0.6-2.2-1-3.6-1.4c-1.4-0.4-2.8-0.8-4.2-1.3
		c-1.4-0.5-2.6-1.3-3.6-2.5c-1-1.2-1.5-2.6-1.5-4.5c0-2.5,0.9-4.7,2.6-6.5c1.7-1.8,4.5-2.7,8.3-2.7c2.5,0,4.7,0.4,6.7,1.2
		c2,0.8,2.9,1.7,2.9,2.8c0,0.7-0.3,1.5-0.8,2.4c-0.5,0.9-1.2,1.4-2,1.4c-0.3,0-1.2-0.3-2.6-0.8c-1.4-0.5-2.8-0.8-4-0.8
		c-1.4,0-2.4,0.3-3.2,0.8c-0.7,0.6-1.1,1.2-1.1,1.8s0.4,1.2,1.1,1.7c0.7,0.4,1.6,0.8,2.7,1c1.1,0.2,2.2,0.6,3.5,1
		c1.2,0.4,2.4,0.9,3.4,1.4c1.1,0.6,1.9,1.4,2.6,2.6c0.7,1.2,1.1,2.6,1.1,4.2c0,2.8-1,5-2.9,6.6c-2,1.6-4.7,2.4-8.2,2.4
		c-3,0-5.6-0.5-7.8-1.6C126.5,68.1,125.4,66.9,125.4,65.5z"/>
	<path d="M164.9,56.7V28.3c0-0.8,0.4-1.4,1.2-1.8c0.8-0.4,1.7-0.6,2.8-0.6c1.1,0,2,0.2,2.8,0.6c0.8,0.4,1.2,1,1.2,1.8v28.4
		c0,4.7,2.2,7,6.7,7c4.4,0,6.7-2.3,6.7-7V28.3c0-0.8,0.4-1.4,1.2-1.8c0.8-0.4,1.7-0.6,2.8-0.6s2,0.2,2.8,0.6c0.8,0.4,1.2,1,1.2,1.8
		v28.4c0,4.8-1.3,8.3-4,10.5c-2.6,2.2-6.2,3.4-10.6,3.4c-4.4,0-7.9-1.1-10.6-3.3C166.3,65,164.9,61.5,164.9,56.7z"/>
	<path d="M200.1,67.7V43.8c0-0.7,0.4-1.3,1.1-1.8c0.7-0.4,1.6-0.7,2.8-0.7c1,0,1.8,0.2,2.5,0.7s1,1,1,1.8v1.8
		c0.6-1.3,1.7-2.4,3.1-3.3c1.4-0.9,3.1-1.3,5-1.3c2.8,0,5.2,1.2,7.3,3.6c2.1,2.4,3.1,5.3,3.1,8.7v14.4c0,0.8-0.4,1.4-1.2,1.8
		c-0.8,0.4-1.7,0.7-2.8,0.7c-1,0-1.9-0.2-2.7-0.7c-0.8-0.4-1.2-1-1.2-1.8V53.4c0-1.4-0.5-2.7-1.6-3.8c-1.1-1.1-2.3-1.7-3.7-1.7
		c-1.3,0-2.5,0.5-3.5,1.5c-1,1-1.5,2.3-1.5,3.9v14.3c0,0.6-0.4,1.2-1.2,1.7c-0.8,0.5-1.7,0.8-2.8,0.8c-1.1,0-2-0.3-2.8-0.8
		C200.5,68.9,200.1,68.4,200.1,67.7z"/>
	<path d="M230.8,58.3v-5c0-3.4,1.1-6.2,3.2-8.7c2.1-2.4,4.7-3.6,7.6-3.6c1.8,0,3.3,0.4,4.7,1.3c1.4,0.9,2.4,2,3.1,3.3V27.1
		c0-0.7,0.4-1.3,1.1-1.8c0.7-0.4,1.7-0.7,2.8-0.7c1.1,0,2.1,0.2,2.8,0.7c0.7,0.4,1.1,1,1.1,1.8v40.7c0,0.6-0.4,1.2-1.1,1.7
		c-0.7,0.5-1.7,0.8-2.8,0.8c-0.9,0-1.8-0.3-2.5-0.8c-0.7-0.5-1.1-1.1-1.1-1.7v-1.8c-0.6,1.3-1.8,2.4-3.3,3.4c-1.6,1-3.3,1.4-5.1,1.4
		c-2.8,0-5.3-1.3-7.4-3.8C231.9,64.5,230.8,61.6,230.8,58.3z M238.7,58.3c0,1.4,0.5,2.7,1.6,3.8c1.1,1.1,2.3,1.7,3.7,1.7
		c1.4,0,2.7-0.6,3.8-1.7c1.1-1.1,1.7-2,1.7-2.8v-6c0-1.6-0.6-2.9-1.7-3.9c-1.1-1-2.4-1.5-3.8-1.5c-1.5,0-2.7,0.6-3.8,1.7
		c-1.1,1.1-1.6,2.4-1.6,3.8V58.3z"/>
	<path d="M262.3,58.3v-5.2c0-3.3,1.3-6.2,3.9-8.6c2.6-2.4,5.7-3.6,9.4-3.6c3.4,0,6.4,1.1,8.8,3.3c2.4,2.2,3.7,4.9,3.7,8.2
		c0,1.2-0.2,2.2-0.5,3c-0.3,0.8-0.8,1.3-1.4,1.7c-0.6,0.3-1.2,0.5-1.7,0.6c-0.5,0.1-1.2,0.1-2.1,0.1h-12.3v0.9
		c0,1.7,0.6,3.1,1.9,4.2s3,1.6,5.2,1.6c1.5,0,3.1-0.4,4.5-1.2c1.5-0.8,2.5-1.2,2.9-1.2c0.8,0,1.6,0.4,2.1,1.2
		c0.6,0.8,0.8,1.5,0.8,2.3c0,1.1-1,2.3-3.1,3.4c-2,1.1-4.6,1.7-7.6,1.7c-4.3,0-7.9-1.1-10.6-3.4C263.7,65,262.3,62,262.3,58.3z
		 M270.1,53.2h8.9c0.6,0,1.1-0.1,1.4-0.3c0.3-0.2,0.4-0.6,0.4-1.2c0-1.3-0.5-2.4-1.5-3.2c-1-0.8-2.3-1.2-3.8-1.2
		c-1.4,0-2.7,0.4-3.7,1.2c-1.1,0.8-1.6,1.9-1.6,3.2V53.2z"/>
	<path d="M292.8,67.7V43.8c0-0.7,0.4-1.3,1.1-1.8c0.7-0.4,1.6-0.7,2.8-0.7c1,0,1.9,0.2,2.5,0.7c0.7,0.4,1,1,1,1.8v2.5
		c0.6-1.4,1.7-2.7,3-3.7c1.4-1.1,2.9-1.6,4.4-1.6h1.9c0.7,0,1.4,0.3,2,1c0.6,0.7,0.9,1.5,0.9,2.4c0,0.9-0.3,1.8-0.9,2.4
		c-0.6,0.7-1.2,1-2,1h-1.9c-1.9,0-3.5,0.8-4.9,2.5c-1.4,1.7-2.1,3.8-2.1,6.5v10.8c0,0.6-0.4,1.2-1.2,1.7s-1.7,0.8-2.8,0.8
		c-1.1,0-2-0.3-2.7-0.8C293.1,68.9,292.8,68.4,292.8,67.7z"/>
	<path d="M325.8,59.6c0-1.3,0.3-2.3,1-2.8c0.6-0.5,1.6-0.8,3-0.8c1.5,0,2.6,0.3,3.1,0.8c0.5,0.5,0.8,1.3,0.8,2.2
		c0,1.5,0.6,2.6,1.8,3.4c1.2,0.8,2.7,1.2,4.5,1.2c4.3,0,6.4-2.2,6.4-6.7v-1.2c0-2.3-0.6-4-1.7-5.1c-1.1-1.1-2.7-1.7-4.7-1.7h-9
		c-1.2,0-2-0.3-2.5-0.8s-0.7-1.3-0.7-2.3c0-0.2,0.1-0.4,0.2-0.8c0.1-0.3,0.2-0.6,0.2-0.8l1.2-16c0.1-1.7,0.6-2.5,1.5-2.5h18.7
		c0.7,0,1.3,0.3,1.7,1s0.6,1.5,0.6,2.4c0,0.9-0.2,1.7-0.6,2.4c-0.4,0.7-1,1-1.7,1h-13.6l-0.8,10h4.7c4.3,0,7.8,1,10.4,3.1
		c2.6,2.1,3.9,5.4,3.9,9.9v1.2c0,4.7-1.3,8.1-3.9,10.3c-2.6,2.2-6,3.3-10.3,3.3c-4.4,0-7.9-1.1-10.5-3.2
		C327.1,65.1,325.8,62.6,325.8,59.6z"/>
	<path d="M371.4,67.7V28.3c0-0.8,0.3-1.4,1-1.8c0.7-0.4,1.5-0.7,2.4-0.7H396c0.8,0,1.4,0.3,1.8,1c0.4,0.7,0.6,1.5,0.6,2.4
		c0,1-0.2,1.8-0.6,2.5c-0.4,0.7-1,1-1.8,1h-16.7v12.1h9.3c0.8,0,1.4,0.3,1.8,0.9s0.6,1.4,0.6,2.2c0,0.8-0.2,1.5-0.6,2.1
		c-0.4,0.6-1,0.9-1.8,0.9h-9.3v16.6c0,0.8-0.4,1.4-1.2,1.8s-1.7,0.7-2.8,0.7c-1.1,0-2-0.2-2.8-0.7S371.4,68.5,371.4,67.7z"/>
	<path d="M396.3,67.7V43.8c0-0.7,0.4-1.3,1.1-1.8c0.7-0.4,1.6-0.7,2.8-0.7c1,0,1.9,0.2,2.5,0.7s1,1,1,1.8v2.5c0.6-1.4,1.7-2.7,3-3.7
		c1.4-1.1,2.9-1.6,4.4-1.6h1.9c0.7,0,1.4,0.3,2,1c0.6,0.7,0.9,1.5,0.9,2.4c0,0.9-0.3,1.8-0.9,2.4c-0.6,0.7-1.2,1-2,1h-1.9
		c-1.9,0-3.5,0.8-4.9,2.5c-1.4,1.7-2.1,3.8-2.1,6.5v10.8c0,0.6-0.4,1.2-1.2,1.7c-0.8,0.5-1.7,0.8-2.8,0.8c-1.1,0-2-0.3-2.7-0.8
		C396.7,68.9,396.3,68.4,396.3,67.7z"/>
	<path d="M417.5,58.3v-5.2c0-3.3,1.3-6.2,3.9-8.6c2.6-2.4,5.7-3.6,9.4-3.6c3.4,0,6.4,1.1,8.8,3.3s3.7,4.9,3.7,8.2
		c0,1.2-0.2,2.2-0.5,3s-0.8,1.3-1.4,1.7c-0.6,0.3-1.2,0.5-1.7,0.6c-0.5,0.1-1.2,0.1-2.1,0.1h-12.3v0.9c0,1.7,0.6,3.1,1.9,4.2
		c1.3,1.1,3,1.6,5.2,1.6c1.5,0,3.1-0.4,4.6-1.2c1.5-0.8,2.5-1.2,2.9-1.2c0.8,0,1.6,0.4,2.1,1.2c0.6,0.8,0.8,1.5,0.8,2.3
		c0,1.1-1,2.3-3.1,3.4c-2,1.1-4.6,1.7-7.6,1.7c-4.3,0-7.9-1.1-10.6-3.4S417.5,62,417.5,58.3z M425.3,53.2h8.9c0.6,0,1.1-0.1,1.4-0.3
		c0.3-0.2,0.4-0.6,0.4-1.2c0-1.3-0.5-2.4-1.5-3.2s-2.3-1.2-3.8-1.2c-1.4,0-2.6,0.4-3.7,1.2c-1.1,0.8-1.6,1.9-1.6,3.2V53.2z"/>
	<path d="M446.9,58.3v-5.2c0-3.3,1.3-6.2,3.9-8.6c2.6-2.4,5.7-3.6,9.4-3.6c3.4,0,6.4,1.1,8.8,3.3s3.7,4.9,3.7,8.2
		c0,1.2-0.2,2.2-0.5,3s-0.8,1.3-1.4,1.7c-0.6,0.3-1.2,0.5-1.7,0.6c-0.5,0.1-1.2,0.1-2.1,0.1h-12.3v0.9c0,1.7,0.6,3.1,1.9,4.2
		c1.3,1.1,3,1.6,5.2,1.6c1.5,0,3.1-0.4,4.6-1.2c1.5-0.8,2.5-1.2,2.9-1.2c0.8,0,1.6,0.4,2.1,1.2c0.6,0.8,0.8,1.5,0.8,2.3
		c0,1.1-1,2.3-3.1,3.4c-2,1.1-4.6,1.7-7.6,1.7c-4.3,0-7.9-1.1-10.6-3.4S446.9,62,446.9,58.3z M454.7,53.2h8.9c0.6,0,1.1-0.1,1.4-0.3
		c0.3-0.2,0.4-0.6,0.4-1.2c0-1.3-0.5-2.4-1.5-3.2s-2.3-1.2-3.8-1.2c-1.4,0-2.6,0.4-3.7,1.2c-1.1,0.8-1.6,1.9-1.6,3.2V53.2z"/>
</g>
</svg>
