<svg width="113" height="88" xmlns="http://www.w3.org/2000/svg" xmlns:xlink="http://www.w3.org/1999/xlink"><defs><path id="a" d="M0 0h205v95H0z"/></defs><g transform="translate(-45 -7)" fill="none" fill-rule="evenodd"><mask id="b" fill="#fff"><use xlink:href="#a"/></mask><g mask="url(#b)"><path d="M48.696 22.696h1.608a.696.696 0 1 0 0-1.392h-1.608v-1.608a.696.696 0 1 0-1.392 0v1.608h-1.608a.696.696 0 1 0 0 1.392h1.608v1.608A.694.694 0 0 0 48 25a.696.696 0 0 0 .696-.696v-1.608m3.848 73.848h2.412a1.044 1.044 0 1 0 0-2.088h-2.412v-2.412a1.044 1.044 0 1 0-2.088 0v2.412h-2.412a1.044 1.044 0 1 0 0 2.088h2.412v2.412A1.04 1.04 0 0 0 51.5 100c.577 0 1.044-.468 1.044-1.044v-2.412m90.384-77.616h2.144a.928.928 0 1 0 0-1.856h-2.144v-2.144a.928.928 0 1 0-1.856 0v2.144h-2.144a.928.928 0 1 0 0 1.856h2.144v2.144A.926.926 0 0 0 142 22a.928.928 0 0 0 .928-.928v-2.144M62 8.335c-.918 0-1.665.747-1.665 1.665s.747 1.665 1.665 1.665 1.665-.747 1.665-1.665S62.918 8.335 62 8.335zM62 13c-1.654 0-3-1.346-3-3s1.346-3 3-3 3 1.346 3 3-1.346 3-3 3z" fill="#000"/><path d="M127.351 97.348l-7.105-21.957a2.787 2.787 0 0 1 1.006-3.11l18.601-13.57c2.17-1.583 1.055-5.03-1.628-5.03h-22.991a2.77 2.77 0 0 1-2.634-1.921l-7.105-21.957c-.312-.963-1.017-1.564-1.819-1.803L95.65 53.168a2.113 2.113 0 0 1-2.011 1.474h-4.924l-16.355-.96h-4.864A2.701 2.701 0 0 0 65 55.259l21.635 15.784a4.267 4.267 0 0 1 1.54 4.76l-8.098 25.028c.795.292 1.73.229 2.555-.374l4.279-3.122 6.45-5.975 9.375-6.749a2.26 2.26 0 0 1 2.658.012l21.25 15.583a2.721 2.721 0 0 0 .707-2.858" fill="#FFD621"/><path d="M103.5 84.578c.766 0 1.531.239 2.185.716l18.29 13.363c.75.547 1.543.359 2.034 0 .492-.36.915-1.059.629-1.945l-6.987-21.621a3.74 3.74 0 0 1 1.35-4.178l18.292-13.363c.75-.548.816-1.364.628-1.945-.188-.58-.719-1.202-1.645-1.202h-22.61a3.709 3.709 0 0 1-3.534-2.582L105.145 30.2c-.286-.887-1.037-1.202-1.645-1.202-.608 0-1.359.315-1.645 1.202l-6.987 21.62a3.71 3.71 0 0 1-3.535 2.583H68.724c-.927 0-1.457.621-1.645 1.202-.188.581-.121 1.397.628 1.945l18.291 13.363a3.74 3.74 0 0 1 1.35 4.178l-6.986 21.621c-.286.886.137 1.586.629 1.945.491.359 1.283.547 2.033 0l18.291-13.363a3.7 3.7 0 0 1 2.185-.716zM124.993 101a3.699 3.699 0 0 1-2.185-.727L104.517 86.91a1.719 1.719 0 0 0-2.034 0l-18.291 13.363c-1.327.97-3.042.97-4.37 0-1.326-.97-1.856-2.61-1.35-4.178l6.987-21.621a1.74 1.74 0 0 0-.628-1.945L66.54 59.166c-1.328-.97-1.857-2.61-1.35-4.178.506-1.569 1.894-2.582 3.534-2.582h22.61c.751 0 1.412-.483 1.645-1.202l6.986-21.622C100.472 28.014 101.86 27 103.5 27c1.64 0 3.028 1.014 3.535 2.582l6.986 21.622a1.727 1.727 0 0 0 1.646 1.202h22.609c1.64 0 3.028 1.013 3.535 2.582.506 1.568-.024 3.208-1.35 4.178l-18.292 13.363a1.74 1.74 0 0 0-.628 1.945l6.986 21.62c.507 1.57-.023 3.21-1.35 4.179a3.695 3.695 0 0 1-2.184.727z" stroke="#000" stroke-width=".5" fill="#000"/><path d="M144.42 79.806l-4.379-13.188a1.65 1.65 0 0 1 .62-1.867l11.462-8.15c1.337-.952.65-3.022-1.003-3.022h-14.167c-.74 0-1.395-.466-1.623-1.154l-4.378-13.188a1.644 1.644 0 0 0-1.12-1.083l-4.946 15.117a1.299 1.299 0 0 1-1.24.885h-3.033l-10.078-.577h-2.997c-.735 0-1.278.41-1.538.947l13.331 9.48a2.527 2.527 0 0 1 .95 2.86l-4.99 15.033a1.69 1.69 0 0 0 1.574-.225l2.636-1.875 3.975-3.589 5.776-4.054a1.421 1.421 0 0 1 1.638.007l13.093 9.36a1.607 1.607 0 0 0 .436-1.717" fill="#4AD8FF"/><path d="M130 72.014c.477 0 .955.145 1.362.435l11.402 8.126c.467.333.962.219 1.268 0 .306-.218.57-.644.392-1.182l-4.356-13.149c-.31-.939.027-1.96.842-2.54l11.402-8.126a1.02 1.02 0 0 0 .392-1.183 1.049 1.049 0 0 0-1.026-.73h-14.094a2.307 2.307 0 0 1-2.203-1.571l-4.355-13.148c-.179-.54-.647-.731-1.026-.731s-.847.192-1.026.73l-4.355 13.149a2.307 2.307 0 0 1-2.203 1.57h-14.094a1.05 1.05 0 0 0-1.026.73 1.02 1.02 0 0 0 .392 1.184l11.402 8.126a2.243 2.243 0 0 1 .842 2.54l-4.356 13.149c-.178.538.086.964.392 1.182.307.219.8.333 1.268 0l11.402-8.126c.408-.29.885-.435 1.362-.435zM143.398 82a2.34 2.34 0 0 1-1.362-.442l-11.402-8.126c-.38-.27-.889-.27-1.268 0l-11.402 8.126c-.827.59-1.897.59-2.724 0-.827-.59-1.157-1.587-.841-2.54l4.355-13.149a1.044 1.044 0 0 0-.392-1.183L106.96 56.56c-.828-.59-1.158-1.586-.842-2.54.316-.954 1.181-1.57 2.204-1.57h14.094c.468 0 .88-.294 1.025-.732l4.356-13.148c.315-.954 1.18-1.57 2.203-1.57s1.888.616 2.204 1.57l4.355 13.148c.145.438.557.731 1.025.731h14.094c1.023 0 1.888.617 2.204 1.57.316.955-.014 1.952-.842 2.541l-11.402 8.126c-.38.27-.537.746-.392 1.183l4.355 13.148c.316.954-.014 1.951-.841 2.54a2.342 2.342 0 0 1-1.362.443z" stroke="#000" fill="#000"/><path d="M85.63 24c-.243 0-.473-.268-.577-.718-.14-.607.005-1.315.323-1.582.25-.21.505-.415.758-.612.322-.249.689.047.82.661.13.614-.025 1.315-.346 1.564-.243.188-.487.385-.726.585a.392.392 0 0 1-.253.102M65.95 39a.909.909 0 0 1-.545-.183c-.43-.319-.534-.948-.233-1.403 3.517-5.323 8.146-9.912 13.386-13.269.45-.287 1.033-.135 1.305.342.271.476.127 1.096-.322 1.384-5.016 3.213-9.446 7.604-12.812 12.7a.934.934 0 0 1-.78.429M58.94 60a.895.895 0 0 1-.098-.005c-.516-.056-.89-.532-.837-1.064.037-.362.079-.728.124-1.087a.945.945 0 0 1 1.052-.836.962.962 0 0 1 .811 1.084c-.043.344-.083.694-.118 1.04a.95.95 0 0 1-.933.868m8.089 32a.962.962 0 0 1-.792-.42c-5.172-7.51-8.02-16.348-8.238-25.56a.985.985 0 0 1 .947-1.02c.537-.017.98.422.993.972.208 8.816 2.933 17.273 7.882 24.456.31.45.205 1.071-.232 1.39a.948.948 0 0 1-.56.182m70.841 3a.902.902 0 0 1-.59-.24c-.107-.1-.608-.634.06-1.36l.027-.026c.7-.698 1.259-.224 1.364-.122.105.102.595.647-.09 1.358-.285.297-.55.39-.77.39m3.032-3a.834.834 0 0 1-.531-.195c-.404-.331-.494-.97-.2-1.425 3.537-5.482 5.968-11.894 7.031-18.54.089-.556.56-.923 1.051-.824.492.1.819.63.73 1.185-1.11 6.948-3.652 13.65-7.348 19.379a.876.876 0 0 1-.733.42m3.505-44c-.235 0-.456-.186-.55-.492a40.37 40.37 0 0 0-.798-2.376c-.144-.389-.024-.86.27-1.051.292-.192.647-.031.791.358.3.81.581 1.645.835 2.482.122.403-.025.86-.328 1.022a.466.466 0 0 1-.22.057M141 42a.992.992 0 0 1-.861-.512c-4.624-8.123-11.387-14.516-19.559-18.485-.501-.244-.72-.868-.487-1.394.233-.526.828-.755 1.33-.511 8.538 4.148 15.604 10.826 20.435 19.314.284.498.128 1.142-.346 1.44a.963.963 0 0 1-.513.148M94.85 11c-.415 0-.779-.325-.84-.776-.07-.496.252-.958.718-1.03.437-.07.882-.132 1.32-.188.467-.059.89.297.946.796.055.498-.279.95-.746 1.008-.422.053-.85.114-1.273.18a.79.79 0 0 1-.125.01m29.153 5a.985.985 0 0 1-.413-.091 53.423 53.423 0 0 0-21.606-4.892 1.003 1.003 0 0 1-.984-1.02c.006-.553.451-.997.996-.997h.012a55.414 55.414 0 0 1 22.41 5.073c.5.231.72.83.492 1.336a.995.995 0 0 1-.907.591m22.284 16c-.22 0-.435-.138-.575-.398a54.886 54.886 0 0 0-.562-1.02c-.242-.428-.185-1.043.126-1.376.311-.332.76-.254 1.001.173.196.347.392.702.583 1.058.235.436.167 1.05-.15 1.371a.593.593 0 0 1-.423.192m10.638 36a.924.924 0 0 1-.076-.003c-.497-.045-.865-.514-.823-1.047.804-10.275-1.24-20.48-5.912-29.51-.242-.467-.086-1.057.35-1.318.434-.26.983-.091 1.226.376 4.847 9.369 6.967 19.955 6.133 30.614-.04.506-.434.888-.898.888M48.15 74a.841.841 0 0 1-.84-.7 43.964 43.964 0 0 1-.306-2.4.83.83 0 0 1 .764-.896c.467-.043.883.287.927.739.077.77.176 1.549.295 2.314a.826.826 0 0 1-.713.934.883.883 0 0 1-.128.009m-.123-10h-.007c-.566-.004-1.022-.443-1.019-.983.073-10.992 3.576-21.572 10.131-30.596a1.06 1.06 0 0 1 1.427-.248.947.947 0 0 1 .26 1.359c-6.32 8.7-9.697 18.9-9.767 29.498-.004.537-.462.97-1.025.97" fill="#000"/></g></g></svg>