<svg width="27" height="27" xmlns="http://www.w3.org/2000/svg" xmlns:xlink="http://www.w3.org/1999/xlink"><defs><path id="a" d="M.343.136h6.53v6.53H.344z"/><path id="c" d="M.23.126h10.644V10.77H.23z"/><path id="e" d="M0 .21h19.903V22H0z"/></defs><g fill="none" fill-rule="evenodd"><g transform="translate(7)"><mask id="b" fill="#fff"><use xlink:href="#a"/></mask><path d="M3.608 5.034c-.9 0-1.633-.733-1.633-1.633s.733-1.633 1.633-1.633 1.633.733 1.633 1.633-.732 1.633-1.633 1.633m0-4.898A3.269 3.269 0 0 0 .343 3.4c0 1.8 1.464 3.265 3.265 3.265A3.27 3.27 0 0 0 6.874 3.4 3.27 3.27 0 0 0 3.608.136" fill="#535353" mask="url(#b)"/></g><g transform="translate(16)"><mask id="d" fill="#fff"><use xlink:href="#c"/></mask><path d="M5.552 9.249a3.805 3.805 0 0 1-3.8-3.802c0-2.095 1.705-3.8 3.8-3.8a3.805 3.805 0 0 1 3.801 3.8 3.805 3.805 0 0 1-3.8 3.802m0-9.123A5.327 5.327 0 0 0 .23 5.447a5.328 5.328 0 0 0 5.321 5.322 5.328 5.328 0 0 0 5.322-5.322A5.327 5.327 0 0 0 5.552.127" fill="#535353" mask="url(#d)"/></g><path d="M22.25 4.5h-.75v-.75a.75.75 0 0 0-1.5 0v1.5c0 .414.336.75.75.75h1.5a.75.75 0 0 0 0-1.5" fill="#535353"/><g transform="translate(0 5)"><mask id="f" fill="#fff"><use xlink:href="#e"/></mask><path d="M18.38 19.676a.769.769 0 0 1-.761.775.769.769 0 0 1-.762-.775v-6.248a.768.768 0 0 0-.762-.774H9.95a.77.77 0 0 1-.761-.775V4.857c0-.854.683-1.549 1.523-1.549.84 0 1.524.695 1.524 1.55v5.472c0 .428.34.775.76.775h4.622c.42 0 .76.348.76.774v7.797zm-6.905-3.924H3.808a.769.769 0 0 1-.762-.774c0-.073.083.628-1.522-12.484a.768.768 0 0 1 .76-.735c.42 0 .762.347.762.774 0 .097 1.34 10.991 1.34 10.991a.766.766 0 0 0 .755.679h6.334a.77.77 0 0 1 .762.775.77.77 0 0 1-.762.774zm6.144-6.196h-3.86V4.857c0-1.708-1.366-3.098-3.046-3.098-1.68 0-3.046 1.39-3.046 3.098v7.022c0 .272.046.533.13.775H5.814S5.004 6.058 4.57 2.481C4.542 1.224 3.528.211 2.285.211 1.025.21 0 1.251 0 2.532c0 .032.002.064.006.096L1.524 15.03a2.325 2.325 0 0 0 1.522 2.138v4.058c0 .427.342.774.762.774s.762-.347.762-.774V17.3h6.143v3.925c0 .427.341.774.762.774.42 0 .762-.347.762-.774v-4.058a2.325 2.325 0 0 0 1.523-2.19 2.35 2.35 0 0 0-.132-.775h1.705v5.473c0 1.281 1.026 2.324 2.286 2.324s2.284-1.043 2.284-2.324V11.88c0-1.28-1.025-2.323-2.284-2.323z" fill="#535353" mask="url(#f)"/></g></g></svg>