<svg width="28" height="32" xmlns="http://www.w3.org/2000/svg" xmlns:xlink="http://www.w3.org/1999/xlink"><defs><path id="a" d="M.005.031h27.98V32H.006z"/></defs><g fill="none" fill-rule="evenodd"><mask id="b" fill="#fff"><use xlink:href="#a"/></mask><path d="M27.216 13.753c-1.02-2.766-2.924-4.691-5.363-5.42-2.352-.703-4.907-.196-7.19 1.388a7.712 7.712 0 0 0-.915-2.383 5.264 5.264 0 0 0 3.155-1.501 5.247 5.247 0 0 0 1.36-5.059.806.806 0 0 0-.572-.57 5.272 5.272 0 0 0-5.069 1.356 5.244 5.244 0 0 0-1.498 3.092 7.758 7.758 0 0 0-4.1-1.166.806.806 0 1 0 0 1.61 6.19 6.19 0 0 1 5.898 4.322C10.744 8.05 8.349 7.637 6.132 8.3 3.695 9.029 1.79 10.954.77 13.72c-.99 2.685-1.026 5.86-.102 8.939.924 3.08 2.703 5.711 5.009 7.411 2.376 1.752 5.027 2.315 7.466 1.586.275-.082.547-.181.813-.296a7.36 7.36 0 0 0 3.015.64c1.801 0 3.64-.645 5.338-1.897 2.306-1.7 4.085-4.332 5.01-7.411.923-3.08.887-6.254-.103-8.939zM12.73 5.73a3.635 3.635 0 0 1 1.034-3.027 3.653 3.653 0 0 1 3.034-1.033 3.637 3.637 0 0 1-1.034 3.028A3.653 3.653 0 0 1 12.73 5.73zm13.043 16.5c-.824 2.747-2.395 5.084-4.422 6.578-1.957 1.443-4.104 1.919-6.044 1.339a5.735 5.735 0 0 1-.976-.394.808.808 0 0 0-.73-.004 5.71 5.71 0 0 1-.92.365c-4.093 1.223-8.789-2.328-10.467-7.917-1.677-5.59.29-11.131 4.383-12.355 2.23-.666 4.735.07 6.87 2.019a.803.803 0 0 0 1.117-.024c2.122-1.906 4.601-2.621 6.807-1.962 4.094 1.224 6.06 6.766 4.382 12.355z" fill="#000" mask="url(#b)"/><path d="M6.968 11.59c-.121-.438-.548-.686-.953-.555-1.633.53-2.935 2.104-3.574 4.322-.615 2.135-.586 4.64.082 7.052.099.359.403.591.732.591a.719.719 0 0 0 .22-.035c.405-.131.635-.593.514-1.03-.573-2.07-.604-4.288-.087-6.085.492-1.708 1.398-2.854 2.552-3.229.405-.13.635-.592.514-1.03z" fill="#000"/></g></svg>