<svg width="15" height="21" xmlns="http://www.w3.org/2000/svg"><path d="M7.5 9.852c-1.386 0-2.508-1.109-2.508-2.47 0-1.356 1.13-2.468 2.508-2.468 1.379 0 2.504 1.112 2.504 2.469 0 1.34-1.096 2.469-2.504 2.469m0-6.16c-2.068 0-3.75 1.655-3.75 3.69 0 2.023 1.655 3.692 3.75 3.692 2.121 0 3.75-1.691 3.75-3.691 0-2.036-1.682-3.692-3.75-3.692m5.37 6.843l-5.275 8.669-5.413-8.586a6.074 6.074 0 0 1-.94-3.234c0-3.393 2.812-6.16 6.258-6.16s6.254 2.767 6.254 6.16a6.075 6.075 0 0 1-.885 3.15M7.5 0C3.364 0 0 3.312 0 7.383c0 1.375.387 2.718 1.12 3.882l5.953 9.444a.627.627 0 0 0 .531.291h.005a.627.627 0 0 0 .531-.3l5.802-9.535A7.287 7.287 0 0 0 15 7.383C15 3.312 11.636 0 7.5 0" fill="#595959" fill-rule="evenodd" opacity=".649"/></svg>