<?xml version="1.0" encoding="utf-8"?>
<!-- Generator: Adobe Illustrator 22.1.0, SVG Export Plug-In . SVG Version: 6.00 Build 0)  -->
<svg version="1.1" id="Layer_1" xmlns="http://www.w3.org/2000/svg" xmlns:xlink="http://www.w3.org/1999/xlink" x="0px" y="0px"
	 viewBox="0 0 400 400" style="enable-background:new 0 0 400 400;" xml:space="preserve">
<path d="M395,25h-41.8V5.5c0-2.2-1.8-4-4-4s-4,1.8-4,4V25h-290V5.5c0-2.2-1.8-4-4-4s-4,1.8-4,4V25H7c-2.2,0-4,1.8-4,4v133
	c0,2.2,1.8,4,4,4h388c2.2,0,4-1.8,4-4V29C399,26.8,397.2,25,395,25z M391,158H11V33h380V158z M62,119.5c0.8,0.8,1.8,1.2,2.8,1.2
	s2-0.4,2.8-1.2c1.6-1.6,1.6-4.1,0-5.7l-11.3-11.3H89c2.2,0,4-1.8,4-4s-1.8-4-4-4H55.4l12.3-12.3c1.6-1.6,1.6-4.1,0-5.7
	c-1.6-1.6-4.1-1.6-5.7,0L43.4,95.2c-1.6,1.6-1.6,4.1,0,5.7L62,119.5z M130,89.5h148c2.2,0,4-1.8,4-4s-1.8-4-4-4H130
	c-2.2,0-4,1.8-4,4S127.8,89.5,130,89.5z M130,115h222c2.2,0,4-1.8,4-4s-1.8-4-4-4H130c-2.2,0-4,1.8-4,4S127.8,115,130,115z
	 M394.6,304.5h-7.1v-70.3c0-18.5-15-33.5-33.5-33.5h-29.3c-18.5,0-33.5,15-33.5,33.5v70.3H284c-2.2,0-4,1.8-4,4v11.7h-20.5v-11.7
	c0-2.2-1.8-4-4-4h-7.1v-70.3c0-18.5-15-33.5-33.5-33.5h-29.3c-18.5,0-33.5,15-33.5,33.5v70.3H145c-2.2,0-4,1.8-4,4v11.7h-20.5v-11.7
	c0-2.2-1.8-4-4-4h-7.1v-70.3c0-18.5-15-33.5-33.5-33.5H46.6c-18.5,0-33.5,15-33.5,33.5v70.3H6c-2.2,0-4,1.8-4,4v18.2
	c0,8.4,6.9,15.3,15.3,15.3h40v48.3H5c-2.2,0-4,1.8-4,4s1.8,4,4,4h389.3c2.2,0,4-1.8,4-4s-1.8-4-4-4h-51V342h40
	c8.4,0,15.3-6.9,15.3-15.3v-18.2C398.6,306.3,396.8,304.5,394.6,304.5z M299.1,234.2c0-14.1,11.4-25.5,25.5-25.5H354
	c14.1,0,25.5,11.4,25.5,25.5v70.3h-80.4V234.2z M160.1,234.2c0-14.1,11.4-25.5,25.5-25.5H215c14.1,0,25.5,11.4,25.5,25.5v70.3h-80.4
	V234.2z M149,312.5h102.5v9.4c-0.5,0.7-0.7,1.5-0.7,2.3s0.3,1.7,0.7,2.3v0.2c0,4-3.3,7.3-7.3,7.3h-87.9c-4,0-7.3-3.3-7.3-7.3V312.5z
	 M21.1,234.2c0-14.1,11.4-25.5,25.5-25.5H76c14.1,0,25.5,11.4,25.5,25.5v70.3H21.1V234.2z M17.4,334c-4,0-7.3-3.3-7.3-7.3v-14.2
	h102.5v14.2c0,4-3.3,7.3-7.3,7.3H17.4z M196.3,390.3h-131V342h40c7.9,0,14.5-6.1,15.2-13.8h20.6c0.7,7.8,7.3,13.8,15.2,13.8h40
	V390.3z M335.3,390.3h-131V342h40c7.9,0,14.5-6.1,15.2-13.8h20.6c0.7,7.8,7.3,13.8,15.2,13.8h40V390.3z M390.6,326.7
	c0,4-3.3,7.3-7.3,7.3h-87.9c-4,0-7.3-3.3-7.3-7.3v-14.2h102.5V326.7z"/>
</svg>
