<svg width="136" height="136" xmlns="http://www.w3.org/2000/svg"><g fill="none" fill-rule="evenodd"><circle fill="#FFF" cx="68" cy="68" r="68"/><path d="M101.59 92.087c0 .603-.49 1.093-1.094 1.093H84.92c-.604 0-1.095-.49-1.095-1.093v-2.688h17.765v2.688zm-9.492 10.658H69.203v-8.31h7.066a2.352 2.352 0 0 0 2.352-2.348v-.199h3.948v.199a2.352 2.352 0 0 0 2.352 2.348h7.177v8.31zm-24.152 0H44.827v-8.31h7.217a2.352 2.352 0 0 0 2.352-2.348v-.199h3.947v.199a2.352 2.352 0 0 0 2.352 2.348h7.251v8.31zM36.47 93.18c-.604 0-1.096-.49-1.096-1.093v-2.688H53.14v2.688c0 .603-.491 1.093-1.095 1.093H36.469zm.771-17.848a4.244 4.244 0 0 1 4.242-4.236h5.549c2.338 0 4.241 1.9 4.241 4.236v12.761H37.24V75.332zM59.6 89.399h17.765v1.692c-.016.055-.034.11-.034.17 0 .06.018.114.034.17v.656c0 .603-.491 1.093-1.096 1.093H60.695c-.604 0-1.095-.49-1.095-1.093v-2.688zm1.866-14.067a4.244 4.244 0 0 1 4.242-4.236h5.549c2.338 0 4.242 1.9 4.242 4.236v12.761H61.466V75.332zm24.226 0a4.244 4.244 0 0 1 4.242-4.236h5.549c2.339 0 4.242 1.9 4.242 4.236v12.761H85.692V75.332zm16.527 12.812h-1.238V75.332c0-3.027-2.466-5.49-5.498-5.49h-5.549c-3.032 0-5.499 2.463-5.499 5.49v12.812h-1.237a.627.627 0 0 0-.629.628v1.861h-3.948v-1.861a.627.627 0 0 0-.628-.628h-1.238V75.332c0-3.027-2.467-5.49-5.498-5.49h-5.55c-3.031 0-5.497 2.463-5.497 5.49v12.812h-1.24a.628.628 0 0 0-.628.628v1.861h-3.947v-1.861a.628.628 0 0 0-.629-.628H52.53V75.332c0-3.027-2.467-5.49-5.498-5.49h-5.549c-3.032 0-5.498 2.463-5.498 5.49v12.812h-1.239a.628.628 0 0 0-.628.628v3.315a2.353 2.353 0 0 0 2.352 2.348h7.102v8.31h-8.943a.628.628 0 1 0 0 1.255h67.52a.628.628 0 1 0 0-1.255h-8.793v-8.31h7.14a2.352 2.352 0 0 0 2.352-2.348v-3.315a.628.628 0 0 0-.628-.628zm-38.28-30.838h31.927a.628.628 0 1 0 0-1.254H63.94a.628.628 0 1 0 0 1.254zm0-5.225h31.927a.628.628 0 1 0 0-1.255H63.94a.628.628 0 1 0 0 1.255zm0-5.3h21.086a.628.628 0 1 0 0-1.255H63.939a.628.628 0 1 0 0 1.254zm-28.572 15.54h66.376V40.51H35.367v21.812zm67.005-23.067h-7.336v-3.628a.627.627 0 1 0-1.256 0v3.628H42.996v-3.628a.628.628 0 0 0-1.257 0v3.628h-7a.628.628 0 0 0-.628.627V62.95c0 .347.281.628.628.628h67.633c.347 0 .628-.28.628-.628V39.882a.628.628 0 0 0-.628-.627zm-57.567 7.25a.628.628 0 0 0 .385-.385l.487-1.384.273 2.137a.62.62 0 0 0 .18.364l4.489 4.482a.629.629 0 0 0 .979-.114l3.782-6.119-1.92 8.66a.624.624 0 0 0 .17.58l2.936 2.93c.185.186.195.383.144.45-.038.02-.237.013-.421-.173L53.31 54.96a.628.628 0 0 0-.58-.17l-8.565 1.894 6.047-3.726a.626.626 0 0 0 .114-.978l-4.566-4.559a.632.632 0 0 0-.365-.179l-1.977-.252 1.387-.486zM41.663 47.9c.098.098.226.16.365.179l2.995.381 3.853 3.846-6.272 3.864a.626.626 0 0 0-.114.978l.733.731a.63.63 0 0 0 .58.169l8.862-1.958 2.735 2.73c.355.354.809.54 1.244.54.365 0 .716-.13.986-.4.288-.287.419-.704.36-1.142a1.849 1.849 0 0 0-.536-1.048l-2.692-2.688 1.985-8.958a.626.626 0 0 0-.17-.579l-.732-.731a.628.628 0 0 0-.979.114l-3.92 6.344L47.17 46.5l-.403-3.154a.63.63 0 0 0-.18-.364l-.496-.496a.627.627 0 0 0-1.038.236l-.949 2.697-2.702.948a.627.627 0 0 0-.236 1.036l.497.496z" fill="#000"/></g></svg>