<svg width="31" height="29" xmlns="http://www.w3.org/2000/svg" xmlns:xlink="http://www.w3.org/1999/xlink"><defs><path id="a" d="M0 0h30.355v28.638H0z"/></defs><g fill="none" fill-rule="evenodd"><mask id="b" fill="#fff"><use xlink:href="#a"/></mask><path d="M30.294 12.091a.638.638 0 0 0-.579-.375h-1.89C26.623 5.06 20.895 0 14.031 0 6.295 0 0 6.424 0 14.32c0 7.895 6.294 14.318 14.031 14.318 4.993 0 9.65-2.742 12.152-7.156a1.316 1.316 0 0 0-.466-1.778 1.26 1.26 0 0 0-1.742.474c-2.048 3.613-5.859 5.857-9.944 5.857-6.33 0-11.48-5.255-11.48-11.714 0-6.46 5.15-11.716 11.48-11.716 5.452 0 10.02 3.902 11.184 9.112H23.34a.639.639 0 0 0-.579.375.66.66 0 0 0 .088.692l3.19 3.905a.633.633 0 0 0 .979 0l3.189-3.905a.661.661 0 0 0 .087-.693" fill="#000" mask="url(#b)"/><path d="M14.343 14.864c-.554 0-1.004-.468-1.004-1.042 0-.575.451-1.043 1.004-1.043.554 0 1.005.468 1.005 1.043 0 .574-.451 1.042-1.005 1.042m0-12.864c-.74 0-1.339.622-1.339 1.39v8.44A2.458 2.458 0 0 0 12 13.821c0 1.342 1.052 2.434 2.344 2.434.354 0 .688-.088.989-.235l4.658 2.792c.212.127.44.187.669.187.462 0 .912-.25 1.16-.696.37-.664.151-1.515-.49-1.899l-4.664-2.796a2.443 2.443 0 0 0-.982-1.779V3.39c-.001-.767-.602-1.39-1.34-1.39" fill="#000"/></g></svg>