<svg id="Layer_1" xmlns="http://www.w3.org/2000/svg" viewBox="0 0 141 120"><style>.st0,.st1{fill:#ffd41d}.st1{stroke:#fff}.st22{fill:#53e7d3}.st24{fill:#37c4b3}.st26{fill:#d69ef0}.st29{opacity:.1;enable-background:new}</style><g id="Page-1"><g id="Home-Page--Copy-2" transform="translate(-185 -1660)"><g id="Group-12"><path id="_x2B_-copy-11" class="st0" d="M287.4 1674c0-.2.1-.4.4-.4h1.5v-1.5c0-.2.1-.4.4-.4h1.8c.2 0 .4.1.4.4v1.5h1.5c.1 0 .2 0 .2.1.1.1.1.1.1.3v1.6c0 .1 0 .2-.1.3-.1.1-.1.1-.3.1h-1.5v1.6c0 .1 0 .2-.1.2-.1.1-.1.1-.3.1h-1.8c-.1 0-.2 0-.3-.1-.1-.1-.1-.1-.1-.3v-1.6h-1.5c-.2 0-.4-.1-.4-.4v-1.5z"/><path id="_x2B_-copy-12" class="st0" d="M321.7 1683.4c0-.1.1-.2.2-.2h.9v-.9c0-.1.1-.2.2-.2h1.1c.1 0 .2.1.2.2v.9h.9c.1 0 .1 0 .2.1s.1.1.1.2v1s0 .1-.1.2c0 .1-.1.1-.2.1h-.9v.9c0 .1 0 .1-.1.2 0 0-.1.1-.2.1h-1.1s-.1 0-.2-.1c-.1 0-.1-.1-.1-.2v-.9h-.6c-.1 0-.2-.1-.2-.2v-1.2z"/><path id="_x2B_-copy-13" class="st0" d="M318 1705.8c0-.1.1-.2.2-.2h.9v-.9c0-.1.1-.2.2-.2h1.1c.1 0 .2.1.2.2v.9h.9c.1 0 .1 0 .2.1 0 0 .1.1.1.2v1s0 .1-.1.2c0 .1-.1.1-.2.1h-.9v.9c0 .1 0 .1-.1.2 0 0-.1.1-.2.1h-1.1s-.1 0-.2-.1c-.1 0-.1-.1-.1-.2v-.9h-.9c-.1 0-.2-.1-.2-.2v-1.2z"/><circle id="Oval-7-Copy-6" class="st1" cx="309" cy="1687.3" r="1.5"/><g id="Group-11"><path id="_x2B_-copy-14" class="st0" d="M219.8 1677.8c0-.2.1-.4.4-.4h1.5v-1.5c0-.2.1-.4.4-.4h1.8c.2 0 .4.1.4.4v1.5h1.5c.1 0 .2 0 .2.1.1.1.1.1.1.3v1.6c0 .1 0 .2-.1.3-.1.1-.1.1-.3.1h-1.5v1.6c0 .1 0 .2-.1.2-.1.1-.1.1-.3.1H222c-.1 0-.2 0-.3-.1-.1-.1-.1-.1-.1-.3v-1.6h-1.5c-.2 0-.4-.1-.4-.4v-1.5z"/><path id="_x2B_-copy-15" class="st0" d="M185.5 1715.8c0-.1.1-.2.2-.2h.9v-.9c0-.1.1-.2.2-.2h1.1c.1 0 .2.1.2.2v.9h.9c.1 0 .1 0 .2.1 0 0 .1.1.1.2v1s0 .1-.1.2c0 .1-.1.1-.2.1h-.9v.9c0 .1 0 .1-.1.2 0 0-.1.1-.2.1h-1.1s-.1 0-.2-.1c-.1 0-.1-.1-.1-.2v-.9h-.9c-.1 0-.2-.1-.2-.2v-1.2z"/><path id="_x2B_-copy-16" class="st0" d="M196 1684.3c0-.1.1-.2.2-.2h.9v-.9c0-.1.1-.2.2-.2h1.1c.1 0 .2.1.2.2v.9h.9c.1 0 .1 0 .2.1 0 0 .1.1.1.2v1s0 .1-.1.2c0 .1-.1.1-.2.1h-.9v.9c0 .1 0 .1-.1.2 0 0-.1.1-.2.1h-1.1s-.1 0-.2-.1c-.1 0-.1-.1-.1-.2v-.9h-.9c-.1 0-.2-.1-.2-.2v-1.2z"/><path id="_x2B_-copy-17" class="st0" d="M258.1 1661.8c0-.1.1-.2.2-.2h.9v-.9c0-.1.1-.2.2-.2h1.1c.1 0 .2.1.2.2v.9h.9c.1 0 .1 0 .2.1s.1.1.1.2v1s0 .1-.1.2c0 .1-.1.1-.2.1h-.9v.9c0 .1 0 .1-.1.2 0 0-.1.1-.2.1h-1.1s-.1 0-.2-.1c-.1 0-.1-.1-.1-.2v-.9h-.9c-.1 0-.2-.1-.2-.2v-1.2z"/><circle id="Oval-7-Copy-5" class="st1" cx="214.3" cy="1700.3" r="1.5"/></g></g></g></g><circle id="Oval_6_" cx="74.4" cy="70.6" r="48.6" fill="#e1e6e8"/><path class="st22" d="M74.6 81c-.3-.4-.3-.9-.1-1.4l3.7-5.7c.2-.3.6-.5.9-.5h10.7l2.1-2.6c.6-.7.6-1.7.1-2.4l-6.6-10.1c-.4-.6-1-.9-1.7-.9H60.2c-.7 0-1.3.3-1.7.9l-6.6 10.1c-.5.8-.4 1.7.1 2.4l18.4 22.6c.4.5 1 .7 1.6.7.6 0 1.2-.3 1.6-.7l5.6-6.9-4.6-5.5z"/><path d="M74.6 81c-.3-.4-.3-.9-.1-1.4l3.7-5.7c.1-.2.3-.3.4-.4l1.3-3.9h12.5c0-.4-.1-.9-.3-1.3l-6.6-10.1c-.4-.6-1-.9-1.7-.9H60.2c-.7 0-1.3.3-1.7.9l-6.6 10.1c-.2.4-.4.8-.3 1.3h12.5l8 24.6 3.8-11.7-1.3-1.5z" fill="#b9f5ed"/><path class="st22" d="M72 57.3l-8 12.3h16l-8-12.3z"/><path class="st24" d="M59.2 57.5c-.3.2-.6.4-.8.7l-6.6 10.1c-.2.4-.4.8-.3 1.3H64l1.5-2.4-6.3-9.7z"/><path d="M57.7 51c-2.7-.8-3.2-1.2-3.9-4-.1-.3-.4-.6-.8-.6s-.7.2-.8.6c-.7 2.8-1.2 3.2-3.9 4-.3.1-.6.4-.6.8s.2.7.6.8c2.7.8 3.2 1.2 3.9 4 .1.3.4.6.8.6s.7-.2.8-.6c.7-2.8 1.2-3.2 3.9-4 .3-.1.6-.4.6-.8s-.3-.7-.6-.8zm42.9 43.5c-2.2-.6-2.6-1-3.3-3.3-.1-.3-.3-.5-.6-.5s-.6.2-.6.5c-.6 2.3-1 2.7-3.3 3.3-.3.1-.5.3-.5.6s.2.6.5.6c2.2.6 2.6 1 3.3 3.3.1.3.3.5.6.5s.6-.2.6-.5c.6-2.3 1-2.7 3.3-3.3.3-.1.5-.3.5-.6s-.3-.5-.5-.6z" fill="#ffc753"/><path class="st26" d="M85.9 94.2c-.3 0-.7-.2-.9-.4L74.6 81c-.3-.4-.3-.9-.1-1.4l3.7-5.7c.2-.3.6-.5.9-.5h13.4c.4 0 .7.2.9.5l3.7 5.7c.3.4.2 1-.1 1.4L86.8 93.7c-.2.3-.6.5-.9.5z"/><path d="M97.2 79.6l-3.7-5.7c-.2-.3-.6-.5-.9-.5H79.2c-.4 0-.7.2-.9.5l-3.7 5.7c-.1.2-.2.5-.2.7h7l4.5 13.8 4.5-13.8h7c0-.2 0-.5-.2-.7z" fill="#efc7ff"/><path d="M78.7 73.5c-.2.1-.3.2-.4.4l-3.7 5.7c-.1.2-.2.5-.2.7h7l.9-1.3-3.6-5.5zm18.5 6.1l-3.7-5.7c-.1-.2-.3-.3-.4-.4L89.5 79l.9 1.3h7c0-.2 0-.5-.2-.7z" fill="#bc81e2"/><path class="st29" d="M84.5 89.7L77.3 81c-.3-.4-.3-1 0-1.4l2.7-4.1-1.3-1.9c-.2.1-.3.2-.4.4l-3.7 5.7c-.3.4-.2 1 .1 1.4L85 93.7c.2.3.5.4.9.4l-1.4-4.4z"/><path class="st24" d="M92.1 68.3l-6.6-10.1c-.2-.3-.5-.5-.8-.7l-6.3 9.7 1.5 2.4h12.4c.2-.4.1-.9-.2-1.3z"/><path class="st29" d="M70.6 89.8l-15.5-19c-.6-.7-.6-1.7-.1-2.4l5.7-8.7-1.4-2.1c-.3.2-.6.4-.8.7l-6.6 10.1c-.5.8-.4 1.7.1 2.4l18.4 22.6c.4.5 1 .7 1.6.7l-1.4-4.3z"/><path class="st26" d="M85.9 73.4l-4.5 6.9h9l-4.5-6.9z"/><path d="M53 57.9c.7 0 1.4-.5 1.6-1.2.7-2.5.9-2.7 3.4-3.4.7-.2 1.2-.8 1.2-1.6s-.5-1.4-1.2-1.6c-2.4-.7-2.7-.9-3.4-3.4-.2-.7-.8-1.2-1.6-1.2s-1.4.5-1.6 1.2c-.7 2.5-.9 2.7-3.4 3.4-.7.2-1.2.8-1.2 1.6s.5 1.4 1.2 1.6c2.4.7 2.7.9 3.4 3.4.2.8.9 1.2 1.6 1.2zm-4.3-6.1c2.8-.8 3.5-1.5 4.3-4.3.8 2.8 1.5 3.5 4.3 4.3-2.8.8-3.5 1.5-4.3 4.3-.8-2.8-1.5-3.5-4.3-4.3zm52.1 41.9c-2-.5-2.1-.7-2.7-2.7-.2-.7-.8-1.1-1.4-1.1-.7 0-1.3.5-1.4 1.1-.5 2-.7 2.2-2.7 2.7-.6.2-1.1.8-1.1 1.4s.4 1.3 1.1 1.4c2 .5 2.1.7 2.7 2.7.2.7.8 1.1 1.4 1.1.7 0 1.3-.5 1.4-1.1.5-2 .7-2.2 2.7-2.7.6-.2 1.1-.8 1.1-1.4 0-.6-.5-1.2-1.1-1.4zm-4.1 4.6c-.6-1.9-1.2-2.5-3.1-3.1 1.9-.6 2.5-1.2 3.1-3.1.6 1.9 1.2 2.5 3.1 3.1-1.9.6-2.5 1.2-3.1 3.1zm1.2-19.2l-3.7-5.7c-.4-.6-1-.9-1.7-.9h-.9l1-1.3c.8-.9.9-2.2.3-3.2 0-.1-6.7-10.3-6.7-10.3-.5-.8-1.4-1.3-2.4-1.3H60.2c-1 0-1.9.5-2.4 1.3l-6.6 10.1c-.7 1.1-.6 2.4.2 3.4l6.9 8.4c.3.4.8.4 1.2.1.4-.3.4-.8.1-1.2l-6.7-8.2h10.6l7 21.6-8.9-11c-.3-.4-.8-.4-1.2-.1-.4.3-.4.8-.1 1.2l9.6 11.8c.5.7 1.4 1.1 2.2 1.1.9 0 1.7-.4 2.2-1.1l4.9-6.1 5.2 6.4c.4.5.9.7 1.5.7s1.2-.3 1.5-.7l10.4-12.8c.6-.5.6-1.4.1-2.2zm-17.7-4.9h4.2l-2.1 3.2-2.1-3.2zm1.1 4.8l-.3.5h-5.3l3-4.6 2.6 4.1zm-1.4-6.5l.7-2.1h10.6l-1.7 2.1h-9.6zm6 2.4l3 4.6H83l2.9-4.6zm1.6-.7h4.2l-2.1 3.2-2.1-3.2zm-2.6-15.4l6.5 9.9H80.5l-1-1.5 5.4-8.4zm-1.5-.7l-4.9 7.5-4.9-7.5h9.8zm-12.9 0l-4.9 7.5-4.9-7.5h9.8zm-7 10.6H52.6l6.5-9.9 5.5 8.4-1.1 1.5zm1.7 1.7h5.9c.5 0 .8-.4.8-.8 0-.5-.4-.8-.8-.8h-5.6l6.5-9.9 6.5 9.9h-4c-.5 0-.8.4-.8.8 0 .5.4.8.8.8h4.3L78 73c-.2.1-.3.3-.4.5l-3.7 5.7c-.5.7-.4 1.7.1 2.4l.9 1.1-2.9 8.7-6.8-21zm8.4 21.7l2.6-7.9 1.9 2.4-4.5 5.5zm2.3-10.9h4.9l3.3 10.1-8.2-10.1zm11.8 10l1.3-4c.1-.4-.1-.9-.5-1.1-.4-.1-.9.1-1.1.5l-1.5 4.8-3.3-10.3h6.7l-.7 2.2c-.1.4.1.9.5 1.1h.3c.4 0 .7-.2.8-.6l.9-2.8H96l-8.3 10.2zm3.2-11.7l-.3-.5 2.6-4.1 3 4.6h-5.3z"/></svg>