<svg id="Layer_1" xmlns="http://www.w3.org/2000/svg" viewBox="0 0 100 60"><style>.st0{fill:#ff4b55}.st1{fill:#f5f5f5}.st3{fill:#ffe15a}</style><path class="st0" d="M100 4.7H0v-3C0 .8.8 0 1.7 0h96.5c1 0 1.7.8 1.7 1.7l.1 3z"/><path class="st1" d="M0 4.7h100v4.7H0z"/><path class="st0" d="M0 9.4h100v4.7H0z"/><path class="st1" d="M0 14h100v4.7H0z"/><path class="st0" d="M0 18.7h100v4.7H0z"/><path class="st1" d="M0 23.4h100v4.7H0z"/><path class="st0" d="M0 28.1h100v4.7H0z"/><path class="st1" d="M0 32.8h100v4.7H0z"/><path class="st0" d="M100 42.1H0v-7.6h1.7v2.9H100z"/><path class="st1" d="M0 42.1h100v4.7H0z"/><path class="st0" d="M0 46.8h100v4.7H0z"/><path class="st1" d="M0 51.5h100v4.7H0z"/><path class="st0" d="M0 56.1h100V60H0z"/><path d="M60.3 37.4H1.7c-1 0-1.7-.8-1.7-1.7v-34C0 .8.8 0 1.7 0h58.6c1 0 1.7.8 1.7 1.7v34c.1 1-.7 1.7-1.7 1.7z" fill="#41479b"/><path class="st3" d="M16.4 18.7c0-6.5 5.3-11.8 11.8-11.8 1.6 0 3.2.3 4.6.9.2.1.3-.1.2-.3-2.3-1.6-5.2-2.5-8.3-2.3-6.8.4-12.3 5.8-12.8 12.6-.5 7.9 5.7 14.4 13.5 14.4 2.8 0 5.4-.9 7.6-2.3.2-.1 0-.4-.2-.3-1.4.6-3 .9-4.6.9-6.5 0-11.8-5.3-11.8-11.8"/><path class="st3" d="M43.4 18.7l5-1.9c.2-.1.2-.5-.1-.4l-5.3.4 3.7-3.9c.2-.2-.1-.5-.3-.4l-4.6 2.7 1.6-5.1c.1-.3-.3-.4-.4-.2l-3 4.4-.9-5.3c0-.3-.4-.3-.5 0l-.5 3.4-.1 1.4-.1.5-3-4.4c-.1-.2-.5-.1-.4.2l1.6 5.1-4.6-2.7c-.2-.1-.5.2-.3.4l3.7 3.9-5.3-.4c-.3 0-.3.3-.1.4l5 1.9-5 1.9c-.2.1-.2.5.1.4l5.3-.4-3.7 3.9c-.2.2.1.5.3.4l4.6-2.7-1.6 5.1c-.1.3.3.4.4.2l3-4.4.1.5.2 1.4.5 3.4c0 .3.4.3.5 0l.8-5.3 3 4.4c.1.2.5.1.4-.2l-1.6-5.1 4.6 2.7c.2.1.5-.2.3-.4L43 20.6l5.3.4c.3 0 .3-.3.1-.4l-5-1.9z"/></svg>