<svg width="202" height="159" xmlns="http://www.w3.org/2000/svg"><g fill="none"><path d="M202 72.31c0 4.493-1.065 9.024-3.117 13.004-.04.079-4.852 8.117-4.852 8.117v55.166c0 5.753-4.695 10.403-10.456 10.403l-163.216-.079c-5.76 0-10.416-4.689-10.416-10.403V53.002S3.157 41.614 3.118 41.536A28.239 28.239 0 0 1 0 28.375C.08 12.967 12.744.24 28.171.003c7.732-.118 14.992 2.798 20.476 8.236a29.727 29.727 0 0 1 3.51 4.216l131.458.079c5.76 0 10.416 4.69 10.416 10.403v29.632C199.159 57.889 202 64.863 202 72.31zm-10.573 9.024a20.013 20.013 0 0 0 2.13-9.063c0-5.438-2.13-10.52-5.997-14.343-3.866-3.822-8.995-5.871-14.44-5.793-10.889.158-19.805 9.142-19.884 20.018-.04 3.231.71 6.305 2.13 9.181l18.03 30.184L186.1 90.239l5.327-8.905zm-5.8 67.224v-41.099l-4.971 8.354c-1.539 2.561-4.221 4.098-7.22 4.098-2.998 0-5.681-1.537-7.22-4.098 0 0-18.188-30.46-18.227-30.539a28.239 28.239 0 0 1-3.117-13.16c.08-15.408 12.743-28.135 28.17-28.372a28.097 28.097 0 0 1 12.624 2.72V22.896a2.02 2.02 0 0 0-2.012-2.01h-7.614l-46.12 45.986 7.417 7.408a4.182 4.182 0 0 1 0 5.95 4.153 4.153 0 0 1-2.96 1.221 4.153 4.153 0 0 1-2.958-1.221l-7.417-7.408-14.322 14.303 12.073 12.058 16.807 16.786 8.798-8.787c1.46-1.458 3.866-1.458 5.365 0 1.5 1.458 1.5 3.862 0 5.36l-8.798 8.786 29.274 29.238h10.495c1.026 0 1.933-.906 1.933-2.01zM144.991 41.142l20.318-20.254-40.637-.04 20.319 20.294zm-21.502 109.425l38.94.04-23.948-23.919-19.45 19.427 4.458 4.452zm-19.214-68.76l35.39-35.346-22.647-22.618L81.63 59.19l9.706 9.693 12.94 12.925zm9.39 58.949l19.45-19.427-14.124-14.106-19.45 19.426 14.124 14.107zm-19.49-19.466l19.45-19.426L88.612 76.88l-19.45 19.427 25.013 24.982zm-25.092 29.238l43.674.04-33.456-33.455-21.817 21.79 11.6 11.625zm7.18-96.698l33.062-33.021-53.261-.04a28.08 28.08 0 0 1 1.065 7.724c0 4.492-1.065 8.984-3.117 13.003-.04.079-18.227 30.539-18.227 30.539-1.539 2.56-4.222 4.098-7.22 4.098-2.998 0-5.681-1.537-7.22-4.098l-2.998-5.005v54.615l32.706-32.667-8.364-8.353a3.826 3.826 0 0 1 0-5.36 3.838 3.838 0 0 1 5.366 0l15.741 15.723 19.45-19.426-24.223-24.195c-1.5-1.457-1.5-3.861 0-5.359 1.46-1.457 3.866-1.457 5.365 0L76.264 53.83zm-24.145 79.715l21.818-21.79-17.478-17.457-21.817 21.79 17.477 17.457zm-31.72 16.944l37.993.04-29.116-29.081-10.889 10.875v16.156a2.02 2.02 0 0 0 2.012 2.01zM46.595 37.595a20.013 20.013 0 0 0 2.13-9.063c0-3.467-.868-6.817-2.525-9.772l-.118-.236a20.828 20.828 0 0 0-3.353-4.374c-3.867-3.823-8.996-5.872-14.44-5.793-10.89.158-19.806 9.142-19.884 20.018-.04 3.23.71 6.304 2.13 9.18l18.03 30.185 18.03-30.145z" fill="#161616"/><path d="M195 72.386a20.1 20.1 0 0 1-2.168 9.157l-5.381 8.958L174.52 112l-18.35-30.497a19.594 19.594 0 0 1-2.168-9.276c.08-10.988 9.155-20.066 20.238-20.225 5.541-.08 10.761 1.99 14.697 5.853A20.36 20.36 0 0 1 195 72.386zm-8.633 0c0-6.49-5.341-11.784-11.886-11.784-6.546 0-11.886 5.295-11.886 11.784 0 6.49 5.34 11.785 11.886 11.785 6.545 0 11.886-5.295 11.886-11.785z" fill="#94E7EF"/><path d="M186 107.798v41.188a2.021 2.021 0 0 1-2.011 2.014h-10.491l-29.264-29.301 8.795-8.807a3.77 3.77 0 0 0 0-5.37c-1.46-1.461-3.866-1.461-5.364 0l-8.795 8.806-16.802-16.823L110 87.422l14.317-14.335 7.414 7.424a4.146 4.146 0 0 0 2.958 1.224c1.065 0 2.17-.395 2.958-1.224a4.199 4.199 0 0 0 0-5.963l-7.336-7.424L176.377 21h7.612A2.02 2.02 0 0 1 186 23.014v23.615c-3.865-1.856-8.164-2.804-12.62-2.725-15.422.197-28.082 12.953-28.16 28.433a28.731 28.731 0 0 0 3.115 13.19c.04.078 18.221 30.604 18.221 30.604 1.538 2.566 4.22 4.107 7.218 4.107 2.997 0 5.679-1.54 7.217-4.107l5.009-8.333z" fill="#9B8CCC"/><path d="M172.5 60c6.333 0 11.5 5.167 11.5 11.5S178.833 83 172.5 83 161 77.833 161 71.5 166.128 60 172.5 60zm3.225 11.539a3.217 3.217 0 0 0-3.225-3.225 3.217 3.217 0 0 0-3.225 3.225 3.217 3.217 0 0 0 3.225 3.225c1.787 0 3.225-1.477 3.225-3.225z" fill="#161616"/><path d="M173.5 69c1.94 0 3.5 1.56 3.5 3.5s-1.56 3.5-3.5 3.5-3.5-1.56-3.5-3.5c0-1.898 1.56-3.5 3.5-3.5z" fill="#FFF"/><g fill="#9B8CCC"><path d="M165.604 21.079l-20.38 20.288-20.38-20.288zm-2.888 129.685h-39.058l-4.472-4.452 19.51-19.421zM139.843 46.685L104.347 82.02 91.367 69.1l-9.735-9.69 35.496-35.337zm-40.167 80.192l19.53-19.53 14.096 14.094-19.531 19.531zm14.128-24.804l-19.548 19.42-25.05-24.935 19.51-19.422zm-.91 48.651H69.088l-11.674-11.621 21.923-21.785z"/><path d="M109.451 21.04L76.29 54.051 64.418 42.233a3.858 3.858 0 0 0-5.382 0 3.745 3.745 0 0 0 0 5.358l24.298 24.188L63.824 91.2 48.036 75.482c-1.464-1.458-3.878-1.458-5.382 0-1.464 1.457-1.464 3.86 0 5.357l8.39 8.352-32.806 32.657v-54.56l3.008 5.003c1.543 2.56 4.234 4.097 7.242 4.097 3.007 0 5.698-1.536 7.241-4.097 0 0 18.243-30.452 18.283-30.53 2.057-3.98 3.126-8.47 3.126-13 0-2.64-.356-5.24-1.069-7.722h53.383z"/><path d="M73.955 111.96l-21.883 21.785-17.57-17.451 21.923-21.785zm-15.591 38.764l-38.108-.04a2.022 2.022 0 0 1-2.019-2.008v-16.152l10.922-10.872 29.205 29.072z"/></g><path d="M50 29.347c0 3.224-.722 6.29-2.166 9.156L29.5 69 11.168 38.503a19.61 19.61 0 0 1-2.166-9.276C9.082 18.24 18.148 9.161 29.22 9.002c5.536-.08 10.751 1.99 14.682 5.853 1.364 1.314 2.488 2.826 3.41 4.419l.12.239C49.118 22.459 50 25.843 50 29.347zm-8.585 0c0-6.49-5.335-11.785-11.874-11.785-6.539 0-11.874 5.295-11.874 11.785 0 6.489 5.335 11.784 11.874 11.784 6.539 0 11.874-5.295 11.874-11.784z" fill="#94E7EF"/><path d="M28.5 17C34.833 17 40 22.167 40 28.5S34.833 40 28.5 40 17 34.833 17 28.5 22.167 17 28.5 17zm3.225 11.5a3.217 3.217 0 0 0-3.225-3.225 3.217 3.217 0 0 0-3.225 3.225 3.217 3.217 0 0 0 3.225 3.225 3.217 3.217 0 0 0 3.225-3.225z" fill="#161616"/><path d="M29.5 25c1.94 0 3.5 1.56 3.5 3.5S31.44 32 29.5 32 26 30.44 26 28.5s1.56-3.5 3.5-3.5z" fill="#FFF"/></g></svg>