<svg width="136" height="136" xmlns="http://www.w3.org/2000/svg"><g fill="none" fill-rule="evenodd"><circle fill="#FFF" cx="68" cy="68" r="68"/><path d="M75.002 63.782a1.384 1.384 0 0 0 0 2.766h.004c.764 0 1.381-.62 1.381-1.383 0-.764-.622-1.383-1.385-1.383zm-14.288 0a1.384 1.384 0 0 0 0 2.766h.006c.763 0 1.38-.62 1.38-1.383 0-.764-.622-1.383-1.386-1.383zm12.235 9.775a6.849 6.849 0 0 1-4.757 1.916 6.85 6.85 0 0 1-4.758-1.916.692.692 0 0 0-.958.999 8.227 8.227 0 0 0 5.716 2.3 8.226 8.226 0 0 0 5.715-2.3.692.692 0 1 0-.958-1zm16.857 22.536a.698.698 0 0 0-.692.699.691.691 0 1 0 1.384 0v-.015a.685.685 0 0 0-.692-.684zm-43.784 0a.698.698 0 0 0-.692.699.691.691 0 1 0 1.383 0v-.015a.685.685 0 0 0-.691-.684zm57.595 10.468h-13.12v-6.42a.691.691 0 1 0-1.383 0v6.42H70.007l6.614-5.21a.69.69 0 0 0 .22-.783l-2.537-6.867 4.729 1.361a.692.692 0 0 0 .876-.566l2.324-16.14c.23-.192.451-.385.663-.58h8.164c.09 0 .178.01.268.012.12.038.246.055.376.02h.003c6.622.34 11.91 5.818 11.91 12.523v16.23zM68.633 92.07l4.021 1.157 2.716 7.35-6.737 5.308V92.069zm-.769-2.35l-5.051-6.06a15.357 15.357 0 0 0 4.144.506c2.195-.05 4.382-.458 6.454-1.1l-5.547 6.654zm-.78 16.165l-6.735-5.306 2.895-7.723 3.84-1.105v14.134zm-20.37.677v-6.42a.691.691 0 1 0-1.384 0v6.42H32.383v-16.23c0-6.554 5.051-11.944 11.465-12.5h.007l.013-.001c.354-.03.71-.055 1.072-.055h7.893c.316.318.649.64 1.014.964-.005.057-.017.114-.008.172l2.334 15.168a.691.691 0 0 0 .875.56l4.54-1.307-2.712 7.234a.69.69 0 0 0 .22.785l6.613 5.21H46.713zM60.31 82.817l6.348 7.616-9.237 2.659L55.407 80a23.085 23.085 0 0 0 4.903 2.816zm20.353-3.26l-2.01 13.956-9.8-2.82 7.038-8.443c.03-.035.042-.078.062-.116a26.296 26.296 0 0 0 4.71-2.577zm-13.738 3.224c-7.071.145-13.425-5.693-14.891-8.162-1.15-1.936-2.803-10.927-3.52-15.284 1.934.49 5.169 1.131 8.834 1.131 6.237 0 13.719-1.86 18.148-9.483a21.44 21.44 0 0 0 2.59 3.773c2.541 2.948 5.583 4.658 8.86 5.005-.185 2.294-1.085 12.007-3.315 15.144a11.76 11.76 0 0 1-1.404 1.595.677.677 0 0 0-.21.198c-3.308 3.081-9.25 5.951-15.092 6.083zM36.514 70.648c4.447-2.983 4.786-4.928 6.361-19.1.834-7.506 3.038-11.761 4.74-14.01 1.826-2.412 3.475-3.084 3.487-3.089a.664.664 0 0 0 .165-.09c.067-.05 6.716-4.897 16.708-4.976 3.444-.024 7.378.804 12.077 2.54 3.824 1.414 7.044 4.104 9.069 7.576 2.342 4.016 3.592 8.499 3.717 13.323.28 10.977 3.744 16.23 6.126 17.912-.682 1.247-2.816 4.4-7.428 5.682-.16-.006-.315-.024-.476-.024h-6.836c.191-.23.372-.457.533-.685 2.488-3.496 3.397-13.625 3.574-15.904a.682.682 0 0 0 .555-.665.692.692 0 0 0-.692-.692c-8.093 0-11.99-9.148-12.029-9.24a.692.692 0 0 0-1.258-.045c-3.19 6.38-8.807 9.727-16.697 9.951-5.972.166-11.073-1.608-11.124-1.626a.691.691 0 1 0-.462 1.304c.017.006.17.058.421.136.354 2.19 2.29 13.857 3.8 16.4.192.325.452.687.752 1.066H44.94c-.335 0-.664.027-.993.05-3.45-1.034-6.374-4.435-7.433-5.794zm57.875 6.162c4.494-2.183 6.042-5.896 6.116-6.08a.692.692 0 0 0-.332-.876c-.173-.086-1.723-.926-3.235-3.903-1.663-3.276-2.578-7.705-2.717-13.164-.13-5.06-1.445-9.765-3.906-13.985-2.186-3.748-5.66-6.651-9.784-8.176-4.858-1.795-8.96-2.64-12.567-2.626-9.995.078-16.653 4.625-17.45 5.196-.904.394-7.404 3.715-9.014 18.198-1.684 15.16-2.05 15.73-6.354 18.496a.694.694 0 0 0-.196.974c.13.19 2.766 3.963 6.474 5.995C35.437 78.422 31 83.862 31 90.33v16.922c0 .383.31.692.692.692h35.826a.676.676 0 0 0 .257.055c.028 0 .055-.015.084-.019.027.004.054.019.083.019a.68.68 0 0 0 .257-.055h36.11c.381 0 .691-.31.691-.692V90.331c0-6.537-4.53-12.023-10.611-13.52z" fill="#000"/></g></svg>