<svg width="68" height="68" xmlns="http://www.w3.org/2000/svg"><g transform="translate(1 1)" fill="none" fill-rule="evenodd"><g fill-rule="nonzero"><path fill="#E6E6E6" d="M18.627 12.594h28.746v38.812H18.627z"/><path fill="#F74B68" d="M44.705 42.145l-18.013 6.306-3.808-10.876 18.013-6.306z"/><path d="M47.373 12H18.627a.588.588 0 0 0-.582.594v31.443c0 .328.26.594.582.594a.588.588 0 0 0 .582-.594V13.188H46.79v37.624H19.21v-4.795a.588.588 0 0 0-.582-.594.588.588 0 0 0-.582.594v5.389c0 .328.26.594.582.594h28.746a.588.588 0 0 0 .582-.594V12.594a.588.588 0 0 0-.582-.594z" fill="#000"/><path d="M22.374 37.836l3.73 10.877a.59.59 0 0 0 .55.398.55.55 0 0 0 .191-.034L44.86 42.64a.597.597 0 0 0 .357-.757l-1.986-5.79a.58.58 0 0 0-.742-.364.597.597 0 0 0-.357.757l1.794 5.229L27.01 47.76l-3.346-9.756 16.916-6.046.932 2.717c.106.31.438.473.741.364a.597.597 0 0 0 .357-.757l-1.124-3.277a.59.59 0 0 0-.296-.339.57.57 0 0 0-.445-.025L22.73 37.079a.597.597 0 0 0-.357.757z" fill="#000"/><path d="M30.712 40.16l-.014-.042c-.277-.806-.862-1.095-1.649-.814l-.988.353c-.178.064-.274.24-.218.401l1.174 3.424c.033.096.11.16.219.182a.535.535 0 0 0 .26-.024c.22-.078.336-.258.278-.428l-.4-1.166.519-.185c.794-.284 1.093-.904.819-1.702zm-1.564 1.228l-.404-1.178.519-.185c.332-.119.555.005.683.379l.022.062c.066.192.071.352.016.476-.05.116-.158.203-.317.26l-.519.186zm4.6.516c.08.11.209.142.354.09.212-.076.401-.3.332-.5-.011-.034-.03-.058-.042-.074l-2.154-2.996c-.107-.14-.318-.181-.539-.102-.217.078-.356.243-.353.424l.14 3.709a.272.272 0 0 0 .018.086c.05.144.208.213.372.213.064 0 .13-.011.189-.032.203-.073.229-.217.226-.3l-.04-.72 1.087-.387.41.59zm-1.543-.93l-.073-1.39.793 1.133-.72.258zm3.513-.32c-.315.112-.519.025-.682-.045-.11-.048-.215-.093-.324-.054-.19.067-.267.345-.204.53.08.232.413.397.84.397.198 0 .415-.035.638-.115.368-.131.644-.347.797-.623.166-.298.183-.658.051-1.043-.296-.863-.973-.896-1.518-.923-.408-.02-.662-.044-.744-.283a.318.318 0 0 1 .039-.31c.069-.094.194-.176.362-.236a.99.99 0 0 1 .532-.048c.081.011.158.022.234-.005.106-.038.18-.129.207-.256a.537.537 0 0 0-.014-.27c-.13-.382-.814-.253-1.198-.116-.234.084-.557.244-.77.532-.217.292-.262.649-.13 1.031.254.742.88.782 1.383.814.472.03.766.066.88.397.13.38-.181.555-.379.626zm2.792-.998c-.316.113-.519.025-.682-.045-.111-.048-.216-.093-.325-.054-.19.068-.266.345-.203.53.08.233.413.397.84.397.198 0 .415-.035.638-.115.368-.131.644-.347.797-.623.165-.297.183-.658.051-1.042-.296-.864-.974-.897-1.518-.923-.408-.02-.662-.044-.744-.284a.318.318 0 0 1 .039-.31c.068-.094.194-.175.362-.235.248-.09.405-.067.531-.049.082.012.16.023.235-.005a.328.328 0 0 0 .207-.255.537.537 0 0 0-.014-.27c-.13-.383-.815-.253-1.198-.116-.234.083-.558.244-.77.531-.217.292-.262.649-.13 1.031.254.743.88.783 1.383.815.471.03.766.065.88.397.13.38-.182.554-.379.625zm-10.572 6.73c.064 0 .129-.01.193-.034l14.06-5.025a.597.597 0 0 0 .356-.757.58.58 0 0 0-.741-.364l-14.06 5.025a.597.597 0 0 0-.357.757.583.583 0 0 0 .55.398zM40.202 33.73a.579.579 0 0 0-.742-.364L25.4 38.39a.597.597 0 0 0-.357.757.583.583 0 0 0 .741.364l14.06-5.025a.597.597 0 0 0 .358-.757zm-2.386-18.127h-9.632a.588.588 0 0 0-.582.594c0 .328.26.594.582.594h9.632a.588.588 0 0 0 .582-.594.588.588 0 0 0-.582-.594zm5.251 3.802H29.295a.588.588 0 0 0-.581.594c0 .328.26.594.581.594h13.772a.588.588 0 0 0 .582-.594.588.588 0 0 0-.582-.594zm-20.134 0a.588.588 0 0 0-.582.594c0 .328.26.594.582.594h4.422a.588.588 0 0 0 .582-.594.588.588 0 0 0-.582-.594h-4.422zm20.134 3.802H38.14a.588.588 0 0 0-.581.594c0 .328.26.594.581.594h4.927a.588.588 0 0 0 .582-.594.588.588 0 0 0-.582-.594zm-20.134 1.188h13.268a.588.588 0 0 0 .581-.594.588.588 0 0 0-.581-.594H22.933a.588.588 0 0 0-.582.594c0 .328.26.594.582.594z" fill="#000"/></g><circle stroke="#000" cx="33" cy="33" r="33"/></g></svg>