<?xml version="1.0" encoding="utf-8"?>
<!-- Generator: Adobe Illustrator 22.1.0, SVG Export Plug-In . SVG Version: 6.00 Build 0)  -->
<svg version="1.1" id="Layer_1" xmlns="http://www.w3.org/2000/svg" xmlns:xlink="http://www.w3.org/1999/xlink" x="0px" y="0px"
	 viewBox="0 0 512 512" style="enable-background:new 0 0 512 512;" xml:space="preserve">
<style type="text/css">
	.st0{fill:#F0F0F0;}
	.st1{fill:#D80027;}
	.st2{fill:#6DA544;}
	.st3{fill:#EEEEEE;}
</style>
<circle class="st0" cx="256" cy="256" r="256"/>
<g>
	<path class="st1" d="M0,256c0,97,54,181.5,133.6,224.9V31.1C54,74.5,0,159,0,256z"/>
	<path class="st1" d="M496.1,345c10.3-27.7,15.9-57.7,15.9-89s-5.6-61.3-15.9-89H15.9C5.6,194.7,0,224.7,0,256s5.6,61.3,15.9,89
		L256,367.3L496.1,345z"/>
</g>
<path class="st2" d="M256,512c110.1,0,203.9-69.5,240.1-167H15.9C52.1,442.5,145.9,512,256,512z"/>
<path class="st1" d="M0,256c0,118.3,80.2,217.8,189.2,247.2V8.8C80.2,38.2,0,137.7,0,256z"/>
<g>
	<path class="st3" d="M112.6,95.8c4.4,8.1,4.5,11.2,3.2,11.9c-1.3,0.7-3.4-1.3-7.8-9.3c-4.5-8.1-9.6-19.1-8.3-19.8
		C100.9,77.9,108.1,87.8,112.6,95.8"/>
	<path class="st3" d="M139.5,90.9c-4.4,8.1-7,15.2-5.7,15.9c1.3,0.7,5.9-5.2,10.4-13.3c4.5-8.1,7-15.2,5.7-15.9
		C148.6,76.9,143.9,82.8,139.5,90.9"/>
	<path class="st3" d="M131.4,103.8l-4.2-20.2l-0.4-0.1c1.5-0.7,2.6-1.8,2.6-3.4c0-2.3-2.1-4.1-4.7-4.1s-4.7,1.8-4.7,4.1
		c0,1.5,1.1,2.7,2.5,3.5l-4,20.4L131.4,103.8z"/>
	<path class="st3" d="M156.3,143c-3.9-3.2-19.2-16.5-26.5-24.4c0.7-2.3,1.1-4.7,0.9-7.3h0.2v0.1h12.7v2.4h15.6v-7.6h-15.6v2.4H131
		v0.1h-0.4V105H119v3.8h-4.7v0.2h-9.1v-3.1H90.6v8.2h14.7V111h9.1v0.2h3.9l-0.5,5.3c0,0-14.8,0.7-18.7,1.3c-9.8,1.6-6.7,4.5,1.3,7.1
		c3.7,1.2,7.4,1.7,10.8,1.9c-5.7,6-17.2,15-19.9,16.6c-3.1,1.8-3.1,4,2.9,2.7c5.8-1.3,19.3-13.2,23.9-19.2c1.4-0.1,2.8-0.1,4.1-0.2
		c2.1-0.1,3.8-1.4,5.2-3.2c6.1,7.2,18,17.8,22.8,20.8c5.1,3.1,7.5,3,9.3,2.7C161.2,146.8,160.3,146.3,156.3,143"/>
</g>
</svg>
