<?xml version="1.0" encoding="utf-8"?>
<!-- Generator: Adobe Illustrator 22.1.0, SVG Export Plug-In . SVG Version: 6.00 Build 0)  -->
<svg version="1.1" id="Layer_1" xmlns="http://www.w3.org/2000/svg" xmlns:xlink="http://www.w3.org/1999/xlink" x="0px" y="0px"
	 viewBox="0 0 100 60" style="enable-background:new 0 0 100 60;" xml:space="preserve">
<style type="text/css">
	.st0{fill:#F5F5F5;}
	.st1{fill:#73AF00;}
	.st2{fill:#FF4B55;}
	.st3{fill:#D23741;}
</style>
<path class="st0" d="M100,21.8H0V1.7C0,0.8,0.8,0,1.7,0h96.6c1,0,1.7,0.8,1.7,1.7L100,21.8L100,21.8z"/>
<rect y="43.7" class="st1" width="100" height="16.3"/>
<rect y="21.8" class="st2" width="100" height="21.8"/>
<path class="st2" d="M25.9,60V0H1.7C0.8,0,0,0.8,0,1.7V60H25.9z"/>
<g>
	<path class="st0" d="M7,14.3c-0.1,0-0.2,0-0.3,0v1.2c0.1,0,0.2,0,0.3,0.1V14.3z"/>
	<path class="st0" d="M11.3,16.6c-0.3,0-0.6-0.1-1.1-0.1l-2.9,2.6c0.4,0.1,0.8,0.1,1,0.2C9,18.7,10,17.8,11.3,16.6z"/>
	<polygon class="st0" points="15.7,12.5 15.7,12.3 15.7,12.2 10.5,12.2 10.5,12.3 10.5,12.5 10.5,12.6 15.7,12.6 	"/>
	<path class="st0" d="M11.9,5c0,0.4,0.6,0.7,1.2,0.7c0.7,0,1.2-0.3,1.2-0.7c0-0.4-0.6-0.7-1.2-0.7S11.9,4.6,11.9,5z"/>
	<path class="st0" d="M10.7,14.1c-1.2,0-2.4,0-3.3,0.1v1.4c1.1,0.2,2.4,0.4,3.3,0.5C10.7,16.2,10.7,14.1,10.7,14.1z"/>
	<path class="st0" d="M4.6,21.3c0.5,0,1.5-0.2,2.2-0.7c0.2-0.2,0.6-0.5,1.1-0.9c-0.3-0.1-0.9-0.2-1.2-0.2L4.6,21.3z"/>
	<path class="st0" d="M11.4,11.9v-0.7c-0.1-0.1-0.2-0.3-0.3-0.4l-0.8,0.6c0.2,0.3,0.3,0.4,0.3,0.5L11.4,11.9L11.4,11.9z"/>
	<path class="st0" d="M5.2,14.8C5.2,14.8,5.2,14.9,5.2,14.8c0.2,0.3,0.6,0.5,1.2,0.6v-1.1C5.7,14.5,5.3,14.6,5.2,14.8z"/>
	<path class="st0" d="M14.4,14.3v-1.4h-2.6v3.3h0.7C13.5,16.3,14.4,15.4,14.4,14.3z"/>
	<path class="st0" d="M10.1,9.3C8.7,7.3,7.2,5.1,6.8,4.6C6.9,4.8,7,5.2,7.3,5.9c0.4,0.9,1.3,2.6,2.1,3.9L10.1,9.3z"/>
	<path class="st0" d="M9.6,10.1c0.2,0.4,0.4,0.7,0.5,0.9l0.8-0.6c-0.2-0.3-0.4-0.6-0.6-0.8L9.6,10.1z"/>
	<path class="st0" d="M11.4,16.3v-2.1c-0.1,0-0.2,0-0.3,0v2.1C11.2,16.3,11.3,16.3,11.4,16.3z"/>
	<rect x="11.8" y="10" class="st0" width="2.6" height="0.4"/>
	<path class="st0" d="M18.1,11.8L18.1,11.8l0.1,0c0.1,0,0.2,0.1,0.2,0.2v0.7c0,0.1-0.1,0.2-0.2,0.2h-0.1v0c0,0.1,0.1,0.2,0.2,0.2h3
		c0.1,0,0.2-0.1,0.2-0.2v-1.1c0-0.1-0.1-0.2-0.2-0.2h-3C18.2,11.7,18.1,11.7,18.1,11.8z"/>
	<path class="st0" d="M21.5,21.3l-2-1.9c-0.3,0-0.9,0.1-1.2,0.2c0.5,0.5,0.9,0.8,1.1,0.9C20,21.1,21,21.3,21.5,21.3z"/>
	<polygon class="st0" points="17.3,12.3 17.3,12.5 17.3,12.6 18,12.6 18,12.2 17.3,12.2 	"/>
	<path class="st0" d="M17.9,19.3c0.2-0.1,0.6-0.1,1-0.2l-4.3-3.9c-0.1,0.3-0.3,0.5-0.5,0.7l0.1,0.1C15.8,17.5,17,18.6,17.9,19.3z"/>
	<path class="st0" d="M8.1,13L8.1,13l-0.1,0c-0.1,0-0.2-0.1-0.2-0.2V12c0-0.1,0.1-0.2,0.2-0.2h0.1v0c0-0.1-0.1-0.2-0.2-0.2h-3
		c-0.1,0-0.2,0.1-0.2,0.2V13c0,0.1,0.1,0.2,0.2,0.2h3C8.1,13.1,8.1,13.1,8.1,13z"/>
	<polygon class="st0" points="8.9,12.5 8.9,12.3 8.9,12.2 8.2,12.2 8.2,12.6 8.9,12.6 	"/>
	<path class="st0" d="M15.8,11.4L15,10.8c-0.1,0.1-0.2,0.2-0.2,0.4v0.7h0.8C15.5,11.8,15.6,11.6,15.8,11.4z"/>
	<polygon class="st0" points="12,8.9 14.2,8.9 13.7,8.4 12.5,8.4 	"/>
	<rect x="11.8" y="9.3" class="st0" width="2.6" height="0.4"/>
	<path class="st0" d="M13.1,6c-0.2,0-0.3,0-0.5-0.1v2h1V6C13.4,6,13.2,6,13.1,6z"/>
	<path class="st0" d="M11.8,11.1h2.6c0,0,0,0,0-0.1v-0.3h-2.6C11.8,10.7,11.8,11.1,11.8,11.1z"/>
	<path class="st0" d="M15.2,10.5l0.8,0.6c0.2-0.3,0.3-0.6,0.5-0.9l-0.8-0.5C15.6,9.9,15.4,10.2,15.2,10.5z"/>
	<rect x="11.8" y="11.5" class="st0" width="2.6" height="0.4"/>
	<path class="st0" d="M16.7,9.8c0.8-1.4,1.7-3.1,2.1-3.9c0.3-0.7,0.4-1.1,0.5-1.2c-0.4,0.4-1.9,2.6-3.3,4.7L16.7,9.8z"/>
</g>
<path class="st3" d="M22,21.2l-2.3-2.1c0,0-0.1-0.1-0.1,0c0,0-0.1,0-0.1,0c0,0,0,0,0,0l-4.7-4.2c0-0.2,0.1-0.4,0.1-0.6v-1.4h1.1
	c0.1,0.2,0.4,0.3,0.6,0.3c0.3,0,0.5-0.1,0.6-0.3h0.6v0c0,0.3,0.2,0.5,0.5,0.5h3c0.3,0,0.5-0.2,0.5-0.5v-1.1c0-0.3-0.2-0.5-0.5-0.5
	h-3c-0.3,0-0.5,0.2-0.5,0.5v0h-0.6c-0.1-0.2-0.4-0.3-0.6-0.3c-0.2,0-0.4,0.1-0.5,0.2c0.6-1,2.5-4.3,3.1-5.7c0.7-1.5,0.6-1.7,0.4-1.8
	c-0.2-0.1-0.4,0-0.4,0.1c-0.3,0.2-3.2,4.5-4.4,6.2V9.1c0,0,0,0,0,0l0,0c0-0.1,0-0.1-0.1-0.1l-0.7-0.8V5.9c0.4-0.2,0.7-0.5,0.7-0.9
	c0-0.6-0.7-1-1.6-1c-0.9,0-1.6,0.5-1.6,1c0,0.4,0.3,0.7,0.7,0.9v2.3l-0.7,0.8c-0.1,0-0.1,0.1-0.1,0.2v1.5C10.3,8.9,7.3,4.5,7,4.3
	C6.9,4.2,6.7,4.1,6.5,4.2C6.4,4.3,6.3,4.5,7,6c0.6,1.4,2.4,4.5,3.1,5.6c-0.1-0.1-0.2-0.1-0.3-0.1c-0.3,0-0.5,0.1-0.6,0.3H8.5v0
	c0-0.3-0.2-0.5-0.5-0.5h-3c-0.3,0-0.5,0.2-0.5,0.5V13c0,0.3,0.2,0.5,0.5,0.5h3c0.3,0,0.5-0.2,0.5-0.5v0h0.6c0.1,0.2,0.4,0.3,0.6,0.3
	c0.3,0,0.5-0.1,0.6-0.3h1.1v0.8c-1.7,0-6.3,0-6.5,1c0,0.1,0,0.2,0.1,0.4c0.5,0.6,2.9,1.1,4.7,1.3l-2.9,2.6c0,0,0,0,0,0
	c-0.1,0-0.1,0-0.1,0c-0.1,0-0.1,0-0.1,0l-2.3,2.1c-0.1,0.1-0.1,0.2,0,0.2c0.1,0.1,0.3,0.1,0.5,0.1c0.6,0,1.7-0.3,2.4-0.8
	c0.6-0.4,2.1-1.8,4.6-4c0.1-0.1,0.2-0.2,0.2-0.2h0.6c0.5,0,1-0.2,1.4-0.4l0.2,0.1c2.8,2.5,4.6,4.1,5.1,4.5c0.7,0.5,1.7,0.8,2.4,0.8
	c0.3,0,0.5,0,0.5-0.1C22,21.4,22,21.3,22,21.2z M11.8,16.3v-3.3h2.6v1.4c0,1.1-0.9,2-2,2H11.8z M6.4,15.5c-0.6-0.2-1-0.3-1.2-0.5
	c0-0.1,0-0.1,0-0.1c0-0.2,0.5-0.3,1.2-0.5V15.5z M6.8,4.6c0.4,0.4,1.9,2.6,3.3,4.7L9.4,9.8C8.6,8.4,7.7,6.8,7.3,5.9
	C7,5.2,6.9,4.8,6.8,4.6z M11.1,10.8c0.1,0.1,0.2,0.3,0.3,0.4v0.7h-0.8c0,0-0.1-0.2-0.3-0.5L11.1,10.8z M10.1,11.1
	c-0.2-0.3-0.3-0.6-0.5-0.9l0.8-0.5c0.2,0.3,0.4,0.6,0.6,0.8L10.1,11.1z M11.4,14.1v2.1c-0.1,0-0.2,0-0.3,0v-2.1
	C11.2,14.1,11.3,14.1,11.4,14.1z M7.4,14.3c1-0.1,2.1-0.1,3.3-0.1v2.1c-0.9-0.1-2.2-0.3-3.3-0.5V14.3z M6.8,14.3c0.1,0,0.2,0,0.3,0
	v1.3c-0.1,0-0.2,0-0.3-0.1V14.3z M10.2,16.5c0.5,0.1,0.9,0.1,1.1,0.1c-1.3,1.1-2.3,2-3,2.7c-0.2-0.1-0.6-0.1-1-0.2L10.2,16.5z
	 M7.9,19.6c-0.5,0.4-0.9,0.8-1.1,0.9c-0.7,0.5-1.7,0.7-2.2,0.7l2-1.9C7,19.5,7.6,19.5,7.9,19.6z M10.5,12.6v-0.1v-0.1v-0.1h5.2v0.1
	v0.1v0.1H10.5z M14.3,5c0,0.4-0.6,0.7-1.2,0.7c-0.7,0-1.2-0.3-1.2-0.7c0-0.4,0.6-0.7,1.2-0.7C13.7,4.3,14.3,4.6,14.3,5z M11.8,10.4
	V10h2.6v0.4H11.8z M14.4,10.7v0.3c0,0,0,0,0,0.1h-2.6v-0.4H14.4L14.4,10.7z M11.8,9.7V9.3h2.6v0.4H11.8z M13.7,8.4l0.5,0.5H12
	l0.5-0.5H13.7z M12.6,8V6C12.7,6,12.9,6,13.1,6c0.2,0,0.3,0,0.5-0.1v2H12.6z M11.8,11.5h2.6v0.4h-2.6V11.5z M18.8,5.9
	c-0.4,0.9-1.3,2.6-2.1,3.9L16,9.3c1.4-2.1,2.9-4.3,3.3-4.7C19.2,4.8,19.1,5.2,18.8,5.9z M17,12.3v0.1c0,0.2-0.2,0.4-0.4,0.4
	c-0.2,0-0.4-0.2-0.4-0.4v-0.1c0-0.2,0.2-0.4,0.4-0.4C16.8,11.9,17,12.1,17,12.3z M16,11.1l-0.8-0.6c0.2-0.3,0.4-0.6,0.6-0.8l0.8,0.5
	C16.3,10.5,16.1,10.8,16,11.1z M14.8,11.1c0.1-0.1,0.2-0.2,0.2-0.4l0.8,0.6c-0.2,0.3-0.3,0.4-0.3,0.5h-0.8V11.1z M14.6,15.3l4.3,3.9
	c-0.4,0.1-0.8,0.1-1,0.2c-0.9-0.8-2.1-1.9-3.7-3.3L14.1,16C14.3,15.8,14.4,15.5,14.6,15.3z M19.4,19.4l2,1.9c-0.5,0-1.5-0.2-2.2-0.7
	c-0.2-0.2-0.6-0.5-1.1-0.9C18.5,19.5,19.1,19.5,19.4,19.4z M21.5,11.8V13c0,0.1-0.1,0.2-0.2,0.2h-3c-0.1,0-0.2-0.1-0.2-0.2v0h0.1
	c0.1,0,0.2-0.1,0.2-0.2V12c0-0.1-0.1-0.2-0.2-0.2h-0.1v0c0-0.1,0.1-0.2,0.2-0.2h3C21.4,11.7,21.5,11.7,21.5,11.8z M18,12.6h-0.7
	v-0.1v-0.1v-0.1H18V12.6z M4.8,13v-1.1c0-0.1,0.1-0.2,0.2-0.2h3c0.1,0,0.2,0.1,0.2,0.2v0H8c-0.1,0-0.2,0.1-0.2,0.2v0.7
	c0,0.1,0.1,0.2,0.2,0.2h0.1v0c0,0.1-0.1,0.2-0.2,0.2h-3C4.8,13.1,4.8,13.1,4.8,13z M8.2,12.2h0.7v0.1v0.1v0.1H8.2V12.2z M10.1,12.5
	c0,0.2-0.2,0.4-0.4,0.4s-0.4-0.2-0.4-0.4v-0.1c0-0.2,0.2-0.4,0.4-0.4c0.2,0,0.4,0.2,0.4,0.4V12.5z"/>
</svg>
