<svg width="185" height="185" xmlns="http://www.w3.org/2000/svg"><g fill="none"><path d="M181.839 88.8c0-6.475-3.697-11.717-9.242-11.717h-.616a10.152 10.152 0 0 0-9.55 10.175l-8.318 42.242v.308a7.514 7.514 0 0 0-8.01 0l-23.105 16.342c-1.54 1.233-2.772 3.083-2.772 5.242v30.525h30.806v-5.55l21.565-13.875c5.853-4.625 9.55-11.717 9.242-19.117V88.8zm-178.678 0c0-6.475 3.697-11.717 9.242-11.717h.616a10.152 10.152 0 0 1 9.55 10.175l8.318 42.242v.308a7.514 7.514 0 0 1 8.01 0l23.105 16.342c1.54 1.233 2.772 3.083 2.772 5.242v30.525H33.968v-5.55l-21.565-13.875c-5.853-4.625-9.55-11.717-9.242-19.117V88.8z" fill="#24DB6A"/><ellipse fill="#FCCC38" cx="129.468" cy="37" rx="12.323" ry="12.333"/><ellipse fill="#FCCC38" cx="55.532" cy="33.917" rx="12.323" ry="12.333"/><ellipse fill="#FCCC38" cx="92.5" cy="15.417" rx="12.323" ry="12.333"/><ellipse fill="#17AFDC" cx="92.5" cy="95.583" rx="46.21" ry="46.25"/><path d="M129.468 52.417c-1.849 0-3.08-1.234-3.08-3.084 0-5.241-4.006-9.25-9.243-9.25-1.848 0-3.08-1.233-3.08-3.083s1.232-3.083 3.08-3.083c5.237 0 9.242-4.009 9.242-9.25 0-1.85 1.232-3.084 3.08-3.084 1.85 0 3.081 1.234 3.081 3.084 0 5.241 4.005 9.25 9.242 9.25 1.849 0 3.081 1.233 3.081 3.083s-1.232 3.083-3.08 3.083c-5.238 0-9.243 4.009-9.243 9.25 0 1.85-1.232 3.084-3.08 3.084zM126.388 37a14.61 14.61 0 0 1 3.08 3.083 14.61 14.61 0 0 1 3.08-3.083 14.61 14.61 0 0 1-3.08-3.083 14.61 14.61 0 0 1-3.08 3.083zM55.532 49.333c-1.848 0-3.08-1.233-3.08-3.083 0-5.242-4.005-9.25-9.242-9.25-1.849 0-3.081-1.233-3.081-3.083s1.232-3.084 3.08-3.084c5.238 0 9.243-4.008 9.243-9.25 0-1.85 1.232-3.083 3.08-3.083 1.849 0 3.08 1.233 3.08 3.083 0 5.242 4.006 9.25 9.243 9.25 1.848 0 3.08 1.234 3.08 3.084S69.703 37 67.855 37c-5.237 0-9.242 4.008-9.242 9.25 0 1.85-1.232 3.083-3.08 3.083zm-3.08-15.416A14.61 14.61 0 0 1 55.532 37a14.61 14.61 0 0 1 3.08-3.083 14.61 14.61 0 0 1-3.08-3.084 14.61 14.61 0 0 1-3.08 3.084zM92.5 30.833c-1.848 0-3.08-1.233-3.08-3.083 0-5.242-4.005-9.25-9.243-9.25-1.848 0-3.08-1.233-3.08-3.083s1.232-3.084 3.08-3.084c5.238 0 9.242-4.008 9.242-9.25C89.42 1.233 90.652 0 92.5 0c1.848 0 3.08 1.233 3.08 3.083 0 5.242 4.005 9.25 9.243 9.25 1.848 0 3.08 1.234 3.08 3.084s-1.232 3.083-3.08 3.083c-5.238 0-9.242 4.008-9.242 9.25 0 1.85-1.233 3.083-3.081 3.083zm-3.08-15.416A14.61 14.61 0 0 1 92.5 18.5a14.61 14.61 0 0 1 3.08-3.083 14.61 14.61 0 0 1-3.08-3.084 14.61 14.61 0 0 1-3.08 3.084zm3.08 129.5c-27.11 0-49.29-22.2-49.29-49.334 0-27.133 22.18-49.333 49.29-49.333s49.29 22.2 49.29 49.333c0 27.134-22.18 49.334-49.29 49.334zm0-92.5c-23.721 0-43.129 19.425-43.129 43.166 0 23.742 19.408 43.167 43.129 43.167 23.721 0 43.129-19.425 43.129-43.167 0-23.741-19.408-43.166-43.129-43.166z" fill="#000"/><path d="M67.855 92.5h-6.161c0-16.958 13.862-30.833 30.806-30.833v6.166c-13.555 0-24.645 11.1-24.645 24.667zm83.177 92.5h-30.806c-1.849 0-3.08-1.233-3.08-3.083v-30.525c0-3.084 1.54-5.859 4.004-7.709l23.105-16.341c2.156-1.542 4.62-2.159 7.393-1.85l7.702-39.159c.308-6.783 5.853-12.333 12.63-12.641h.617c7.085 0 12.322 6.475 12.322 14.8v54.575c.308 8.633-3.696 16.65-10.474 21.583l-20.332 13.258v4.009c0 1.85-1.232 3.083-3.08 3.083zm-27.726-6.167h24.646v-2.466c0-.925.616-2.159 1.54-2.467l21.564-13.875c5.238-4.008 8.01-10.175 7.702-16.65V88.8c0-4.933-2.773-8.633-6.161-8.633h-.616c-3.697.616-6.47 3.7-6.47 7.4l-8.01 41.008a10.242 10.242 0 0 1 0 14.492l-19.716 16.65-4.004-4.625 19.716-16.65c.616-.617.924-1.542.924-2.775 0-2.159-1.848-4.009-4.005-4.009-.924 0-1.54.309-2.156.617l-23.105 16.342c-.924.616-1.232 1.541-1.232 2.775v27.441h-.617zM64.774 185H33.968c-1.849 0-3.08-1.233-3.08-3.083v-4.009l-20.333-12.95C3.777 160.025-.227 151.7.08 143.067V88.492C.08 80.475 5.318 74 12.403 74h.616c6.778.308 12.323 5.858 12.631 12.642l7.394 38.85c2.464-.309 5.237.308 7.393 1.85l23.105 16.341c2.464 1.85 4.005 4.625 4.005 7.709v30.525c.308 1.85-.924 3.083-2.773 3.083zm-27.726-6.167h24.646v-27.441c0-.925-.617-2.159-1.233-2.775l-23.413-16.342c-1.848-1.233-4.313-.925-5.545.925-.924 1.542-.924 3.7.308 4.933L54.3 154.475l-3.697 4.933-22.797-16.341-.308-.309a10.242 10.242 0 0 1 0-14.491l-8.01-40.392c0-3.7-2.772-7.092-6.777-7.708h-.308c-3.388 0-6.161 3.7-6.161 8.633v54.575c-.308 6.475 2.773 12.642 7.702 16.65L35.508 173.9c.924.617 1.54 1.542 1.54 2.467v2.466z" fill="#000"/></g></svg>