<svg width="160" height="160" xmlns="http://www.w3.org/2000/svg"><g fill="none"><path d="M68 110.101a18.676 18.676 0 0 0-9.105-5.185l-12.906-3.077-.006.009.006-.009V94h-15.76v7.864l-12.874 3.06C8.938 106.924 3 114.41 3 123.02V144h28.534L68 110.101z" fill="#78D2FA"/><path fill="#FFB487" d="M46 94v8.184L37.996 122 30 102.212V94z"/><path d="M56 67v10.73C56 87.267 48.165 95 38.5 95S21 87.268 21 77.73V67h35z" fill="#FFCDAC"/><path d="M56 71v-4.269C56 56.94 48.165 49 38.5 49S21 56.939 21 66.731V71h12.063a41.314 41.314 0 0 0 21.446-6.012" fill="#878791"/><path d="M92 110.101a18.676 18.676 0 0 1 9.105-5.185l12.906-3.077.006.009-.006-.009V94h15.76v7.864l12.874 3.06c8.417 2 14.355 9.486 14.355 18.096V144h-28.534L92 110.101z" fill="#A5DC69"/><path d="M68.631 110l-17.823 4.314C39.192 117.126 31 127.617 31 139.684V157h97v-17.302c0-12.072-8.2-22.568-19.825-25.373l-17.778-4.29L68.631 110z" fill="#FF5A5A"/><path d="M130 94.248v8.04l-8.156 19.37-8.164-19.398v-8.012zm-50.098 40.671l11.683-26.311a9.508 9.508 0 0 1-1.361-4.905v-2.53H69.568v2.53a9.507 9.507 0 0 1-1.357 4.898l11.691 26.318z" fill="#FFB487"/><path d="M105 60v16.74C105 90.137 94.03 101 80.5 101S56 90.138 56 76.74V60h49z" fill="#FFCDAC"/><path d="M80.5 36C66.97 36 56 46.826 56 60.18V66h11.979c7.963 0 15.517-3.48 20.631-9.503L105 66v-5.82C105 46.825 94.032 36 80.5 36z" fill="#F5B955"/><path d="M104 67v10.73c0 9.538 7.835 17.27 17.5 17.27S139 87.268 139 77.73V67h-35z" fill="#FFCDAC"/><path d="M104 71v-4.269C104 56.94 111.835 49 121.5 49S139 56.939 139 66.731V71h-12.063a41.314 41.314 0 0 1-21.446-6.012" fill="#878791"/><path d="M80 154a3.02 3.02 0 0 0-2.121.879A3.023 3.023 0 0 0 77 157c0 .789.32 1.563.879 2.121A3.022 3.022 0 0 0 80 160c.789 0 1.563-.321 2.12-.879A3.02 3.02 0 0 0 83 157a3.02 3.02 0 0 0-.88-2.121A3.021 3.021 0 0 0 80 154z" fill="#000"/><path d="M143.3 102.233l-10.424-2.49V95.61c5.786-3.656 9.64-10.103 9.64-17.436V66.533c0-11.368-9.253-20.617-20.626-20.617-6.135 0-11.65 2.695-15.431 6.958C103.147 41.41 92.554 33 80.032 33 67.49 33 56.883 41.436 53.59 52.929c-3.783-4.295-9.318-7.013-15.48-7.013-11.372 0-20.625 9.249-20.625 20.617v11.641c0 7.334 3.854 13.78 9.64 17.436v4.134l-10.424 2.489A21.677 21.677 0 0 0 0 123.383v20.998c0 1.726 1.4 3.124 3.125 3.124h24.988v9.371c0 1.725 1.4 3.124 3.125 3.124h34.283a3.125 3.125 0 1 0 0-6.247H51.57v-13.749a3.125 3.125 0 0 0-6.25 0v13.749H34.363v-14.094a22.744 22.744 0 0 1 17.505-22.186l15.37-3.681 9.889 22.49a3.125 3.125 0 1 0 5.721 0l9.88-22.457 15.325 3.66a22.741 22.741 0 0 1 17.52 22.188v3.486a3.114 3.114 0 0 0 0 2.444v8.15H114.68v-13.749a3.125 3.125 0 0 0-6.25 0v13.749H93.125a3.125 3.125 0 1 0 0 6.247h35.573a3.125 3.125 0 0 0 3.125-3.124v-9.371h25.052a3.125 3.125 0 0 0 3.125-3.124v-20.998a21.677 21.677 0 0 0-16.7-21.15zm-16.668.145l-4.77 11.42-4.708-11.27a3.12 3.12 0 0 0 .02-.43v-3.857c1.516.356 3.093.55 4.716.55a20.6 20.6 0 0 0 4.735-.555v3.973c0 .057.004.113.007.169zm-60.71 2.51a21.704 21.704 0 0 0-6.386-2.662l-10.46-2.506v-4.096a20.769 20.769 0 0 0 6.458-6.437 27.691 27.691 0 0 0 10.389 11.104v4.596zm-7.14-28.184v-7.226h8.792a29.83 29.83 0 0 0 21.121-8.728l12.57 7.382v9.305c-.39 11.374-9.76 20.509-21.233 20.509-11.718 0-21.25-9.53-21.25-21.242zm35.26 23.645a27.69 27.69 0 0 0 10.46-11.107 20.781 20.781 0 0 0 6.423 6.382v4.096l-10.46 2.506a21.71 21.71 0 0 0-6.423 2.684v-4.56zm27.848-7.806c-7.927 0-14.376-6.446-14.376-14.369v-.51c.011-.319.019-8.399.019-8.399a44.878 44.878 0 0 0 19.794 4.603h8.939v4.306c0 7.923-6.45 14.37-14.376 14.37zm0-40.38c7.926 0 14.375 6.447 14.375 14.37v1.087h-8.938a38.623 38.623 0 0 1-19.234-5.13c1.752-5.962 7.274-10.326 13.797-10.326zM58.78 60.49c0-11.713 9.533-21.241 21.251-21.241 11.718 0 21.25 9.529 21.25 21.241v.408l-11.598-6.812a3.126 3.126 0 0 0-3.978.687 23.604 23.604 0 0 1-18.131 8.459H58.78V60.49zm-35.046 6.044c0-7.924 6.449-14.37 14.375-14.37 6.523 0 12.045 4.365 13.797 10.326a38.626 38.626 0 0 1-19.234 5.131h-8.938v-1.087zm0 7.335h8.938a44.877 44.877 0 0 0 19.813-4.612v8.918c0 7.923-6.45 14.37-14.376 14.37-7.926 0-14.375-6.447-14.375-14.37v-4.306zM38.11 98.79c1.623 0 3.2-.194 4.715-.55v3.77a3.014 3.014 0 0 0-.005.177c0 .098.01.196.02.294l-4.73 11.316-4.745-11.364c.005-.075.01-.15.01-.225v-3.973c1.521.359 3.106.555 4.735.555zm-9.997 40.868v1.599H18.75v-13.879a3.125 3.125 0 0 0-6.25 0v13.879H6.25v-17.875a15.45 15.45 0 0 1 11.902-15.074l9.906-2.365 6.465 15.48a28.992 28.992 0 0 0-6.41 18.235zm22.299-28.261a29.383 29.383 0 0 0-5.284 1.815l3.044-7.285 9.907 2.373c.769.184 1.518.428 2.242.723l-9.91 2.374zm29.576 15.865l-7.815-17.773v-6.443a27.42 27.42 0 0 0 7.859 1.146 27.43 27.43 0 0 0 7.76-1.116v6.447l-7.804 17.739zm19.634-18.215c.742-.306 1.51-.558 2.299-.747l9.883-2.367 3.056 7.318a29.386 29.386 0 0 0-5.356-1.844l-9.882-2.36zm54.128 32.21h-6.25v-13.879a3.125 3.125 0 0 0-6.25 0v13.879h-9.427v-1.584a28.99 28.99 0 0 0-6.39-18.213l6.485-15.523 9.93 2.371a15.449 15.449 0 0 1 11.902 15.074v17.875z" fill="#000"/><path d="M69 72c-.789 0-1.563.321-2.121.879A3.023 3.023 0 0 0 66 75c0 .789.32 1.563.879 2.121A3.023 3.023 0 0 0 69 78c.792 0 1.563-.321 2.12-.879A3.01 3.01 0 0 0 72 75a3.01 3.01 0 0 0-.88-2.121A3.021 3.021 0 0 0 69 72zm21 6c.789 0 1.563-.321 2.12-.879A3.01 3.01 0 0 0 93 75a3.01 3.01 0 0 0-.88-2.121A3.021 3.021 0 0 0 90 72c-.789 0-1.563.321-2.121.879A3.023 3.023 0 0 0 87 75c0 .789.32 1.563.879 2.121A3.023 3.023 0 0 0 90 78zm-3.914 5.932a3.078 3.078 0 0 0-4.413 0 2.336 2.336 0 0 1-3.346 0 3.078 3.078 0 0 0-4.413 0 3.228 3.228 0 0 0 0 4.501 8.496 8.496 0 0 0 12.172 0 3.228 3.228 0 0 0 0-4.5zM126.979 23h2.042c1.645 0 2.979-1.343 2.979-3s-1.334-3-2.979-3h-2.042c-1.645 0-2.979 1.343-2.979 3s1.334 3 2.979 3zm15 0h2.042c1.645 0 2.979-1.343 2.979-3s-1.334-3-2.979-3h-2.042c-1.645 0-2.979 1.343-2.979 3s1.333 3 2.979 3zM136 31c1.657 0 3-1.333 3-2.979V25.98c0-1.646-1.343-2.979-3-2.979s-3 1.333-3 2.979v2.042a2.989 2.989 0 0 0 3 2.979zm0-15c1.657 0 3-1.333 3-2.979V10.98c0-1.647-1.343-2.98-3-2.98s-3 1.333-3 2.979v2.042A2.989 2.989 0 0 0 136 16zM14.979 23h2.042C18.666 23 20 21.657 20 20s-1.334-3-2.979-3H14.98C13.334 17 12 18.343 12 20s1.334 3 2.979 3zm15 0h2.042C33.666 23 35 21.657 35 20s-1.334-3-2.979-3H29.98C28.334 17 27 18.343 27 20s1.334 3 2.979 3zM24 31c1.657 0 3-1.333 3-2.979V25.98c0-1.647-1.343-2.98-3-2.98s-3 1.333-3 2.979v2.042A2.989 2.989 0 0 0 24 31zm0-15c1.657 0 3-1.333 3-2.979V10.98C27 9.333 25.657 8 24 8s-3 1.333-3 2.979v2.042A2.989 2.989 0 0 0 24 16zm56 10c1.657 0 3-1.353 3-3.023v-7.954C83 13.353 81.657 12 80 12s-3 1.353-3 3.023v7.954C77 24.647 78.343 26 80 26zm0-20c.789 0 1.563-.321 2.12-.879.56-.558.88-1.332.88-2.121a3.02 3.02 0 0 0-.88-2.121A3.021 3.021 0 0 0 80 0c-.789 0-1.563.321-2.121.879A3.021 3.021 0 0 0 77 3c0 .789.32 1.563.879 2.121A3.023 3.023 0 0 0 80 6zM64.578 17.07c.62.62 1.433.93 2.246.93s1.626-.31 2.246-.93a3.176 3.176 0 0 0 0-4.492L64.422 7.93a3.177 3.177 0 0 0-4.492 4.492l4.648 4.648zm28.554.93c.802 0 1.603-.306 2.215-.917l4.736-4.736a3.132 3.132 0 0 0-4.43-4.43l-4.736 4.736A3.132 3.132 0 0 0 93.132 18z" fill="#000"/></g></svg>