<?xml version="1.0" encoding="UTF-8"?>
<svg width="152px" height="152px" viewBox="0 0 152 152" version="1.1" xmlns="http://www.w3.org/2000/svg" xmlns:xlink="http://www.w3.org/1999/xlink">
    <!-- Generator: Sketch 51.1 (57501) - http://www.bohemiancoding.com/sketch -->
    <title>Group</title>
    <desc>Created with Sketch.</desc>
    <defs></defs>
    <g id="Page-1" stroke="none" stroke-width="1" fill="none" fill-rule="evenodd">
        <g id="Artboard" transform="translate(-251.000000, -161.000000)">
            <g id="Group" transform="translate(252.000000, 162.000000)">
                <circle id="Oval" stroke="#979797" fill="#F6F6F6" cx="75" cy="75" r="75"></circle>
                <path d="M41.8544922,75.9931641 L44.0957031,75.9931641 C46.1904402,75.9931641 47.7578073,75.5793498 48.7978516,74.751709 C49.8378958,73.9240681 50.3579102,72.7192462 50.3579102,71.137207 C50.3579102,69.5405194 49.9221235,68.3613319 49.0505371,67.5996094 C48.1789507,66.8378868 46.8129976,66.4570312 44.9526367,66.4570312 L41.8544922,66.4570312 L41.8544922,75.9931641 Z M57.2353516,70.8955078 C57.2353516,74.3525563 56.1550401,76.9965729 53.9943848,78.8276367 C51.8337294,80.6587006 48.7612504,81.5742188 44.7768555,81.5742188 L41.8544922,81.5742188 L41.8544922,93 L35.0429688,93 L35.0429688,60.8759766 L45.3041992,60.8759766 C49.2007031,60.8759766 52.1633199,61.7145912 54.1921387,63.3918457 C56.2209574,65.0691002 57.2353516,67.5702959 57.2353516,70.8955078 Z M81.1211799,93 L78.7920784,85.3535156 L67.0806526,85.3535156 L64.751551,93 L57.4126838,93 L68.7505745,60.7441406 L77.0782112,60.7441406 L88.4600471,93 L81.1211799,93 Z M77.1661018,79.640625 C75.0127707,72.7118794 73.8006247,68.7934616 73.5296272,67.8852539 C73.2586298,66.9770462 73.0645399,66.25928 72.9473518,65.7319336 C72.463951,67.606943 71.0796875,72.2431271 68.7945198,79.640625 L77.1661018,79.640625 Z M99.7115982,75.1362305 L101.908864,75.1362305 C104.062195,75.1362305 105.651534,74.7773473 106.67693,74.0595703 C107.702326,73.3417933 108.215016,72.2138749 108.215016,70.6757812 C108.215016,69.1523361 107.69134,68.0683626 106.643971,67.4238281 C105.596603,66.7792937 103.974304,66.4570312 101.777028,66.4570312 L99.7115982,66.4570312 L99.7115982,75.1362305 Z M99.7115982,80.6733398 L99.7115982,93 L92.9000747,93 L92.9000747,60.8759766 L102.260426,60.8759766 C106.625682,60.8759766 109.855631,61.6706464 111.950368,63.2600098 C114.045105,64.8493732 115.092458,67.2626791 115.092458,70.5 C115.092458,72.3896579 114.572443,74.0705493 113.532399,75.5427246 C112.492355,77.0148999 111.020201,78.1684529 109.115895,79.003418 C113.949904,86.2251338 117.099286,90.8906145 118.564137,93 L111.005543,93 L103.337086,80.6733398 L99.7115982,80.6733398 Z" id="PAR" fill="#000000"></path>
            </g>
        </g>
    </g>
</svg>