<svg id="Capa_1" xmlns="http://www.w3.org/2000/svg" xmlns:xlink="http://www.w3.org/1999/xlink" viewBox="0 0 100 92"><style>.st0{fill:#fedac6}.st3{fill:#f5c4b0}.st8{fill:#a15d30}.st9{fill:#8f4f24}.st12{fill:#1e110c}.st15{fill:#160b03}.st24{clip-path:url(#SVGID_2_)}</style><path class="st0" d="M671.1 191.1c31 0 59.1-18.5 71.3-47l3.8-8.5-17.5-2c-8.6-1-15.1-8.4-15-17.1V71.6h-85.3v44.5c.1 8.7-6.4 16-15 17.1l-17.1 2 3.8 8.5c12.1 28.6 40 47.2 71 47.4z"/><path d="M791 140.5l-44.8-5.3-3.8 8.5c-16.9 39.4-62.6 57.6-102 40.7-18.3-7.9-32.8-22.4-40.7-40.7l-3.8-8.5-44.8 5.3c-33.9 4.5-59.2 33.5-59.2 67.7V302h358.4v-93.9c0-34.2-25.4-63.1-59.3-67.6z" fill="#de4c3c"/><path d="M491.9 208.1V302H526V149.1c-21.1 12.2-34.1 34.7-34.1 59z" fill="#c94536"/><path class="st0" d="M491.9 259.3h68.3V302h-68.3z"/><path class="st3" d="M491.9 259.3H526V302h-34.1zm221.8-153.6V71.6h-85.3v34.1c32 17.1 53.3 17.1 85.3 0z"/><path class="st0" d="M782 259.3h68.3V302H782zM764.9-30.8c-.1 33.1-12.2 65-34.1 89.9l-3.5 4c-14.2 16.2-34.7 25.5-56.2 25.6-21.7 0-42.3-9.3-56.6-25.6l-3.2-4.1c-21.9-24.8-34-56.7-34.1-89.8v-93.9h187.7v93.9z"/><path class="st3" d="M615.7-124.7h-38.5v93.9c.1 33.1 12.2 65 34.1 89.9l3.5 4c3.3 3.8 6.9 7.2 10.9 10.2-22.3-74.7-15.6-157.3-10-198z"/><path class="st0" d="M773.5-64.9h-17.1v51.2h17.1c14.1 0 25.6-11.5 25.6-25.6 0-14.2-11.5-25.6-25.6-25.6z"/><path class="st3" d="M543.1-39.3c0 14.1 11.5 25.6 25.6 25.6h17.1v-51.2h-17.1c-14.2 0-25.6 11.4-25.6 25.6z"/><path d="M713.7-184.4h-95.4c-11.7 0-22.4-6.6-27.6-17.1l-19.5 9.8c-17.5 8.8-24.5 30.1-15.7 47.6 4.4 8.8 12.3 15.3 21.7 18.1v61.1s22.5-32.1 42.7-59.7h110.9l34.1 51.2v-59.7c0-28.4-22.9-51.3-51.2-51.3z" fill="#5c5e6f"/><path d="M636.9-141.7c-29.9-3.1-56.9-19.4-73.5-44.5-14.6 12.9-15.9 35.2-3 49.7 4.5 5 10.2 8.7 16.7 10.5v61.1s22.5-32.1 42.7-59.7h110.9l34.1 51.2v-53.8c-30.3-3.3-82.8-8.9-127.9-14.5z" fill="#525463"/><circle cx="619.9" cy="-47.9" r="17.1"/><circle cx="722.3" cy="-47.9" r="17.1"/><path d="M679.6 3.3H654c-2.7 0-5.3-1.3-6.9-3.6-1.6-2.2-2-5.1-1.2-7.7L663-59.1l16.2 5.4-13.3 40h13.8l-.1 17zm-24.2 34.2H654V20.4h1.5c13.3 0 25.8-5.2 35.2-14.6l12.1 12.1c-12.7 12.6-29.5 19.6-47.4 19.6zM773.5-5.2H765v-17.1h8.5c9.4 0 17.1-7.7 17.1-17.1s-7.7-17.1-17.1-17.1H765v-17.1h8.5c18.8 0 34.1 15.3 34.1 34.1S792.3-5.2 773.5-5.2zm-196.3 0h-8.5c-18.8 0-34.1-15.3-34.1-34.1s15.3-34.1 34.1-34.1h8.5v17.1h-8.5c-9.4 0-17.1 7.7-17.1 17.1s7.7 17.1 17.1 17.1h8.5v16.9z"/><path d="M764.9-64.9c-2.8 0-5.5-1.4-7.1-3.8l-31.6-47.4H587c-16.7 0-31.8-9.3-39.3-24.3-10.8-21.9-2-48.2 19.6-58.9l19.5-9.8c2-1 4.4-1.2 6.5-.5 2.1.7 3.9 2.3 4.9 4.3 3.8 7.6 11.5 12.4 20 12.4h95.4c32.9 0 59.7 26.8 59.7 59.7v59.7c0 3.8-2.5 7.1-6.1 8.2-.6.2-1.4.4-2.3.4zM587.7-190.4L575-184c-13.2 6.6-18.6 22.6-12.1 35.8 4.7 9.3 13.9 15 24.1 15h143.8c2.8 0 5.5 1.4 7.1 3.8l18.5 27.7v-31.5c0-23.5-19.1-42.7-42.7-42.7h-95.4c-12.1 0-23.2-5.4-30.6-14.5z"/><path transform="rotate(-54.479 598.532 -94.842)" d="M561.8-103.4h73.4v17.1h-73.4z"/><path d="M671 97.2c-24.1 0-47.1-10.4-63-28.5l-3.5-4.5c-22.9-25.9-35.8-59.8-35.9-94.9v-93.9h17.1v93.9c.1 31 11.5 60.9 32 84.1l3.5 4.5c12.3 14 30.6 22.3 49.8 22.3h.1c19.1-.1 37.2-8.3 49.8-22.7l3.5-4c20.6-23.3 31.9-53.2 32-84.3v-59.7h17.1v59.7c-.1 35.2-13 69.1-36.3 95.5l-3.5 4c-15.8 18-38.6 28.4-62.7 28.5.1 0 0 0 0 0z"/><path d="M500.4 302h-17.1v-93.9c0-38.3 28.6-71 66.6-76.1l62.4-7.4c4.3-.5 7.5-4.2 7.5-8.5v-36h17.1V116c.1 13-9.6 24-22.5 25.5l-62.3 7.3c-29.4 3.9-51.7 29.4-51.7 59.2v94zm358.4 0h-17.1v-93.9c0-29.8-22.3-55.2-51.8-59.1l-62.2-7.3c-13-1.6-22.6-12.6-22.6-25.6V71.6h17.1v44.5c0 4.4 3.2 8.1 7.5 8.6L792 132c38.1 5.1 66.7 37.8 66.8 76v94z"/><path d="M671.1 199.6s-.1 0 0 0c-34.6 0-65.6-20.5-79.2-52.2l-5.5-12.7 15.7-6.7 5.5 12.7c10.9 25.4 35.8 41.8 63.5 41.8h.1c27.7 0 52.6-16.4 63.5-41.8L740 128l15.7 6.7-5.5 12.7c-13.5 31.7-44.6 52.2-79.1 52.2zm-119.5 34.1h17.1V302h-17.1z"/><path d="M491.9 250.8h68.3v17.1h-68.3zm281.6-17.1h17.1V302h-17.1z"/><path d="M782 250.8h68.3v17.1H782z"/><path d="M1398.3 158.4l-53.6-7.1c-28.7 36.3-81.4 42.4-117.6 13.7-5.1-4-9.7-8.6-13.7-13.7l-53.6 7.1c-33.7 4.5-58.9 33.3-58.9 67.3V302h356.3v-76.3c0-34.1-25.2-62.8-58.9-67.3z" fill="#74a32e"/><path class="st0" d="M1344.7 151.3c-8.5-1.1-14.8-8.4-14.8-17V89.9h-101.8v44.5c.1 8.6-6.3 15.9-14.8 17 28.7 36.2 81.4 42.3 117.6 13.6 5.2-4.1 9.8-8.7 13.8-13.7z"/><path class="st3" d="M1330 127.4V89.9h-101.8v37.5c38.1 17.9 63.6 17.9 101.8 0z"/><path class="st0" d="M1372.4-54.3h-8.5v50.9h8.5c14.1 0 25.4-11.4 25.4-25.4s-11.4-25.5-25.4-25.5zm-186.7 0c-14.1 0-25.4 11.4-25.4 25.4s11.4 25.4 25.4 25.4h8.5v-50.9l-8.5.1z"/><path class="st0" d="M1372.4-71.3V22c.1 12.5-4.4 24.5-12.6 33.9l-36.6 41.5c-6.4 7.3-15.7 11.5-25.4 11.5h-37.2c-9.7 0-19-4.2-25.4-11.5L1198.3 56c-8.2-9.4-12.7-21.5-12.6-33.9V-88.2c25.7-4.2 51.2-9.9 76.3-17 20.3-7.3 40.1-15.8 59.4-25.4 7.8 11.8 16.3 23.2 25.4 33.9l25.6 25.4z"/><path d="M1100.9 225.7V302h33.9V166.9c-20.9 12.2-33.9 34.5-33.9 58.8z" fill="#688e26"/><path class="st8" d="M1346.9-164.6c0-16.1-12.4-33.9-67.9-33.9-101.8 0-127.2 101.8-127.2 101.8 77.5 12.9 145.1-18.3 173-33.9 6.4 14.8 22.3 53.2 47.6 59.4l5-50.3c2-20-11-38.4-30.5-43.1z"/><path class="st3" d="M1223 5.1l-3.3-101.8-33.9 8.5V15.6c0 19.5 8.5 38 23.2 50.9 0 0 34.5 37.8 39.5 40.4l-18.7-53.2c-5.6-15.6-7.9-32.1-6.8-48.6z"/><path class="st9" d="M1168.2-134c-7.1 11.7-12.6 24.2-16.4 37.3 72.8 12.1 139-17.6 169.7-33.9-76.4 16.9-118.8 8.4-153.3-3.4z"/><path d="M1372.4-3.4h-8.5v-17h8.5c9.4 0 17-7.6 17-17s-7.6-17-17-17h-8.5v-17h8.5c18.7 0 33.9 15.2 33.9 33.9s-15.2 34.1-33.9 34.1zm-178.2 8.5h-8.5c-18.7 0-33.9-15.2-33.9-33.9s15.2-33.9 33.9-33.9h8.5v17h-8.5c-9.4 0-17 7.6-17 17s7.6 17 17 17h8.5V5.1zm93.3.3h-25.4c-2.4 0-4.8-1-6.4-2.9-1.6-1.8-2.4-4.2-2.1-6.7l8.5-67.9 16.8 2.1-7.3 58.3h15.8l.1 17.1z"/><path d="M1297.7 115.7h-37.2c-12.2 0-23.8-5.3-31.8-14.4L1192 59.4c-9.6-11-14.8-25-14.7-39.6V-96.7h17V19.8c-.1 10.5 3.6 20.5 10.5 28.4l36.6 41.9c4.8 5.5 11.8 8.6 19.1 8.6h37.1c7.3 0 14.3-3.2 19.1-8.7l36.7-41.5c6.8-7.8 10.5-17.8 10.4-28.2v-100h17v100c.1 14.5-5.1 28.5-14.7 39.5l-36.7 41.5c-7.9 9.1-19.5 14.4-31.7 14.4z"/><circle cx="1228.2" cy="-54" r="17"/><circle cx="1321.5" cy="-54" r="17"/><path d="M1372.4-62.8c-.7 0-1.3-.1-2-.2-25.1-6.2-41.2-37.1-49.7-55.8-31.3 16.2-96.7 42.8-170.3 30.5-2.3-.4-4.4-1.7-5.7-3.7-1.3-2-1.7-4.4-1.1-6.7.3-1.1 28.3-108.2 135.5-108.2 56.3 0 72.9 18.3 75.8 36 20.1 7.8 33.1 28.3 30.9 50.2l-5 50.3c-.2 2.4-1.5 4.7-3.5 6.1-1.5 1-3.2 1.5-4.9 1.5zm-47.6-76.3c.9 0 1.8.2 2.7.4 2.3.8 4.1 2.5 5.1 4.7l.7 1.5c4.8 11.1 16.2 37.5 31.9 48.6l3.8-38.5c1.6-15.6-8.7-30.2-24-33.9-3.8-.9-6.5-4.3-6.5-8.2 0-21-32.3-25.4-59.4-25.4-77.5 0-107.5 62.4-116.1 86.3 71.4 8.5 133.6-20.9 157.7-34.3 1.2-.9 2.6-1.2 4.1-1.2zM1277 39h-23.4V22h23.4c11.1 0 22.2-2.6 32.2-7.6l7.6 15.2c-12.3 6.2-26 9.4-39.8 9.4zm-167.6 263h-17v-76.3c0-38.1 28.5-70.6 66.2-75.7l53.6-7.1c4.3-.6 7.4-4.2 7.4-8.5V89.9h17v44.4c.1 12.8-9.4 23.7-22.1 25.4l-53.6 7.1c-29.4 3.9-51.5 29.2-51.5 58.9V302zm356.3 0h-17v-76.3c-.1-29.5-22.2-54.8-51.5-58.7l-53.6-7.1c-12.7-1.7-22.2-12.6-22.1-25.4V89.9h17v44.5c0 4.4 3.1 8 7.4 8.6l53.6 7.1c37.7 5 66.2 37.5 66.2 75.5V302z"/><path d="M1160.3 234.1h17V302h-17zm220.6 0h17V302h-17zm-101.7-42.6c-27.2 0-54.2-12-72.4-35L1220 146c25.7 32.5 73.2 38 105.7 12.3 4.6-3.6 8.7-7.8 12.3-12.3l13.3 10.5c-4.4 5.6-9.5 10.7-15.1 15.1-16.8 13.4-37 19.9-57 19.9z"/><path d="M200.5 75.8c-4.3-1.9-6.2-6.9-4.3-11.2.7-1.7 2-3.1 3.6-4-3.4-3.2-3.5-8.6-.3-12 1.4-1.5 3.3-2.4 5.4-2.6-.6-1-1-2.2-1-3.5 0-3.8 3-6.8 6.8-6.8V25.5c0-13.1 10.7-23.8 23.8-23.8 13.1 0 23.8 10.7 23.8 23.8v10.2c3.8 0 6.8 3 6.8 6.8 0 1.2-.4 2.4-1 3.4 4.7.4 8.1 4.6 7.7 9.2-.2 2.1-1.1 4-2.6 5.4 4.1 2.3 5.6 7.4 3.4 11.5-.9 1.7-2.4 3-4.1 3.7l-68 .1z" fill="#2b170e"/><path d="M218.5 8c-4.9 4.5-7.7 10.9-7.7 17.5v10.2c-3.8 0-6.8 3-6.8 6.8 0 1.2.4 2.4 1 3.4-4.7.4-8.1 4.6-7.7 9.2.2 2.1 1.1 4 2.6 5.4-4.1 2.3-5.6 7.4-3.4 11.5.9 1.7 2.4 3 4.1 3.7h44.2c-1.1-.9-2.3-1.7-3.4-2.7-22.7-18-23.8-50.1-22.9-65z" fill="#2d1c14"/><path class="st0" d="M254.9 28.9h-3.4v10.2h3.4c2.8 0 5.1-2.3 5.1-5.1s-2.3-5.1-5.1-5.1z"/><path class="st3" d="M209 34c0 2.8 2.3 5.1 5.1 5.1h3.4V28.9h-3.4c-2.8 0-5.1 2.3-5.1 5.1z"/><path class="st0" d="M234.5 79.9c6.2 0 11.8-3.7 14.2-9.4l.7-1.7-3.4-.4c-1.7-.2-3-1.7-3-3.4v-8.9h-17V65c0 1.7-1.3 3.2-3 3.4l-3.5.4.7 1.7c2.6 5.7 8.1 9.4 14.3 9.4z"/><path class="st3" d="M243 65.5v-9.4h-17v9.4c6.4 3.3 10.7 3.3 17 0z"/><path class="st0" d="M253.2 28.9l-.9 13.6c-.4 9.5-8.2 17-17.8 17-9.5 0-17.3-7.5-17.8-17l-.9-13.6 18.7-15.3 18.7 15.3z"/><path class="st3" d="M222.6 23.3l-6.8 5.6.9 13.6c.3 6.4 4 12.1 9.6 15-.8-2.1-1.5-4.3-2.1-6.5-1-4.5-1.4-18.7-1.6-27.7z"/><path transform="rotate(-51.843 246.436 14.446)" class="st12" d="M244.7-.7h3.4v30.3h-3.4z"/><path transform="rotate(-37.58 223.48 13.594)" class="st12" d="M209.5 11.9h27.9v3.4h-27.9z"/><circle cx="244.7" cy="32.3" r="3.4"/><path d="M235.7 42.4l-5.1-1.7c-.9-.3-1.4-1.3-1.1-2.2l3.4-10.2 3.2 1.1-2.9 8.6 3.5 1.2-1 3.2zm19.2-1.6h-1.7v-3.4h1.7c1.9 0 3.4-1.5 3.4-3.4s-1.5-3.4-3.4-3.4h-1.7v-3.4h1.7c3.8 0 6.8 3 6.8 6.8s-3 6.8-6.8 6.8z"/><path d="M234.5 61.2c-10.5 0-19-8.2-19.5-18.6l-.9-15.3 3.4-.2.9 15.3c.4 8.6 7.4 15.4 16.1 15.4 8.6 0 15.7-6.8 16.1-15.4l.9-15.3 3.4.2-.9 15.3c-.5 10.4-9 18.6-19.5 18.6z"/><path d="M232.4 49.3h-1.3v-3.4h1.3c2.2 0 4.5-.5 6.4-1.5l1.5 3c-2.4 1.3-5.1 1.9-7.9 1.9z" fill="#e21303"/><circle cx="224.3" cy="32.3" r="3.4"/><path d="M252.2 30.2l-17.6-14.4L217 30.2l-2.2-2.6 18.7-15.3c.6-.5 1.5-.5 2.2 0l18.7 15.3-2.2 2.6z"/><path d="M215.8 40.8h-1.7c-3.8 0-6.8-3-6.8-6.8s3-6.8 6.8-6.8h1.7v3.4h-1.7c-1.9 0-3.4 1.5-3.4 3.4s1.5 3.4 3.4 3.4h1.7v3.4z"/><path d="M260 30.6h-3.4v-5.1c0-12.2-9.9-22.1-22.1-22.1-12.2 0-22.1 9.9-22.1 22.1v5.1H209v-5.1C209 11.4 220.5 0 234.5 0 248.6 0 260 11.4 260 25.5v5.1zm-60.1 46.7c-2.1-.9-3.8-2.5-4.9-4.5-1.3-2.4-1.6-5.1-.8-7.8.6-1.9 1.7-3.6 3.2-4.9-1-1.4-1.6-3.1-1.8-4.9-.4-4.8 2.6-9.2 7-10.6-.2-.7-.3-1.4-.3-2.1 0-4.7 3.8-8.5 8.5-8.5v3.4c-2.8 0-5.1 2.3-5.1 5.1 0 .9.3 1.7.7 2.5.3.5.3 1.1.1 1.7-.3.5-.8.9-1.4.9-3.7.3-6.5 3.6-6.2 7.4.1 1.6.9 3.2 2.1 4.3.4.4.6.9.5 1.5-.1.5-.4 1-.9 1.3-1.6.9-2.8 2.3-3.3 4.1-.5 1.7-.3 3.6.6 5.2.7 1.3 1.9 2.4 3.3 3l-1.3 2.9zm69.3 0l-1.3-3.1c1.4-.6 2.6-1.7 3.3-3 1.8-3.3.6-7.4-2.7-9.2-.5-.3-.8-.7-.9-1.3-.1-.5.1-1.1.5-1.5 1.2-1.1 1.9-2.7 2.1-4.3.3-3.7-2.4-7-6.2-7.4-.6-.1-1.1-.4-1.4-.9-.3-.5-.2-1.1.1-1.7.5-.8.7-1.6.7-2.5 0-2.8-2.3-5.1-5.1-5.1V34c4.7 0 8.5 3.8 8.5 8.5 0 .7-.1 1.5-.3 2.2 4.4 1.4 7.5 5.8 7 10.6-.2 1.8-.8 3.5-1.8 4.9 3.6 3.1 4.7 8.4 2.4 12.7-1.1 2-2.8 3.6-4.9 4.4z"/><path d="M790.5 832.4V602c0-66-53.5-119.5-119.5-119.5S551.5 536 551.5 602v230.4h239z" fill="#49230e"/><path class="st15" d="M551.6 636.1h119.5v196.3H551.6z"/><path d="M602.8 917.7V986h136.5v-68.3c-33.5 37.7-91.2 41.1-128.9 7.6-2.7-2.3-5.2-4.9-7.6-7.6z" fill="#ebebeb"/><path class="st0" d="M728.6 825.7c-8.6-1.1-15-8.4-14.9-17.1v-44.5h-85.3v44.6c.1 8.7-6.3 16-14.9 17.1l-10.7 1.3v90.6c33.5 37.7 91.2 41.1 128.9 7.6 2.7-2.4 5.2-4.9 7.6-7.6v-90.6l-10.7-1.4z"/><path d="M636.9 941.7c-13.1-5.3-24.8-13.5-34.1-24V986h34.1v-44.3z" fill="#dbdbdb"/><path class="st3" d="M713.7 794v-29.9h-85.3V794c25.8 17.1 59.4 17.1 85.3 0z"/><path d="M536.7 835.3c-25.8 3.2-45.1 25.2-44.9 51.2V986h110.9V827.1l-66 8.2zm313.5 50.9c.2-26-19.1-48-44.9-51.2l-66-8.5V986h110.9v-99.8z" fill="#3cacde"/><path class="st0" d="M577.2 610.5l4.7 76.8c2.2 49.2 43.8 87.4 93.1 85.3 46.2-2 83.3-39 85.3-85.3l4.7-76.8-94-68.2-93.8 68.2zm196.2 8.6h-8.5v51.2h8.5c14.1 0 25.6-11.5 25.6-25.6s-11.4-25.6-25.6-25.6z"/><path class="st3" d="M543 644.7c0 14.1 11.5 25.6 25.6 25.6h8.5v-51.2h-8.5c-14.1 0-25.6 11.4-25.6 25.6z"/><path d="M491.8 882.9V986H526V832.4c-25.6 8.5-34.2 25.6-34.2 50.5z" fill="#329ac7"/><path class="st15" d="M671 518.5c-33 28.7-73.1 47.9-116.1 55.8-2.2 9.1-3.3 18.3-3.3 27.6V619h25.6l93.9-76.8v-23.7h-.1z"/><path class="st3" d="M622.4 644.7l-2.6-59.7c-14.8 10.6-29 22-42.7 34.1l7.2 68.3c1.8 40.2 30.3 74.3 69.6 83.1l-11.3-21.1c-18.9-35.2-20.2-64.9-20.2-104.7z"/><circle cx="722.2" cy="636.1" r="17.1"/><path d="M676.9 686.9l-25.6-8.5c-2.3-.8-4.2-2.5-5.2-4.8-.9-2.3-.9-4.9.2-7.1l17.1-34.1 15.3 7.6-12.7 25.3 16.3 5.4-5.4 16.2zM500.4 986h-17.1v-99.8c-.2-30.3 22.3-55.9 52.4-59.7l76.8-9.6c4.3-.5 7.5-4.2 7.5-8.5v-44.3h17v44.2c.1 12.9-9.5 23.9-22.4 25.5l-76.8 9.6c-21.5 2.7-37.6 21-37.4 42.7V986zm358.4 0h-17.1v-99.4c.2-21.7-15.9-40.1-37.4-42.7l-76.8-9.5c-12.9-1.6-22.5-12.6-22.4-25.6v-44.6h17.1v44.6c0 4.4 3.2 8.1 7.5 8.6l76.8 9.5c30.1 3.7 52.6 29.4 52.4 59.7V986h-.1zm-85.4-307.2h-8.5v-17.1h8.5c9.4 0 17.1-7.7 17.1-17.1 0-9.4-7.7-17.1-17.1-17.1h-8.5v-17.1h8.5c18.8 0 34.1 15.3 34.1 34.1.1 19-15.3 34.3-34.1 34.3z"/><path d="M671 781.2c-52.5 0-95.4-41.1-97.7-93.5l-4.7-76.7 17-1 4.7 76.8c1.9 43.4 37.3 77.3 80.7 77.3s78.7-33.9 80.6-77.2l4.7-76.9 17 1-4.7 76.8c-2.2 52.3-45.1 93.4-97.6 93.4z"/><path d="M660.5 721.5s-.1 0 0 0H654v-17.1h6.5c11.2 0 22.3-2.6 32.3-7.6l7.6 15.3c-12.3 6.1-26.1 9.4-39.9 9.4z"/><circle cx="619.8" cy="636.1" r="17.1"/><path d="M759.5 625.7L671 553.3l-88.5 72.4-10.8-13.2 93.9-76.8c3.1-2.6 7.7-2.6 10.8 0l93.9 76.8-10.8 13.2z"/><path d="M577.2 678.8h-8.5c-18.8 0-34.1-15.3-34.1-34.1s15.3-34.1 34.1-34.1h8.5v17.1h-8.5c-9.4 0-17.1 7.7-17.1 17.1 0 9.4 7.7 17.1 17.1 17.1h8.5v16.9z"/><path d="M799 627.6h-17V602c0-61.2-49.8-110.9-110.9-110.9s-111 49.7-111 110.9v25.6H543V602c0-70.6 57.4-128 128-128s128 57.4 128 128v25.6z"/><path d="M662.5 482.5h17.1v59.7h-17.1zM543 661.7h17.1v170.7H543zm239 0h17.1v170.7H782zM594.2 823.9h17.1V986h-17.1zm136.6 0h17.1V986h-17.1z"/><path d="M671.1 956.9c-27.6 0-55-11.3-74.7-33.5l12.8-11.3c30.3 34.1 82.7 37.2 116.9 6.9 2.4-2.2 4.8-4.5 6.9-6.9l12.7 11.3c-2.6 2.9-5.4 5.7-8.3 8.3-19.1 16.9-42.7 25.2-66.3 25.2z"/><path d="M1398.5 627.6l1.7-10.4c4.4-26.6.8-54-10.2-78.6-10.5-23.6-33.9-38.9-59.7-39l-25.6-10.2c-16.8-8.4-36.3-9.2-53.8-2.2-59.7 23.1-97.5 82.3-93.4 146.2 1.4 24.2-3.1 48.4-13.1 70.5-17 37.3-12.7 80.8 11.1 114.1l4.2 5.9s34.1 42.7 128 42.7 120.6-65.3 120.6-65.3c10.2-23.8 10.9-50.7 1.8-75-7.6-20.1-11.5-41.4-11.4-62.9v-1.6" fill="#351107"/><path d="M1263.3 548.8c-30.2 24.5-65.7 41.4-103.8 49.5-2 11.6-2.7 23.4-2 35.2 1.4 24.2-3.1 48.4-13.1 70.5-17 37.3-12.7 80.8 11.1 114.1l4 5.9s30.9 38.4 114.4 42.7c-22.6-163.1-17.1-266.1-10.6-317.9z" fill="#190c04"/><path class="st0" d="M1424.1 840.9l2-2c-4.1-1.8-8.4-3-12.8-3.6l-76.8-9.6c-8.6-1.1-15-8.4-14.9-17.1v-53.1h-85.2v53.2c.1 8.7-6.3 16-14.9 17.1l-76.8 9.6c-4.4.6-8.7 1.8-12.8 3.6l2.1 2c79.8 80.1 209.5 80.3 289.6.5.1-.2.3-.4.5-.6z"/><path d="M1426.1 838.9l-2 2c-79.8 80.1-209.5 80.3-289.6.5l-.5-.5-2-2c-19.3 7.8-32 26.5-32.1 47.3V986h358.4v-99.8c-.2-20.9-12.9-39.5-32.2-47.3z" fill="#f288b7"/><path class="st3" d="M1321.7 794.3v-38.7h-85.3v38.7c32 16.7 53.3 16.7 85.3 0z"/><path class="st0" d="M1381.4 619.1h-8.5v51.2h8.5c14.1 0 25.6-11.5 25.6-25.6 0-14.2-11.4-25.6-25.6-25.6z"/><path class="st0" d="M1372.9 619.1c-34.1-17.1-42.7-76.8-42.7-76.8l-25.6 8.5s-8.5-34.1-34.1-25.6c-33.4 11.1-8.5 51.2-42.7 76.8-13.4 9.9-27.7 18.4-42.7 25.6l4.7 59.7c2.1 47.7 41.4 85.3 89.2 85.3 47.8 0 87.1-37.6 89.2-85.3l4.7-68.2z"/><path class="st3" d="M1219.3 644.7v-34.1c-10.6 7.2-22 12.9-34.1 17.1l4.7 59.7c1.8 40.2 30.3 74.2 69.5 83l-11.3-21.1c-28.8-36.4-28.8-64.8-28.8-104.6z"/><path d="M1099.8 882.9V986h34.1V832.4c-25.5 8.5-34.1 25.6-34.1 50.5z" fill="#ed7bb2"/><circle cx="1330.2" cy="636.1" r="17.1"/><path d="M1284.9 686.9l-25.6-8.5c-2.3-.8-4.2-2.5-5.2-4.8-.9-2.3-.9-4.9.2-7.1l17.1-34.1 15.3 7.6-12.7 25.3 16.3 5.4-5.4 16.2zM1108.4 986h-17.1V877.6c-.2-30.2 22.3-55.9 52.4-59.7l76.8-9.6c4.3-.5 7.5-4.2 7.5-8.5v-35.7h17.1v35.7c.1 12.9-9.5 23.9-22.4 25.5l-76.8 9.6c-21.5 2.7-37.6 21-37.4 42.7l-.1 108.4zm358.4 0h-17.1V878.1c.2-21.7-15.9-40.1-37.4-42.7l-76.8-9.6c-12.9-1.6-22.5-12.6-22.4-25.6v-36h17.1v36.1c0 4.4 3.2 8.1 7.5 8.6l76.8 9.6c30.1 3.7 52.6 29.4 52.4 59.7V986h-.1zm-85.4-307.2h-8.5v-17.1h8.5c9.4 0 17.1-7.7 17.1-17.1s-7.7-17.1-17.1-17.1h-8.5v-17.1h8.5c18.8 0 34.1 15.3 34.1 34.1 0 19-15.3 34.3-34.1 34.3zm-112.9 42.7h-6.5v-17.1h6.5c11.2 0 22.3-2.6 32.3-7.6l7.6 15.3c-12.3 6.1-26.1 9.4-39.9 9.4z"/><circle cx="1227.8" cy="636.1" r="17.1"/><path d="M1279 781.2c-52.5 0-95.4-41.1-97.7-93.5l-4.7-59.4c-.2-2.4.6-4.7 2.2-6.5 1.4-1.5 3.3-2.5 5.4-2.7 1.2-.3 10.6-3.1 38.4-23.9 14.1-10.6 16.1-23.8 18.2-37.8 2.4-15.5 5-33 26.9-40.3 8.6-2.9 17-2.3 24.3 1.7 9.2 5 14.7 14.3 17.7 21.2l17.7-5.9c2.4-.8 5-.5 7.2.8 2.1 1.3 3.6 3.5 4 6 .1.6 8.3 55.5 38 70.4 3.1 1.5 4.9 4.8 4.7 8.2l-4.7 68.3c-2.2 52.3-45.1 93.4-97.6 93.4zm-84.8-147.6l4.2 53.1c1.9 43.6 37.3 77.5 80.7 77.5 43.3 0 78.7-33.9 80.6-77.2l4.3-63.1c-25.4-16.4-36.4-52.7-40.3-70.4l-16.4 5.5c-2.3.8-4.7.5-6.8-.6-2.1-1.1-3.6-3.1-4.2-5.4-1-4-5.3-15.2-12.5-19.1-3.1-1.7-6.5-1.9-10.7-.5-11.4 3.8-13 11.3-15.4 26.7-2.3 15.2-5.2 34.1-24.9 48.9-16.3 12.2-29.6 20.7-38.6 24.6z"/><path d="M1152.6 828.8l-4.2-5.9c-25.5-35.7-30.1-82.6-11.9-122.6 9.4-20.7 13.7-43.7 12.4-66.4-4.2-68 35.7-130.2 99.3-154.6 19.5-7.8 41.7-6.9 60.6 2.6l23.1 9.3c28.5.8 54.2 17.9 65.8 44 11.7 26.2 15.4 55.1 10.6 83.5l-1.4 10.2-16.9-2.3 1.5-10.4c4.2-25.3 1-50.8-9.3-73.9-9.1-20.5-29.5-33.8-52-33.9-1.1 0-2.2-.2-3.2-.6l-25.2-10.2c-15.2-7.6-32.3-8.3-47.4-2.2-56.8 21.8-92.3 77.1-88.5 137.7 1.5 25.5-3.3 51.3-13.9 74.5-15.7 34.4-11.7 74.9 10.3 105.6l4.2 5.9-13.9 9.7zm253.7-1.6l-15.7-6.7 9.6-22.6c9.4-21.9 10-46.3 1.6-68.7-8-21.1-12-43.3-12-65.9v-1.6h17.1v1.6c0 20.5 3.6 40.7 10.9 59.9 9.9 26.5 9.2 55.4-1.9 81.4l-9.6 22.6z"/><path d="M1278.8 901c-54.7 0-109.4-20.9-150.9-62.6l12.1-12c76.4 76.7 200.9 76.9 277.5.5l12.6 11.6c-41.9 41.7-96.6 62.5-151.3 62.5zm-7.3-337.6a55.17 55.17 0 0 0-22.2-22.2l8.1-15a72.28 72.28 0 0 1 29 29l-14.9 8.2z"/><path class="st8" d="M270.2 91.8V80.4c0-5.2-3.8-9.5-8.9-10.1l-11.8-1.5-.7 1.7c-3.4 7.8-12.5 11.5-20.3 8.1-3.6-1.6-6.5-4.5-8.1-8.1l-.7-1.7-11.8 1.5c-5.1.6-9 5-8.9 10.2v11.4h71.2z"/><path class="st9" d="M205.6 91.8V71.4c-5.1 1.7-6.8 5.1-6.8 10.1v10.4h6.8z"/><path d="M200.5 91.8V80.4c0-4.3 3.2-8 7.5-8.5l10.5-1.3.3.6c2.7 6.3 8.9 10.4 15.8 10.4s13.1-4.1 15.8-10.4l.2-.5 10.6 1.3c4.3.5 7.5 4.2 7.5 8.5v11.3h3.4V80.5c0-6-4.4-11.2-10.4-11.9l-15.3-1.9c-.9-.1-1.5-.8-1.5-1.7v-7.2h-3.4V65c0 2.6 1.9 4.8 4.5 5.1l1.2.2c-2.3 4.9-7.1 8-12.5 8s-10.3-3.2-12.5-8l1.3-.2c2.6-.3 4.5-2.5 4.5-5.1v-7.1h-3.4V65c0 .9-.6 1.6-1.5 1.7l-15.3 1.9c-6 .7-10.5 5.9-10.4 11.9v11.4h3.1z"/><defs><path id="SVGID_1_" d="M0 .3h100v91.3H0z"/></defs><clipPath id="SVGID_2_"><use xlink:href="#SVGID_1_" overflow="visible"/></clipPath><g class="st24"><defs><path id="SVGID_3_" d="M71.1 38.8h1.7c2.8 0 5.1-2.3 5.1-5.1s-2.3-5.1-5.1-5.1h-1.7"/></defs><clipPath id="SVGID_4_"><use xlink:href="#SVGID_3_" overflow="visible"/></clipPath><g clip-path="url(#SVGID_4_)"><defs><path id="SVGID_5_" d="M-289-1854.3h1440v3878H-289z"/></defs><clipPath id="SVGID_6_"><use xlink:href="#SVGID_5_" overflow="visible"/></clipPath><path clip-path="url(#SVGID_6_)" fill="#fedac6" d="M66.1 23.6h16.8v20.2H66.1z"/></g></g><g class="st24"><defs><path id="SVGID_7_" d="M33.7 38.8H32c-2.8 0-5.1-2.3-5.1-5.1s2.3-5.1 5.1-5.1h1.7"/></defs><clipPath id="SVGID_8_"><use xlink:href="#SVGID_7_" overflow="visible"/></clipPath><g clip-path="url(#SVGID_8_)"><defs><path id="SVGID_9_" d="M-289-1854.3h1440v3878H-289z"/></defs><clipPath id="SVGID_10_"><use xlink:href="#SVGID_9_" overflow="visible"/></clipPath><path clip-path="url(#SVGID_10_)" fill="#f5c4b0" d="M21.9 23.6h16.8v20.2H21.9z"/></g></g><g class="st24"><defs><path id="SVGID_11_" d="M33.7 21.8v13.6l.4 5.3C35 50.8 43.9 58.3 54 57.4c.6 0 1.1-.1 1.6-.2C64 55.6 70.2 48.5 70.7 40l.4-4.6V21.8l-8.5-5.1-28.9 5.1z"/></defs><clipPath id="SVGID_12_"><use xlink:href="#SVGID_11_" overflow="visible"/></clipPath><g clip-path="url(#SVGID_12_)"><defs><path id="SVGID_13_" d="M-289-1854.3h1440v3878H-289z"/></defs><clipPath id="SVGID_14_"><use xlink:href="#SVGID_13_" overflow="visible"/></clipPath><path clip-path="url(#SVGID_14_)" fill="#fedac6" d="M28.7 11.7h47.4v50.8H28.7z"/></g></g><g class="st24"><defs><path id="SVGID_15_" d="M42.2 40.2V20.3l-8.5 1.5v13.6l.4 5.3c.7 8.6 7.3 15.5 15.9 16.6l-3.4-4.4c-2.8-3.7-4.4-8.1-4.4-12.7"/></defs><clipPath id="SVGID_16_"><use xlink:href="#SVGID_15_" overflow="visible"/></clipPath><g clip-path="url(#SVGID_16_)"><defs><path id="SVGID_17_" d="M-289-1854.3h1440v3878H-289z"/></defs><clipPath id="SVGID_18_"><use xlink:href="#SVGID_17_" overflow="visible"/></clipPath><path clip-path="url(#SVGID_18_)" fill="#f5c4b0" d="M28.7 15.3H55v47H28.7z"/></g></g><g class="st24"><defs><path id="SVGID_19_" d="M62.6 4.8c-1-2.1-3.2-3.4-5.5-3.4H26.9c0 3.8 3 6.8 6.8 6.8h-6.8c0 3.8 3 6.8 6.8 6.8h-6.8c0 3.8 3 6.8 6.8 6.8h6.8c8.2 0 16.8-3.1 22.1-5.1 2.3 2.4 5.3 4.2 8.5 5.1v-8.5c0-4.7-3.8-8.5-8.5-8.5"/></defs><clipPath id="SVGID_20_"><use xlink:href="#SVGID_19_" overflow="visible"/></clipPath><g clip-path="url(#SVGID_20_)"><defs><path id="SVGID_21_" d="M-289-1854.3h1440v3878H-289z"/></defs><clipPath id="SVGID_22_"><use xlink:href="#SVGID_21_" overflow="visible"/></clipPath><path clip-path="url(#SVGID_22_)" fill="#a15d30" d="M21.9-3.6h54.2v30.4H21.9z"/></g></g><g class="st24"><defs><path id="SVGID_23_" d="M27 15.7c.4 3.4 3.3 6 6.7 6h6.8c5.7 0 17.2-3.5 22.1-5.1-12.2.4-29.9.3-35.6-.9"/></defs><clipPath id="SVGID_24_"><use xlink:href="#SVGID_23_" overflow="visible"/></clipPath><g clip-path="url(#SVGID_24_)"><defs><path id="SVGID_25_" d="M-289-1854.3h1440v3878H-289z"/></defs><clipPath id="SVGID_26_"><use xlink:href="#SVGID_25_" overflow="visible"/></clipPath><path clip-path="url(#SVGID_26_)" fill="#8f4f24" d="M22 10.7h45.6v16H22z"/></g></g><g class="st24"><defs><path id="SVGID_27_" d="M41.3 40.5c-4.2 0-7.6-3.4-7.6-7.6v-4.3H49v4.3c0 4.1-3.4 7.6-7.7 7.6z"/></defs><clipPath id="SVGID_28_"><use xlink:href="#SVGID_27_" overflow="visible"/></clipPath><g clip-path="url(#SVGID_28_)"><defs><path id="SVGID_29_" d="M-289-1854.3h1440v3878H-289z"/></defs><clipPath id="SVGID_30_"><use xlink:href="#SVGID_29_" overflow="visible"/></clipPath><path clip-path="url(#SVGID_30_)" fill="#ebebeb" d="M28.7 23.6H54v21.9H28.7z"/></g></g><g class="st24"><defs><path id="SVGID_31_" d="M63.4 40.5c-4.2 0-7.6-3.4-7.7-7.6v-4.3H71v4.3c.1 4.1-3.3 7.6-7.6 7.6z"/></defs><clipPath id="SVGID_32_"><use xlink:href="#SVGID_31_" overflow="visible"/></clipPath><g clip-path="url(#SVGID_32_)"><defs><path id="SVGID_33_" d="M-289-1854.3h1440v3878H-289z"/></defs><clipPath id="SVGID_34_"><use xlink:href="#SVGID_33_" overflow="visible"/></clipPath><path clip-path="url(#SVGID_34_)" fill="#ebebeb" d="M50.8 23.6h25.3v21.9H50.8z"/></g></g><g class="st24"><defs><path id="SVGID_35_" d="M52.4 79.6c6.2 0 11.8-3.7 14.2-9.4l.8-1.7-3.5-.4c-1.7-.2-3-1.7-3-3.4v-8.9h-17v8.9c0 1.7-1.3 3.2-3 3.4l-3.4.4.8 1.7c2.4 5.6 7.9 9.3 14.1 9.4"/></defs><clipPath id="SVGID_36_"><use xlink:href="#SVGID_35_" overflow="visible"/></clipPath><g clip-path="url(#SVGID_36_)"><defs><path id="SVGID_37_" d="M-289-1854.3h1440v3878H-289z"/></defs><clipPath id="SVGID_38_"><use xlink:href="#SVGID_37_" overflow="visible"/></clipPath><path clip-path="url(#SVGID_38_)" fill="#fedac6" d="M32.5 50.8h39.9v33.8H32.5z"/></g></g><g class="st24"><defs><path id="SVGID_39_" d="M16.7 68.4h71.4v33.2H16.7z"/></defs><clipPath id="SVGID_40_"><use xlink:href="#SVGID_39_" overflow="visible"/></clipPath><g clip-path="url(#SVGID_40_)"><defs><path id="SVGID_41_" d="M-289-1854.3h1440v3878H-289z"/></defs><clipPath id="SVGID_42_"><use xlink:href="#SVGID_41_" overflow="visible"/></clipPath><g clip-path="url(#SVGID_42_)"><defs><path id="SVGID_43_" d="M16 67.7h73v34H16z"/></defs><clipPath id="SVGID_44_"><use xlink:href="#SVGID_43_" overflow="visible"/></clipPath><g clip-path="url(#SVGID_44_)"><defs><path id="SVGID_45_" d="M76.3 69.5l-8.9-1.1-.8 1.7c-3.4 7.8-12.5 11.5-20.3 8.1-3.6-1.6-6.5-4.5-8.1-8.1l-.8-1.7-8.9 1.1c-6.8.9-11.8 6.7-11.8 13.5v18.7h71.4V83c0-6.8-5-12.6-11.8-13.5"/></defs><clipPath id="SVGID_46_"><use xlink:href="#SVGID_45_" overflow="visible"/></clipPath><g clip-path="url(#SVGID_46_)"><defs><path id="SVGID_47_" d="M16 67.7h73v34H16z"/></defs><clipPath id="SVGID_48_"><use xlink:href="#SVGID_47_" overflow="visible"/></clipPath><path clip-path="url(#SVGID_48_)" fill="#3cacde" d="M11.7 63.4h81.4v43.2H11.7z"/></g></g></g></g></g><g class="st24"><defs><path id="SVGID_49_" d="M16.7 83v18.7h6.8V71.2c-4.2 2.4-6.8 6.9-6.8 11.8"/></defs><clipPath id="SVGID_50_"><use xlink:href="#SVGID_49_" overflow="visible"/></clipPath><g clip-path="url(#SVGID_50_)"><defs><path id="SVGID_51_" d="M-289-1854.3h1440v3878H-289z"/></defs><clipPath id="SVGID_52_"><use xlink:href="#SVGID_51_" overflow="visible"/></clipPath><path clip-path="url(#SVGID_52_)" fill="#329ac7" d="M11.7 66.2h16.8v40.5H11.7z"/></g></g><g class="st24"><defs><path id="SVGID_53_" d="M60.9 60.9v-5.1h-17v5.1c6.4 3.4 10.6 3.4 17 0"/></defs><clipPath id="SVGID_54_"><use xlink:href="#SVGID_53_" overflow="visible"/></clipPath><g clip-path="url(#SVGID_54_)"><defs><path id="SVGID_55_" d="M-289-1854.3h1440v3878H-289z"/></defs><clipPath id="SVGID_56_"><use xlink:href="#SVGID_55_" overflow="visible"/></clipPath><path clip-path="url(#SVGID_56_)" fill="#f5c4b0" d="M38.9 50.8h27v17.7h-27z"/></g></g><g class="st24"><defs><path id="SVGID_57_" d="M54.1 43.9H49c-.5 0-1-.2-1.3-.6-.3-.4-.5-.9-.4-1.3L49 28.4l3.4.4-1.5 11.7h3.2v3.4z"/></defs><clipPath id="SVGID_58_"><use xlink:href="#SVGID_57_" overflow="visible"/></clipPath><g clip-path="url(#SVGID_58_)"><defs><path id="SVGID_59_" d="M-289-1854.3h1440v3878H-289z"/></defs><clipPath id="SVGID_60_"><use xlink:href="#SVGID_59_" overflow="visible"/></clipPath><path clip-path="url(#SVGID_60_)" d="M42.3 23.4h16.8v25.5H42.3z"/></g></g><g class="st24"><defs><path id="SVGID_61_" d="M49.3 50.7H49v-3.4h.3c2.6 0 5.1-1 7-2.9l2.4 2.4c-2.5 2.5-5.9 3.9-9.4 3.9"/></defs><clipPath id="SVGID_62_"><use xlink:href="#SVGID_61_" overflow="visible"/></clipPath><g clip-path="url(#SVGID_62_)"><defs><path id="SVGID_63_" d="M-289-1854.3h1440v3878H-289z"/></defs><clipPath id="SVGID_64_"><use xlink:href="#SVGID_63_" overflow="visible"/></clipPath><path clip-path="url(#SVGID_64_)" d="M44 39.4h19.7v16.3H44z"/></g></g><g class="st24"><defs><path id="SVGID_65_" d="M72.8 40.5h-1.7v-3.4h1.7c1.9 0 3.4-1.5 3.4-3.4s-1.5-3.4-3.4-3.4h-1.7v-3.4h1.7c3.8 0 6.8 3 6.8 6.8 0 3.7-3 6.8-6.8 6.8"/></defs><clipPath id="SVGID_66_"><use xlink:href="#SVGID_65_" overflow="visible"/></clipPath><g clip-path="url(#SVGID_66_)"><defs><path id="SVGID_67_" d="M-289-1854.3h1440v3878H-289z"/></defs><clipPath id="SVGID_68_"><use xlink:href="#SVGID_67_" overflow="visible"/></clipPath><path clip-path="url(#SVGID_68_)" d="M66.1 21.9h18.5v23.6H66.1z"/></g></g><g class="st24"><defs><path id="SVGID_69_" d="M33.7 40.5H32c-3.8 0-6.8-3-6.8-6.8s3.1-6.8 6.8-6.8h1.7v3.4H32c-1.9 0-3.4 1.5-3.4 3.4s1.5 3.4 3.4 3.4h1.7v3.4z"/></defs><clipPath id="SVGID_70_"><use xlink:href="#SVGID_69_" overflow="visible"/></clipPath><g clip-path="url(#SVGID_70_)"><defs><path id="SVGID_71_" d="M-289-1854.3h1440v3878H-289z"/></defs><clipPath id="SVGID_72_"><use xlink:href="#SVGID_71_" overflow="visible"/></clipPath><path clip-path="url(#SVGID_72_)" d="M20.2 21.9h18.5v23.6H20.2z"/></g></g><g class="st24"><defs><path id="SVGID_73_" d="M52.4 59.2c-4.7 0-9.2-1.6-12.9-4.7-4.1-3.5-6.6-8.3-7.1-13.6l-.4-5.4V21.8h3.4v13.6l.4 5.2c.8 9.1 8.9 16 18 15.2.5 0 1-.1 1.5-.2 7.6-1.5 13.2-7.9 13.7-15.7l.4-4.6V16.7h3.4v18.7l-.4 4.7c-.6 9.3-7.3 17-16.5 18.8-.6.1-1.2.2-1.8.2-.6.1-1.1.1-1.7.1"/></defs><clipPath id="SVGID_74_"><use xlink:href="#SVGID_73_" overflow="visible"/></clipPath><g clip-path="url(#SVGID_74_)"><defs><path id="SVGID_75_" d="M-289-1854.3h1440v3878H-289z"/></defs><clipPath id="SVGID_76_"><use xlink:href="#SVGID_75_" overflow="visible"/></clipPath><path clip-path="url(#SVGID_76_)" d="M27 11.7h50.8v52.5H27z"/></g></g><g class="st24"><defs><path id="SVGID_77_" d="M25.2-.3h47.6v23.8H25.2z"/></defs><clipPath id="SVGID_78_"><use xlink:href="#SVGID_77_" overflow="visible"/></clipPath><g clip-path="url(#SVGID_78_)"><defs><path id="SVGID_79_" d="M-289-1854.3h1440v3878H-289z"/></defs><clipPath id="SVGID_80_"><use xlink:href="#SVGID_79_" overflow="visible"/></clipPath><g clip-path="url(#SVGID_80_)"><defs><path id="SVGID_81_" d="M25-.3h48v24H25z"/></defs><clipPath id="SVGID_82_"><use xlink:href="#SVGID_81_" overflow="visible"/></clipPath><g clip-path="url(#SVGID_82_)"><defs><path id="SVGID_83_" d="M28.9 16.7c.7 2 2.6 3.4 4.8 3.4h6.8c8.3 0 17.2-3.4 21.5-5 .6-.2 1.4-.1 1.8.4 1.6 1.7 3.5 3 5.6 3.9v-6.1c0-3.8-3.1-6.8-6.8-6.8-.6 0-1.2-.4-1.5-.9-.8-1.5-2.3-2.4-4-2.5H28.9c.7 2 2.6 3.4 4.8 3.4.9 0 1.7.8 1.7 1.7 0 .9-.8 1.7-1.7 1.7h-4.8c.7 2 2.6 3.4 4.8 3.4.9 0 1.7.8 1.7 1.7 0 .9-.8 1.7-1.7 1.7h-4.8zm42.2 6.8c-.2 0-.3 0-.5-.1-3.2-.9-6.1-2.5-8.5-4.8-6.6 2.4-14.2 4.8-21.7 4.8h-6.8c-4.7 0-8.5-3.8-8.5-8.5 0-.9.8-1.7 1.7-1.7-1.1-1.4-1.7-3.2-1.7-5.1 0-.9.8-1.7 1.7-1.7-1.1-1.4-1.7-3.2-1.7-5.1 0-.9.8-1.7 1.7-1.7H57c2.6 0 5 1.3 6.5 3.4 5.2.5 9.2 4.9 9.2 10.2v8.5c0 .5-.2 1-.7 1.3-.2.3-.5.5-.9.5z"/></defs><clipPath id="SVGID_84_"><use xlink:href="#SVGID_83_" overflow="visible"/></clipPath><g clip-path="url(#SVGID_84_)"><defs><path id="SVGID_85_" d="M25-.3h48v24H25z"/></defs><clipPath id="SVGID_86_"><use xlink:href="#SVGID_85_" overflow="visible"/></clipPath><path clip-path="url(#SVGID_86_)" d="M20.2-5.3h57.6v33.8H20.2z"/></g></g></g></g></g><g class="st24"><defs><path id="SVGID_87_" d="M35.4 30.3v2.6c0 3.3 2.7 6 5.9 6 3.3 0 5.9-2.7 5.9-5.9v-2.6H35.4zm5.9 11.9c-2.5 0-4.8-1-6.6-2.7-1.7-1.8-2.7-4.2-2.7-6.6v-4.3c0-.9.8-1.7 1.7-1.7H49c.9 0 1.7.8 1.7 1.7v4.3c0 2.5-1 4.8-2.7 6.6-1.8 1.7-4.1 2.7-6.7 2.7z"/></defs><clipPath id="SVGID_88_"><use xlink:href="#SVGID_87_" overflow="visible"/></clipPath><g clip-path="url(#SVGID_88_)"><defs><path id="SVGID_89_" d="M-289-1854.3h1440v3878H-289z"/></defs><clipPath id="SVGID_90_"><use xlink:href="#SVGID_89_" overflow="visible"/></clipPath><path clip-path="url(#SVGID_90_)" d="M27 21.9h28.7v25.3H27z"/></g></g><g class="st24"><defs><path id="SVGID_91_" d="M57.5 30.3v2.6c0 3.3 2.7 6 5.9 6 1.6 0 3.1-.6 4.2-1.7s1.7-2.6 1.7-4.2v-2.6H57.5zm5.9 11.9c-5.1 0-9.3-4.2-9.3-9.3v-4.3c0-.9.8-1.7 1.7-1.7h15.3c.9 0 1.7.8 1.7 1.7v4.3c0 2.5-1 4.8-2.7 6.6-1.8 1.7-4.1 2.7-6.7 2.7z"/></defs><clipPath id="SVGID_92_"><use xlink:href="#SVGID_91_" overflow="visible"/></clipPath><g clip-path="url(#SVGID_92_)"><defs><path id="SVGID_93_" d="M-289-1854.3h1440v3878H-289z"/></defs><clipPath id="SVGID_94_"><use xlink:href="#SVGID_93_" overflow="visible"/></clipPath><path clip-path="url(#SVGID_94_)" d="M49.1 21.9h28.7v25.3H49.1z"/></g></g><g class="st24"><defs><path id="SVGID_95_" d="M49 26.9h6.8v3.4H49z"/></defs><clipPath id="SVGID_96_"><use xlink:href="#SVGID_95_" overflow="visible"/></clipPath><g clip-path="url(#SVGID_96_)"><defs><path id="SVGID_97_" d="M-289-1854.3h1440v3878H-289z"/></defs><clipPath id="SVGID_98_"><use xlink:href="#SVGID_97_" overflow="visible"/></clipPath><path clip-path="url(#SVGID_98_)" d="M44 21.9h16.8v13.4H44z"/></g></g><g class="st24"><defs><path id="SVGID_99_" d="M45.6 32c0 .9-.3 1.7-1 2.4s-1.5 1-2.4 1c-.9 0-1.7-.3-2.4-1s-1-1.5-1-2.4c0-.9.3-1.7 1-2.4s1.5-1 2.4-1c.9 0 1.7.3 2.4 1 .7.6 1 1.4 1 2.4"/></defs><clipPath id="SVGID_100_"><use xlink:href="#SVGID_99_" overflow="visible"/></clipPath><g clip-path="url(#SVGID_100_)"><defs><path id="SVGID_101_" d="M-289-1854.3h1440v3878H-289z"/></defs><clipPath id="SVGID_102_"><use xlink:href="#SVGID_101_" overflow="visible"/></clipPath><path clip-path="url(#SVGID_102_)" d="M33.8 23.6h16.8v16.8H33.8z"/></g></g><g class="st24"><defs><path id="SVGID_103_" d="M66 32c0 .9-.3 1.7-1 2.4s-1.5 1-2.4 1-1.7-.3-2.4-1-1-1.5-1-2.4c0-.9.3-1.7 1-2.4s1.5-1 2.4-1 1.7.3 2.4 1 1 1.4 1 2.4"/></defs><clipPath id="SVGID_104_"><use xlink:href="#SVGID_103_" overflow="visible"/></clipPath><g clip-path="url(#SVGID_104_)"><defs><path id="SVGID_105_" d="M-289-1854.3h1440v3878H-289z"/></defs><clipPath id="SVGID_106_"><use xlink:href="#SVGID_105_" overflow="visible"/></clipPath><path clip-path="url(#SVGID_106_)" d="M54.2 23.6H71v16.8H54.2z"/></g></g><g class="st24"><defs><path id="SVGID_107_" d="M18.4 101.7H15V83c0-7.6 5.7-14.2 13.3-15.2l12.4-1.5c.9-.1 1.5-.8 1.5-1.7v-8.9h3.4v8.9c0 2.6-1.9 4.8-4.5 5.1l-12.4 1.5C22.8 72 18.4 77 18.4 83v18.7z"/></defs><clipPath id="SVGID_108_"><use xlink:href="#SVGID_107_" overflow="visible"/></clipPath><g clip-path="url(#SVGID_108_)"><defs><path id="SVGID_109_" d="M-289-1854.3h1440v3878H-289z"/></defs><clipPath id="SVGID_110_"><use xlink:href="#SVGID_109_" overflow="visible"/></clipPath><path clip-path="url(#SVGID_110_)" d="M10 50.8h40.6v55.9H10z"/></g></g><g class="st24"><defs><path id="SVGID_111_" d="M89.8 101.7h-3.4V83c0-5.9-4.4-11-10.3-11.8l-12.4-1.5c-2.6-.3-4.5-2.5-4.5-5.1v-8.9h3.4v8.9c0 .9.6 1.6 1.5 1.7l12.4 1.5c7.6 1 13.3 7.5 13.3 15.2v18.7z"/></defs><clipPath id="SVGID_112_"><use xlink:href="#SVGID_111_" overflow="visible"/></clipPath><g clip-path="url(#SVGID_112_)"><defs><path id="SVGID_113_" d="M-289-1854.3h1440v3878H-289z"/></defs><clipPath id="SVGID_114_"><use xlink:href="#SVGID_113_" overflow="visible"/></clipPath><path clip-path="url(#SVGID_114_)" d="M54.2 50.8h40.6v55.9H54.2z"/></g></g><g class="st24"><defs><path id="SVGID_115_" d="M52.4 81.3c-6.9 0-13.1-4.1-15.8-10.4l-1.1-2.5 3.1-1.3 1.1 2.5c2.2 5.1 7.1 8.3 12.6 8.3s10.5-3.3 12.6-8.3l1.1-2.5 3.1 1.3-1.1 2.5c-2.5 6.3-8.7 10.4-15.6 10.4"/></defs><clipPath id="SVGID_116_"><use xlink:href="#SVGID_115_" overflow="visible"/></clipPath><g clip-path="url(#SVGID_116_)"><defs><path id="SVGID_117_" d="M-289-1854.3h1440v3878H-289z"/></defs><clipPath id="SVGID_118_"><use xlink:href="#SVGID_117_" overflow="visible"/></clipPath><path clip-path="url(#SVGID_118_)" d="M30.5 62h43.7v24.3H30.5z"/></g></g></svg>