<svg id="Capa_1" xmlns="http://www.w3.org/2000/svg" viewBox="0 0 512 512"><style>.st0{fill:#727272}</style><path class="st0" d="M373.3 362.7H138.7c-5.9 0-10.7 4.8-10.7 10.7s4.8 10.7 10.7 10.7h234.7c5.9 0 10.7-4.8 10.7-10.7-.1-6-4.9-10.7-10.8-10.7zm-42.6 64H181.3c-5.9 0-10.7 4.8-10.7 10.7s4.8 10.7 10.7 10.7h149.3c5.9 0 10.7-4.8 10.7-10.7 0-6-4.7-10.7-10.6-10.7zM256 64c-70.6 0-128 57.4-128 128s57.4 128 128 128 128-57.4 128-128S326.6 64 256 64zM150.4 202.7h52.4c1.1 34.2 7.5 67.5 19 89.9-38.7-13.3-67.1-47.9-71.4-89.9zm52.5-21.4h-52.4c4.3-42 32.7-76.7 71.4-89.9-11.5 22.4-17.9 55.7-19 89.9zM256 298.7c-12 0-29.6-38-31.6-96h63.2c-2 57.9-19.6 96-31.6 96zm-31.6-117.4c2-58 19.6-96 31.6-96s29.6 38 31.6 96h-63.2zm65.8 111.2c11.4-22.4 17.9-55.6 19-89.9h52.4c-4.3 42.1-32.7 76.7-71.4 89.9zm18.9-111.2c-1.1-34.2-7.5-67.5-19-89.9 38.7 13.2 67.2 47.8 71.4 89.9h-52.4z"/><path class="st0" d="M405.3 0H106.7C83.1 0 64 19.1 64 42.7v426.7c0 23.5 19.1 42.7 42.7 42.7h298.7c23.5 0 42.7-19.1 42.7-42.7V42.7C448 19.1 428.9 0 405.3 0zm21.4 469.3c0 11.8-9.6 21.3-21.3 21.3H106.7c-11.8 0-21.3-9.6-21.3-21.3V42.7c0-11.8 9.6-21.3 21.3-21.3h298.7c11.8 0 21.3 9.6 21.3 21.3v426.6z"/></svg>