<svg width="68" height="68" xmlns="http://www.w3.org/2000/svg"><g transform="translate(1 1)" fill="none" fill-rule="evenodd"><g transform="translate(15 12)" fill-rule="nonzero"><path fill="#FF5D5D" d="M8.515 4.102h23.668v31.5H8.515z"/><path d="M32.183.82H10.15c-.903 0-1.634.735-1.634 1.64 0 .907.731 1.642 1.634 1.642h22.033V.82z" fill="#FEDA9B"/><path d="M8.516 28.353v1.47c0 1.219 1.265 2.02 2.36 1.496l4.835-2.313a2.116 2.116 0 0 1 2.426.43c.78.796.816 2.063.08 2.902l-3.475 3.97a7.396 7.396 0 0 0-1.83 4.872H.817V30.473c0-5.941 2.87-11.514 7.699-14.947v12.827z" fill="#FFCDAC"/><ellipse fill="#FFF" cx="20.35" cy="17.391" rx="6.535" ry="6.563"/><path d="M12.998 17.39c0 4.072 3.298 7.383 7.351 7.383 4.054 0 7.352-3.311 7.352-7.382s-3.298-7.383-7.352-7.383c-4.053 0-7.351 3.312-7.351 7.383zm1.693.82h2.338c.075 1.61.371 3.175.88 4.372a5.755 5.755 0 0 1-3.218-4.371zm5.658-6.562c.472 0 1.53 1.673 1.687 4.922h-3.373c.157-3.249 1.215-4.922 1.686-4.922zm1.687 6.563c-.157 3.249-1.215 4.922-1.687 4.922-.471 0-1.53-1.673-1.686-4.922h3.373zm.754 4.371c.509-1.197.805-2.761.88-4.371h2.338a5.755 5.755 0 0 1-3.218 4.371zm3.218-6.012H23.67c-.075-1.61-.371-3.174-.88-4.37a5.755 5.755 0 0 1 3.218 4.37zm-8.1-4.37c-.508 1.196-.804 2.76-.88 4.37h-2.337a5.755 5.755 0 0 1 3.218-4.37zm3.019-7.519a.828.828 0 0 0 .24-.58.821.821 0 0 0-.817-.82.82.82 0 1 0 .577 1.4z" fill="#000"/><path d="M32.183 0H10.15a2.459 2.459 0 0 0-2.451 2.46v12.65A19.19 19.19 0 0 0 0 30.473V41.18c0 .453.366.82.817.82a.819.819 0 0 0 .817-.82V30.473c0-5.115 2.241-9.962 6.065-13.265v12.615c0 .855.43 1.639 1.15 2.095.72.457 1.61.51 2.38.142l4.833-2.313a1.303 1.303 0 0 1 1.493.264c.478.487.5 1.272.05 1.786l-3.476 3.968a8.214 8.214 0 0 0-2.034 5.415c0 .453.366.82.817.82a.819.819 0 0 0 .817-.82 6.57 6.57 0 0 1 1.626-4.331l3.476-3.969a2.972 2.972 0 0 0-.112-4.02 2.93 2.93 0 0 0-1.442-.805h7.364a.819.819 0 0 0 .817-.82.819.819 0 0 0-.817-.821h-8.653a.819.819 0 0 0-.817.82c0 .447.356.81.8.82a2.924 2.924 0 0 0-.612.212l-4.834 2.313a.816.816 0 0 1-.803-.048.823.823 0 0 1-.39-.708V4.78c.256.09.531.14.818.14h5.838a.819.819 0 0 0 .817-.82.819.819 0 0 0-.817-.82H10.15a.82.82 0 0 1 0-1.64h21.216v1.64h-6.725a.819.819 0 0 0-.817.82c0 .454.366.82.817.82h6.725v8.715c0 .453.366.82.817.82a.819.819 0 0 0 .817-.82V.82a.819.819 0 0 0-.817-.82z" fill="#000"/><path d="M32.183 20.18a.819.819 0 0 0-.817.82v13.781H19.238a.819.819 0 0 0-.817.82c0 .454.365.82.817.82h12.945a.819.819 0 0 0 .817-.82V21a.819.819 0 0 0-.817-.82zm0-3.61a.82.82 0 0 0 0 1.64.82.82 0 0 0 0-1.64z" fill="#000"/></g><circle stroke="#000" cx="33" cy="33" r="33"/></g></svg>