<svg width="30" height="30" xmlns="http://www.w3.org/2000/svg"><path d="M15.607 5.343c-5.037 0-9.135 4.13-9.135 9.207 0 5.077 4.098 9.207 9.135 9.207s9.135-4.13 9.135-9.207c0-5.077-4.098-9.207-9.135-9.207zm0 17.231c-4.39 0-7.962-3.6-7.962-8.024 0-4.425 3.572-8.024 7.962-8.024s7.962 3.6 7.962 8.024c0 4.425-3.572 8.024-7.962 8.024z"/><path d="M17.92 9.883c-.84 0-1.656.296-2.313.825a3.693 3.693 0 0 0-2.312-.825c-2.079 0-3.77 1.76-3.77 3.922 0 1.47.996 3.045 2.96 4.681a20.082 20.082 0 0 0 2.841 1.963.582.582 0 0 0 .562 0c.058-.032 1.44-.797 2.84-1.963 1.965-1.636 2.961-3.21 2.961-4.681 0-2.163-1.691-3.922-3.77-3.922zm-2.313 9.368c-1.595-.94-4.909-3.329-4.909-5.446 0-1.51 1.165-2.74 2.597-2.74.716 0 1.383.302 1.879.85a.585.585 0 0 0 .867 0 2.511 2.511 0 0 1 1.878-.85c1.432 0 2.597 1.23 2.597 2.74 0 2.117-3.314 4.507-4.909 5.446zm3.12 8.871a.587.587 0 0 0-.685-.473c-.797.15-1.616.225-2.435.225-7.29 0-13.22-5.977-13.22-13.324 0-.101.001-.202.004-.303a.587.587 0 1 0-1.173-.026A14.469 14.469 0 0 0 5.43 24.807a14.243 14.243 0 0 0 10.177 4.25c.89 0 1.782-.083 2.65-.246a.59.59 0 0 0 .47-.69zM2.089 11.662a.587.587 0 0 0-.678.482l-.001.01a.59.59 0 0 0 .578.692.59.59 0 0 0 .578-.49l.001-.012a.59.59 0 0 0-.478-.682zM20.065.726a.587.587 0 0 0-.677.482l-.002.01a.59.59 0 0 0 .579.692c.28 0 .528-.203.577-.49l.002-.012a.59.59 0 0 0-.479-.682zM18.414.32a14.313 14.313 0 0 0-9.848 1.576.594.594 0 0 0-.224.804.585.585 0 0 0 .799.226 13.144 13.144 0 0 1 9.046-1.447.59.59 0 1 0 .228-1.16zm10.433 8.532a.585.585 0 0 0-.77-.312.593.593 0 0 0-.309.776 13.326 13.326 0 0 1 1.059 5.234c0 1.94-.405 3.811-1.202 5.56a.593.593 0 0 0 .532.838.586.586 0 0 0 .534-.345A14.483 14.483 0 0 0 30 14.55c0-1.978-.388-3.895-1.153-5.698zm-1.201 12.545a.584.584 0 0 0-.808.186l-.004.007a.594.594 0 0 0 .496.905.585.585 0 0 0 .497-.277l.004-.006a.594.594 0 0 0-.185-.815zM5.263 4.236c-.495 0-.978.155-1.385.436a2.44 2.44 0 0 0-1.385-.436C1.118 4.236 0 5.396 0 6.822c0 2.146 3.229 3.985 3.597 4.188a.582.582 0 0 0 .563 0c.368-.203 3.597-2.042 3.597-4.188 0-1.426-1.119-2.586-2.494-2.586zM3.878 9.81C2.73 9.116 1.173 7.83 1.173 6.822c0-.774.592-1.404 1.32-1.404.362 0 .7.153.952.431a.585.585 0 0 0 .867 0c.251-.278.59-.431.952-.431.728 0 1.32.63 1.32 1.404 0 1.009-1.558 2.294-2.706 2.988zm21.302 13.3c-.495 0-.978.154-1.385.436a2.44 2.44 0 0 0-1.385-.437c-1.375 0-2.494 1.16-2.494 2.587 0 2.146 3.23 3.985 3.597 4.188a.582.582 0 0 0 .563 0c.368-.203 3.597-2.042 3.597-4.188 0-1.426-1.119-2.587-2.493-2.587zm-1.385 5.573c-1.148-.694-2.706-1.979-2.706-2.987 0-.775.593-1.404 1.32-1.404.363 0 .7.153.952.43a.585.585 0 0 0 .867 0c.252-.277.59-.43.952-.43.728 0 1.32.63 1.32 1.404 0 1.008-1.558 2.294-2.705 2.987zM26.64.96c-.496 0-.979.154-1.386.436A2.44 2.44 0 0 0 23.87.959c-1.375 0-2.493 1.16-2.493 2.586 0 2.147 3.229 3.986 3.597 4.189a.582.582 0 0 0 .563 0c.368-.203 3.597-2.042 3.597-4.189 0-1.426-1.119-2.586-2.494-2.586zm-1.386 5.573c-1.148-.694-2.705-1.979-2.705-2.988 0-.774.592-1.404 1.32-1.404.362 0 .7.154.952.432a.585.585 0 0 0 .867 0c.251-.278.59-.431.952-.431.728 0 1.32.63 1.32 1.403 0 1.01-1.558 2.294-2.706 2.988z"/></svg>