<svg width="68" height="68" xmlns="http://www.w3.org/2000/svg"><g transform="translate(1 1)" fill="none" fill-rule="evenodd"><g transform="translate(19 13)" fill-rule="nonzero"><path d="M23.71 28.222V10.079c0-5.195-4.124-9.407-9.213-9.407-5.09 0-9.215 4.212-9.215 9.407v18.143h18.429z" fill="#A15D30"/><path fill="#8F4F24" d="M5.283 12.767h9.214v15.455H5.283z"/><path d="M9.231 34.941v5.376h10.531V34.94a6.942 6.942 0 0 1-9.942.6 7.268 7.268 0 0 1-.589-.6z" fill="#EBEBEB"/><path d="M18.94 27.698a1.335 1.335 0 0 1-1.153-1.344v-3.508h-6.581v3.514a1.335 1.335 0 0 1-1.152 1.344l-.823.101v7.136a6.942 6.942 0 0 0 9.943.6 6.94 6.94 0 0 0 .588-.6v-7.136l-.823-.107z" fill="#FEDAC6"/><path d="M11.864 36.83a7.058 7.058 0 0 1-2.633-1.889v5.376h2.633v-3.488z" fill="#DBDBDB"/><path d="M17.787 25.198v-2.352h-6.581v2.352a5.874 5.874 0 0 0 6.581 0z" fill="#F5C4B0"/><path d="M4.137 28.45C2.148 28.702.66 30.436.675 32.482v7.835h8.556V27.805l-5.094.645zm24.181 4.005c.015-2.046-1.473-3.78-3.462-4.032l-5.094-.672v12.566h8.556v-7.862z" fill="#3CACDE"/><path d="M7.257 10.751l.362 6.048c.166 3.877 3.38 6.884 7.178 6.714 3.566-.159 6.421-3.074 6.577-6.714l.362-6.048-7.24-5.375-7.239 5.375zm15.138.672h-.659v4.032h.659c1.09 0 1.974-.903 1.974-2.016 0-1.114-.884-2.016-1.974-2.016z" fill="#FEDAC6"/><path d="M4.624 13.439c0 1.113.884 2.016 1.975 2.016h.658v-4.032h-.658c-1.09 0-1.975.902-1.975 2.016z" fill="#F5C4B0"/><path d="M.675 32.2v8.117h2.633V28.222C1.334 28.894.675 30.237.675 32.2z" fill="#329AC7"/><path d="M14.497 3.508a18.661 18.661 0 0 1-8.958 4.394 9.466 9.466 0 0 0-.257 2.177v1.344h1.975l7.24-6.047V3.508z" fill="#8F4F24"/><path d="M10.745 13.439l-.197-4.704a41.806 41.806 0 0 0-3.291 2.688L7.81 16.8c.14 3.168 2.34 5.848 5.37 6.544l-.875-1.66c-1.461-2.768-1.56-5.106-1.56-8.244z" fill="#F5C4B0"/><ellipse fill="#000" cx="18.446" cy="12.767" rx="1.316" ry="1.344"/><path d="M14.947 16.764l-1.975-.672a.662.662 0 0 1-.4-.38.687.687 0 0 1 .02-.558l1.316-2.687 1.178.601-.977 1.995 1.255.427-.417 1.274zM1.334 40.317H.017v-7.862C0 30.073 1.736 28.05 4.057 27.757l5.923-.753a.668.668 0 0 0 .575-.672v-3.486h1.316v3.48c.008 1.018-.735 1.885-1.727 2.011l-5.924.753c-1.658.21-2.898 1.655-2.886 3.36v7.867zm27.649 0h-1.317v-7.828c.014-1.71-1.227-3.155-2.884-3.366l-5.924-.751c-.994-.128-1.737-.995-1.729-2.016v-3.51h1.317v3.514a.67.67 0 0 0 .576.678l5.922.752c2.32.294 4.056 2.316 4.039 4.703v7.824zm-6.588-24.19h-.659v-1.344h.659c.725 0 1.316-.603 1.316-1.344 0-.741-.59-1.344-1.316-1.344h-.659V10.75h.659c1.451 0 2.632 1.205 2.632 2.688 0 1.482-1.18 2.688-2.632 2.688z" fill="#000"/><path d="M14.497 24.19c-4.047 0-7.357-3.234-7.536-7.362l-.36-6.036 1.313-.082.362 6.048c.148 3.419 2.88 6.088 6.22 6.088 3.341 0 6.074-2.67 6.221-6.077l.363-6.059 1.313.082-.362 6.048c-.177 4.117-3.487 7.35-7.534 7.35z" fill="#000"/><path d="M13.683 19.486h-.502v-1.344h.502c.861 0 1.723-.207 2.494-.6l.589 1.201a6.81 6.81 0 0 1-3.083.743z" fill="#000"/><ellipse fill="#000" cx="10.548" cy="12.767" rx="1.316" ry="1.344"/><path d="M21.32 11.943l-6.823-5.7-6.823 5.7-.834-1.04 7.24-6.048a.647.647 0 0 1 .833 0l7.24 6.048-.833 1.04z" fill="#000"/><path d="M7.257 16.127h-.658c-1.452 0-2.633-1.206-2.633-2.688 0-1.482 1.181-2.688 2.633-2.688h.658v1.344h-.658c-.726 0-1.316.603-1.316 1.344 0 .741.59 1.344 1.316 1.344h.658v1.344z" fill="#000"/><path d="M24.369 12.095h-1.316v-2.016c0-4.816-3.839-8.735-8.556-8.735-4.718 0-8.556 3.919-8.556 8.735v2.016H4.624v-2.016C4.624 4.522 9.054 0 14.497 0s9.872 4.522 9.872 10.08v2.015z" fill="#000"/><path fill="#000" d="M13.839.672h1.316v4.704h-1.316zM4.624 14.783H5.94v13.439H4.624zm18.429 0h1.316v13.439h-1.316zM8.573 27.55h1.316v12.767H8.573zm10.531 0h1.316v12.767h-1.316z"/><path d="M14.501 38.025a7.612 7.612 0 0 1-5.761-2.638l.984-.892a6.3 6.3 0 0 0 9.012.545c.188-.17.368-.353.535-.545l.983.892c-.2.231-.417.453-.644.658a7.581 7.581 0 0 1-5.109 1.98z" fill="#000"/></g><circle stroke="#000" cx="33" cy="33" r="33"/></g></svg>