<?xml version="1.0" encoding="utf-8"?>
<!-- Generator: Adobe Illustrator 22.1.0, SVG Export Plug-In . SVG Version: 6.00 Build 0)  -->
<svg version="1.1" id="Layer_1" xmlns="http://www.w3.org/2000/svg" xmlns:xlink="http://www.w3.org/1999/xlink" x="0px" y="0px"
	 viewBox="0 0 48 48" style="enable-background:new 0 0 48 48;" xml:space="preserve">
<path d="M11.2,11.8c3.1,0,5.6-2.5,5.6-5.6c0-0.7-0.1-1.3-0.3-1.9h2.1c0.3,0,0.6-0.3,0.6-0.6s-0.3-0.6-0.6-0.6h-2.7
	c-1-1.5-2.7-2.5-4.6-2.5c-3.1,0-5.6,2.5-5.6,5.6S8.1,11.8,11.2,11.8z M11.2,1.8c1.2,0,2.3,0.5,3.1,1.3H8.1C8.9,2.3,10,1.8,11.2,1.8z
	 M7.2,4.3h7.9c0.3,0.6,0.4,1.2,0.4,1.9c0,2.4-2,4.4-4.4,4.4s-4.4-2-4.4-4.4C6.8,5.5,7,4.8,7.2,4.3z M19.1,32c0.1,0,0.1,0,0.2,0
	c1.5-0.5,1.7-3,1.7-3.8h1.3v-7.9c0-4.3-3.5-7.8-7.8-7.8H7.9c-4.3,0-7.8,3.5-7.8,7.8v8.1h1.2c0,0.9,0.3,3.2,1.7,3.6C3,32,3,32,3.1,32
	H5v1.2H3.6c-0.3,0-0.6,0.3-0.6,0.6v11.7c0,0.3,0.3,0.6,0.6,0.6h1.6c-0.1,0.1-0.2,0.3-0.2,0.5c0,0.3,0.3,0.6,0.6,0.6h11.2
	c0.3,0,0.6-0.3,0.6-0.6c0-0.2-0.1-0.4-0.2-0.5H19c0.3,0,0.6-0.3,0.6-0.6V33.8c0-0.3-0.3-0.6-0.6-0.6h-1.7V32H19.1z M19,30.8h-1.7
	v-2.6h2.5C19.8,29.2,19.5,30.6,19,30.8z M1.2,27.2v-6.9c0-3.7,3-6.6,6.6-6.6H9L8.3,23.7l1.9,2.2L9.2,27l-3.1-1.7v-6
	c0-0.3-0.3-0.6-0.6-0.6C5.2,18.7,5,19,5,19.3v7.9H1.2z M3.2,30.8c-0.5-0.3-0.8-1.5-0.8-2.5H5v2.5H3.2z M7.1,44.9h-3V34.4H5v7.8
	c0,0.3,0.3,0.6,0.6,0.6c0.3,0,0.6-0.3,0.6-0.6v-7.8h1V44.9z M14.5,45.9h-2.7V31.3c0-0.3-0.3-0.6-0.6-0.6s-0.6,0.3-0.6,0.6v14.6H8.1
	c0.1-0.1,0.2-0.3,0.2-0.5V33.8c0-0.3-0.3-0.6-0.6-0.6H6.2v-6.5l3.4,1.9l1.4-1.7l1.5,1.7l3.6-2.1v6.8h-1.3c-0.3,0-0.6,0.3-0.6,0.6
	v11.7C14.2,45.7,14.3,45.8,14.5,45.9z M18.4,34.4v10.5h-3V34.4h0.7v7.8c0,0.3,0.3,0.6,0.6,0.6c0.3,0,0.6-0.3,0.6-0.6v-7.8H18.4z
	 M16.7,18.7c-0.3,0-0.6,0.3-0.6,0.6V25l-3.4,2l-3.2-3.7l0.7-9.7h4.2c3.7,0,6.6,3,6.6,6.6V27h-3.8v-7.7C17.3,19,17,18.7,16.7,18.7z
	 M45.8,41.1h-0.9V22.3c0-5.9-4.8-10.7-10.7-10.7h-0.1c-5.9,0-10.7,4.8-10.7,10.7v18.8h-0.7c-1.2,0-2.2,1-2.2,2.2s1,2.2,2.2,2.2h0.7
	c0.3,1.1,1.3,2,2.5,2c1.2,0,2.2-0.8,2.5-2h11.2c0.3,1.1,1.3,2,2.5,2c1.2,0,2.2-0.8,2.5-2h1c1.2,0,2.2-1,2.2-2.2S47,41.1,45.8,41.1z
	 M24.7,22.3c0-5,3.9-9.1,8.9-9.4v3.8c0,0.3,0.3,0.6,0.6,0.6s0.6-0.3,0.6-0.6v-3.8c5,0.3,8.9,4.4,8.9,9.4v18.4H41
	c0.1-0.2,0.1-0.4,0.1-0.6V28.1c0-1-0.8-1.8-1.8-1.8h-0.6v-3.2c0-0.3-0.3-0.6-0.6-0.6s-0.6,0.3-0.6,0.6v3.2h-0.9
	c-1,0-1.8,0.8-1.8,1.8v11.9c0,0.2,0,0.4,0.1,0.6h-1.7c0.1-0.2,0.1-0.4,0.1-0.6V28.1c0-1-0.8-1.8-1.8-1.8h-0.9v-3.2
	c0-0.3-0.3-0.6-0.6-0.6c-0.3,0-0.6,0.3-0.6,0.6v3.2h-0.6c-1,0-1.8,0.8-1.8,1.8v11.9c0,0.2,0,0.4,0.1,0.6h-2.5V22.3z M38.1,38
	c0.3,0,0.6-0.3,0.6-0.6v-9.9h0.6c0.3,0,0.6,0.3,0.6,0.6v11.9c0,0.3-0.3,0.6-0.6,0.6h-2.7c-0.3,0-0.6-0.3-0.6-0.6V28.1
	c0-0.3,0.3-0.6,0.6-0.6h0.9v9.9C37.5,37.7,37.8,38,38.1,38z M30.1,38c0.3,0,0.6-0.3,0.6-0.6v-9.9h0.9c0.3,0,0.6,0.3,0.6,0.6v11.9
	c0,0.3-0.3,0.6-0.6,0.6h-2.7c-0.3,0-0.6-0.3-0.6-0.6V28.1c0-0.3,0.3-0.6,0.6-0.6h0.6v9.9C29.5,37.7,29.8,38,30.1,38z M23.4,44.3
	h-0.7c-0.6,0-1-0.5-1-1c0-0.6,0.5-1,1-1h2.6C24.4,42.5,23.6,43.3,23.4,44.3z M26,46.2c-0.8,0-1.4-0.6-1.4-1.4s0.6-1.4,1.4-1.4
	s1.4,0.6,1.4,1.4S26.8,46.2,26,46.2z M39.7,44.3H28.5c-0.2-1-1-1.8-2-2h15.1C40.7,42.5,39.9,43.3,39.7,44.3z M42.3,46.2
	c-0.8,0-1.4-0.6-1.4-1.4s0.6-1.4,1.4-1.4s1.4,0.6,1.4,1.4S43.1,46.2,42.3,46.2z M45.8,44.3h-0.9c-0.2-1-1-1.8-2-2h2.9
	c0.6,0,1,0.5,1,1C46.8,43.8,46.3,44.3,45.8,44.3z"/>
</svg>
