<svg width="68" height="68" xmlns="http://www.w3.org/2000/svg" xmlns:xlink="http://www.w3.org/1999/xlink"><defs><path id="a" d="M0 0h36.985v48H0z"/></defs><g transform="translate(1 1)" fill="none" fill-rule="evenodd"><circle stroke="#000" cx="33" cy="33" r="33"/><path d="M33.441 16.594c-2.92 0-5.288 2.345-5.288 5.238v2.073c.354-.324.857-.5 1.347-.436v-.26a.36.36 0 0 1 .387-.357c2.044.146 4.124-.498 5.697-1.516a.363.363 0 0 1 .461.056c1.345 1.432 1.337 1.376 1.337 1.563v.513c.538-.08 1.015.085 1.347.39v-2.026c0-2.893-2.368-5.238-5.288-5.238" fill="#FF9052"/><path d="M29.573 21.832c0-2.655 1.993-4.846 4.577-5.19a5.383 5.383 0 0 0-.709-.048c-2.92 0-5.288 2.345-5.288 5.238v2.073c.354-.324.857-.5 1.347-.436v-.26c0-.081.028-.155.073-.215v-1.162z" fill="#FF8031"/><path d="M37.335 23.27v2.87l-.003.092c1.026.154 1.828-.58 1.828-1.48 0-.904-.803-1.634-1.825-1.482" fill="#FFBEAB"/><path d="M38.617 23.604a1.619 1.619 0 0 0-1.282-.334v2.87l-.003.092c.506.076.957-.064 1.285-.334v-2.294z" fill="#C2C7D0"/><path d="M31.276 29.308v2.056l2.21 2.702 2.209-2.702V29.25c-1.38.943-3.166.851-4.419.058" fill="#E4EAF8"/><path d="M32.691 29.799a3.98 3.98 0 0 1-1.415-.549v2.056l1.415 1.73V29.8z" fill="#C2C7D0"/><path d="M41.595 33.461L35.75 31.22l-2.21 2.702-2.209-2.702-5.838 2.242s-1.453.593-1.976 2.152a13.255 13.255 0 0 0 10.03 4.57c4.004 0 7.598-1.771 10.026-4.565-.522-1.563-1.978-2.157-1.978-2.157" fill="#FFF"/><path d="M30.988 26.174v-3.477a8.336 8.336 0 0 1-1.029-.008.359.359 0 0 0-.386.355v3.13c0 2.412 2.193 4.206 4.648 3.793-1.833-.308-3.233-1.891-3.233-3.793" fill="#E4EAF8"/><path d="M36.215 35.309l1.652-3.28-2.11-.81-2.21 2.702 2.154 1.515a.35.35 0 0 0 .514-.127m-5.368 0l-1.653-3.28 2.11-.81 2.21 2.702-2.154 1.515a.35.35 0 0 1-.513-.127" fill="#ABFFDB"/><path fill="#6DC296" d="M33.508 33.846v-.002h-.003v.002l-1.566 1.102.74 1.104h1.655l.74-1.104z"/><path d="M34.29 34.396l-.782-.55v-.002h-.003v.002l-1.566 1.102.74 1.104h1.568l-.608-.906a.243.243 0 0 1 .063-.335l.589-.415z" fill="#5FA77E"/><path d="M32.128 40.076a13.437 13.437 0 0 0 2.744.001l-.544-3.983h-1.655l-.545 3.982z" fill="#ABFFDB"/><path d="M32.128 40.076c.452.047.912.072 1.376.072l.183-.003.553-4.051h-1.568l-.544 3.982z" fill="#92E0C0"/><path d="M33.483 39.647c-7.045 0-12.756-5.659-12.756-12.638 0-6.98 5.711-12.638 12.756-12.638S46.239 20.03 46.239 27.01c0 6.98-5.711 12.638-12.756 12.638m-.844-29.971c-9.171.418-16.597 7.825-16.962 16.914-.264 6.556 3.085 12.356 8.233 15.61a6.37 6.37 0 0 1 2.089 2.14l6.806 11.524a.79.79 0 0 0 1.356 0l6.768-11.46a6.61 6.61 0 0 1 2.156-2.222c4.942-3.138 8.218-8.624 8.218-14.871 0-10.027-8.438-18.102-18.664-17.635" fill="red"/><g transform="translate(15 9)"><mask id="b" fill="#fff"><use xlink:href="#a"/></mask><path d="M36.34 19.273a.707.707 0 0 0-.772.637c-.48 5.238-3.33 9.877-7.819 12.727a7.366 7.366 0 0 0-2.386 2.46l-6.767 11.46c-.007.01-.023.037-.066.037-.044 0-.059-.026-.066-.038l-6.806-11.524a7.112 7.112 0 0 0-2.32-2.377c-5.117-3.236-8.146-8.98-7.905-14.99.35-8.706 7.504-15.84 16.286-16.24 9.158-.418 16.993 6.317 17.845 15.333a.707.707 0 0 0 .773.634.705.705 0 0 0 .64-.765c-.442-4.679-2.657-8.968-6.238-12.079C27.123 1.408 22.476-.2 17.654.02A18.524 18.524 0 0 0 5.4 5.433C2.111 8.713.2 13.036.015 17.609a18.232 18.232 0 0 0 2.17 9.404 18.535 18.535 0 0 0 6.39 6.828 5.693 5.693 0 0 1 1.858 1.901l6.806 11.525c.271.459.754.733 1.29.733.538 0 1.02-.274 1.292-.733l6.767-11.46a5.948 5.948 0 0 1 1.927-1.986 18.626 18.626 0 0 0 5.792-5.835 18.253 18.253 0 0 0 2.675-7.949.705.705 0 0 0-.643-.764" fill="#000" mask="url(#b)"/></g><path d="M25.709 34.037l3.112-1.196 1.361 2.703a1.055 1.055 0 0 0 .947.58c.212 0 .42-.063.599-.184l.178.267-.441 2.585a12.072 12.072 0 0 1-6.932-3.785 3.232 3.232 0 0 1 1.176-.97zm7.717-3.344h.062a3.452 3.452 0 0 0 .071 0h.038l.019-.001.037-.002a1.195 1.195 0 0 0 .063-.002h.009l.053-.004h.017c.012-.002.025-.002.037-.003l.02-.002c.012 0 .023-.002.034-.003.007 0 .014 0 .02-.002.013 0 .025-.002.037-.003l.017-.002.052-.005a.49.49 0 0 0 .053-.007l.02-.002.034-.005.02-.002.033-.005.02-.003.04-.006.012-.002a3.258 3.258 0 0 0 .068-.012l.035-.007.02-.004.032-.006.021-.004.033-.007.019-.004.045-.01.014-.003.042-.01.02-.005.03-.008a.098.098 0 0 0 .023-.006l.028-.007.023-.006.028-.008.023-.006a1.614 1.614 0 0 1 .075-.022l.02-.006.031-.01.016-.005.033-.01.015-.005.034-.012h.003v.448l-1.495 1.828-1.498-1.832v-.408a5.396 5.396 0 0 0 1.444.208zm-5.043-5.932c0-.243.137-.418.238-.515l.013-.012a.984.984 0 0 1 .153-.115v1.327a.782.782 0 0 1-.403-.685zm.478-2.974c0-2.497 2.05-4.528 4.57-4.528 2.52 0 4.57 2.031 4.57 4.528v.577c-.089-.186-.28-.396-.675-.814a.91.91 0 0 1-.003-.004l-.022-.023-.015-.015-.04-.043-.024-.024-.017-.019-.093-.098a1.073 1.073 0 0 0-1.928-.76l-.037.024c-1.564 1-3.461 1.502-5.211 1.378a1.068 1.068 0 0 0-.807.28l-.003.002-.017.016v.001a.61.61 0 0 0-.02.02h-.001a.968.968 0 0 0-.055.061l-.001.002-.017.02-.001.002-.016.02-.001.002-.015.02-.001.002-.015.02-.001.004a1.063 1.063 0 0 0-.016.023l-.012.02-.002.004-.012.02a.114.114 0 0 0-.002.004l-.011.02a.737.737 0 0 0-.025.05l-.001.003-.01.022a.563.563 0 0 0-.013.003v-.82zm9.344 3.57a.81.81 0 0 1-.129.089v-1.37a.83.83 0 0 1 .152.11l.011.01a.781.781 0 0 1-.035 1.16zm-2.924 3.376c-.389.266-.826.44-1.286.514h-.003a2.614 2.614 0 0 1-.08.012l-.01.001-.022.003-.012.002-.033.003-.018.002-.02.002-.016.002-.018.001-.02.002a.72.72 0 0 1-.048.003l-.013.001-.024.002h-.013l-.03.002h-.006a2.337 2.337 0 0 1-.046.001h-.038l-.037.001c-2.005 0-3.223-1.521-3.28-3.03v-.07l-.002-.039v-2.76h.014c1.762.048 3.614-.426 5.214-1.328l.006-.003a9.226 9.226 0 0 0 .226-.131l.044-.027.46.486c.217.23.391.414.487.52v3.253l-.001.026-.001.04a3.131 3.131 0 0 1-1.373 2.51zm7.149 6.274a12.073 12.073 0 0 1-6.935 3.786l-.442-2.587.179-.266a1.064 1.064 0 0 0 1.545-.396l1.361-2.703 3.116 1.196a3.2 3.2 0 0 1 1.176.97zm-8.95-.3l.593.418-.148.221h-.891l-.148-.22.594-.419zm-.227 2.046h.453l.375 2.192c-.4.019-.802.019-1.202 0l.374-2.192zm3.556-4.422l-1.113 2.21c-.003-.001.002.002 0 0l-1.19-.837 1.404-1.717.899.344zm-5.545 2.21l-1.113-2.21.881-.338 1.417 1.715-1.185.834c-.003.002.003-.002 0 0zm.59-19.342a.704.704 0 0 0 .608-.79.709.709 0 0 0-.799-.604 13.492 13.492 0 0 0-8.29 4.406 13.254 13.254 0 0 0-3.358 8.814c0 3.196 1.14 6.133 3.04 8.433a.707.707 0 0 0 .055.075 13.464 13.464 0 0 0 8.565 4.713l.013.002.06.008.033.004.048.006.044.005.041.005.051.005h.004l.002.001h.002l.028.003.058.007a2.824 2.824 0 0 0 .095.009l.024.002.075.007.013.002a12.622 12.622 0 0 0 .39.028l.064.004.032.002.057.003.037.002.051.002.043.002a7.103 7.103 0 0 1 .13.004l.054.002h.031l.06.002h.022l.07.001h.004a14.641 14.641 0 0 0 .422-.001h.01a5.91 5.91 0 0 0 .09-.002l.067-.002h.023l.063-.003.028-.001.06-.003h.03l.058-.004.03-.001.06-.003.028-.002.06-.004.027-.001.062-.005h.01c.108-.008.215-.017.323-.027h.01l.073-.008.015-.001.073-.008.011-.001.078-.009h.005a13.466 13.466 0 0 0 8.825-4.745.694.694 0 0 0 .055-.075 13.204 13.204 0 0 0 3.04-8.434c0-6.719-5.069-12.41-11.79-13.237a.709.709 0 0 0-.791.61.705.705 0 0 0 .616.785c6.012.74 10.545 5.832 10.545 11.843 0 2.55-.811 4.915-2.191 6.856a4.587 4.587 0 0 0-1.56-1.152l-5.382-2.065v-1.002a4.54 4.54 0 0 0 1.613-2.729c.416-.066.805-.24 1.123-.51a2.181 2.181 0 0 0 .29-3.025v-1.611c0-3.273-2.687-5.935-5.99-5.935-3.302 0-5.989 2.663-5.989 5.935v1.654c-.31.379-.478.836-.478 1.32 0 .64.28 1.245.77 1.662.316.27.704.444 1.12.51a4.457 4.457 0 0 0 1.709 2.797v.934l-5.378 2.065a4.59 4.59 0 0 0-1.559 1.151 11.793 11.793 0 0 1-2.19-6.856c0-5.946 4.479-11.03 10.418-11.825z" fill="#000"/><path d="M33.628 15c6.682 0 12.099 5.367 12.099 11.986 0 6.62-5.417 11.987-12.099 11.987S21.53 33.606 21.53 26.986 26.946 15 33.63 15" fill="#FFF"/><path d="M22.665 21.737h21.861a12.114 12.114 0 0 0-10.922-6.83c-4.817 0-8.99 2.792-10.939 6.83" fill="#F90"/><path d="M44.526 32.156H22.665a12.114 12.114 0 0 0 10.923 6.831c4.817 0 8.99-2.793 10.938-6.83" fill="#080"/><path d="M34.381 26.894a.716.716 0 0 0-.015-.118l.707-.097 1.993-.655-2.056.421-.661.266a.705.705 0 0 0-.046-.11l.657-.275 1.754-1.143-1.876.933-.57.426a.718.718 0 0 0-.072-.094l.562-.434 1.397-1.554-1.57 1.383-.437.557a.717.717 0 0 0-.095-.073l.43-.563.942-1.859-1.154 1.739-.278.65a.712.712 0 0 0-.11-.047l.267-.653.425-2.038-.66 1.976-.098.698a.724.724 0 0 0-.119-.016l.087-.7-.121-2.076-.122 2.077.087.7a.724.724 0 0 0-.118.015l-.099-.698-.66-1.976.425 2.038.267.653a.717.717 0 0 0-.11.046l-.278-.65-1.154-1.738.943 1.86.429.562a.725.725 0 0 0-.095.073l-.438-.557-1.568-1.383 1.396 1.554.562.434a.71.71 0 0 0-.073.094l-.569-.426-1.876-.933 1.754 1.143.657.275a.705.705 0 0 0-.046.11l-.66-.266-2.057-.42 1.993.654.707.097a.706.706 0 0 0-.015.118l-.709-.087-2.096.12 2.096.121.709-.086c.002.04.008.079.016.117l-.708.098-1.993.654 2.056-.42.663-.267a.697.697 0 0 0 .046.11l-.659.276-1.754 1.143 1.876-.934.571-.427a.719.719 0 0 0 .073.093l-.564.436-1.396 1.555 1.568-1.384.44-.56c.03.027.062.051.095.073l-.431.566-.943 1.86 1.154-1.74.28-.653a.716.716 0 0 0 .11.046l-.27.657-.424 2.038.66-1.975.1-.703a.723.723 0 0 0 .118.015l-.088.705.122 2.077.121-2.077-.088-.705a.723.723 0 0 0 .119-.015l.099.703.66 1.975-.425-2.038-.269-.657a.716.716 0 0 0 .11-.046l.28.654 1.154 1.738-.943-1.859-.431-.566a.721.721 0 0 0 .095-.072l.44.56 1.569 1.383-1.397-1.555-.564-.436a.71.71 0 0 0 .073-.093l.57.427 1.877.934-1.754-1.143-.659-.277a.689.689 0 0 0 .046-.109l.663.266 2.056.421-1.993-.654-.708-.098a.707.707 0 0 0 .016-.117l.709.086 2.096-.12-2.096-.121-.709.087z" fill="#00008C"/><path d="M37.306 27.206a.195.195 0 0 0-.212.167.194.194 0 0 0 .16.217 3.587 3.587 0 0 1-.146.541.196.196 0 0 0-.248.108.193.193 0 0 0 .098.25c-.082.169-.177.33-.284.484a.197.197 0 0 0-.267.042c-.064.082-.05.2.03.266a3.65 3.65 0 0 1-.4.396.197.197 0 0 0-.269-.029.193.193 0 0 0-.041.265 3.649 3.649 0 0 1-.49.28.196.196 0 0 0-.252-.097.193.193 0 0 0-.11.245c-.175.061-.357.11-.546.144a.196.196 0 0 0-.387.05c-.191.016-.38.015-.566.001a.196.196 0 1 0-.388-.05 3.663 3.663 0 0 1-.545-.145.193.193 0 0 0-.11-.245.196.196 0 0 0-.251.097 3.676 3.676 0 0 1-.49-.28.193.193 0 0 0-.042-.265.197.197 0 0 0-.268.029 3.65 3.65 0 0 1-.4-.396.193.193 0 0 0 .029-.266.197.197 0 0 0-.268-.04 3.595 3.595 0 0 1-.283-.486.193.193 0 0 0 .099-.25.196.196 0 0 0-.249-.108 3.598 3.598 0 0 1-.146-.541.194.194 0 0 0 .16-.217.195.195 0 0 0-.212-.167 3.6 3.6 0 0 1 0-.56.194.194 0 1 0 .05-.384c.035-.187.084-.368.146-.543.099.037.21-.01.25-.107a.193.193 0 0 0-.1-.25c.082-.17.177-.332.283-.486.086.06.205.044.27-.04a.193.193 0 0 0-.032-.268c.123-.142.256-.275.4-.397a.197.197 0 0 0 .271.032.193.193 0 0 0 .04-.269c.154-.105.318-.199.49-.28a.196.196 0 0 0 .254.1.193.193 0 0 0 .107-.249 3.69 3.69 0 0 1 .547-.144.196.196 0 0 0 .388-.05c.191-.016.38-.015.566-.001a.195.195 0 0 0 .17.213.196.196 0 0 0 .218-.163c.187.035.37.084.547.146a.193.193 0 0 0 .108.249c.098.04.21-.005.254-.1.17.08.334.175.49.28a.193.193 0 0 0 .039.268c.084.064.204.05.27-.031.144.121.278.254.4.396a.193.193 0 0 0-.03.268c.064.084.184.1.27.04.105.153.2.315.282.485a.193.193 0 0 0-.1.251c.04.097.15.144.25.107.061.174.11.355.145.542a.194.194 0 0 0-.161.216.195.195 0 0 0 .212.168c.015.19.014.377 0 .56m.497-.823c-.301-2.267-2.4-3.863-4.69-3.565-2.289.299-3.9 2.379-3.599 4.647.302 2.267 2.402 3.863 4.69 3.565 2.29-.299 3.9-2.379 3.6-4.647" fill="#00008C"/></g></svg>