<svg width="37" height="21" xmlns="http://www.w3.org/2000/svg"><path d="M34.773 19.466H33.67c.062-1.199-.004-3.483-.987-6.16h1.556c.993 2.58.727 5.08.534 6.16zm-5.793-2.564h-1.327c.06-.245.161-.414.283-.616.196-.328.432-.724.505-1.392 1.062-.257 2.042-.687 2.686-1.368 1.025 2.624 1.063 4.884 1.004 5.94h-.2c-1.927-2.563-2.693-2.564-2.951-2.564zm-3.227 2.564a.724.724 0 0 1-.454-.158l.524-.873h3.074c.204.111.607.51 1.059 1.031h-4.203zm.47-3.139c-.163-.234-.428-.614-.777-1.107h.047c.416 0 .86-.018 1.312-.06-.05.112-.113.217-.185.337a3.753 3.753 0 0 0-.398.83zm-8.43-4.893c1.026-.792 3.529-2.505 6.091-2.618a.767.767 0 1 0-.068-1.532c-2.332.103-4.538 1.273-5.954 2.213a27.73 27.73 0 0 0-.425-1.067c.238-.8.987-3.697.37-6.63 3.802.27 6.99 2.078 9.488 5.389a19.246 19.246 0 0 1 2.767 5.23c-.92 1.073-3.825 1.426-5.754 1.208a209.21 209.21 0 0 0-1.122-1.542.767.767 0 1 0-1.236.908 202.653 202.653 0 0 1 2.912 4.064l-1.188 1.98c-1.104-1.063-3.442-3.549-5.881-7.603zm.061 7.842a.542.542 0 0 1-.416.19H7.224l-.47-4.237h6.196a.767.767 0 0 0 .62-1.218c-1.927-2.649-4.983-7.48-4.983-9.167 0-.94.308-1.654.94-2.183 1.613-1.345 5.02-1.206 6.675-.982.418 1.562.342 3.195.164 4.43a16.26 16.26 0 0 0-.172-.337.767.767 0 1 0-1.36.71c.013.022 1.095 2.106 1.74 3.96a9.184 9.184 0 0 0-.287.242.767.767 0 0 0-.152.958 46.335 46.335 0 0 0 2.564 3.939c.013 1.114-.2 3.036-.845 3.695zM3.973 16.26a.765.765 0 0 0-.448.145 6.956 6.956 0 0 0-1.982 2.42c.027-.208.113-.43.218-.7.173-.441.387-.99.413-1.712.086-2.397.473-2.466.516-2.466.34 0 .85.298 1.3.561.39.23.79.463 1.207.6l.128 1.153H3.973zm31.479-4.032a.767.767 0 0 0-.701-.456h-3.288a20.66 20.66 0 0 0-2.912-5.464C25.585 2.352 21.547.253 16.87.23c-.668-.114-5.75-.893-8.323 1.251-.99.827-1.494 1.958-1.494 3.362 0 2.14 2.898 6.638 4.419 8.852H5.896c-.26 0-.723-.272-1.132-.511-.617-.362-1.317-.772-2.074-.772-1.907 0-1.999 2.567-2.048 3.946-.017.46-.159.823-.309 1.207-.163.42-.333.853-.333 1.385 0 .605.338 1.16.927 1.52.573.351 1.382.529 2.405.529a.767.767 0 1 0 0-1.533c-.14 0-.269-.005-.39-.013.401-.817 1.005-1.404 1.302-1.66h1.251l.28 2.524a.767.767 0 0 0 .763.682h10.9a2.08 2.08 0 0 0 1.514-.653c.689-.705 1.009-1.902 1.157-2.938 1.84 2.248 3.168 3.346 3.257 3.418a.766.766 0 0 0 1.142-.2 2.24 2.24 0 0 0 1.245.373h9.64a.767.767 0 0 0 .737-.557c.047-.167 1.137-4.121-.678-8.215z" fill-rule="evenodd"/></svg>