<svg width="27" height="27" xmlns="http://www.w3.org/2000/svg"><path d="M24.979 18.9l-6.081 6.084a2.097 2.097 0 0 1-1.491.617 2.097 2.097 0 0 1-1.491-.617L5.432 14.494a1.536 1.536 0 0 1-.449-1.188l.204-3.053c.116.017.233.034.35.046.174.018.349.03.518.03 1.194 0 2.26-.42 3.052-1.213a.7.7 0 1 0-.99-.99c-.606.606-1.474.885-2.447.786-.134-.011-.262-.035-.39-.058l.21-3.123a.257.257 0 0 1 .239-.24l7.577-.5c.035 0 .07-.006.105-.006.408 0 .804.163 1.09.448l10.478 10.484c.396.396.617.926.617 1.491 0 .566-.221 1.096-.617 1.492m.984-3.968L15.485 4.442a2.922 2.922 0 0 0-2.074-.862c-.064 0-.128 0-.192.006l-7.578.501a1.654 1.654 0 0 0-1.537 1.539l-.181 2.692a5.224 5.224 0 0 1-1.083-.833c-.81-.81-1.311-1.819-1.416-2.844-.099-.973.18-1.842.787-2.448 1.287-1.287 3.657-1.002 5.294.63a.7.7 0 1 0 .99-.99c-2.19-2.174-5.452-2.454-7.28-.624-.91.909-1.328 2.173-1.189 3.577.134 1.347.78 2.658 1.818 3.695a6.504 6.504 0 0 0 1.974 1.358l-.221 3.374a2.931 2.931 0 0 0 .856 2.272l10.484 10.49A3.479 3.479 0 0 0 17.42 27c.937 0 1.817-.367 2.48-1.026l6.076-6.077A3.483 3.483 0 0 0 27 17.414a3.497 3.497 0 0 0-1.037-2.482" fill-rule="evenodd"/></svg>