<svg width="45" height="46" xmlns="http://www.w3.org/2000/svg"><g fill="none"><path d="M17.11 39.935h-.133C-1.843 30.392 2.266 4.813 2.266 4.813c7.29.928 14.711-3.181 14.711-3.181l.133.132h.133c1.722 1.06 7.422 3.977 14.711 3.049-.133 0 4.109 25.58-14.844 35.122z" fill="#FFCA19"/><path d="M17.11 33.573C8.628 27.61 7.302 16.608 7.302 10.247c3.844-.398 7.157-1.59 9.41-2.518 2.254 1.06 5.7 2.253 9.808 2.65.265 6.23-1.06 17.363-9.41 23.194z" opacity=".1" fill="#030303"/><path d="M16.977 1.632c-.265.132-7.554 4.109-14.711 3.18 0 0-4.109 25.58 14.711 35.255V1.632z" fill="#D69D28"/><path d="M17.11 41.26h-.133c-.265 0-.397 0-.662-.132C-3.035 31.32.808 4.813.94 4.548c.132-.663.795-1.193 1.457-1.06.663 0 1.326.132 2.121.132 6.097 0 11.796-3.048 11.928-3.048a1.204 1.204 0 0 1 1.326 0s.132 0 .132.132c.795.53 5.302 3.048 11.133 3.048.928 0 1.856 0 2.651-.132.795-.133 1.325.398 1.458 1.06 0 .265 4.109 26.773-15.374 36.58h-.663zM3.326 6.138C2.93 11.307 2.133 30.525 17.11 38.477c14.844-7.952 14.049-27.17 13.519-32.206h-1.723c-5.832 0-10.338-2.121-12.061-3.181-1.723.928-6.76 3.18-12.326 3.18-.398 0-.795 0-1.193-.132z" fill="#000"/><path d="M43.22 40.863V27.21H23.074v13.52c0 1.722 1.458 3.18 3.181 3.18h13.651a3.068 3.068 0 0 0 3.314-3.048z" fill="#F15E75"/><path d="M23.074 27.212h20.145v4.24H23.074z" opacity=".1" fill="#030303"/><path d="M40.039 45.369H26.255a4.469 4.469 0 0 1-4.506-4.506V27.21c0-.795.53-1.325 1.325-1.325H43.22c.795 0 1.325.53 1.325 1.325v13.52c0 2.65-1.988 4.638-4.506 4.638zm-15.64-16.832V40.73c0 1.06.796 1.856 1.856 1.856h13.651c1.06 0 1.856-.796 1.856-1.856V28.537H24.399z" fill="#000"/><path d="M39.906 28.537H26.255c-.795 0-1.325-.53-1.325-1.326v-5.964c0-4.506 3.71-8.217 8.217-8.217 4.506 0 8.217 3.711 8.217 8.217v5.964c-.132.796-.795 1.326-1.458 1.326zM27.58 25.886h11v-4.639c0-3.048-2.517-5.566-5.566-5.566-3.048 0-5.566 2.518-5.566 5.566v4.639h.132z" fill="#000"/><path d="M33.147 39.802c-.795 0-1.326-.53-1.326-1.325V35.03c0-.795.53-1.325 1.326-1.325.795 0 1.325.53 1.325 1.325v3.446c0 .663-.53 1.325-1.325 1.325z" fill="#FFF"/><path d="M16.977 7.861s-.132-.132 0 0c-2.385.795-5.831 1.988-9.675 2.386 0 6.229 1.193 17.23 9.543 23.326V7.861h.132z" fill="#FFCA19"/></g></svg>