<svg id="Capa_1" xmlns="http://www.w3.org/2000/svg" viewBox="0 0 100 92"><style>.st0{fill:#fedac6}.st3{fill:#f5c4b0}.st12{fill:#1e110c}</style><path d="M16 75.8c-4.3-1.9-6.2-6.9-4.3-11.2.7-1.7 2-3.1 3.6-4-3.4-3.2-3.5-8.6-.3-12 1.4-1.5 3.3-2.4 5.4-2.6-.6-1-1-2.2-1-3.5 0-3.8 3-6.8 6.8-6.8V25.5C26.2 12.4 36.9 1.7 50 1.7c13.1 0 23.8 10.7 23.8 23.8v10.2c3.8 0 6.8 3 6.8 6.8 0 1.2-.4 2.4-1 3.4 4.7.4 8.1 4.6 7.7 9.2-.2 2.1-1.1 4-2.6 5.4 4.1 2.3 5.6 7.4 3.4 11.5-.9 1.7-2.4 3-4.1 3.7l-68 .1z" fill="#2b170e"/><path d="M33.9 8c-4.9 4.5-7.7 10.9-7.7 17.5v10.2c-3.8 0-6.8 3-6.8 6.8 0 1.2.4 2.4 1 3.4-4.7.4-8.1 4.6-7.7 9.2.2 2.1 1.1 4 2.6 5.4-4.1 2.3-5.6 7.4-3.4 11.5.9 1.7 2.4 3 4.1 3.7h44.2c-1.1-.9-2.3-1.7-3.4-2.7C34.2 55 33.1 22.9 33.9 8z" fill="#2d1c14"/><path class="st0" d="M70.4 28.9H67v10.2h3.4c2.8 0 5.1-2.3 5.1-5.1s-2.3-5.1-5.1-5.1z"/><path class="st3" d="M24.5 34c0 2.8 2.3 5.1 5.1 5.1H33V28.9h-3.4c-2.8 0-5.1 2.3-5.1 5.1z"/><path class="st0" d="M50 79.9c6.2 0 11.8-3.7 14.2-9.4l.7-1.7-3.4-.4c-1.7-.2-3-1.7-3-3.4v-8.9h-17V65c0 1.7-1.3 3.2-3 3.4l-3.5.4.7 1.7c2.5 5.7 8.1 9.4 14.3 9.4z"/><path class="st3" d="M58.5 65.5v-9.4h-17v9.4c6.4 3.3 10.6 3.3 17 0z"/><path class="st0" d="M68.7 28.9l-.9 13.6c-.4 9.5-8.2 17-17.8 17-9.5 0-17.3-7.5-17.8-17l-.9-13.6L50 13.6l18.7 15.3z"/><path class="st3" d="M38.1 23.3l-6.8 5.6.9 13.6c.3 6.4 4 12.1 9.6 15-.8-2.1-1.5-4.3-2.1-6.5-1-4.5-1.4-18.7-1.6-27.7z"/><path transform="rotate(-51.843 61.902 14.446)" class="st12" d="M60.2-.7h3.4v30.3h-3.4z"/><path transform="rotate(-37.58 38.953 13.598)" class="st12" d="M25 11.9h27.9v3.4H25z"/><circle cx="60.2" cy="32.3" r="3.4"/><path d="M51.2 42.4l-5.1-1.7c-.9-.3-1.4-1.3-1.1-2.2l3.4-10.2 3.2 1.1-2.8 8.6 3.5 1.2-1.1 3.2zm19.2-1.6h-1.7v-3.4h1.7c1.9 0 3.4-1.5 3.4-3.4s-1.5-3.4-3.4-3.4h-1.7v-3.4h1.7c3.8 0 6.8 3 6.8 6.8s-3 6.8-6.8 6.8z"/><path d="M50 61.2c-10.5 0-19-8.2-19.5-18.6l-.9-15.3 3.4-.2.9 15.3c.4 8.6 7.5 15.4 16.1 15.4S65.7 51 66.1 42.4l.9-15.3 3.4.2-.9 15.3C69 53 60.5 61.2 50 61.2z"/><path d="M47.9 49.3h-1.3v-3.4h1.3c2.2 0 4.5-.5 6.4-1.5l1.5 3c-2.4 1.3-5.1 1.9-7.9 1.9z" fill="#e21303"/><circle cx="39.8" cy="32.3" r="3.4"/><path d="M67.6 30.2L50 15.8 32.4 30.2l-2.2-2.6 18.7-15.3c.6-.5 1.5-.5 2.2 0l18.7 15.3-2.2 2.6z"/><path d="M31.3 40.8h-1.7c-3.8 0-6.8-3-6.8-6.8s3-6.8 6.8-6.8h1.7v3.4h-1.7c-1.9 0-3.4 1.5-3.4 3.4s1.5 3.4 3.4 3.4h1.7v3.4z"/><path d="M75.5 30.6h-3.4v-5.1c0-12.2-9.9-22.1-22.1-22.1s-22.1 9.9-22.1 22.1v5.1h-3.4v-5.1C24.5 11.4 35.9 0 50 0s25.5 11.4 25.5 25.5v5.1zM15.3 77.3c-2.1-.9-3.8-2.5-4.9-4.5-1.3-2.4-1.6-5.1-.8-7.8.6-1.9 1.7-3.6 3.2-4.9-1-1.4-1.6-3.1-1.8-4.9-.4-4.8 2.6-9.2 7-10.6-.2-.7-.3-1.4-.3-2.1 0-4.7 3.8-8.5 8.5-8.5v3.4c-2.8 0-5.1 2.3-5.1 5.1 0 .9.3 1.7.7 2.5.3.5.3 1.1.1 1.7-.3.5-.8.9-1.4.9-3.7.3-6.5 3.6-6.2 7.4.1 1.6.9 3.2 2.1 4.3.4.4.6.9.5 1.5-.1.5-.4 1-.9 1.3-1.6.9-2.8 2.3-3.3 4.1s-.3 3.6.6 5.2c.7 1.3 1.9 2.4 3.3 3l-1.3 2.9zm69.4 0l-1.3-3.1c1.4-.6 2.6-1.7 3.3-3 1.8-3.3.6-7.4-2.7-9.2-.5-.3-.8-.7-.9-1.3-.1-.5.1-1.1.5-1.5 1.2-1.1 1.9-2.7 2.1-4.3.3-3.7-2.4-7-6.2-7.4-.6-.1-1.1-.4-1.4-.9-.3-.5-.2-1.1.1-1.7.5-.8.7-1.6.7-2.5 0-2.8-2.3-5.1-5.1-5.1V34c4.7 0 8.5 3.8 8.5 8.5 0 .7-.1 1.5-.3 2.2 4.4 1.4 7.5 5.8 7 10.6-.2 1.8-.8 3.5-1.8 4.9 3.6 3.1 4.7 8.4 2.4 12.7-1.1 2-2.8 3.6-4.9 4.4z"/><path d="M85.7 91.8V80.4c0-5.2-3.8-9.5-8.9-10.1L65 68.8l-.7 1.7C60.9 78.3 51.8 82 44 78.6c-3.6-1.6-6.5-4.5-8.1-8.1l-.9-1.7-11.8 1.5c-5.1.6-9 5-8.9 10.2v11.4h71.4z" fill="#a15d30"/><path d="M21.1 91.8V71.4c-5.1 1.7-6.8 5.1-6.8 10.1v10.4h6.8z" fill="#8f4f24"/><path d="M16 91.8V80.4c0-4.3 3.2-8 7.5-8.5L34 70.6l.3.6c2.7 6.3 8.9 10.4 15.8 10.4s13.1-4.1 15.8-10.4l.2-.5L76.6 72c4.3.5 7.5 4.2 7.5 8.5v11.3h3.4V80.5c0-6-4.4-11.2-10.4-11.9l-15.3-1.9c-.9-.1-1.5-.8-1.5-1.7v-7.2h-3.4V65c0 2.6 1.9 4.8 4.5 5.1l1.2.2c-2.3 4.9-7.1 8-12.5 8s-10.3-3.2-12.5-8l1.3-.2c2.6-.3 4.5-2.5 4.5-5.1v-7.1H40V65c0 .9-.6 1.6-1.5 1.7L23 68.5c-6 .7-10.5 5.9-10.4 11.9v11.4H16z"/></svg>