<svg id="Capa_1" xmlns="http://www.w3.org/2000/svg" viewBox="0 0 100 92"><style>.st26{fill:#cc8a71}.st29{fill:#a85e47}</style><path d="M85.6 92v-8.8c0-6.8-5-12.6-11.8-13.5L61.6 68 50 74.7l-11.6-6.6-12.3 1.7c-6.7.9-11.7 6.6-11.8 13.4V92h71.3z" fill="#dbdbdb"/><path d="M21.1 92V71.4c-4.2 2.4-6.8 6.9-6.8 11.7V92h6.8z" fill="#bfbfbf"/><path fill="#2e6aa3" d="M45.8 92h8.4l-.8-8.8 1.7-5.1-5.1-3.4-5.1 3.4 1.7 5.1z"/><path class="st26" d="M68.7 30.6H67v10.2h1.7c2.8 0 5.1-2.3 5.1-5.1 0-2.9-2.3-5.1-5.1-5.1zm-42.5 5c0 2.8 2.3 5.1 5.1 5.1H33V30.6h-1.7c-2.8 0-5.1 2.2-5.1 5z"/><path d="M68.7 30.6l2-10.3c.7-3.9-2-7.6-5.9-8.3-.4-.1-.8-.1-1.2-.1-1-3-3.9-5.1-7.1-5.1H36.4L33 1.7l-1.7 1.7c-4.7 4.7-4.7 12.3 0 17h30.6l6.8 10.2z" fill="#161616"/><path class="st26" d="M61.6 68.1l-1.4-.2V56H39.8v11.9l-1.4.2L50 74.7z"/><path d="M39.8 81.5L50 74.7l-10.2-6.8h-3.4zM50 74.7l10.2 6.8 3.4-13.6h-3.4z" fill="#eaeaea"/><path class="st29" d="M60.2 65.4V56H39.8v9.4c7.7 3.3 12.7 3.3 20.4 0z"/><path class="st26" d="M68.7 30.6v9.7c0 4.8-1.2 9.5-3.5 13.7-3.1 5.5-8.8 8.9-15.1 8.9-6.3 0-12.1-3.4-15.1-8.9-2.3-4.2-3.5-8.9-3.5-13.7V20.4h30.6l6.6 10.2z"/><path class="st29" d="M38.1 20.4h-6.8v19.9c0 4.8 1.2 9.5 3.5 13.7 1.7 3 4.3 5.5 7.4 7-5.8-16.9-4.1-40.6-4.1-40.6z"/><path d="M28.2 9c-1 4.1.2 8.4 3.2 11.3h27.2c-19.4.1-27.3-6.7-30.4-11.3z" fill="#282828"/><path d="M68.7 42.4H67V39h1.7c1.9 0 3.4-1.5 3.4-3.4s-1.5-3.4-3.4-3.4H67v-3.4h1.7c3.7 0 6.8 3 6.8 6.8s-3.1 6.8-6.8 6.8zm-35.7 0h-1.7c-3.7 0-6.8-3-6.8-6.8s3-6.8 6.8-6.8H33v3.4h-1.7c-1.9 0-3.4 1.5-3.4 3.4s1.5 3.4 3.4 3.4H33v3.4zm18.7 3.4h-5.1c-.5 0-1-.2-1.4-.7-.3-.4-.4-1-.3-1.5l3.4-11.9 3.3.9-2.8 9.7h2.8l.1 3.5z"/><path d="M50 64.5c-6.9 0-13.3-3.7-16.6-9.8-2.5-4.4-3.8-9.4-3.8-14.5V20.4c0-.9.8-1.7 1.7-1.7h30.6c.6 0 1.1.3 1.4.8l6.8 10.2c.2.3.3.6.3.9v9.7c0 5.1-1.3 10.1-3.8 14.5-3.3 6-9.7 9.7-16.6 9.7zm0-3.4c5.7 0 10.9-3.1 13.6-8 2.2-3.9 3.3-8.4 3.3-12.9V31l-6-9H33v18.2c0 4.5 1.2 8.9 3.3 12.9 2.8 4.9 8 8 13.7 8z"/><path d="M48.6 52.6h-2v-3.4h2c2.6 0 5.1-1 7-2.9l2.4 2.4c-2.5 2.5-5.9 3.9-9.4 3.9z"/><circle cx="39.8" cy="33.9" r="3.4"/><circle cx="60.2" cy="33.9" r="3.4"/><path d="M70.3 32.5L67 32l2-12c.2-1.4-.1-2.9-.9-4.1-.9-1.2-2.1-2-3.6-2.2-.3-.1-.6-.1-.9-.1-.7 0-1.4-.5-1.6-1.2-.8-2.4-3-3.9-5.5-3.9H36.4c-.6 0-1.1-.3-1.4-.8l-2.2-3.4-.2.2c-1.9 1.9-3 4.5-3 7.3s1.1 5.3 3 7.3l-2.4 2.4c-5.3-5.3-5.3-14 0-19.4L31.9.4c.3-.3.8-.4 1.3-.4s1 .3 1.2.7L37.3 5h19.2c3.5 0 6.7 2 8.2 5.2h.3c2.3.4 4.4 1.7 5.8 3.6s1.9 4.3 1.5 6.6l-2 12.1zM39.8 83.2c-.2 0-.4 0-.6-.1-.5-.2-.9-.6-1-1.2l-3.4-13.6 3.3-.8 2.8 11.2 8.2-5.5L51 76l-10.2 6.8c-.3.3-.7.4-1 .4z"/><path d="M50 76.4c-.3 0-.6-.1-.8-.2l-11.9-6.8 1.7-2.9 11 6.3 11-6.3 1.7 2.9-11.9 6.8c-.2.1-.5.2-.8.2z"/><path d="M60.2 83.2c-.3 0-.7-.1-.9-.3l-10.2-6.8 1.9-2.8 8.2 5.5L62 67.6l3.3.8L61.9 82c-.1.5-.5 1-1 1.2-.3-.1-.5 0-.7 0z"/><path d="M70.4 88.3h3.4V92h-3.4zM60 69.6l13.7 1.8c5.9.8 10.3 5.8 10.3 11.8V92h3.4v-8.8c0-7.6-5.7-14.1-13.3-15.1l-12.2-1.6v-7h-3.4V68c0 .7.6 1.5 1.5 1.6zM16.1 92v-8.8c0-5.9 4.4-11 10.3-11.8L40 69.6c.8-.1 1.5-.8 1.5-1.7v-8.5h-3.4v7L25.9 68c-7.6 1-13.3 7.5-13.3 15.1V92h3.5zm28 0h3.4l.7-7.1h3.6l.7 7.1h3.4l-.8-8.6 1.6-4.8-3.2-1.1-1.3 4h-4.4l-1.3-4-3.2 1.1 1.6 4.8zm-17.9-3.7h3.4V92h-3.4z"/></svg>