<svg width="29" height="28" xmlns="http://www.w3.org/2000/svg"><path d="M22.268 24.288H20.44v-.04H10.355a4.28 4.28 0 0 1-4.23-3.623l-.777-3.739a1.406 1.406 0 0 0-.029-.246l-1.037-4.884-.96-4.626H3.3l-.522-2.46a1.404 1.404 0 1 0-2.747.583l1.465 6.904 1.818 8.89a7.128 7.128 0 0 0 7.048 6.055H20.44v-.006h1.828a1.404 1.404 0 1 0 0-2.808zM5.255 5.19A2.85 2.85 0 1 0 8.522.518a2.85 2.85 0 0 0-3.974.699 2.858 2.858 0 0 0 .707 3.973zm15.514 13.353h-6.962l-1.462-5.85c2.246 1.27 4.679 2.205 7.347 1.741v-3.031c-2.326.435-4.908-.393-6.691-1.777L10.654 7.8a3.262 3.262 0 0 0-1.091-.542 3.244 3.244 0 0 0-1.412-.085l-.036.007a3.21 3.21 0 0 0-2.61 3.716l1.932 8.445a4.28 4.28 0 0 0 4.202 3.481h9.772l5.45 4.28L29 24.962l-8.231-6.42z" fill="#333" fill-rule="evenodd"/></svg>