<svg width="595" height="95" xmlns="http://www.w3.org/2000/svg"><g fill="none" fill-rule="evenodd" opacity=".342"><path d="M380.451 64.548c.384 1.213.656 2.038.664 2.063a.555.555 0 0 1 .028.174v10.584h.542c.182-1.407 1.4-2.52 2.921-2.66a.587.587 0 1 1 .643 0c.808.074 1.53.423 2.057.945a7.042 7.042 0 0 1 2.024-.468v-3.391a.563.563 0 0 1 1.127 0v3.391c.54.043 1.063.148 1.563.305V56.718c0-.246-.281-.446-.628-.446h-2.342v-1.374c0-.247-.281-.447-.628-.447h-6.132c-.347 0-.628.2-.628.447v1.374h-1.536c.32 3.877.327 7.615.325 8.276m-24.224 1.862v1.263l-1.07-.424v1.136h.56c.311 0 .564.253.564.564v.922h5.019l-.96-8.121a.555.555 0 0 1 .55-.621h2.156v-1.208a4.786 4.786 0 0 0-3.39-2.09v-3.389a.583.583 0 0 0-1.167 0v3.388a4.784 4.784 0 0 0-3.331 2.006v5.474a4.82 4.82 0 0 0 1.069 1.1m176.167-3.141v1.172h6.487c.307 0 .555.249.555.556v8.31c.108-.04.217-.077.326-.112V62.861h-5.766v-1.19a.564.564 0 0 0-.395-.538l-7.606-2.369a.565.565 0 0 0-.731.538v1.337l6.74 2.1c.231.071.39.286.39.53m7.185 28.106l-.143.218v.154h.326v-.311a8.508 8.508 0 0 1-.183-.06m6.477.371l-.255-.383a9.498 9.498 0 0 1-1.485.383h1.74m2.16-1.63l.21.314v-.468a8.44 8.44 0 0 1-.21.154m-8.454 1.63h1.269a9.522 9.522 0 0 1-1.269-.311v.311" fill="#787975"/><path d="M542.674 72.742c2.156 0 4.149.718 5.751 1.926V52.64l-8.004-1.364a.564.564 0 0 0-.659.556v21.363a9.542 9.542 0 0 1 2.912-.453m-38.54-13.746c.307 0 .555.248.555.555v28.542c.05-.001.1-.004.148-.004h.058c.152.003.305.012.459.03.284-.4.629-.743 1.014-1.02v-15.42a.556.556 0 0 1 .747-.521l1.811.662v-2.014a.557.557 0 0 1 .76-.517l1.897.753v-1.203a4.548 4.548 0 0 1 2.155-8.172v-3.226a.555.555 0 1 1 1.11 0v3.226c.067.009.134.018.2.03V47.901a.564.564 0 0 0-.563-.563h-2.1v-1.733a.564.564 0 0 0-.564-.563h-5.498a.564.564 0 0 0-.563.563v1.733h-2.272a.563.563 0 0 0-.563.563v9.883l.279 1.21h.93M390.457 71.795a.563.563 0 0 0-1.127 0v3.391a7.042 7.042 0 0 0-2.024.468c.466.46.779 1.055.865 1.715h.833c.307 0 .555.248.555.555v4.738h2.005c.312 0 .564.252.564.563v.7h8.799c.306 0 .555.25.555.556v8.839h.343a.56.56 0 0 0 .224-.047h.348a100.781 100.781 0 0 1-.1-6.7v-.013c.019-1.068.057-2.207.12-3.383.369-6.756 1.415-11.934 3.115-15.436h-1.082a.555.555 0 0 1 0-1.111h1.676c.099-.167.199-.33.301-.488.12-.185.238-.365.356-.543a3.331 3.331 0 0 0-2.29-1.571V59.02a.564.564 0 0 0-1.126 0v5.007a3.323 3.323 0 1 0-1.289 6.034h-.58a.563.563 0 0 0-.564.563v9.122h-.747a.564.564 0 0 0-.522.776l.713 1.75h-3.394v-.021c0-3.169-2.09-5.856-4.964-6.761a7.044 7.044 0 0 0-1.563-.305v-3.391m50.468 2.159v7.95h.497v-7.089c0-.307.249-.555.555-.555h.558V56.12l-.102-.443a.532.532 0 0 0-.518-.412h-4.046a.532.532 0 0 0-.518.412l-.85 3.686h-5.252a.532.532 0 0 0-.531.532v13.502h9.651c.307 0 .556.248.556.555m134.389-18.164v17.893h6.61V65.35c0-.06-.01-.12-.03-.177-.024-.077-2.564-7.783-3.192-11.098-.648-3.42-2.328-7.013-2.4-7.165a.563.563 0 0 0-.921-.143l-2.784 2.998a.562.562 0 0 0-.15.383v4.683l2.406.41a.555.555 0 0 1 .461.547M371.255 93.32h.546V76.01h-.546a.56.56 0 0 0-.274.072v17.166a.561.561 0 0 0 .274.072" fill="#787975"/><path d="M392.128 83.926v-.7a.563.563 0 0 0-.564-.564h-2.005v1.264h2.569M356.28 68.949a.563.563 0 0 0-.563-.564h-.56v1.486h1.124v-.922m105.165 12.138a.556.556 0 0 1 .505.786l-.78 1.704h4.032v-.02a6.95 6.95 0 0 1 1.254-3.99v-6.896a.563.563 0 0 0-.563-.563h-4.954v8.979h.506m17.736 2.469v.021h3.345l-.702-1.726a.556.556 0 0 1 .514-.764h.737v-8.992c0-.307.248-.556.555-.556h.572a3.276 3.276 0 0 1-1.45-2.719 3.282 3.282 0 0 1 2.72-3.229v-2.9h-2.993l.003-.461v-9.527a.564.564 0 0 0-1.127 0v3.44c-.896.087-2.756.55-4.305 2.796-2.098 3.042-1.673 9.468-1.637 9.97v8.448a6.994 6.994 0 0 1 3.768 6.2m9.139-12.017v-.382c-.143.14-.298.269-.466.381h.466m.662 21.781h1.093v-4.508h-1.093zM342.456 65.184h-8.113c-.311 0-.564.335-.564.748v7.624h8.677v-8.372m218.719 21.337V72.234h-.798v14.102c.272.034.54.097.798.185" fill="#787975"/><path d="M413.002 59.815c-.725.458-2.395 1.952-5.567 6.815h5.567v-6.815m-9.597 27.309a98.732 98.732 0 0 0 .11 6.232h9.487v-6.232h-9.597m9.597-1.111V77.56h-8.944c-.394 2.907-.569 5.867-.632 8.454h9.576m0-9.566v-8.707h-6.224c-1.249 2.36-2.051 5.465-2.559 8.707h8.783" fill="#D9D9D3"/><path d="M413.557 87.124h-.555v6.232h1.11v-6.787a.555.555 0 0 1-.555.555m0-9.565h-.555v8.454h.555c.307 0 .556.249.556.556v-9.566a.555.555 0 0 1-.556.556m-7.431-10.929h1.309c3.172-4.863 4.842-6.357 5.567-6.815v6.815h1.11v-7.557a.555.555 0 1 1-1.11 0v-.485c-1.35.467-3.479 2.864-6.22 7.011-.117.178-.236.358-.355.543-.102.157-.202.32-.3.488m-3.275 19.383h.574c.063-2.587.238-5.547.632-8.454h-.489a.555.555 0 0 1 0-1.111h.65c.508-3.242 1.31-6.347 2.559-8.707h-1.246c-1.7 3.502-2.746 8.68-3.114 15.436a93.004 93.004 0 0 0-.121 3.383.555.555 0 0 1 .555-.547m10.15-18.273v8.708h.555c.307 0 .556.249.556.555v-9.262h-1.111m-9.597 19.383h-.553a.555.555 0 0 1-.555-.552 100.781 100.781 0 0 0 .105 6.784h1.112a98.732 98.732 0 0 1-.109-6.232m9.597-20.494h-8.552a.555.555 0 0 0 0 1.11h11.444a.555.555 0 1 0 0-1.11h-2.892" fill="#4B4B48"/><path d="M413.557 86.013h-10.705a.555.555 0 0 0-.555.547v.012c.002.305.25.552.555.552h10.705a.555.555 0 1 0 0-1.11m0-9.566h-9.988a.555.555 0 0 0 0 1.11h9.988a.555.555 0 1 0 0-1.11m0-16.819a.555.555 0 0 0 .556-.556v-3.669a.555.555 0 1 0-1.111 0v3.67c0 .306.248.555.555.555" fill="#4B4B48"/><path fill="#D9D9D3" d="M519.482 72.931v20.425h1.25V72.474l-1.25.457"/><path d="M519.482 72.931l1.25-.457v20.882h1.11V71.679a.553.553 0 0 0-.746-.521l-1.614.59v1.183" fill="#4B4B48"/><path d="M507.48 72.474v14.05a4.002 4.002 0 0 1 1.446-.213V73.003l-1.447-.53" fill="#D9D9D3"/><path d="M507.48 86.523v-14.05l1.446.53V71.82l-1.811-.662a.556.556 0 0 0-.747.521V87.1a4.27 4.27 0 0 1 1.111-.576" fill="#4B4B48"/><path d="M514.204 71.082l1.511-.6v-.974a4.54 4.54 0 0 1-3.021-.062v1.036l1.51.6" fill="#D9D9D3"/><path d="M515.715 69.508v.974l1.11-.44v-1.077a4.554 4.554 0 0 1-1.11.543m-3.021.974v-1.036c-.4-.15-.774-.356-1.111-.607v1.203l1.11.44" fill="#4B4B48"/><path d="M510.037 70.623v15.888c2.053.675 3.342 2.908 2.92 5.196-.042.22-.098.437-.168.649.334.248.624.555.86.909V72.056l-3.612-1.433" fill="#D9D9D3"/><path d="M508.926 73.003v13.308a4.074 4.074 0 0 1 1.111.2V70.623l3.612 1.433v-.377c0-.228.138-.432.35-.516l.205-.081-2.621-1.04-1.896-.753a.556.556 0 0 0-.76.517v3.197" fill="#4B4B48"/><path fill="#D9D9D3" d="M518.37 70.623l-3.61 1.433v21.3h3.61V70.623"/><path d="M515.715 70.482l-1.51.6-.206.08a.555.555 0 0 0-.35.517v21.586l.058.09h1.053V72.057l3.61-1.433v22.733h1.112v-23.55a.555.555 0 0 0-.76-.517l-1.896.753-1.11.44" fill="#4B4B48"/><path d="M510.852 65.184a3.445 3.445 0 0 0 3.441 3.442 3.445 3.445 0 0 0 3.442-3.442 3.445 3.445 0 0 0-3.442-3.44 3.445 3.445 0 0 0-3.441 3.44" fill="#D9D9D3"/><path d="M514.849 61.188a.555.555 0 0 1-.556.555 3.445 3.445 0 0 1 3.442 3.441 3.445 3.445 0 0 1-3.442 3.442 3.445 3.445 0 0 1-3.441-3.442 3.445 3.445 0 0 1 3.441-3.44.555.555 0 0 1-.555-.556v-.52a4.548 4.548 0 1 0-1.044 8.778 4.527 4.527 0 0 0 3.021.062 4.552 4.552 0 0 0 3.13-4.324 4.559 4.559 0 0 0-3.996-4.517v.52" fill="#4B4B48"/><path d="M514.293 61.743a.555.555 0 0 0 .556-.555V57.44a.555.555 0 1 0-1.111 0v3.747c0 .306.248.555.555.555" fill="#4B4B48"/><path d="M527.875 89.378V64.997c0-.307.248-.556.555-.556h2.853v-.764l-6.387-1.99v31.669h2.979v-3.978" fill="#D9D9D3"/><path d="M524.896 93.356V61.688l6.387 1.99v.763h1.11V63.27a.556.556 0 0 0-.39-.53l-6.74-2.1-.757-.236a.556.556 0 0 0-.72.53v32.423h1.11" fill="#4B4B48"/><path d="M537.093 90.09a9.643 9.643 0 0 1-2.608-2.819h-5.5v1.552h6.26a.555.555 0 1 1 0 1.11h-6.26v3.423h5.907l2.201-3.267m-8.107-5.48v1.551h4.922a9.45 9.45 0 0 1-.53-1.551h-4.392m0-7.987v1.551h5.058c.263-.548.58-1.067.939-1.551h-5.997m0 5.324v1.552h4.187a9.524 9.524 0 0 1-.065-1.552h-4.122m0-2.662v1.552h4.229c.083-.533.21-1.052.377-1.552h-4.606m6.26-11.76a.555.555 0 1 1 0 1.11h-6.26v1.552h6.26a.555.555 0 1 1 0 1.111h-6.26v1.552h6.26a.555.555 0 1 1 0 1.11h-6.26v1.552h6.26c.192 0 .361.097.461.246a9.632 9.632 0 0 1 2.618-1.97v-8.235h-9.34v1.972h6.26" fill="#D9D9D3"/><path fill="#4B4B48" d="M539.335 91.747h.109v-.154l-.109.154M528.43 75.51h.556v-1.55h-.556a.555.555 0 0 1-.555-.556v2.662c0-.306.248-.555.555-.555m0-2.662h.556v-1.552h-.556a.555.555 0 0 1-.555-.555v2.662c0-.307.248-.555.555-.555"/><path d="M528.43 78.173h.556v-1.551h-.556a.555.555 0 0 1-.555-.556v2.663c0-.307.248-.556.555-.556m0 7.987h.556v-1.55h-.556a.555.555 0 0 1-.555-.556v2.663c0-.307.248-.556.555-.556" fill="#4B4B48"/><path d="M528.43 87.271a.555.555 0 0 1-.555-.555v2.662c0-.307.248-.555.555-.555h.556V87.27h-.556m0-6.434h.556v-1.552h-.556a.555.555 0 0 1-.555-.555v2.662c0-.307.248-.555.555-.555m0 2.662h.556v-1.552h-.556a.555.555 0 0 1-.555-.555v2.662c0-.306.248-.555.555-.555m-.555-18.501v3.082c0-.306.248-.555.555-.555h.556v-1.972h9.34v8.236a9.612 9.612 0 0 1 1.11-.482v-8.31a.555.555 0 0 0-.555-.555h-10.45a.555.555 0 0 0-.556.556" fill="#4B4B48"/><path d="M528.43 70.186h.556v-1.551h-.556a.555.555 0 0 1-.555-.556v2.663c0-.307.248-.556.555-.556m.556 19.747h-.556a.555.555 0 0 1-.555-.555v3.978h1.11v-3.423" fill="#4B4B48"/><path d="M528.43 68.635h6.816a.555.555 0 1 0 0-1.111h-6.816a.555.555 0 1 0 0 1.11m0 2.663h6.816a.555.555 0 1 0 0-1.11h-6.816a.555.555 0 1 0 0 1.11m0 2.663h6.816a.555.555 0 1 0 0-1.111h-6.816a.555.555 0 1 0 0 1.11m0 2.663h6.553c.224-.303.466-.592.724-.865a.555.555 0 0 0-.461-.246h-6.816a.555.555 0 1 0 0 1.11m0 2.663h5.162c.129-.381.28-.752.452-1.11h-5.614a.555.555 0 1 0 0 1.11m0 2.662h4.678a9.8 9.8 0 0 1 .107-1.11h-4.785a.555.555 0 1 0 0 1.11m0 2.663h4.948a9.59 9.59 0 0 1-.205-1.111h-4.743a.555.555 0 1 0 0 1.11m.556 1.552h-.556a.555.555 0 1 0 0 1.111h6.055a9.476 9.476 0 0 1-.577-1.11h-4.922m-.556 2.662a.555.555 0 1 0 0 1.11h6.816a.555.555 0 1 0 0-1.11h-6.816M320.36 93.28a.63.63 0 1 0 0 1.261.63.63 0 0 0 0-1.26" fill="#4B4B48"/><path fill="#D9D9D3" d="M562.286 76.78h11.917v-2.182h-11.917zm0 9.878h11.917v-2.182h-11.917zm0-6.586h11.917V77.89h-11.917zm0-6.585h11.917v-2.182h-11.917zm.731 14.282c.097.111.19.227.277.35.15-.018.301-.027.45-.03h.058c1.49 0 2.833.725 3.735 1.862h6.666V87.77h-11.186m-.731-4.405h11.917v-2.182h-11.917zm0-29.138v6.088h11.917v-4.058l-11.917-2.03m0 9.381h11.917v-2.182h-11.917zm0 3.292h11.917v-2.18h-11.917zm0 3.294h11.917v-2.182h-11.917zm11.917 20.868h-5.99c.302.667.477 1.41.487 2.196l-.001.098h5.504v-2.294"/><path d="M561.73 66.9h.556v-2.18h-.556a.556.556 0 0 1-.555-.556v3.293c0-.306.25-.555.555-.555" fill="#4B4B48"/><path d="M561.73 70.194h.556v-2.182h-.556a.556.556 0 0 1-.555-.556v3.293c0-.307.25-.555.555-.555m0-9.879h.556v-6.088l11.917 2.03v4.058h.556c.307 0 .555.249.555.556v-5.083a.555.555 0 0 0-.461-.547l-13.029-2.22a.554.554 0 0 0-.649.548v7.302c0-.307.25-.556.555-.556" fill="#4B4B48"/><path d="M561.73 63.608h.556v-2.182h-.556a.556.556 0 0 1-.555-.555v3.292c0-.306.25-.555.555-.555m13.029-2.182h-.556v2.182h.556c.307 0 .555.249.555.555v-3.292a.555.555 0 0 1-.555.555" fill="#4B4B48"/><path d="M574.759 64.719h-.556V66.9h.556c.307 0 .555.249.555.555v-3.293a.555.555 0 0 1-.555.556m0 3.294h-.556v2.182h.556c.307 0 .555.248.555.555v-3.293a.555.555 0 0 1-.555.556m-13.029 5.475h.556v-2.182h-.556a.556.556 0 0 1-.555-.556v3.293c0-.306.25-.555.555-.555m0 13.171h.556v-2.182h-.556a.556.556 0 0 1-.555-.555v2.6c.136.047.27.1.4.16a.553.553 0 0 1 .155-.023m0-9.878h.556v-2.182h-.556a.556.556 0 0 1-.555-.556v3.293c0-.307.25-.555.555-.555m0 6.585h.556v-2.182h-.556a.556.556 0 0 1-.555-.555v3.293c0-.307.25-.556.555-.556" fill="#4B4B48"/><path d="M561.73 80.072h.556V77.89h-.556a.556.556 0 0 1-.555-.555v3.293c0-.307.25-.556.555-.556m13.029-6.585a.55.55 0 0 1 .42.194h.135v-2.932a.555.555 0 0 1-.555.556h-.556v2.182h.556M561.73 61.426h13.029a.555.555 0 1 0 0-1.11H561.73a.556.556 0 0 0 0 1.11m0 3.293h13.029a.555.555 0 1 0 0-1.11H561.73a.556.556 0 0 0 0 1.11m0 3.293h13.029a.555.555 0 1 0 0-1.111H561.73a.556.556 0 0 0 0 1.11" fill="#4B4B48"/><path d="M561.73 71.305h13.029a.555.555 0 1 0 0-1.111H561.73a.556.556 0 0 0 0 1.11m0 3.294h12.473v-.362c0-.307.25-.555.556-.555h.42a.554.554 0 0 0-.42-.194H561.73a.556.556 0 0 0 0 1.11m0 3.293h12.473v-1.11H561.73a.556.556 0 0 0 0 1.11m0 3.293h12.473v-1.11H561.73a.556.556 0 0 0 0 1.11m0 3.293h12.473v-1.11H561.73a.556.556 0 0 0 0 1.11m.556 2.182h-.556a.553.553 0 0 0-.154.023 4.309 4.309 0 0 1 1.44 1.088h11.187v-1.11h-11.917m5.251 3.292c.266.337.494.71.676 1.111h5.99v-1.11h-6.666" fill="#4B4B48"/><path d="M552.586 53.253c0 .306-.25.555-.556.555h-2.494v1.938h2.494a.556.556 0 0 1 0 1.11h-2.494v1.94h2.494a.556.556 0 0 1 0 1.11h-2.494v1.938h2.494a.556.556 0 0 1 0 1.11h-2.494v1.939h2.494a.556.556 0 0 1 0 1.11h-2.494v1.939h2.494a.556.556 0 0 1 0 1.11h-2.494v1.938h2.494a.556.556 0 0 1 0 1.111h-2.494v1.938h2.494a.556.556 0 0 1 0 1.111h-2.494v.498c.43.442.816.923 1.153 1.44h1.341a.556.556 0 0 1 0 1.11h-.715c.294.614.523 1.263.682 1.939h.033a.556.556 0 0 1 .155 1.089 9.445 9.445 0 0 1 .02 1.989.555.555 0 0 1-.165 1.081 9.43 9.43 0 0 1-.52 1.678h7.746v-1.677h-2.747a.555.555 0 1 1 0-1.111h2.747v-1.938h-2.747a.555.555 0 1 1 0-1.111h2.747v-1.938h-2.747a.555.555 0 1 1 0-1.11h2.747V75.15h-2.747a.555.555 0 1 1 0-1.11h2.747V72.1h-2.747a.555.555 0 1 1 0-1.11h2.747v-1.939h-2.747a.555.555 0 1 1 0-1.11h2.747v-1.938h-2.747a.555.555 0 1 1 0-1.111h2.747v-1.938h-2.747a.555.555 0 1 1 0-1.111h2.747v-1.938h-2.747a.555.555 0 1 1 0-1.11h2.747v-1.94h-2.747a.555.555 0 1 1 0-1.11h2.747v-1.938h-2.747a.555.555 0 1 1 0-1.11h2.747V50.25h-9.73v2.446h2.494c.306 0 .556.25.556.556m3.319 39.105a4.752 4.752 0 0 1-.167-.651l-.005-.03h-6.197v.422l.84 1.258h4.618c.244-.392.551-.73.91-1m-6.368-2.976v1.185h6.13c.023-.408.099-.806.22-1.185h-6.35m1.436-2.295c-.24.416-.51.811-.808 1.185h6.244a4.414 4.414 0 0 1 1.114-1.185h-6.55" fill="#D9D9D3"/><path d="M557.196 50.251h2.07v2.446h.301a.555.555 0 1 1 0 1.111h-.3v1.938h.3a.555.555 0 1 1 0 1.11h-.3v1.94h.3a.555.555 0 1 1 0 1.11h-.3v1.938h.3a.555.555 0 1 1 0 1.11h-.3v1.939h.3a.555.555 0 1 1 0 1.11h-.3v1.939h.3a.555.555 0 1 1 0 1.11h-.3v1.938h.3a.555.555 0 1 1 0 1.111h-.3v1.938h.3a.555.555 0 1 1 0 1.111h-.3v1.938h.3a.555.555 0 1 1 0 1.11h-.3v1.939h.3a.555.555 0 1 1 0 1.11h-.3v1.939h.3a.555.555 0 1 1 0 1.11h-.3v1.678h.555c.237 0 .44.15.519.359l.036.003v-36.64a.556.556 0 0 0-.555-.556h-2.07v.556a.555.555 0 0 1-.556.555M548.98 70.99h.556v-1.938h-.555a.556.556 0 0 1-.556-.555v3.049c0-.307.25-.556.556-.556m-.556 3.605v.078l.008.005a.535.535 0 0 1-.008-.083m.555-12.751h.556v-1.938h-.555a.556.556 0 0 1-.556-.555v3.048c0-.306.25-.555.556-.555" fill="#4B4B48"/><path d="M548.98 67.942h.556v-1.938h-.555a.556.556 0 0 1-.556-.556v3.049c0-.307.25-.555.556-.555m-.001-9.147h.556v-1.938h-.555a.556.556 0 0 1-.556-.555v3.049c0-.307.25-.556.556-.556m.555 31.77V89.38h-.409a9.35 9.35 0 0 1-.702.583v.468l.185.277a.554.554 0 0 1 .37-.143h.556m-.556-16.525h.556V72.1h-.555a.556.556 0 0 1-.556-.555v3.049c0-.307.25-.556.556-.556m-.001-21.341h.556v-2.446h2.24a.555.555 0 0 1-.556-.555v-.556h-2.24a.556.556 0 0 0-.555.556v3.557c0-.307.25-.556.556-.556" fill="#4B4B48"/><path d="M548.98 55.746h.556v-1.938h-.555a.556.556 0 0 1-.556-.555v3.049c0-.307.25-.556.556-.556m-.001 9.147h.556v-1.938h-.555a.556.556 0 0 1-.556-.556v3.05c0-.308.25-.556.556-.556m.034 10.257c.18.16.353.326.521.498v-.498h-.52m.52 16.948v-.422h-.28l.28.422" fill="#4B4B48"/><path d="M548.98 53.808h3.05a.556.556 0 0 0 0-1.11h-3.05a.556.556 0 0 0 0 1.11m6.983-.555c0 .306.249.555.556.555h3.048a.555.555 0 1 0 0-1.11h-3.048a.555.555 0 0 0-.556.555m-6.983 3.604h3.05a.556.556 0 0 0 0-1.11h-3.05a.556.556 0 0 0 0 1.11m6.983-.555c0 .306.249.555.556.555h3.048a.555.555 0 1 0 0-1.11h-3.048a.555.555 0 0 0-.556.555m-6.983 3.604h3.05a.556.556 0 0 0 0-1.11h-3.05a.556.556 0 0 0 0 1.11m6.983-.556c0 .307.249.556.556.556h3.048a.555.555 0 1 0 0-1.11h-3.048a.555.555 0 0 0-.556.555m-6.983 3.604h3.05a.556.556 0 0 0 0-1.111h-3.05a.556.556 0 0 0 0 1.11m6.983-.554c0 .306.249.555.556.555h3.048a.555.555 0 1 0 0-1.111h-3.048a.555.555 0 0 0-.556.555m-6.983 3.605h3.05a.556.556 0 0 0 0-1.111h-3.05a.556.556 0 0 0 0 1.11m6.983-.555c0 .307.249.556.556.556h3.048a.555.555 0 1 0 0-1.111h-3.048a.555.555 0 0 0-.556.555m-6.983 3.604h3.05a.556.556 0 0 0 0-1.11h-3.05a.556.556 0 0 0 0 1.11m6.983-.555c0 .307.249.555.556.555h3.048a.555.555 0 1 0 0-1.11h-3.048a.555.555 0 0 0-.556.555m-6.983 3.604h3.05a.556.556 0 0 0 0-1.11h-3.05a.556.556 0 0 0 0 1.11m6.983-.555c0 .306.249.555.556.555h3.048a.555.555 0 1 0 0-1.11h-3.048a.555.555 0 0 0-.556.555m-6.948 3.604h3.015a.556.556 0 0 0 0-1.11h-3.05a.556.556 0 0 0-.548.633c.2.151.395.31.583.477m6.948-.555c0 .306.249.555.556.555h3.048a.555.555 0 1 0 0-1.11h-3.048a.555.555 0 0 0-.556.555m-3.377 3.049a.556.556 0 0 0-.556-.556h-1.34c.232.355.442.726.625 1.11h.715a.556.556 0 0 0 .556-.554m3.377 0c0 .306.249.555.556.555h3.048a.555.555 0 1 0 0-1.11h-3.048a.555.555 0 0 0-.556.555m-3.377 3.048a.556.556 0 0 0-.556-.555h-.033c.083.356.145.719.188 1.089.231-.067.4-.28.4-.534m3.378 0c0 .307.249.556.556.556h3.048a.555.555 0 1 0 0-1.111h-3.048a.555.555 0 0 0-.556.555m-3.377 3.049a.555.555 0 0 0-.382-.527 9.536 9.536 0 0 1-.164 1.082.555.555 0 0 0 .546-.555m3.377 0c0 .307.249.556.556.556h3.048a.555.555 0 1 0 0-1.111h-3.048a.555.555 0 0 0-.556.555m-4.443 2.233a9.406 9.406 0 0 1-.548 1.111h6.55a4.068 4.068 0 0 1 2.378-.778c.148 0 .294.01.44.026a.556.556 0 0 0-.518-.359h-8.303m-1.355 2.296a9.699 9.699 0 0 1-1.037 1.11h6.759a4.72 4.72 0 0 1 .522-1.11h-6.244m-.628 2.295h-.555a.554.554 0 0 0-.37.143l.644.968h6.478a4.743 4.743 0 0 1-.066-1.11h-6.13" fill="#4B4B48"/><path fill="#D9D9D3" d="M552.331 49.14h4.31v-1.153h-4.31z"/><path d="M552.331 49.14h4.31v-1.153h-4.31v1.153zm-.555 1.111h5.42a.555.555 0 0 0 .556-.555v-2.264a.555.555 0 0 0-.556-.555h-5.42a.555.555 0 0 0-.556.555v2.264c0 .306.249.555.556.555z" fill="#4B4B48"/><path d="M542.674 90.778c.865 0 1.7-.131 2.487-.373l-2.502-3.747-2.45 3.753a8.43 8.43 0 0 0 2.465.367" fill="#D9D9D3"/><path d="M539.494 76.405a.433.433 0 1 1 0-.867.433.433 0 0 1 0 .867zm-.806.66c-.005.002-.817.482-1.771 1.892a8.43 8.43 0 0 0-1.186 2.64.556.556 0 0 1-1.086-.229c.012-.06.324-1.514 1.352-3.033 1.119-1.654 2.108-2.217 2.15-2.24a.555.555 0 0 1 .54.97zm12.449 5.25c0-4.666-3.797-8.462-8.463-8.462-4.667 0-8.463 3.796-8.463 8.463a8.453 8.453 0 0 0 3.504 6.85l4.498-6.675a.555.555 0 0 1 .46-.245h.002c.185 0 .358.094.461.248l4.463 6.697a8.455 8.455 0 0 0 3.538-6.875z" fill="#D9D9D3"/><path d="M538.325 73.788a9.632 9.632 0 0 0-4.733 5.496 9.445 9.445 0 0 0-.491 3.032 9.524 9.524 0 0 0 1.384 4.955 9.643 9.643 0 0 0 2.608 2.818l.622-.922a8.453 8.453 0 0 1-3.504-6.851c0-4.667 3.796-8.463 8.463-8.463 4.666 0 8.463 3.796 8.463 8.463a8.455 8.455 0 0 1-3.538 6.875l.617.926c.071-.05.14-.102.21-.154a9.555 9.555 0 0 0 1.738-1.693 9.503 9.503 0 0 0 2.04-5.056 9.445 9.445 0 0 0-.02-1.988 9.494 9.494 0 0 0-1.496-4.137 9.553 9.553 0 0 0-1.673-1.939 9.872 9.872 0 0 0-.583-.477l-.007-.005a9.523 9.523 0 0 0-5.751-1.926 9.542 9.542 0 0 0-4.349 1.046m6.835 16.617a8.434 8.434 0 0 1-4.951.006l-.63.964a9.522 9.522 0 0 0 1.452.372h3.285a9.498 9.498 0 0 0 1.485-.383l-.64-.96" fill="#4B4B48"/><path d="M539.494 75.537a.433.433 0 1 0 0 .867.433.433 0 0 0 0-.867m-1.347.557c-.042.024-1.031.587-2.15 2.24-1.028 1.52-1.34 2.973-1.352 3.034a.555.555 0 0 0 1.086.228c.003-.013.286-1.31 1.186-2.639.954-1.41 1.766-1.89 1.77-1.892a.555.555 0 0 0-.54-.97" fill="#4B4B48"/><path d="M537.845 91.999l4.344-6.653a.555.555 0 0 1 .927-.004l4.44 6.652a.554.554 0 0 1-.46.864h-8.787a.554.554 0 0 1-.464-.86zm4.827-8.2l-6.44 9.557h12.808l-6.368-9.557z" fill="#D9D9D3"/><path d="M549.536 92.098l-.28-.422-.83-1.245-.827-1.24-4.463-6.697a.556.556 0 0 0-.461-.248h-.001a.555.555 0 0 0-.46.245l-4.499 6.676-2.823 4.189h1.34l6.44-9.557 6.368 9.557h1.335l-.839-1.258" fill="#4B4B48"/><path d="M546.056 91.747h-6.72l.243-.372 3.08-4.717 3.142 4.706.255.383zm-7.747 1.111h8.786a.556.556 0 0 0 .462-.864l-4.441-6.652a.557.557 0 0 0-.927.004L537.845 92a.554.554 0 0 0 .464.859z" fill="#4B4B48"/><path d="M567.59 93.271c-.03-2.244-1.728-4.07-3.788-4.07h-.043a3.405 3.405 0 0 0-.63.066.555.555 0 0 1-.586-.265c-.573-.977-1.585-1.585-2.643-1.585-.2 0-.4.022-.598.063-1.704.36-2.812 2.166-2.471 4.025.053.293.141.576.261.843a.556.556 0 0 1-.238.715c-.15.083-.29.18-.42.293h11.155v-.085" fill="#D9D9D3"/><path d="M568.7 93.258a5.487 5.487 0 0 0-.487-2.196 5.35 5.35 0 0 0-.676-1.11c-.902-1.138-2.244-1.863-3.735-1.863h-.057c-.15.003-.301.012-.451.03a4.548 4.548 0 0 0-.277-.35 4.309 4.309 0 0 0-1.441-1.088 4.036 4.036 0 0 0-.401-.16 3.982 3.982 0 0 0-.798-.185l-.036-.003a3.915 3.915 0 0 0-1.268.06 4.068 4.068 0 0 0-1.551.692 4.43 4.43 0 0 0-1.114 1.185 4.725 4.725 0 0 0-.741 2.295c-.022.364 0 .737.066 1.11l.005.03c.04.222.096.44.167.652-.36.268-.667.607-.911.999h1.44c.13-.112.27-.21.42-.293a.556.556 0 0 0 .238-.715 3.66 3.66 0 0 1-.261-.843c-.341-1.859.767-3.664 2.47-4.025.199-.041.4-.063.599-.063 1.058 0 2.07.608 2.643 1.585.12.204.354.31.586.265.211-.042.423-.064.63-.066h.043c2.06 0 3.759 1.826 3.787 4.07v.085h1.11l.001-.098" fill="#4B4B48"/><path d="M478.071 83.577v-.02a5.885 5.885 0 0 0-5.879-5.88 5.885 5.885 0 0 0-5.878 5.88v.02h11.757" fill="#D9D9D3"/><path d="M472.192 77.677a5.885 5.885 0 0 1 5.879 5.88v.02h1.11v-.02a6.994 6.994 0 0 0-6.434-6.966v.531a.555.555 0 0 1-.555.555m-6.989 5.9h1.111v-.02a5.885 5.885 0 0 1 5.878-5.88.556.556 0 0 1-.555-.555v-.531a6.991 6.991 0 0 0-5.18 2.976 6.95 6.95 0 0 0-1.254 3.99v.02" fill="#4B4B48"/><path fill="#D9D9D3" d="M484.51 93.31h3.362v-8.3h-3.363z"/><path d="M488.244 84.919h-3.735v.092h3.363v8.298h-3.363v.047h4.474v-8.9a.548.548 0 0 0-.059-.247l-.175.386a.556.556 0 0 1-.505.324" fill="#4B4B48"/><path fill="#D9D9D3" d="M484.186 80.948h3.686V72.65h-3.686z"/><path d="M484.186 80.948h3.686V72.65h-3.686v8.298zm1.843-8.851a3.258 3.258 0 0 1-1.826-.558h-.572a.555.555 0 0 0-.555.556v8.992h5.907v-8.992a.555.555 0 0 0-.556-.556h-.572a3.258 3.258 0 0 1-1.826.558z" fill="#4B4B48"/><path d="M484.403 83.808h3.484l.736-1.61h-5.458l.56 1.38h.23a.55.55 0 0 1 .448.23" fill="#D9D9D3"/><path d="M483.076 81.087h-.737a.555.555 0 0 0-.514.764l.702 1.726h1.199l-.56-1.38h5.457l-.736 1.611h-3.484a.55.55 0 0 1 .106.325v.786h3.735a.556.556 0 0 0 .505-.324l.175-.386 1.07-2.336a.556.556 0 0 0-.505-.786h-6.413" fill="#4B4B48"/><path d="M483.863 68.82a2.17 2.17 0 0 0 2.166 2.166 2.168 2.168 0 0 0 2.166-2.166 2.168 2.168 0 0 0-2.166-2.166 2.169 2.169 0 0 0-2.166 2.166" fill="#D9D9D3"/><path d="M486.03 66.654c1.194 0 2.165.972 2.165 2.166a2.168 2.168 0 0 1-2.166 2.166 2.169 2.169 0 0 1-2.166-2.166 2.17 2.17 0 0 1 2.166-2.166.556.556 0 0 1-.555-.555v-.508a3.282 3.282 0 0 0-2.722 3.229 3.276 3.276 0 1 0 3.833-3.229v.508a.555.555 0 0 1-.556.555" fill="#4B4B48"/><path d="M485.474 66.099a.556.556 0 0 0 1.11 0v-5.443a.555.555 0 1 0-1.11 0V66.1" fill="#4B4B48"/><path fill="#D9D9D3" d="M456.143 93.31h3.686v-8.3h-3.686z"/><path d="M456.143 93.31h3.686v-8.3h-3.686v8.298zm4.01.046v-8.437h-4.75a.555.555 0 0 1-.37-.143v8.58h5.12z" fill="#4B4B48"/><path fill="#D9D9D3" d="M456.143 80.948h3.686V72.65h-3.686z"/><path d="M456.143 80.948h3.686V72.65h-3.686v8.298zm4.797.139v-8.992a.555.555 0 0 0-.556-.556h-.572a3.258 3.258 0 0 1-1.826.558 3.258 3.258 0 0 1-1.825-.558h-.573a.555.555 0 0 0-.555.556v8.992h5.907z" fill="#4B4B48"/><path fill="#D9D9D3" d="M455.122 82.198l.655 1.61h4.067l.736-1.61h-5.458"/><path d="M459.844 83.808h-4.067l-.655-1.61h5.458l-.736 1.61zm-4.44 1.11h4.748v-.785c0-.307.249-.556.556-.556h.463l.78-1.704a.556.556 0 0 0-.505-.786h-7.15a.555.555 0 0 0-.514.764l1.107 2.722a.55.55 0 0 0 .514.346z" fill="#4B4B48"/><path d="M455.82 68.82a2.17 2.17 0 0 0 2.166 2.166 2.168 2.168 0 0 0 2.166-2.166 2.168 2.168 0 0 0-2.166-2.166 2.169 2.169 0 0 0-2.166 2.166" fill="#D9D9D3"/><path d="M457.986 72.097c.676 0 1.304-.206 1.826-.558a3.276 3.276 0 0 0 1.451-2.719 3.282 3.282 0 0 0-2.721-3.229v.508a.555.555 0 0 1-.556.555c1.195 0 2.166.972 2.166 2.166a2.168 2.168 0 0 1-2.166 2.166 2.169 2.169 0 0 1-2.166-2.166 2.17 2.17 0 0 1 2.166-2.166.556.556 0 0 1-.555-.555v-.508a3.282 3.282 0 0 0-2.722 3.229 3.276 3.276 0 0 0 3.277 3.277" fill="#4B4B48"/><path d="M457.986 66.654a.555.555 0 0 0 .556-.555v-5.443a.555.555 0 1 0-1.111 0V66.1c0 .306.25.555.555.555" fill="#4B4B48"/><path d="M483.399 84.688h-22.136v8.668h9.445v-4.619a.556.556 0 0 1 1.11 0v4.619h.911v-4.619a.555.555 0 1 1 1.111 0v4.619h9.559v-8.668" fill="#D9D9D3"/><path d="M484.51 93.31v-9.177a.554.554 0 0 0-.555-.555h-23.247a.555.555 0 0 0-.556.555v9.223h1.111v-8.668h22.136v8.668h1.11v-.047m-12.317-15.632a.555.555 0 0 0 .555-.555v-3.874a.555.555 0 1 0-1.11 0v3.874c0 .307.249.555.555.555" fill="#4B4B48"/><path d="M471.818 88.737a.555.555 0 1 0-1.11 0v4.619h1.11v-4.619m2.022 0a.555.555 0 1 0-1.11 0v4.619h1.11v-4.619" fill="#4B4B48"/><path d="M495.016 84.642v-20.63c0-.306.249-.555.556-.555h3.842c.307 0 .555.249.555.555v28.5c.306-2.053 1.748-3.72 3.61-4.247V60.106h-12.392v33.25h3.83v-8.714" fill="#D9D9D3"/><path d="M490.076 93.356h1.111v-33.25h5.372a.555.555 0 0 1-.54-.68l.099-.43h-5.486a.555.555 0 0 0-.556.555v33.805m13.502-33.25v28.16c.358-.102.73-.16 1.111-.173V59.551a.555.555 0 0 0-.555-.555h-.93l.1.43a.559.559 0 0 1-.542.68h.816" fill="#4B4B48"/><path fill="#D9D9D3" d="M496.127 93.356h2.732v-5.484h-2.732zm0-19.97h2.732v-1.564h-2.732zm0-2.676h2.732v-1.564h-2.732zm0-5.35h2.732v-.792h-2.732zm0 2.676h2.732V66.47h-2.732zm0 8.025h2.732v-1.564h-2.732zm0 5.35h2.732v-1.564h-2.732zm0 5.35h2.732v-1.564h-2.732zm0-8.025h2.732v-1.564h-2.732zm0 5.35h2.732v-1.564h-2.732z"/><path d="M499.414 85.197h-.555v1.564h.555c.307 0 .555.25.555.556v-2.675a.555.555 0 0 1-.555.555m0-5.35h-.555v1.564h.555c.307 0 .555.249.555.556V79.29a.555.555 0 0 1-.555.556m-3.842-3.785h.555v-1.564h-.555a.555.555 0 0 1-.556-.556v2.675c0-.306.249-.555.556-.555m0 8.025h.555v-1.564h-.555a.555.555 0 0 1-.556-.555v2.675c0-.307.249-.556.556-.556" fill="#4B4B48"/><path d="M499.414 82.522h-.555v1.564h.555c.307 0 .555.249.555.556v-2.675a.555.555 0 0 1-.555.555m-3.842 4.239h.555v-1.564h-.555a.555.555 0 0 1-.556-.555v2.675c0-.307.249-.556.556-.556m4.398 5.752v-5.196a.555.555 0 0 1-.556.555h-.555v5.484h1.05v-.099a5.48 5.48 0 0 1 .06-.744m-4.397-13.777h.555v-1.564h-.555a.555.555 0 0 1-.556-.556v2.675c0-.306.249-.555.556-.555m0-10.7h.555V66.47h-.555a.555.555 0 0 1-.556-.555v2.675c0-.307.249-.555.556-.555m3.842-1.564h-.555v1.565h.555c.307 0 .555.248.555.555v-2.675a.555.555 0 0 1-.555.555m-3.842 4.239h.555v-1.564h-.555a.555.555 0 0 1-.556-.555v2.675c0-.307.249-.555.556-.555" fill="#4B4B48"/><path d="M495.572 65.36h.555v-.792h2.732v.792h.555c.307 0 .555.25.555.556v-1.904a.555.555 0 0 0-.555-.555h-3.842a.555.555 0 0 0-.556.555v1.904c0-.307.249-.556.556-.556m0 16.051h.555v-1.564h-.555a.555.555 0 0 1-.556-.556v2.676c0-.307.249-.556.556-.556m0-8.025h.555v-1.564h-.555a.555.555 0 0 1-.556-.556v2.675c0-.306.249-.555.556-.555m3.842 1.111h-.555v1.564h.555c.307 0 .555.249.555.555v-2.675a.555.555 0 0 1-.555.556m0-2.675h-.555v1.564h.555c.307 0 .555.249.555.555v-2.675a.555.555 0 0 1-.555.556m0 5.35h-.555v1.564h.555c.307 0 .555.249.555.555v-2.675a.555.555 0 0 1-.555.556m0-8.026h-.555v1.565h.555c.307 0 .555.248.555.555v-2.675a.555.555 0 0 1-.555.555m-3.842 18.726a.555.555 0 0 1-.556-.555v6.039h1.111v-5.484h-.555" fill="#4B4B48"/><path fill="#D9D9D3" d="M502.064 58.996l-.731-3.17h-3.344l-.73 3.17h4.805"/><path d="M501.333 55.825l.73 3.17h-4.805l.731-3.17h3.344zm-5.208 4.072c.105.132.266.21.434.21h6.203a.555.555 0 0 0 .542-.68l-.1-.431-.279-1.21-.61-2.641a.555.555 0 0 0-.541-.43h-4.226a.555.555 0 0 0-.541.43l-.889 3.85-.1.431a.559.559 0 0 0 .107.47zm-.553 6.574h3.842a.555.555 0 1 0 0-1.11h-3.842a.555.555 0 1 0 0 1.11m0 2.675h3.842a.555.555 0 1 0 0-1.11h-3.842a.555.555 0 1 0 0 1.11m0 2.676h3.842a.555.555 0 1 0 0-1.111h-3.842a.555.555 0 1 0 0 1.11m0 2.676h3.842a.555.555 0 1 0 0-1.111h-3.842a.555.555 0 1 0 0 1.11m0 2.676h3.842a.555.555 0 1 0 0-1.111h-3.842a.555.555 0 1 0 0 1.11m0 2.676h3.842a.555.555 0 1 0 0-1.111h-3.842a.555.555 0 1 0 0 1.11m0 2.676h3.842a.555.555 0 1 0 0-1.11h-3.842a.555.555 0 1 0 0 1.11m0 2.675h3.842a.555.555 0 1 0 0-1.11h-3.842a.555.555 0 1 0 0 1.11m3.842 1.564h-3.842a.555.555 0 1 0 0 1.111h3.842a.555.555 0 1 0 0-1.11" fill="#4B4B48"/><path d="M374.933 49.84l-2.021 2.177v41.228h7.12V66.874c-.274-.835-2.271-6.95-3.02-10.344l-1.487-5.22a39.701 39.701 0 0 0-.592-1.47" fill="#D9D9D3"/><path d="M371.801 93.32v.036h8.55V77.924c0-.307.248-.555.555-.555h.237V66.785c0-.06-.01-.118-.028-.174-.008-.025-.28-.85-.664-2.063v.089a.555.555 0 0 1-1.09.15l-2.35-8.257c.75 3.393 2.747 9.509 3.022 10.344v26.371h-7.121V52.017l2.021-2.177c.163.38.37.884.592 1.47l-.009-.032a.555.555 0 0 1 .136-.539l.602-.62a32.137 32.137 0 0 0-.651-1.511.555.555 0 0 0-.91-.142l-2.744 2.955a.555.555 0 0 0-.148.378v41.52" fill="#4B4B48"/><path d="M379.25 60.339c-.13-3.292-.449-7.72-1.225-10.45l-1.353 1.394 2.578 9.056" fill="#D9D9D3"/><path d="M378.025 49.89c.776 2.73 1.095 7.157 1.225 10.449l-2.578-9.056 1.353-1.393zm-2.373.85a.555.555 0 0 0-.136.538l.009.031 3.836 13.477a.556.556 0 0 0 1.09-.149v-.09c.002-.66-.005-4.398-.325-8.275-.236-2.859-.642-5.792-1.34-7.625a.555.555 0 0 0-.918-.19l-2.216 2.282z" fill="#4B4B48"/><path d="M384.928 75.806c-1.05 0-1.925.673-2.117 1.563h4.233c-.192-.89-1.067-1.563-2.116-1.563" fill="#D9D9D3"/><path d="M382.81 77.369c.193-.89 1.069-1.563 2.118-1.563s1.924.673 2.116 1.563h1.127a2.947 2.947 0 0 0-.865-1.715 3.356 3.356 0 0 0-2.057-.944.585.585 0 0 1-.643 0c-1.521.139-2.739 1.252-2.921 2.659h1.126" fill="#4B4B48"/><path d="M389.56 93.32h1.493v-4.605a.555.555 0 0 1 1.11 0v4.606h2.148v-4.606a.555.555 0 0 1 1.11 0v4.606h2.149v-4.606a.555.555 0 0 1 1.11 0v4.606h1.691v-8.285H389.56v8.285" fill="#D9D9D3"/><path d="M401.482 84.48a.555.555 0 0 0-.555-.554h-11.368v1.11h10.812v8.285h-1.69v.035h2.801V84.48m-6.06 8.878h2.148v-.037h-2.148zm-3.259 0h2.148v-.037h-2.148zm-2.603 0h1.493v-.037h-1.494zm-4.311-18.648a.587.587 0 1 0-.642-.983.587.587 0 0 0 .642.983" fill="#4B4B48"/><path d="M382.751 92.672c0-3.02.738-6.27 2.358-6.27s2.358 3.25 2.358 6.27c0 .216-.004.433-.012.649h.994V78.479h-6.987v14.842h1.301a18.522 18.522 0 0 1-.012-.649" fill="#D9D9D3"/><path d="M389.56 85.036v-7.112a.555.555 0 0 0-.556-.555h-8.098a.555.555 0 0 0-.555.555v15.432h2.414l-.002-.035h-1.301V78.479h6.987v14.842h-.994l-.001.035h2.105v-8.32m2.604 3.679a.555.555 0 0 0-1.11 0v4.64h1.11v-4.64m3.259 0a.555.555 0 0 0-1.11 0v4.64h1.11v-4.64m3.258 0a.555.555 0 0 0-1.11 0v4.64h1.11v-4.64" fill="#4B4B48"/><path d="M386.356 92.672c0-1.471-.178-2.847-.502-3.873-.333-1.057-.678-1.286-.745-1.286-.067 0-.411.229-.745 1.286-.324 1.026-.502 2.402-.502 3.873 0 .216.004.433.012.649h2.47c.008-.216.012-.433.012-.649" fill="#D9D9D3"/><path d="M383.874 93.32a17.358 17.358 0 0 1-.012-.648c0-1.471.178-2.847.502-3.873.334-1.057.678-1.286.745-1.286.067 0 .412.229.745 1.286.324 1.026.502 2.402.502 3.873 0 .216-.004.433-.012.649h-2.47zm3.593-.648c0-3.02-.738-6.27-2.358-6.27s-2.358 3.25-2.358 6.27c0 .216.004.433.012.649l.002.035h4.689l.001-.035c.008-.216.012-.433.012-.649z" fill="#4B4B48"/><path d="M357.943 92.356a4.8 4.8 0 0 1-.228-1.11h-2.192a.552.552 0 0 1-.365-.137v2.23h1.884c.243-.384.547-.717.901-.983m-.195-2.22c.071-.484.217-.948.424-1.376h-2.649a.552.552 0 0 1-.365-.138v1.652a.552.552 0 0 1 .365-.138h2.225m1.178-2.486a4.136 4.136 0 0 1 2.184-1.256 3.936 3.936 0 0 1 1.936.075v-.196h-7.523a.552.552 0 0 1-.365-.137v1.65a.552.552 0 0 1 .365-.137h3.403m4.12-2.486v-.527l-.1-.85h-7.423a.552.552 0 0 1-.365-.137V85.3a.552.552 0 0 1 .365-.137h7.523m-1.114-9.947l-.163-1.376h-6.246a.552.552 0 0 1-.365-.138v1.652a.552.552 0 0 1 .365-.138h6.409m.294 2.486l-.163-1.375h-6.54a.552.552 0 0 1-.365-.138v1.651a.552.552 0 0 1 .365-.138h6.703m.294 2.488l-.163-1.377h-6.834a.552.552 0 0 1-.365-.137v1.65a.552.552 0 0 1 .365-.137h6.997m-.882-7.459l-.207-1.748h-6.273v1.885a.553.553 0 0 1 .365-.138h6.115m1.176 9.947l-.162-1.376h-7.129a.552.552 0 0 1-.365-.138v1.652a.552.552 0 0 1 .365-.138h7.291" fill="#D9D9D3"/><path fill="#4B4B48" d="M355.158 93.34v.017h1.875l.01-.017h-1.885m6.273-22.358l-.131-1.11h-6.142v1.11h6.273m.339 2.858l-.132-1.11h-6.115a.553.553 0 0 0-.365.137v.835a.552.552 0 0 0 .365.138h6.246m.294 2.487l-.131-1.111h-6.409a.552.552 0 0 0-.365.138v.835a.552.552 0 0 0 .365.138h6.54m.294 2.486l-.13-1.11h-6.704a.552.552 0 0 0-.365.137v.836a.552.552 0 0 0 .365.137h6.834m.295 2.487l-.132-1.11h-6.997a.552.552 0 0 0-.365.137v.835a.552.552 0 0 0 .365.138h7.129m.294 2.487l-.132-1.111h-7.29a.552.552 0 0 0-.366.138v.835a.552.552 0 0 0 .365.138h7.423m.1 2.486v-1.11h-7.523a.552.552 0 0 0-.365.137v.836a.552.552 0 0 0 .365.137h7.523m-4.874 2.487c.197-.408.451-.783.754-1.11h-3.403a.552.552 0 0 0-.365.137v.835a.552.552 0 0 0 .365.138h2.649m-.457 2.487a4.8 4.8 0 0 1 .033-1.111h-2.225a.552.552 0 0 0-.365.138v.835a.552.552 0 0 0 .365.138h2.192"/><path fill="#D9D9D3" d="M363.046 75.18V62.24h-1.53l1.53 12.94"/><path d="M361.431 70.982l1.615 13.654v-9.457l-1.53-12.94h1.53v-1.11h-2.155a.555.555 0 0 0-.552.62l1.092 9.233" fill="#4B4B48"/><path d="M364.89 55.66h4.185a.555.555 0 0 1 0 1.11h-4.185a.555.555 0 0 1 0-1.11zm.442 32.458c.15-.017.302-.026.451-.028h.058c1.662 0 3.142.901 4.029 2.271V54.246h-5.713v32.738c.45.295.852.678 1.175 1.134z" fill="#D9D9D3"/><path d="M363.046 62.24v24.229c.392.115.766.289 1.11.515V54.246h1.595a.555.555 0 0 1-.555-.555v-.556h-1.594a.555.555 0 0 0-.556.556v8.549m3.261-8.55a.555.555 0 0 1-.556.556h4.119v36.115c.535.827.855 1.824.868 2.897v.098h.243V53.69a.555.555 0 0 0-.556-.556h-4.118v.556" fill="#4B4B48"/><path d="M365.196 53.69a.555.555 0 0 0 1.11 0v-5.514a.555.555 0 0 0-1.11 0v5.515m-.306 3.079h4.185a.555.555 0 0 0 0-1.11h-4.185a.555.555 0 0 0 0 1.11" fill="#4B4B48"/><path d="M369.627 93.271c-.028-2.244-1.726-4.07-3.786-4.07h-.044a3.508 3.508 0 0 0-.63.066.555.555 0 0 1-.586-.265c-.572-.977-1.585-1.585-2.642-1.585-.2 0-.401.022-.599.063-1.704.36-2.812 2.166-2.471 4.025.054.293.142.576.262.843a.555.555 0 0 1-.239.715c-.15.082-.29.18-.42.293h11.156v-.085" fill="#D9D9D3"/><path d="M369.87 90.361c-.887-1.37-2.367-2.272-4.029-2.272h-.058c-.15.003-.3.012-.451.03a4.383 4.383 0 0 0-1.175-1.135c-.345-.226-.72-.4-1.11-.515a3.936 3.936 0 0 0-1.937-.075 4.138 4.138 0 0 0-2.184 1.255 4.572 4.572 0 0 0-.754 1.11 4.751 4.751 0 0 0-.396 2.947 4.8 4.8 0 0 0 .167.65 3.655 3.655 0 0 0-.9.984l-.01.016h1.44c.13-.113.27-.21.42-.293a.555.555 0 0 0 .238-.715 3.657 3.657 0 0 1-.262-.843c-.341-1.859.767-3.664 2.471-4.025.198-.041.4-.063.599-.063 1.057 0 2.07.608 2.642 1.585.12.204.354.31.586.265.211-.042.423-.064.63-.066h.044c2.06 0 3.758 1.826 3.786 4.07v.085h1.11l.001-.098a5.446 5.446 0 0 0-.868-2.897" fill="#4B4B48"/><path d="M344.757 44.006c0-.307.248-.555.555-.555h6.99c.306 0 .555.248.555.555v7.491a.555.555 0 0 1-.556.556h-6.989a.555.555 0 0 1-.555-.556v-7.491zm8.152 49.25c.1-.003.196.024.282.073h.856V40.8h-10.48v52.55l9.342-.094z" fill="#D9D9D3"/><path d="M343.011 73.556c.307 0 .555.249.555.556V40.799h10.481v52.53h-.856a.539.539 0 0 0-.282-.073l-9.343.094v.006h11.592V40.244a.555.555 0 0 0-.555-.556H343.01a.555.555 0 0 0-.555.556v33.312h.555" fill="#4B4B48"/><path d="M345.868 50.942h5.878v-6.38h-5.878v6.38zm-.556 1.11h6.99a.555.555 0 0 0 .555-.555v-7.491a.555.555 0 0 0-.556-.555h-6.989a.555.555 0 0 0-.555.555v7.491c0 .307.248.556.555.556z" fill="#4B4B48"/><path d="M449.855 67.027v12.505h.607V59.335h-1.135v7.138a.555.555 0 0 1 .528.554" fill="#D9D9D3"/><path d="M449.327 59.335h1.135v20.197h1.111V58.78a.555.555 0 0 0-.555-.555h-1.69v1.11" fill="#4B4B48"/><path d="M438.743 79.017h-6.866a.555.555 0 1 1 0-1.11h6.866a.555.555 0 1 1 0 1.11zm0 2.098h-6.866a.555.555 0 1 1 0-1.11h6.866a.555.555 0 1 1 0 1.11zm0 2.098h-6.866a.555.555 0 1 1 0-1.11h6.866a.555.555 0 1 1 0 1.11zm0 2.098h-6.866a.555.555 0 1 1 0-1.11h6.866a.555.555 0 1 1 0 1.11zm0 2.098h-6.866a.555.555 0 1 1 0-1.11h6.866a.555.555 0 1 1 0 1.11zm-6.866-11.6h6.866a.555.555 0 1 1 0 1.11h-6.866a.555.555 0 1 1 0-1.11zm7.827 6.65c0-.124.041-.238.11-.33v-7.62h-8.722v13.468a4.6 4.6 0 0 1 1.33.42h6.32a.555.555 0 1 1 0 1.11h-4.845c.271.297.51.628.711.987h4.135a.555.555 0 1 1 0 1.11h-3.668c.138.472.216.97.223 1.487v.106h4.406V82.459z" fill="#D9D9D3"/><path d="M430.4 87.923c.236 0 .466.02.692.054V74.508h8.722v7.621a.553.553 0 0 1 .445-.225h.666v-7.951a.555.555 0 0 0-.556-.555h-9.832a.556.556 0 0 0-.555.555v13.991c.12-.011.241-.019.361-.02h.058m9.303 5.273h-4.407c0 .053 0 .105-.003.159h4.41v-.159" fill="#4B4B48"/><path d="M431.877 76.92h6.866a.555.555 0 1 0 0-1.111h-6.866a.555.555 0 1 0 0 1.11m6.866.988h-6.866a.555.555 0 1 0 0 1.11h6.866a.555.555 0 1 0 0-1.11m0 2.098h-6.866a.555.555 0 1 0 0 1.11h6.866a.555.555 0 1 0 0-1.11m0 2.097h-6.866a.555.555 0 1 0 0 1.111h6.866a.555.555 0 1 0 0-1.11m0 2.097h-6.866a.555.555 0 1 0 0 1.111h6.866a.555.555 0 1 0 0-1.11m0 2.097h-6.866a.555.555 0 1 0 0 1.111h6.866a.555.555 0 1 0 0-1.11m.555 2.653a.555.555 0 0 0-.555-.556h-6.32c.554.271 1.053.65 1.474 1.111h4.846a.555.555 0 0 0 .555-.555m0 2.098a.555.555 0 0 0-.555-.556h-4.135c.193.347.35.719.467 1.11h3.668a.555.555 0 0 0 .555-.555" fill="#4B4B48"/><path d="M448.216 66.471v-25.32h-2.324V54.97h.634c.307 0 .555.249.555.555v10.946h1.135" fill="#D9D9D3"/><path d="M445.892 54.97V41.152h2.324v25.32h1.111V40.597a.555.555 0 0 0-.555-.555h-1.173a.556.556 0 0 1-1.09 0h-1.172a.556.556 0 0 0-.556.555V54.97h1.11" fill="#4B4B48"/><path d="M445.31 74.259v-7.232c0-.307.249-.556.556-.556h.105v-10.39h-2.325v18.178h1.664" fill="#D9D9D3"/><path d="M443.646 74.259V56.08h2.325v10.39h1.11V55.525a.555.555 0 0 0-.555-.555h-3.435a.556.556 0 0 0-.556.555V74.26h1.111" fill="#4B4B48"/><path d="M446.421 67.582v14.953h1.53v-2.448c0-.306.25-.555.556-.555h.238v-11.95h-2.324" fill="#D9D9D3"/><path d="M445.866 66.471a.555.555 0 0 0-.556.556v7.232h.423c.307 0 .556.248.556.555v7.721h.132V67.582h2.324v11.95h1.11V67.027a.555.555 0 0 0-.528-.554l-.027-.002h-3.434m1.188-25.98a.556.556 0 0 0 .556-.555v-9.248a.555.555 0 1 0-1.111 0v9.248a.556.556 0 0 0 .555.555" fill="#4B4B48"/><path fill="#D9D9D3" d="M440.815 93.356h.607V83.015h-.607z"/><path d="M440.815 83.015h.607v-1.111h-1.163a.553.553 0 0 0-.445.225.551.551 0 0 0-.11.33v10.897h1.11V83.015" fill="#4B4B48"/><path d="M419.944 64.057h2.399l.003-.459V58.72c-.72.09-2.112.505-3.33 2.27-1.57 2.278-1.512 7.051-1.446 8.622h1.819v-4.999c0-.306.25-.555.555-.555" fill="#D9D9D3"/><path d="M417.044 69.61h.526c-.066-1.57-.124-6.343 1.446-8.62 1.218-1.766 2.61-2.18 3.33-2.27v4.878l-.003.46h1.11l.003-.455V58.15a.555.555 0 1 1-1.11 0v-.547c-.884.085-2.718.542-4.245 2.756-2.068 3-1.649 9.337-1.612 9.828v-.02c0-.307.248-.556.555-.556" fill="#4B4B48"/><path d="M423.456 73.297c0-.307.249-.556.556-.556h2.423c.307 0 .556.249.556.556v12.875c.383.049.757.156 1.11.311V70.722H417.6v19.085h1.11v-16.51c0-.307.249-.556.556-.556h2.423c.307 0 .556.249.556.556v16.51h.09a4.664 4.664 0 0 1 1.121-2.291v-14.22" fill="#D9D9D3"/><path d="M426.435 70.722h1.666v15.761c.401.176.777.415 1.111.711V70.166a.555.555 0 0 0-.555-.555h-1.666v.555a.555.555 0 0 1-.556.556m-9.446 19.085h.61V70.722h2.345a.556.556 0 0 1-.555-.556v-.555h-2.345a.555.555 0 0 0-.555.555V90.12a.555.555 0 0 1 .5-.313" fill="#4B4B48"/><path d="M425.375 66.733a.555.555 0 0 1-.555.555h-3.232a.555.555 0 1 1 0-1.11h3.232c.307 0 .555.248.555.555zm-4.875 2.878h5.38v-4.443h-5.38v4.443z" fill="#D9D9D3"/><path d="M420.5 69.61h5.38v-4.442h-5.38v4.443zm1.843-5.553h-2.399a.556.556 0 0 0-.555.555v5.554c0 .307.25.556.555.556h6.491a.555.555 0 0 0 .556-.556v-5.554a.555.555 0 0 0-.556-.555h-4.092z" fill="#4B4B48"/><path fill="#D9D9D3" d="M419.821 89.807h1.313V73.852h-1.313z"/><path d="M421.69 72.741h-2.424a.555.555 0 0 0-.556.556v16.51h1.111V73.852h1.313v15.955h1.11v-16.51a.555.555 0 0 0-.555-.556" fill="#4B4B48"/><path d="M424.567 73.852v12.785a4.041 4.041 0 0 1 1.313-.448V73.852h-1.313" fill="#D9D9D3"/><path d="M426.435 72.741h-2.423a.555.555 0 0 0-.556.556v14.219c.32-.352.693-.65 1.111-.88V73.853h1.313V86.19a3.973 3.973 0 0 1 1.11-.017V73.297a.555.555 0 0 0-.555-.556M422.9 58.705a.555.555 0 0 0 .556-.555v-3.938a.555.555 0 1 0-1.11 0v3.938c0 .306.248.555.555.555m-1.313 7.473a.555.555 0 1 0 0 1.11h3.232a.555.555 0 1 0 0-1.11h-3.232" fill="#4B4B48"/><path d="M422.503 92.19a4.755 4.755 0 0 1-.24-1.272h-4.719v2.221h4.08a3.63 3.63 0 0 1 .88-.949" fill="#D9D9D3"/><path d="M421.494 93.356c.04-.074.084-.147.13-.217h-4.08v-2.221h4.72a4.83 4.83 0 0 1 .071-1.111h-5.346a.555.555 0 0 0-.556.555v2.994h5.061" fill="#4B4B48"/><path d="M434.187 93.19v-.085c-.028-2.245-1.726-4.071-3.786-4.071h-.045a3.504 3.504 0 0 0-.629.066.555.555 0 0 1-.586-.264c-.573-.978-1.586-1.585-2.643-1.585-.2 0-.4.021-.598.063-1.703.36-2.812 2.166-2.47 4.025.053.293.14.576.26.843a.555.555 0 0 1-.239.715c-.15.082-.29.18-.419.292h11.155" fill="#D9D9D3"/><path d="M423.032 93.19c.13-.113.27-.21.42-.293a.555.555 0 0 0 .239-.715 3.656 3.656 0 0 1-.262-.843c-.341-1.86.768-3.665 2.471-4.025.198-.042.399-.063.598-.063 1.057 0 2.07.607 2.643 1.585.12.204.354.31.586.264.211-.041.422-.063.63-.066h.044c2.06 0 3.758 1.826 3.786 4.071v.084h-11.155zm5.07-6.707a4.022 4.022 0 0 0-1.604-.343 3.973 3.973 0 0 0-.828.087 4.041 4.041 0 0 0-1.103.41 4.253 4.253 0 0 0-1.11.879 4.664 4.664 0 0 0-1.122 2.29 4.83 4.83 0 0 0 .168 2.384 3.63 3.63 0 0 0-1.009 1.166h13.8l.003-.159.001-.106a5.54 5.54 0 0 0-.223-1.486 5.309 5.309 0 0 0-1.178-2.098 4.944 4.944 0 0 0-1.475-1.11 4.6 4.6 0 0 0-2.021-.474h-.058c-.12.002-.24.01-.361.021l-.09.008a4.461 4.461 0 0 0-.68-.758 4.264 4.264 0 0 0-1.11-.71z" fill="#4B4B48"/><path d="M449.327 83.09v10.255h2.06V80.643h-2.324v1.975a.554.554 0 0 1 .264.473" fill="#D9D9D3"/><path d="M450.462 79.532h-1.955a.556.556 0 0 0-.555.555v2.448h.82c.107 0 .207.031.29.083v-1.975h2.325v12.702h-2.06v.01h3.171V80.088a.555.555 0 0 0-.555-.555h-1.48" fill="#4B4B48"/><path fill="#D9D9D3" d="M446.289 93.345h1.927v-9.7h-1.927z"/><path d="M449.327 89.723V83.09a.554.554 0 0 0-.555-.556h-2.483v1.11h1.927v9.7h-1.927v.01h3.038v-3.632" fill="#4B4B48"/><path fill="#D9D9D3" d="M445.178 83.09v-7.72h-2.646v17.975h2.646V83.091"/><path d="M442.532 93.345h2.646V75.37h-2.646v17.976zm3.757-9.7v-8.831a.555.555 0 0 0-.556-.555h-3.756a.556.556 0 0 0-.555.555v18.542h4.867v-9.71z" fill="#4B4B48"/><path d="M511.84 93.064a.555.555 0 0 1-.24-.717c.121-.267.21-.55.264-.842.343-1.859-.774-3.664-2.491-4.024a2.944 2.944 0 0 0-.605-.064c-1.068 0-2.089.608-2.666 1.587a.555.555 0 0 1-.585.263 3.56 3.56 0 0 0-.635-.066h-.045c-2.077 0-3.79 1.826-3.817 4.07v.085h11.242a2.45 2.45 0 0 0-.422-.292" fill="#D9D9D3"/><path d="M513.65 93.265a3.652 3.652 0 0 0-.861-.91c.07-.21.126-.428.167-.648.423-2.288-.866-4.52-2.919-5.196a4.04 4.04 0 0 0-1.27-.204c-.44 0-.874.076-1.288.216a4.248 4.248 0 0 0-1.11.575 4.41 4.41 0 0 0-1.015 1.02 4.603 4.603 0 0 0-.459-.028h-.058l-.148.003a4.649 4.649 0 0 0-1.11.172c-1.862.528-3.304 2.194-3.61 4.248a5.48 5.48 0 0 0-.06.744v.099h1.11v-.085c.029-2.244 1.741-4.07 3.818-4.07h.045c.21.002.423.024.635.066a.555.555 0 0 0 .585-.263c.577-.979 1.598-1.587 2.666-1.587.202 0 .405.022.605.064 1.717.36 2.834 2.165 2.49 4.024a3.612 3.612 0 0 1-.263.842.555.555 0 0 0 .24.717c.15.082.291.18.422.292h1.445l-.058-.091" fill="#4B4B48"/><path d="M331.532 91.208c0-.307.249-.555.555-.555h8.831a.555.555 0 1 1 0 1.11h-8.83a.555.555 0 0 1-.556-.555zm.555-2.653h8.831a.555.555 0 0 1 0 1.11h-8.83a.555.555 0 0 1 0-1.11zm0-2.098h8.831a.555.555 0 0 1 0 1.11h-8.83a.555.555 0 0 1 0-1.11zm0-2.098h8.831a.555.555 0 0 1 0 1.11h-8.83a.555.555 0 0 1 0-1.11zm0-2.098h8.831a.555.555 0 0 1 0 1.11h-8.83a.555.555 0 0 1 0-1.11zm0-2.098h8.831a.555.555 0 0 1 0 1.111h-8.83a.555.555 0 0 1 0-1.11zm0-2.098h8.831a.555.555 0 0 1 0 1.111h-8.83a.555.555 0 0 1 0-1.11zm0-2.098h8.831a.555.555 0 0 1 0 1.111h-8.83a.555.555 0 0 1 0-1.11zm-1.167 17.389h11.536V74.667H330.92v18.689z" fill="#D9D9D3"/><path d="M330.92 93.356V74.667h11.536v18.689h1.11V74.112a.555.555 0 0 0-.555-.556h-12.647a.555.555 0 0 0-.555.556v19.244h1.11" fill="#4B4B48"/><path d="M332.087 77.078h8.831a.555.555 0 0 0 0-1.11h-8.83a.555.555 0 0 0 0 1.11m-.001 2.098h8.831a.555.555 0 0 0 0-1.11h-8.83a.555.555 0 0 0 0 1.11m-.001 2.098h8.831a.555.555 0 0 0 0-1.11h-8.83a.555.555 0 0 0 0 1.11m-.001 2.098h8.831a.555.555 0 0 0 0-1.11h-8.83a.555.555 0 0 0 0 1.11m-.001 2.098h8.831a.555.555 0 1 0 0-1.111h-8.83a.555.555 0 0 0 0 1.11m-.001 2.099h8.831a.555.555 0 0 0 0-1.111h-8.83a.555.555 0 0 0 0 1.11m-.001 2.099h8.831a.555.555 0 0 0 0-1.111h-8.83a.555.555 0 0 0 0 1.11m8.83 2.098a.555.555 0 0 0 0-1.11h-8.83a.555.555 0 0 0 0 1.11h8.83" fill="#4B4B48"/><path d="M580.793 89.933a.555.555 0 0 1-.555-.555V85.66c0-.306.248-.555.555-.555h8.331v-2.063h-8.33a.555.555 0 0 1-.556-.555v-3.718c0-.307.248-.555.555-.555h8.331V74.79h-13.81v18.565h13.81v-3.423h-8.33" fill="#D9D9D3"/><path d="M589.68 89.933h-.556v3.423h1.11v-3.978a.555.555 0 0 1-.555.555m.001-6.891h-.556v2.063h.555c.307 0 .556.249.556.555v-3.173a.555.555 0 0 1-.556.555M575.18 73.68h-.421a.556.556 0 0 0-.556.556v19.12h1.111V74.79h13.81v3.423h.555c.307 0 .556.248.556.555v-4.533a.555.555 0 0 0-.556-.555h-14.5" fill="#4B4B48"/><path fill="#D9D9D3" d="M581.349 88.823h7.775v-2.607h-7.775z"/><path d="M581.349 88.823h7.775v-2.607h-7.775v2.607zm8.33-3.718h-8.886a.555.555 0 0 0-.555.555v3.718c0 .307.248.555.555.555h8.886a.555.555 0 0 0 .556-.555V85.66a.555.555 0 0 0-.556-.555z" fill="#4B4B48"/><path fill="#D9D9D3" d="M581.349 81.931h7.775v-2.607h-7.775z"/><path d="M581.349 81.931h7.775v-2.607h-7.775v2.607zm8.33-3.717h-8.886a.555.555 0 0 0-.555.555v3.718c0 .306.248.555.555.555h8.886a.555.555 0 0 0 .556-.555v-3.718a.555.555 0 0 0-.556-.555zm4.014 15.142H323.13a.555.555 0 0 0 0 1.11h270.563a.555.555 0 1 0 0-1.11M394.274 35.263h-1.913a.505.505 0 0 1 0-1.01h1.913a.505.505 0 1 1 0 1.01m12.622 0h-3.402a.505.505 0 0 1 0-1.01h3.402a.505.505 0 0 1 0 1.01" fill="#4B4B48"/><path d="M394.504 35.263a.505.505 0 0 1-.488-.376 3.67 3.67 0 0 1 3.546-4.603c1.45 0 2.757.866 3.343 2.16a2.553 2.553 0 0 1 3.113 2.268.505.505 0 0 1-1.006.092 1.548 1.548 0 0 0-2.2-1.268.505.505 0 0 1-.697-.32 2.668 2.668 0 0 0-2.553-1.923 2.66 2.66 0 0 0-2.57 3.336.505.505 0 0 1-.488.634m14.378-.505a.513.513 0 1 1-1.025 0 .513.513 0 0 1 1.025 0m-45.477-10.109a.513.513 0 1 1-1.026 0 .513.513 0 0 1 1.026 0m7.505.504a.505.505 0 0 1-.505-.504c0-.99-.805-1.795-1.795-1.795-.99 0-1.794.805-1.794 1.795a.505.505 0 0 1-1.01 0 2.807 2.807 0 0 1 2.804-2.805 2.807 2.807 0 0 1 2.804 2.805.505.505 0 0 1-.504.504" fill="#4B4B48"/><path d="M366.31 25.153h-1.852a.505.505 0 0 1 0-1.01h1.853a.505.505 0 0 1 0 1.01m8.131 0h-3.532a.505.505 0 0 1 0-1.01h3.532a.505.505 0 0 1 0 1.01m181.137 5.635h-1.913a.505.505 0 0 1 0-1.01h1.913a.505.505 0 0 1 0 1.01m12.622 0h-3.4a.504.504 0 1 1 0-1.01h3.4a.505.505 0 0 1 0 1.01" fill="#4B4B48"/><path d="M555.81 30.788a.504.504 0 0 1-.488-.376 3.67 3.67 0 0 1 3.545-4.603c1.45 0 2.758.866 3.343 2.16.183-.04.369-.061.558-.061a2.553 2.553 0 0 1 2.555 2.33.505.505 0 0 1-1.006.092 1.548 1.548 0 0 0-2.199-1.268.506.506 0 0 1-.697-.32 2.669 2.669 0 0 0-2.553-1.923 2.66 2.66 0 0 0-2.57 3.336.506.506 0 0 1-.488.633m14.377-.505a.513.513 0 1 1-1.025 0 .513.513 0 0 1 1.025 0m-63.959 7.063a.512.512 0 1 1-1.025 0 .512.512 0 0 1 1.025 0m7.505.504a.505.505 0 0 1-.505-.504c0-.99-.805-1.795-1.794-1.795s-1.795.805-1.795 1.795a.505.505 0 0 1-1.01 0 2.808 2.808 0 0 1 2.805-2.805 2.807 2.807 0 0 1 2.804 2.805.504.504 0 0 1-.505.505" fill="#4B4B48"/><path d="M509.134 37.85h-1.852a.505.505 0 0 1 0-1.01h1.852a.505.505 0 0 1 0 1.01m8.132 0h-3.533a.505.505 0 0 1 0-1.01h3.533a.505.505 0 0 1 0 1.01m-46.589-6.6h-3.03a.454.454 0 1 1 0-.908h3.03a.455.455 0 0 1 0 .908m116.382 10.825h-3.03a.455.455 0 0 1 0-.909h3.03a.454.454 0 1 1 0 .91m-257.334-7.429h-3.03a.454.454 0 1 1 0-.908h3.03a.454.454 0 0 1 0 .908" fill="#4B4B48"/><path d="M78.944 55.541c.497 1.569.848 2.635.859 2.667a.718.718 0 0 1 .036.225v13.682h.7c.236-1.818 1.81-3.258 3.776-3.437a.758.758 0 1 1 .831 0 4.339 4.339 0 0 1 2.66 1.22 9.103 9.103 0 0 1 2.616-.604V64.91a.728.728 0 0 1 1.457 0v4.384c.698.055 1.374.19 2.02.394V45.42c0-.32-.364-.578-.812-.578H90.06v-1.776c0-.319-.364-.577-.812-.577H81.32c-.448 0-.812.258-.812.577v1.776h-1.986c.414 5.013.423 9.845.421 10.7M47.628 57.95v1.632l-1.381-.549v1.47h.723c.402 0 .728.325.728.728v1.192h6.488l-1.241-10.499a.718.718 0 0 1 .713-.802h2.786V49.56a6.188 6.188 0 0 0-4.383-2.703v-4.38a.754.754 0 0 0-1.508 0v4.38a6.185 6.185 0 0 0-4.306 2.593v7.076a6.231 6.231 0 0 0 1.381 1.424m227.737-4.062v1.515h8.386c.396 0 .718.322.718.718v10.742c.14-.05.28-.098.421-.143V53.36h-7.454v-1.537a.728.728 0 0 0-.511-.696l-9.832-3.063a.73.73 0 0 0-.946.696v1.728l8.713 2.714c.3.093.505.371.505.686m9.288 36.334l-.184.281v.2h.421V90.3a8.219 8.219 0 0 1-.237-.078m8.374.481l-.33-.496c-.62.215-1.26.381-1.92.496h2.25m2.792-2.108l.27.406v-.605c-.089.068-.179.134-.27.2m-10.929 2.107h1.64a12.309 12.309 0 0 1-1.64-.403v.403m3.764-24.568c2.788 0 5.364.927 7.435 2.49V40.146l-10.348-1.762a.73.73 0 0 0-.85.718V66.72a12.336 12.336 0 0 1 3.763-.585m-49.822-17.771c.397 0 .718.321.718.718v36.897c.064-.002.128-.005.19-.005h.076c.196.003.395.016.593.038.368-.517.813-.96 1.312-1.32V64.76a.719.719 0 0 1 .965-.674l2.342.857v-2.605a.72.72 0 0 1 .982-.667l2.452.972V61.09a5.88 5.88 0 0 1-2.381-4.725 5.892 5.892 0 0 1 5.167-5.839v-4.171a.718.718 0 1 1 1.436 0v4.171c.086.01.172.023.258.037v-16.54a.729.729 0 0 0-.728-.728h-2.716v-2.24a.729.729 0 0 0-.728-.729h-7.108a.729.729 0 0 0-.728.729v2.24h-2.937a.728.728 0 0 0-.727.728V46.8l.36 1.565h1.202" fill="#787975"/><path d="M91.879 64.91a.728.728 0 0 0-1.457 0v4.384a9.103 9.103 0 0 0-2.616.604 3.81 3.81 0 0 1 1.117 2.217H90c.397 0 .718.322.718.718v6.125h2.592c.403 0 .729.326.729.728v.905h11.374c.397 0 .718.322.718.718v11.427h.444a.724.724 0 0 0 .29-.06h.45a130.283 130.283 0 0 1-.13-8.663l-.001-.005v-.01c.025-1.382.074-2.854.157-4.374.476-8.734 1.829-15.427 4.026-19.955h-1.4a.718.718 0 0 1 0-1.436h2.168c.127-.216.256-.428.389-.63.154-.24.308-.473.46-.703a4.307 4.307 0 0 0-2.96-2.031v-6.472a.729.729 0 0 0-1.456 0v6.472A4.303 4.303 0 0 0 105 59.103c0 1.484.756 2.794 1.903 3.566h-.751a.728.728 0 0 0-.728.728V75.19h-.965a.729.729 0 0 0-.675 1.002l.92 2.264h-4.387v-.028c0-4.097-2.702-7.57-6.417-8.74a9.106 9.106 0 0 0-2.02-.394V64.91m65.24 2.79v10.278h.642v-9.165c0-.397.323-.718.718-.718h.722V44.648l-.132-.573a.687.687 0 0 0-.67-.533h-5.23a.689.689 0 0 0-.67.533l-1.099 4.765h-6.79a.687.687 0 0 0-.686.688v17.454h12.477c.397 0 .718.321.718.718m173.73-23.483v23.13h8.543V56.579a.715.715 0 0 0-.037-.228c-.032-.1-3.315-10.061-4.127-14.347-.838-4.422-3.01-9.066-3.102-9.262a.728.728 0 0 0-1.192-.186l-3.599 3.876a.727.727 0 0 0-.194.495v6.054l3.11.53a.717.717 0 0 1 .597.707M67.056 92.736h.706V70.359h-.706a.723.723 0 0 0-.355.093v22.191a.726.726 0 0 0 .355.093" fill="#787975"/><path d="M94.039 80.591v-.905a.728.728 0 0 0-.729-.728h-2.592v1.633h3.32M47.698 61.23a.728.728 0 0 0-.728-.728h-.723v1.921h1.45v-1.192m135.951 15.691a.718.718 0 0 1 .653 1.017l-1.008 2.203h5.212v-.028c0-1.916.6-3.693 1.622-5.157v-8.915a.728.728 0 0 0-.729-.728h-6.404v11.608h.654m22.928 3.192v.028h4.325l-.908-2.232a.718.718 0 0 1 .665-.988h.952V65.298c0-.397.32-.718.718-.718h.74a4.235 4.235 0 0 1-1.876-3.516 4.242 4.242 0 0 1 3.518-4.174v-3.75h-3.87l.003-.595V40.229a.729.729 0 0 0-1.457 0v4.448c-1.157.111-3.562.71-5.564 3.614-2.713 3.932-2.163 12.239-2.116 12.888v10.92c2.891 1.51 4.87 4.535 4.87 8.015m11.815-15.534v-.493a4.237 4.237 0 0 1-.603.493h.603m.855 28.156h1.414v-5.827h-1.414zM29.826 56.364H19.338c-.402 0-.728.433-.728.966v9.857h11.216V56.364m282.745 27.583v-18.47h-1.031v18.231c.35.044.697.125 1.031.24" fill="#787975"/><path d="M121.023 49.423c-.937.592-3.096 2.524-7.196 8.81h7.196v-8.81m-12.405 35.303c-.05 3.786.074 6.78.14 8.056h12.265v-8.056h-12.405m12.405-1.436V72.361h-11.562c-.51 3.758-.735 7.584-.817 10.93h12.38m-.001-12.366V59.67h-8.046c-1.614 3.052-2.651 7.064-3.307 11.256h11.353" fill="#D9D9D3"/><path d="M121.741 84.726h-.718v8.056h1.436v-8.774a.718.718 0 0 1-.718.718m0-12.365h-.718v10.93h.718c.397 0 .718.32.718.717V71.643a.718.718 0 0 1-.718.718m-9.606-14.128h1.692c4.1-6.286 6.26-8.218 7.196-8.81v8.81h1.436v-9.769a.718.718 0 1 1-1.436 0v-.627c-1.745.604-4.497 3.702-8.04 9.063l-.46.702a16.33 16.33 0 0 0-.388.63m-4.233 25.058h.742c.082-3.345.307-7.171.817-10.929h-.632a.718.718 0 0 1 0-1.436h.84c.657-4.192 1.694-8.204 3.308-11.256h-1.61c-2.197 4.528-3.55 11.221-4.026 19.955-.083 1.52-.132 2.992-.156 4.374a.718.718 0 0 1 .717-.708m13.121-23.621v11.256h.718c.397 0 .718.322.718.718V59.669h-1.436m-12.405 25.057h-.716a.718.718 0 0 1-.718-.713 130.283 130.283 0 0 0 .136 8.769h1.439c-.067-1.276-.191-4.27-.141-8.056m12.405-26.493h-11.055a.718.718 0 0 0 0 1.436h14.794a.718.718 0 1 0 0-1.436h-3.739" fill="#4B4B48"/><path d="M121.741 83.29h-13.839a.718.718 0 0 0-.717.708l-.001.01v.005a.718.718 0 0 0 .718.713h13.84a.718.718 0 1 0 0-1.436m-.001-12.365H108.83a.718.718 0 0 0 0 1.436h12.912a.718.718 0 1 0 0-1.436m-.001-21.743a.718.718 0 0 0 .718-.718v-4.743a.718.718 0 1 0-1.436 0v4.743c0 .397.321.718.718.718" fill="#4B4B48"/><path fill="#D9D9D3" d="M258.673 66.379v26.403h1.616V65.787l-1.616.592"/><path d="M258.673 66.379l1.616-.592v26.995h1.436V64.76a.715.715 0 0 0-.965-.674l-2.087.764v1.529" fill="#4B4B48"/><path d="M243.157 65.787V83.95a5.173 5.173 0 0 1 1.87-.275V66.472l-1.87-.685" fill="#D9D9D3"/><path d="M243.157 83.95V65.787l1.87.685v-1.53l-2.341-.856a.718.718 0 0 0-.965.674v19.933c.443-.319.927-.57 1.436-.743" fill="#4B4B48"/><path d="M251.85 63.988l1.954-.775v-1.26a5.87 5.87 0 0 1-3.906-.08v1.34l1.953.775" fill="#D9D9D3"/><path d="M253.804 61.954v1.26l1.436-.57v-1.392a5.888 5.888 0 0 1-1.436.702m-3.906 1.259v-1.34c-.517-.195-1-.46-1.436-.784v1.554l1.436.57" fill="#4B4B48"/><path d="M246.463 63.395v20.539c2.654.872 4.321 3.759 3.774 6.716a6.319 6.319 0 0 1-.216.84c.432.32.806.717 1.112 1.175V65.248l-4.67-1.853" fill="#D9D9D3"/><path d="M245.028 66.472v17.203a5.267 5.267 0 0 1 1.435.259V63.395l4.67 1.853v-.488c0-.294.179-.559.453-.667l.265-.105-3.389-1.345-2.452-.972a.719.719 0 0 0-.982.667v4.134" fill="#4B4B48"/><path fill="#D9D9D3" d="M257.237 63.395l-4.668 1.853v27.534h4.668V63.395"/><path d="M253.804 63.213l-1.953.775-.265.105a.717.717 0 0 0-.453.667v27.905l.074.117h1.362V65.248l4.668-1.853v29.387h1.436V62.338a.717.717 0 0 0-.983-.667l-2.45.972-1.436.57" fill="#4B4B48"/><path d="M247.517 56.364a4.454 4.454 0 0 0 4.449 4.449 4.454 4.454 0 0 0 4.448-4.449 4.454 4.454 0 0 0-4.448-4.448 4.454 4.454 0 0 0-4.45 4.448" fill="#D9D9D3"/><path d="M252.684 51.198a.718.718 0 0 1-.718.718 4.454 4.454 0 0 1 4.448 4.448 4.454 4.454 0 0 1-4.448 4.449 4.454 4.454 0 0 1-4.45-4.449 4.454 4.454 0 0 1 4.45-4.448.718.718 0 0 1-.718-.718v-.673a5.892 5.892 0 0 0-5.167 5.84 5.88 5.88 0 0 0 2.381 4.724 5.872 5.872 0 0 0 6.778.163 5.884 5.884 0 0 0 2.61-4.888 5.893 5.893 0 0 0-5.166-5.839v.673" fill="#4B4B48"/><path d="M251.966 51.916a.718.718 0 0 0 .718-.718v-4.844a.718.718 0 1 0-1.436 0v4.844c0 .396.32.718.718.718" fill="#4B4B48"/><path d="M269.523 87.64V56.121c0-.396.321-.718.718-.718h3.688v-.987l-8.257-2.572v40.938h3.851V87.64" fill="#D9D9D3"/><path d="M265.672 92.782V51.844l8.257 2.572v.987h1.436v-1.515a.718.718 0 0 0-.505-.686l-8.713-2.714-.979-.305a.72.72 0 0 0-.932.685v41.914h1.436" fill="#4B4B48"/><path d="M281.44 88.56a12.465 12.465 0 0 1-3.372-3.644h-7.109v2.006h8.092a.718.718 0 1 1 0 1.436h-8.092v4.424h7.635l2.846-4.222m-10.48-7.085v2.005h6.362a12.216 12.216 0 0 1-.684-2.005h-5.679m.001-10.325v2.005h6.538c.34-.708.75-1.38 1.214-2.006h-7.753m.001 6.884v2.006h5.413a12.312 12.312 0 0 1-.085-2.006h-5.329m.001-3.442v2.006h5.466a12.21 12.21 0 0 1 .488-2.006h-5.955m8.092-15.202a.718.718 0 1 1 0 1.435h-8.092v2.006h8.092a.718.718 0 1 1 0 1.436h-8.092v2.006h8.092a.718.718 0 1 1 0 1.436h-8.092v2.006h8.092c.25 0 .468.126.597.317a12.452 12.452 0 0 1 3.385-2.545V56.84h-12.074v2.55h8.092" fill="#D9D9D3"/><path fill="#4B4B48" d="M284.338 90.703h.14v-.2l-.14.2m-14.097-20.989h.718v-2.006h-.718a.718.718 0 0 1-.718-.718v3.442c0-.397.321-.718.718-.718m0-3.442h.718v-2.006h-.718a.718.718 0 0 1-.718-.718v3.442c0-.396.321-.718.718-.718m0 6.883h.718V71.15h-.718a.718.718 0 0 1-.718-.717v3.441c0-.396.321-.718.718-.718m0 10.324h.718v-2.005h-.718a.718.718 0 0 1-.718-.718v3.441c0-.396.321-.718.718-.718"/><path d="M270.241 84.916a.718.718 0 0 1-.718-.718v3.442c0-.397.321-.718.718-.718h.718v-2.006h-.718m0-8.319h.718v-2.006h-.718a.718.718 0 0 1-.718-.718v3.442c0-.396.321-.718.718-.718m0 3.442h.718v-2.006h-.718a.718.718 0 0 1-.718-.718v3.442c0-.397.321-.718.718-.718m-.718-23.918v3.986c0-.397.321-.718.718-.718h.718v-2.55h12.074v10.647a12.3 12.3 0 0 1 1.436-.623V56.121a.718.718 0 0 0-.718-.718h-13.51a.718.718 0 0 0-.718.718" fill="#4B4B48"/><path d="M270.241 62.83h.718v-2.006h-.718a.718.718 0 0 1-.718-.717v3.441c0-.396.321-.718.718-.718m.719 25.528h-.719a.718.718 0 0 1-.718-.718v5.142h1.436v-4.424" fill="#4B4B48"/><path d="M270.241 60.824h8.81a.718.718 0 1 0 0-1.435h-8.81a.718.718 0 1 0 0 1.435m0 3.442h8.81a.718.718 0 1 0 0-1.436h-8.81a.718.718 0 1 0 0 1.436m0 3.442h8.81a.718.718 0 1 0 0-1.436h-8.81a.718.718 0 1 0 0 1.436m0 3.442h8.47c.29-.392.604-.765.937-1.119a.717.717 0 0 0-.597-.317h-8.81a.718.718 0 1 0 0 1.435m0 3.442h6.673c.166-.493.36-.972.584-1.436h-7.257a.718.718 0 1 0 0 1.436m0 3.442h6.047c.02-.486.065-.966.138-1.436h-6.185a.718.718 0 1 0 0 1.436m0 3.442h6.397a12.398 12.398 0 0 1-.265-1.436h-6.132a.718.718 0 1 0 0 1.436m.719 2.005h-.719a.718.718 0 1 0 0 1.436h7.827c-.28-.46-.528-.94-.746-1.436h-6.363m-.718 3.442a.718.718 0 1 0 0 1.436h8.81a.718.718 0 1 0 0-1.436h-8.81M1.263 92.685a.815.815 0 1 0 0 1.63.815.815 0 0 0 0-1.63" fill="#4B4B48"/><path fill="#D9D9D3" d="M314.007 71.354h15.406v-2.821h-15.406zm0 12.77h15.406v-2.82h-15.406zm0-8.514h15.406v-2.82h-15.406zm0-8.513h15.406v-2.82h-15.406zm.945 18.463c.125.144.245.294.358.452a5.82 5.82 0 0 1 .583-.037h.075c1.926 0 3.661.936 4.827 2.406h8.618v-2.82h-14.461m-.945-5.694h15.406v-2.82h-15.406zm0-37.667v7.87h15.406v-5.247L314.007 42.2m0 12.127h15.406v-2.821h-15.406zm0 4.256h15.406v-2.82h-15.406zm0 4.257h15.406v-2.82h-15.406zm15.406 26.977h-7.743c.39.862.616 1.824.629 2.838 0 .042 0 .085-.002.127h7.116v-2.965"/><path d="M313.289 58.583h.718v-2.82h-.718a.719.719 0 0 1-.718-.719v4.257c0-.396.322-.718.718-.718m0 4.257h.718v-2.82h-.718a.719.719 0 0 1-.718-.719v4.257c0-.396.322-.718.718-.718m0-12.77h.718V42.2l15.406 2.623v5.247h.718c.397 0 .718.321.718.718v-6.57a.717.717 0 0 0-.596-.708l-16.843-2.87a.716.716 0 0 0-.839.709v9.439c0-.397.322-.718.718-.718m0 4.257h.718v-2.821h-.718a.719.719 0 0 1-.718-.718v4.256c0-.396.322-.717.718-.717" fill="#4B4B48"/><path d="M330.131 51.506h-.718v2.82h.718c.397 0 .718.322.718.718v-4.256a.718.718 0 0 1-.718.718m0 4.256h-.718v2.821h.718c.397 0 .718.322.718.718v-4.257a.718.718 0 0 1-.718.718m0 4.258h-.718v2.82h.718c.397 0 .718.322.718.718v-4.257a.718.718 0 0 1-.718.718m-16.842 7.078h.718v-2.82h-.718a.719.719 0 0 1-.718-.719v4.257c0-.396.322-.718.718-.718m0 17.027h.718v-2.82h-.718a.719.719 0 0 1-.718-.719v3.362c.176.06.35.128.518.206a.714.714 0 0 1 .2-.029m0-12.77h.718v-2.821h-.718a.719.719 0 0 1-.718-.718v4.257c0-.397.322-.718.718-.718" fill="#4B4B48"/><path d="M313.289 79.867h.718v-2.82h-.718a.719.719 0 0 1-.718-.719v4.257c0-.396.322-.718.718-.718m0-4.257h.718v-2.82h-.718a.719.719 0 0 1-.718-.718v4.256c0-.396.322-.717.718-.717m16.842-8.514c.218 0 .413.097.544.25h.174v-3.789a.718.718 0 0 1-.718.718h-.718v2.821h.718m-16.842-15.591h16.842a.718.718 0 1 0 0-1.436H313.29a.719.719 0 0 0 0 1.436m-.001 4.256h16.842a.718.718 0 1 0 0-1.435H313.29a.719.719 0 0 0 0 1.435m-.001 4.258h16.842a.718.718 0 1 0 0-1.437H313.29a.719.719 0 0 0 0 1.436" fill="#4B4B48"/><path d="M313.289 64.276h16.842a.718.718 0 1 0 0-1.436H313.29a.719.719 0 0 0 0 1.436m-.001 4.257h16.124v-.467c0-.397.323-.718.718-.718h.544a.716.716 0 0 0-.544-.251H313.29a.719.719 0 0 0 0 1.436m-.001 4.257h16.124v-1.436H313.29a.719.719 0 0 0 0 1.436m-.001 4.256h16.124v-1.435H313.29a.719.719 0 0 0 0 1.435m-.001 4.257h16.124v-1.436H313.29a.719.719 0 0 0 0 1.436m.717 2.821h-.718c-.07 0-.136.01-.2.029a5.57 5.57 0 0 1 1.863 1.407h14.461v-1.436h-15.406m6.788 4.257a6.9 6.9 0 0 1 .875 1.436h7.743V88.38h-8.618" fill="#4B4B48"/><path d="M301.467 40.94a.719.719 0 0 1-.718.718h-3.224v2.505h3.224a.719.719 0 0 1 0 1.436h-3.224v2.506h3.224a.719.719 0 0 1 0 1.436h-3.224v2.505h3.224a.719.719 0 0 1 0 1.436h-3.224v2.505h3.224a.719.719 0 0 1 0 1.436h-3.224v2.506h3.224a.719.719 0 0 1 0 1.436h-3.224v2.505h3.224a.719.719 0 0 1 0 1.436h-3.224v2.505h3.224a.719.719 0 0 1 0 1.436h-3.224v.644a12.35 12.35 0 0 1 1.49 1.862h1.734a.719.719 0 0 1 0 1.435h-.924c.38.793.676 1.632.881 2.506h.043a.719.719 0 0 1 .2 1.407 12.21 12.21 0 0 1 .025 2.57.717.717 0 0 1-.212 1.4c-.157.75-.385 1.475-.673 2.169h10.015v-2.17h-3.552a.718.718 0 1 1 0-1.436h3.552V77.13h-3.552a.718.718 0 1 1 0-1.436h3.552v-2.506h-3.552a.718.718 0 1 1 0-1.435h3.552v-2.506h-3.552a.718.718 0 1 1 0-1.436h3.552v-2.505h-3.552a.718.718 0 1 1 0-1.436h3.552v-2.505h-3.552a.718.718 0 1 1 0-1.436h3.552v-2.506h-3.552a.718.718 0 1 1 0-1.436h3.552v-2.505h-3.552a.718.718 0 1 1 0-1.436h3.552V49.54h-3.552a.718.718 0 1 1 0-1.436h3.552v-2.506h-3.552a.718.718 0 1 1 0-1.436h3.552v-2.505h-3.552a.718.718 0 1 1 0-1.436h3.552v-3.163h-12.579v3.163h3.224c.396 0 .718.321.718.718m4.291 50.551a6.143 6.143 0 0 1-.215-.84l-.007-.04h-8.01v.546l1.084 1.626h5.97a4.723 4.723 0 0 1 1.178-1.292m-8.233-3.847v1.532h7.925a6.111 6.111 0 0 1 .283-1.532h-8.208m1.856-2.967a12.223 12.223 0 0 1-1.044 1.531h8.071a5.706 5.706 0 0 1 1.44-1.531h-8.467" fill="#D9D9D3"/><path d="M307.428 37.06h2.676v3.162h.389a.718.718 0 1 1 0 1.436h-.39v2.505h.39a.718.718 0 1 1 0 1.436h-.39v2.506h.39a.718.718 0 1 1 0 1.436h-.39v2.505h.39a.718.718 0 1 1 0 1.436h-.39v2.505h.39a.718.718 0 1 1 0 1.436h-.39v2.506h.39a.718.718 0 1 1 0 1.436h-.39v2.505h.39a.718.718 0 1 1 0 1.436h-.39v2.505h.39a.718.718 0 1 1 0 1.436h-.39v2.506h.39a.718.718 0 1 1 0 1.435h-.39v2.506h.39a.718.718 0 1 1 0 1.436h-.39v2.505h.39a.718.718 0 1 1 0 1.436h-.39v2.169h.719c.307 0 .568.193.67.464l.048.004V36.342a.719.719 0 0 0-.718-.718h-2.676v.718a.718.718 0 0 1-.718.717M296.807 63.87h.718v-2.505h-.718a.719.719 0 0 1-.718-.718v3.94c0-.396.323-.717.718-.717m-.717 4.66v.101l.009.006a.692.692 0 0 1-.01-.108m.718-16.483h.718V49.54h-.718a.719.719 0 0 1-.718-.718v3.94c0-.396.323-.717.718-.717" fill="#4B4B48"/><path d="M296.807 59.929h.718v-2.506h-.718a.719.719 0 0 1-.718-.718v3.942c0-.397.323-.718.718-.718m0-11.824h.718v-2.506h-.718a.719.719 0 0 1-.718-.718v3.942c0-.397.323-.718.718-.718m.718 41.07v-1.532h-.529c-.29.265-.592.516-.907.753v.605l.24.358a.716.716 0 0 1 .478-.184h.718m-.718-21.364h.718v-2.505h-.718a.719.719 0 0 1-.718-.718v3.941a.72.72 0 0 1 .718-.718m0-27.589h.718v-3.163h2.895a.718.718 0 0 1-.718-.717v-.718h-2.895a.719.719 0 0 0-.718.718v4.598c0-.397.323-.718.718-.718" fill="#4B4B48"/><path d="M296.807 44.163h.718v-2.505h-.718a.719.719 0 0 1-.718-.718v3.941a.72.72 0 0 1 .718-.718m0 11.824h.718v-2.505h-.718a.719.719 0 0 1-.718-.718v3.941a.72.72 0 0 1 .718-.718m.045 13.26c.232.207.456.421.673.644v-.644h-.673m.673 21.909v-.545h-.363l.363.545" fill="#4B4B48"/><path d="M296.807 41.658h3.942a.719.719 0 0 0 0-1.436h-3.942a.719.719 0 0 0 0 1.436m9.027-.718c0 .396.321.718.718.718h3.94a.718.718 0 1 0 0-1.436h-3.94a.718.718 0 0 0-.718.718m-9.027 4.66h3.942a.719.719 0 0 0 0-1.437h-3.942a.719.719 0 0 0 0 1.436m9.027-.718c0 .397.321.718.718.718h3.94a.718.718 0 1 0 0-1.436h-3.94a.718.718 0 0 0-.718.718m-9.027 4.659h3.942a.719.719 0 0 0 0-1.435h-3.942a.719.719 0 0 0 0 1.436m9.027-.718c0 .396.321.718.718.718h3.94a.718.718 0 1 0 0-1.436h-3.94a.718.718 0 0 0-.718.718m-9.027 4.659h3.942a.719.719 0 0 0 0-1.436h-3.942a.719.719 0 0 0 0 1.436m9.027-.718c0 .396.321.718.718.718h3.94a.718.718 0 1 0 0-1.436h-3.94a.718.718 0 0 0-.718.718m-9.027 4.659h3.942a.719.719 0 0 0 0-1.436h-3.942a.719.719 0 0 0 0 1.436m9.027-.718c0 .397.321.718.718.718h3.94a.718.718 0 1 0 0-1.436h-3.94a.718.718 0 0 0-.718.718m-9.027 4.66h3.942a.719.719 0 0 0 0-1.436h-3.942a.719.719 0 0 0 0 1.436m9.027-.718c0 .396.321.718.718.718h3.94a.718.718 0 1 0 0-1.436h-3.94a.718.718 0 0 0-.718.718m-9.027 4.659h3.942a.719.719 0 0 0 0-1.436h-3.942a.719.719 0 0 0 0 1.436m9.027-.718c0 .396.321.718.718.718h3.94a.718.718 0 1 0 0-1.436h-3.94a.718.718 0 0 0-.718.718m-8.982 4.659h3.897a.719.719 0 0 0 0-1.436h-3.942a.719.719 0 0 0-.709.82c.259.195.51.401.754.616m8.982-.717c0 .396.321.717.718.717h3.94a.718.718 0 1 0 0-1.436h-3.94a.718.718 0 0 0-.718.718m-4.367 3.941a.719.719 0 0 0-.718-.717h-1.733c.3.458.572.937.81 1.435h.923a.719.719 0 0 0 .718-.717m4.367-.001c0 .397.321.718.718.718h3.94a.718.718 0 1 0 0-1.435h-3.94a.718.718 0 0 0-.718.718m-4.367 3.941a.719.719 0 0 0-.718-.718h-.043c.107.46.188.93.243 1.407a.718.718 0 0 0 .518-.69m4.367.001c0 .396.321.718.718.718h3.94a.718.718 0 1 0 0-1.436h-3.94a.718.718 0 0 0-.718.718m-4.367 3.941a.717.717 0 0 0-.493-.681c-.044.474-.115.94-.212 1.398a.718.718 0 0 0 .705-.717m4.367 0c0 .397.321.718.718.718h3.94a.718.718 0 1 0 0-1.436h-3.94a.718.718 0 0 0-.718.718m-5.745 2.887a12.16 12.16 0 0 1-.708 1.436h8.467a5.26 5.26 0 0 1 3.074-1.007c.192 0 .381.013.57.035a.718.718 0 0 0-.67-.464h-10.733m-1.752 2.967c-.409.514-.858.994-1.34 1.436h8.736c.164-.51.392-.994.675-1.436h-8.071m-.812 2.968h-.718a.716.716 0 0 0-.479.184l.834 1.252h8.374a6.178 6.178 0 0 1-.086-1.436h-7.925" fill="#4B4B48"/><path fill="#D9D9D3" d="M301.138 35.624h5.572v-1.49h-5.572z"/><path d="M301.138 35.624h5.572v-1.49h-5.572v1.49zm-.718 1.435h7.008a.718.718 0 0 0 .718-.717v-2.927a.718.718 0 0 0-.718-.718h-7.008a.718.718 0 0 0-.718.718v2.927c0 .396.322.717.718.717z" fill="#4B4B48"/><path d="M288.654 89.45c1.118 0 2.198-.17 3.215-.483l-3.234-4.843-3.168 4.851a10.9 10.9 0 0 0 3.187.475" fill="#D9D9D3"/><path d="M284.543 70.87a.56.56 0 1 1 0-1.121.56.56 0 0 1 0 1.12zm-1.042.852c-.006.004-1.056.623-2.29 2.446-1.162 1.72-1.528 3.396-1.532 3.412a.718.718 0 0 1-1.404-.294c.015-.08.419-1.958 1.747-3.922 1.447-2.138 2.726-2.866 2.78-2.896a.717.717 0 0 1 .7 1.254zm16.093 6.788c0-6.032-4.908-10.94-10.94-10.94-6.033 0-10.94 4.908-10.94 10.94 0 3.64 1.788 6.867 4.53 8.857l5.814-8.63a.717.717 0 0 1 .596-.316h.001c.24 0 .463.12.597.32l5.77 8.657c2.765-1.988 4.572-5.23 4.572-8.888z" fill="#D9D9D3"/><path d="M283.033 67.486a12.452 12.452 0 0 0-6.119 7.105 12.21 12.21 0 0 0-.626 3.442 12.312 12.312 0 0 0 1.78 6.883 12.465 12.465 0 0 0 3.372 3.644l.804-1.193c-2.742-1.99-4.53-5.218-4.53-8.857 0-6.032 4.907-10.94 10.94-10.94 6.032 0 10.94 4.908 10.94 10.94 0 3.658-1.807 6.9-4.573 8.888l.798 1.197a12.352 12.352 0 0 0 2.518-2.388 12.285 12.285 0 0 0 1.752-2.967 12.191 12.191 0 0 0 .885-3.568 12.21 12.21 0 0 0-.025-2.57 12.273 12.273 0 0 0-1.933-5.349 12.35 12.35 0 0 0-2.164-2.506 12.762 12.762 0 0 0-.754-.617l-.009-.006a12.31 12.31 0 0 0-7.435-2.49 12.336 12.336 0 0 0-5.621 1.352m8.836 21.481a10.903 10.903 0 0 1-3.215.483c-1.109 0-2.178-.167-3.187-.475l-.814 1.247a12.309 12.309 0 0 0 1.877.48h4.248c.659-.114 1.3-.28 1.918-.495l-.827-1.24" fill="#4B4B48"/><path d="M284.543 69.748a.56.56 0 1 0 0 1.12.56.56 0 0 0 0-1.12m-1.741.72c-.054.03-1.333.758-2.78 2.896-1.328 1.964-1.732 3.843-1.747 3.922a.717.717 0 0 0 1.404.294c.004-.016.37-1.693 1.533-3.412 1.233-1.823 2.283-2.442 2.29-2.446a.718.718 0 0 0-.7-1.254" fill="#4B4B48"/><path d="M282.411 91.028l5.616-8.6a.718.718 0 0 1 1.198-.006l5.742 8.6a.716.716 0 0 1-.597 1.117h-11.358a.716.716 0 0 1-.6-1.11zm6.24-10.6l-8.324 12.354h16.557l-8.233-12.354z" fill="#D9D9D3"/><path d="M297.525 91.156l-.363-.545L296.09 89l-1.068-1.603-5.77-8.657a.719.719 0 0 0-.596-.32h-.001a.717.717 0 0 0-.596.317l-5.814 8.63-3.65 5.414h1.733l8.324-12.354 8.233 12.354h1.726l-1.085-1.626" fill="#4B4B48"/><path d="M293.027 90.703h-8.689l.315-.481 3.982-6.098 4.061 6.083.33.496zm-10.015 1.436h11.358a.718.718 0 0 0 .597-1.117l-5.742-8.6a.72.72 0 0 0-1.198.006l-5.616 8.6a.717.717 0 0 0 .6 1.11z" fill="#4B4B48"/><path d="M320.863 92.673c-.037-2.902-2.232-5.263-4.895-5.263h-.056a4.544 4.544 0 0 0-.815.086.717.717 0 0 1-.757-.342c-.742-1.264-2.05-2.049-3.418-2.049-.257 0-.517.028-.772.082-2.203.465-3.636 2.8-3.195 5.203.07.378.183.745.338 1.09a.718.718 0 0 1-.308.924 3.13 3.13 0 0 0-.543.378h14.42v-.109" fill="#D9D9D3"/><path d="M322.299 92.655a7.094 7.094 0 0 0-.63-2.838c-.234-.518-.53-1-.874-1.436-1.166-1.47-2.9-2.407-4.827-2.407h-.075a5.82 5.82 0 0 0-.583.038 5.879 5.879 0 0 0-.358-.452 5.57 5.57 0 0 0-1.863-1.407 5.218 5.218 0 0 0-.518-.206 5.148 5.148 0 0 0-1.031-.239l-.047-.004a5.061 5.061 0 0 0-1.64.078 5.26 5.26 0 0 0-2.005.894 5.706 5.706 0 0 0-1.44 1.531 6.108 6.108 0 0 0-.958 2.968c-.027.47 0 .952.086 1.436l.007.038c.052.286.124.568.215.841a4.723 4.723 0 0 0-1.177 1.292h1.861a3.13 3.13 0 0 1 .543-.378.718.718 0 0 0 .308-.924 4.73 4.73 0 0 1-.338-1.09c-.441-2.403.992-4.738 3.195-5.203.255-.054.515-.082.772-.082 1.368 0 2.676.785 3.418 2.05.154.263.457.4.757.341.273-.053.547-.082.815-.085h.056c2.663 0 4.858 2.36 4.895 5.262v.109h1.434c.002-.042.002-.085.002-.127" fill="#4B4B48"/><path d="M205.14 80.142v-.028c0-4.19-3.408-7.6-7.6-7.6-4.19 0-7.599 3.41-7.599 7.6v.028h15.199" fill="#D9D9D3"/><path d="M197.54 72.514c4.192 0 7.6 3.41 7.6 7.6v.028h1.436v-.028c0-3.48-1.979-6.505-4.87-8.014a8.956 8.956 0 0 0-3.448-.99v.686a.718.718 0 0 1-.718.718" fill="#4B4B48"/><path d="M188.505 80.142h1.436v-.028c0-4.19 3.409-7.6 7.6-7.6a.719.719 0 0 1-.719-.718v-.686a9.038 9.038 0 0 0-6.695 3.847 8.984 8.984 0 0 0-1.622 5.157v.028" fill="#4B4B48"/><path fill="#D9D9D3" d="M213.463 92.722h4.347V81.995h-4.347z"/><path d="M218.29 81.875h-4.827v.12h4.347v10.727h-4.347v.06h5.783V81.277a.709.709 0 0 0-.076-.32l-.227.5a.719.719 0 0 1-.652.418" fill="#4B4B48"/><path fill="#D9D9D3" d="M213.045 76.743h4.765V66.016h-4.765z"/><path d="M213.045 76.743h4.765V66.016h-4.765v10.727zm2.383-11.443a4.211 4.211 0 0 1-2.36-.72h-.74a.718.718 0 0 0-.718.718v11.624h7.636V65.298a.718.718 0 0 0-.718-.718h-.74a4.211 4.211 0 0 1-2.36.72z" fill="#4B4B48"/><path d="M213.326 80.44h4.504l.951-2.082h-7.055l.724 1.784h.295c.24 0 .45.117.581.298" fill="#D9D9D3"/><path d="M211.61 76.922h-.952a.717.717 0 0 0-.665.988l.908 2.232h1.55l-.725-1.784h7.055l-.951 2.082h-4.504a.71.71 0 0 1 .137.42v1.015h4.828c.28 0 .535-.163.652-.419l.227-.498 1.383-3.02a.718.718 0 0 0-.653-1.016h-8.29" fill="#4B4B48"/><path d="M212.628 61.064c0 1.544 1.257 2.8 2.8 2.8 1.544 0 2.8-1.256 2.8-2.8 0-1.544-1.256-2.8-2.8-2.8a2.804 2.804 0 0 0-2.8 2.8" fill="#D9D9D3"/><path d="M215.428 58.264c1.544 0 2.8 1.256 2.8 2.8 0 1.544-1.256 2.8-2.8 2.8a2.804 2.804 0 0 1-2.8-2.8c0-1.544 1.257-2.8 2.8-2.8a.719.719 0 0 1-.718-.718v-.656a4.242 4.242 0 0 0-3.518 4.174 4.235 4.235 0 0 0 4.236 4.236 4.211 4.211 0 0 0 2.963-1.213 4.223 4.223 0 0 0 1.273-3.023 4.242 4.242 0 0 0-3.518-4.174v.656a.718.718 0 0 1-.718.718" fill="#4B4B48"/><path d="M214.71 57.546a.719.719 0 0 0 1.436 0V50.51a.718.718 0 1 0-1.436 0v7.036" fill="#4B4B48"/><path fill="#D9D9D3" d="M176.794 92.722h4.764V81.995h-4.764z"/><path d="M176.794 92.722h4.764V81.995h-4.764v10.727zm5.182.06V81.875h-6.14a.718.718 0 0 1-.478-.183v11.09h6.618z" fill="#4B4B48"/><path fill="#D9D9D3" d="M176.794 76.743h4.764V66.016h-4.764z"/><path d="M176.794 76.743h4.764V66.016h-4.764v10.727zm6.2.179V65.298a.718.718 0 0 0-.718-.718h-.74a4.211 4.211 0 0 1-2.36.72 4.211 4.211 0 0 1-2.36-.72h-.74a.718.718 0 0 0-.718.718v11.624h7.636z" fill="#4B4B48"/><path fill="#D9D9D3" d="M175.474 78.358l.846 2.082h5.258l.951-2.082h-7.055"/><path d="M181.578 80.44h-5.258l-.846-2.082h7.055l-.951 2.082zm-5.741 1.435h6.139V80.86c0-.396.321-.717.718-.717h.599l1.008-2.203a.718.718 0 0 0-.653-1.017h-9.242a.717.717 0 0 0-.664.988l1.43 3.518a.718.718 0 0 0 .664.447z" fill="#4B4B48"/><path d="M176.376 61.064c0 1.544 1.257 2.8 2.8 2.8 1.544 0 2.8-1.256 2.8-2.8 0-1.544-1.256-2.8-2.8-2.8a2.804 2.804 0 0 0-2.8 2.8" fill="#D9D9D3"/><path d="M179.176 65.3a4.235 4.235 0 0 0 4.236-4.236 4.242 4.242 0 0 0-3.518-4.174v.656a.718.718 0 0 1-.718.718c1.544 0 2.8 1.256 2.8 2.8 0 1.544-1.256 2.8-2.8 2.8a2.804 2.804 0 0 1-2.8-2.8c0-1.544 1.257-2.8 2.8-2.8a.719.719 0 0 1-.718-.718v-.656a4.242 4.242 0 0 0-3.518 4.174 4.235 4.235 0 0 0 4.236 4.236" fill="#4B4B48"/><path d="M179.176 58.264a.718.718 0 0 0 .718-.718V50.51a.718.718 0 1 0-1.436 0v7.036c0 .397.322.718.718.718" fill="#4B4B48"/><path d="M212.027 81.577h-28.615v11.205h12.21v-5.97a.719.719 0 0 1 1.435 0v5.97h1.178v-5.97a.718.718 0 1 1 1.435 0v5.97h12.357V81.577" fill="#D9D9D3"/><path d="M213.463 92.722V80.86a.717.717 0 0 0-.718-.718h-30.051a.718.718 0 0 0-.718.718v11.923h1.436V81.577h28.615v11.205h1.436v-.06M197.54 72.514a.718.718 0 0 0 .718-.718v-5.008a.718.718 0 1 0-1.436 0v5.008c0 .397.323.718.718.718" fill="#4B4B48"/><path d="M197.057 86.812a.718.718 0 1 0-1.436 0v5.97h1.436v-5.97m2.613 0a.718.718 0 1 0-1.435 0v5.97h1.435v-5.97" fill="#4B4B48"/><path d="M227.046 81.517V54.85c0-.396.32-.718.718-.718h4.967c.397 0 .718.322.718.718v36.844c.395-2.656 2.26-4.81 4.665-5.492V49.8h-16.018v42.982h4.95V81.517" fill="#D9D9D3"/><path d="M220.66 92.782h1.436V49.8h6.944a.718.718 0 0 1-.7-.88l.13-.556h-7.092a.718.718 0 0 0-.718.718v43.7M238.114 49.8v36.4a5.97 5.97 0 0 1 1.436-.222V49.082a.718.718 0 0 0-.718-.718h-1.202l.13.557a.718.718 0 0 1-.7.88l1.054-.001" fill="#4B4B48"/><path fill="#D9D9D3" d="M228.482 92.782h3.53v-7.089h-3.53zm0-25.816h3.53v-2.022h-3.53zm0-3.458h3.53v-2.022h-3.53zm0-6.916h3.53v-1.025h-3.53zm0 3.458h3.53v-2.022h-3.53zm0 10.375h3.53v-2.023h-3.53zm0 6.916h3.53V75.32h-3.53zm0 6.916h3.53v-2.022h-3.53zm0-10.374h3.53V71.86h-3.53zm0 6.917h3.53v-2.023h-3.53z"/><path d="M232.73 82.235h-.717v2.022h.718c.397 0 .718.322.718.718v-3.458a.718.718 0 0 1-.718.718m-.001-6.916h-.717v2.022h.718c.397 0 .718.322.718.718v-3.458a.718.718 0 0 1-.718.718m-4.967-4.894h.718v-2.023h-.718a.718.718 0 0 1-.718-.718v3.459c0-.397.32-.718.718-.718m0 10.375h.718v-2.023h-.718a.718.718 0 0 1-.718-.718v3.458c0-.396.32-.718.718-.718m4.966-2.022h-.717v2.022h.718c.397 0 .718.322.718.718V78.06a.718.718 0 0 1-.718.718m-4.967 5.479h.718v-2.022h-.718a.718.718 0 0 1-.718-.718v3.458c0-.396.32-.718.718-.718m5.685 7.436v-6.718a.718.718 0 0 1-.718.718h-.718v7.089h1.357v-.127c.004-.327.032-.648.079-.962" fill="#4B4B48"/><path d="M227.764 73.883h.718V71.86h-.718a.718.718 0 0 1-.718-.718V74.6c0-.397.32-.718.718-.718m0-13.832h.718v-2.022h-.718a.718.718 0 0 1-.718-.718v3.458c0-.396.32-.718.718-.718m4.966-2.022h-.717v2.022h.718c.397 0 .718.322.718.718V57.31a.718.718 0 0 1-.718.718m-4.967 5.48h.718v-2.022h-.718a.718.718 0 0 1-.718-.718v3.458c0-.396.32-.718.718-.718m0-6.916h.718v-1.025h3.53v1.025h.719c.397 0 .718.321.718.718v-2.46a.718.718 0 0 0-.718-.719h-4.967a.718.718 0 0 0-.718.718v2.46c0-.396.32-.717.718-.717m0 20.749h.718V75.32h-.718a.718.718 0 0 1-.718-.718v3.458c0-.396.32-.718.718-.718" fill="#4B4B48"/><path d="M227.764 66.966h.718v-2.022h-.718a.718.718 0 0 1-.718-.718v3.458c0-.396.32-.718.718-.718m4.966 1.436h-.717v2.023h.718c.397 0 .718.321.718.718v-3.459a.718.718 0 0 1-.718.718" fill="#4B4B48"/><path d="M232.73 64.944h-.717v2.022h.718c.397 0 .718.322.718.718v-3.458a.718.718 0 0 1-.718.718m-.001 6.916h-.717v2.023h.718c.397 0 .718.321.718.718v-3.458a.718.718 0 0 1-.718.718m-.001-10.375h-.717v2.022h.718c.397 0 .718.322.718.718v-3.458a.718.718 0 0 1-.718.718m-4.967 24.207a.718.718 0 0 1-.718-.718v7.807h1.436v-7.089h-.718" fill="#4B4B48"/><path fill="#D9D9D3" d="M236.156 48.364l-.945-4.099h-4.322l-.945 4.099h6.212"/><path d="M235.211 44.265l.945 4.099h-6.212l.945-4.099h4.322zm-6.732 5.264a.718.718 0 0 0 .561.27h8.02a.718.718 0 0 0 .7-.878l-.13-.557-.36-1.565-.789-3.413a.717.717 0 0 0-.7-.557h-5.463a.717.717 0 0 0-.7.557l-1.148 4.978-.13.557a.723.723 0 0 0 .14.608zm-.715 8.499h4.967a.718.718 0 1 0 0-1.436h-4.967a.718.718 0 1 0 0 1.436m0 3.458h4.967a.718.718 0 1 0 0-1.436h-4.967a.718.718 0 1 0 0 1.436m0 3.458h4.967a.718.718 0 1 0 0-1.436h-4.967a.718.718 0 1 0 0 1.436m0 3.458h4.967a.718.718 0 1 0 0-1.436h-4.967a.718.718 0 1 0 0 1.436m0 3.458h4.967a.718.718 0 1 0 0-1.435h-4.967a.718.718 0 1 0 0 1.436m0 3.458h4.967a.718.718 0 1 0 0-1.436h-4.967a.718.718 0 1 0 0 1.436m0 3.458h4.967a.718.718 0 1 0 0-1.436h-4.967a.718.718 0 1 0 0 1.436m0 3.458h4.967a.718.718 0 1 0 0-1.436h-4.967a.718.718 0 1 0 0 1.436m4.966 2.022h-4.966a.718.718 0 1 0 0 1.436h4.967a.718.718 0 1 0 0-1.436" fill="#4B4B48"/><path d="M71.811 36.528l-2.613 2.815V92.64h9.205V58.548c-.355-1.08-2.937-8.985-3.906-13.371l-1.922-6.75a51.323 51.323 0 0 0-.764-1.899" fill="#D9D9D3"/><path d="M67.762 92.736v.046h11.052V72.833c0-.396.322-.718.718-.718h.307V58.433a.718.718 0 0 0-.036-.225c-.011-.032-.362-1.098-.859-2.667v.116a.718.718 0 0 1-1.409.193l-3.038-10.673c.969 4.386 3.55 12.292 3.906 13.371V92.64h-9.205V39.343l2.613-2.815c.21.492.478 1.143.764 1.9l-.01-.04a.718.718 0 0 1 .175-.698l.778-.801a41.545 41.545 0 0 0-.842-1.954.718.718 0 0 0-1.175-.183l-3.547 3.82a.718.718 0 0 0-.192.489v53.675" fill="#4B4B48"/><path d="M77.391 50.1c-.168-4.256-.58-9.98-1.583-13.508l-1.75 1.801L77.392 50.1" fill="#D9D9D3"/><path d="M75.808 36.592c1.003 3.529 1.415 9.252 1.583 13.508L74.06 38.393l1.749-1.8zM72.74 37.69a.718.718 0 0 0-.176.697l.011.04 4.96 17.423a.718.718 0 0 0 1.409-.193v-.116c.002-.854-.007-5.686-.42-10.699-.306-3.694-.83-7.487-1.734-9.857a.718.718 0 0 0-1.185-.244l-2.865 2.95z" fill="#4B4B48"/><path d="M84.73 70.095c-1.355 0-2.487.87-2.736 2.02h5.473c-.248-1.15-1.38-2.02-2.736-2.02" fill="#D9D9D3"/><path d="M81.994 72.115c.249-1.15 1.38-2.02 2.737-2.02 1.356 0 2.488.87 2.736 2.02h1.456a3.81 3.81 0 0 0-1.117-2.217 4.339 4.339 0 0 0-2.66-1.22.756.756 0 0 1-.83 0c-1.967.18-3.541 1.62-3.778 3.437h1.456" fill="#4B4B48"/><path d="M90.718 92.737h1.93v-5.954a.718.718 0 0 1 1.437 0v5.954h2.776v-5.954a.718.718 0 0 1 1.436 0v5.954h2.776v-5.954a.718.718 0 0 1 1.436 0v5.954h2.186v-10.71H90.718v10.71" fill="#D9D9D3"/><path d="M106.131 81.31a.718.718 0 0 0-.718-.719H90.718v1.436h13.977v10.71h-2.186v.045h3.622V81.309m-7.834 11.476h2.776v-.048h-2.776zm-4.212 0h2.776v-.048h-2.776zm-3.367 0h1.93v-.048h-1.93zm-5.572-24.107a.759.759 0 1 0-.829-1.27.759.759 0 0 0 .83 1.27" fill="#4B4B48"/><path d="M81.917 91.898c0-3.903.954-8.104 3.048-8.104 2.095 0 3.049 4.2 3.049 8.104 0 .28-.006.56-.016.839h1.284V73.551H80.25v19.186h1.683c-.01-.28-.016-.56-.016-.839" fill="#D9D9D3"/><path d="M90.718 82.027v-9.194a.718.718 0 0 0-.718-.718H79.532a.718.718 0 0 0-.718.718v19.949h3.12l-.001-.045H80.25V73.551h9.032v19.186h-1.284l-.002.045h2.722V82.027m3.367 4.756a.718.718 0 0 0-1.436 0v5.999h1.436v-6m4.212.001a.718.718 0 0 0-1.436 0v5.999h1.436v-6m4.213.001a.718.718 0 0 0-1.437 0v5.999h1.436v-6" fill="#4B4B48"/><path d="M86.578 91.898c0-1.901-.23-3.68-.65-5.007-.43-1.366-.875-1.661-.963-1.661-.087 0-.532.295-.963 1.661-.418 1.327-.649 3.106-.649 5.007 0 .28.005.56.016.839h3.193c.01-.279.016-.56.016-.839" fill="#D9D9D3"/><path d="M83.369 92.737c-.01-.279-.016-.56-.016-.839 0-1.901.23-3.68.65-5.007.43-1.366.875-1.661.962-1.661.088 0 .533.295.963 1.661.42 1.327.65 3.106.65 5.007 0 .28-.005.56-.016.839H83.37zm4.645-.839c0-3.903-.954-8.104-3.049-8.104-2.094 0-3.048 4.2-3.048 8.104 0 .28.006.56.016.839l.002.045h6.061l.002-.045c.01-.28.016-.56.016-.839z" fill="#4B4B48"/><path d="M49.848 91.49a6.206 6.206 0 0 1-.296-1.434h-2.833a.714.714 0 0 1-.472-.178v2.884h2.436a4.725 4.725 0 0 1 1.165-1.272m-.253-2.87c.092-.626.28-1.226.548-1.779h-3.424a.714.714 0 0 1-.472-.178v2.135a.714.714 0 0 1 .472-.178h2.876m1.522-3.215a5.347 5.347 0 0 1 2.825-1.623 5.088 5.088 0 0 1 2.502.097v-.252h-9.725a.714.714 0 0 1-.472-.178v2.134a.714.714 0 0 1 .472-.178h4.398m5.327-3.215v-.68l-.13-1.098H46.72a.714.714 0 0 1-.472-.178v2.135a.714.714 0 0 1 .472-.178h9.725m-1.441-12.859l-.21-1.778h-8.075a.714.714 0 0 1-.472-.178v2.134a.714.714 0 0 1 .472-.178h8.285m.38 3.215l-.21-1.779h-8.455a.714.714 0 0 1-.472-.178v2.135a.714.714 0 0 1 .472-.178h8.665m.38 3.214l-.21-1.778h-8.835a.714.714 0 0 1-.472-.178v2.134a.714.714 0 0 1 .472-.178h9.045m-1.14-9.643l-.268-2.259h-8.11v2.437a.715.715 0 0 1 .473-.178h7.905m1.52 12.858l-.21-1.779h-9.215a.714.714 0 0 1-.472-.178v2.135a.714.714 0 0 1 .472-.178h9.425" fill="#D9D9D3"/><path fill="#4B4B48" d="M46.247 92.762v.022h2.423l.013-.022h-2.436m8.109-28.903l-.17-1.436h-7.94v1.436h8.11m.437 3.695l-.17-1.436H46.72a.715.715 0 0 0-.472.178v1.08c.126.11.29.178.472.178h8.074m.38 3.214l-.17-1.436h-8.285a.714.714 0 0 0-.472.178v1.08c.126.11.29.178.472.178h8.455m.38 3.215l-.17-1.436h-8.665a.714.714 0 0 0-.472.178v1.08c.126.11.29.178.472.178h8.835m.38 3.214l-.17-1.436H46.72a.714.714 0 0 0-.472.178v1.08a.71.71 0 0 0 .472.178h9.215m.379 3.215l-.17-1.436H46.72a.714.714 0 0 0-.472.178v1.08c.126.11.29.178.472.178h9.595m.129 3.215V82.19h-9.725a.714.714 0 0 0-.472.178v1.08c.126.11.29.178.472.178h9.725m-6.301 3.215a5.91 5.91 0 0 1 .974-1.436H46.72a.714.714 0 0 0-.472.178v1.08c.126.11.29.178.472.178h3.424m-.592 3.215a6.205 6.205 0 0 1 .043-1.436h-2.876a.714.714 0 0 0-.472.178v1.08c.126.11.29.178.472.178h2.833"/><path fill="#D9D9D3" d="M56.444 69.285V52.558h-1.978l1.978 16.727"/><path d="M54.356 63.859l2.088 17.651V69.285l-1.978-16.727h1.978v-1.436h-2.786a.718.718 0 0 0-.713.802l1.411 11.935" fill="#4B4B48"/><path d="M58.827 44.05h5.41a.718.718 0 0 1 0 1.437h-5.41a.718.718 0 0 1 0-1.436zm.572 41.962c.195-.023.39-.035.583-.037h.075c2.149 0 4.061 1.165 5.208 2.936V42.224H57.88v42.321a5.666 5.666 0 0 1 1.519 1.467z" fill="#D9D9D3"/><path d="M56.444 52.558v31.321c.506.149.99.374 1.436.666V42.224h2.061a.718.718 0 0 1-.718-.718v-.718h-2.061a.718.718 0 0 0-.718.718v11.052" fill="#4B4B48"/><path d="M60.66 41.506a.718.718 0 0 1-.719.718h5.324v46.687a7.04 7.04 0 0 1 1.123 3.744l-.001.127h.314V41.506a.718.718 0 0 0-.718-.718H60.66v.718" fill="#4B4B48"/><path d="M59.223 41.506a.718.718 0 0 0 1.436 0v-7.13a.718.718 0 0 0-1.436 0v7.13m-.396 3.981h5.41a.718.718 0 0 0 0-1.436h-5.41a.718.718 0 0 0 0 1.436" fill="#4B4B48"/><path d="M64.952 92.673c-.036-2.902-2.232-5.263-4.895-5.263H60a4.534 4.534 0 0 0-.814.086.718.718 0 0 1-.757-.342c-.74-1.264-2.05-2.049-3.417-2.049-.257 0-.518.028-.773.082-2.203.465-3.636 2.8-3.195 5.203.07.378.183.745.339 1.09a.718.718 0 0 1-.309.924 3.11 3.11 0 0 0-.542.378h14.42v-.109" fill="#D9D9D3"/><path d="M65.265 88.911c-1.147-1.77-3.06-2.937-5.208-2.937h-.075a5.835 5.835 0 0 0-.583.038 5.666 5.666 0 0 0-1.52-1.467 5.385 5.385 0 0 0-1.435-.666 5.088 5.088 0 0 0-2.502-.097 5.347 5.347 0 0 0-2.825 1.623 5.91 5.91 0 0 0-.974 1.436 6.142 6.142 0 0 0-.511 3.808c.052.286.124.567.216.841a4.725 4.725 0 0 0-1.165 1.272l-.013.02h1.862a3.11 3.11 0 0 1 .542-.378.718.718 0 0 0 .309-.924 4.727 4.727 0 0 1-.339-1.09c-.441-2.403.992-4.738 3.195-5.203.255-.054.516-.082.773-.082 1.367 0 2.676.785 3.417 2.05.154.263.457.4.757.341.273-.053.547-.082.814-.085h.057c2.663 0 4.859 2.36 4.895 5.262v.109h1.435v-.127a7.04 7.04 0 0 0-1.122-3.744" fill="#4B4B48"/><path d="M32.8 28.986c0-.396.322-.718.719-.718h9.035c.396 0 .718.322.718.718v9.684a.718.718 0 0 1-.718.718h-9.035a.718.718 0 0 1-.718-.718v-9.684zm10.54 63.667a.696.696 0 0 1 .364.095h1.107V24.84H31.262v67.934l12.077-.122z" fill="#D9D9D3"/><path d="M30.544 67.187c.397 0 .718.321.718.718V24.84h13.549v67.907h-1.107a.696.696 0 0 0-.365-.095l-12.077.122v.007h14.985v-68.66a.718.718 0 0 0-.718-.717H30.544a.718.718 0 0 0-.718.718v43.064h.718" fill="#4B4B48"/><path d="M34.237 37.952h7.599v-8.248h-7.6v8.248zm-.718 1.436h9.035a.718.718 0 0 0 .718-.718v-9.684a.718.718 0 0 0-.718-.718h-9.035a.718.718 0 0 0-.718.718v9.684c0 .397.321.718.718.718z" fill="#4B4B48"/><path d="M168.665 58.746v16.166h.784V48.803h-1.467v9.227c.38.018.683.331.683.716" fill="#D9D9D3"/><path d="M167.982 48.803h1.467v26.109h1.436V48.085a.718.718 0 0 0-.718-.718h-2.185v1.436" fill="#4B4B48"/><path d="M154.299 74.247h-8.875a.718.718 0 1 1 0-1.436h8.875a.718.718 0 1 1 0 1.436zm0 2.712h-8.875a.718.718 0 1 1 0-1.436h8.875a.718.718 0 1 1 0 1.436zm0 2.712h-8.875a.718.718 0 1 1 0-1.436h8.875a.718.718 0 1 1 0 1.436zm0 2.712h-8.875a.718.718 0 1 1 0-1.436h8.875a.718.718 0 1 1 0 1.436zm0 2.712h-8.875a.718.718 0 1 1 0-1.436h8.875a.718.718 0 1 1 0 1.436zm-8.875-14.996h8.875a.718.718 0 1 1 0 1.436h-8.875a.718.718 0 1 1 0-1.436zm10.118 8.597c0-.16.053-.307.142-.427v-9.851h-11.275v17.41a5.945 5.945 0 0 1 1.72.543h8.17a.718.718 0 1 1 0 1.436h-6.265c.352.384.661.812.92 1.276h5.345a.718.718 0 1 1 0 1.436h-4.741a7.16 7.16 0 0 1 .288 1.921l-.001.137h5.697V78.696z" fill="#D9D9D3"/><path d="M143.515 85.76c.304 0 .602.024.894.069V68.418h11.275v9.851a.715.715 0 0 1 .576-.291h.86V67.7a.718.718 0 0 0-.718-.718h-12.71a.719.719 0 0 0-.719.718v18.086c.157-.014.312-.024.468-.026h.074m12.027 6.817h-5.697c0 .068-.001.136-.004.205h5.7v-.205" fill="#4B4B48"/><path d="M145.424 71.535h8.875a.718.718 0 1 0 0-1.436h-8.875a.718.718 0 1 0 0 1.436m8.875 1.275h-8.875a.718.718 0 1 0 0 1.437h8.875a.718.718 0 1 0 0-1.436m0 2.712h-8.875a.718.718 0 1 0 0 1.436h8.875a.718.718 0 1 0 0-1.436m0 2.712h-8.875a.718.718 0 1 0 0 1.436h8.875a.718.718 0 1 0 0-1.436m0 2.712h-8.875a.718.718 0 1 0 0 1.436h8.875a.718.718 0 1 0 0-1.436m0 2.712h-8.875a.718.718 0 1 0 0 1.436h8.875a.718.718 0 1 0 0-1.436m.718 3.43a.718.718 0 0 0-.718-.718h-8.17a6.38 6.38 0 0 1 1.905 1.436h6.265a.718.718 0 0 0 .718-.718m0 2.711a.718.718 0 0 0-.718-.717h-5.344c.25.448.453.93.603 1.436h4.741a.718.718 0 0 0 .718-.718" fill="#4B4B48"/><path d="M166.546 58.028V25.296h-3.005V43.16h.82c.397 0 .718.321.718.718v14.15h1.467" fill="#D9D9D3"/><path d="M163.541 43.16V25.296h3.005v32.732h1.4l.036.002V24.578a.718.718 0 0 0-.718-.718h-1.515a.719.719 0 0 1-1.41 0h-1.516a.719.719 0 0 0-.718.718V43.16h1.436" fill="#4B4B48"/><path d="M162.79 68.095v-9.35c0-.396.32-.717.717-.717h.136V44.595h-3.005v23.5h2.151" fill="#D9D9D3"/><path d="M160.638 68.095v-23.5h3.005v13.433h1.436v-14.15a.718.718 0 0 0-.718-.718h-4.441a.719.719 0 0 0-.718.718v24.217h1.436" fill="#4B4B48"/><path d="M164.225 59.464v19.33h1.98V75.63c0-.397.322-.718.717-.718h.307V59.464h-3.004" fill="#D9D9D3"/><path d="M163.507 58.028a.718.718 0 0 0-.718.718v9.349h.547c.397 0 .718.321.718.718v9.981h.171v-19.33h3.004v15.448h1.436V58.746a.717.717 0 0 0-.683-.716l-.035-.002h-4.44m1.537-33.586a.719.719 0 0 0 .718-.718V11.77a.718.718 0 1 0-1.436 0v11.955a.719.719 0 0 0 .718.718" fill="#4B4B48"/><path fill="#D9D9D3" d="M156.978 92.782h.784V79.414h-.784z"/><path d="M156.978 79.414h.784v-1.436h-1.502a.715.715 0 0 0-.576.291.713.713 0 0 0-.142.427v14.086h1.436V79.414" fill="#4B4B48"/><path d="M129.998 54.907h3.1l.004-.593v-6.307c-.93.116-2.73.652-4.304 2.935-2.03 2.943-1.955 9.114-1.87 11.145h2.352v-6.462c0-.397.322-.718.718-.718" fill="#D9D9D3"/><path d="M126.249 62.087h.68c-.086-2.031-.16-8.202 1.87-11.145 1.574-2.283 3.372-2.82 4.303-2.935v6.307l-.004.593h1.436l.004-.588V47.27a.718.718 0 1 1-1.436 0v-.706c-1.142.11-3.513.7-5.486 3.562-2.674 3.878-2.132 12.07-2.085 12.705v-.026c0-.397.321-.718.718-.718" fill="#4B4B48"/><path d="M134.538 66.851c0-.396.321-.718.718-.718h3.133c.397 0 .718.322.718.718v16.644a5.2 5.2 0 0 1 1.436.403V63.522h-13.576v24.672h1.436V66.851c0-.396.32-.718.718-.718h3.133c.396 0 .718.322.718.718v21.343h.117a6.029 6.029 0 0 1 1.449-2.961V66.85" fill="#D9D9D3"/><path d="M138.389 63.522h2.154v20.376a5.512 5.512 0 0 1 1.436.92V62.804a.718.718 0 0 0-.718-.718h-2.154v.718a.718.718 0 0 1-.718.717m-12.212 24.673h.79V63.522h3.03a.719.719 0 0 1-.717-.717v-.718h-3.031a.718.718 0 0 0-.718.718V88.6a.718.718 0 0 1 .646-.406" fill="#4B4B48"/><path d="M137.018 58.366a.718.718 0 0 1-.718.718h-4.177a.718.718 0 1 1 0-1.436h4.177c.397 0 .718.322.718.718zm-6.302 3.72h6.955v-5.743h-6.955v5.744z" fill="#D9D9D3"/><path d="M130.716 62.087h6.955v-5.744h-6.955v5.744zm2.382-7.18h-3.1a.719.719 0 0 0-.718.718v7.18c0 .396.322.717.718.717h8.39a.718.718 0 0 0 .719-.717v-7.18a.718.718 0 0 0-.718-.718h-5.29z" fill="#4B4B48"/><path fill="#D9D9D3" d="M129.839 88.194h1.697V67.57h-1.697z"/><path d="M132.254 66.133h-3.133a.718.718 0 0 0-.718.718v21.343h1.436V67.57h1.697v20.625h1.436V66.851a.718.718 0 0 0-.718-.718" fill="#4B4B48"/><path d="M135.974 67.57v16.527a5.224 5.224 0 0 1 1.697-.58V67.57h-1.697" fill="#D9D9D3"/><path d="M138.389 66.133h-3.133a.718.718 0 0 0-.718.718v18.382a5.488 5.488 0 0 1 1.436-1.136V67.569h1.697v15.948a5.135 5.135 0 0 1 1.436-.022V66.851a.718.718 0 0 0-.718-.718m-4.569-18.145a.718.718 0 0 0 .718-.718v-5.09a.718.718 0 1 0-1.436 0v5.09c0 .397.321.718.718.718m-1.697 9.66a.718.718 0 1 0 0 1.436h4.177a.718.718 0 1 0 0-1.436h-4.177" fill="#4B4B48"/><path d="M133.306 91.275a6.147 6.147 0 0 1-.31-1.645h-6.101v2.872h5.274c.308-.48.692-.894 1.137-1.227" fill="#D9D9D3"/><path d="M132.002 92.782c.052-.095.108-.189.167-.28h-5.274V89.63h6.101c-.024-.488.008-.97.093-1.436h-6.912a.718.718 0 0 0-.718.718v3.87h6.543" fill="#4B4B48"/><path d="M148.41 92.567v-.109c-.036-2.902-2.232-5.263-4.895-5.263h-.057a4.53 4.53 0 0 0-.813.086.717.717 0 0 1-.758-.342c-.741-1.263-2.05-2.048-3.417-2.048-.257 0-.517.027-.773.08-2.202.466-3.635 2.8-3.194 5.204.069.378.183.745.338 1.09a.718.718 0 0 1-.31.924 3.12 3.12 0 0 0-.541.378h14.42" fill="#D9D9D3"/><path d="M133.99 92.567a3.12 3.12 0 0 1 .542-.378.718.718 0 0 0 .309-.924 4.726 4.726 0 0 1-.338-1.09c-.441-2.403.992-4.738 3.194-5.203.256-.054.516-.081.773-.081 1.367 0 2.676.785 3.417 2.048.154.264.457.4.758.342a4.53 4.53 0 0 1 .813-.085h.057c2.663 0 4.859 2.36 4.895 5.262v.11h-14.42zm6.553-8.67a5.2 5.2 0 0 0-1.436-.402 5.02 5.02 0 0 0-1.436.022 5.224 5.224 0 0 0-1.697.58c-.54.295-1.023.68-1.436 1.136a6.029 6.029 0 0 0-1.449 2.961 6.243 6.243 0 0 0 .217 3.081 4.694 4.694 0 0 0-1.304 1.507h17.84l.003-.205.001-.137a7.16 7.16 0 0 0-.288-1.921 6.863 6.863 0 0 0-1.523-2.712 6.392 6.392 0 0 0-1.906-1.436 5.945 5.945 0 0 0-2.614-.612h-.074c-.156.003-.31.013-.468.027l-.116.01a5.767 5.767 0 0 0-.878-.979 5.512 5.512 0 0 0-1.436-.92z" fill="#4B4B48"/><path d="M167.982 79.512V92.77h2.663V76.348h-3.005v2.554a.717.717 0 0 1 .342.61" fill="#D9D9D3"/><path d="M169.45 74.912h-2.528a.719.719 0 0 0-.718.718v3.164h1.06c.139 0 .268.04.376.108v-2.554h3.005v16.42h-2.663v.014h4.1V75.63a.718.718 0 0 0-.719-.718h-1.914" fill="#4B4B48"/><path fill="#D9D9D3" d="M164.054 92.769h2.492V80.23h-2.492z"/><path d="M167.982 88.085v-8.573a.717.717 0 0 0-.718-.718h-3.21v1.436h2.492v12.539h-2.492v.013h3.928v-4.697" fill="#4B4B48"/><path fill="#D9D9D3" d="M162.618 79.512v-9.981h-3.42v23.238h3.42V79.512"/><path d="M159.198 92.769h3.42V69.53h-3.42v23.238zm4.856-12.539V68.813a.718.718 0 0 0-.718-.718h-4.856a.719.719 0 0 0-.718.718v23.969h6.292V80.23z" fill="#4B4B48"/><path d="M248.794 92.405a.718.718 0 0 1-.31-.927c.157-.345.272-.711.34-1.089.445-2.402-.999-4.736-3.22-5.202a3.806 3.806 0 0 0-.781-.082c-1.38 0-2.7.786-3.447 2.051a.718.718 0 0 1-.755.34 4.603 4.603 0 0 0-.822-.085h-.058c-2.684 0-4.898 2.36-4.935 5.262v.109h14.533a3.166 3.166 0 0 0-.545-.377" fill="#D9D9D3"/><path d="M251.133 92.665a4.721 4.721 0 0 0-1.112-1.176c.091-.273.163-.553.216-.839.547-2.957-1.12-5.844-3.774-6.716a5.223 5.223 0 0 0-1.64-.265c-.57 0-1.13.099-1.666.28-.51.174-.993.425-1.436.744a5.67 5.67 0 0 0-1.312 1.32 5.95 5.95 0 0 0-.593-.038h-.075a5.97 5.97 0 0 0-1.627.227c-2.406.681-4.27 2.835-4.665 5.49a7.083 7.083 0 0 0-.079.963v.127h1.436v-.109c.037-2.902 2.25-5.263 4.935-5.263h.058c.27.004.547.033.822.086a.718.718 0 0 0 .755-.34c.747-1.265 2.067-2.05 3.447-2.05.26 0 .523.027.782.081 2.22.466 3.664 2.8 3.22 5.202-.07.378-.184.744-.34 1.089a.718.718 0 0 0 .309.927c.194.106.377.233.545.377h1.868l-.074-.117" fill="#4B4B48"/><path d="M15.704 90.006c0-.397.322-.718.718-.718H27.84a.718.718 0 1 1 0 1.436H16.422a.718.718 0 0 1-.718-.718zm.718-3.43H27.84a.718.718 0 0 1 0 1.436H16.422a.718.718 0 0 1 0-1.436zm0-2.712H27.84a.718.718 0 0 1 0 1.436H16.422a.718.718 0 0 1 0-1.436zm0-2.712H27.84a.718.718 0 0 1 0 1.436H16.422a.718.718 0 0 1 0-1.436zm0-2.712H27.84a.718.718 0 0 1 0 1.436H16.422a.718.718 0 0 1 0-1.436zm0-2.712H27.84a.718.718 0 0 1 0 1.436H16.422a.718.718 0 0 1 0-1.436zm0-2.712H27.84a.718.718 0 0 1 0 1.436H16.422a.718.718 0 0 1 0-1.436zm0-2.712H27.84a.718.718 0 0 1 0 1.436H16.422a.718.718 0 0 1 0-1.436zm-1.509 22.478h14.913v-24.16H14.913v24.16z" fill="#D9D9D3"/><path d="M14.913 92.782v-24.16h14.913v24.16h1.436V67.905a.718.718 0 0 0-.718-.718H14.195a.718.718 0 0 0-.718.718v24.877h1.436" fill="#4B4B48"/><path d="M16.422 71.74H27.84a.718.718 0 0 0 0-1.436H16.422a.718.718 0 0 0 0 1.436m0 2.712H27.84a.718.718 0 0 0 0-1.436H16.422a.718.718 0 0 0 0 1.436m0 2.712H27.84a.718.718 0 0 0 0-1.436H16.422a.718.718 0 0 0 0 1.436m0 2.712H27.84a.718.718 0 0 0 0-1.436H16.422a.718.718 0 0 0 0 1.436m0 2.712H27.84a.718.718 0 1 0 0-1.436H16.422a.718.718 0 0 0 0 1.436m0 2.712H27.84a.718.718 0 0 0 0-1.436H16.422a.718.718 0 0 0 0 1.436m0 2.712H27.84a.718.718 0 0 0 0-1.436H16.422a.718.718 0 0 0 0 1.436m11.417 2.712a.718.718 0 0 0 0-1.436H16.422a.718.718 0 0 0 0 1.436H27.84" fill="#4B4B48"/><path d="M337.932 88.358a.718.718 0 0 1-.718-.718v-4.806c0-.396.321-.718.718-.718h10.77V79.45h-10.77a.718.718 0 0 1-.718-.718v-4.805c0-.397.321-.718.718-.718h10.77v-4.424h-17.853v23.998h17.853v-4.424h-10.77" fill="#D9D9D3"/><path d="M349.42 88.358h-.718v4.424h1.436V87.64a.718.718 0 0 1-.718.718m0-8.908h-.718v2.666h.718c.396 0 .718.322.718.718v-4.103a.718.718 0 0 1-.718.718m-18.745-12.101h-.544a.719.719 0 0 0-.718.718v24.716h1.436V68.784h17.853v4.424h.718c.396 0 .718.321.718.718v-5.86a.718.718 0 0 0-.718-.718h-18.745" fill="#4B4B48"/><path fill="#D9D9D3" d="M338.65 86.922h10.052v-3.37H338.65z"/><path d="M338.65 86.922h10.052v-3.37H338.65v3.37zm10.77-4.806h-11.488a.718.718 0 0 0-.718.718v4.806c0 .397.321.718.718.718h11.488a.718.718 0 0 0 .718-.718v-4.806a.718.718 0 0 0-.718-.718z" fill="#4B4B48"/><path fill="#D9D9D3" d="M338.65 78.013h10.052v-3.37H338.65z"/><path d="M338.65 78.013h10.052v-3.37H338.65v3.37zm10.77-4.805h-11.488a.718.718 0 0 0-.718.718v4.805c0 .397.321.718.718.718h11.488a.718.718 0 0 0 .718-.718v-4.805a.718.718 0 0 0-.718-.718zm5.188 19.574H4.843a.718.718 0 0 0 0 1.436h349.765a.718.718 0 1 0 0-1.436M96.813 17.684H94.34a.653.653 0 0 1 0-1.306h2.473a.653.653 0 1 1 0 1.306m16.317 0h-4.398a.653.653 0 0 1 0-1.306h4.398a.653.653 0 0 1 0 1.306" fill="#4B4B48"/><path d="M97.11 17.684a.653.653 0 0 1-.63-.487 4.745 4.745 0 0 1 4.583-5.95 4.764 4.764 0 0 1 4.322 2.793c.236-.053.477-.08.721-.08a3.3 3.3 0 0 1 3.303 3.011.653.653 0 0 1-1.3.12 2.002 2.002 0 0 0-2.003-1.826c-.29 0-.572.063-.84.187a.653.653 0 0 1-.901-.413 3.448 3.448 0 0 0-3.301-2.487 3.439 3.439 0 0 0-3.322 4.313.653.653 0 0 1-.631.819m18.586-.653a.663.663 0 1 1-1.325 0 .663.663 0 0 1 1.325 0M56.908 3.962a.663.663 0 1 1-1.326 0 .663.663 0 0 1 1.326 0m9.702.653a.653.653 0 0 1-.653-.653 2.323 2.323 0 0 0-2.32-2.32 2.322 2.322 0 0 0-2.32 2.32.653.653 0 0 1-1.305 0A3.63 3.63 0 0 1 63.637.337a3.63 3.63 0 0 1 3.625 3.625c0 .36-.292.653-.653.653" fill="#4B4B48"/><path d="M60.664 4.615H58.27a.653.653 0 0 1 0-1.305h2.395a.653.653 0 0 1 0 1.305m10.511 0H66.61a.653.653 0 0 1 0-1.305h4.567a.653.653 0 0 1 0 1.305m234.16 7.285h-2.473a.653.653 0 0 1 0-1.306h2.473a.653.653 0 0 1 0 1.305m16.317.001h-4.397a.652.652 0 1 1 0-1.306h4.397a.653.653 0 0 1 0 1.305" fill="#4B4B48"/><path d="M305.635 11.9a.652.652 0 0 1-.63-.487 4.745 4.745 0 0 1 4.583-5.95 4.763 4.763 0 0 1 4.321 2.792c.236-.053.477-.08.722-.08a3.3 3.3 0 0 1 3.303 3.012.653.653 0 0 1-1.3.12 2.001 2.001 0 0 0-2.003-1.826c-.29 0-.573.063-.84.186a.654.654 0 0 1-.901-.413 3.45 3.45 0 0 0-3.302-2.486 3.438 3.438 0 0 0-3.32 4.312.654.654 0 0 1-.633.82m18.587-.653a.663.663 0 1 1-1.326 0 .663.663 0 0 1 1.326 0m-82.682 9.129a.662.662 0 1 1-1.325.001.662.662 0 0 1 1.325 0m9.701.652a.653.653 0 0 1-.653-.653c0-1.279-1.04-2.32-2.32-2.32a2.323 2.323 0 0 0-2.319 2.32.653.653 0 0 1-1.305 0 3.63 3.63 0 0 1 3.625-3.625c2 0 3.625 1.627 3.625 3.625 0 .36-.291.653-.653.653" fill="#4B4B48"/><path d="M245.296 21.029h-2.394a.653.653 0 0 1 0-1.305h2.394a.653.653 0 0 1 0 1.305m10.513 0h-4.568a.653.653 0 0 1 0-1.305h4.568a.653.653 0 0 1 0 1.305m-60.227-8.532h-3.916a.587.587 0 1 1 0-1.175h3.916a.588.588 0 0 1 0 1.175m150.45 13.993h-3.916a.588.588 0 0 1 0-1.175h3.916a.587.587 0 1 1 0 1.175M13.369 16.888H9.453a.587.587 0 1 1 0-1.175h3.916a.587.587 0 0 1 0 1.175" fill="#4B4B48"/></g></svg>