<svg width="68" height="68" xmlns="http://www.w3.org/2000/svg"><g transform="translate(1 1)" fill="none" fill-rule="evenodd"><circle stroke="#000" cx="33" cy="33" r="33"/><g fill-rule="nonzero"><path d="M23.116 51.207V15.72h-1.888c-.821 0-1.493.66-1.493 1.466V49.74c0 .806.672 1.466 1.493 1.466h1.888z" fill="#D37044"/><path d="M23.116 15.721v35.486h20.136c1.617 0 2.94-1.298 2.94-2.885V18.606c0-1.587-1.323-2.885-2.94-2.885H23.116zm4.115 16.102c0-1.987.81-3.788 2.125-5.103a7.47 7.47 0 0 1 5.298-2.181 7.47 7.47 0 0 1 5.297 2.181 7.192 7.192 0 0 1 2.125 5.103 7.19 7.19 0 0 1-2.125 5.103 7.47 7.47 0 0 1-5.297 2.182 7.47 7.47 0 0 1-5.298-2.182 7.193 7.193 0 0 1-2.125-5.103z" fill="#F95C4B"/><path d="M34.654 39.108c4.088 0 7.422-3.273 7.422-7.285 0-4.012-3.334-7.284-7.422-7.284-4.089 0-7.423 3.272-7.423 7.284 0 4.012 3.334 7.285 7.423 7.285z" fill="#69DAF4"/><path d="M43.252 15H21.228C20 15 19 15.981 19 17.187v32.554c0 1.206 1 2.187 2.228 2.187h22.024c2.026 0 3.675-1.618 3.675-3.606V18.606c0-1.988-1.649-3.606-3.675-3.606zM20.47 49.741V17.187c0-.41.34-.745.758-.745h1.153v34.043h-1.153a.752.752 0 0 1-.758-.744zm24.987-1.42c0 1.194-.99 2.164-2.205 2.164H23.85V16.442h19.402c1.216 0 2.205.971 2.205 2.164v29.716z" fill="#000"/><path d="M40.523 26.269l-.017-.021a.72.72 0 0 0-.082-.079 8.21 8.21 0 0 0-5.77-2.352 8.21 8.21 0 0 0-5.77 2.352.723.723 0 0 0-.083.079l-.017.022a7.901 7.901 0 0 0-2.288 5.553c0 2.155.873 4.114 2.289 5.555l.016.02a.735.735 0 0 0 .082.079 8.21 8.21 0 0 0 5.77 2.352 8.21 8.21 0 0 0 5.772-2.353.721.721 0 0 0 .081-.077l.017-.022a7.901 7.901 0 0 0 2.288-5.554 7.902 7.902 0 0 0-2.288-5.554zm-.664 9.67c-.57-.399-1.2-.73-1.872-.984.136-.76.222-1.572.254-2.41h3.06a6.47 6.47 0 0 1-1.442 3.394zm-11.852-3.395h3.06c.03.84.117 1.651.253 2.411a8.551 8.551 0 0 0-1.872.984 6.469 6.469 0 0 1-1.441-3.395zm1.441-4.836c.57.398 1.201.729 1.872.983a17.4 17.4 0 0 0-.254 2.41h-3.06a6.469 6.469 0 0 1 1.442-3.393zm7.916-1.292a7.558 7.558 0 0 0-.328-.726 6.77 6.77 0 0 1 1.76.983c-.357.23-.739.429-1.141.595a10.235 10.235 0 0 0-.29-.852zm-1.118 1.28a8.02 8.02 0 0 1-1.592.16 8.02 8.02 0 0 1-1.593-.16c.45-1.537 1.096-2.436 1.593-2.436.496 0 1.142.899 1.592 2.435zm-3.71 3.406c.03-.72.102-1.39.205-1.999a9.487 9.487 0 0 0 3.825 0c.103.61.175 1.278.204 1.999h-4.233zm4.234 1.442c-.029.721-.101 1.39-.204 2a9.487 9.487 0 0 0-3.825 0 15.882 15.882 0 0 1-.204-2h4.233zm-4.827-6.128c-.106.27-.203.554-.29.852a7.07 7.07 0 0 1-1.141-.594 6.722 6.722 0 0 1 1.76-.984 7.576 7.576 0 0 0-.329.726zm-.29 9.962c.087.298.184.583.29.852.102.26.212.502.329.726a6.723 6.723 0 0 1-1.76-.983 7.08 7.08 0 0 1 1.14-.595zm1.408-.427a8.02 8.02 0 0 1 1.593-.161c.539 0 1.074.056 1.592.161-.45 1.537-1.096 2.436-1.592 2.436-.497 0-1.143-.9-1.593-2.436zm4.303 1.279a9.88 9.88 0 0 0 .29-.852c.403.166.785.365 1.141.595a6.71 6.71 0 0 1-1.76.983 7.67 7.67 0 0 0 .33-.726zm.877-6.128a17.412 17.412 0 0 0-.254-2.41 8.548 8.548 0 0 0 1.872-.984 6.47 6.47 0 0 1 1.442 3.394h-3.06zM32.099 44.41a.728.728 0 0 0 .735-.722.728.728 0 0 0-.735-.721h-.018a.728.728 0 0 0-.735.72c0 .4.33.722.735.722h.018zm5.127-.001a.728.728 0 0 0 .735-.721.728.728 0 0 0-.735-.722H34.21a.728.728 0 0 0-.735.722c0 .398.33.72.735.72h3.016zm1.214 1.587h-7.572a.728.728 0 0 0-.735.721c0 .398.329.721.735.721h7.572a.728.728 0 0 0 .735-.721.728.728 0 0 0-.735-.721zm-8.783-27.665a.728.728 0 0 0-.735-.72h-3.015a.728.728 0 0 0-.735.72c0 .399.329.722.735.722h3.015a.728.728 0 0 0 .735-.722zm1.377.722h.017a.728.728 0 0 0 .735-.721.728.728 0 0 0-.735-.722h-.017a.728.728 0 0 0-.735.722c0 .398.329.72.735.72z" fill="#000"/></g></g></svg>