<?xml version="1.0" encoding="utf-8"?>
<!-- Generator: Adobe Illustrator 22.1.0, SVG Export Plug-In . SVG Version: 6.00 Build 0)  -->
<svg version="1.1" id="Layer_1" xmlns="http://www.w3.org/2000/svg" xmlns:xlink="http://www.w3.org/1999/xlink" x="0px" y="0px"
	 viewBox="0 0 100 60" style="enable-background:new 0 0 100 60;" xml:space="preserve">
<style type="text/css">
	.st0{fill:#FF4B55;}
	.st1{fill:#F5F5F5;}
</style>
<g>
	<path class="st0" d="M100,32.8H0v-31C0,0.8,0.8,0,1.7,0h96.6c1,0,1.7,0.8,1.7,1.7L100,32.8L100,32.8z"/>
	<path class="st1" d="M14.2,16.4c0-5.7,4.2-10.4,9.6-11.2c0.3,0,0.3-0.5,0-0.5c-1.3-0.3-2.8-0.4-4.3-0.2C13.7,5.2,9.1,10.3,9.1,16.2
		C9,23,14.4,28.5,21.1,28.5c0.9,0,1.8-0.1,2.7-0.3c0.3-0.1,0.3-0.5,0-0.5C18.3,26.8,14.2,22.1,14.2,16.4z"/>
	<path class="st1" d="M23.9,19.4L23.3,21l-1.6,0c-0.2,0-0.3,0.3-0.1,0.4l1.3,1l-0.5,1.5c-0.1,0.2,0.2,0.4,0.3,0.2l1.3-0.9l1.3,0.9
		c0.2,0.1,0.4,0,0.3-0.2l-0.5-1.5l1.3-1c0.2-0.1,0.1-0.4-0.1-0.4l-1.6,0l-0.5-1.5C24.2,19.2,23.9,19.2,23.9,19.4z"/>
	<path class="st1" d="M31.8,19.4L31.3,21l-1.6,0c-0.2,0-0.3,0.3-0.1,0.4l1.3,1l-0.5,1.5c-0.1,0.2,0.2,0.4,0.3,0.2l1.3-0.9l1.3,0.9
		c0.2,0.1,0.4,0,0.3-0.2l-0.5-1.5l1.3-1c0.2-0.1,0.1-0.4-0.1-0.4l-1.6,0l-0.5-1.5C32.2,19.2,31.9,19.2,31.8,19.4z"/>
	<path class="st1" d="M27.9,7.1l-0.5,1.5l-1.6,0c-0.2,0-0.3,0.3-0.1,0.4l1.3,1l-0.5,1.5c-0.1,0.2,0.2,0.4,0.3,0.2l1.3-0.9l1.3,0.9
		c0.2,0.1,0.4,0,0.3-0.2L29.2,10l1.3-1c0.2-0.1,0.1-0.4-0.1-0.4l-1.6,0l-0.5-1.5C28.2,6.9,27.9,6.9,27.9,7.1z"/>
	<path class="st1" d="M21.5,11.8L21,13.4l-1.6,0c-0.2,0-0.3,0.3-0.1,0.4l1.3,1l-0.5,1.5c-0.1,0.2,0.2,0.4,0.3,0.2l1.3-0.9l1.3,0.9
		c0.2,0.1,0.4,0,0.3-0.2l-0.5-1.5l1.3-1c0.2-0.1,0.1-0.4-0.1-0.4l-1.6,0l-0.5-1.5C21.9,11.6,21.6,11.6,21.5,11.8z"/>
	<path class="st1" d="M34.2,11.8l-0.5,1.5l-1.6,0c-0.2,0-0.3,0.3-0.1,0.4l1.3,1l-0.5,1.5c-0.1,0.2,0.2,0.4,0.3,0.2l1.3-0.9l1.3,0.9
		c0.2,0.1,0.4,0,0.3-0.2l-0.5-1.5l1.3-1c0.2-0.1,0.1-0.4-0.1-0.4l-1.6,0l-0.5-1.5C34.5,11.6,34.2,11.6,34.2,11.8z"/>
	<rect y="32.8" class="st1" width="100" height="27.2"/>
</g>
</svg>
