<svg id="Layer_1" xmlns="http://www.w3.org/2000/svg" viewBox="0 0 100 60"><style>.st0{fill:#ffd250}.st4{fill:#464655}</style><path class="st0" d="M100 60V1.7c0-1-.8-1.7-1.7-1.7H1.7C.8 0 0 .8 0 1.7V60h100z"/><path d="M36.2 6.9v51.7c0 1 .8 1.7 1.7 1.7h55.2c1 0 1.7-.8 1.7-1.7V6.9c0-1-.8-1.7-1.7-1.7H37.9c-.9 0-1.7.7-1.7 1.7z" fill="#963c3c"/><path d="M18.1 5.2H6.9c-1 0-1.7.8-1.7 1.7v51.7c0 1 .8 1.7 1.7 1.7h11.2V5.2z" fill="#5aa587"/><path d="M29.3 5.2H18.1v55.2h11.2c1 0 1.7-.8 1.7-1.7V6.9c0-1-.7-1.7-1.7-1.7z" fill="#ff7350"/><path class="st0" d="M76.9 46.6c-.1-.4.3-.9.8-1.6.2-.3.5-.6.5-.8H78c-.3 0-.7 0-1.1-.4-.1-.2-.2-.4-.2-.6 0-.5.4-.9.6-1.2-.6-.4-1.2-.9-1.7-1.4-1-1-2.2-1.5-3.5-1.5-.1 1.3.5 2.1 1.2 3 .2.3.4.5.6.8.9 1.3.7 3.9.6 4.2-.1.3-.9 1-1.9.9-.5-.1-1 .1-1.3.4-.1.1-.3.3-.3.6v.1c.1.1.6-.1 1-.3.1-.1.2 0 .3 0 .7.7 1.4.1 1.5 0 .1-.1.2-.1.3 0 .7.6 1.5-.1 1.5-.1.1-.1.2-.1.3 0 .3.2.6.3.9.2.2-.1.3-.2.4-.3 0-.1-.1-.7-.2-1 0-.4-.1-.8-.1-1z"/><path class="st0" d="M84.7 22.1c-.2 0-.4 0-.5.1-.2.3-.2.6-.2.6 0 .1 0 .2-.1.2-.1.1-.1.1-.2.1-.4-.1-1-.5-2-1.3-1.7-1.3-4.3-3.1-6.8-3.5-2.9-.4-5.4.6-6.1 2.2-.7 1.8.8 3.4.8 3.5.1.1.1.2 0 .3-.4.8-.1 1.3.2 1.6.1-.3.2-.4.4-.5.4-.3 1 0 1.8.2.5.2 1 .4 1.6.5 1.6.4 3.5 0 5.1-.3.6-.1 1.2-.2 1.7-.3 1.3-.2 2.7.4 3 1.3.2.4.3 1.4-1.1 2.3-2.5 1.8-13.6 1-14.3.9h-.1c.2.3.5.5.7.6.1 0 .2.2.2.3 0 .1-.1.2-.3.2h-1.1l.1 1.1c0 .1 0 .2-.1.2-.1.1-.1.1-.2.1 0 0-1-.2-1.7-.5l-1.2 1h-.2c-.1 0-.1 0-.2-.1l-.5-1.3-.6 1.2c0 .1-.1.1-.2.1s-.2 0-.2-.1l-.5-.8c-.2.3-.6.7-1 1-.1 0-.2.1-.2 0-.1 0-.1-.1-.2-.2l-.3-.8c-.2.3-.6.7-.9 1H59c-.1 0-.2-.1-.2-.2l-.1-1.3c-.3.2-.7.4-.9.4-.1 0-.2 0-.3-.1-.1-.1-.1-.2 0-.3.4-.7.8-1.6.8-2-.3.3-.6.6-1.1 1-.9.7-2 1.6-2.8 3.2-.6 1.1-1 3.1-.3 4.9.6 1.5 2 2.7 4 3.4-.1-.3-.1-.6-.1-.8 0-1.4.3-2.6.3-2.7 0-.1.2-.2.3-.2.1 0 .2.2.2.3 0 0-.3 1.2-.3 2.5 0 .6.3 1.4.6 2.2.4 1 .7 2.1.6 2.9-.2 1.2-1.7 1.5-3.1 1.3-.4-.1-.8 0-1 .3-.3.2-.4.6-.4 1 0 .2.1.2.1.2.2.1.6 0 .8-.1.1-.1.2 0 .3.1.6.6 1.3 0 1.3 0 .1-.1.3-.1.4 0 .2.2.4.3.7.3.5 0 .9-.4.9-.4.1-.1.2-.1.3-.1.9.4 1.3.2 1.3.2.8-.6.3-2.2.3-2.2v-.2c0-.1.1-.1.2-.1 1.1-.2 1.7-.9 1.9-1.4-.5 0-.9-.2-1.2-.6-.4-.6-.2-1.5.5-2.4 1.2-1.4 1.9-4.3 1.8-5.4 0-.1.1-.3.2-.3s.3.1.3.2c.1 1-.4 3.1-1.2 4.7 1.1-.3 2-.7 3-1.2s2-.9 3.3-1.3c2.1-.7 4-.2 5.5 1.4.8.8 1.6 1.3 2.5 1.9.4.3.9.6 1.3.9 1.2.9 1.2 1.6 1.2 2.4v.8c.1 1.3-.9 1.5-1.4 1.6h-.2c-.1 0-.2 0-.2.1-.5.1-1.2.3-1.4.9v.2c.1 0 .5-.1.8-.2h.2c.1 0 .1.1.1.2.1.3.2.3.3.3.3.1.9-.2 1-.3.1-.1.2-.1.3 0 .3.2.5.4.8.3.3 0 .5-.3.5-.3 0-.1.1-.1.2-.1s.2 0 .2.1c0 0 .2.2.7.4.3.1.4 0 .4-.1.1-.2.1-.7-.2-1-.3-.4-.5-1.1-.4-1.6.1-.5.4-.9.8-1.2.8-.5 1-1.1.9-1.2h-.2c-.4 0-1-.1-1.6-1.3-.6-1 0-2.6.6-4.5.3-.9.6-1.9.8-2.9.6-2.7-1.2-4.8-1.2-4.8-.1-.1-.1-.3 0-.4 1.2-1.1 1.7-2.2 1.6-3.2-.2-1-1.2-1.7-1.9-2-1-.4-2.7-.2-4.4 0-1.4.2-2.7.3-3.6.1-.4-.1-.8-.3-1-.6-.2-.3-.2-.6-.2-.8-.4.2-.7.6-.7.6 0 .1-.1.1-.2.1s-.2 0-.2-.1c-.2-.3-.3-.6-.3-.9.1-.4.3-.8.6-1-1-.3-1.7.5-1.8.5-.1.1-.2.1-.3 0-.5-.3-.8-.9-.8-1.5s.3-1 .8-1.3c.3-.2.7-.2.9-.1.3.1.5.3.6.5.4-.4.4-1.1.4-1.1 0-.1 0-.1.1-.2.1 0 .1-.1.2-.1.6 0 1.1.3 1.4.7.5.6.5 1.4.5 1.9 1-.5.9-1.7.9-1.7 0-.1 0-.2.1-.2.1-.1.2-.1.3 0 1.1.4 1.4 1.3 1.5 2 .3-.3.3-.7.3-.7 0-.1.1-.2.2-.3.1 0 .2 0 .3.1.4.7 1 1.2 1.5 1.5l-.3-.8c0-.1 0-.2.1-.3.1-.1.2-.1.3 0 .5.3.9.6 1.4.9.5.4 1.1.8 1.8 1.2.8.4 1.3.3 1.6.2.3-.1.5-.3.5-.5.1-.3.1-.7 0-.9.2-.1.1-.2-.2-.3zm-31.2 3.8s2 .6 3.8.7c.1 0 .2.1.2.2v.3l-.1.1c.4-.1.8-.1 1.2-.1-.2-.2-.4-.5-.6-.8-.5 0-2.2-.1-3.7-.8-.3-.2-.9-.5-1.2-.3 0 0-.1.1-.1.3 0 .2.2.4.5.4zm6-3.8c-.1 0-.1 0 0 0-.2 0-.2.2-.3.3 0 .1 0 .3.2.4.2.1.4 0 .5-.1 0 0 .2-.2.1-.4-.2-.1-.4-.2-.5-.2z"/><path class="st0" d="M56.9 28.5c.1.3.3.5.5.7.1-.1.2-.3.3-.4.1-.1.4-.2.7-.1.1.1.2.1.3.3.2.5-.2 1.4-.5 2 .2-.1.4-.2.5-.3h.3c.1 0 .1.1.1.2l.1 1.2c.4-.4.7-.9.7-.9.1-.1.2-.1.3-.1.1 0 .2.1.2.2l.3 1c.4-.4.8-.9.8-.9.1-.1.1-.1.2-.1s.2 0 .2.1l.5.7.6-1.3c0-.1.1-.2.3-.1.1 0 .2.1.2.2l.6 1.6 1.2-.7c.1-.1.2-.1.3 0 .4.2 1 .4 1.3.5l-.1-1c0-.1 0-.1.1-.2 0-.1.1-.1.2-.1h.7l-.4-.4c0-.1-.1-.1-.1-.2-.5 0-1.2-.1-1.8-.4l-.4.6c0 .1-.1.1-.2.1h-.2l-1.5-1-.3.8c0 .1-.1.2-.2.2s-.2 0-.2-.1c-.3-.3-.7-.8-.9-1-.2.2-.6.6-1 .8h-.2c-.1 0-.1-.1-.2-.2l-.4-1.1c-.1-.1 0-.3.2-.3.1-.1.3 0 .3.2l.3.8c.4-.3.8-.7.8-.7.1-.1.3-.1.4 0 .2.1.6.6.9.9l.2-.7c0-.1.1-.1.2-.2h.2l1.6 1.1.4-.6c.1-.1.2-.2.3-.1.7.4 1.5.4 1.9.4-.3-.6-.3-1.3-.3-1.4-.4-.2-.9-.4-1.4-.8l-.1.3c0 .1-.1.1-.2.2h-.2l-.8-.6-.1.6c0 .1-.1.2-.1.2H64s-.7-.4-1-.8c-.1-.1-.1-.3 0-.4.1-.1.3-.1.4 0 .2.2.4.4.6.5l.1-.6c0-.1.1-.2.2-.2h.3l.8.6.2-.5c0-.1.1-.1.2-.2.1 0 .2 0 .2.1.7.6 1.4 1 1.8 1.1-.2-.7-.2-1.6-.2-1.6-.4-.2-1-.6-1.5-1.2 0 .3 0 .7-.1.9 0 .1-.1.1-.2.2h-.2s-.6-.3-1-.8c-.1.3-.2.5-.2.7-.1.1-.2.2-.3.1 0 0-.4-.2-.8-.5 0 .4-.1.7-.2.9 0 .1-.1.1-.2.2h-.2s-.5-.3-.9-.6l-.1.4c0 .1-.1.1-.1.2h-.2s-.8-.4-1.2-.9c-.1-.1-.1-.3 0-.4.1-.1.3-.1.4 0 .2.3.5.5.7.6l.1-.5c0-.1.1-.2.2-.2s.2 0 .3.1c.3.2.6.5.8.6.1-.3.1-.8.1-1.1 0-.1.1-.2.2-.2s.2 0 .3.1c.1.3.5.5.8.7.1-.2.2-.6.2-.8 0-.1.1-.2.2-.2s.2.1.3.2c.2.4.6.7.9.9v-1.3c0-.1.1-.2.2-.3.1 0 .3 0 .3.1.5 1.1 1.5 1.7 2 1.9.3-2.9-.6-4-.6-4 0-.1-.1-.1-.1-.2s.1-.1.1-.2c.5-.3.8-.8.9-1.3-1.1 1-2.8 1.4-3.6 1.6l.4.5c.1.1.1.2 0 .3 0 .1-.1.2-.2.2-1 .1-1.8 0-2.3-.2l.2.3v.3c-.1.1-.1.1-.2.1-.8 0-1.6-.4-2.1-.7 0 .2-.1.4-.3.5-.2.2-.4.3-.7.3-.2 0-.3 0-.5-.2-.3-.2-.4-.6-.4-.9.1-.3.3-.6.6-.7.4-.1.8.1 1.4.4.5.2 1 .5 1.6.6l-.5-.9c-.1-.1 0-.3.1-.3.1-.1.2-.1.3 0 0 0 .7.5 2.2.5l-.4-.5c-.1-.1-.1-.2 0-.3 0-.1.1-.2.2-.2 0 0 2.2-.2 3.5-1.3-.4.1-.8.1-.8.1-.1 0-.1 0-.2-.1-.6-.8-1.2-1-1.6-1.1-.2.6-.6 1-.6 1-.1.1-.1.1-.2.1s-.2-.1-.2-.1c-.5-.8-1.2-1-1.5-1 0 .6-.3 1-.6 1.2-.1.1-.2.1-.3 0-1.1-1-2-.7-2.4-.5.1.3.1.5 0 .7-.5 1.1-3.9 1.3-4.6 1.4-.1 0-.2 0-.2-.1-.1-.1-.1-.2 0-.2 0-.2 0-.4-.1-.6-.1-.2-.3-.3-.5-.4-.2 0-.5 0-.7.2-.2.2-.2.7 0 1.3.4 1.1 1.4 2.2 2.1 2.8v-.3c0-.1.1-.2.2-.2s.2 0 .3.1c.2.3.5.5.7.7l.1-.8c0-.1.1-.2.2-.2s.2.1.3.2c.2.6 1.8 2.4 2.3 3.1.1.1.1.2 0 .3-.1.1-.2.1-.3.1-1-.1-2.4.2-2.4.2-.1 0-.2 0-.3-.1-.1-.1-.1-.2 0-.3l.2-.2c-1.3-.1-2.6-.5-3.2-.6l-.4 1.2 1.2-.1c.1 0 .2 0 .2.1.1.1.1.2 0 .3l-.2.6 1-.3c.1 0 .3 0 .3.2.1.3.3.5.4.7l.3-.6c0-.1.1-.2.2-.2.2-.2.3-.1.4 0zM53.4 42c1 .7 1.9-.1 2.3-.7-1-.7-1.7-1.6-2.1-2.6-.1-.3-.2-.7-.3-1-.1-.1-1.5-1.2-2.8-2.6-.1.2-.1.3-.2.4.1.3 0 .6-.1.8.1.2 0 .5-.1.7.2.3.2.5.1.8 0 .1-.1.1-.1.2.2.2.4.6.4 1.4 0 .6.2.9.4 1.1.1-.1.2-.1.3-.1.3 0 .6.2 1 .6.4.3.8.7 1.2 1zm-5.1-7.2c-.1 0-.1 0 0 0-.4 0-.8 0-1.1-.1 0 .1 0 .3.1.4.1.1.1.1.1.2s0 .2-.1.2c0 0-.2.2-.2.3 0 .1.1.2.2.3.1 0 .1.1.1.2s0 .1-.1.2c0 0-.1.2-.1.3 0 0 0 .1.2.2.1 0 .1.1.1.2v.2s-.1.1 0 .2c0 .1.2.2.3.3.2.1.5.2.9.2.3 0 .6 0 .8-.1.2-.1.4-.2.5-.4 0-.1.1-.2-.1-.4-.1-.1-.1-.2 0-.3 0 0 .2-.2.1-.4-.1-.1 0-.2 0-.3 0 0 .2-.2 0-.6 0-.1 0-.2.1-.3 0 0 .2-.3.2-.6l-.1-.1c-.6.1-1.2.2-1.9.2zm2.4-18.4c-1.1.6-3.3 2.4-3.4 7.3l.1 8.3c.1.3.1.6 0 .8.7.2 1.5.1 1.8.1-.1-.2-.1-.5.1-.9 0-9.9.9-14.1 1.4-15.6z"/><path class="st0" d="M50.8 33.1c0-.4-.3-.8-.6-.9-.1 0-.3-.1-.4 0-.2.2-.1.4-.1.6 0 .1.1.2 0 .3 0 .1-.2.2-.2.2-.4.2-1.7.4-2.7-.1-.1-.1-.2-.2-.1-.4s.2-.5.1-.6h-.3c-.3 0-.6.1-.8.3-.1.1-.2.3-.1.5.2.8 1.1 1.2 2.5 1.2 1 0 1.9-.2 2.3-.7.3 0 .4-.2.4-.4zm-2.3 6.2c.1-.1.2-.1.3-.1.2 0 .6.1.9-.1.1-.1.1-.3 0-.4 0 0-.1-.2-.4-.1-.3.1-.6.2-.9 0l-.1-.1h-.2c0 .1-.1.1-.1.2-.2.2-.6.1-.9 0-.3-.1-.3 0-.4.1-.1.1 0 .3 0 .4.3.2.7.1.9.1.1 0 .2 0 .3.1.1.1.1.2 0 .3-.1.1-.3.6-.6.9.3.5.6 1.3-.1 2.1-.1.1-.1.1-.2.1s-.2-.1-.2-.1c0-.1-.2-.2-.3-.2 0 0-.1 0-.2.1-.1 0-.1.2 0 .4.1.3.4.5.9.5.1 0 .2.1.3.2 0 .1 0 .2-.1.3l-.4.4.7.2c.1 0 .2.1.2.2 0 0 .1.4.3.7.2-.3.3-.7.3-.7 0-.1.1-.2.2-.2l.7-.2-.4-.6c-.1-.1-.1-.2-.1-.3 0-.1.1-.2.3-.2.5 0 .8-.2.9-.5.1-.2 0-.3 0-.4-.1-.1-.2-.1-.2-.1-.2 0-.3.2-.3.2 0 .1-.1.1-.2.1s-.2 0-.2-.1c-.7-.8-.4-1.6-.1-2.1-.3-.3-.5-.8-.6-.9-.1 0 0-.1 0-.2z"/><path class="st4" d="M85.7 22.1c-.1-.2-.4-.5-1-.5-.4 0-.7.1-.9.3-.2.2-.3.4-.3.6-.4-.2-.9-.6-1.5-1.1-1.8-1.3-4.4-3.2-7-3.6-2.1-.3-4.5.2-5.8 1.4v-.4l-.1-.1H69s-.1 0-.1.1c-.5.7-1.3.8-1.6.8-1-1.2-2-1.2-2.1-1.2-.2 0-.2.1-.3.2 0 .3-.2.6-.3.7-.9-1.1-2.1-1-2.2-1-.1 0-.2.1-.2.1v.2c.2.3 0 .6-.2.8-1.7-1.4-3-.3-3.1-.2-.1.1-.1.2 0 .3.1.2.1.3.1.4-.3.6-2.3.9-3.8 1 0-.2-.1-.4-.2-.6-.2-.3-.5-.5-.8-.6-.4-.1-.9 0-1.2.4-.4.4-.4 1-.2 1.9.4 1.3 1.6 2.5 2.3 3.1-.2-.1-.3-.1-.5-.2-.4-.2-1.1-.5-1.6-.3-.3.1-.4.5-.4.8 0 .2.1.5.6.8l-.6 1.6v.3c.1.1.1.1.2.1l1.2-.1-.3.6v.3c.1.1.2.1.3.1l1.3-.3c.3.7.8.9.8.9h.2c.1 0 .1-.1.2-.1l.2-.5c.2.3.4.5.6.6-.1.1-.2.1-.3.2-.9.7-2.1 1.7-3 3.4-.4.8-.8 2.1-.7 3.5-.6-.5-1.8-1.6-2.7-2.7.1-.1.2-.1.3-.2.3-.3.4-.6.4-.9 0-.7-.5-1.2-1-1.4-.2-.1-.3-.1-.5 0 0-11.5 1.3-15 1.6-15.6v-.3c-.1-.1-.2-.1-.3-.1-.2.1-4.2 1.3-4.3 8l.1 8c-.6-.1-1.1.1-1.4.4-.2.2-.4.5-.3 1 .1.7.7 1.1 1.5 1.4v.3c0 .1.1.3.1.4-.1.1-.2.3-.2.5s.1.4.2.6c-.1.1-.1.3-.1.5 0 .1.1.3.2.4 0 .1-.1.3 0 .4 0 .2.1.3.3.4-.4-.1-.7.1-.8.3-.2.4-.1.8.2 1.1.2.2.5.2.8.2-.1.2-.3.4-.4.5-.1 0-.1.1-.1.2s0 .1.1.2c0 0 .6.7.3 1.4-.1-.1-.2-.2-.4-.2s-.4 0-.6.1c-.3.2-.4.6-.3 1 .1.3.3.6.8.7l-.4.3c-.1.1-.1.2-.1.3 0 .1.1.2.2.2l1.1.3c.1.2.3.7.6 1 0 0 .1.1.2.1s.1 0 .2-.1c.3-.3.5-.8.6-1l1.1-.3c.1 0 .2-.1.2-.2s0-.2-.1-.3l-.4-.3c.4-.1.7-.4.8-.7.1-.4 0-.8-.3-1-.2-.1-.4-.2-.6-.1-.2 0-.3.1-.4.2-.3-.7.2-1.3.3-1.4 0-.1.1-.1.1-.2s0-.1-.1-.2-.2-.3-.4-.5c.3 0 .6 0 .8-.2.1 0 .1-.1.1-.2 0 1.2.8 1.6.8 1.6.1.1.3 0 .4-.1l.1-.1c.1 0 .4.3.5.5.3.3.7.7 1.2 1.1.4.3.8.4 1.1.4 1 0 1.7-.8 2-1.2.6.4 1.3.7 2 1h.1l.3.9c.3.9.7 1.9.5 2.7-.2 1-1.7 1-2.5.8-.6-.1-1.1.1-1.5.4-.4.4-.6.9-.5 1.4 0 .4.2.6.4.6.4.2.8 0 1.1-.1.6.5 1.3.3 1.7 0 .3.2.6.3.9.3.5 0 .9-.3 1.1-.4 1 .4 1.6.1 1.7 0 .8-.7.7-2 .6-2.5 1.7-.5 2.3-2 2.3-2.1 0-.1 0-.2-.1-.3-.1-.1-.2-.1-.3-.1-.5.1-.9 0-1.1-.3-.3-.4-.1-1.1.4-1.7.1-.1.2-.3.3-.4 1.3-.3 2.4-.8 3.6-1.4 1-.5 2-.9 3.2-1.3.3-.1.7-.2 1-.2-.1 1.4.6 2.4 1.4 3.3.2.3.4.5.6.8.8 1.1.6 3.5.6 3.7-.1.1-.6.6-1.3.5-.6-.1-1.3.1-1.7.5-.3.3-.5.6-.5 1 0 .3.2.5.3.6.4.2 1 0 1.4-.2.3.2.6.3.9.3.4 0 .7-.1.9-.3.7.4 1.5.2 1.9-.1.5.3.9.2 1.2.1.1 0 .2-.1.2-.1.3.2.8.1 1.1 0 .2.3.4.4.5.4.5.2 1.1-.1 1.3-.3.3.3.7.4 1 .3.3 0 .5-.2.7-.3.2.1.4.2.7.4.1 0 .3.1.4.1.4 0 .6-.2.6-.3.3-.4.1-1.2-.2-1.6-.2-.3-.4-.7-.3-1.2 0-.3.2-.6.6-.9.7-.5 1.2-1.1 1.2-1.6 0-.2-.1-.4-.2-.5-.1-.1-.3-.1-.4-.1-.3 0-.7-.1-1.2-1-.4-.8.1-2.4.6-4.1l.9-3c.5-2.5-.7-4.4-1.2-5 1.2-1.2 1.8-2.4 1.5-3.5-.2-1.2-1.4-2-2.2-2.4-1.1-.4-2.9-.2-4.6 0-1.4.2-2.6.3-3.4.2-.3-.1-.5-.2-.6-.4-.2-.3-.1-.8-.1-.8v-.2c-.1-.1-.1-.1-.2-.1-.5 0-.9.3-1.2.5v-.2c.1-.5.7-1 .7-1 .1-.1.1-.1.1-.2s-.1-.2-.1-.2c-1.1-.7-2.1-.2-2.6.3-.2-.2-.3-.5-.3-.9 0-.2.1-.6.5-.8.2-.1.4-.1.5-.1.3.1.4.4.5.5 0 .1.1.1.2.2h.2c.6-.3.8-1.1.8-1.5.3.1.6.2.8.4.5.7.3 1.9.3 1.9 0 .1 0 .2.1.2.1.1.2.1.2.1 1.2-.3 1.6-1.3 1.6-2 .9.6.9 1.7.8 1.8 0 .1 0 .2.1.2.1.1.2.1.3 0 .4-.2.7-.5.8-.7.8 1.1 2 1.5 2 1.5.1 0 .2 0 .3-.1.1-.1.1-.2 0-.3l-.3-.6c.2.1.4.3.6.5.6.4 1.1.9 1.9 1.3.9.4 1.6.3 2 .2.4-.2.7-.5.8-.8.3.2.4-.4.1-.9zm-.4 1.3c-.1.1-.2.4-.5.5-.3.1-.8.1-1.6-.2-.8-.4-1.3-.8-1.8-1.2-.4-.3-.9-.7-1.4-.9-.1-.1-.2 0-.3 0-.1.1-.1.2-.1.3l.3.8c-.5-.3-1.1-.7-1.5-1.5-.1-.1-.2-.2-.3-.1-.1 0-.2.1-.2.3 0 0 0 .4-.3.7-.1-.7-.5-1.6-1.5-2h-.3c-.1.1-.1.1-.1.2s.1 1.2-.9 1.7c0-.5 0-1.3-.5-1.9-.3-.4-.8-.6-1.4-.7-.1 0-.1 0-.2.1-.1 0-.1.1-.1.2 0 0 0 .7-.4 1.1-.1-.2-.3-.4-.6-.5-.3-.1-.6-.1-.9.1-.5.3-.8.7-.8 1.3 0 .6.3 1.2.8 1.5.1.1.3 0 .3 0s.8-.9 1.8-.5c-.2.2-.5.6-.6 1 0 .3 0 .6.3.9.1.1.1.1.2.1s.2 0 .2-.1c0 0 .3-.4.7-.6 0 .2 0 .5.2.8.2.3.5.5 1 .6.9.2 2.2 0 3.6-.1 1.7-.2 3.4-.4 4.4 0 .8.3 1.7 1 1.9 2 .2 1-.3 2-1.6 3.2-.1.1-.1.3 0 .4 0 0 1.8 2.1 1.2 4.8-.2 1-.5 1.9-.8 2.9-.6 1.9-1.2 3.5-.6 4.5.6 1.2 1.2 1.2 1.6 1.3h.2c.1.1-.1.7-.9 1.2-.4.3-.7.7-.8 1.2-.1.6.1 1.2.4 1.6.3.3.3.8.2 1 0 0-.1.1-.4.1-.5-.1-.7-.4-.7-.4-.1-.1-.1-.1-.2-.1s-.2.1-.2.1-.2.3-.5.3c-.2 0-.5-.1-.8-.3-.1-.1-.2-.1-.3 0-.2.1-.7.4-1 .3 0 0-.2-.1-.3-.3 0-.1-.1-.1-.1-.2h-.2c-.3.1-.7.2-.8.2v-.2c.2-.6.9-.8 1.4-.9.1 0 .2 0 .2-.1h.2c.5-.1 1.5-.3 1.4-1.6v-.8c0-.8 0-1.5-1.2-2.4-.5-.3-.9-.6-1.3-.9-1-.6-1.8-1.2-2.5-1.9-1.6-1.6-3.4-2-5.5-1.4-1.2.4-2.3.9-3.3 1.3-1 .5-2 .9-3 1.2.8-1.6 1.3-3.7 1.2-4.7 0-.1-.1-.3-.3-.2-.1 0-.3.1-.2.3.1 1.2-.6 4-1.8 5.4-.7.8-.9 1.8-.5 2.4.2.4.7.6 1.2.6-.3.5-.9 1.1-1.9 1.4-.1 0-.1.1-.2.1v.2s.4 1.5-.3 2.2c0 0-.5.2-1.3-.2-.1 0-.2 0-.3.1 0 0-.4.4-.9.4-.2 0-.5-.1-.7-.3-.1-.1-.3-.1-.4 0 0 0-.8.6-1.3 0-.1-.1-.2-.1-.3-.1-.2.1-.6.2-.8.1 0 0-.1 0-.1-.2 0-.4.1-.8.4-1 .3-.2.6-.3 1-.3 1.4.2 2.9-.1 3.1-1.3.2-.9-.2-1.9-.6-2.9-.3-.8-.5-1.6-.6-2.2 0-1.3.3-2.5.3-2.5 0-.1-.1-.3-.2-.3s-.3.1-.3.2-.3 1.3-.3 2.7c0 .3.1.6.1.8-2-.7-3.3-1.9-4-3.4-.7-1.8-.3-3.8.3-4.9.8-1.6 1.9-2.5 2.8-3.2.4-.3.8-.7 1.1-1 0 .4-.4 1.3-.8 2-.1.1 0 .2 0 .3.1.1.2.1.3.1.2-.1.6-.3.9-.4l.1 1.3c0 .1.1.2.2.2h.3c.4-.3.7-.7.9-1l.3.8c0 .1.1.1.2.2h.2c.4-.3.7-.7 1-1l.5.8c.1.1.1.1.2.1s.2-.1.2-.1l.6-1.2.5 1.3c0 .1.1.1.2.2h.2l1.3-.8c.7.4 1.7.5 1.7.5.1 0 .2 0 .2-.1.1-.1.1-.1.1-.2l-.1-1.1H69c.1 0 .2-.1.3-.2 0-.1-.1-.3-.2-.3s-.4-.3-.7-.6h.1c.7.1 11.8.9 14.3-.9 1.4-1 1.3-1.9 1.1-2.3-.4-.9-1.7-1.5-3-1.3-.5.1-1.1.2-1.7.3-1.7.3-3.6.6-5.1.3-.6-.1-1.1-.3-1.6-.5-.8-.3-1.3-.5-1.8-.2-.2.1-.3.3-.4.5-.3-.3-.6-.9-.2-1.6.1-.1 0-.2 0-.3 0 0-1.5-1.7-.8-3.5.6-1.6 3.2-2.5 6.1-2.2 2.5.3 5 2.2 6.8 3.5 1.1.8 1.7 1.2 2 1.3.1 0 .2 0 .2-.1-.4-.4-.4-.5-.4-.6 0 0 0-.4.2-.6.1-.1.3-.2.5-.1.3 0 .4.1.6.3.1.3.1.7 0 1zM77 48.9c-.3.1-.5 0-.9-.2-.1-.1-.2-.1-.3 0 0 0-.8.7-1.5.1-.1-.1-.2-.1-.3 0-.1.1-.8.6-1.5 0-.1-.1-.2-.1-.3 0-.4.2-.9.4-1 .3V49c0-.3.2-.5.3-.6.3-.3.9-.4 1.3-.4 1 .1 1.7-.6 1.9-.9.1-.3.3-2.9-.6-4.2-.2-.3-.4-.5-.6-.8-.7-.9-1.4-1.7-1.2-3 1.3 0 2.4.5 3.5 1.5.5.5 1.1 1 1.7 1.4-.2.2-.6.7-.6 1.2 0 .2.1.4.2.6.4.4.8.4 1.1.4h.2c-.1.2-.3.6-.5.8-.5.7-.9 1.2-.8 1.6 0 .3.1.7.2 1 .1.4.2.9.2 1-.2.1-.3.2-.5.3zm1.1-3.6c.5-.7.8-1.1.6-1.4-.2-.3-.5-.3-.7-.3-.2 0-.5 0-.7-.2-.1-.1-.1-.1-.1-.2 0-.3.4-.7.6-.9.2.1.3.2.5.3.4.3.8.6 1.3.9 1 .7 1 1.2 1 2v.8c.1.7-.3.9-.9 1h-.4c-.4.1-1 .2-1.4.6 0-.1-.1-.3-.1-.5-.1-.4-.2-.8-.2-1-.2-.1.2-.8.5-1.1zm-26.8-5c-.1 0-.2.1-.3.1-.2-.2-.4-.5-.4-1.1 0-.8-.2-1.3-.4-1.4 0-.1.1-.1.1-.2.1-.3.1-.5-.1-.8.1-.2.1-.4.1-.7.1-.2.2-.5.1-.8.1-.1.1-.2.2-.4 1.2 1.3 2.7 2.5 2.8 2.6.1.3.2.7.3 1 .4 1 1.1 1.9 2.1 2.6-.5.6-1.3 1.4-2.3.7-.5-.3-.8-.7-1.1-1-.5-.3-.7-.6-1.1-.6zm-2.2 2.4c.1.1.1.1.2.1s.2-.1.2-.1.2-.2.3-.2c0 0 .1 0 .2.1.1 0 .1.2 0 .4-.1.3-.4.5-.9.5-.1 0-.2.1-.3.2 0 .1 0 .2.1.3l.4.4-.7.2c-.1 0-.2.1-.2.2 0 0-.1.4-.3.7-.2-.3-.3-.7-.3-.7 0-.1-.1-.2-.2-.2l-.7-.2.4-.4c.1-.1.1-.2.1-.3 0-.1-.2-.2-.3-.2-.5 0-.8-.2-.9-.5-.1-.2 0-.3 0-.4.1-.1.2-.1.2-.1.1 0 .3.2.3.2 0 .1.1.1.2.1s.2 0 .2-.1c.7-.8.4-1.6.1-2.1.3-.3.5-.8.6-.9v-.3c-.1-.1-.2-.1-.3-.1-.1 0-.6.1-.9-.1-.1-.1-.1-.3 0-.4 0 0 .1-.2.4-.1.3.1.6.2.9 0 .1 0 .1-.1.1-.2h.2c0 .1.1.1.1.1.2.2.6.1.9 0 .3-.1.3 0 .4.1.1.1 0 .3 0 .4-.3.2-.7.1-.9.1-.1 0-.2 0-.3.1-.1.1-.1.2 0 .3.1.1.3.6.6.9-.3.5-.6 1.4.1 2.2zm.9-7.5c-.1.1-.1.2-.1.3.1.3 0 .5 0 .6-.1.1-.1.2 0 .3.1.2-.1.4-.1.4-.1.1-.1.2 0 .3.2.2.2.4.1.4-.1.2-.2.3-.5.4-.2.1-.5.1-.8.1-.3 0-.7-.1-.9-.2-.1-.1-.3-.1-.3-.3v-.2c0-.1.1-.1 0-.2 0-.1-.1-.1-.1-.2-.1-.1-.1-.2-.2-.2 0-.1.1-.3.1-.3 0-.1.1-.1.1-.2s0-.1-.1-.2-.2-.2-.2-.3c0-.1.1-.2.2-.3.1 0 .1-.1.1-.2s0-.2-.1-.2c-.1-.1-.1-.3-.1-.4.3.1.7.1 1 .1h.1c.7 0 1.3-.1 1.9-.3l.1.1c0 .5-.2.7-.2.7zm-1.8-.9c-1.4 0-2.4-.5-2.5-1.2 0-.2 0-.4.1-.5.2-.2.5-.3.8-.3h.3c.1.1 0 .4-.1.6-.1.1 0 .3.1.4.9.5 2.3.3 2.7.1 0 0 .2-.1.2-.2v-.3c-.1-.2-.1-.3.1-.6.1-.1.3-.1.4 0 .3.1.6.4.6.9 0 .2-.1.4-.3.6-.5.3-1.4.5-2.4.5zm1-1.3c-.4.1-1.2.2-1.8-.1.1-.2.1-.6 0-.8l-.1-8.3c.1-4.9 2.3-6.7 3.4-7.3-.5 1.5-1.4 5.7-1.4 15.6-.2.3-.2.7-.1.9zm7.2-4.5l-.3.6c-.1-.1-.3-.4-.4-.7 0-.1-.2-.2-.3-.2l-1 .3.2-.6v-.3c-.1-.1-.1-.1-.2-.1l-1.2.1.4-1.2c.5.2 1.8.5 3.2.6l-.2.2c-.1.1-.1.2 0 .3.1.1.2.1.3.1 0 0 1.4-.3 2.4-.2.1 0 .2 0 .3-.1.1-.1 0-.2 0-.3-.6-.7-2.1-2.5-2.3-3.1 0-.1-.2-.2-.3-.2-.1 0-.2.1-.2.2l-.1.8c-.2-.1-.5-.4-.7-.7-.1-.1-.2-.1-.3-.1-.1 0-.2.1-.2.2v.3c-.7-.6-1.8-1.7-2.1-2.8-.2-.6-.2-1.1 0-1.3.2-.2.5-.2.7-.2.2 0 .4.2.5.4.1.2.1.4.1.6v.2c.1.1.1.1.2.1.7 0 4-.3 4.6-1.4.1-.2.1-.4 0-.7.4-.2 1.2-.5 2.4.5.1.1.2.1.3 0 .3-.2.7-.7.6-1.2.4 0 1.1.2 1.5 1 0 .1.1.1.2.1s.2 0 .2-.1c0 0 .4-.5.6-1 .3.1.9.3 1.6 1.1 0 .1.1.1.2.1 0 0 .4 0 .8-.1-1.3 1.1-3.5 1.3-3.5 1.3-.1 0-.2.1-.2.2v.3l.4.5c-1.5 0-2.2-.5-2.2-.5-.1-.1-.2-.1-.3 0-.1.1-.1.2-.1.3l.3.6c-.6-.1-1.1-.4-1.6-.6-.6-.3-1-.5-1.4-.4-.3.1-.5.4-.6.7-.1.4.1.7.4.9.2.1.3.2.5.2s.5-.1.7-.3c.2-.2.3-.3.3-.5.6.3 1.3.6 2.1.7.1 0 .2 0 .2-.1.1-.1.1-.2 0-.3l-.2-.3c.5.2 1.2.3 2.3.2.1 0 .2-.1.2-.2v-.3l-.4-.5c.8-.1 2.5-.5 3.6-1.6-.2.5-.5 1-.9 1.3-.1 0-.1.1-.1.2s0 .2.1.2c0 0 .9 1.1.6 4-.5-.3-1.4-.8-2-1.9-.1-.1-.2-.2-.3-.1-.1 0-.2.2-.2.3 0 .3.1.9 0 1.3-.3-.2-.7-.5-.9-.9 0-.1-.2-.2-.3-.2-.1 0-.2.1-.2.2-.1.3-.2.6-.2.8-.3-.2-.6-.4-.8-.7-.1-.1-.2-.2-.3-.1-.1 0-.2.1-.2.2 0 .3-.1.8-.1 1.1-.2-.1-.6-.4-.8-.6-.1-.1-.2-.1-.3-.1-.1 0-.2.1-.2.2l-.1.8c-.2-.1-.5-.3-.7-.6-.1-.1-.3-.1-.4 0-.1.1-.1.3 0 .4.4.5 1.2.9 1.2.9h.2c.1 0 .1-.1.1-.2l.1-.4c.4.3.9.6.9.6h.2c.1 0 .1-.1.2-.2.1-.2.1-.6.2-.9l.8.4c.1.1.3 0 .3-.1.1-.1.2-.4.2-.7.4.5 1 .8 1 .8h.2c.1 0 .1-.1.2-.2.1-.2.1-.5.1-.9.5.6 1.1 1 1.5 1.2 0 0 .1.9.2 1.6-.4-.2-1.2-.5-1.8-1.1-.1-.1-.2-.1-.2-.1-.1 0-.2.1-.2.2l-.2.5-.8-.6c-.1-.1-.2-.1-.3 0-.1 0-.1.1-.2.2v.8c-.2-.1-.4-.3-.6-.5-.1-.1-.3-.1-.4 0-.1.1-.1.3 0 .4.4.4 1 .8 1 .8.1 0 .2.1.3 0 .1 0 .1-.1.1-.2l.1-.6.8.6c.1 0 .1.1.2 0 .1 0 .1-.1.2-.2l.2-.5c.5.4 1 .7 1.4.8 0 .2 0 .9.3 1.4-.5 0-1.2-.1-1.9-.4-.1-.1-.3 0-.3.1l-.5.7-1.6-1.1c-.1 0-.2-.1-.2 0-.1 0-.1.1-.1.2l-.2.7c-.3-.3-.7-.8-.9-.9-.1-.1-.3-.1-.4 0 0 0-.4.4-.8.7l-.3-.8c-.1-.1-.2-.2-.3-.2-.1.1-.2.2-.2.3l.4 1.1c0 .1.1.1.2.2h.2c.4-.2.8-.6 1-.8.2.3.7.7.9 1 .1.1.2.1.2.1.1 0 .2-.1.2-.2l.3-.8 1.5 1h.2c.1 0 .1-.1.2-.1l.4-.6c.7.3 1.4.4 1.8.4 0 .1 0 .1.1.2l.4.4h-.7c-.1 0-.1 0-.2.1 0 .1-.1.1-.1.2l.1 1c-.4-.1-.9-.2-1.3-.5-.1-.1-.2-.1-.3 0l-1.2.7-.6-1.6c0-.1-.1-.2-.2-.2s-.2.1-.3.1l-.6 1.3-.5-.7c0-.1-.1-.1-.2-.1s-.2 0-.2.1c0 0-.4.5-.8.9l-.3-1c0-.1-.1-.2-.2-.2s-.2 0-.3.1c0 0-.3.5-.7.9V31c0-.1-.1-.2-.1-.2h-.3c-.1.1-.3.2-.5.3.3-.6.7-1.6.5-2l-.3-.3c-.4-.1-.6 0-.7.1-.1.1-.2.2-.3.4-.2-.2-.4-.4-.5-.7 0-.1-.1-.2-.2-.2-.4-.1-.5 0-.5.1zm-2-3c1.4.7 3.2.8 3.7.8.2.3.5.6.6.8-.4 0-.9.1-1.2.1l.1-.1c.1-.1.1-.2 0-.3 0-.1-.1-.2-.2-.2-1.8-.1-3.8-.7-3.8-.7-.3-.1-.5-.2-.5-.4 0-.1.1-.3.1-.3.2-.1.8.2 1.2.3zm2.5.2c.1 0 .1-.1.1-.2l.1-.5c.2.2.4.5.5.7h-.7zm-.5-.1c-.1 0-.3-.1-.4-.1v-.2c.1.1.3.2.4.3zm3.5-2.9c-.1.1-.3.2-.5.1s-.2-.3-.2-.4c0-.1.1-.2.2-.3h.1c.1 0 .3.1.5.2.1.2-.1.4-.1.4zm10 4c.1 0 .2.1.3 0 .1 0 .1-.1.1-.2 0-.3.1-.5.2-.6.2-.1.7.1 1.3.3.4.2 1 .4 1.6.5 1.7.4 3.6.1 5.3-.3.6-.1 1.1-.2 1.7-.3 1.1-.1 2.2.3 2.5 1 .2.5-.1 1.1-.9 1.7-2.2 1.6-12.8.9-13.9.8-.3-.3-.4-.8-.4-1.2.2.1.3.1.3.1h.1c.1 0 .1 0 .2-.1s.1-.2 0-.3c-.2-.4-.3-1.3-.3-1.7h.2c.1 0 .1-.1.1-.2.3-2.7-.2-4-.5-4.6l.2-.2c0 1.3.7 2.3 1 2.6-.3 1.5.4 2.4.9 2.7z"/><path class="st0" d="M43.4 13.1c-.1-2.1-.6-5.6-2.2-5.6-.9 0-1.4.5-1.4.5-.1.1-.1.1-.2.1L39 8l.1.4c0 .1 0 .2-.1.3 0 0-.9.8-.4 1.8.4.7 1.7 1.1 2.7 1.3.4.1.8.2 1 .3.5.2.8.6 1.1 1z"/><path class="st4" d="M41.2 6.9c-.9 0-1.5.4-1.7.6l-.9-.1c-.1 0-.2 0-.2.1-.1.1-.1.2-.1.2l.2.6c-.4.4-.9 1.3-.4 2.3.5.9 1.9 1.3 3 1.6.4.1.7.2.9.3.6.3 1.1 1 1.4 1.5 0 .1.1.2.2.2h.1c.1 0 .2-.1.2-.3.1-.2.1-6.9-2.7-7zm.1 4.9c-1-.3-2.3-.6-2.7-1.3-.5-1 .3-1.7.4-1.8.1-.1.1-.2.1-.3L39 8h.6c.1 0 .2 0 .2-.1 0 0 .5-.6 1.4-.5 1.6.1 2.1 3.5 2.2 5.6-.3-.4-.7-.7-1.1-.9-.2-.1-.6-.2-1-.3z"/><path class="st0" d="M87.6 13.1c.1-2.1.6-5.6 2.2-5.6.9 0 1.4.5 1.4.5.1.1.1.1.2.1L92 8l-.1.4c0 .1 0 .2.1.3 0 0 .9.8.4 1.8-.4.7-1.7 1.1-2.7 1.3-.4.1-.8.2-1 .3-.4.2-.8.6-1.1 1z"/><path class="st4" d="M87 14c0 .1.1.2.2.3h.1c.1 0 .2-.1.2-.2.3-.5.8-1.2 1.4-1.5.2-.1.5-.2.9-.3 1-.3 2.5-.7 3-1.6.5-1 0-1.9-.4-2.3l.2-.6c0-.1 0-.2-.1-.2-.1-.1-.1-.1-.2-.1l-.9.1c-.2-.2-.8-.7-1.7-.6C87 7 87 13.7 87 14zm1.7-1.9c-.4.2-.8.6-1.1.9.1-2.1.6-5.6 2.2-5.6.9 0 1.4.5 1.4.5.1.1.1.1.2.1h.6l-.1.4c0 .1 0 .2.1.3 0 0 .9.8.4 1.8-.4.7-1.7 1.1-2.7 1.3-.4.1-.8.2-1 .3z"/><path class="st0" d="M87.6 52.4c.1 2.1.6 5.6 2.2 5.6.9 0 1.4-.5 1.4-.5.1-.1.1-.1.2-.1h.6l-.1-.4c0-.1 0-.2.1-.3 0 0 .9-.8.4-1.8-.4-.7-1.7-1.1-2.7-1.3-.4-.1-.8-.2-1-.3-.4-.1-.8-.5-1.1-.9z"/><path class="st4" d="M89.8 58.6c.9 0 1.5-.4 1.7-.6l.9.1c.1 0 .2 0 .2-.1.1-.1.1-.2.1-.2l-.2-.6c.4-.4.9-1.3.4-2.3-.5-.9-1.9-1.3-3-1.6-.4-.1-.7-.2-.9-.3-.6-.3-1.1-1-1.4-1.5 0-.1-.1-.2-.2-.2h-.1c-.1 0-.2.1-.2.3-.1.2-.1 6.9 2.7 7zm-.1-4.9c1 .3 2.3.6 2.7 1.3.5 1-.3 1.7-.4 1.8-.1.1-.1.2-.1.3l.1.4h-.6c-.1 0-.2 0-.2.1 0 0-.5.6-1.4.5-1.6-.1-2.1-3.5-2.2-5.6.3.4.7.7 1.1.9.2.1.6.2 1 .3z"/><path class="st0" d="M43.4 52.4c-.1 2.1-.6 5.6-2.2 5.6-.9 0-1.4-.5-1.4-.5-.1-.1-.1-.1-.2-.1H39l.1-.4c0-.1 0-.2-.1-.3 0 0-.9-.8-.4-1.8.4-.7 1.7-1.1 2.7-1.3.4-.1.8-.2 1-.3.5-.1.8-.5 1.1-.9z"/><path class="st4" d="M44 51.5c0-.1-.1-.2-.2-.3h-.1c-.1 0-.2.1-.2.2-.3.5-.8 1.2-1.4 1.5-.2.1-.5.2-.9.3-1 .3-2.5.7-3 1.6-.5 1 0 1.9.4 2.3l-.2.6c0 .1 0 .2.1.2.1.1.1.1.2.1l.9-.1c.2.2.8.7 1.7.6 2.7 0 2.7-6.7 2.7-7zm-1.7 1.9c.4-.2.8-.6 1.1-.9-.1 2.1-.6 5.6-2.2 5.6-.9 0-1.4-.5-1.4-.5-.1-.1-.1-.1-.2-.1H39l.1-.4c0-.1 0-.2-.1-.3 0 0-.9-.8-.4-1.8.4-.7 1.7-1.1 2.7-1.3.4-.1.8-.2 1-.3z"/></svg>