<svg width="68" height="68" xmlns="http://www.w3.org/2000/svg"><g transform="translate(1 1)" fill="none" fill-rule="evenodd"><circle stroke="#979797" fill="#D8D8D8" cx="33" cy="33" r="33"/><path d="M32.667 0c18.041 0 32.666 14.625 32.666 32.667 0 18.041-14.625 32.666-32.666 32.666C14.625 65.333 0 50.708 0 32.667 0 14.625 14.625 0 32.667 0" fill="#FFF"/><path d="M32.667 0c18.041 0 32.666 14.625 32.666 32.667 0 18.041-14.625 32.666-32.666 32.666C14.625 65.333 0 50.708 0 32.667 0 14.625 14.625 0 32.667 0z" stroke="#000"/><path d="M.066 30.667h17.799V56.16c0 2.595-2.977 4.078-5.037 2.5C5.029 52.692 0 43.288 0 32.71c0-.686.025-1.367.066-2.042" fill="#FFF"/><path d="M.066 30.667h17.799V56.16c0 2.595-2.977 4.078-5.037 2.5C5.029 52.692 0 43.288 0 32.71c0-.686.025-1.367.066-2.042z" stroke="#000"/><path d="M56.828 55.506c-.12.129-.24.258-.363.384l-.002.002c-5.938 6.139-14.262 9.957-23.479 9.957a32.52 32.52 0 0 1-19.65-6.571V17.104a2.552 2.552 0 0 1 2.551-2.552h39.913c.244 0 .471.07.665.19V12h1.388a32.535 32.535 0 0 1 7.8 21.183 32.548 32.548 0 0 1-8.577 22.059v.003l-.062.066c-.06.066-.123.13-.184.195" fill="#FFF"/><path d="M56.828 55.506c-.12.129-.24.258-.363.384l-.002.002c-5.938 6.139-14.262 9.957-23.479 9.957a32.52 32.52 0 0 1-19.65-6.571V17.104a2.552 2.552 0 0 1 2.551-2.552h39.913c.244 0 .471.07.665.19V12h1.388a32.535 32.535 0 0 1 7.8 21.183 32.548 32.548 0 0 1-8.577 22.059v.003l-.062.066c-.06.066-.123.13-.184.195z" stroke="#000"/><path d="M18.552 12h39.413c.624.731 1.217 1.49 1.776 2.275V52.09c-5.921 8.326-15.647 13.758-26.642 13.758A32.51 32.51 0 0 1 16 61.019V14.552A2.552 2.552 0 0 1 18.552 12" fill="#FFF"/><path d="M18.552 12h39.413c.624.731 1.217 1.49 1.776 2.275V52.09c-5.921 8.326-15.647 13.758-26.642 13.758A32.51 32.51 0 0 1 16 61.019V14.552A2.552 2.552 0 0 1 18.552 12z" stroke="#000"/><path d="M29.513 30.323a2.552 2.552 0 1 1-5.104 0 2.552 2.552 0 0 1 5.104 0zm4.466.893v.765a.255.255 0 0 1-.255.256h-2.041a.255.255 0 0 1-.256-.256v-.765c0-.141.115-.255.256-.255h2.041c.141 0 .255.114.255.255zm4.466 0v.765a.254.254 0 0 1-.254.256h-2.68a.255.255 0 0 1-.256-.256v-.765c0-.141.115-.255.256-.255h2.68c.141 0 .254.114.254.255zm1.277-2.552v.765a.255.255 0 0 1-.255.256h-7.784a.255.255 0 0 1-.256-.256v-.765c0-.141.115-.255.256-.255h7.784c.141 0 .255.114.255.255zm-17.227 5.487h19.141v-7.656h-19.14v7.656zm-.638 1.276h20.417a.638.638 0 0 0 .638-.638v-8.932a.638.638 0 0 0-.638-.638H21.857a.638.638 0 0 0-.638.638v8.932c0 .352.286.638.638.638zm-1.914 1.276h24.245V23.942H19.943v12.76zm24.883-14.036H19.305a.638.638 0 0 0-.638.638V37.34c0 .352.286.638.638.638h25.521a.638.638 0 0 0 .638-.638V23.305a.638.638 0 0 0-.638-.638z" fill="#FFF"/><path d="M29.513 30.323a2.552 2.552 0 1 1-5.104 0 2.552 2.552 0 0 1 5.104 0zm4.466.893v.765a.255.255 0 0 1-.255.256h-2.041a.255.255 0 0 1-.256-.256v-.765c0-.141.115-.255.256-.255h2.041c.141 0 .255.114.255.255zm4.466 0v.765a.254.254 0 0 1-.254.256h-2.68a.255.255 0 0 1-.256-.256v-.765c0-.141.115-.255.256-.255h2.68c.141 0 .254.114.254.255zm1.277-2.552v.765a.255.255 0 0 1-.255.256h-7.784a.255.255 0 0 1-.256-.256v-.765c0-.141.115-.255.256-.255h7.784c.141 0 .255.114.255.255zm-17.227 5.487h19.141v-7.656h-19.14v7.656zm-.638 1.276h20.417a.638.638 0 0 0 .638-.638v-8.932a.638.638 0 0 0-.638-.638H21.857a.638.638 0 0 0-.638.638v8.932c0 .352.286.638.638.638zm-1.914 1.276h24.245V23.942H19.943v12.76zm24.883-14.036H19.305a.638.638 0 0 0-.638.638V37.34c0 .352.286.638.638.638h25.521a.638.638 0 0 0 .638-.638V23.305a.638.638 0 0 0-.638-.638z" stroke="#000"/><path d="M48.819 53.195a.639.639 0 0 1 1.188.464 7.61 7.61 0 0 1-7.132 4.872 7.61 7.61 0 0 1-7.131-4.872.637.637 0 1 1 1.188-.464 6.344 6.344 0 0 0 5.943 4.06 6.343 6.343 0 0 0 5.944-4.06m-11.887-4.64a.638.638 0 1 1-1.188-.464 7.61 7.61 0 0 1 7.131-4.872 7.61 7.61 0 0 1 7.132 4.872.638.638 0 1 1-1.188.464 6.343 6.343 0 0 0-5.944-4.06 6.344 6.344 0 0 0-5.943 4.06m5.943-2.146a4.466 4.466 0 1 1 0 8.932 4.466 4.466 0 0 1 0-8.932m0 13.398c-4.71 0-8.578-3.666-8.906-8.294h3.164a.638.638 0 0 0 0-1.276H33.97c.328-4.628 4.196-8.294 8.906-8.294 4.711 0 8.579 3.666 8.908 8.294h-3.166a.639.639 0 0 0 0 1.276h3.166c-.329 4.628-4.197 8.294-8.908 8.294m0-19.14c-5.628 0-10.208 4.579-10.208 10.208 0 5.629 4.58 10.208 10.208 10.208 5.629 0 10.208-4.579 10.208-10.208 0-5.629-4.579-10.208-10.208-10.208" fill="#FFF"/><path d="M48.819 53.195a.639.639 0 0 1 1.188.464 7.61 7.61 0 0 1-7.132 4.872 7.61 7.61 0 0 1-7.131-4.872.637.637 0 1 1 1.188-.464 6.344 6.344 0 0 0 5.943 4.06 6.343 6.343 0 0 0 5.944-4.06zm-11.887-4.64a.638.638 0 1 1-1.188-.464 7.61 7.61 0 0 1 7.131-4.872 7.61 7.61 0 0 1 7.132 4.872.638.638 0 1 1-1.188.464 6.343 6.343 0 0 0-5.944-4.06 6.344 6.344 0 0 0-5.943 4.06zm5.943-2.146a4.466 4.466 0 1 1 0 8.932 4.466 4.466 0 0 1 0-8.932zm0 13.398c-4.71 0-8.578-3.666-8.906-8.294h3.164a.638.638 0 0 0 0-1.276H33.97c.328-4.628 4.196-8.294 8.906-8.294 4.711 0 8.579 3.666 8.908 8.294h-3.166a.639.639 0 0 0 0 1.276h3.166c-.329 4.628-4.197 8.294-8.908 8.294zm0-19.14c-5.628 0-10.208 4.579-10.208 10.208 0 5.629 4.58 10.208 10.208 10.208 5.629 0 10.208-4.579 10.208-10.208 0-5.629-4.579-10.208-10.208-10.208z" stroke="#000"/><path d="M61.122 12.1c-4.984 4.982-13.046 9.51-15.227 7.33-2.18-2.18 2.348-10.243 7.331-15.226 4.984-4.983 8.535-5 10.715-2.82 2.18 2.18 2.164 5.732-2.82 10.715" fill="#FFF"/><path d="M61.122 12.1c-4.984 4.982-13.046 9.51-15.227 7.33-2.18-2.18 2.348-10.243 7.331-15.226 4.984-4.983 8.535-5 10.715-2.82 2.18 2.18 2.164 5.732-2.82 10.715z" stroke="#000"/><path d="M53.693 21.858l-3.835 3.835a1.275 1.275 0 0 1-1.804 0l-8.347-8.347a1.275 1.275 0 0 1 0-1.804l3.835-3.835a1.277 1.277 0 0 1 1.805 0l8.346 8.346a1.277 1.277 0 0 1 0 1.805" fill="#FFF"/><path d="M53.693 21.858l-3.835 3.835a1.275 1.275 0 0 1-1.804 0l-8.347-8.347a1.275 1.275 0 0 1 0-1.804l3.835-3.835a1.277 1.277 0 0 1 1.805 0l8.346 8.346a1.277 1.277 0 0 1 0 1.805z" stroke="#000"/><path d="M54.254 29.753l-3.834 3.834a1.276 1.276 0 0 1-1.805 0l-16.242-16.24a1.277 1.277 0 0 1 0-1.806l3.835-3.834a1.277 1.277 0 0 1 1.805 0l16.241 16.241a1.277 1.277 0 0 1 0 1.805" fill="#FFF"/><path d="M54.254 29.753l-3.834 3.834a1.276 1.276 0 0 1-1.805 0l-16.242-16.24a1.277 1.277 0 0 1 0-1.806l3.835-3.834a1.277 1.277 0 0 1 1.805 0l16.241 16.241a1.277 1.277 0 0 1 0 1.805z" stroke="#000"/><path d="M57.197 30.029l-3.835 3.834a1.276 1.276 0 0 1-1.805 0l-19.85-19.85a1.276 1.276 0 0 1 0-1.804l3.835-3.835a1.276 1.276 0 0 1 1.805 0l19.85 19.85a1.276 1.276 0 0 1 0 1.805" fill="#FFF"/><path d="M57.197 30.029l-3.835 3.834a1.276 1.276 0 0 1-1.805 0l-19.85-19.85a1.276 1.276 0 0 1 0-1.804l3.835-3.835a1.276 1.276 0 0 1 1.805 0l19.85 19.85a1.276 1.276 0 0 1 0 1.805z" stroke="#000"/></g></svg>