<svg width="183" height="183" xmlns="http://www.w3.org/2000/svg"><g fill="none"><path d="M42.931 66.26h42.163c3.814 0 6.906 3.064 6.906 6.845 0 3.4-2.516 6.283-5.91 6.774L60.1 83.634 60.104 112H25.758l.005-27.184-20.96-36.658A6.083 6.083 0 0 1 4 45.138c0-5.867 7.518-8.378 11.1-3.707L35.42 66.26h7.511z" fill="#78D2FA"/><path fill="#FFF" d="M35 67l7.501 24L50 67z"/><path d="M59 44v5.853C59 58.218 51.837 65 43 65s-16-6.782-16-15.147V44h32z" fill="#FFCDAC"/><path d="M43 28c-8.837 0-16 6.906-16 15.425V45h7.823c5.2 0 10.133-2.22 13.474-6.062 0 3.182 2.616 5.793 5.915 5.902L59 45v-1.575C59 34.905 51.837 28 43 28z" fill="#878791"/><path d="M141.068 66.26H98.906c-3.814 0-6.906 3.065-6.906 6.845 0 3.4 2.516 6.283 5.91 6.774l25.99 3.755-.004 28.366h34.346l-.005-27.184 20.96-36.658a6.083 6.083 0 0 0 .803-3.02c0-5.867-7.518-8.378-11.1-3.707L148.58 66.26h-7.512z" fill="#FFE682"/><path fill="#FFF" d="M149 67l-7.502 24L134 67z"/><path d="M124 44v5.853C124 58.218 131.163 65 140 65s16-6.782 16-15.147V44h-32z" fill="#FFCDAC"/><path d="M140 28c8.837 0 16 6.906 16 15.425V45h-7.823c-5.2 0-10.133-2.22-13.474-6.062 0 3.182-2.616 5.793-5.915 5.902L124 45v-1.575C124 34.905 131.164 28 140 28z" fill="#F5B955"/><path d="M59.866 156.702v-44.347H25.294v58.624zm64.314 0v-44.347h34.573v58.624z" fill="#878791"/><path fill="#A5DC69" d="M4 179l88.045-36L180 179z"/><path fill="#FF5A5A" d="M92 15h24v25H92z"/><path fill="#FF8C8C" d="M103 4h32l-13.184 12.743L135 29h-32z"/><path d="M157.5 135a3.52 3.52 0 0 0-2.475 1.025A3.511 3.511 0 0 0 154 138.5c0 .92.371 1.824 1.025 2.475A3.521 3.521 0 0 0 157.5 142c.92 0 1.824-.375 2.475-1.025A3.528 3.528 0 0 0 161 138.5c0-.92-.375-1.824-1.025-2.475A3.533 3.533 0 0 0 157.5 135z" fill="#000"/><path d="M180.74 176.12l-19.477-8.016v-16.038a3.573 3.573 0 1 0-7.146 0v13.097l-10.006-4.117v-37.974a3.573 3.573 0 1 0-7.146 0v35.033l-10.005-4.117v-37.827h27.157v7.51a3.573 3.573 0 1 0 7.146 0V112.63l.001-.02.002-.022-.005-26.46 20.472-36.13A9.771 9.771 0 0 0 183 45.19c0-4.254-2.604-7.88-6.634-9.24-4.011-1.351-8.256-.06-10.833 3.29l-5.68 7.003c.016-.137.026-.275.026-.417V44.22c0-10.642-8.656-19.3-19.295-19.3a19.27 19.27 0 0 0-4.368.504l-9.128-8.783 10.537-10.54A3.574 3.574 0 0 0 135.098 0h-31.829a3.573 3.573 0 0 0-3.573 3.574v7.171h-8.172a3.573 3.573 0 0 0-3.574 3.574v49.147a10.416 10.416 0 0 0-3.37-.56H57.44a19.21 19.21 0 0 0 4.32-12.152v-4.306a3.59 3.59 0 0 0-.017-.312c.01-.103.016-.206.016-.31v-1.607c0-10.642-8.656-19.3-19.296-19.3-10.64 0-19.295 8.658-19.295 19.3v1.607c0 .105.006.208.015.31-.004.047-.005.094-.007.14L17.47 39.24c-2.577-3.35-6.822-4.64-10.832-3.29C2.605 37.31 0 40.935 0 45.19c0 1.681.439 3.343 1.267 4.807l20.472 36.13-.002 81.967-19.522 8.025a3.575 3.575 0 0 0 2.716 6.612l86.59-35.596 86.5 35.595a3.573 3.573 0 1 0 2.719-6.61zm-9.626-132.416l.07-.089c1.048-1.38 2.484-1.03 2.9-.89.415.14 1.77.73 1.77 2.464 0 .449-.118.892-.339 1.282L154.58 83.423a3.578 3.578 0 0 0-.465 1.763l.004 23.826h-27.16l.004-25.018a3.573 3.573 0 0 0-3.059-3.537l-25.962-3.786a3.344 3.344 0 0 1-2.845-3.29 3.33 3.33 0 0 1 3.325-3.327h31.96l6.72 21.597a3.574 3.574 0 0 0 6.825 0l7.287-23.407 19.9-24.54zm-76.017-.79h19.912c1.974 0 3.574-1.6 3.574-3.574v-6.457h6.398a19.196 19.196 0 0 0-3.693 11.337v1.606l.002.06c-.029.184-.048.37-.048.562v4.306a19.21 19.21 0 0 0 4.32 12.152h-27.14c-1.163 0-2.28.194-3.326.545V42.914zm48.067 27.14l-2.65 8.51-2.648-8.51h5.298zm9.523-19.3c0 6.7-5.45 12.152-12.149 12.152-6.699 0-12.149-5.452-12.149-12.152V49.28l1.3-.045a9.559 9.559 0 0 0 7.108-3.508A20.795 20.795 0 0 0 148.62 49.4h4.069v1.354zm-12.104-18.686c6.03 0 11.047 4.416 11.99 10.184h-3.955a13.668 13.668 0 0 1-10.5-4.902 3.573 3.573 0 0 0-6.313 2.296c0 1.326-1.038 2.4-2.363 2.446l-.826.028c.997-5.704 5.983-10.052 11.967-10.052zm-33.74-24.92h19.629l-7.014 7.015a3.575 3.575 0 0 0 .05 5.104l6.721 6.467h-19.386V7.148zm-3.573 25.735h8.166v2.882h-16.34V17.894h4.6v11.414c0 1.975 1.6 3.575 3.574 3.575zM42.463 62.906c-6.7 0-12.15-5.452-12.15-12.152V49.4h4.115c4.277 0 8.382-1.3 11.822-3.672a9.559 9.559 0 0 0 7.108 3.508l1.255.043v1.475c0 6.7-5.451 12.152-12.15 12.152zm2.65 7.148l-2.649 8.51-2.65-8.51h5.298zm-2.65-37.986c5.984 0 10.97 4.348 11.968 10.052l-.827-.028a2.438 2.438 0 0 1-2.363-2.447 3.574 3.574 0 0 0-6.312-2.296 13.666 13.666 0 0 1-10.501 4.903h-3.955c.943-5.768 5.96-10.184 11.99-10.184zM7.486 46.47a2.605 2.605 0 0 1-.338-1.282c0-1.733 1.354-2.324 1.77-2.464.415-.14 1.851-.49 2.9.89l.069.09 19.864 24.494 7.302 23.452a3.574 3.574 0 0 0 6.824 0l6.72-21.597H84.58a3.33 3.33 0 0 1 3.325 3.326 3.344 3.344 0 0 1-2.845 3.291l-25.963 3.786a3.574 3.574 0 0 0-3.058 3.537l.004 25.018h-27.16l.004-23.826c0-.618-.16-1.225-.465-1.763L7.486 46.47zm34.977 73.027a3.573 3.573 0 0 0-3.573 3.574v37.97l-10.005 4.114V116.16h27.157v37.832l-10.005 4.112v-35.033c0-1.974-1.6-3.574-3.574-3.574zm47.702 20.467l-26.977 11.09v-38.423l-.002-25.547 22.904-3.34a10.348 10.348 0 0 0 1.86-.45v31.432a3.573 3.573 0 1 0 7.146 0V83.31c.583.197 1.19.345 1.815.436l22.904 3.34-.004 25.501v.023l.002.023v38.415l-26.93-11.081a3.572 3.572 0 0 0-2.718-.001z" fill="#000"/><path d="M91.5 126a3.52 3.52 0 0 0-2.475 1.025A3.511 3.511 0 0 0 88 129.5c0 .92.371 1.824 1.025 2.475A3.528 3.528 0 0 0 91.5 133c.92 0 1.824-.375 2.475-1.025A3.528 3.528 0 0 0 95 129.5c0-.92-.375-1.824-1.025-2.475A3.526 3.526 0 0 0 91.5 126z" fill="#000"/></g></svg>