<svg width="105" height="107" xmlns="http://www.w3.org/2000/svg"><g fill="none"><path fill="#D8232A" d="M20.609 50.354l-.27 39.22-13.86-5.45-4.178-20.275 5.34-11.765zm62.691 0l.27 39.22 13.86-5.45 4.179-20.275-5.34-11.765z"/><path d="M52.5.817c-20.012 0-36.207 16.361-36.207 36.56v8.686C7.195 47.387 0 53.883 0 62.47v14.022c0 9.75 9.297 16.975 19.914 16.975 2 0 3.62-1.627 3.62-3.634V37.377c0-16.33 12.872-29.294 28.966-29.294s28.966 12.963 28.966 29.294v51.434l-6.28 10.106h-6.393a3.618 3.618 0 0 0-3.178 1.801 3.645 3.645 0 0 0 0 3.664 3.619 3.619 0 0 0 3.178 1.801h8.43a3.619 3.619 0 0 0 3.054-1.76l6.79-11.013C96.835 92.58 105 85.633 105 76.492V62.47c0-8.587-7.195-15.083-16.293-16.407v-8.686C88.707 17.178 72.512.817 52.5.817zM16.293 53.33v32.246c-5.415-1.255-9.052-5.008-9.052-9.084V62.47c0-4.292 3.525-8.002 9.052-9.14zm72.414 0c5.527 1.138 9.052 4.848 9.052 9.14v14.022c0 4.076-3.637 7.829-9.052 9.084V53.33zM56.12 98.917c-2 0-3.621 1.626-3.621 3.633a3.627 3.627 0 0 0 3.62 3.633c2 0 3.621-1.626 3.621-3.633a3.627 3.627 0 0 0-3.62-3.633z" fill="#024364"/></g></svg>