<svg width="68" height="68" xmlns="http://www.w3.org/2000/svg"><g transform="translate(1 1)" fill="none" fill-rule="evenodd"><g fill-rule="nonzero"><path d="M26.795 31.883h13.41c3.366 0 6.095 2.761 6.095 6.167v4.317H20.7V38.05c0-3.406 2.729-6.167 6.095-6.167z" fill="#1F6C8C"/><path d="M49.348 50.383H17.652v-5.55c0-4.086 3.275-7.4 7.315-7.4h17.066c4.04 0 7.315 3.314 7.315 7.4v5.55z" fill="#DC4D41"/><path d="M28.624 38.05v4.933a2.48 2.48 0 0 1-.975 1.974l-3.901 2.96v-3.084l1.463-1.11a2.477 2.477 0 0 0 .975-1.973v-3.7h2.438zm9.752 0v4.933c0 .777.362 1.508.975 1.974l3.901 2.96v-3.084l-1.462-1.11a2.477 2.477 0 0 1-.976-1.973v-3.7h-2.438z" fill="#C7463B"/><path d="M28.624 37.433v4.934a2.48 2.48 0 0 1-.975 1.973l-3.901 2.96v-3.083l1.463-1.11a2.477 2.477 0 0 0 .975-1.974v-3.7h2.438zm9.752 0v4.934c0 .776.362 1.507.975 1.973l3.901 2.96v-3.083l-1.462-1.11a2.477 2.477 0 0 1-.976-1.974v-3.7h-2.438z" fill="#3B869E"/><path d="M31.062 34.35h4.876v3.7c0 1.362-1.092 2.467-2.438 2.467s-2.438-1.105-2.438-2.467v-3.7zm-13.41 13.567h6.096v2.466h-6.096zm25.6 0h6.096v2.466h-6.096z" fill="#FDC9A6"/><path d="M31.062 33.117h4.876v.616c0 1.362-1.091 2.467-2.438 2.467-1.346 0-2.438-1.105-2.438-2.467v-.616z" fill="#F6BB92"/><path d="M26.795 19.55h13.41v8.633c0 3.747-3.002 6.784-6.705 6.784-3.703 0-6.705-3.037-6.705-6.784V19.55z" fill="#FDC9A6"/><path d="M26.795 19.55v5.55l1.99-.67a2.465 2.465 0 0 0 1.667-2.341V21.4l2.831 1.718a4.833 4.833 0 0 0 5.957-.74l.965-.978v-1.85h-13.41z" fill="#D68F29"/><path d="M30.452 27.567a.613.613 0 0 1-.61-.617v-.617c0-.34.274-.616.61-.616.337 0 .61.276.61.616v.617c0 .34-.273.617-.61.617zm6.096 0a.613.613 0 0 1-.61-.617v-.617c0-.34.273-.616.61-.616.336 0 .61.276.61.616v.617c0 .34-.274.617-.61.617zM33.5 30.033a.604.604 0 0 1-.272-.064l-1.219-.617a.62.62 0 0 1-.235-.894l1.22-1.85a.605.605 0 0 1 .845-.171.62.62 0 0 1 .169.855l-.837 1.269.601.304a.62.62 0 0 1 .274.827.608.608 0 0 1-.546.341zm0 2.461a3.76 3.76 0 0 1-2.686-1.221l-.183-.188.864-.87.183.185a2.391 2.391 0 0 0 3.644 0l.183-.185.865.87-.183.185a3.76 3.76 0 0 1-2.687 1.224z" fill="#804D35"/><path d="M26.186 24.483h.61v3.7h-.61a1.84 1.84 0 0 1-1.829-1.85 1.84 1.84 0 0 1 1.829-1.85zm14.628 3.7h-.61v-3.7h.61a1.84 1.84 0 0 1 1.829 1.85 1.84 1.84 0 0 1-1.829 1.85z" fill="#F6BB92"/><path d="M31.671 14.617h3.658c2.692 0 4.876 2.209 4.876 4.933h-13.41c0-2.724 2.184-4.933 4.876-4.933z" fill="#89B140"/><path fill="#79A73A" d="M26.795 18.933H45.69v1.234H26.795z"/><path d="M21.31 38.831h-1.22v-.781c0-3.74 3.008-6.783 6.705-6.783h1.085V32.5h-1.085c-3.024 0-5.485 2.49-5.485 5.55v.781zm25.6-.007h-1.22v-.774c0-3.06-2.46-5.55-5.485-5.55h-1.087v-1.233h1.087c3.697 0 6.705 3.043 6.705 6.783v.774z" fill="#000"/><path d="M33.5 35.583c-4.033 0-7.314-3.32-7.314-7.4v-9.25h14.628v9.25c0 4.08-3.28 7.4-7.314 7.4zm-6.095-15.416v8.016c0 3.4 2.734 6.167 6.095 6.167 3.36 0 6.095-2.766 6.095-6.167v-8.016h-12.19z" fill="#000"/><path d="M40.814 20.167H26.186v-.617c0-3.06 2.461-5.55 5.485-5.55h3.658c3.025 0 5.485 2.49 5.485 5.55v.617zm-13.366-1.234h12.103c-.296-2.089-2.076-3.7-4.222-3.7H31.67c-2.146 0-3.926 1.611-4.223 3.7z" fill="#000"/><path d="M26.795 25.717a.603.603 0 0 1-.356-.117.619.619 0 0 1-.253-.5v-5.55c0-.34.273-.617.61-.617h13.409c.337 0 .61.277.61.617v1.85c0 .163-.065.32-.179.436l-.965.978a5.433 5.433 0 0 1-6.702.833l-1.93-1.172a3.07 3.07 0 0 1-2.06 2.54l-1.991.67a.608.608 0 0 1-.193.032zm.61-5.55v4.078l1.188-.4a1.846 1.846 0 0 0 1.25-1.756V21.4c0-.222.118-.427.309-.536a.602.602 0 0 1 .614.008l2.83 1.718a4.223 4.223 0 0 0 5.212-.648l.787-.797v-.978h-12.19z" fill="#000"/><path d="M30.452 26.333v.617" fill="#FFF"/><path d="M30.452 27.567a.613.613 0 0 1-.61-.617v-.617c0-.34.274-.616.61-.616.337 0 .61.276.61.616v.617c0 .34-.273.617-.61.617z" fill="#000"/><path d="M36.548 26.333v.617" fill="#FFF"/><path d="M36.548 27.567a.613.613 0 0 1-.61-.617v-.617c0-.34.273-.616.61-.616.337 0 .61.276.61.616v.617c0 .34-.273.617-.61.617zM33.5 30.033a.605.605 0 0 1-.273-.064l-1.219-.617a.623.623 0 0 1-.235-.894l1.22-1.85a.605.605 0 0 1 .845-.171.62.62 0 0 1 .17.855l-.837 1.27.601.303a.62.62 0 0 1 .273.828.608.608 0 0 1-.546.34zm.002 2.457a3.57 3.57 0 0 1-2.717-1.251l-.154-.154.862-.872.183.185c.888 1.033 2.393 1.141 3.383.271.085-.074.164-.154.237-.24l.212-.216.862.872-.183.185a3.557 3.557 0 0 1-2.684 1.22z" fill="#000"/><path d="M26.795 19.55H45.69" fill="#FFF"/><path fill="#000" d="M26.795 18.933H45.69v1.233H26.795zm.61 9.867h-1.22c-1.344 0-2.437-1.106-2.437-2.467 0-1.36 1.093-2.466 2.438-2.466h1.219V28.8zm-1.22-3.7c-.672 0-1.218.553-1.218 1.233s.546 1.234 1.219 1.234V25.1zm14.629 3.7h-1.219v-4.933h1.22c1.344 0 2.437 1.106 2.437 2.466S42.16 28.8 40.814 28.8zm0-3.7v2.467c.673 0 1.22-.553 1.22-1.234 0-.68-.547-1.233-1.22-1.233zM49.957 51H17.043v-6.167c0-4.42 3.555-8.016 7.924-8.016h6.095v1.233h-6.095c-3.697 0-6.705 3.043-6.705 6.783v4.934h30.476v-4.934c0-3.74-3.008-6.783-6.705-6.783h-6.095v-1.233h6.095c4.37 0 7.924 3.596 7.924 8.016V51z"/><path d="M23.748 47.917a.609.609 0 0 1-.61-.617v-3.083a.62.62 0 0 1 .244-.494l1.463-1.11c.458-.348.731-.9.731-1.48v-3.7c0-.34.273-.616.61-.616h2.438c.336 0 .61.275.61.616v4.934c0 .965-.457 1.887-1.22 2.466l-3.9 2.96a.602.602 0 0 1-.366.124zm.61-3.392v1.542l2.925-2.22c.458-.348.731-.901.731-1.48V38.05h-1.219v3.083c0 .965-.456 1.888-1.219 2.467l-1.219.925zm18.894 3.392a.602.602 0 0 1-.365-.124l-3.901-2.96a3.11 3.11 0 0 1-1.22-2.466v-4.934c0-.34.273-.616.61-.616h2.438c.337 0 .61.275.61.616v3.7c0 .58.273 1.132.731 1.48l1.462 1.11c.154.116.244.3.244.494V47.3c0 .234-.13.447-.337.552a.603.603 0 0 1-.272.065zm-4.266-9.867v4.317c0 .579.273 1.132.731 1.48l2.926 2.22v-1.542l-1.22-.925a3.11 3.11 0 0 1-1.218-2.467V38.05h-1.22zM33.5 41.133c-1.68 0-3.048-1.383-3.048-3.083v-.617h1.22v.617c0 1.02.82 1.85 1.828 1.85s1.829-.83 1.829-1.85v-.617h1.219v.617c0 1.7-1.368 3.083-3.048 3.083zM43.252 51H23.748a.613.613 0 0 1-.61-.617v-1.85h1.22v1.234h18.285v-1.234h1.219v1.85a.613.613 0 0 1-.61.617z" fill="#000"/><path d="M24.357 51h-7.314v-3.7h7.314V51zm-6.095-1.233h4.876v-1.234h-4.876v1.234zM49.957 51h-7.314v-3.7h7.314V51zm-6.095-1.233h4.876v-1.234h-4.876v1.234zM30.452 34.35h1.219v3.083h-1.219zm4.877 0h1.219v3.083h-1.219z" fill="#000"/></g><circle stroke="#000" cx="33" cy="33" r="33"/></g></svg>