<?xml version="1.0" encoding="UTF-8"?>
<svg width="152px" height="152px" viewBox="0 0 152 152" version="1.1" xmlns="http://www.w3.org/2000/svg" xmlns:xlink="http://www.w3.org/1999/xlink">
    <!-- Generator: Sketch 51.1 (57501) - http://www.bohemiancoding.com/sketch -->
    <title>Group 2</title>
    <desc>Created with Sketch.</desc>
    <defs></defs>
    <g id="Page-1" stroke="none" stroke-width="1" fill="none" fill-rule="evenodd">
        <g id="Artboard" transform="translate(-251.000000, -161.000000)">
            <g id="Group" transform="translate(252.000000, 162.000000)">
                <g id="Group-2">
                    <circle id="Oval" stroke="#979797" fill="#F6F6F6" cx="75" cy="75" r="75"></circle>
                    <g id="aeroplane-" transform="translate(38.000000, 38.000000)" fill="#333333" fill-rule="nonzero">
                        <path d="M73.4756098,55.483668 C73.8821646,55.5857457 74.2378049,55.5345536 74.5426829,55.3303982 C74.847561,55.1259363 75,54.8193967 75,54.4107794 L75,48.8930666 C75,47.8710635 74.5426829,47.053829 73.6280488,46.4407498 L45.1219512,29.4278018 C44.2073171,28.9168003 43.75,28.0992592 43.75,26.975485 L43.75,7.81675986 C43.75,6.79491009 43.5467988,5.82425244 43.1402439,4.90463364 C42.0224085,2.04354626 40.4471037,0.459809403 38.4146341,0.153269801 C38.1097561,0.0510388438 37.804878,0 37.5,0 C37.195122,0 36.8394817,0.0510388438 36.4329268,0.153269801 C36.33125,0.153269801 36.2042683,0.178865858 36.0518293,0.229904702 C35.8993902,0.280943546 35.7214939,0.357578446 35.5182927,0.459809403 C34.8068598,0.664118048 34.1463415,1.12392745 33.5365854,1.83923761 C32.9268293,2.55454778 32.4695122,3.21866582 32.1646341,3.83174503 L31.7073171,4.90463364 C31.402439,5.82425244 31.25,6.79491009 31.25,7.81675986 L31.25,26.975485 C31.25,28.0994125 30.7926829,28.9169536 29.8780488,29.4278018 L1.37195122,46.4407498 C0.457317073,47.053829 0,47.8710635 0,48.8930666 L0,54.4107794 C0,54.8193967 0.152439024,55.1259363 0.457317073,55.3303982 C0.762195122,55.5345536 1.11783537,55.5857457 1.52439024,55.483668 L29.7256098,46.28748 C30.1321646,46.083018 30.4878049,46.1084608 30.7926829,46.3641149 C31.097561,46.6194623 31.25,46.9514447 31.25,47.3603686 L31.25,62.2275393 C31.25,63.35162 30.8434451,64.2200467 30.0304878,64.8331259 L26.2195122,67.5919823 C25.4065549,68.2050615 25,69.0734882 25,70.1975689 L25,73.8760442 C25,74.2846614 25.152439,74.5912011 25.4573171,74.795663 C25.7621951,75.0001249 26.1178354,75.0510105 26.5243902,74.9489328 L35.9756098,72.1900763 C36.9919207,71.8835367 38.0080793,71.8835367 39.0243902,72.1900763 L48.4756098,74.9489328 C48.8821646,75.0510105 49.2378049,75.0001249 49.5426829,74.795663 C49.847561,74.5912011 50,74.2846614 50,73.8760442 L50,70.1975689 C50,69.0734882 49.5934451,68.2050615 48.7804878,67.5919823 L44.9695122,64.8331259 C44.1565549,64.2200467 43.75,63.35162 43.75,62.2275393 L43.75,47.3603686 C43.75,46.849367 43.902439,46.4916353 44.2073171,46.28748 C44.5121951,46.083018 44.8678354,46.083018 45.2743902,46.28748 L73.4756098,55.483668 Z" id="Shape"></path>
                    </g>
                </g>
            </g>
        </g>
    </g>
</svg>