<svg width="113" height="86" xmlns="http://www.w3.org/2000/svg" xmlns:xlink="http://www.w3.org/1999/xlink"><defs><path id="a" d="M0 0h205v95H0z"/></defs><g transform="translate(-45 -9)" fill="none" fill-rule="evenodd"><mask id="b" fill="#fff"><use xlink:href="#a"/></mask><g mask="url(#b)"><path d="M48.696 24.696h1.608a.696.696 0 1 0 0-1.392h-1.608v-1.608a.696.696 0 1 0-1.392 0v1.608h-1.608a.696.696 0 1 0 0 1.392h1.608v1.608A.694.694 0 0 0 48 27a.696.696 0 0 0 .696-.696v-1.608m3.848 73.848h2.412a1.044 1.044 0 1 0 0-2.088h-2.412v-2.412a1.044 1.044 0 1 0-2.088 0v2.412h-2.412a1.044 1.044 0 1 0 0 2.088h2.412v2.412A1.04 1.04 0 0 0 51.5 102c.577 0 1.044-.468 1.044-1.044v-2.412m90.384-77.616h2.144a.928.928 0 1 0 0-1.856h-2.144v-2.144a.928.928 0 1 0-1.856 0v2.144h-2.144a.928.928 0 1 0 0 1.856h2.144v2.144A.926.926 0 0 0 142 24a.928.928 0 0 0 .928-.928v-2.144M62 10.335c-.918 0-1.665.747-1.665 1.665s.747 1.665 1.665 1.665 1.665-.747 1.665-1.665-.747-1.665-1.665-1.665zM62 15c-1.654 0-3-1.346-3-3s1.346-3 3-3 3 1.346 3 3-1.346 3-3 3zm23.63 11c-.243 0-.473-.268-.577-.718-.14-.607.005-1.315.323-1.582.25-.21.505-.415.758-.612.322-.249.689.047.82.661.13.614-.025 1.315-.346 1.564-.243.188-.487.385-.726.585a.392.392 0 0 1-.253.102M65.95 41a.909.909 0 0 1-.545-.183c-.43-.319-.534-.948-.233-1.403 3.517-5.323 8.146-9.912 13.386-13.269.45-.287 1.033-.135 1.305.342.271.476.127 1.096-.322 1.384-5.016 3.213-9.446 7.604-12.812 12.7a.934.934 0 0 1-.78.429M58.94 62a.895.895 0 0 1-.098-.005c-.516-.056-.89-.532-.837-1.064.037-.362.079-.728.124-1.087a.945.945 0 0 1 1.052-.836.962.962 0 0 1 .811 1.084c-.043.344-.083.694-.118 1.04a.95.95 0 0 1-.933.868m8.089 32a.962.962 0 0 1-.792-.42c-5.172-7.51-8.02-16.348-8.238-25.56a.985.985 0 0 1 .947-1.02c.537-.017.98.422.993.972.208 8.816 2.933 17.273 7.882 24.456.31.45.205 1.071-.232 1.39a.948.948 0 0 1-.56.182m73.874 0a.834.834 0 0 1-.531-.195c-.404-.331-.494-.97-.2-1.425 3.537-5.482 5.968-11.894 7.031-18.54.089-.556.56-.923 1.051-.824.492.1.819.63.73 1.185-1.11 6.948-3.652 13.65-7.348 19.379a.876.876 0 0 1-.733.42m3.505-44c-.235 0-.456-.186-.55-.492a40.37 40.37 0 0 0-.798-2.376c-.144-.389-.024-.86.27-1.051.292-.192.647-.031.791.358.3.81.581 1.645.835 2.482.122.403-.025.86-.328 1.022a.466.466 0 0 1-.22.057M141 44a.992.992 0 0 1-.861-.512c-4.624-8.123-11.387-14.516-19.559-18.485-.501-.244-.72-.868-.487-1.394.233-.526.828-.755 1.33-.511 8.538 4.148 15.604 10.826 20.435 19.314.284.498.128 1.142-.346 1.44a.963.963 0 0 1-.513.148M94.85 13c-.415 0-.779-.325-.84-.776-.07-.496.252-.958.718-1.03.437-.07.882-.132 1.32-.188.467-.059.89.297.946.796.055.498-.279.95-.746 1.008-.422.053-.85.114-1.273.18a.79.79 0 0 1-.125.01m29.153 5a.985.985 0 0 1-.413-.091 53.423 53.423 0 0 0-21.606-4.892 1.003 1.003 0 0 1-.984-1.02c.006-.553.451-.997.996-.997h.012a55.414 55.414 0 0 1 22.41 5.073c.5.231.72.83.492 1.336a.995.995 0 0 1-.907.591m22.284 16c-.22 0-.435-.138-.575-.398a54.886 54.886 0 0 0-.562-1.02c-.242-.428-.185-1.043.126-1.376.311-.332.76-.254 1.001.173.196.347.392.702.583 1.058.235.436.167 1.05-.15 1.371a.593.593 0 0 1-.423.192m10.638 36a.924.924 0 0 1-.076-.003c-.497-.045-.865-.514-.823-1.047.804-10.275-1.24-20.48-5.912-29.51-.242-.467-.086-1.057.35-1.318.434-.26.983-.091 1.226.376 4.847 9.369 6.967 19.955 6.133 30.614-.04.506-.434.888-.898.888M48.15 76a.841.841 0 0 1-.84-.7 43.964 43.964 0 0 1-.306-2.4.83.83 0 0 1 .764-.896c.467-.043.883.287.927.739.077.77.176 1.549.295 2.314a.826.826 0 0 1-.713.934.883.883 0 0 1-.128.009m-.123-10h-.007c-.566-.004-1.022-.443-1.019-.983.073-10.992 3.576-21.572 10.131-30.596a1.06 1.06 0 0 1 1.427-.248.947.947 0 0 1 .26 1.359c-6.32 8.7-9.697 18.9-9.767 29.498-.004.537-.462.97-1.025.97" fill="#000"/><path fill="#FFD621" d="M65.8 88.366l23.053 17.358 33.832-14.187 14.666-14.193-.983-5.34-5.88-1.42-15.856 14.849-14.877 1.355-3.384-5.902 14.019-3.542 1.22-5.34-5.322-3.233L84.4 72.004 67.703 85.433z"/><path fill="#4AD8FF" d="M94.23 53.592l10.251 9.445 13.588-15.124v-8.74l-7.48-3.25-6.108 3.25-6.176-3.25H94.23l-3.617 5.26v6.73l1.449 3.324z"/><path d="M104.005 64a2.503 2.503 0 0 0 1.77-.744l11.319-11.281c3.875-4.157 3.875-10.733 0-14.89-1.669-1.758-3.954-2.747-6.338-2.745-2.45.02-4.825.88-6.75 2.445C101.92 34.949 99.897 34 98.012 34c-2.672-.006-5.231 1.11-7.089 3.093-3.899 4.16-3.899 10.762 0 14.921l11.31 11.242a2.503 2.503 0 0 0 1.771.744zM93.057 39.094A6.8 6.8 0 0 1 97.974 37c1.347 0 3.04.962 4.894 2.776a1.61 1.61 0 0 0 2.309 0 8.095 8.095 0 0 1 5.617-2.42 5.764 5.764 0 0 1 4.178 1.753 7.463 7.463 0 0 1 0 10.228L103.992 60 93.057 49.353a7.424 7.424 0 0 1 0-10.26zm44.167 31.316c-2.423-2.417-6.382-2.5-8.91-.188l-13.762 12.7-13.23 1.486-2.001-2.756 9.67-2.578c2.19-.424 3.982-1.955 4.7-4.016a5.981 5.981 0 0 0-1.215-5.98c-1.471-1.637-3.726-2.385-5.916-1.961l-20.837 2.595a7.435 7.435 0 0 0-4.138 1.719L63.638 86.6a1.774 1.774 0 0 0-.637 1.29c-.019.497.175.98.536 1.332l14.616 14.249a1.86 1.86 0 0 0 1.294.528 1.857 1.857 0 0 0 1.303-.546l5.203-5.28 28.342-.108a7.437 7.437 0 0 0 5.11-2.04l17.7-16.898a6.095 6.095 0 0 0 .12-8.718zm-2.848 6.505l-17.768 16.921a3.742 3.742 0 0 1-2.564 1.023l-29.266.108c-.501 0-.98.197-1.328.547L78.987 100 67 88.337l16.579-13.844a3.74 3.74 0 0 1 2.148-.897l21.005-2.575c1.352-.169 2.607.71 2.871 2.01.265 1.3-.55 2.579-1.866 2.924l-12.254 3.257a1.825 1.825 0 0 0-1.25 1.123c-.204.55-.12 1.162.226 1.64l4.159 5.724c.39.535 1.047.82 1.715.745l14.984-1.678a1.865 1.865 0 0 0 1.042-.493l14.301-13.126a2.738 2.738 0 0 1 3.598.251c.954.972.993 2.49.09 3.508l.028.01z" fill="#000" fill-rule="nonzero"/></g></g></svg>