<svg width="141" height="124" xmlns="http://www.w3.org/2000/svg"><g fill="none" fill-rule="evenodd"><g transform="translate(.18 -.5)" fill="#F05F50"><path d="M101.876 24.477c0-.234.117-.352.352-.352h1.464v-1.544c0-.234.128-.352.384-.352h1.792c.235 0 .352.118.352.352v1.544h1.464c.096 0 .179.031.248.092.07.062.104.148.104.26v1.624c0 .08-.032.164-.096.252a.301.301 0 0 1-.256.132h-1.464v1.552c0 .096-.03.18-.088.248-.059.07-.147.104-.264.104h-1.792a.433.433 0 0 1-.252-.096.301.301 0 0 1-.132-.256v-1.552h-1.464c-.235 0-.352-.128-.352-.384v-1.624zm34.36 9.443c0-.144.072-.216.215-.216h.895v-.943c0-.144.078-.215.234-.215h1.095c.144 0 .215.071.215.215v.943h.895c.059 0 .11.019.152.056a.2.2 0 0 1 .063.16v.991c0 .05-.02.1-.059.154a.184.184 0 0 1-.156.081h-.895v.948c0 .059-.017.11-.053.152-.036.042-.09.063-.162.063h-1.095c-.048 0-.1-.02-.154-.058a.184.184 0 0 1-.08-.157v-.948h-.895c-.143 0-.215-.078-.215-.235v-.992zm-3.764 22.337c0-.143.072-.215.215-.215h.895V55.1c0-.144.078-.215.234-.215h1.095c.144 0 .215.071.215.215v.943h.895c.059 0 .11.019.152.056a.2.2 0 0 1 .063.16v.992c0 .049-.02.1-.059.154a.184.184 0 0 1-.156.08h-.895v.949a.225.225 0 0 1-.053.151c-.036.043-.09.064-.162.064h-1.095c-.048 0-.1-.02-.154-.059a.184.184 0 0 1-.08-.156v-.949h-.895c-.143 0-.215-.078-.215-.234v-.993zm-98.16-37.94c0-.234.118-.352.352-.352h1.464v-1.544c0-.234.128-.352.384-.352h1.792c.235 0 .352.118.352.352v1.544h1.464c.096 0 .179.031.248.092.07.062.104.148.104.26v1.624c0 .08-.032.164-.096.252a.301.301 0 0 1-.256.132h-1.464v1.552c0 .096-.03.18-.088.248-.058.07-.146.104-.264.104h-1.792a.433.433 0 0 1-.252-.096.301.301 0 0 1-.132-.256v-1.552h-1.464c-.234 0-.352-.128-.352-.384v-1.624zM0 56.257c0-.143.072-.215.215-.215h.895V55.1c0-.144.078-.215.234-.215H2.44c.144 0 .215.071.215.215v.943h.895a.22.22 0 0 1 .151.056c.043.038.064.09.064.16v.992c0 .049-.02.1-.059.154a.184.184 0 0 1-.156.08h-.895v.949a.23.23 0 0 1-.053.151c-.036.043-.09.064-.162.064H1.344c-.049 0-.1-.02-.154-.059a.184.184 0 0 1-.08-.156v-.949H.215c-.143 0-.215-.078-.215-.234v-.993zm10.472-31.456c0-.143.072-.215.215-.215h.895v-.943c0-.144.078-.216.234-.216h1.095c.144 0 .215.072.215.216v.943h.895c.059 0 .11.019.152.056.042.038.063.09.063.16v.991c0 .05-.02.1-.059.154a.184.184 0 0 1-.156.081h-.895v.948c0 .059-.017.11-.053.152-.036.042-.09.063-.162.063h-1.095c-.048 0-.1-.02-.154-.058a.184.184 0 0 1-.08-.157v-.948h-.895c-.143 0-.215-.078-.215-.235v-.992zM72.59 2.303c0-.144.072-.215.215-.215h.895v-.944c0-.143.078-.215.234-.215h1.095c.144 0 .216.072.216.215v.944h.894c.059 0 .11.019.152.056.042.037.063.09.063.159v.992c0 .05-.02.1-.059.154a.184.184 0 0 1-.156.08h-.894v.95a.223.223 0 0 1-.054.15c-.036.043-.09.064-.162.064h-1.095c-.048 0-.1-.02-.154-.058a.184.184 0 0 1-.08-.157V3.53h-.895c-.143 0-.215-.078-.215-.235v-.992z"/><circle stroke="#FFF" cx="28.838" cy="40.809" r="1.5"/><circle stroke="#FFF" cx="123.456" cy="37.809" r="1.5"/></g><g transform="translate(21.333 26.5)" fill-rule="nonzero"><circle fill="#E1E6E8" cx="48.614" cy="48.614" r="48.614"/><path d="M48.462 9.115c-2.583 1.671-13.065 10.938-36.005 12.002.608 18.078-5.469 60.159 36.005 70.185 41.32-10.026 35.396-52.107 36.004-70.185-22.94-1.064-33.422-10.33-36.004-12.002z" fill="#FFF"/><path d="M48.462 92.821h-.304c-37.676-9.115-37.372-43.6-37.22-64.26v-7.293c0-.76.608-1.519 1.52-1.519 20.356-1.063 30.838-8.659 34.18-11.242.304-.303.76-.455.912-.607.456-.304 1.216-.304 1.671 0 .304.152.608.455.912.607 3.342 2.583 13.824 10.179 34.333 11.09.76 0 1.52.76 1.52 1.52v7.292c.151 20.66.455 55.145-37.069 64.26-.152.152-.303.152-.455.152zM13.976 22.636v5.924c-.152 19.598-.455 52.564 34.486 61.223 34.94-8.811 34.637-41.625 34.485-61.223v-5.924C62.59 21.42 52.107 13.672 48.462 11.09c-3.495 2.43-14.129 10.178-34.486 11.546z" fill="#183651"/><path d="M48.462 85.074c-27.953-7.596-30.08-31.295-29.928-56.514v-1.823c11.697-1.215 21.724-5.62 29.927-10.482 8.204 4.861 18.23 9.267 29.928 10.482v1.823c.152 25.219-1.975 48.918-29.927 56.514z" fill="#F05F50"/><circle fill="#FFF" cx="48.462" cy="53.171" r="16.407"/><path fill="#173651" d="M56.361 44.208L45.727 54.994l-5.317-5.317-3.494 3.494 8.811 8.811 14.28-14.28z"/><path d="M36.612 26.889h3.038v3.038h-3.038zm10.33 0h3.038v3.038h-3.038zm10.331 0h3.038v3.038h-3.038z" fill="#183651"/></g></g></svg>