<svg xmlns="http://www.w3.org/2000/svg" viewBox="0 0 100 60"><path d="M100 60V1.7c0-1-.8-1.7-1.7-1.7H1.7C.8 0 0 .8 0 1.7V60h100z" fill="#ff4b55"/><path d="M49.5 26.8l2.7 3.5 4.2-1.4c.2-.1.4.2.3.4L54.2 33l2.6 3.6c.1.2 0 .5-.3.4l-4.3-1.3-2.6 3.6c-.1.2-.5.1-.5-.1l-.1-4.4-4.2-1.3c-.2-.1-.2-.4 0-.5l4.2-1.5v-4.4c0-.3.4-.5.5-.3zM34.6 46.5c-7.6 0-13.8-6.2-13.8-13.8C20.8 25.1 27 19 34.6 19c2.8 0 5.4.9 7.6 2.3.3.2.7-.2.4-.5-3.3-3.4-7.9-5.4-13-5.3-8.8.3-16 7.3-16.6 16.1-.6 10 7.4 18.4 17.3 18.4 4.9 0 9.3-2 12.4-5.3.3-.3-.1-.7-.4-.5-2.3 1.5-4.9 2.3-7.7 2.3z" fill="#f5f5f5"/></svg>