<svg width="19" height="17" xmlns="http://www.w3.org/2000/svg"><path d="M18.384 2.646a7.502 7.502 0 0 1-2.179.637 3.975 3.975 0 0 0 1.663-2.23 7.277 7.277 0 0 1-2.397.977c-.694-.79-1.683-1.277-2.762-1.277-2.094 0-3.779 1.813-3.779 4.035 0 .32.026.627.088.92-3.144-.164-5.925-1.771-7.794-4.22a4.27 4.27 0 0 0-.517 2.04c0 1.396.674 2.634 1.68 3.351a3.557 3.557 0 0 1-1.71-.497v.045c0 1.96 1.311 3.588 3.03 3.963-.308.09-.643.132-.991.132A3.14 3.14 0 0 1 2 10.454c.49 1.597 1.88 2.771 3.533 2.81A7.301 7.301 0 0 1-.06 14.927a10.168 10.168 0 0 0 5.8 1.81c6.958 0 10.762-6.148 10.762-11.477 0-.178-.005-.35-.013-.521a7.84 7.84 0 0 0 1.895-2.094z" fill="#25ABE3"/></svg>