<?xml version="1.0" encoding="utf-8"?>
<!-- Generator: Adobe Illustrator 22.1.0, SVG Export Plug-In . SVG Version: 6.00 Build 0)  -->
<svg version="1.1" id="Layer_1" xmlns="http://www.w3.org/2000/svg" xmlns:xlink="http://www.w3.org/1999/xlink" x="0px" y="0px"
	 viewBox="0 0 100 60" style="enable-background:new 0 0 100 60;" xml:space="preserve">
<style type="text/css">
	.st0{fill:#F5F5F5;}
	.st1{fill:#FF4B55;}
	.st2{fill:#41479B;}
</style>
<path class="st0" d="M100,60V1.7c0-1-0.8-1.7-1.7-1.7H1.7C0.8,0,0,0.8,0,1.7V60H100z"/>
<g>
	<path class="st1" d="M100,5H0V1.7C0,0.8,0.8,0,1.7,0h96.6c1,0,1.7,0.8,1.7,1.7L100,5L100,5z"/>
	<rect y="20.2" class="st1" width="100" height="5"/>
	<rect y="10.1" class="st1" width="100" height="5"/>
	<path class="st1" d="M100,35.3H1.7c-1,0-1.7-0.8-1.7-1.7v-3.3h100V35.3z"/>
	<rect y="50.4" class="st1" width="100" height="5"/>
	<rect y="40.3" class="st1" width="100" height="5"/>
</g>
<path class="st2" d="M44.8,0H1.7C0.8,0,0,0.8,0,1.7v31.8c0,1,0.8,1.7,1.7,1.7h43.1c1,0,1.7-0.8,1.7-1.7V1.7C46.6,0.8,45.8,0,44.8,0z
	"/>
<g>
	<path class="st0" d="M4.8,4l0.4,1.1l1.2,0c0.2,0,0.2,0.2,0.1,0.3l-1,0.7l0.4,1.2c0,0.1-0.1,0.3-0.2,0.2l-1-0.7l-1,0.7
		c-0.1,0.1-0.3,0-0.2-0.2l0.4-1.2l-1-0.7C2.7,5.3,2.8,5.1,2.9,5.1l1.2,0L4.5,4C4.6,3.8,4.8,3.8,4.8,4z"/>
	<path class="st0" d="M4.8,9.9l0.4,1.1l1.2,0c0.2,0,0.2,0.2,0.1,0.3l-1,0.7l0.4,1.2c0,0.1-0.1,0.3-0.2,0.2l-1-0.7l-1,0.7
		c-0.1,0.1-0.3,0-0.2-0.2l0.4-1.2l-1-0.7c-0.1-0.1-0.1-0.3,0.1-0.3l1.2,0l0.4-1.1C4.6,9.8,4.8,9.8,4.8,9.9z"/>
	<path class="st0" d="M4.8,15.9l0.4,1.1l1.2,0c0.2,0,0.2,0.2,0.1,0.3l-1,0.7l0.4,1.2c0,0.1-0.1,0.3-0.2,0.2l-1-0.7l-1,0.7
		c-0.1,0.1-0.3,0-0.2-0.2l0.4-1.2l-1-0.7c-0.1-0.1-0.1-0.3,0.1-0.3l1.2,0l0.4-1.1C4.6,15.8,4.8,15.8,4.8,15.9z"/>
	<path class="st0" d="M4.8,21.9l0.4,1.1l1.2,0c0.2,0,0.2,0.2,0.1,0.3l-1,0.7l0.4,1.2c0,0.1-0.1,0.3-0.2,0.2l-1-0.7l-1,0.7
		c-0.1,0.1-0.3,0-0.2-0.2l0.4-1.2l-1-0.7c-0.1-0.1-0.1-0.3,0.1-0.3l1.2,0l0.4-1.1C4.6,21.8,4.8,21.8,4.8,21.9z"/>
	<path class="st0" d="M4.8,27.9l0.4,1.1l1.2,0c0.2,0,0.2,0.2,0.1,0.3l-1,0.7l0.4,1.2c0,0.1-0.1,0.3-0.2,0.2l-1-0.7l-1,0.7
		c-0.1,0.1-0.3,0-0.2-0.2l0.4-1.2l-1-0.7c-0.1-0.1-0.1-0.3,0.1-0.3l1.2,0l0.4-1.1C4.6,27.8,4.8,27.8,4.8,27.9z"/>
	<path class="st0" d="M9.5,6.9L9.9,8l1.2,0c0.2,0,0.2,0.2,0.1,0.3l-1,0.7l0.4,1.2c0,0.1-0.1,0.3-0.2,0.2l-1-0.7l-1,0.7
		c-0.1,0.1-0.3,0-0.2-0.2l0.4-1.2l-1-0.7C7.4,8.2,7.4,8,7.6,8l1.2,0l0.4-1.1C9.2,6.7,9.4,6.7,9.5,6.9z"/>
	<path class="st0" d="M9.5,12.9L9.9,14l1.2,0c0.2,0,0.2,0.2,0.1,0.3l-1,0.7l0.4,1.2c0,0.1-0.1,0.3-0.2,0.2l-1-0.7l-1,0.7
		c-0.1,0.1-0.3,0-0.2-0.2L8.5,15l-1-0.7C7.4,14.2,7.4,14,7.6,14l1.2,0l0.4-1.1C9.2,12.7,9.4,12.7,9.5,12.9z"/>
	<path class="st0" d="M9.5,18.9L9.9,20l1.2,0c0.2,0,0.2,0.2,0.1,0.3l-1,0.7l0.4,1.2c0,0.1-0.1,0.3-0.2,0.2l-1-0.7l-1,0.7
		c-0.1,0.1-0.3,0-0.2-0.2L8.5,21l-1-0.7C7.4,20.2,7.4,20,7.6,20l1.2,0l0.4-1.1C9.2,18.7,9.4,18.7,9.5,18.9z"/>
	<path class="st0" d="M9.5,24.9L9.9,26l1.2,0c0.2,0,0.2,0.2,0.1,0.3l-1,0.7l0.4,1.2c0,0.1-0.1,0.3-0.2,0.2l-1-0.7l-1,0.7
		c-0.1,0.1-0.3,0-0.2-0.2L8.5,27l-1-0.7C7.4,26.2,7.4,26,7.6,26l1.2,0l0.4-1.1C9.2,24.7,9.4,24.7,9.5,24.9z"/>
	<path class="st0" d="M14.1,4l0.4,1.1l1.2,0c0.2,0,0.2,0.2,0.1,0.3l-1,0.7l0.4,1.2c0,0.1-0.1,0.3-0.2,0.2l-1-0.7l-1,0.7
		c-0.1,0.1-0.3,0-0.2-0.2l0.4-1.2l-1-0.7c-0.1-0.1-0.1-0.3,0.1-0.3l1.2,0L13.8,4C13.9,3.8,14.1,3.8,14.1,4z"/>
	<path class="st0" d="M14.1,9.9l0.4,1.1l1.2,0c0.2,0,0.2,0.2,0.1,0.3l-1,0.7l0.4,1.2c0,0.1-0.1,0.3-0.2,0.2l-1-0.7l-1,0.7
		c-0.1,0.1-0.3,0-0.2-0.2l0.4-1.2l-1-0.7c-0.1-0.1-0.1-0.3,0.1-0.3l1.2,0l0.4-1.1C13.9,9.8,14.1,9.8,14.1,9.9z"/>
	<path class="st0" d="M14.1,15.9l0.4,1.1l1.2,0c0.2,0,0.2,0.2,0.1,0.3l-1,0.7l0.4,1.2c0,0.1-0.1,0.3-0.2,0.2l-1-0.7l-1,0.7
		c-0.1,0.1-0.3,0-0.2-0.2l0.4-1.2l-1-0.7c-0.1-0.1-0.1-0.3,0.1-0.3l1.2,0l0.4-1.1C13.9,15.8,14.1,15.8,14.1,15.9z"/>
	<path class="st0" d="M14.1,21.9l0.4,1.1l1.2,0c0.2,0,0.2,0.2,0.1,0.3l-1,0.7l0.4,1.2c0,0.1-0.1,0.3-0.2,0.2l-1-0.7l-1,0.7
		c-0.1,0.1-0.3,0-0.2-0.2l0.4-1.2l-1-0.7c-0.1-0.1-0.1-0.3,0.1-0.3l1.2,0l0.4-1.1C13.9,21.8,14.1,21.8,14.1,21.9z"/>
	<path class="st0" d="M14.1,27.9l0.4,1.1l1.2,0c0.2,0,0.2,0.2,0.1,0.3l-1,0.7l0.4,1.2c0,0.1-0.1,0.3-0.2,0.2l-1-0.7l-1,0.7
		c-0.1,0.1-0.3,0-0.2-0.2l0.4-1.2l-1-0.7c-0.1-0.1-0.1-0.3,0.1-0.3l1.2,0l0.4-1.1C13.9,27.8,14.1,27.8,14.1,27.9z"/>
	<path class="st0" d="M18.8,6.9L19.2,8l1.2,0c0.2,0,0.2,0.2,0.1,0.3l-1,0.7l0.4,1.2c0,0.1-0.1,0.3-0.2,0.2l-1-0.7l-1,0.7
		c-0.1,0.1-0.3,0-0.2-0.2l0.4-1.2l-1-0.7C16.7,8.2,16.7,8,16.9,8l1.2,0l0.4-1.1C18.5,6.7,18.7,6.7,18.8,6.9z"/>
	<path class="st0" d="M18.8,12.9l0.4,1.1l1.2,0c0.2,0,0.2,0.2,0.1,0.3l-1,0.7l0.4,1.2c0,0.1-0.1,0.3-0.2,0.2l-1-0.7l-1,0.7
		c-0.1,0.1-0.3,0-0.2-0.2l0.4-1.2l-1-0.7c-0.1-0.1-0.1-0.3,0.1-0.3l1.2,0l0.4-1.1C18.5,12.7,18.7,12.7,18.8,12.9z"/>
	<path class="st0" d="M18.8,18.9l0.4,1.1l1.2,0c0.2,0,0.2,0.2,0.1,0.3l-1,0.7l0.4,1.2c0,0.1-0.1,0.3-0.2,0.2l-1-0.7l-1,0.7
		c-0.1,0.1-0.3,0-0.2-0.2l0.4-1.2l-1-0.7c-0.1-0.1-0.1-0.3,0.1-0.3l1.2,0l0.4-1.1C18.5,18.7,18.7,18.7,18.8,18.9z"/>
	<path class="st0" d="M18.8,24.9l0.4,1.1l1.2,0c0.2,0,0.2,0.2,0.1,0.3l-1,0.7l0.4,1.2c0,0.1-0.1,0.3-0.2,0.2l-1-0.7l-1,0.7
		c-0.1,0.1-0.3,0-0.2-0.2l0.4-1.2l-1-0.7c-0.1-0.1-0.1-0.3,0.1-0.3l1.2,0l0.4-1.1C18.5,24.7,18.7,24.7,18.8,24.9z"/>
	<path class="st0" d="M23.4,4l0.4,1.1l1.2,0c0.2,0,0.2,0.2,0.1,0.3l-1,0.7l0.4,1.2c0,0.1-0.1,0.3-0.2,0.2l-1-0.7l-1,0.7
		c-0.1,0.1-0.3,0-0.2-0.2l0.4-1.2l-1-0.7c-0.1-0.1-0.1-0.3,0.1-0.3l1.2,0L23.1,4C23.2,3.8,23.4,3.8,23.4,4z"/>
	<path class="st0" d="M23.4,9.9l0.4,1.1l1.2,0c0.2,0,0.2,0.2,0.1,0.3l-1,0.7l0.4,1.2c0,0.1-0.1,0.3-0.2,0.2l-1-0.7l-1,0.7
		c-0.1,0.1-0.3,0-0.2-0.2l0.4-1.2l-1-0.7c-0.1-0.1-0.1-0.3,0.1-0.3l1.2,0l0.4-1.1C23.2,9.8,23.4,9.8,23.4,9.9z"/>
	<path class="st0" d="M23.4,15.9l0.4,1.1l1.2,0c0.2,0,0.2,0.2,0.1,0.3l-1,0.7l0.4,1.2c0,0.1-0.1,0.3-0.2,0.2l-1-0.7l-1,0.7
		c-0.1,0.1-0.3,0-0.2-0.2l0.4-1.2l-1-0.7c-0.1-0.1-0.1-0.3,0.1-0.3l1.2,0l0.4-1.1C23.2,15.8,23.4,15.8,23.4,15.9z"/>
	<path class="st0" d="M23.4,21.9l0.4,1.1l1.2,0c0.2,0,0.2,0.2,0.1,0.3l-1,0.7l0.4,1.2c0,0.1-0.1,0.3-0.2,0.2l-1-0.7l-1,0.7
		c-0.1,0.1-0.3,0-0.2-0.2l0.4-1.2l-1-0.7c-0.1-0.1-0.1-0.3,0.1-0.3l1.2,0l0.4-1.1C23.2,21.8,23.4,21.8,23.4,21.9z"/>
	<path class="st0" d="M23.4,27.9l0.4,1.1l1.2,0c0.2,0,0.2,0.2,0.1,0.3l-1,0.7l0.4,1.2c0,0.1-0.1,0.3-0.2,0.2l-1-0.7l-1,0.7
		c-0.1,0.1-0.3,0-0.2-0.2l0.4-1.2l-1-0.7c-0.1-0.1-0.1-0.3,0.1-0.3l1.2,0l0.4-1.1C23.2,27.8,23.4,27.8,23.4,27.9z"/>
	<path class="st0" d="M28.1,6.9L28.5,8l1.2,0c0.2,0,0.2,0.2,0.1,0.3l-1,0.7l0.4,1.2c0,0.1-0.1,0.3-0.2,0.2l-1-0.7l-1,0.7
		c-0.1,0.1-0.3,0-0.2-0.2l0.4-1.2l-1-0.7C26,8.2,26,8,26.2,8l1.2,0l0.4-1.1C27.8,6.7,28,6.7,28.1,6.9z"/>
	<path class="st0" d="M28.1,12.9l0.4,1.1l1.2,0c0.2,0,0.2,0.2,0.1,0.3l-1,0.7l0.4,1.2c0,0.1-0.1,0.3-0.2,0.2l-1-0.7l-1,0.7
		c-0.1,0.1-0.3,0-0.2-0.2l0.4-1.2l-1-0.7C26,14.2,26,14,26.2,14l1.2,0l0.4-1.1C27.8,12.7,28,12.7,28.1,12.9z"/>
	<path class="st0" d="M28.1,18.9l0.4,1.1l1.2,0c0.2,0,0.2,0.2,0.1,0.3l-1,0.7l0.4,1.2c0,0.1-0.1,0.3-0.2,0.2l-1-0.7l-1,0.7
		c-0.1,0.1-0.3,0-0.2-0.2l0.4-1.2l-1-0.7C26,20.2,26,20,26.2,20l1.2,0l0.4-1.1C27.8,18.7,28,18.7,28.1,18.9z"/>
	<path class="st0" d="M28.1,24.9l0.4,1.1l1.2,0c0.2,0,0.2,0.2,0.1,0.3l-1,0.7l0.4,1.2c0,0.1-0.1,0.3-0.2,0.2l-1-0.7l-1,0.7
		c-0.1,0.1-0.3,0-0.2-0.2l0.4-1.2l-1-0.7C26,26.2,26,26,26.2,26l1.2,0l0.4-1.1C27.8,24.7,28,24.7,28.1,24.9z"/>
	<path class="st0" d="M32.7,4l0.4,1.1l1.2,0c0.2,0,0.2,0.2,0.1,0.3l-1,0.7l0.4,1.2c0,0.1-0.1,0.3-0.2,0.2l-1-0.7l-1,0.7
		c-0.1,0.1-0.3,0-0.2-0.2l0.4-1.2l-1-0.7c-0.1-0.1-0.1-0.3,0.1-0.3l1.2,0L32.4,4C32.5,3.8,32.7,3.8,32.7,4z"/>
	<path class="st0" d="M32.7,9.9l0.4,1.1l1.2,0c0.2,0,0.2,0.2,0.1,0.3l-1,0.7l0.4,1.2c0,0.1-0.1,0.3-0.2,0.2l-1-0.7l-1,0.7
		c-0.1,0.1-0.3,0-0.2-0.2l0.4-1.2l-1-0.7c-0.1-0.1-0.1-0.3,0.1-0.3l1.2,0l0.4-1.1C32.5,9.8,32.7,9.8,32.7,9.9z"/>
	<path class="st0" d="M32.7,15.9l0.4,1.1l1.2,0c0.2,0,0.2,0.2,0.1,0.3l-1,0.7l0.4,1.2c0,0.1-0.1,0.3-0.2,0.2l-1-0.7l-1,0.7
		c-0.1,0.1-0.3,0-0.2-0.2l0.4-1.2l-1-0.7c-0.1-0.1-0.1-0.3,0.1-0.3l1.2,0l0.4-1.1C32.5,15.8,32.7,15.8,32.7,15.9z"/>
	<path class="st0" d="M32.7,21.9l0.4,1.1l1.2,0c0.2,0,0.2,0.2,0.1,0.3l-1,0.7l0.4,1.2c0,0.1-0.1,0.3-0.2,0.2l-1-0.7l-1,0.7
		c-0.1,0.1-0.3,0-0.2-0.2l0.4-1.2l-1-0.7c-0.1-0.1-0.1-0.3,0.1-0.3l1.2,0l0.4-1.1C32.5,21.8,32.7,21.8,32.7,21.9z"/>
	<path class="st0" d="M32.7,27.9l0.4,1.1l1.2,0c0.2,0,0.2,0.2,0.1,0.3l-1,0.7l0.4,1.2c0,0.1-0.1,0.3-0.2,0.2l-1-0.7l-1,0.7
		c-0.1,0.1-0.3,0-0.2-0.2l0.4-1.2l-1-0.7c-0.1-0.1-0.1-0.3,0.1-0.3l1.2,0l0.4-1.1C32.5,27.8,32.7,27.8,32.7,27.9z"/>
	<path class="st0" d="M37.4,6.9L37.8,8L39,8c0.2,0,0.2,0.2,0.1,0.3l-1,0.7l0.4,1.2c0,0.1-0.1,0.3-0.2,0.2l-1-0.7l-1,0.7
		c-0.1,0.1-0.3,0-0.2-0.2l0.4-1.2l-1-0.7C35.3,8.2,35.3,8,35.5,8l1.2,0l0.4-1.1C37.1,6.7,37.3,6.7,37.4,6.9z"/>
	<path class="st0" d="M37.4,12.9l0.4,1.1l1.2,0c0.2,0,0.2,0.2,0.1,0.3l-1,0.7l0.4,1.2c0,0.1-0.1,0.3-0.2,0.2l-1-0.7l-1,0.7
		c-0.1,0.1-0.3,0-0.2-0.2l0.4-1.2l-1-0.7c-0.1-0.1-0.1-0.3,0.1-0.3l1.2,0l0.4-1.1C37.1,12.7,37.3,12.7,37.4,12.9z"/>
	<path class="st0" d="M37.4,18.9l0.4,1.1l1.2,0c0.2,0,0.2,0.2,0.1,0.3l-1,0.7l0.4,1.2c0,0.1-0.1,0.3-0.2,0.2l-1-0.7l-1,0.7
		c-0.1,0.1-0.3,0-0.2-0.2l0.4-1.2l-1-0.7c-0.1-0.1-0.1-0.3,0.1-0.3l1.2,0l0.4-1.1C37.1,18.7,37.3,18.7,37.4,18.9z"/>
	<path class="st0" d="M37.4,24.9l0.4,1.1l1.2,0c0.2,0,0.2,0.2,0.1,0.3l-1,0.7l0.4,1.2c0,0.1-0.1,0.3-0.2,0.2l-1-0.7l-1,0.7
		c-0.1,0.1-0.3,0-0.2-0.2l0.4-1.2l-1-0.7c-0.1-0.1-0.1-0.3,0.1-0.3l1.2,0l0.4-1.1C37.1,24.7,37.3,24.7,37.4,24.9z"/>
	<path class="st0" d="M42,4l0.4,1.1l1.2,0c0.2,0,0.2,0.2,0.1,0.3l-1,0.7l0.4,1.2c0,0.1-0.1,0.3-0.2,0.2l-1-0.7l-1,0.7
		c-0.1,0.1-0.3,0-0.2-0.2L41,6.1l-1-0.7c-0.1-0.1-0.1-0.3,0.1-0.3l1.2,0L41.7,4C41.8,3.8,42,3.8,42,4z"/>
	<path class="st0" d="M42,9.9l0.4,1.1l1.2,0c0.2,0,0.2,0.2,0.1,0.3l-1,0.7l0.4,1.2c0,0.1-0.1,0.3-0.2,0.2l-1-0.7l-1,0.7
		c-0.1,0.1-0.3,0-0.2-0.2l0.4-1.2l-1-0.7c-0.1-0.1-0.1-0.3,0.1-0.3l1.2,0l0.4-1.1C41.8,9.8,42,9.8,42,9.9z"/>
	<path class="st0" d="M42,15.9l0.4,1.1l1.2,0c0.2,0,0.2,0.2,0.1,0.3l-1,0.7l0.4,1.2c0,0.1-0.1,0.3-0.2,0.2l-1-0.7l-1,0.7
		c-0.1,0.1-0.3,0-0.2-0.2l0.4-1.2l-1-0.7c-0.1-0.1-0.1-0.3,0.1-0.3l1.2,0l0.4-1.1C41.8,15.8,42,15.8,42,15.9z"/>
	<path class="st0" d="M42,21.9l0.4,1.1l1.2,0c0.2,0,0.2,0.2,0.1,0.3l-1,0.7l0.4,1.2c0,0.1-0.1,0.3-0.2,0.2l-1-0.7l-1,0.7
		c-0.1,0.1-0.3,0-0.2-0.2l0.4-1.2l-1-0.7c-0.1-0.1-0.1-0.3,0.1-0.3l1.2,0l0.4-1.1C41.8,21.8,42,21.8,42,21.9z"/>
	<path class="st0" d="M42,27.9l0.4,1.1l1.2,0c0.2,0,0.2,0.2,0.1,0.3l-1,0.7l0.4,1.2c0,0.1-0.1,0.3-0.2,0.2l-1-0.7l-1,0.7
		c-0.1,0.1-0.3,0-0.2-0.2l0.4-1.2l-1-0.7c-0.1-0.1-0.1-0.3,0.1-0.3l1.2,0l0.4-1.1C41.8,27.8,42,27.8,42,27.9z"/>
</g>
</svg>
