<svg width="136" height="136" xmlns="http://www.w3.org/2000/svg" xmlns:xlink="http://www.w3.org/1999/xlink"><defs><linearGradient x1="0%" y1="0%" x2="102%" y2="101%" id="b"><stop stop-color="#9BDCEE" offset="0%"/><stop stop-color="#F6C1FF" offset="100%"/></linearGradient><circle id="a" cx="66.34" cy="65.619" r="65.476"/></defs><g transform="translate(2 2.251)" fill="none" fill-rule="evenodd"><mask id="c" fill="#fff"><use xlink:href="#a"/></mask><use fill="url(#b)" xlink:href="#a"/><circle stroke="#B7D4F3" stroke-width="2" cx="66.34" cy="65.619" r="66.476"/><g mask="url(#c)" fill-rule="nonzero"><path d="M65.778 80.584c12.615 0 22.842-12.422 22.842-27.744 0-15.323-3.357-27.745-22.842-27.745-19.484 0-22.842 12.422-22.842 27.745 0 15.322 10.227 27.744 22.842 27.744z" fill="#FFF"/><path d="M22.636 122.946c-.005-.934-.01-.263 0 0zm86.284.73c.015-.256.005-1.775 0 0z" fill="#000"/><path d="M108.872 121.826c-.423-26.693-3.91-34.299-30.586-39.113 0 0-3.755 4.785-12.508 4.785-8.752 0-12.508-4.785-12.508-4.785-26.386 4.762-30.084 12.255-30.57 38.246-.04 2.122-.058 2.233-.066 1.987.002.462.004 1.316.004 2.804 0 0 6.351 12.804 43.14 12.804s43.14-12.804 43.14-12.804l.002-2.074c-.007.152-.021-.143-.048-1.85z" fill="#FFF"/></g></g></svg>