<svg xmlns="http://www.w3.org/2000/svg" viewBox="0 0 511.997 511.997"><path d="M178.61 280.677a18.993 18.993 0 0 1-2.496-9.43c0-5.31 2.188-10.132 5.705-13.613a71.481 71.481 0 0 1-5.818-28.294c0-41.667 35.816-75.446 80-75.446 31.022 0 57.92 16.652 71.193 41C332.822 205.219 336 216.93 336 229.34a71.482 71.482 0 0 1-5.819 28.294c3.518 3.481 5.705 8.303 5.705 13.615a19 19 0 0 1-2.498 9.43c-3.305 5.802-9.551 9.741-16.673 9.741h-16.968v19.863c0 4.299-3.52 7.818-7.82 7.818h-73.123c-4.299 0-7.818-3.52-7.818-7.818V290.42h-15.7c-7.123 0-13.371-3.94-16.676-9.743zM256.001 10C189.844 48.721 120.653 78.025 45.999 98.303v110.394c0 207.101 180.666 293.3 210.002 293.3 29.334 0 210-86.2 210-293.3V98.303C395.592 79.178 321.93 48.592 256.001 10z" fill="#ff5a5a"/><path d="M181.819 257.634c-3.518 3.481-5.705 8.303-5.705 13.615 0 3.42.907 6.639 2.496 9.428 3.305 5.804 9.553 9.743 16.675 9.743h15.7v19.863c0 4.299 3.52 7.818 7.818 7.818h73.123c4.301 0 7.82-3.52 7.82-7.818V290.42h16.968c7.122 0 13.368-3.939 16.673-9.741a19.003 19.003 0 0 0 2.498-9.43c0-5.312-2.188-10.134-5.705-13.615a71.482 71.482 0 0 0 5.819-28.294c0-12.411-3.178-24.121-8.808-34.446-13.272-24.347-40.169-41-71.191-41-31.023 0-57.924 16.655-71.193 41C179.176 205.219 176 216.93 176 229.34a71.507 71.507 0 0 0 5.819 28.294z" fill="#ff8c5a"/><path d="M256.001 143.895c-30.943 0-58.289 14.905-74.494 37.547l-21.83-12.604-2.973-11.088c-1.43-5.335-6.916-8.504-12.248-7.069-5.334 1.43-8.5 6.914-7.069 12.248l1.454 5.426-5.43 1.456c-5.334 1.43-8.5 6.914-7.07 12.248 1.197 4.467 5.238 7.414 9.652 7.414.857 0 1.729-.111 2.596-.343l11.086-2.972 22.203 12.818a81.22 81.22 0 0 0-5.877 30.364 81.19 81.19 0 0 0 4.451 26.613c-2.827 4.556-4.338 9.81-4.338 15.296 0 1.656.146 3.277.412 4.858l-16.851 9.729-11.085-2.971c-5.334-1.43-10.818 1.735-12.248 7.07-1.43 5.335 1.735 10.818 7.07 12.249l5.428 1.455-1.455 5.429c-1.43 5.334 1.736 10.818 7.07 12.248a10.03 10.03 0 0 0 2.596.343c4.414 0 8.455-2.946 9.652-7.413l2.973-11.09 16.754-9.673c5.09 4.322 11.67 6.938 18.854 6.938h5.7v9.863c0 9.825 7.994 17.818 17.818 17.818h73.123c9.826 0 17.82-7.993 17.82-17.818v-9.863h6.968c7.183 0 13.764-2.615 18.853-6.936l16.758 9.674 2.973 11.089c1.197 4.467 5.238 7.414 9.652 7.414.857 0 1.729-.111 2.596-.343 5.334-1.43 8.5-6.914 7.07-12.248l-1.455-5.429 5.426-1.453c5.336-1.429 8.502-6.912 7.073-12.247-1.429-5.335-6.911-8.502-12.247-7.073l-11.088 2.969-16.852-9.728c.267-1.582.412-3.205.412-4.862 0-5.485-1.511-10.738-4.338-15.294a81.187 81.187 0 0 0 4.452-26.613 81.221 81.221 0 0 0-5.878-30.364l22.202-12.82 11.089 2.97c.867.232 1.737.343 2.594.343 4.416 0 8.457-2.948 9.653-7.416 1.429-5.335-1.737-10.818-7.073-12.247l-5.427-1.454 1.454-5.427c1.43-5.334-1.736-10.818-7.071-12.247-5.335-1.43-10.818 1.736-12.247 7.071l-2.97 11.084-21.833 12.607c-16.203-22.643-43.547-37.546-74.49-37.546zm60.713 136.525h-16.968c-5.523 0-10 4.477-10 10v17.681H266v-11.399c0-5.523-4.477-10-10-10s-10 4.477-10 10v11.399h-25.016V290.42c0-5.523-4.477-10-10-10h-15.7c-3.405 0-6.377-1.87-7.959-4.634-.02-.036-.035-.073-.056-.109-.021-.038-.049-.072-.071-.11a9.124 9.124 0 0 1-1.085-4.32c0-2.447.972-4.755 2.736-6.501a9.999 9.999 0 0 0 2.157-11.055 61.377 61.377 0 0 1-5.007-24.351c0-36.087 31.402-65.446 70-65.446s69.999 29.359 69.999 65.446a61.375 61.375 0 0 1-5.008 24.351 9.999 9.999 0 0 0 2.157 11.055c1.765 1.746 2.736 4.055 2.736 6.503a9.116 9.116 0 0 1-1.078 4.306c-.025.043-.056.081-.08.125-.025.042-.043.087-.066.13-1.584 2.75-4.549 4.61-7.945 4.61z"/><path d="M227.699 225.12c-8.61 0-15.634 7.023-15.634 15.633s7.023 15.631 15.634 15.631c8.612 0 15.634-7.021 15.634-15.631s-7.022-15.633-15.634-15.633zm56.602 0c-8.611 0-15.632 7.023-15.632 15.633s7.021 15.633 15.632 15.633 15.633-7.023 15.633-15.633-7.021-15.633-15.633-15.633z"/><path d="M468.622 88.652C397.268 69.271 325.491 39.09 261.052 1.369a10.001 10.001 0 0 0-10.103 0C184.657 40.169 116.76 68.72 43.377 88.652a10 10 0 0 0-7.379 9.65v110.394c0 113.419 52.768 188.485 97.033 231.486 47.602 46.241 102.925 71.815 122.969 71.815 20.043 0 75.366-25.574 122.968-71.815 44.266-43 97.032-118.066 97.032-231.486V98.303a10 10 0 0 0-7.378-9.651zm-12.621 120.045c0 106.432-49.469 176.827-90.968 217.14-47.165 45.816-97.761 66.16-109.032 66.16s-61.869-20.344-109.033-66.16c-41.5-40.313-90.969-110.708-90.969-217.14V105.916c70.438-19.773 135.996-47.424 200.004-84.352 62.396 35.944 131.266 64.986 199.998 84.348v102.785z"/><path d="M348.376 400.354a9.96 9.96 0 0 0 6.778 2.65 9.98 9.98 0 0 0 7.353-3.219c17.789-19.28 32.602-40.532 44.025-63.164 2.488-4.931.509-10.945-4.422-13.433-4.93-2.49-10.943-.509-13.433 4.421-10.587 20.976-24.338 40.697-40.87 58.614-3.746 4.059-3.491 10.385.569 14.131zM175.69 95.418c-2.125-5.099-7.979-7.508-13.076-5.387a888.987 888.987 0 0 1-48.462 18.539c-5.214 1.821-7.965 7.524-6.144 12.738 1.439 4.123 5.307 6.706 9.439 6.706a9.989 9.989 0 0 0 3.298-.562 908.586 908.586 0 0 0 49.558-18.958c5.098-2.123 7.51-7.977 5.387-13.076zm18.081 1.932a9.973 9.973 0 0 0 3.815-.76c.155-.064.313-.134.477-.209 5.013-2.266 7.258-8.159 5.014-13.188-2.252-5.044-8.166-7.307-13.207-5.057l-.109.049c-4.976 2.174-7.318 7.94-5.235 12.982a10.002 10.002 0 0 0 9.245 6.183zm134.394 308.168l-.078.071c-4.131 3.577-4.629 9.82-1.094 14.008a9.981 9.981 0 0 0 7.646 3.55 9.963 9.963 0 0 0 6.777-2.649c4.137-3.659 4.523-9.979.864-14.116-3.656-4.136-9.977-4.524-14.115-.864z"/></svg>