<svg width="68" height="68" xmlns="http://www.w3.org/2000/svg"><defs><linearGradient x1="-9.075%" y1="24.33%" x2="104.684%" y2="72.959%" id="a"><stop stop-color="#FFF" stop-opacity=".2" offset="0%"/><stop stop-color="#FFF" stop-opacity="0" offset="100%"/></linearGradient></defs><g transform="translate(1 1)" fill="none" fill-rule="evenodd"><circle stroke="#000" cx="33" cy="33" r="33"/><g transform="translate(18 13)" fill-rule="nonzero"><path d="M23.236 34.653H3.342a3.311 3.311 0 0 1-3.316-3.3V3.3C.026 1.48 1.513 0 3.342 0h19.894a3.311 3.311 0 0 1 3.315 3.3v28.053c0 1.82-1.487 3.3-3.315 3.3z" fill="#303C42"/><path d="M1.684 31.353V3.3c0-.911.742-1.65 1.658-1.65h19.894c.915 0 1.658.739 1.658 1.65v28.053c0 .912-.743 1.65-1.658 1.65H3.342a1.654 1.654 0 0 1-1.658-1.65z" fill="#FAFAFA"/><ellipse fill="#303C42" cx="13.289" cy="14.026" rx="9.118" ry="9.076"/><path d="M5.912 14.851h3.249c.092 2.248.558 4.483 1.368 6.06a7.415 7.415 0 0 1-4.617-6.06zM13.289 6.6c.95 0 2.285 2.557 2.453 6.601h-4.907c.168-4.044 1.504-6.6 2.454-6.6zm2.453 8.251c-.168 4.045-1.504 6.601-2.453 6.601-.95 0-2.286-2.556-2.454-6.6h4.907zm.307 6.06c.81-1.577 1.276-3.812 1.367-6.06h3.25a7.415 7.415 0 0 1-4.617 6.06zm4.616-7.71h-3.249c-.091-2.247-.558-4.482-1.367-6.06a7.414 7.414 0 0 1 4.616 6.06zm-10.136-6.06c-.81 1.578-1.276 3.813-1.368 6.06H5.912a7.415 7.415 0 0 1 4.617-6.06z" fill="#26C6DA"/><g transform="translate(4.974 21.426)" fill="#303C42"><path d="M15.775 3.326H.855a.827.827 0 0 0-.83.825c0 .456.372.825.83.825h14.92a.827.827 0 0 0 .83-.825.827.827 0 0 0-.83-.825zm-3.315 3.3H4.17a.827.827 0 0 0-.828.826c0 .456.37.825.829.825h8.289a.827.827 0 0 0 .829-.825.827.827 0 0 0-.83-.826z"/><ellipse cx="22.407" cy="9.102" rx="9.118" ry="9.076"/></g><ellipse fill="#7CB342" cx="27.38" cy="30.528" rx="7.46" ry="7.426"/><path d="M20.749 31.353c0-4.095 3.346-7.426 7.46-7.426 1.846 0 3.515.696 4.819 1.805-1.37-1.595-3.38-2.63-5.648-2.63-4.113 0-7.46 3.331-7.46 7.426 0 2.258 1.04 4.259 2.642 5.622-1.114-1.298-1.813-2.96-1.813-4.797z" fill="#FFF" opacity=".2"/><path d="M30.939 27.47l-5.216 5.192-1.901-1.892a.831.831 0 0 0-1.172 0 .822.822 0 0 0 0 1.166l2.487 2.476a.828.828 0 0 0 1.172 0l5.802-5.776a.822.822 0 0 0 0-1.167.831.831 0 0 0-1.172 0z" fill="#303C42"/><path d="M27.38 21.452c-.28 0-.555.017-.829.042V3.3c0-1.82-1.487-3.3-3.315-3.3H3.342A3.311 3.311 0 0 0 .026 3.3v28.053c0 1.82 1.487 3.3 3.316 3.3h15.927a9.126 9.126 0 0 0 8.111 4.951c5.028 0 9.118-4.071 9.118-9.076 0-5.004-4.09-9.076-9.118-9.076z" fill="url(#a)"/></g></g></svg>