<svg width="30" height="30" xmlns="http://www.w3.org/2000/svg"><path d="M29.382 13.573h-1.397V7.147a2.797 2.797 0 0 0-2.794-2.794H23.3L21.363.873a1.676 1.676 0 0 0-2.28-.652l-7.43 4.132h-8.3A2.797 2.797 0 0 0 .559 7.147V26.33a2.797 2.797 0 0 0 2.794 2.794h21.838a2.797 2.797 0 0 0 2.794-2.794v-5.634h1.397v-7.124zm-4.19-8.102c.86 0 1.562.653 1.657 1.49h-2.1l-.828-1.49h1.27zm-5.565-4.273a.57.57 0 0 1 .76.217L23.47 6.96H9.264l10.363-5.762zm7.24 25.133c0 .924-.752 1.676-1.676 1.676H3.353a1.678 1.678 0 0 1-1.676-1.676V7.147c0-.924.752-1.676 1.676-1.676h6.29l-2.68 1.49h-3.26a.559.559 0 1 0 0 1.118h23.164v5.494h-4.086a3.446 3.446 0 0 0-3.442 3.442v.24a3.446 3.446 0 0 0 3.442 3.443h4.086v5.633zm1.397-6.752h-5.483a2.327 2.327 0 0 1-2.324-2.324v-.24a2.327 2.327 0 0 1 2.324-2.325h5.484v4.89zm-3.771-2.398a1.233 1.233 0 1 1-2.467 0 1.233 1.233 0 0 1 2.467 0z"/></svg>