<svg width="68" height="68" xmlns="http://www.w3.org/2000/svg"><g transform="translate(1 1)" fill="none" fill-rule="evenodd"><circle stroke="#000" cx="33" cy="33" r="33"/><g fill-rule="nonzero"><path d="M45.877 44.053A16.966 16.966 0 0 0 49.98 33c0-9.362-7.617-16.979-16.979-16.979-9.362 0-16.979 7.617-16.979 16.979 0 9.362 7.617 16.979 16.979 16.979 4.05 0 7.976-1.457 11.053-4.102a.67.67 0 0 1 .936.062c.328-.305.645-.622.95-.95a.67.67 0 0 1-.062-.936zM32.33 18.032a.67.67 0 0 1 1.34 0v2.68a.67.67 0 0 1-1.34 0v-2.68zM20.713 33.67h-2.681a.67.67 0 0 1 0-1.34h2.68a.67.67 0 0 1 0 1.34zM33.67 47.968a.67.67 0 0 1-1.34 0v-2.68a.67.67 0 0 1 1.34 0v2.68zm10.388-23.182l-8.638 8.637A2.461 2.461 0 0 1 33 35.457c-.434 0-.843-.113-1.197-.312l-7.013 7.013a.668.668 0 0 1-.948 0 .67.67 0 0 1 0-.948l7.013-7.013a2.44 2.44 0 0 1-.275-.774l-5.794-5.794a.67.67 0 0 1 0-.948l1.895-1.895a.67.67 0 0 1 .948 0l5.794 5.794.085.016.913-.913a.67.67 0 0 1 0-.948l6.793-6.793a.67.67 0 0 1 .948 0l1.896 1.896a.67.67 0 0 1 0 .948zm1.23 8.884a.67.67 0 0 1 0-1.34h2.68a.67.67 0 0 1 0 1.34h-2.68z" fill="#FFF"/><path d="M30.855 31.803c.222-.397.551-.726.948-.948l-4.648-4.648-.948.948 4.648 4.648z" fill="#6DA8D6"/><path d="M35.145 31.803l7.491-7.491-.948-.948-6.319 6.319a.67.67 0 0 1-.947 0l-.914.913a2.465 2.465 0 0 1 1.637 1.207z" fill="#98D9D5"/><path d="M33 13.34c-10.84 0-19.66 8.82-19.66 19.66S22.16 52.66 33 52.66 52.66 43.84 52.66 33 43.84 13.34 33 13.34zm13.894 31.587a.67.67 0 0 1-.945.071l-.01-.01c-.305.33-.622.646-.95.95l.009.01a.67.67 0 0 1-.071.946A18.307 18.307 0 0 1 33 51.319c-10.101 0-18.32-8.218-18.32-18.319 0-10.101 8.219-18.32 18.32-18.32S51.32 22.9 51.32 33c0 4.371-1.572 8.607-4.426 11.927z" fill="#FF6E1D"/><path d="M47.85 18.15A20.862 20.862 0 0 0 33 12a20.862 20.862 0 0 0-14.85 6.15A20.862 20.862 0 0 0 12 33c0 5.61 2.184 10.883 6.15 14.85A20.862 20.862 0 0 0 33 54c5.61 0 10.883-2.184 14.85-6.15A20.862 20.862 0 0 0 54 33c0-5.61-2.184-10.883-6.15-14.85zM33 52.66c-10.84 0-19.66-8.82-19.66-19.66S22.16 13.34 33 13.34 52.66 22.16 52.66 33 43.84 52.66 33 52.66z" fill="#082947"/><path d="M34.117 33a1.118 1.118 0 0 0-2.234 0 1.118 1.118 0 0 0 2.234 0z" fill="#FFCC75"/><path d="M33 21.383c.37 0 .67-.3.67-.67v-2.681a.67.67 0 0 0-1.34 0v2.68c0 .37.3.671.67.671zM48.638 33c0-.37-.3-.67-.67-.67h-2.68a.67.67 0 0 0 0 1.34h2.68c.37 0 .67-.3.67-.67zM33 44.617c-.37 0-.67.3-.67.67v2.681a.67.67 0 0 0 1.34 0v-2.68a.67.67 0 0 0-.67-.671zM20.713 32.33h-2.681a.67.67 0 0 0 0 1.34h2.68a.67.67 0 0 0 0-1.34zm21.449-10.388a.67.67 0 0 0-.948 0l-6.792 6.793a.67.67 0 0 0 .947.948l6.32-6.32.947.949-7.491 7.49a2.466 2.466 0 0 0-1.637-1.206l-.085-.016-5.794-5.795a.67.67 0 0 0-.948 0l-1.895 1.896a.67.67 0 0 0 0 .948l5.794 5.794c.048.277.142.537.275.774l-7.013 7.013a.67.67 0 1 0 .948.948l7.013-7.013c.354.199.763.312 1.197.312a2.46 2.46 0 0 0 2.42-2.034l8.638-8.638a.67.67 0 0 0 0-.947l-1.896-1.896zm-10.36 8.913a2.474 2.474 0 0 0-.947.948l-4.648-4.648.948-.948 4.648 4.648zM31.884 33a1.118 1.118 0 0 1 2.234 0 1.118 1.118 0 0 1-2.234 0z" fill="#082947"/><path d="M33 14.68c-10.101 0-18.32 8.22-18.32 18.32S22.9 51.32 33 51.32c4.371 0 8.607-1.572 11.927-4.426a.67.67 0 0 0 .071-.945l-.01-.01a.67.67 0 0 0-.935-.062A16.966 16.966 0 0 1 33 49.98c-9.362 0-16.979-7.617-16.979-16.979 0-9.362 7.617-16.979 16.979-16.979 9.362 0 16.979 7.617 16.979 16.979 0 4.05-1.457 7.976-4.102 11.053a.67.67 0 0 0 .062.936l.01.01a.67.67 0 0 0 .945-.072A18.308 18.308 0 0 0 51.319 33c0-10.101-8.218-18.32-18.319-18.32z" fill="#082947"/></g></g></svg>