<svg width="211" height="215" xmlns="http://www.w3.org/2000/svg"><g fill="none" fill-rule="evenodd"><path d="M101.475 54h1.58c4.128 0 7.862 1.622 10.569 4.247C116.328 60.872 118 64.497 118 68.5c0 8.009-6.69 14.5-14.945 14.5H101M32.528 54h-1.586C22.69 54 16 60.491 16 68.501c0 4.004 1.672 7.628 4.377 10.253C23.082 81.38 26.817 83 30.942 83H33" fill="#F9572B"/><path d="M20 125.993C26.78 106.783 45.267 93 67 93c13.746 0 26.191 5.51 35.199 14.42A49.093 49.093 0 0 1 114 125.993L88.81 140" fill="#45B8C4"/><path d="M67 93c-12.965 0-23.994 13.786-28.04 33H20c6.782-19.214 25.268-33 47-33" fill="#239999"/><path d="M66.5 111C46.894 111 31 94.975 31 75.206V60.793C31 41.025 46.894 25 66.5 25S102 41.025 102 60.793v14.413C102 94.975 86.106 111 66.5 111" fill="#FFE2C5"/><path d="M67 111c-19.881 0-36-16.025-36-35.792V60.795C31 41.025 47.118 25 67 25c-10.087 0-18.269 16.024-18.269 35.795v14.413C48.731 94.975 56.913 111 67 111" fill="#E5C4A5"/><path d="M101 53.532A26.64 26.64 0 0 1 86.19 58c-11.47 0-21.253-7.228-25.077-17.382a26.91 26.91 0 0 1-12.58 14.286A26.57 26.57 0 0 1 36.035 58c-1.717 0-3.4-.161-5.032-.476L31 57.487C32.517 39.292 47.731 25 66.275 25c9.78 0 18.627 3.972 25.036 10.39A35.432 35.432 0 0 1 101 53.531" fill="#424C59"/><path d="M67 25c-9.144 0-16.728 12.958-18.107 29.904A27.575 27.575 0 0 1 36.14 58a27.55 27.55 0 0 1-5.136-.477L31 57.486C32.548 39.29 48.075 25 67 25" fill="#242C35"/><path d="M130 135.575v66.85a9.574 9.574 0 0 1-9.575 9.575H12.575A9.574 9.574 0 0 1 3 202.426v-66.85A9.575 9.575 0 0 1 12.576 126h107.85c5.288 0 9.574 4.288 9.574 9.575" fill="#BCBCBC"/><path d="M130 135.575v66.85c0 5.288-4.284 9.575-9.571 9.575H26.57c-5.287 0-9.57-4.287-9.57-9.574v-66.85c0-5.288 4.283-9.576 9.57-9.576h93.859c5.287 0 9.571 4.288 9.571 9.575" fill="#D8D8D8"/><path d="M67 159c5.522 0 10 4.477 10 9.999C77 174.523 72.522 179 67 179c-5.524 0-10-4.477-10-10.001 0-5.522 4.476-9.999 10-9.999M167.5 3C145.684 3 128 19.549 128 39.962c0 11.667 5.778 22.068 14.799 28.841-1.201 4.959-3.602 11.4-8.369 16.197 0 0 17.337-.998 23.615-9.145a42.08 42.08 0 0 0 9.455 1.07c21.816 0 39.5-16.548 39.5-36.963C207 19.55 189.316 3 167.5 3" fill="#FCC63F"/><path d="M66.499 6.395c26.513 0 48.083 21.488 48.083 47.899v1.186a17.638 17.638 0 0 0-10.298-4.048C100.05 34.574 84.717 22.049 66.5 22.049c-18.216 0-33.55 12.525-37.784 29.383a17.717 17.717 0 0 0-10.299 4.059v-1.197c0-26.411 21.57-47.9 48.082-47.9m38.615 73.85c.219-1.656.333-3.346.333-5.061V60.847c0-.962-.037-1.915-.106-2.86a11.27 11.27 0 0 1 5.916 3.116 11.207 11.207 0 0 1 3.325 7.995c-.001 5.594-4.102 10.25-9.468 11.146m-71.143-5.06V61.489c.666.044 1.332.074 2 .074 10.283 0 19.797-5.29 25.317-13.646 5.519 8.357 15.032 13.646 25.314 13.646 4.302 0 8.5-.902 12.365-2.63a32.8 32.8 0 0 1 .061 1.913v14.337c0 17.867-14.593 32.404-32.528 32.404-17.936 0-32.529-14.537-32.529-32.403M66.5 28.442c14.981 0 27.623 10.145 31.383 23.9a23.804 23.804 0 0 1-11.28 2.826c-9.866 0-18.831-6.179-22.312-15.375a3.208 3.208 0 0 0-3.002-2.07 3.207 3.207 0 0 0-3.003 2.07c-3.482 9.196-12.448 15.375-22.313 15.375-.495 0-.989-.02-1.48-.05C37.215 39.974 50.526 28.442 66.5 28.442m-44.758 48.65a11.213 11.213 0 0 1-3.325-7.994c0-5.516 3.988-10.12 9.242-11.107-.07.943-.106 1.896-.106 2.856v14.337c0 1.714.114 3.406.332 5.063a11.274 11.274 0 0 1-6.143-3.154m7.592 9.695a38.688 38.688 0 0 0 6.67 12.499 53.286 53.286 0 0 0-14.865 15.86 3.19 3.19 0 0 0 1.083 4.39 3.21 3.21 0 0 0 1.66.463 3.21 3.21 0 0 0 2.748-1.54 46.854 46.854 0 0 1 13.82-14.462c6.905 6.202 16.043 9.984 26.05 9.984 10.009 0 19.147-3.783 26.053-9.986a46.871 46.871 0 0 1 6.897 5.665 46.181 46.181 0 0 1 6.915 8.793 3.214 3.214 0 0 0 4.406 1.087 3.19 3.19 0 0 0 1.091-4.389 52.588 52.588 0 0 0-7.873-10.014 53.356 53.356 0 0 0-6.99-5.854 38.69 38.69 0 0 0 6.669-12.496 17.725 17.725 0 0 0 10.914-4.082v3.474c0 3.731-3.047 6.768-6.793 6.768a3.203 3.203 0 0 0-3.21 3.196 3.203 3.203 0 0 0 3.21 3.198c7.284 0 13.211-5.904 13.211-13.162V54.294C121 24.356 96.551 0 66.499 0 36.448 0 12 24.356 12 54.293v14.805c0 4.729 1.848 9.172 5.203 12.515a17.674 17.674 0 0 0 12.131 5.175" fill="#000"/><path d="M81 68c-2.662 0-5.165.979-7.047 2.757a2.951 2.951 0 0 0 0 4.343c1.272 1.2 3.332 1.2 4.603 0A3.54 3.54 0 0 1 81 74.144c.923 0 1.792.34 2.444.956.635.6 1.47.9 2.302.9.832 0 1.665-.3 2.3-.9a2.95 2.95 0 0 0 0-4.343C86.165 68.98 83.663 68 81 68m-20.953 7.1a2.951 2.951 0 0 0 0-4.344C58.165 68.979 55.663 68 53 68c-2.662 0-5.165.979-7.047 2.756a2.952 2.952 0 0 0 0 4.343c1.271 1.202 3.333 1.2 4.602 0A3.542 3.542 0 0 1 53 74.145c.924 0 1.79.338 2.443.954.636.6 1.47.9 2.303.9a3.355 3.355 0 0 0 2.301-.9m12.436 12.88a7.586 7.586 0 0 1-10.966 0 3.158 3.158 0 0 0-4.57 0c-1.262 1.305-1.262 3.42 0 4.723C59.718 95.568 63.356 97 66.998 97c3.641 0 7.283-1.432 10.055-4.298 1.261-1.304 1.261-3.418 0-4.723a3.157 3.157 0 0 0-4.57 0M120.264 123H12.737C5.713 123 0 128.705 0 135.718v66.563C-.001 209.296 5.713 215 12.737 215h107.527c7.023 0 12.736-5.704 12.736-12.718v-42.288a3.188 3.188 0 0 0-3.19-3.184 3.188 3.188 0 0 0-3.19 3.184v42.288c0 3.5-2.852 6.348-6.356 6.348H12.737c-3.505 0-6.355-2.848-6.355-6.348v-66.564c0-3.5 2.85-6.348 6.355-6.348h107.527c3.503 0 6.355 2.849 6.355 6.348v13.66a3.188 3.188 0 0 0 3.191 3.184 3.188 3.188 0 0 0 3.19-3.184v-13.66c0-7.013-5.714-12.718-12.736-12.718" fill="#000"/><path d="M73.57 169.5a7.079 7.079 0 0 1-7.071 7.071c-3.898 0-7.07-3.172-7.07-7.072 0-3.898 3.172-7.07 7.07-7.07 3.9 0 7.072 3.172 7.072 7.07M53 169.5c0 7.444 6.055 13.5 13.499 13.5C73.943 183 80 176.944 80 169.5c0-7.443-6.056-13.5-13.501-13.5C59.055 156 53 162.057 53 169.5M168 0c-9.72 0-18.892 2.942-26.522 8.507a3.174 3.174 0 0 0-.688 4.456 3.221 3.221 0 0 0 4.484.686c6.522-4.758 14.381-7.272 22.725-7.272 20.172 0 36.584 15.074 36.584 33.604S188.171 73.586 168 73.586a39.77 39.77 0 0 1-8.809-.984 3.22 3.22 0 0 0-3.251 1.156c-2.808 3.599-8.859 5.69-14.054 6.807 2.234-3.892 3.565-7.923 4.349-11.118a3.18 3.18 0 0 0-1.199-3.312c-8.655-6.42-13.62-15.953-13.62-26.154 0-7.238 2.468-14.133 7.137-19.938a3.177 3.177 0 0 0-.504-4.482 3.222 3.222 0 0 0-4.51.5C127.954 23.009 125 31.28 125 39.98c0 11.53 5.245 22.32 14.47 29.915-1.194 4.023-3.32 8.952-7.052 12.662a3.175 3.175 0 0 0-.659 3.558 3.205 3.205 0 0 0 3.112 1.879c.726-.04 16.91-1.05 24.764-8.792a46.44 46.44 0 0 0 8.366.76C191.71 79.962 211 62.025 211 39.98 211 17.936 191.71 0 168 0" fill="#000"/><path d="M161 36c0-.55-.449-1-1-1h-8c-.551 0-1 .45-1 1s.449 1 1 1h8c.551 0 1-.45 1-1m23.001-1h-8.003a1.001 1.001 0 0 0 0 2H184c.55 0 .999-.45.999-.999A.997.997 0 0 0 184 35m-16-6c.55 0 1-.449 1-.999V20c0-.55-.45-.999-1-.999s-1 .449-1 .999v8c0 .55.45.999 1 .999M174.044 31c.27 0 .53-.105.738-.304l5.912-5.913a1.043 1.043 0 1 0-1.476-1.476l-5.913 5.913a1.045 1.045 0 0 0 0 1.476c.209.199.478.304.739.304m-11.826-.304a1.047 1.047 0 0 0 1.476 0 1.043 1.043 0 0 0 0-1.476l-5.912-5.913a1.04 1.04 0 0 0-1.475 0 1.041 1.041 0 0 0 0 1.476l5.911 5.913z" fill="#000"/><path d="M179.94 45.854l-1.565 9.734c0 .01 0 .026-.008.043-.067.582-.286 2.35-2.984 2.35H163.27a2.245 2.245 0 0 1-2.197-1.885 5.193 5.193 0 0 0-.026-.118V45.11l.06-.017c.016 0 .024-.008.041-.008.06-.017 1.496-.423 2.925-1.447 1.987-1.41 3.043-3.312 3.043-5.49V34.04c.559-.06 1.327-.033 1.894.38.607.449.912 1.328.912 2.603v5.112c0 .559.457 1.014 1.015 1.014h6.822a2.22 2.22 0 0 1 1.41.533c.61.524.897 1.352.77 2.171zm-20.922 11.324c0 .034-.025.06-.06.06h-3.87a.06.06 0 0 1-.06-.06V44.536c0-.034.026-.059.06-.059h3.87c.035 0 .06.025.06.06v12.641zm21.471-15.025a4.215 4.215 0 0 0-2.73-1.022h-5.807v-4.098c0-1.961-.583-3.389-1.742-4.242-1.826-1.336-4.303-.583-4.412-.55a1.015 1.015 0 0 0-.711.963v4.945c0 1.504-.717 2.779-2.146 3.801a8.631 8.631 0 0 1-2.333 1.175l-.102.025a2.08 2.08 0 0 0-1.563-.701h-3.856A2.09 2.09 0 0 0 153 44.536v12.642c0 1.149.937 2.087 2.087 2.087h3.872c.507 0 .98-.186 1.336-.491A4.255 4.255 0 0 0 163.27 60h12.113c1.217 0 2.291-.296 3.11-.845 1.05-.71 1.7-1.833 1.886-3.271l1.564-9.717c.245-1.504-.313-3.042-1.454-4.014z" fill="#000"/></g></svg>